<?xml version="1.0" encoding="UTF-8"?>
<svg xmlns="http://www.w3.org/2000/svg" xmlns:xlink="http://www.w3.org/1999/xlink" width="229.52pt" height="115.76pt" viewBox="0 0 229.52 115.76" version="1.1">
<defs>
<clipPath id="clip1">
  <path d="M 0 0 L 229.519531 0 L 229.519531 115.761719 L 0 115.761719 Z M 0 0 "/>
</clipPath>
</defs>
<g id="surface1">
<g clip-path="url(#clip1)" clip-rule="nonzero">
<path style="fill:none;stroke-width:0.3985;stroke-linecap:butt;stroke-linejoin:miter;stroke:rgb(0%,0%,0%);stroke-opacity:1;stroke-miterlimit:10;" d="M 113.3875 0.001375 C 113.3875 31.309969 62.621875 56.692781 0.00078125 56.692781 C -62.624219 56.692781 -113.385937 31.309969 -113.385937 0.001375 C -113.385937 -31.311125 -62.624219 -56.693938 0.00078125 -56.693938 C 62.621875 -56.693938 113.3875 -31.311125 113.3875 0.001375 Z M 113.3875 0.001375 " transform="matrix(1,0,0,-1,114.8,57.892)"/>
</g>
<path style=" stroke:none;fill-rule:nonzero;fill:rgb(0%,0%,100%);fill-opacity:0.2;" d="M 212.996094 86.238281 L 213.648438 85.667969 L 214.28125 85.09375 L 214.902344 84.523438 L 215.5 83.949219 L 216.085938 83.378906 L 216.652344 82.804688 L 217.203125 82.234375 L 217.742188 81.660156 L 218.261719 81.089844 L 218.765625 80.515625 L 219.257812 79.945312 L 219.734375 79.371094 L 220.195312 78.800781 L 220.640625 78.226562 L 221.078125 77.65625 L 221.492188 77.082031 L 221.898438 76.511719 L 222.289062 75.9375 L 222.667969 75.367188 L 223.03125 74.792969 L 223.382812 74.222656 L 223.71875 73.648438 L 224.042969 73.078125 L 224.355469 72.503906 L 224.652344 71.933594 L 224.941406 71.359375 L 225.214844 70.789062 L 225.476562 70.214844 L 225.726562 69.644531 L 225.960938 69.070312 L 226.183594 68.5 L 226.398438 67.925781 L 226.597656 67.355469 L 226.785156 66.78125 L 226.960938 66.210938 L 227.125 65.636719 L 227.277344 65.066406 L 227.414062 64.492188 L 227.542969 63.921875 L 227.660156 63.347656 L 227.765625 62.777344 L 227.859375 62.203125 L 227.941406 61.632812 L 228.011719 61.058594 L 228.066406 60.488281 L 228.113281 59.914062 L 228.148438 59.34375 L 228.171875 58.769531 L 228.183594 58.199219 L 228.183594 57.625 L 228.175781 57.054688 L 228.152344 56.480469 L 228.117188 55.910156 L 228.070312 55.335938 L 228.015625 54.765625 L 227.945312 54.191406 L 227.867188 53.621094 L 227.773438 53.046875 L 227.667969 52.476562 L 227.550781 51.902344 L 227.425781 51.332031 L 227.285156 50.757812 L 227.136719 50.1875 L 226.972656 49.613281 L 226.796875 49.042969 L 226.609375 48.46875 L 226.410156 47.898438 L 226.199219 47.324219 L 225.976562 46.753906 L 225.742188 46.179688 L 225.492188 45.609375 L 225.234375 45.035156 L 224.960938 44.464844 L 224.675781 43.890625 L 224.378906 43.320312 L 224.066406 42.746094 L 223.746094 42.175781 L 223.40625 41.601562 L 223.054688 41.03125 L 222.695312 40.460938 L 222.316406 39.886719 L 221.925781 39.316406 L 221.523438 38.742188 L 221.105469 38.171875 L 220.671875 37.597656 L 220.230469 37.027344 L 219.765625 36.453125 L 219.292969 35.882812 L 218.804688 35.308594 L 218.300781 34.738281 L 217.777344 34.164062 L 217.242188 33.59375 L 216.695312 33.019531 L 216.125 32.449219 L 215.542969 31.875 L 214.941406 31.304688 L 214.328125 30.730469 L 213.695312 30.160156 L 213.042969 29.585938 L 16.605469 29.546875 L 15.953125 30.117188 L 15.316406 30.691406 L 14.699219 31.261719 L 14.097656 31.835938 L 13.515625 32.40625 L 12.949219 32.980469 L 12.394531 33.550781 L 11.859375 34.125 L 11.339844 34.695312 L 10.832031 35.269531 L 10.34375 35.839844 L 9.867188 36.414062 L 9.40625 36.984375 L 8.957031 37.558594 L 8.523438 38.128906 L 8.105469 38.699219 L 7.703125 39.273438 L 7.3125 39.84375 L 6.933594 40.417969 L 6.570312 40.988281 L 6.21875 41.5625 L 5.878906 42.132812 L 5.554688 42.707031 L 5.242188 43.277344 L 4.945312 43.851562 L 4.660156 44.421875 L 4.386719 44.996094 L 4.125 45.566406 L 3.875 46.140625 L 3.640625 46.710938 L 3.414062 47.285156 L 3.203125 47.855469 L 3.003906 48.429688 L 2.816406 49 L 2.640625 49.574219 L 2.476562 50.144531 L 2.324219 50.71875 L 2.183594 51.289062 L 2.054688 51.863281 L 1.941406 52.433594 L 1.835938 53.007812 L 1.742188 53.578125 L 1.660156 54.152344 L 1.589844 54.722656 L 1.53125 55.296875 L 1.484375 55.867188 L 1.449219 56.441406 L 1.425781 57.011719 L 1.414062 57.585938 L 1.414062 58.15625 L 1.425781 58.730469 L 1.449219 59.300781 L 1.484375 59.875 L 1.527344 60.445312 L 1.585938 61.019531 L 1.65625 61.589844 L 1.734375 62.164062 L 1.828125 62.734375 L 1.933594 63.308594 L 2.046875 63.878906 L 2.175781 64.453125 L 2.3125 65.023438 L 2.464844 65.597656 L 2.628906 66.167969 L 2.800781 66.742188 L 2.988281 67.3125 L 3.1875 67.886719 L 3.398438 68.457031 L 3.621094 69.03125 L 3.859375 69.601562 L 4.105469 70.175781 L 4.367188 70.746094 L 4.636719 71.320312 L 4.921875 71.890625 L 5.222656 72.464844 L 5.535156 73.035156 L 5.855469 73.609375 L 6.191406 74.179688 L 6.542969 74.753906 L 6.90625 75.324219 L 7.28125 75.898438 L 7.671875 76.46875 L 8.078125 77.042969 L 8.496094 77.613281 L 8.925781 78.1875 L 9.371094 78.757812 L 9.832031 79.332031 L 10.308594 79.902344 L 10.796875 80.476562 L 11.300781 81.046875 L 11.820312 81.621094 L 12.355469 82.191406 L 12.90625 82.765625 L 13.472656 83.335938 L 14.058594 83.910156 L 14.65625 84.480469 L 15.269531 85.054688 L 15.90625 85.625 L 16.558594 86.199219 Z M 212.996094 86.238281 "/>
</g>
</svg>
