<?xml version="1.0" encoding="UTF-8"?>
<svg xmlns="http://www.w3.org/2000/svg" xmlns:xlink="http://www.w3.org/1999/xlink" width="106.16pt" height="166.16pt" viewBox="0 0 106.16 166.16" version="1.1">
<defs>
<clipPath id="clip1">
  <path d="M 48 0 L 106.160156 0 L 106.160156 162 L 48 162 Z M 48 0 "/>
</clipPath>
<clipPath id="clip2">
  <path d="M 0 138 L 106.160156 138 L 106.160156 166.160156 L 0 166.160156 Z M 0 138 "/>
</clipPath>
<clipPath id="clip3">
  <path d="M 0 0 L 106.160156 0 L 106.160156 27 L 0 27 Z M 0 0 "/>
</clipPath>
</defs>
<g id="surface1">
<g clip-path="url(#clip1)" clip-rule="nonzero">
<path style="fill:none;stroke-width:0.79701;stroke-linecap:butt;stroke-linejoin:miter;stroke:rgb(0%,0%,0%);stroke-opacity:1;stroke-miterlimit:10;" d="M 51.380094 -70.86775 L 44.301969 -64.9615 L 37.844938 -59.05525 L 32.001188 -53.149 L 26.770719 -47.246656 L 22.157438 -41.340406 L 18.161344 -35.434156 L 14.774625 -29.527906 L 12.009 -23.621656 L 9.856656 -17.719313 L 8.317594 -11.813063 L 7.395719 -5.906813 L 7.087125 -0.0005625 L 7.395719 5.901781 L 8.317594 11.808031 L 9.85275 17.714281 L 12.005094 23.620531 L 14.774625 29.526781 L 18.157438 35.429125 L 22.157438 41.335375 L 26.770719 47.241625 L 31.997281 53.147875 L 37.841031 59.054125 L 44.301969 64.956469 L 51.376188 70.862719 " transform="matrix(1,0,0,-1,52.991,79.351)"/>
</g>
<path style="fill:none;stroke-width:0.79701;stroke-linecap:butt;stroke-linejoin:miter;stroke:rgb(0%,0%,0%);stroke-opacity:1;stroke-miterlimit:10;" d="M -51.377719 -70.86775 L -44.3035 -64.9615 L -37.842562 -59.05525 L -32.002719 -53.149 L -26.77225 -47.246656 L -22.158969 -41.340406 L -18.158969 -35.434156 L -14.776156 -29.527906 L -12.006625 -23.621656 L -9.854281 -17.719313 L -8.315219 -11.813063 L -7.393344 -5.906813 L -7.08475 -0.0005625 L -7.393344 5.901781 L -8.315219 11.808031 L -9.854281 17.714281 L -12.006625 23.620531 L -14.776156 29.526781 L -18.158969 35.429125 L -22.155062 41.335375 L -26.768344 47.241625 L -31.998812 53.147875 L -37.842562 59.054125 L -44.299594 64.956469 L -51.373812 70.862719 " transform="matrix(1,0,0,-1,52.991,79.351)"/>
<g clip-path="url(#clip2)" clip-rule="nonzero">
<path style="fill:none;stroke-width:0.79701;stroke-linecap:butt;stroke-linejoin:miter;stroke:rgb(0%,0%,0%);stroke-opacity:1;stroke-miterlimit:10;" d="M -51.377719 -70.86775 C -51.377719 -78.695875 -28.377719 -85.039625 0.0011875 -85.039625 C 28.376188 -85.039625 51.380094 -78.695875 51.380094 -70.86775 " transform="matrix(1,0,0,-1,52.991,79.351)"/>
</g>
<path style=" stroke:none;fill-rule:nonzero;fill:rgb(0%,0%,0%);fill-opacity:0.3;" d="M 104.371094 8.484375 C 104.371094 4.570312 81.367188 1.398438 52.992188 1.398438 C 24.613281 1.398438 1.613281 4.570312 1.613281 8.484375 C 1.613281 12.398438 24.613281 15.570312 52.992188 15.570312 C 81.367188 15.570312 104.371094 12.398438 104.371094 8.484375 Z M 104.371094 8.484375 "/>
<g clip-path="url(#clip3)" clip-rule="nonzero">
<path style="fill:none;stroke-width:0.79701;stroke-linecap:butt;stroke-linejoin:miter;stroke:rgb(0%,0%,0%);stroke-opacity:1;stroke-miterlimit:10;" d="M 51.380094 70.866625 C 51.380094 74.780687 28.376188 77.952562 0.0011875 77.952562 C -28.377719 77.952562 -51.377719 74.780687 -51.377719 70.866625 C -51.377719 66.952562 -28.377719 63.780687 0.0011875 63.780687 C 28.376188 63.780687 51.380094 66.952562 51.380094 70.866625 Z M 51.380094 70.866625 " transform="matrix(1,0,0,-1,52.991,79.351)"/>
</g>
<path style="fill:none;stroke-width:0.79701;stroke-linecap:butt;stroke-linejoin:miter;stroke:rgb(0%,0%,0%);stroke-opacity:1;stroke-miterlimit:10;" d="M -7.08475 -0.0005625 C -7.08475 -1.094313 -3.912875 -1.984938 0.0011875 -1.984938 C 3.91525 -1.984938 7.087125 -1.094313 7.087125 -0.0005625 " transform="matrix(1,0,0,-1,52.991,79.351)"/>
<path style=" stroke:none;fill-rule:nonzero;fill:rgb(0%,0%,0%);fill-opacity:0.3;" d="M 1.613281 8.484375 C 1.613281 12.398438 24.613281 15.570312 52.992188 15.570312 C 81.367188 15.570312 104.371094 12.398438 104.371094 8.484375 L 100.753906 11.4375 L 97.296875 14.390625 L 93.988281 17.339844 L 90.835938 20.292969 L 87.839844 23.246094 L 84.992188 26.199219 L 82.300781 29.152344 L 79.765625 32.105469 L 77.382812 35.054688 L 75.152344 38.007812 L 73.074219 40.960938 L 71.152344 43.914062 L 69.382812 46.867188 L 67.769531 49.820312 L 66.308594 52.773438 L 65 55.722656 L 63.847656 58.675781 L 62.847656 61.628906 L 62 64.582031 L 61.308594 67.535156 L 60.769531 70.488281 L 60.386719 73.4375 L 60.15625 76.390625 L 60.078125 79.34375 C 60.078125 80.441406 56.90625 81.328125 52.992188 81.328125 C 49.078125 81.328125 45.90625 80.441406 45.90625 79.34375 L 45.90625 79.351562 L 45.828125 76.398438 L 45.597656 73.445312 L 45.210938 70.492188 L 44.675781 67.539062 L 43.984375 64.589844 L 43.136719 61.636719 L 42.136719 58.683594 L 40.984375 55.730469 L 39.675781 52.777344 L 38.214844 49.824219 L 36.601562 46.875 L 34.832031 43.921875 L 32.910156 40.96875 L 30.835938 38.015625 L 28.605469 35.0625 L 26.222656 32.109375 L 23.6875 29.160156 L 20.996094 26.207031 L 18.152344 23.253906 L 15.152344 20.300781 L 12 17.347656 L 8.695312 14.394531 L 5.234375 11.445312 L 1.621094 8.492188 "/>
</g>
</svg>
