<?xml version="1.0" encoding="UTF-8"?>
<svg xmlns="http://www.w3.org/2000/svg" xmlns:xlink="http://www.w3.org/1999/xlink" width="116.72pt" height="116.24pt" viewBox="0 0 116.72 116.24" version="1.1">
<g id="surface1">
<path style="fill-rule:nonzero;fill:rgb(0%,0%,100%);fill-opacity:0.5;stroke-width:0.79701;stroke-linecap:butt;stroke-linejoin:miter;stroke:rgb(0%,0%,0%);stroke-opacity:1;stroke-miterlimit:10;" d="M 28.346281 -0.00115625 L 28.346281 28.3465 L 56.693938 28.3465 L 56.693938 -0.00115625 Z M 28.346281 -0.00115625 " transform="matrix(1,0,0,-1,-26.733,114.784)"/>
<path style="fill-rule:nonzero;fill:rgb(0%,0%,100%);fill-opacity:0.5;stroke-width:0.79701;stroke-linecap:butt;stroke-linejoin:miter;stroke:rgb(0%,0%,0%);stroke-opacity:1;stroke-miterlimit:10;" d="M 56.693938 -0.00115625 L 56.693938 56.694156 L 85.041594 56.694156 L 85.041594 -0.00115625 Z M 56.693938 -0.00115625 " transform="matrix(1,0,0,-1,-26.733,114.784)"/>
<path style="fill-rule:nonzero;fill:rgb(0%,0%,100%);fill-opacity:0.5;stroke-width:0.79701;stroke-linecap:butt;stroke-linejoin:miter;stroke:rgb(0%,0%,0%);stroke-opacity:1;stroke-miterlimit:10;" d="M 85.041594 -0.00115625 L 85.041594 85.041812 L 113.385344 85.041812 L 113.385344 -0.00115625 Z M 85.041594 -0.00115625 " transform="matrix(1,0,0,-1,-26.733,114.784)"/>
<path style="fill-rule:nonzero;fill:rgb(0%,0%,100%);fill-opacity:0.5;stroke-width:0.79701;stroke-linecap:butt;stroke-linejoin:miter;stroke:rgb(0%,0%,0%);stroke-opacity:1;stroke-miterlimit:10;" d="M 113.385344 -0.00115625 L 113.385344 113.385562 L 141.733 113.385562 L 141.733 -0.00115625 Z M 113.385344 -0.00115625 " transform="matrix(1,0,0,-1,-26.733,114.784)"/>
</g>
</svg>
