<?xml version="1.0" encoding="UTF-8"?>
<svg xmlns="http://www.w3.org/2000/svg" xmlns:xlink="http://www.w3.org/1999/xlink" width="74pt" height="101.84pt" viewBox="0 0 74 101.84" version="1.1">
<defs>
<clipPath id="clip1">
  <path d="M 32 32 L 74 32 L 74 70 L 32 70 Z M 32 32 "/>
</clipPath>
</defs>
<g id="surface1">
<path style="fill-rule:nonzero;fill:rgb(100%,79.998779%,79.998779%);fill-opacity:1;stroke-width:0.3985;stroke-linecap:butt;stroke-linejoin:miter;stroke:rgb(0%,0%,0%);stroke-opacity:1;stroke-dasharray:0.3985,1.99255;stroke-miterlimit:10;" d="M 14.173938 -28.345156 L 14.173938 70.865781 L 42.521594 70.865781 L 42.521594 -28.345156 Z M 14.173938 -28.345156 " transform="matrix(1,0,0,-1,15.787,72.065)"/>
<path style="fill:none;stroke-width:0.3985;stroke-linecap:butt;stroke-linejoin:miter;stroke:rgb(100%,0%,0%);stroke-opacity:1;stroke-dasharray:2.98883,2.98883;stroke-miterlimit:10;" d="M 14.173938 28.34625 L 42.521594 28.34625 " transform="matrix(1,0,0,-1,15.787,72.065)"/>
<path style="fill:none;stroke-width:0.79701;stroke-linecap:butt;stroke-linejoin:miter;stroke:rgb(0%,0%,0%);stroke-opacity:1;stroke-miterlimit:10;" d="M -14.173719 35.432187 L -12.400281 34.549375 L -10.63075 33.662656 L -8.857312 32.775937 L -7.087781 31.889219 L -5.314344 31.0025 L -3.544812 30.119687 L -1.771375 29.232969 L -0.00184375 28.34625 L 1.771594 27.459531 L 3.545031 26.576719 L 5.314563 25.69 L 7.088 24.803281 L 8.857531 23.916562 L 10.630969 23.029844 L 12.4005 22.147031 L 14.173938 21.260312 L 15.943469 20.373594 L 17.716906 19.486875 L 19.490344 18.604062 L 21.259875 17.717344 L 23.033313 16.830625 L 24.802844 15.943906 L 26.576281 15.061094 L 28.345813 14.174375 " transform="matrix(1,0,0,-1,15.787,72.065)"/>
<g clip-path="url(#clip1)" clip-rule="nonzero">
<path style="fill:none;stroke-width:0.79701;stroke-linecap:butt;stroke-linejoin:miter;stroke:rgb(0%,0%,0%);stroke-opacity:1;stroke-miterlimit:10;" d="M 28.345813 14.174375 L 29.529406 14.764219 L 33.068469 16.53375 L 34.252063 17.123594 L 35.43175 17.717344 L 36.611438 18.307187 L 37.795031 18.897031 L 41.334094 20.666562 L 42.517688 21.260312 L 44.877063 22.44 L 46.060656 23.029844 L 48.420031 24.209531 L 49.603625 24.799375 L 50.783313 25.393125 L 53.142688 26.572812 L 54.326281 27.162656 L 56.685656 28.342344 " transform="matrix(1,0,0,-1,15.787,72.065)"/>
</g>
<path style="fill-rule:nonzero;fill:rgb(100%,100%,100%);fill-opacity:1;stroke-width:0.3985;stroke-linecap:butt;stroke-linejoin:miter;stroke:rgb(0%,0%,0%);stroke-opacity:1;stroke-miterlimit:10;" d="M 31.18175 14.174375 C 31.18175 15.740781 29.912219 17.006406 28.345813 17.006406 C 26.779406 17.006406 25.513781 15.740781 25.513781 14.174375 C 25.513781 12.607969 26.779406 11.338437 28.345813 11.338437 C 29.912219 11.338437 31.18175 12.607969 31.18175 14.174375 Z M 31.18175 14.174375 " transform="matrix(1,0,0,-1,15.787,72.065)"/>
<path style=" stroke:none;fill-rule:nonzero;fill:rgb(0%,0%,0%);fill-opacity:1;" d="M 46.96875 43.71875 C 46.96875 42.152344 45.699219 40.882812 44.132812 40.882812 C 42.566406 40.882812 41.300781 42.152344 41.300781 43.71875 C 41.300781 45.285156 42.566406 46.554688 44.132812 46.554688 C 45.699219 46.554688 46.96875 45.285156 46.96875 43.71875 Z M 46.96875 43.71875 "/>
</g>
</svg>
