<?xml version="1.0" encoding="UTF-8"?>
<svg xmlns="http://www.w3.org/2000/svg" xmlns:xlink="http://www.w3.org/1999/xlink" width="102.32pt" height="176.24pt" viewBox="0 0 102.32 176.24" version="1.1">
<defs>
<clipPath id="clip1">
  <path d="M 0 0 L 102.320312 0 L 102.320312 176.238281 L 0 176.238281 Z M 0 0 "/>
</clipPath>
</defs>
<g id="surface1">
<g clip-path="url(#clip1)" clip-rule="nonzero">
<path style="fill:none;stroke-width:0.79701;stroke-linecap:butt;stroke-linejoin:miter;stroke:rgb(0%,0%,0%);stroke-opacity:1;stroke-miterlimit:10;" d="M -28.346719 85.039562 L -24.213906 59.027844 L -20.081094 38.520031 L -15.944375 22.984875 L -11.811563 11.895031 L -7.67875 4.723156 L -3.545938 0.941906 L 0.590781 0.0239375 L 4.723594 1.441906 L 8.856406 4.668469 L 12.989219 9.180187 L 17.125937 14.441906 L 21.25875 19.930187 L 25.391562 25.117687 L 29.524375 29.473156 L 33.661094 32.477062 L 37.793906 33.59425 L 41.926719 32.305187 L 46.059531 28.074719 L 50.19625 20.3755 L 54.329062 8.688 L 58.461875 -7.522938 L 62.594687 -28.78075 L 66.731406 -55.616688 L 70.864219 -88.554188 " transform="matrix(1,0,0,-1,29.96,86.438)"/>
</g>
</g>
</svg>
