<?xml version="1.0" encoding="UTF-8"?>
<svg xmlns="http://www.w3.org/2000/svg" xmlns:xlink="http://www.w3.org/1999/xlink" width="186.8pt" height="197.84pt" viewBox="0 0 186.8 197.84" version="1.1">
<defs>
<clipPath id="clip1">
  <path d="M 0 177 L 17 177 L 17 197.839844 L 0 197.839844 Z M 0 177 "/>
</clipPath>
<clipPath id="clip2">
  <path d="M 28 177 L 46 177 L 46 197.839844 L 28 197.839844 Z M 28 177 "/>
</clipPath>
<clipPath id="clip3">
  <path d="M 56 177 L 74 177 L 74 197.839844 L 56 197.839844 Z M 56 177 "/>
</clipPath>
<clipPath id="clip4">
  <path d="M 85 177 L 102 177 L 102 197.839844 L 85 197.839844 Z M 85 177 "/>
</clipPath>
<clipPath id="clip5">
  <path d="M 113 177 L 131 177 L 131 197.839844 L 113 197.839844 Z M 113 177 "/>
</clipPath>
<clipPath id="clip6">
  <path d="M 141 177 L 159 177 L 159 197.839844 L 141 197.839844 Z M 141 177 "/>
</clipPath>
<clipPath id="clip7">
  <path d="M 170 177 L 186.800781 177 L 186.800781 197.839844 L 170 197.839844 Z M 170 177 "/>
</clipPath>
<clipPath id="clip8">
  <path d="M 169 149 L 186.800781 149 L 186.800781 174 L 169 174 Z M 169 149 "/>
</clipPath>
<clipPath id="clip9">
  <path d="M 169 121 L 186.800781 121 L 186.800781 145 L 169 145 Z M 169 121 "/>
</clipPath>
<clipPath id="clip10">
  <path d="M 167 94 L 186.800781 94 L 186.800781 116 L 167 116 Z M 167 94 "/>
</clipPath>
<clipPath id="clip11">
  <path d="M 166 67 L 186.800781 67 L 186.800781 86 L 166 86 Z M 166 67 "/>
</clipPath>
<clipPath id="clip12">
  <path d="M 166 10 L 186.800781 10 L 186.800781 29 L 166 29 Z M 166 10 "/>
</clipPath>
</defs>
<g id="surface1">
<path style="fill:none;stroke-width:0.3985;stroke-linecap:butt;stroke-linejoin:miter;stroke:rgb(50%,50%,50%);stroke-opacity:1;stroke-dasharray:0.3985,1.99255;stroke-miterlimit:10;" d="M -0.001 -85.039375 L 170.081031 -85.039375 M -0.001 -56.691719 L 170.081031 -56.691719 M -0.001 -28.347969 L 170.081031 -28.347969 M -0.001 -0.0003125 L 170.081031 -0.0003125 M -0.001 28.347344 L 170.081031 28.347344 M -0.001 56.695 L 170.081031 56.695 M -0.001 85.030937 L 170.081031 85.030937 M -0.001 -85.039375 L -0.001 85.03875 M 28.346656 -85.039375 L 28.346656 85.03875 M 56.694313 -85.039375 L 56.694313 85.03875 M 85.041969 -85.039375 L 85.041969 85.03875 M 113.385719 -85.039375 L 113.385719 85.03875 M 141.733375 -85.039375 L 141.733375 85.03875 M 170.069313 -85.039375 L 170.069313 85.03875 " transform="matrix(1,0,0,-1,8.501,104.82)"/>
<g clip-path="url(#clip1)" clip-rule="nonzero">
<path style="fill:none;stroke-width:0.3985;stroke-linecap:butt;stroke-linejoin:miter;stroke:rgb(100%,0%,0%);stroke-opacity:1;stroke-miterlimit:10;" d="M -2.633812 -78.46125 L 2.631813 -91.621406 " transform="matrix(1,0,0,-1,8.501,104.82)"/>
</g>
<path style="fill:none;stroke-width:0.3985;stroke-linecap:butt;stroke-linejoin:miter;stroke:rgb(100%,0%,0%);stroke-opacity:1;stroke-miterlimit:10;" d="M -3.168969 -50.355781 L 3.170875 -63.031563 " transform="matrix(1,0,0,-1,8.501,104.82)"/>
<path style="fill:none;stroke-width:0.3985;stroke-linecap:butt;stroke-linejoin:miter;stroke:rgb(100%,0%,0%);stroke-opacity:1;stroke-miterlimit:10;" d="M -3.930687 -22.449531 L 3.932594 -34.2425 " transform="matrix(1,0,0,-1,8.501,104.82)"/>
<path style="fill:none;stroke-width:0.3985;stroke-linecap:butt;stroke-linejoin:miter;stroke:rgb(100%,0%,0%);stroke-opacity:1;stroke-miterlimit:10;" d="M -5.012719 5.011406 L 5.010719 -5.012031 " transform="matrix(1,0,0,-1,8.501,104.82)"/>
<path style="fill:none;stroke-width:0.3985;stroke-linecap:butt;stroke-linejoin:miter;stroke:rgb(100%,0%,0%);stroke-opacity:1;stroke-miterlimit:10;" d="M -6.336937 31.515312 L 6.338844 25.179375 " transform="matrix(1,0,0,-1,8.501,104.82)"/>
<path style="fill:none;stroke-width:0.3985;stroke-linecap:butt;stroke-linejoin:miter;stroke:rgb(100%,0%,0%);stroke-opacity:1;stroke-miterlimit:10;" d="M -7.086937 56.695 L 7.084938 56.695 " transform="matrix(1,0,0,-1,8.501,104.82)"/>
<path style="fill:none;stroke-width:0.3985;stroke-linecap:butt;stroke-linejoin:miter;stroke:rgb(100%,0%,0%);stroke-opacity:1;stroke-miterlimit:10;" d="M -6.336937 81.870781 L 6.338844 88.210625 " transform="matrix(1,0,0,-1,8.501,104.82)"/>
<g clip-path="url(#clip2)" clip-rule="nonzero">
<path style="fill:none;stroke-width:0.3985;stroke-linecap:butt;stroke-linejoin:miter;stroke:rgb(100%,0%,0%);stroke-opacity:1;stroke-miterlimit:10;" d="M 25.713844 -78.46125 L 30.979469 -91.621406 " transform="matrix(1,0,0,-1,8.501,104.82)"/>
</g>
<path style="fill:none;stroke-width:0.3985;stroke-linecap:butt;stroke-linejoin:miter;stroke:rgb(100%,0%,0%);stroke-opacity:1;stroke-miterlimit:10;" d="M 25.178688 -50.355781 L 31.514625 -63.031563 " transform="matrix(1,0,0,-1,8.501,104.82)"/>
<path style="fill:none;stroke-width:0.3985;stroke-linecap:butt;stroke-linejoin:miter;stroke:rgb(100%,0%,0%);stroke-opacity:1;stroke-miterlimit:10;" d="M 24.416969 -22.449531 L 32.276344 -34.2425 " transform="matrix(1,0,0,-1,8.501,104.82)"/>
<path style="fill:none;stroke-width:0.3985;stroke-linecap:butt;stroke-linejoin:miter;stroke:rgb(100%,0%,0%);stroke-opacity:1;stroke-miterlimit:10;" d="M 23.334938 5.011406 L 33.358375 -5.012031 " transform="matrix(1,0,0,-1,8.501,104.82)"/>
<path style="fill:none;stroke-width:0.3985;stroke-linecap:butt;stroke-linejoin:miter;stroke:rgb(100%,0%,0%);stroke-opacity:1;stroke-miterlimit:10;" d="M 22.006813 31.515312 L 34.6865 25.179375 " transform="matrix(1,0,0,-1,8.501,104.82)"/>
<path style="fill:none;stroke-width:0.3985;stroke-linecap:butt;stroke-linejoin:miter;stroke:rgb(100%,0%,0%);stroke-opacity:1;stroke-miterlimit:10;" d="M 21.260719 56.695 L 35.432594 56.695 " transform="matrix(1,0,0,-1,8.501,104.82)"/>
<path style="fill:none;stroke-width:0.3985;stroke-linecap:butt;stroke-linejoin:miter;stroke:rgb(100%,0%,0%);stroke-opacity:1;stroke-miterlimit:10;" d="M 22.006813 81.870781 L 34.6865 88.210625 " transform="matrix(1,0,0,-1,8.501,104.82)"/>
<g clip-path="url(#clip3)" clip-rule="nonzero">
<path style="fill:none;stroke-width:0.3985;stroke-linecap:butt;stroke-linejoin:miter;stroke:rgb(100%,0%,0%);stroke-opacity:1;stroke-miterlimit:10;" d="M 54.0615 -78.46125 L 59.327125 -91.621406 " transform="matrix(1,0,0,-1,8.501,104.82)"/>
</g>
<path style="fill:none;stroke-width:0.3985;stroke-linecap:butt;stroke-linejoin:miter;stroke:rgb(100%,0%,0%);stroke-opacity:1;stroke-miterlimit:10;" d="M 53.526344 -50.355781 L 59.862281 -63.031563 " transform="matrix(1,0,0,-1,8.501,104.82)"/>
<path style="fill:none;stroke-width:0.3985;stroke-linecap:butt;stroke-linejoin:miter;stroke:rgb(100%,0%,0%);stroke-opacity:1;stroke-miterlimit:10;" d="M 52.760719 -22.449531 L 60.624 -34.2425 " transform="matrix(1,0,0,-1,8.501,104.82)"/>
<path style="fill:none;stroke-width:0.3985;stroke-linecap:butt;stroke-linejoin:miter;stroke:rgb(100%,0%,0%);stroke-opacity:1;stroke-miterlimit:10;" d="M 51.682594 5.011406 L 61.706031 -5.012031 " transform="matrix(1,0,0,-1,8.501,104.82)"/>
<path style="fill:none;stroke-width:0.3985;stroke-linecap:butt;stroke-linejoin:miter;stroke:rgb(100%,0%,0%);stroke-opacity:1;stroke-miterlimit:10;" d="M 50.354469 31.515312 L 63.03025 25.179375 " transform="matrix(1,0,0,-1,8.501,104.82)"/>
<path style="fill:none;stroke-width:0.3985;stroke-linecap:butt;stroke-linejoin:miter;stroke:rgb(100%,0%,0%);stroke-opacity:1;stroke-miterlimit:10;" d="M 49.608375 56.695 L 63.78025 56.695 " transform="matrix(1,0,0,-1,8.501,104.82)"/>
<path style="fill:none;stroke-width:0.3985;stroke-linecap:butt;stroke-linejoin:miter;stroke:rgb(100%,0%,0%);stroke-opacity:1;stroke-miterlimit:10;" d="M 50.354469 81.870781 L 63.03025 88.210625 " transform="matrix(1,0,0,-1,8.501,104.82)"/>
<g clip-path="url(#clip4)" clip-rule="nonzero">
<path style="fill:none;stroke-width:0.3985;stroke-linecap:butt;stroke-linejoin:miter;stroke:rgb(100%,0%,0%);stroke-opacity:1;stroke-miterlimit:10;" d="M 82.409156 -78.46125 L 87.670875 -91.621406 " transform="matrix(1,0,0,-1,8.501,104.82)"/>
</g>
<path style="fill:none;stroke-width:0.3985;stroke-linecap:butt;stroke-linejoin:miter;stroke:rgb(100%,0%,0%);stroke-opacity:1;stroke-miterlimit:10;" d="M 81.870094 -50.355781 L 88.209938 -63.031563 " transform="matrix(1,0,0,-1,8.501,104.82)"/>
<path style="fill:none;stroke-width:0.3985;stroke-linecap:butt;stroke-linejoin:miter;stroke:rgb(100%,0%,0%);stroke-opacity:1;stroke-miterlimit:10;" d="M 81.108375 -22.449531 L 88.971656 -34.2425 " transform="matrix(1,0,0,-1,8.501,104.82)"/>
<path style="fill:none;stroke-width:0.3985;stroke-linecap:butt;stroke-linejoin:miter;stroke:rgb(100%,0%,0%);stroke-opacity:1;stroke-miterlimit:10;" d="M 80.03025 5.011406 L 90.049781 -5.012031 " transform="matrix(1,0,0,-1,8.501,104.82)"/>
<path style="fill:none;stroke-width:0.3985;stroke-linecap:butt;stroke-linejoin:miter;stroke:rgb(100%,0%,0%);stroke-opacity:1;stroke-miterlimit:10;" d="M 78.702125 31.515312 L 91.377906 25.179375 " transform="matrix(1,0,0,-1,8.501,104.82)"/>
<path style="fill:none;stroke-width:0.3985;stroke-linecap:butt;stroke-linejoin:miter;stroke:rgb(100%,0%,0%);stroke-opacity:1;stroke-miterlimit:10;" d="M 77.952125 56.695 L 92.127906 56.695 " transform="matrix(1,0,0,-1,8.501,104.82)"/>
<path style="fill:none;stroke-width:0.3985;stroke-linecap:butt;stroke-linejoin:miter;stroke:rgb(100%,0%,0%);stroke-opacity:1;stroke-miterlimit:10;" d="M 78.702125 81.870781 L 91.377906 88.210625 " transform="matrix(1,0,0,-1,8.501,104.82)"/>
<g clip-path="url(#clip5)" clip-rule="nonzero">
<path style="fill:none;stroke-width:0.3985;stroke-linecap:butt;stroke-linejoin:miter;stroke:rgb(100%,0%,0%);stroke-opacity:1;stroke-miterlimit:10;" d="M 110.756813 -78.46125 L 116.018531 -91.621406 " transform="matrix(1,0,0,-1,8.501,104.82)"/>
</g>
<path style="fill:none;stroke-width:0.3985;stroke-linecap:butt;stroke-linejoin:miter;stroke:rgb(100%,0%,0%);stroke-opacity:1;stroke-miterlimit:10;" d="M 110.21775 -50.355781 L 116.557594 -63.031563 " transform="matrix(1,0,0,-1,8.501,104.82)"/>
<path style="fill:none;stroke-width:0.3985;stroke-linecap:butt;stroke-linejoin:miter;stroke:rgb(100%,0%,0%);stroke-opacity:1;stroke-miterlimit:10;" d="M 109.456031 -22.449531 L 117.319313 -34.2425 " transform="matrix(1,0,0,-1,8.501,104.82)"/>
<path style="fill:none;stroke-width:0.3985;stroke-linecap:butt;stroke-linejoin:miter;stroke:rgb(100%,0%,0%);stroke-opacity:1;stroke-miterlimit:10;" d="M 108.377906 5.011406 L 118.397438 -5.012031 " transform="matrix(1,0,0,-1,8.501,104.82)"/>
<path style="fill:none;stroke-width:0.3985;stroke-linecap:butt;stroke-linejoin:miter;stroke:rgb(100%,0%,0%);stroke-opacity:1;stroke-miterlimit:10;" d="M 107.049781 31.515312 L 119.725563 25.179375 " transform="matrix(1,0,0,-1,8.501,104.82)"/>
<path style="fill:none;stroke-width:0.3985;stroke-linecap:butt;stroke-linejoin:miter;stroke:rgb(100%,0%,0%);stroke-opacity:1;stroke-miterlimit:10;" d="M 106.299781 56.695 L 120.475563 56.695 " transform="matrix(1,0,0,-1,8.501,104.82)"/>
<path style="fill:none;stroke-width:0.3985;stroke-linecap:butt;stroke-linejoin:miter;stroke:rgb(100%,0%,0%);stroke-opacity:1;stroke-miterlimit:10;" d="M 107.049781 81.870781 L 119.725563 88.210625 " transform="matrix(1,0,0,-1,8.501,104.82)"/>
<g clip-path="url(#clip6)" clip-rule="nonzero">
<path style="fill:none;stroke-width:0.3985;stroke-linecap:butt;stroke-linejoin:miter;stroke:rgb(100%,0%,0%);stroke-opacity:1;stroke-miterlimit:10;" d="M 139.100563 -78.46125 L 144.366188 -91.621406 " transform="matrix(1,0,0,-1,8.501,104.82)"/>
</g>
<path style="fill:none;stroke-width:0.3985;stroke-linecap:butt;stroke-linejoin:miter;stroke:rgb(100%,0%,0%);stroke-opacity:1;stroke-miterlimit:10;" d="M 138.565406 -50.355781 L 144.901344 -63.031563 " transform="matrix(1,0,0,-1,8.501,104.82)"/>
<path style="fill:none;stroke-width:0.3985;stroke-linecap:butt;stroke-linejoin:miter;stroke:rgb(100%,0%,0%);stroke-opacity:1;stroke-miterlimit:10;" d="M 137.803688 -22.449531 L 145.666969 -34.2425 " transform="matrix(1,0,0,-1,8.501,104.82)"/>
<path style="fill:none;stroke-width:0.3985;stroke-linecap:butt;stroke-linejoin:miter;stroke:rgb(100%,0%,0%);stroke-opacity:1;stroke-miterlimit:10;" d="M 136.721656 5.011406 L 146.745094 -5.012031 " transform="matrix(1,0,0,-1,8.501,104.82)"/>
<path style="fill:none;stroke-width:0.3985;stroke-linecap:butt;stroke-linejoin:miter;stroke:rgb(100%,0%,0%);stroke-opacity:1;stroke-miterlimit:10;" d="M 135.397438 31.515312 L 148.073219 25.179375 " transform="matrix(1,0,0,-1,8.501,104.82)"/>
<path style="fill:none;stroke-width:0.3985;stroke-linecap:butt;stroke-linejoin:miter;stroke:rgb(100%,0%,0%);stroke-opacity:1;stroke-miterlimit:10;" d="M 134.647438 56.695 L 148.819313 56.695 " transform="matrix(1,0,0,-1,8.501,104.82)"/>
<path style="fill:none;stroke-width:0.3985;stroke-linecap:butt;stroke-linejoin:miter;stroke:rgb(100%,0%,0%);stroke-opacity:1;stroke-miterlimit:10;" d="M 135.397438 81.870781 L 148.073219 88.210625 " transform="matrix(1,0,0,-1,8.501,104.82)"/>
<g clip-path="url(#clip7)" clip-rule="nonzero">
<path style="fill:none;stroke-width:0.3985;stroke-linecap:butt;stroke-linejoin:miter;stroke:rgb(100%,0%,0%);stroke-opacity:1;stroke-miterlimit:10;" d="M 167.448219 -78.46125 L 172.713844 -91.621406 " transform="matrix(1,0,0,-1,8.501,104.82)"/>
</g>
<g clip-path="url(#clip8)" clip-rule="nonzero">
<path style="fill:none;stroke-width:0.3985;stroke-linecap:butt;stroke-linejoin:miter;stroke:rgb(100%,0%,0%);stroke-opacity:1;stroke-miterlimit:10;" d="M 166.913063 -50.355781 L 173.249 -63.031563 " transform="matrix(1,0,0,-1,8.501,104.82)"/>
</g>
<g clip-path="url(#clip9)" clip-rule="nonzero">
<path style="fill:none;stroke-width:0.3985;stroke-linecap:butt;stroke-linejoin:miter;stroke:rgb(100%,0%,0%);stroke-opacity:1;stroke-miterlimit:10;" d="M 166.151344 -22.449531 L 174.010719 -34.2425 " transform="matrix(1,0,0,-1,8.501,104.82)"/>
</g>
<g clip-path="url(#clip10)" clip-rule="nonzero">
<path style="fill:none;stroke-width:0.3985;stroke-linecap:butt;stroke-linejoin:miter;stroke:rgb(100%,0%,0%);stroke-opacity:1;stroke-miterlimit:10;" d="M 165.069313 5.011406 L 175.09275 -5.012031 " transform="matrix(1,0,0,-1,8.501,104.82)"/>
</g>
<g clip-path="url(#clip11)" clip-rule="nonzero">
<path style="fill:none;stroke-width:0.3985;stroke-linecap:butt;stroke-linejoin:miter;stroke:rgb(100%,0%,0%);stroke-opacity:1;stroke-miterlimit:10;" d="M 163.741188 31.515312 L 176.420875 25.179375 " transform="matrix(1,0,0,-1,8.501,104.82)"/>
</g>
<path style="fill:none;stroke-width:0.3985;stroke-linecap:butt;stroke-linejoin:miter;stroke:rgb(100%,0%,0%);stroke-opacity:1;stroke-miterlimit:10;" d="M 162.995094 56.695 L 177.166969 56.695 " transform="matrix(1,0,0,-1,8.501,104.82)"/>
<g clip-path="url(#clip12)" clip-rule="nonzero">
<path style="fill:none;stroke-width:0.3985;stroke-linecap:butt;stroke-linejoin:miter;stroke:rgb(100%,0%,0%);stroke-opacity:1;stroke-miterlimit:10;" d="M 163.741188 81.870781 L 176.420875 88.210625 " transform="matrix(1,0,0,-1,8.501,104.82)"/>
</g>
<path style="fill:none;stroke-width:0.79701;stroke-linecap:butt;stroke-linejoin:miter;stroke:rgb(0%,0%,100%);stroke-opacity:1;stroke-miterlimit:10;" d="M -0.001 85.03875 L 1.182594 85.636406 L 2.362281 86.245781 L 3.541969 86.866875 L 4.721656 87.503594 L 5.90525 88.152031 L 7.084938 88.812187 L 8.264625 89.487969 L 9.448219 90.179375 L 10.627906 90.8825 L 11.807594 91.605156 L 12.987281 92.339531 L 14.170875 93.089531 L 15.350563 93.855156 L 16.53025 94.636406 L 17.713844 95.433281 L 18.893531 96.249687 L 20.073219 97.081719 L 21.256813 97.933281 L 22.4365 98.800469 L 23.616188 99.687187 L 24.795875 100.589531 L 25.979469 101.515312 L 27.159156 102.460625 L 28.338844 103.421562 " transform="matrix(1,0,0,-1,8.501,104.82)"/>
</g>
</svg>
