<?xml version="1.0" encoding="UTF-8"?>
<svg xmlns="http://www.w3.org/2000/svg" xmlns:xlink="http://www.w3.org/1999/xlink" width="144.08pt" height="64.88pt" viewBox="0 0 144.08 64.88" version="1.1">
<g id="surface1">
<path style="fill:none;stroke-width:0.79701;stroke-linecap:butt;stroke-linejoin:miter;stroke:rgb(0%,0%,0%);stroke-opacity:1;stroke-miterlimit:10;" d="M -28.347188 56.691844 L 113.387187 56.691844 " transform="matrix(1,0,0,-1,29.48,60.727)"/>
<path style="fill-rule:nonzero;fill:rgb(100%,100%,100%);fill-opacity:1;stroke-width:0.3985;stroke-linecap:butt;stroke-linejoin:miter;stroke:rgb(0%,0%,0%);stroke-opacity:1;stroke-miterlimit:10;" d="M 59.527812 56.691844 C 59.527812 58.25825 58.258281 59.527781 56.691875 59.527781 C 55.129375 59.527781 53.859844 58.25825 53.859844 56.691844 C 53.859844 55.129344 55.129375 53.859812 56.691875 53.859812 C 58.258281 53.859812 59.527812 55.129344 59.527812 56.691844 Z M 59.527812 56.691844 " transform="matrix(1,0,0,-1,29.48,60.727)"/>
<path style=" stroke:none;fill-rule:nonzero;fill:rgb(0%,0%,0%);fill-opacity:1;" d="M 89.007812 60.726562 C 89.007812 59.160156 87.738281 57.890625 86.171875 57.890625 C 84.609375 57.890625 83.339844 59.160156 83.339844 60.726562 C 83.339844 62.292969 84.609375 63.5625 86.171875 63.5625 C 87.738281 63.5625 89.007812 62.292969 89.007812 60.726562 Z M 89.007812 60.726562 "/>
</g>
</svg>
