<?xml version="1.0" encoding="UTF-8"?>
<svg xmlns="http://www.w3.org/2000/svg" xmlns:xlink="http://www.w3.org/1999/xlink" width="342.32pt" height="130.16pt" viewBox="0 0 342.32 130.16" version="1.1">
<g id="surface1">
<path style="fill:none;stroke-width:0.3985;stroke-linecap:butt;stroke-linejoin:miter;stroke:rgb(0%,0%,0%);stroke-opacity:1;stroke-dasharray:2.98883,2.98883;stroke-miterlimit:10;" d="M -170.079406 50.030187 L -166.645812 56.81925 L -163.208312 61.428625 L -159.774719 63.514562 L -156.337219 62.88175 L -152.903625 59.463781 L -149.466125 53.3505 L -146.032531 44.780187 L -142.595031 34.116125 L -139.161437 21.8505 L -135.723937 8.545812 L -132.290344 -5.161219 L -128.852844 -18.626063 L -125.41925 -31.208094 L -121.98175 -42.317469 L -118.54425 -51.446375 L -115.110656 -58.196375 L -111.673156 -62.294031 L -108.239562 -63.61825 L -104.802062 -62.188563 L -101.368469 -58.176844 L -97.930969 -51.891688 L -94.497375 -43.754969 L -91.059875 -34.2745 L -87.626281 -24.032313 L -84.188781 -13.622156 L -80.755187 -3.637781 L -77.317687 5.366125 L -73.884094 12.924719 L -70.446594 18.655187 L -67.013 22.315344 L -63.5755 23.784094 L -60.141906 23.088781 L -56.704406 20.393469 L -53.266906 15.987219 L -49.833312 10.272375 L -46.395812 3.7255 L -42.962219 -3.122156 L -39.524719 -9.719813 L -36.091125 -15.528406 L -32.653625 -20.067469 L -29.220031 -22.926844 L -25.782531 -23.80575 L -22.348937 -22.532313 L -18.911437 -19.067469 L -15.477844 -13.512781 L -12.040344 -6.102625 L -8.60675 2.791906 L -5.16925 12.709875 L -1.735656 23.104406 L 1.701844 33.385656 L 5.135438 42.955969 L 8.572938 51.237219 L 12.010438 57.705969 L 15.444031 61.932531 L 18.881531 63.6005 L 22.315125 62.526281 L 25.752625 58.670812 L 29.186219 52.147375 L 32.623719 43.213781 L 36.057313 32.264562 L 39.494813 19.788 L 42.928406 6.377844 L 46.365906 -7.333094 L 49.7995 -20.700281 L 53.237 -33.083094 L 56.670594 -43.911219 L 60.108094 -52.688563 L 63.541688 -59.028406 L 66.979188 -62.692469 L 70.412781 -63.571375 L 73.850281 -61.715906 L 77.287781 -57.321375 L 80.721375 -50.712 L 84.158875 -42.325281 L 87.592469 -32.684656 L 91.029969 -22.376063 L 94.463563 -11.99325 L 97.901063 -2.129969 L 101.334656 6.674719 L 104.772156 13.963781 L 108.20575 19.38175 L 111.64325 22.69425 L 115.076844 23.815344 L 118.514344 22.788 L 121.947938 19.799719 L 125.385438 15.159094 L 128.819031 9.276281 L 132.256531 2.643469 L 135.690125 -4.200281 L 139.127625 -10.704188 L 142.565125 -16.344813 L 145.998719 -20.641688 L 149.436219 -23.204188 L 152.869813 -23.751063 L 156.307313 -22.129969 L 159.740906 -18.321375 L 163.178406 -12.450281 L 166.612 -4.778406 L 170.0495 4.311437 " transform="matrix(1,0,0,-1,171.013,65.413)"/>
<path style="fill:none;stroke-width:1.59404;stroke-linecap:butt;stroke-linejoin:miter;stroke:rgb(100%,0%,0%);stroke-opacity:1;stroke-miterlimit:10;" d="M -28.345031 -23.344813 L -27.852844 -23.5245 L -27.35675 -23.665125 L -26.860656 -23.758875 L -26.364562 -23.80575 L -25.872375 -23.813563 L -25.376281 -23.770594 L -24.880187 -23.684656 L -24.384094 -23.551844 L -23.888 -23.376063 L -23.395812 -23.153406 L -22.899719 -22.887781 L -22.403625 -22.571375 L -21.907531 -22.212 L -21.411437 -21.80575 L -20.91925 -21.352625 L -20.423156 -20.856531 L -19.927062 -20.317469 L -19.430969 -19.731531 L -18.938781 -19.098719 L -18.442687 -18.426844 L -17.946594 -17.708094 L -17.4505 -16.950281 L -16.954406 -16.145594 L -16.462219 -15.30575 L -15.966125 -14.422938 L -15.470031 -13.497156 L -14.973937 -12.536219 L -14.477844 -11.536219 L -13.985656 -10.501063 L -13.489562 -9.43075 L -12.993469 -8.325281 L -12.497375 -7.184656 L -12.005187 -6.012781 L -11.509094 -4.809656 L -11.013 -3.579188 L -10.516906 -2.317469 L -10.020812 -1.028406 L -9.528625 0.284094 L -9.032531 1.620031 L -8.536437 2.983312 L -8.040344 4.362219 L -7.54425 5.764562 L -7.052062 7.186437 L -6.555969 8.620031 L -6.059875 10.06925 L -5.563781 11.534094 L -5.071594 13.00675 L -4.5755 14.491125 L -4.079406 15.983312 L -3.583312 17.483312 L -3.087219 18.987219 L -2.595031 20.491125 L -2.098937 21.998937 L -1.602844 23.502844 L -0.610656 26.502844 L -0.118469 27.995031 L 0.377625 29.4755 L 0.873719 30.948156 L 1.369813 32.409094 L 1.862 33.858312 L 2.358094 35.291906 L 2.854188 36.705969 L 3.350281 38.1005 L 3.846375 39.4755 L 4.338563 40.830969 L 4.834656 42.159094 L 5.33075 43.463781 L 5.826844 44.737219 L 6.322938 45.983312 L 6.815125 47.198156 L 7.311219 48.38175 L 7.807313 49.530187 L 8.303406 50.643469 L 8.795594 51.721594 L 9.291688 52.75675 L 9.787781 53.75675 L 10.283875 54.713781 L 10.779969 55.627844 L 11.272156 56.498937 L 11.76825 57.323156 L 12.264344 58.1005 L 12.760438 58.834875 L 13.256531 59.518469 L 13.748719 60.151281 L 14.244813 60.733312 L 14.740906 61.268469 L 15.237 61.745031 L 15.729188 62.174719 L 16.225281 62.545812 L 16.721375 62.866125 L 17.217469 63.127844 L 17.713563 63.334875 L 18.20575 63.487219 L 18.701844 63.580969 L 19.197938 63.616125 L 19.694031 63.596594 L 20.190125 63.518469 L 20.682313 63.38175 " transform="matrix(1,0,0,-1,171.013,65.413)"/>
</g>
</svg>
