<?xml version="1.0" encoding="UTF-8"?>
<svg xmlns="http://www.w3.org/2000/svg" xmlns:xlink="http://www.w3.org/1999/xlink" width="115.76pt" height="22.16pt" viewBox="0 0 115.76 22.16" version="1.1">
<defs>
<clipPath id="clip1">
  <path d="M 77 9 L 95 9 L 95 22.160156 L 77 22.160156 Z M 77 9 "/>
</clipPath>
</defs>
<g id="surface1">
<path style="fill:none;stroke-width:0.79701;stroke-linecap:butt;stroke-linejoin:miter;stroke:rgb(0%,0%,0%);stroke-opacity:1;stroke-miterlimit:10;" d="M -56.693187 28.346187 L 56.693531 28.346187 " transform="matrix(1,0,0,-1,57.826,46.354)"/>
<path style=" stroke:none;fill-rule:nonzero;fill:rgb(100%,100%,100%);fill-opacity:1;" d="M 89.007812 18.007812 C 89.007812 16.441406 87.738281 15.171875 86.171875 15.171875 C 84.605469 15.171875 83.339844 16.441406 83.339844 18.007812 C 83.339844 19.574219 84.605469 20.84375 86.171875 20.84375 C 87.738281 20.84375 89.007812 19.574219 89.007812 18.007812 Z M 89.007812 18.007812 "/>
<g clip-path="url(#clip1)" clip-rule="nonzero">
<path style="fill:none;stroke-width:0.3985;stroke-linecap:butt;stroke-linejoin:miter;stroke:rgb(0%,0%,0%);stroke-opacity:1;stroke-miterlimit:10;" d="M 31.181813 28.346187 C 31.181813 29.912594 29.912281 31.182125 28.345875 31.182125 C 26.779469 31.182125 25.513844 29.912594 25.513844 28.346187 C 25.513844 26.779781 26.779469 25.51025 28.345875 25.51025 C 29.912281 25.51025 31.181813 26.779781 31.181813 28.346187 Z M 31.181813 28.346187 " transform="matrix(1,0,0,-1,57.826,46.354)"/>
</g>
<path style=" stroke:none;fill-rule:nonzero;fill:rgb(0%,0%,0%);fill-opacity:1;" d="M 89.007812 3.832031 C 89.007812 2.269531 87.738281 1 86.171875 1 C 84.605469 1 83.339844 2.269531 83.339844 3.832031 C 83.339844 5.398438 84.605469 6.667969 86.171875 6.667969 C 87.738281 6.667969 89.007812 5.398438 89.007812 3.832031 Z M 89.007812 3.832031 "/>
</g>
</svg>
