<?xml version="1.0" encoding="UTF-8"?>
<svg xmlns="http://www.w3.org/2000/svg" xmlns:xlink="http://www.w3.org/1999/xlink" width="74pt" height="26.96pt" viewBox="0 0 74 26.96" version="1.1">
<defs>
<clipPath id="clip1">
  <path d="M 0 0 L 56 0 L 56 26.960938 L 0 26.960938 Z M 0 0 "/>
</clipPath>
<clipPath id="clip2">
  <path d="M 32 0 L 74 0 L 74 26.960938 L 32 26.960938 Z M 32 0 "/>
</clipPath>
<clipPath id="clip3">
  <path d="M 35 14 L 53 14 L 53 26.960938 L 35 26.960938 Z M 35 14 "/>
</clipPath>
</defs>
<g id="surface1">
<g clip-path="url(#clip1)" clip-rule="nonzero">
<path style="fill:none;stroke-width:0.79701;stroke-linecap:butt;stroke-linejoin:miter;stroke:rgb(0%,0%,0%);stroke-opacity:1;stroke-miterlimit:10;" d="M -14.173719 35.433562 L -12.400281 34.546844 L -10.63075 33.660125 L -8.857312 32.777312 L -7.087781 31.890594 L -5.314344 31.003875 L -3.544812 30.117156 L -1.771375 29.234344 L -0.00184375 28.347625 L 3.545031 26.574187 L 5.314563 25.687469 L 7.088 24.804656 L 8.857531 23.917937 L 10.630969 23.031219 L 12.4005 22.1445 L 14.173938 21.261687 L 15.943469 20.374969 L 19.490344 18.601531 L 21.259875 17.714812 L 23.033313 16.832 L 24.802844 15.945281 L 26.576281 15.058562 L 28.345813 14.171844 " transform="matrix(1,0,0,-1,15.787,36.832)"/>
</g>
<g clip-path="url(#clip2)" clip-rule="nonzero">
<path style="fill:none;stroke-width:0.79701;stroke-linecap:butt;stroke-linejoin:miter;stroke:rgb(0%,0%,0%);stroke-opacity:1;stroke-miterlimit:10;" d="M 28.345813 14.171844 L 29.529406 14.765594 L 33.068469 16.535125 L 34.252063 17.124969 L 36.611438 18.304656 L 37.795031 18.898406 L 41.334094 20.667937 L 42.517688 21.257781 L 44.877063 22.437469 L 46.060656 23.031219 L 48.420031 24.210906 L 49.603625 24.80075 L 53.142688 26.570281 L 54.326281 27.164031 L 56.685656 28.343719 " transform="matrix(1,0,0,-1,15.787,36.832)"/>
</g>
<path style=" stroke:none;fill-rule:nonzero;fill:rgb(100%,100%,100%);fill-opacity:1;" d="M 46.96875 22.660156 C 46.96875 21.09375 45.699219 19.824219 44.132812 19.824219 C 42.566406 19.824219 41.300781 21.09375 41.300781 22.660156 C 41.300781 24.222656 42.566406 25.492188 44.132812 25.492188 C 45.699219 25.492188 46.96875 24.222656 46.96875 22.660156 Z M 46.96875 22.660156 "/>
<g clip-path="url(#clip3)" clip-rule="nonzero">
<path style="fill:none;stroke-width:0.3985;stroke-linecap:butt;stroke-linejoin:miter;stroke:rgb(0%,0%,0%);stroke-opacity:1;stroke-miterlimit:10;" d="M 31.18175 14.171844 C 31.18175 15.73825 29.912219 17.007781 28.345813 17.007781 C 26.779406 17.007781 25.513781 15.73825 25.513781 14.171844 C 25.513781 12.609344 26.779406 11.339812 28.345813 11.339812 C 29.912219 11.339812 31.18175 12.609344 31.18175 14.171844 Z M 31.18175 14.171844 " transform="matrix(1,0,0,-1,15.787,36.832)"/>
</g>
<path style=" stroke:none;fill-rule:nonzero;fill:rgb(0%,0%,0%);fill-opacity:1;" d="M 46.96875 8.484375 C 46.96875 6.917969 45.699219 5.652344 44.132812 5.652344 C 42.566406 5.652344 41.300781 6.917969 41.300781 8.484375 C 41.300781 10.050781 42.566406 11.320312 44.132812 11.320312 C 45.699219 11.320312 46.96875 10.050781 46.96875 8.484375 Z M 46.96875 8.484375 "/>
</g>
</svg>
