<?xml version="1.0" encoding="UTF-8"?>
<svg xmlns="http://www.w3.org/2000/svg" xmlns:xlink="http://www.w3.org/1999/xlink" width="59.12pt" height="72.56pt" viewBox="0 0 59.12 72.56" version="1.1">
<defs>
<clipPath id="clip1">
  <path d="M 0 0 L 59.121094 0 L 59.121094 72.558594 L 0 72.558594 Z M 0 0 "/>
</clipPath>
<clipPath id="clip2">
  <path d="M 9 0 L 36 0 L 36 72.558594 L 9 72.558594 Z M 9 0 "/>
</clipPath>
<clipPath id="clip3">
  <path d="M 24 0 L 50 0 L 50 72.558594 L 24 72.558594 Z M 24 0 "/>
</clipPath>
</defs>
<g id="surface1">
<path style=" stroke:none;fill-rule:nonzero;fill:rgb(0%,0%,0%);fill-opacity:1;" d="M 32.59375 3.835938 C 32.59375 2.269531 31.328125 1 29.761719 1 C 28.195312 1 26.925781 2.269531 26.925781 3.835938 C 26.925781 5.402344 28.195312 6.667969 29.761719 6.667969 C 31.328125 6.667969 32.59375 5.402344 32.59375 3.835938 Z M 32.59375 3.835938 "/>
<path style=" stroke:none;fill-rule:nonzero;fill:rgb(0%,0%,0%);fill-opacity:0.2;" d="M 29.761719 3.835938 L 1.414062 60.527344 C 1.414062 66.398438 14.105469 71.160156 29.761719 71.160156 C 45.417969 71.160156 58.109375 66.398438 58.109375 60.527344 L 29.761719 3.835938 "/>
<g clip-path="url(#clip1)" clip-rule="nonzero">
<path style="fill:none;stroke-width:0.3985;stroke-linecap:butt;stroke-linejoin:miter;stroke:rgb(0%,0%,0%);stroke-opacity:1;stroke-miterlimit:10;" d="M 0.00071875 -0.0009375 L -28.346938 -56.692344 C -28.346938 -62.563438 -15.655531 -67.325156 0.00071875 -67.325156 C 15.656969 -67.325156 28.348375 -62.563438 28.348375 -56.692344 L 0.00071875 -0.0009375 " transform="matrix(1,0,0,-1,29.761,3.835)"/>
</g>
<g clip-path="url(#clip2)" clip-rule="nonzero">
<path style="fill:none;stroke-width:0.3985;stroke-linecap:butt;stroke-linejoin:miter;stroke:rgb(0%,0%,0%);stroke-opacity:1;stroke-miterlimit:10;" d="M 0.00071875 -0.0009375 L -14.175063 -66.614219 " transform="matrix(1,0,0,-1,29.761,3.835)"/>
</g>
<g clip-path="url(#clip3)" clip-rule="nonzero">
<path style="fill:none;stroke-width:0.3985;stroke-linecap:butt;stroke-linejoin:miter;stroke:rgb(0%,0%,0%);stroke-opacity:1;stroke-miterlimit:10;" d="M 0.00071875 -0.0009375 L 14.172594 -66.614219 " transform="matrix(1,0,0,-1,29.761,3.835)"/>
</g>
</g>
</svg>
