<?xml version="1.0" encoding="UTF-8"?>
<svg xmlns="http://www.w3.org/2000/svg" xmlns:xlink="http://www.w3.org/1999/xlink" width="158.48pt" height="37.04pt" viewBox="0 0 158.48 37.04" version="1.1">
<defs>
<clipPath id="clip1">
  <path d="M 57 18 L 87 18 L 87 37.039062 L 57 37.039062 Z M 57 18 "/>
</clipPath>
</defs>
<g id="surface1">
<path style="fill:none;stroke-width:0.79701;stroke-linecap:butt;stroke-linejoin:miter;stroke:rgb(0%,0%,100%);stroke-opacity:1;stroke-miterlimit:10;" d="M -14.174187 0.001875 L 56.693 0.001875 " transform="matrix(1,0,0,-1,15.307,32.58)"/>
<path style=" stroke:none;fill-rule:nonzero;fill:rgb(100%,100%,100%);fill-opacity:1;" d="M 74.835938 32.578125 C 74.835938 31.015625 73.566406 29.746094 72 29.746094 C 70.433594 29.746094 69.164062 31.015625 69.164062 32.578125 C 69.164062 34.144531 70.433594 35.414062 72 35.414062 C 73.566406 35.414062 74.835938 34.144531 74.835938 32.578125 Z M 74.835938 32.578125 "/>
<g clip-path="url(#clip1)" clip-rule="nonzero">
<path style="fill:none;stroke-width:0.79701;stroke-linecap:butt;stroke-linejoin:miter;stroke:rgb(0%,0%,100%);stroke-opacity:1;stroke-miterlimit:10;" d="M 59.528938 0.001875 C 59.528938 1.564375 58.259406 2.833906 56.693 2.833906 C 55.126594 2.833906 53.857063 1.564375 53.857063 0.001875 C 53.857063 -1.564531 55.126594 -2.834063 56.693 -2.834063 C 58.259406 -2.834063 59.528938 -1.564531 59.528938 0.001875 Z M 59.528938 0.001875 " transform="matrix(1,0,0,-1,15.307,32.58)"/>
</g>
<path style="fill:none;stroke-width:0.79701;stroke-linecap:butt;stroke-linejoin:miter;stroke:rgb(0%,0%,100%);stroke-opacity:1;stroke-miterlimit:10;" d="M 85.040656 0.001875 L 141.735969 0.001875 " transform="matrix(1,0,0,-1,15.307,32.58)"/>
<path style=" stroke:none;fill-rule:nonzero;fill:rgb(0%,0%,100%);fill-opacity:1;" d="M 103.183594 32.578125 C 103.183594 31.015625 101.914062 29.746094 100.347656 29.746094 C 98.78125 29.746094 97.511719 31.015625 97.511719 32.578125 C 97.511719 34.144531 98.78125 35.414062 100.347656 35.414062 C 101.914062 35.414062 103.183594 34.144531 103.183594 32.578125 Z M 103.183594 32.578125 "/>
<path style="fill:none;stroke-width:0.79701;stroke-linecap:butt;stroke-linejoin:miter;stroke:rgb(0%,0%,100%);stroke-opacity:1;stroke-miterlimit:10;" d="M 56.693 28.345625 L 85.040656 28.345625 " transform="matrix(1,0,0,-1,15.307,32.58)"/>
<path style=" stroke:none;fill-rule:nonzero;fill:rgb(0%,0%,100%);fill-opacity:1;" d="M 74.835938 4.234375 C 74.835938 2.667969 73.566406 1.398438 72 1.398438 C 70.433594 1.398438 69.164062 2.667969 69.164062 4.234375 C 69.164062 5.796875 70.433594 7.066406 72 7.066406 C 73.566406 7.066406 74.835938 5.796875 74.835938 4.234375 Z M 74.835938 4.234375 "/>
<path style="fill-rule:nonzero;fill:rgb(100%,100%,100%);fill-opacity:1;stroke-width:0.79701;stroke-linecap:butt;stroke-linejoin:miter;stroke:rgb(0%,0%,100%);stroke-opacity:1;stroke-miterlimit:10;" d="M 87.876594 28.345625 C 87.876594 29.912031 86.607063 31.181562 85.040656 31.181562 C 83.47425 31.181562 82.204719 29.912031 82.204719 28.345625 C 82.204719 26.783125 83.47425 25.513594 85.040656 25.513594 C 86.607063 25.513594 87.876594 26.783125 87.876594 28.345625 Z M 87.876594 28.345625 " transform="matrix(1,0,0,-1,15.307,32.58)"/>
</g>
</svg>
