<?xml version="1.0" encoding="UTF-8"?>
<svg xmlns="http://www.w3.org/2000/svg" xmlns:xlink="http://www.w3.org/1999/xlink" width="74pt" height="101.84pt" viewBox="0 0 74 101.84" version="1.1">
<defs>
<clipPath id="clip1">
  <path d="M 32 4 L 74 4 L 74 55 L 32 55 Z M 32 4 "/>
</clipPath>
</defs>
<g id="surface1">
<path style="fill-rule:nonzero;fill:rgb(100%,79.998779%,79.998779%);fill-opacity:1;stroke-width:0.3985;stroke-linecap:butt;stroke-linejoin:miter;stroke:rgb(0%,0%,0%);stroke-opacity:1;stroke-dasharray:0.3985,1.99255;stroke-miterlimit:10;" d="M -14.173719 -28.345156 L -14.173719 70.865781 L 28.345813 70.865781 L 28.345813 -28.345156 Z M -14.173719 -28.345156 " transform="matrix(1,0,0,-1,15.787,72.065)"/>
<path style="fill-rule:nonzero;fill:rgb(79.998779%,79.998779%,100%);fill-opacity:1;stroke-width:0.3985;stroke-linecap:butt;stroke-linejoin:miter;stroke:rgb(0%,0%,0%);stroke-opacity:1;stroke-dasharray:0.3985,1.99255;stroke-miterlimit:10;" d="M 28.345813 70.865781 L 28.345813 -28.345156 L 42.521594 -28.345156 L 42.521594 70.865781 Z M 28.345813 70.865781 " transform="matrix(1,0,0,-1,15.787,72.065)"/>
<path style="fill:none;stroke-width:0.79701;stroke-linecap:butt;stroke-linejoin:miter;stroke:rgb(0%,0%,0%);stroke-opacity:1;stroke-miterlimit:10;" d="M -14.173719 -14.173281 L 1.771594 1.772031 L 3.545031 3.541562 L 5.314563 5.315 L 17.716906 17.717344 L 19.490344 19.486875 L 21.259875 21.260312 L 23.033313 23.029844 L 24.802844 24.803281 L 28.345813 28.34625 " transform="matrix(1,0,0,-1,15.787,72.065)"/>
<g clip-path="url(#clip1)" clip-rule="nonzero">
<path style="fill:none;stroke-width:0.79701;stroke-linecap:butt;stroke-linejoin:miter;stroke:rgb(0%,0%,0%);stroke-opacity:1;stroke-miterlimit:10;" d="M 28.345813 56.693906 L 29.529406 55.514219 L 30.709094 54.330625 L 36.611438 48.428281 L 37.795031 47.248594 L 38.974719 46.065 L 44.877063 40.162656 L 46.060656 38.982969 L 47.240344 37.799375 L 48.420031 36.619687 L 49.603625 35.44 L 50.783313 34.256406 L 56.685656 28.354062 " transform="matrix(1,0,0,-1,15.787,72.065)"/>
</g>
<path style="fill-rule:nonzero;fill:rgb(100%,100%,100%);fill-opacity:1;stroke-width:0.3985;stroke-linecap:butt;stroke-linejoin:miter;stroke:rgb(0%,0%,0%);stroke-opacity:1;stroke-miterlimit:10;" d="M 31.18175 56.693906 C 31.18175 58.260312 29.912219 59.529844 28.345813 59.529844 C 26.779406 59.529844 25.513781 58.260312 25.513781 56.693906 C 25.513781 55.1275 26.779406 53.857969 28.345813 53.857969 C 29.912219 53.857969 31.18175 55.1275 31.18175 56.693906 Z M 31.18175 56.693906 " transform="matrix(1,0,0,-1,15.787,72.065)"/>
<path style=" stroke:none;fill-rule:nonzero;fill:rgb(0%,0%,0%);fill-opacity:1;" d="M 46.96875 43.71875 C 46.96875 42.152344 45.699219 40.882812 44.132812 40.882812 C 42.566406 40.882812 41.300781 42.152344 41.300781 43.71875 C 41.300781 45.285156 42.566406 46.554688 44.132812 46.554688 C 45.699219 46.554688 46.96875 45.285156 46.96875 43.71875 Z M 46.96875 43.71875 "/>
<path style="fill:none;stroke-width:0.3985;stroke-linecap:butt;stroke-linejoin:miter;stroke:rgb(0%,0%,0%);stroke-opacity:1;stroke-dasharray:2.98883,2.98883;stroke-miterlimit:10;" d="M -14.173719 28.34625 L 42.521594 28.34625 " transform="matrix(1,0,0,-1,15.787,72.065)"/>
</g>
</svg>
