<?xml version="1.0" encoding="UTF-8"?>
<svg xmlns="http://www.w3.org/2000/svg" xmlns:xlink="http://www.w3.org/1999/xlink" width="207.44pt" height="235.28pt" viewBox="0 0 207.44 235.28" version="1.1">
<g id="surface1">
<path style="fill:none;stroke-width:0.79701;stroke-linecap:butt;stroke-linejoin:miter;stroke:rgb(0%,0%,0%);stroke-opacity:1;stroke-miterlimit:10;" d="M -85.039375 56.692187 L -88.066719 47.60625 L -89.945625 38.442187 L -90.691719 29.336719 L -90.340156 20.426562 L -88.933906 11.848437 L -86.535469 3.735156 L -83.230781 -3.803906 L -79.105781 -10.667188 L -74.269844 -16.760938 L -68.83625 -22.007031 L -62.93 -26.354688 L -56.68 -29.745313 L -50.215156 -32.171094 L -43.672187 -33.6125 L -37.191719 -34.077344 L -30.894844 -33.600781 L -24.906562 -32.225781 L -19.351875 -30.003125 L -14.332344 -27.022656 L -9.953437 -23.354688 L -6.297187 -19.108594 L -3.418281 -14.401563 L -1.402656 -9.335156 L -0.269844 -4.05 L -0.0354687 1.336719 L -0.722969 6.692187 L -2.301094 11.883594 L -4.746406 16.789844 L -8.019844 21.282031 L -12.035469 25.254687 L -16.750312 28.590625 L -22.051094 31.207812 L -27.824531 33.020312 L -33.984687 33.953906 L -40.390937 33.965625 L -46.918281 33.020312 L -53.441719 31.090625 L -59.812812 28.184375 L -65.910469 24.313281 L -71.597969 19.516406 L -76.750312 13.844531 L -81.246406 7.35625 L -84.976875 0.145312 L -87.844062 -7.694531 L -89.758125 -16.053906 L -90.64875 -24.811719 L -90.46125 -33.835156 L -89.156562 -42.991406 L -86.707344 -52.132031 L -83.1175 -61.116406 L -78.394844 -69.807813 L -72.574531 -78.053906 L -65.707344 -85.717969 L -57.859687 -92.671094 L -49.113594 -98.8 L -39.578437 -103.964063 L -29.355781 -108.092969 L -18.578437 -111.089063 L -7.379219 -112.882031 L 4.097344 -113.425 L 15.706719 -112.678906 L 27.28875 -110.632031 L 38.691094 -107.288281 L 49.761406 -102.659375 L 60.339531 -96.792188 L 70.304375 -89.757031 L 79.47625 -81.608594 L 87.769219 -72.45625 L 95.066094 -62.409375 L 101.222344 -51.565625 L 106.198906 -40.089063 L 109.902031 -28.100781 L 112.28875 -15.760938 L 113.335625 -3.225781 L 112.991875 9.352344 L 111.296563 21.813281 L 108.269219 34.000781 L 103.929375 45.758594 L 98.362969 56.942187 L 91.640313 67.414844 L 83.843438 77.039844 L 75.105156 85.711719 L 65.527031 93.328906 L 55.245781 99.801562 L 44.41375 105.071094 L 33.155938 109.078906 L 21.655938 111.79375 L 10.042656 113.207812 L -1.52375 113.321094 L -12.883125 112.164844 L -23.894844 109.774219 L -34.422187 106.211719 L -44.320625 101.571094 L -53.484687 95.922656 L -61.805 89.375781 L -69.183906 82.063281 L -75.547187 74.094531 L -80.83625 65.614062 L -85.012031 56.7625 " transform="matrix(1,0,0,-1,92.305,117.7)"/>
<path style="fill:none;stroke-width:0.79701;stroke-linecap:butt;stroke-linejoin:miter;stroke:rgb(100%,0%,0%);stroke-opacity:1;stroke-dasharray:2.98883,2.98883;stroke-miterlimit:10;" d="M 56.695 113.3875 L -56.691719 113.3875 " transform="matrix(1,0,0,-1,92.305,117.7)"/>
<path style="fill:none;stroke-width:0.79701;stroke-linecap:butt;stroke-linejoin:miter;stroke:rgb(100%,0%,0%);stroke-opacity:1;stroke-dasharray:2.98883,2.98883;stroke-miterlimit:10;" d="M 56.695 -113.385938 L -56.691719 -113.385938 " transform="matrix(1,0,0,-1,92.305,117.7)"/>
<path style="fill:none;stroke-width:1.59404;stroke-linecap:butt;stroke-linejoin:miter;stroke:rgb(100%,0%,0%);stroke-opacity:1;stroke-dasharray:2.98883,2.98883;stroke-miterlimit:10;" d="M 1.417656 -42.51875 L 1.417656 42.520312 " transform="matrix(1,0,0,-1,92.305,117.7)"/>
<path style=" stroke:none;fill-rule:nonzero;fill:rgb(100%,0%,0%);fill-opacity:1;" d="M 95.140625 117.699219 C 95.140625 116.132812 93.871094 114.867188 92.304688 114.867188 C 90.738281 114.867188 89.46875 116.132812 89.46875 117.699219 C 89.46875 119.265625 90.738281 120.535156 92.304688 120.535156 C 93.871094 120.535156 95.140625 119.265625 95.140625 117.699219 Z M 95.140625 117.699219 "/>
<path style=" stroke:none;fill-rule:nonzero;fill:rgb(100%,0%,0%);fill-opacity:1;" d="M 95.140625 4.3125 C 95.140625 2.746094 93.871094 1.476562 92.304688 1.476562 C 90.738281 1.476562 89.46875 2.746094 89.46875 4.3125 C 89.46875 5.878906 90.738281 7.148438 92.304688 7.148438 C 93.871094 7.148438 95.140625 5.878906 95.140625 4.3125 Z M 95.140625 4.3125 "/>
<path style=" stroke:none;fill-rule:nonzero;fill:rgb(100%,0%,0%);fill-opacity:1;" d="M 95.140625 231.085938 C 95.140625 229.523438 93.871094 228.253906 92.304688 228.253906 C 90.738281 228.253906 89.46875 229.523438 89.46875 231.085938 C 89.46875 232.652344 90.738281 233.921875 92.304688 233.921875 C 93.871094 233.921875 95.140625 232.652344 95.140625 231.085938 Z M 95.140625 231.085938 "/>
</g>
</svg>
