<?xml version="1.0" encoding="UTF-8"?>
<svg xmlns="http://www.w3.org/2000/svg" xmlns:xlink="http://www.w3.org/1999/xlink" width="262.64pt" height="262.64pt" viewBox="0 0 262.64 262.64" version="1.1">
<g id="surface1">
<path style=" stroke:none;fill-rule:nonzero;fill:rgb(100%,0%,0%);fill-opacity:1;" d="M 3.707031 259.089844 L 3.707031 3.96875 L 258.828125 3.96875 L 258.828125 259.089844 Z M 3.707031 259.089844 "/>
<path style=" stroke:none;fill-rule:nonzero;fill:rgb(0%,100%,0%);fill-opacity:1;" d="M 88.746094 174.046875 L 88.746094 89.007812 L 173.785156 89.007812 L 173.785156 174.046875 Z M 88.746094 174.046875 "/>
<path style=" stroke:none;fill-rule:nonzero;fill:rgb(0%,0%,100%);fill-opacity:1;" d="M 117.09375 145.703125 L 117.09375 117.355469 L 145.441406 117.355469 L 145.441406 145.703125 Z M 117.09375 145.703125 "/>
<path style=" stroke:none;fill-rule:nonzero;fill:rgb(75%,0%,25%);fill-opacity:1;" d="M 126.542969 136.253906 L 126.542969 126.804688 L 135.992188 126.804688 L 135.992188 136.253906 Z M 126.542969 136.253906 "/>
<path style="fill:none;stroke-width:0.3985;stroke-linecap:butt;stroke-linejoin:miter;stroke:rgb(0%,0%,0%);stroke-opacity:1;stroke-miterlimit:10;" d="M 0.00103125 -0.00084375 L 255.122125 -0.00084375 M 0.00103125 85.042125 L 255.122125 85.042125 M 0.00103125 170.081187 L 255.122125 170.081187 M 0.00103125 255.112437 L 255.122125 255.112437 M 0.00103125 -0.00084375 L 0.00103125 255.12025 M 85.040094 -0.00084375 L 85.040094 255.12025 M 170.079156 -0.00084375 L 170.079156 255.12025 M 255.110406 -0.00084375 L 255.110406 255.12025 " transform="matrix(1,0,0,-1,3.706,259.089)"/>
<path style="fill:none;stroke-width:0.3985;stroke-linecap:butt;stroke-linejoin:miter;stroke:rgb(0%,0%,0%);stroke-opacity:1;stroke-miterlimit:10;" d="M 85.040094 85.042125 L 170.079156 85.042125 M 85.040094 113.385875 L 170.079156 113.385875 M 85.040094 141.733531 L 170.079156 141.733531 M 85.040094 170.069469 L 170.079156 170.069469 M 85.040094 85.042125 L 85.040094 170.081187 M 113.38775 85.042125 L 113.38775 170.081187 M 141.735406 85.042125 L 141.735406 170.081187 M 170.071344 85.042125 L 170.071344 170.081187 " transform="matrix(1,0,0,-1,3.706,259.089)"/>
<path style="fill:none;stroke-width:0.3985;stroke-linecap:butt;stroke-linejoin:miter;stroke:rgb(0%,0%,0%);stroke-opacity:1;stroke-miterlimit:10;" d="M 113.38775 122.823375 L 141.735406 122.823375 M 113.38775 132.272594 L 141.735406 132.272594 M 113.38775 141.717906 L 141.735406 141.717906 M 122.821344 113.385875 L 122.821344 141.733531 M 132.270563 113.385875 L 132.270563 141.733531 M 141.719781 113.385875 L 141.719781 141.733531 " transform="matrix(1,0,0,-1,3.706,259.089)"/>
<path style="fill:none;stroke-width:0.3985;stroke-linecap:butt;stroke-linejoin:miter;stroke:rgb(0%,0%,0%);stroke-opacity:1;stroke-miterlimit:10;" d="M 122.836969 122.839 L 132.286188 122.839 M 122.836969 125.987437 L 132.286188 125.987437 M 122.836969 129.139781 L 132.286188 129.139781 M 122.836969 132.280406 L 132.286188 132.280406 M 122.840875 122.835094 L 122.840875 132.284312 M 125.989313 122.835094 L 125.989313 132.284312 M 129.13775 122.835094 L 129.13775 132.284312 M 132.278375 122.835094 L 132.278375 132.284312 " transform="matrix(1,0,0,-1,3.706,259.089)"/>
<path style="fill:none;stroke-width:0.3985;stroke-linecap:butt;stroke-linejoin:miter;stroke:rgb(0%,0%,0%);stroke-opacity:1;stroke-miterlimit:10;" d="M 125.985406 127.022594 L 129.133844 127.022594 M 125.985406 128.069469 L 129.133844 128.069469 M 125.985406 129.12025 L 129.133844 129.12025 M 127.020563 125.983531 L 127.020563 129.131969 M 128.071344 125.983531 L 128.071344 129.131969 M 129.118219 125.983531 L 129.118219 129.131969 " transform="matrix(1,0,0,-1,3.706,259.089)"/>
<path style="fill:none;stroke-width:4.98138;stroke-linecap:butt;stroke-linejoin:miter;stroke:rgb(100%,0%,0%);stroke-opacity:1;stroke-miterlimit:10;" d="M 0.00103125 -0.00084375 L 0.00103125 255.12025 L 255.122125 255.12025 L 255.122125 -0.00084375 Z M 0.00103125 -0.00084375 " transform="matrix(1,0,0,-1,3.706,259.089)"/>
</g>
</svg>
