<?xml version="1.0" encoding="UTF-8"?>
<svg xmlns="http://www.w3.org/2000/svg" xmlns:xlink="http://www.w3.org/1999/xlink" width="149.84pt" height="150.32pt" viewBox="0 0 149.84 150.32" version="1.1">
<defs>
<clipPath id="clip1">
  <path d="M 137 52 L 149.839844 52 L 149.839844 70 L 137 70 Z M 137 52 "/>
</clipPath>
</defs>
<g id="surface1">
<path style=" stroke:none;fill-rule:nonzero;fill:rgb(0%,0%,0%);fill-opacity:1;" d="M 7.082031 146.046875 C 7.082031 144.480469 5.816406 143.210938 4.25 143.210938 C 2.683594 143.210938 1.414062 144.480469 1.414062 146.046875 C 1.414062 147.613281 2.683594 148.882812 4.25 148.882812 C 5.816406 148.882812 7.082031 147.613281 7.082031 146.046875 Z M 7.082031 146.046875 "/>
<path style=" stroke:none;fill-rule:nonzero;fill:rgb(0%,0%,0%);fill-opacity:1;" d="M 148.816406 4.3125 C 148.816406 2.746094 147.546875 1.476562 145.984375 1.476562 C 144.417969 1.476562 143.148438 2.746094 143.148438 4.3125 C 143.148438 5.878906 144.417969 7.148438 145.984375 7.148438 C 147.546875 7.148438 148.816406 5.878906 148.816406 4.3125 Z M 148.816406 4.3125 "/>
<path style="fill:none;stroke-width:0.3985;stroke-linecap:butt;stroke-linejoin:miter;stroke:rgb(0%,0%,0%);stroke-opacity:1;stroke-miterlimit:10;" d="M 0.001 85.039187 L 141.735375 85.039187 " transform="matrix(1,0,0,-1,4.249,146.047)"/>
<path style="fill-rule:nonzero;fill:rgb(100%,100%,100%);fill-opacity:1;stroke-width:0.3985;stroke-linecap:butt;stroke-linejoin:miter;stroke:rgb(0%,0%,0%);stroke-opacity:1;stroke-miterlimit:10;" d="M 2.833031 85.039187 C 2.833031 86.605594 1.567406 87.875125 0.001 87.875125 C -1.565406 87.875125 -2.834938 86.605594 -2.834938 85.039187 C -2.834938 83.476687 -1.565406 82.207156 0.001 82.207156 C 1.567406 82.207156 2.833031 83.476687 2.833031 85.039187 Z M 2.833031 85.039187 " transform="matrix(1,0,0,-1,4.249,146.047)"/>
<path style=" stroke:none;fill-rule:nonzero;fill:rgb(100%,100%,100%);fill-opacity:1;" d="M 148.816406 61.007812 C 148.816406 59.441406 147.546875 58.171875 145.984375 58.171875 C 144.417969 58.171875 143.148438 59.441406 143.148438 61.007812 C 143.148438 62.570312 144.417969 63.839844 145.984375 63.839844 C 147.546875 63.839844 148.816406 62.570312 148.816406 61.007812 Z M 148.816406 61.007812 "/>
<g clip-path="url(#clip1)" clip-rule="nonzero">
<path style="fill:none;stroke-width:0.3985;stroke-linecap:butt;stroke-linejoin:miter;stroke:rgb(0%,0%,0%);stroke-opacity:1;stroke-miterlimit:10;" d="M 144.567406 85.039187 C 144.567406 86.605594 143.297875 87.875125 141.735375 87.875125 C 140.168969 87.875125 138.899438 86.605594 138.899438 85.039187 C 138.899438 83.476687 140.168969 82.207156 141.735375 82.207156 C 143.297875 82.207156 144.567406 83.476687 144.567406 85.039187 Z M 144.567406 85.039187 " transform="matrix(1,0,0,-1,4.249,146.047)"/>
</g>
</g>
</svg>
