<?xml version="1.0" encoding="UTF-8"?>
<svg xmlns="http://www.w3.org/2000/svg" xmlns:xlink="http://www.w3.org/1999/xlink" width="222.32pt" height="83.6pt" viewBox="0 0 222.32 83.6" version="1.1">
<defs>
<clipPath id="clip1">
  <path d="M 0 10 L 222.320312 10 L 222.320312 83.601562 L 0 83.601562 Z M 0 10 "/>
</clipPath>
</defs>
<g id="surface1">
<path style="fill:none;stroke-width:0.79701;stroke-linecap:butt;stroke-linejoin:miter;stroke:rgb(100%,0%,0%);stroke-opacity:1;stroke-miterlimit:10;" d="M -28.346719 77.058562 L -23.862344 65.7695 L -19.381875 56.160125 L -14.8975 47.937469 L -10.413125 40.92575 L -5.92875 34.937469 L -1.448281 29.824187 L 3.036094 25.468719 L 7.520469 21.746062 L 12.000937 18.562469 L 16.485312 15.847625 L 20.969687 13.527312 L 25.454062 11.55075 L 29.934531 9.859344 L 34.418906 8.417937 L 38.903281 7.187469 L 43.38375 6.136687 L 47.868125 5.23825 L 52.3525 4.472625 L 56.836875 3.816375 L 61.317344 3.257781 L 65.801719 2.781219 L 70.286094 2.374969 L 74.766562 2.027312 L 79.250937 1.730437 L 83.735312 1.476531 L 88.219687 1.261687 L 92.700156 1.078094 L 97.184531 0.917937 L 101.668906 0.785125 L 106.149375 0.671844 L 110.63375 0.570281 L 115.118125 0.48825 L 119.6025 0.417937 L 124.082969 0.355437 L 128.567344 0.304656 L 133.051719 0.257781 L 137.532187 0.222625 L 142.016562 0.187469 L 146.500937 0.160125 L 150.985312 0.136687 L 155.465781 0.117156 L 164.434531 0.0859062 L 168.915 0.0741875 L 173.399375 0.0624687 L 182.368125 0.0468437 L 186.848594 0.0390312 L 191.332969 0.035125 " transform="matrix(1,0,0,-1,29.96,78.457)"/>
<g clip-path="url(#clip1)" clip-rule="nonzero">
<path style="fill:none;stroke-width:0.79701;stroke-linecap:butt;stroke-linejoin:miter;stroke:rgb(0%,0%,100%);stroke-opacity:1;stroke-miterlimit:10;" d="M -28.346719 56.695281 L -26.127969 41.257781 L -23.909219 31.480437 L -21.690469 24.667937 L -19.471719 19.597625 L -17.252969 15.636687 L -15.034219 12.429656 L -12.815469 9.753875 L -10.596719 7.468719 L -8.377969 5.496062 L -6.159219 3.765594 L -3.940469 2.246062 L -1.717813 0.910125 L 0.500937 -0.246125 L 2.719687 -1.226594 L 4.938437 -2.031281 L 7.157187 -2.652375 L 9.375937 -3.082063 L 11.594687 -3.312531 L 13.813437 -3.343781 L 16.032187 -3.191438 L 18.250937 -2.867219 L 20.469687 -2.390656 L 22.688437 -1.800813 L 24.907187 -1.128938 L 27.125937 -0.406281 L 29.344687 0.332 L 31.563437 1.058562 L 33.782187 1.753875 L 36.000937 2.402312 L 38.219687 2.992156 L 40.438437 3.5195 L 42.657187 3.984344 L 44.875937 4.386687 L 47.094687 4.730437 L 49.313437 5.0195 L 51.536094 5.261687 L 53.754844 5.464812 L 55.973594 5.624969 L 58.192344 5.749969 L 60.411094 5.851531 L 62.629844 5.92575 L 64.848594 5.976531 L 67.067344 6.007781 L 69.286094 6.027312 L 71.504844 6.031219 L 73.723594 6.023406 L 75.942344 6.007781 L 78.161094 5.980437 L 80.379844 5.949187 L 82.598594 5.910125 L 87.036094 5.824187 L 91.473594 5.722625 L 95.911094 5.61325 L 100.348594 5.496062 L 102.57125 5.441375 L 104.79 5.378875 L 109.2275 5.261687 L 111.44625 5.207 L 118.1025 5.031219 L 120.32125 4.976531 L 122.54 4.917937 L 129.19625 4.753875 L 131.415 4.703094 L 133.63375 4.648406 L 142.50875 4.445281 L 151.38375 4.257781 L 153.606406 4.214812 L 155.825156 4.167937 L 162.481406 4.039031 L 164.700156 3.999969 L 166.918906 3.957 L 175.793906 3.80075 L 178.012656 3.765594 L 180.231406 3.726531 L 186.887656 3.621062 L 189.106406 3.589812 L 191.325156 3.554656 " transform="matrix(1,0,0,-1,29.96,78.457)"/>
</g>
</g>
</svg>
