<?xml version="1.0" encoding="UTF-8"?>
<svg xmlns="http://www.w3.org/2000/svg" xmlns:xlink="http://www.w3.org/1999/xlink" width="172.88pt" height="54.8pt" viewBox="0 0 172.88 54.8" version="1.1">
<defs>
<clipPath id="clip1">
  <path d="M 0 0 L 121 0 L 121 54.800781 L 0 54.800781 Z M 0 0 "/>
</clipPath>
<clipPath id="clip2">
  <path d="M 24 0 L 64 0 L 64 54.800781 L 24 54.800781 Z M 24 0 "/>
</clipPath>
<clipPath id="clip3">
  <path d="M 52 0 L 93 0 L 93 54.800781 L 52 54.800781 Z M 52 0 "/>
</clipPath>
</defs>
<g id="surface1">
<path style=" stroke:none;fill-rule:nonzero;fill:rgb(0%,0%,0%);fill-opacity:1;" d="M 60.941406 3.835938 C 60.941406 2.269531 59.671875 1 58.105469 1 C 56.542969 1 55.273438 2.269531 55.273438 3.835938 C 55.273438 5.402344 56.542969 6.667969 58.105469 6.667969 C 59.671875 6.667969 60.941406 5.402344 60.941406 3.835938 Z M 60.941406 3.835938 "/>
<path style=" stroke:none;fill-rule:nonzero;fill:rgb(0%,0%,0%);fill-opacity:0.2;" d="M 58.105469 3.835938 L 1.414062 32.183594 C 1.414062 43.921875 26.796875 53.441406 58.105469 53.441406 C 89.417969 53.441406 114.800781 43.921875 114.800781 32.183594 L 58.105469 3.835938 "/>
<g clip-path="url(#clip1)" clip-rule="nonzero">
<path style="fill:none;stroke-width:0.3985;stroke-linecap:butt;stroke-linejoin:miter;stroke:rgb(0%,0%,0%);stroke-opacity:1;stroke-miterlimit:10;" d="M -0.00153125 -0.0009375 L -56.692937 -28.348594 C -56.692937 -40.086875 -31.310125 -49.606406 -0.00153125 -49.606406 C 31.310969 -49.606406 56.693781 -40.086875 56.693781 -28.348594 L -0.00153125 -0.0009375 " transform="matrix(1,0,0,-1,58.107,3.835)"/>
</g>
<g clip-path="url(#clip2)" clip-rule="nonzero">
<path style="fill:none;stroke-width:0.3985;stroke-linecap:butt;stroke-linejoin:miter;stroke:rgb(0%,0%,0%);stroke-opacity:1;stroke-miterlimit:10;" d="M -0.00153125 -0.0009375 L -28.345281 -46.770469 " transform="matrix(1,0,0,-1,58.107,3.835)"/>
</g>
<g clip-path="url(#clip3)" clip-rule="nonzero">
<path style="fill:none;stroke-width:0.3985;stroke-linecap:butt;stroke-linejoin:miter;stroke:rgb(0%,0%,0%);stroke-opacity:1;stroke-miterlimit:10;" d="M -0.00153125 -0.0009375 L 28.346125 -46.770469 " transform="matrix(1,0,0,-1,58.107,3.835)"/>
</g>
<path style="fill:none;stroke-width:0.79701;stroke-linecap:butt;stroke-linejoin:miter;stroke:rgb(0%,0%,0%);stroke-opacity:1;stroke-miterlimit:10;" d="M 85.041438 -14.172813 L 112.678156 -14.172813 " transform="matrix(1,0,0,-1,58.107,3.835)"/>
<path style="fill:none;stroke-width:0.6376;stroke-linecap:round;stroke-linejoin:round;stroke:rgb(0%,0%,0%);stroke-opacity:1;stroke-miterlimit:10;" d="M -1.552495 2.07089 C -1.423589 1.293546 -0.00171375 0.129484 0.388911 0.0005775 C -0.00171375 -0.128329 -1.423589 -1.296298 -1.552495 -2.073641 " transform="matrix(1,0,0,-1,170.78687,18.00839)"/>
</g>
</svg>
