<?xml version="1.0" encoding="UTF-8"?>
<svg xmlns="http://www.w3.org/2000/svg" xmlns:xlink="http://www.w3.org/1999/xlink" width="110.96pt" height="67.28pt" viewBox="0 0 110.96 67.28" version="1.1">
<defs>
<clipPath id="clip1">
  <path d="M 12 0 L 110.960938 0 L 110.960938 67.28125 L 12 67.28125 Z M 12 0 "/>
</clipPath>
</defs>
<g id="surface1">
<path style=" stroke:none;fill-rule:nonzero;fill:rgb(0%,0%,100%);fill-opacity:1;" d="M 24.09375 30.835938 L 24.367188 30.402344 L 24.640625 30.222656 L 24.914062 30.3125 L 25.191406 30.660156 L 25.464844 31.261719 L 25.738281 32.085938 L 26.015625 33.105469 L 26.289062 34.28125 L 26.5625 35.574219 L 26.839844 36.929688 L 27.113281 38.296875 L 27.386719 39.632812 L 27.664062 40.875 L 27.9375 41.988281 L 28.210938 42.925781 L 28.488281 43.652344 L 28.761719 44.140625 L 29.035156 44.371094 L 29.308594 44.339844 L 29.585938 44.046875 L 29.859375 43.5 L 30.132812 42.71875 L 30.410156 41.738281 L 30.683594 40.589844 L 30.957031 39.320312 L 31.234375 37.972656 L 31.507812 36.601562 L 31.78125 35.257812 L 32.058594 33.988281 L 32.332031 32.847656 L 32.605469 31.867188 L 32.882812 31.09375 L 33.15625 30.554688 L 33.429688 30.265625 L 33.703125 30.242188 L 33.980469 30.480469 L 34.253906 30.976562 L 34.527344 31.710938 L 34.804688 32.652344 L 35.078125 33.769531 L 35.351562 35.015625 L 35.628906 36.351562 L 35.902344 37.71875 L 36.175781 39.074219 L 36.453125 40.363281 L 36.726562 41.539062 L 37 42.550781 L 37.277344 43.371094 L 37.550781 43.964844 L 37.824219 44.308594 L 38.097656 44.386719 L 38.375 44.203125 L 38.648438 43.761719 L 38.921875 43.078125 L 39.199219 42.175781 L 39.472656 41.09375 L 39.746094 39.867188 L 40.023438 38.550781 L 40.296875 37.183594 L 40.570312 35.820312 L 40.847656 34.515625 L 41.121094 33.3125 L 41.394531 32.257812 L 41.671875 31.394531 L 41.945312 30.753906 L 42.21875 30.355469 L 42.492188 30.21875 L 42.769531 30.347656 L 43.042969 30.738281 L 43.316406 31.371094 L 43.59375 32.230469 L 43.867188 33.277344 L 44.140625 34.476562 L 44.417969 35.777344 L 44.691406 37.140625 L 44.964844 38.507812 L 45.242188 39.828125 L 45.515625 41.058594 L 45.789062 42.144531 L 46.066406 43.050781 L 46.339844 43.742188 L 46.613281 44.191406 L 46.890625 44.386719 L 47.164062 44.3125 L 47.4375 43.980469 L 47.710938 43.394531 L 47.988281 42.582031 L 48.261719 41.570312 L 48.535156 40.402344 L 48.8125 39.117188 L 49.085938 37.761719 L 49.359375 36.394531 L 49.636719 35.058594 L 49.910156 33.804688 L 50.183594 32.683594 L 50.460938 31.734375 L 50.734375 30.996094 L 51.007812 30.492188 L 51.285156 30.246094 L 51.304688 3.335938 L 51.597656 2.574219 L 51.890625 2.078125 L 52.179688 1.878906 L 52.472656 1.976562 L 52.765625 2.367188 L 53.058594 3.039062 L 53.347656 3.960938 L 53.640625 5.09375 L 53.933594 6.390625 L 54.222656 7.796875 L 54.515625 9.25 L 54.808594 10.691406 L 55.101562 12.0625 L 55.390625 13.300781 L 55.683594 14.351562 L 55.976562 15.179688 L 56.269531 15.742188 L 56.558594 16.019531 L 56.851562 15.996094 L 57.144531 15.675781 L 57.4375 15.074219 L 57.726562 14.210938 L 58.019531 13.125 L 58.3125 11.863281 L 58.605469 10.480469 L 58.894531 9.035156 L 59.1875 7.582031 L 59.480469 6.191406 L 59.773438 4.914062 L 60.0625 3.808594 L 60.355469 2.921875 L 60.648438 2.292969 L 60.941406 1.941406 L 61.230469 1.890625 L 61.523438 2.136719 L 61.816406 2.667969 L 62.109375 3.46875 L 62.398438 4.503906 L 62.691406 5.722656 L 62.984375 7.082031 L 63.277344 8.519531 L 63.566406 9.972656 L 63.859375 11.386719 L 64.152344 12.699219 L 64.441406 13.851562 L 64.734375 14.796875 L 65.027344 15.496094 L 65.320312 15.917969 L 65.609375 16.042969 L 65.902344 15.875 L 66.195312 15.410156 L 66.488281 14.671875 L 66.777344 13.695312 L 67.070312 12.515625 L 67.363281 11.1875 L 67.65625 9.765625 L 67.945312 8.308594 L 68.238281 6.878906 L 68.53125 5.535156 L 68.824219 4.339844 L 69.113281 3.339844 L 69.40625 2.574219 L 69.699219 2.082031 L 69.992188 1.878906 L 70.28125 1.972656 L 70.574219 2.367188 L 70.867188 3.035156 L 71.160156 3.957031 L 71.449219 5.089844 L 71.742188 6.386719 L 72.035156 7.792969 L 72.328125 9.246094 L 72.617188 10.6875 L 72.910156 12.058594 L 73.203125 13.296875 L 73.492188 14.351562 L 73.785156 15.175781 L 74.078125 15.742188 L 74.371094 16.019531 L 74.660156 15.996094 L 74.953125 15.679688 L 75.246094 15.074219 L 75.539062 14.214844 L 75.828125 13.128906 L 76.121094 11.871094 L 76.414062 10.488281 L 76.707031 9.039062 L 76.996094 7.589844 L 77.289062 6.195312 L 77.582031 4.917969 L 77.875 3.8125 L 78.164062 2.925781 L 78.457031 2.292969 L 78.75 1.941406 L 79.042969 1.890625 L 79.332031 2.132812 L 79.625 2.667969 L 79.917969 3.464844 L 80.210938 4.5 L 80.21875 50.839844 L 80.511719 52.296875 L 80.800781 53.71875 L 81.09375 55.046875 L 81.386719 56.222656 L 81.679688 57.199219 L 81.96875 57.933594 L 82.261719 58.394531 L 82.554688 58.566406 L 82.847656 58.433594 L 83.136719 58.007812 L 83.429688 57.308594 L 83.722656 56.363281 L 84.015625 55.207031 L 84.304688 53.894531 L 84.597656 52.484375 L 84.890625 51.027344 L 85.183594 49.589844 L 85.472656 48.234375 L 85.765625 47.011719 L 86.058594 45.984375 L 86.347656 45.183594 L 86.640625 44.652344 L 86.933594 44.410156 L 87.226562 44.464844 L 87.515625 44.816406 L 87.808594 45.449219 L 88.101562 46.339844 L 88.394531 47.445312 L 88.683594 48.722656 L 88.976562 50.117188 L 89.5625 53.015625 L 89.851562 54.398438 L 90.144531 55.65625 L 90.4375 56.738281 L 90.730469 57.597656 L 91.019531 58.199219 L 91.3125 58.519531 L 91.605469 58.539062 L 91.898438 58.257812 L 92.1875 57.695312 L 92.480469 56.867188 L 92.773438 55.808594 L 93.066406 54.570312 L 93.355469 53.199219 L 93.648438 51.757812 L 93.941406 50.304688 L 94.234375 48.898438 L 94.523438 47.605469 L 94.816406 46.472656 L 95.109375 45.554688 L 95.402344 44.882812 L 95.691406 44.492188 L 95.984375 44.398438 L 96.277344 44.601562 L 96.566406 45.097656 L 96.859375 45.863281 L 97.152344 46.867188 L 97.445312 48.0625 L 97.734375 49.40625 L 98.027344 50.835938 L 98.320312 52.292969 L 98.613281 53.714844 L 98.902344 55.042969 L 99.195312 56.21875 L 99.488281 57.199219 L 99.78125 57.933594 L 100.070312 58.394531 L 100.363281 58.566406 L 100.65625 58.4375 L 100.949219 58.011719 L 101.238281 57.3125 L 101.53125 56.363281 L 101.824219 55.210938 L 102.117188 53.902344 L 102.40625 52.488281 L 102.699219 51.03125 L 102.992188 49.59375 L 103.285156 48.238281 L 103.574219 47.015625 L 103.867188 45.984375 L 104.160156 45.1875 L 104.453125 44.652344 L 104.742188 44.410156 L 105.035156 44.464844 L 105.328125 44.8125 L 105.621094 45.445312 L 105.910156 46.335938 L 106.203125 47.441406 L 106.496094 48.71875 L 106.785156 50.109375 L 107.078125 51.5625 L 107.371094 53.007812 L 107.664062 54.390625 L 107.953125 55.652344 L 108.246094 56.734375 L 108.539062 57.597656 L 108.832031 58.199219 L 109.121094 58.515625 L 109.132812 65.652344 L 24.09375 65.652344 L 24.09375 30.785156 "/>
<g clip-path="url(#clip1)" clip-rule="nonzero">
<path style="fill:none;stroke-width:0.79701;stroke-linecap:butt;stroke-linejoin:miter;stroke:rgb(0%,0%,100%);stroke-opacity:1;stroke-miterlimit:10;" d="M 28.34875 34.817062 L 28.622187 35.250656 L 28.895625 35.430344 L 29.169062 35.3405 L 29.446406 34.992844 L 29.719844 34.391281 L 29.993281 33.567062 L 30.270625 32.547531 L 30.544062 31.37175 L 30.8175 30.078781 L 31.094844 28.723312 L 31.368281 27.356125 L 31.641719 26.020187 L 31.919062 24.778 L 32.1925 23.664719 L 32.465937 22.727219 L 32.743281 22.000656 L 33.016719 21.512375 L 33.290156 21.281906 L 33.563594 21.313156 L 33.840937 21.606125 L 34.114375 22.153 L 34.387812 22.93425 L 34.665156 23.914719 L 34.938594 25.063156 L 35.212031 26.332687 L 35.489375 27.680344 L 35.762812 29.051437 L 36.03625 30.395187 L 36.313594 31.664719 L 36.587031 32.805344 L 36.860469 33.785812 L 37.137812 34.55925 L 37.41125 35.098312 L 37.684687 35.387375 L 37.958125 35.410812 L 38.235469 35.172531 L 38.508906 34.676437 L 38.782344 33.942062 L 39.059687 33.000656 L 39.333125 31.883469 L 39.606562 30.637375 L 39.883906 29.301437 L 40.157344 27.93425 L 40.430781 26.578781 L 40.708125 25.289719 L 40.981562 24.113937 L 41.255 23.102219 L 41.532344 22.281906 L 41.805781 21.688156 L 42.079219 21.344406 L 42.352656 21.266281 L 42.63 21.449875 L 42.903437 21.891281 L 43.176875 22.574875 L 43.454219 23.477219 L 43.727656 24.55925 L 44.001094 25.785812 L 44.278437 27.102219 L 44.551875 28.469406 L 44.825312 29.832687 L 45.102656 31.137375 L 45.376094 32.3405 L 45.649531 33.395187 L 45.926875 34.258469 L 46.200312 34.899094 L 46.47375 35.297531 L 46.747187 35.43425 L 47.024531 35.305344 L 47.297969 34.914719 L 47.571406 34.281906 L 47.84875 33.422531 L 48.122187 32.375656 L 48.395625 31.176437 L 48.672969 29.875656 L 48.946406 28.512375 L 49.219844 27.145187 L 49.497187 25.824875 L 49.770625 24.594406 L 50.044062 23.508469 L 50.321406 22.602219 L 50.594844 21.910812 L 50.868281 21.461594 L 51.145625 21.266281 L 51.419062 21.3405 L 51.6925 21.672531 L 51.965937 22.258469 L 52.243281 23.070969 L 52.516719 24.082687 L 52.790156 25.250656 L 53.0675 26.535812 L 53.340937 27.891281 L 53.614375 29.258469 L 53.891719 30.594406 L 54.165156 31.848312 L 54.438594 32.969406 L 54.715937 33.918625 L 54.989375 34.656906 L 55.262812 35.160812 L 55.540156 35.406906 L 55.559687 62.317062 L 55.852656 63.078781 L 56.145625 63.574875 L 56.434687 63.774094 L 56.727656 63.676437 L 57.020625 63.285812 L 57.313594 62.613937 L 57.602656 61.692062 L 57.895625 60.55925 L 58.188594 59.262375 L 58.477656 57.856125 L 58.770625 56.403 L 59.063594 54.961594 L 59.356562 53.5905 L 59.645625 52.352219 L 59.938594 51.301437 L 60.231562 50.473312 L 60.524531 49.910812 L 60.813594 49.633469 L 61.106562 49.656906 L 61.399531 49.977219 L 61.6925 50.578781 L 61.981562 51.442062 L 62.274531 52.528 L 62.5675 53.789719 L 62.860469 55.172531 L 63.149531 56.617844 L 63.4425 58.070969 L 63.735469 59.461594 L 64.028437 60.738937 L 64.3175 61.844406 L 64.610469 62.731125 L 64.903437 63.360031 L 65.196406 63.711594 L 65.485469 63.762375 L 65.778437 63.516281 L 66.071406 62.985031 L 66.364375 62.18425 L 66.653437 61.149094 L 66.946406 59.930344 L 67.239375 58.570969 L 67.532344 57.133469 L 67.821406 55.680344 L 68.114375 54.266281 L 68.407344 52.953781 L 68.696406 51.801437 L 68.989375 50.856125 L 69.282344 50.156906 L 69.575312 49.735031 L 69.864375 49.610031 L 70.157344 49.778 L 70.450312 50.242844 L 70.743281 50.981125 L 71.032344 51.957687 L 71.325312 53.137375 L 71.618281 54.4655 L 71.91125 55.887375 L 72.200312 57.344406 L 72.493281 58.774094 L 72.78625 60.117844 L 73.079219 61.313156 L 73.368281 62.313156 L 73.66125 63.078781 L 73.954219 63.570969 L 74.247187 63.774094 L 74.53625 63.680344 L 74.829219 63.285812 L 75.122187 62.617844 L 75.415156 61.695969 L 75.704219 60.563156 L 75.997187 59.266281 L 76.290156 57.860031 L 76.583125 56.406906 L 76.872187 54.9655 L 77.165156 53.594406 L 77.458125 52.356125 L 77.747187 51.301437 L 78.040156 50.477219 L 78.333125 49.910812 L 78.626094 49.633469 L 78.915156 49.656906 L 79.208125 49.973312 L 79.501094 50.578781 L 79.794062 51.438156 L 80.083125 52.524094 L 80.376094 53.781906 L 80.669062 55.164719 L 80.962031 56.613937 L 81.251094 58.063156 L 81.544062 59.457687 L 81.837031 60.735031 L 82.13 61.8405 L 82.419062 62.727219 L 82.712031 63.360031 L 83.005 63.711594 L 83.297969 63.762375 L 83.587031 63.520187 L 83.88 62.985031 L 84.172969 62.188156 L 84.465937 61.153 L 84.47375 14.813156 L 84.766719 13.356125 L 85.055781 11.93425 L 85.34875 10.606125 L 85.641719 9.430344 L 85.934687 8.453781 L 86.22375 7.719406 L 86.516719 7.258469 L 86.809687 7.086594 L 87.102656 7.219406 L 87.391719 7.645187 L 87.684687 8.344406 L 87.977656 9.289719 L 88.270625 10.445969 L 88.559687 11.758469 L 88.852656 13.168625 L 89.145625 14.625656 L 89.438594 16.063156 L 89.727656 17.418625 L 90.020625 18.641281 L 90.313594 19.668625 L 90.602656 20.469406 L 90.895625 21.000656 L 91.188594 21.242844 L 91.481562 21.188156 L 91.770625 20.836594 L 92.063594 20.203781 L 92.356562 19.313156 L 92.649531 18.207687 L 92.938594 16.930344 L 93.231562 15.535812 L 93.8175 12.637375 L 94.106562 11.254562 L 94.399531 9.99675 L 94.6925 8.914719 L 94.985469 8.055344 L 95.274531 7.453781 L 95.5675 7.133469 L 95.860469 7.113937 L 96.153437 7.395187 L 96.4425 7.957687 L 96.735469 8.785812 L 97.028437 9.844406 L 97.321406 11.082687 L 97.610469 12.453781 L 97.903437 13.895187 L 98.196406 15.348312 L 98.489375 16.754562 L 98.778437 18.047531 L 99.071406 19.180344 L 99.364375 20.098312 L 99.657344 20.770187 L 99.946406 21.160812 L 100.239375 21.254562 L 100.532344 21.051437 L 100.821406 20.555344 L 101.114375 19.789719 L 101.407344 18.785812 L 101.700312 17.5905 L 101.989375 16.24675 L 102.282344 14.817062 L 102.575312 13.360031 L 102.868281 11.938156 L 103.157344 10.610031 L 103.450312 9.43425 L 103.743281 8.453781 L 104.03625 7.719406 L 104.325312 7.258469 L 104.618281 7.086594 L 104.91125 7.2155 L 105.204219 7.641281 L 105.493281 8.3405 L 105.78625 9.289719 L 106.079219 10.442062 L 106.372187 11.750656 L 106.66125 13.164719 L 106.954219 14.62175 L 107.247187 16.05925 L 107.540156 17.414719 L 107.829219 18.637375 L 108.122187 19.668625 L 108.415156 20.4655 L 108.708125 21.000656 L 108.997187 21.242844 L 109.290156 21.188156 L 109.583125 20.8405 L 109.876094 20.207687 L 110.165156 19.317062 L 110.458125 18.211594 L 110.751094 16.93425 L 111.040156 15.543625 L 111.333125 14.0905 L 111.626094 12.645187 L 111.919062 11.262375 L 112.208125 10.000656 L 112.501094 8.918625 L 112.794062 8.055344 L 113.087031 7.453781 L 113.376094 7.137375 L 113.387812 0.00065625 L 28.34875 0.00065625 L 28.34875 34.867844 " transform="matrix(1,0,0,-1,-4.255,65.653)"/>
</g>
<path style="fill:none;stroke-width:0.3985;stroke-linecap:butt;stroke-linejoin:miter;stroke:rgb(0%,0%,0%);stroke-opacity:1;stroke-dasharray:0.3985,1.99255;stroke-miterlimit:10;" d="M 5.669062 21.258469 L 90.708125 21.258469 " transform="matrix(1,0,0,-1,-4.255,65.653)"/>
<path style="fill:none;stroke-width:0.3985;stroke-linecap:butt;stroke-linejoin:miter;stroke:rgb(0%,0%,0%);stroke-opacity:1;stroke-dasharray:0.3985,1.99255;stroke-miterlimit:10;" d="M 5.669062 7.086594 L 90.708125 7.086594 " transform="matrix(1,0,0,-1,-4.255,65.653)"/>
<path style="fill:none;stroke-width:0.3985;stroke-linecap:butt;stroke-linejoin:miter;stroke:rgb(0%,0%,0%);stroke-opacity:1;stroke-dasharray:0.3985,1.99255;stroke-miterlimit:10;" d="M 5.669062 49.606125 L 56.6925 49.606125 " transform="matrix(1,0,0,-1,-4.255,65.653)"/>
<path style="fill:none;stroke-width:0.3985;stroke-linecap:butt;stroke-linejoin:miter;stroke:rgb(0%,0%,0%);stroke-opacity:1;stroke-dasharray:0.3985,1.99255;stroke-miterlimit:10;" d="M 5.669062 63.781906 L 56.6925 63.781906 " transform="matrix(1,0,0,-1,-4.255,65.653)"/>
<path style="fill:none;stroke-width:0.3985;stroke-linecap:butt;stroke-linejoin:miter;stroke:rgb(0%,0%,0%);stroke-opacity:1;stroke-dasharray:0.3985,1.99255;stroke-miterlimit:10;" d="M 5.669062 35.43425 L 28.34875 35.43425 " transform="matrix(1,0,0,-1,-4.255,65.653)"/>
</g>
</svg>
