<?xml version="1.0" encoding="UTF-8"?>
<svg xmlns="http://www.w3.org/2000/svg" xmlns:xlink="http://www.w3.org/1999/xlink" width="258.32pt" height="144.56pt" viewBox="0 0 258.32 144.56" version="1.1">
<g id="surface1">
<path style="fill:none;stroke-width:0.79701;stroke-linecap:butt;stroke-linejoin:miter;stroke:rgb(100%,0%,0%);stroke-opacity:1;stroke-miterlimit:10;" d="M 0.00028125 -0.0018125 L 0.00028125 141.732562 L 255.121375 141.732562 L 255.121375 -0.0018125 Z M 0.00028125 -0.0018125 " transform="matrix(1,0,0,-1,1.613,143.131)"/>
<path style="fill-rule:nonzero;fill:rgb(0%,0%,0%);fill-opacity:0.2;stroke-width:0.3985;stroke-linecap:butt;stroke-linejoin:miter;stroke:rgb(0%,0%,0%);stroke-opacity:1;stroke-miterlimit:10;" d="M 85.039344 -0.0018125 L 85.039344 141.732562 L 0.00028125 141.732562 L 0.00028125 -0.0018125 Z M 85.039344 -0.0018125 " transform="matrix(1,0,0,-1,1.613,143.131)"/>
<path style="fill:none;stroke-width:0.3985;stroke-linecap:butt;stroke-linejoin:miter;stroke:rgb(0%,0%,0%);stroke-opacity:1;stroke-miterlimit:10;" d="M 170.082313 -0.0018125 L 170.082313 141.732562 " transform="matrix(1,0,0,-1,1.613,143.131)"/>
<path style="fill-rule:nonzero;fill:rgb(0%,0%,0%);fill-opacity:0.2;stroke-width:0.3985;stroke-linecap:butt;stroke-linejoin:miter;stroke:rgb(0%,0%,0%);stroke-opacity:1;stroke-miterlimit:10;" d="M 113.387 -0.0018125 L 113.387 141.732562 L 0.00028125 141.732562 L 0.00028125 -0.0018125 Z M 113.387 -0.0018125 " transform="matrix(1,0,0,-1,1.613,143.131)"/>
<path style="fill:none;stroke-width:0.3985;stroke-linecap:butt;stroke-linejoin:miter;stroke:rgb(0%,0%,0%);stroke-opacity:1;stroke-miterlimit:10;" d="M 141.734656 -0.0018125 L 141.734656 141.732562 " transform="matrix(1,0,0,-1,1.613,143.131)"/>
<path style="fill-rule:nonzero;fill:rgb(0%,0%,0%);fill-opacity:0.2;stroke-width:0.3985;stroke-linecap:butt;stroke-linejoin:miter;stroke:rgb(0%,0%,0%);stroke-opacity:1;stroke-miterlimit:10;" d="M 122.836219 -0.0018125 L 122.836219 141.732562 L 0.00028125 141.732562 L 0.00028125 -0.0018125 Z M 122.836219 -0.0018125 " transform="matrix(1,0,0,-1,1.613,143.131)"/>
<path style="fill:none;stroke-width:0.3985;stroke-linecap:butt;stroke-linejoin:miter;stroke:rgb(0%,0%,0%);stroke-opacity:1;stroke-miterlimit:10;" d="M 132.285438 -0.0018125 L 132.285438 141.732562 " transform="matrix(1,0,0,-1,1.613,143.131)"/>
<path style="fill-rule:nonzero;fill:rgb(0%,0%,0%);fill-opacity:0.2;stroke-width:0.3985;stroke-linecap:butt;stroke-linejoin:miter;stroke:rgb(0%,0%,0%);stroke-opacity:1;stroke-miterlimit:10;" d="M 125.984656 -0.0018125 L 125.984656 141.732562 L 0.00028125 141.732562 L 0.00028125 -0.0018125 Z M 125.984656 -0.0018125 " transform="matrix(1,0,0,-1,1.613,143.131)"/>
<path style="fill:none;stroke-width:0.3985;stroke-linecap:butt;stroke-linejoin:miter;stroke:rgb(0%,0%,0%);stroke-opacity:1;stroke-miterlimit:10;" d="M 129.137 -0.0018125 L 129.137 141.732562 " transform="matrix(1,0,0,-1,1.613,143.131)"/>
<path style="fill-rule:nonzero;fill:rgb(0%,0%,0%);fill-opacity:0.2;stroke-width:0.3985;stroke-linecap:butt;stroke-linejoin:miter;stroke:rgb(0%,0%,0%);stroke-opacity:1;stroke-miterlimit:10;" d="M 127.035438 -0.0018125 L 127.035438 141.732562 L 0.00028125 141.732562 L 0.00028125 -0.0018125 Z M 127.035438 -0.0018125 " transform="matrix(1,0,0,-1,1.613,143.131)"/>
<path style="fill:none;stroke-width:0.3985;stroke-linecap:butt;stroke-linejoin:miter;stroke:rgb(0%,0%,0%);stroke-opacity:1;stroke-miterlimit:10;" d="M 128.086219 -0.0018125 L 128.086219 141.732562 " transform="matrix(1,0,0,-1,1.613,143.131)"/>
</g>
</svg>
