<?xml version="1.0" encoding="UTF-8"?>
<svg xmlns="http://www.w3.org/2000/svg" xmlns:xlink="http://www.w3.org/1999/xlink" width="173.36pt" height="116.24pt" viewBox="0 0 173.36 116.24" version="1.1">
<defs>
<clipPath id="clip1">
  <path d="M 47 0 L 173.359375 0 L 173.359375 116.238281 L 47 116.238281 Z M 47 0 "/>
</clipPath>
<clipPath id="clip2">
  <path d="M 0 0 L 173.359375 0 L 173.359375 98 L 0 98 Z M 0 0 "/>
</clipPath>
<clipPath id="clip3">
  <path d="M 109 20 L 173.359375 20 L 173.359375 93 L 109 93 Z M 109 20 "/>
</clipPath>
</defs>
<g id="surface1">
<g clip-path="url(#clip1)" clip-rule="nonzero">
<path style="fill:none;stroke-width:0.79701;stroke-linecap:butt;stroke-linejoin:miter;stroke:rgb(0%,0%,0%);stroke-opacity:1;stroke-miterlimit:10;" d="M -28.348312 -28.347156 L -0.00065625 0.0005 L 85.042313 85.039562 " transform="matrix(1,0,0,-1,86.653,86.438)"/>
</g>
<path style="fill:none;stroke-width:0.79701;stroke-linecap:butt;stroke-linejoin:miter;stroke:rgb(0%,0%,0%);stroke-opacity:1;stroke-miterlimit:10;" d="M -0.00065625 0.0005 C -0.00065625 15.65675 12.69075 28.348156 28.347 28.348156 C 44.00325 28.348156 56.694656 15.65675 56.694656 0.0005 " transform="matrix(1,0,0,-1,86.653,86.438)"/>
<g clip-path="url(#clip2)" clip-rule="nonzero">
<path style="fill:none;stroke-width:0.79701;stroke-linecap:butt;stroke-linejoin:miter;stroke:rgb(0%,0%,0%);stroke-opacity:1;stroke-miterlimit:10;" d="M -85.039719 0.0005 C -85.039719 46.965344 -46.9655 85.039562 -0.00065625 85.039562 C 46.968094 85.039562 85.042313 46.965344 85.042313 0.0005 " transform="matrix(1,0,0,-1,86.653,86.438)"/>
</g>
<path style=" stroke:none;fill-rule:nonzero;fill:rgb(0%,0%,100%);fill-opacity:0.5;" d="M 146.75 26.34375 C 162.691406 42.289062 171.65625 63.925781 171.65625 86.476562 L 143.347656 86.4375 C 143.347656 70.78125 130.65625 58.089844 115 58.089844 Z M 146.75 26.34375 "/>
<g clip-path="url(#clip3)" clip-rule="nonzero">
<path style="fill:none;stroke-width:0.3985;stroke-linecap:butt;stroke-linejoin:miter;stroke:rgb(0%,0%,0%);stroke-opacity:1;stroke-miterlimit:10;" d="M 60.097 60.09425 C 76.038406 44.148937 85.00325 22.512219 85.00325 -0.0385625 L 56.694656 0.0005 C 56.694656 15.65675 44.00325 28.348156 28.347 28.348156 Z M 60.097 60.09425 " transform="matrix(1,0,0,-1,86.653,86.438)"/>
</g>
</g>
</svg>
