<?xml version="1.0" encoding="UTF-8"?>
<svg xmlns="http://www.w3.org/2000/svg" xmlns:xlink="http://www.w3.org/1999/xlink" width="342.32pt" height="84.08pt" viewBox="0 0 342.32 84.08" version="1.1">
<defs>
<clipPath id="clip1">
  <path d="M 0 44 L 98 44 L 98 84.078125 L 0 84.078125 Z M 0 44 "/>
</clipPath>
<clipPath id="clip2">
  <path d="M 244 44 L 342.320312 44 L 342.320312 84.078125 L 244 84.078125 Z M 244 44 "/>
</clipPath>
</defs>
<g id="surface1">
<g clip-path="url(#clip1)" clip-rule="nonzero">
<path style="fill:none;stroke-width:0.79701;stroke-linecap:butt;stroke-linejoin:miter;stroke:rgb(0%,0%,0%);stroke-opacity:1;stroke-miterlimit:10;" d="M -170.079187 1.409937 L -166.536219 1.597437 L -162.99325 1.812281 L -159.450281 2.050562 L -155.907312 2.324 L -152.364344 2.6365 L -148.821375 2.988062 L -145.278406 3.3865 L -141.735437 3.835719 L -138.192469 4.347437 L -134.645594 4.925562 L -131.102625 5.581812 L -127.559656 6.324 L -124.016687 7.16775 L -120.473719 8.124781 L -116.93075 9.202906 L -113.387781 10.429469 L -109.844812 11.816187 L -106.301844 13.390406 L -102.758875 15.175562 L -99.212 17.195094 L -95.669031 19.484156 L -92.126062 22.081812 L -88.583094 25.023219 L -85.040125 28.347437 " transform="matrix(1,0,0,-1,171.212,83.949)"/>
</g>
<g clip-path="url(#clip2)" clip-rule="nonzero">
<path style="fill:none;stroke-width:0.79701;stroke-linecap:butt;stroke-linejoin:miter;stroke:rgb(0%,0%,0%);stroke-opacity:1;stroke-miterlimit:10;" d="M 85.041906 28.347437 L 88.584875 25.023219 L 92.127844 22.081812 L 95.670813 19.484156 L 99.213781 17.195094 L 102.75675 15.175562 L 106.299719 13.390406 L 109.842688 11.816187 L 113.385656 10.429469 L 116.928625 9.202906 L 120.4755 8.124781 L 124.018469 7.16775 L 127.561438 6.324 L 131.104406 5.581812 L 134.647375 4.925562 L 138.190344 4.347437 L 141.733313 3.835719 L 145.276281 3.3865 L 148.81925 2.988062 L 152.362219 2.6365 L 155.909094 2.324 L 159.452063 2.050562 L 162.995031 1.812281 L 166.538 1.597437 L 170.080969 1.409937 " transform="matrix(1,0,0,-1,171.212,83.949)"/>
</g>
<path style="fill:none;stroke-width:0.79701;stroke-linecap:butt;stroke-linejoin:miter;stroke:rgb(0%,0%,0%);stroke-opacity:1;stroke-miterlimit:10;" d="M -85.040125 28.445094 L -77.954187 35.5115 L -70.86825 42.452906 L -63.778406 49.156031 L -56.692469 55.503687 L -49.606531 61.390406 L -42.520594 66.710719 L -35.434656 71.374781 L -28.348719 75.304469 L -21.258875 78.433375 L -14.172937 80.706812 L -7.087 82.085719 L -0.0010625 82.550562 L 7.084875 82.085719 L 14.174719 80.706812 L 21.260656 78.433375 L 28.346594 75.304469 L 35.432531 71.374781 L 42.518469 66.710719 L 49.608313 61.390406 L 56.69425 55.503687 L 63.780188 49.156031 L 70.866125 42.452906 L 77.952063 35.5115 L 85.041906 28.445094 " transform="matrix(1,0,0,-1,171.212,83.949)"/>
</g>
</svg>
