<?xml version="1.0" encoding="UTF-8"?>
<svg xmlns="http://www.w3.org/2000/svg" xmlns:xlink="http://www.w3.org/1999/xlink" width="185.84pt" height="182.96pt" viewBox="0 0 185.84 182.96" version="1.1">
<defs>
<clipPath id="clip1">
  <path d="M 0 158 L 19 158 L 19 182.960938 L 0 182.960938 Z M 0 158 "/>
</clipPath>
<clipPath id="clip2">
  <path d="M 18 157 L 47 157 L 47 182.960938 L 18 182.960938 Z M 18 157 "/>
</clipPath>
<clipPath id="clip3">
  <path d="M 47 157 L 76 157 L 76 182.960938 L 47 182.960938 Z M 47 157 "/>
</clipPath>
<clipPath id="clip4">
  <path d="M 75 158 L 105 158 L 105 182.960938 L 75 182.960938 Z M 75 158 "/>
</clipPath>
<clipPath id="clip5">
  <path d="M 103 159 L 135 159 L 135 182.960938 L 103 182.960938 Z M 103 159 "/>
</clipPath>
<clipPath id="clip6">
  <path d="M 132 160 L 164 160 L 164 182.960938 L 132 182.960938 Z M 132 160 "/>
</clipPath>
<clipPath id="clip7">
  <path d="M 160 160 L 185.839844 160 L 185.839844 182.960938 L 160 182.960938 Z M 160 160 "/>
</clipPath>
<clipPath id="clip8">
  <path d="M 160 133 L 185.839844 133 L 185.839844 165 L 160 165 Z M 160 133 "/>
</clipPath>
<clipPath id="clip9">
  <path d="M 160 105 L 185.839844 105 L 185.839844 137 L 160 137 Z M 160 105 "/>
</clipPath>
<clipPath id="clip10">
  <path d="M 160 78 L 185.839844 78 L 185.839844 108 L 160 108 Z M 160 78 "/>
</clipPath>
<clipPath id="clip11">
  <path d="M 160 51 L 185.839844 51 L 185.839844 80 L 160 80 Z M 160 51 "/>
</clipPath>
<clipPath id="clip12">
  <path d="M 160 23 L 185.839844 23 L 185.839844 52 L 160 52 Z M 160 23 "/>
</clipPath>
<clipPath id="clip13">
  <path d="M 160 0 L 185.839844 0 L 185.839844 23 L 160 23 Z M 160 0 "/>
</clipPath>
</defs>
<g id="surface1">
<g clip-path="url(#clip1)" clip-rule="nonzero">
<path style="fill:none;stroke-width:0.79701;stroke-linecap:butt;stroke-linejoin:miter;stroke:rgb(100%,0%,0%);stroke-opacity:1;stroke-miterlimit:10;" d="M -56.692719 -56.694 L -50.673187 -44.647125 " transform="matrix(1,0,0,-1,58.306,124.806)"/>
</g>
<path style="fill:none;stroke-width:0.6376;stroke-linecap:round;stroke-linejoin:round;stroke:rgb(100%,0%,0%);stroke-opacity:1;stroke-miterlimit:10;" d="M -1.553898 2.072604 C -1.422884 1.295171 -0.000817836 0.128126 0.387022 -0.00116192 C 0.000924605 -0.128689 -1.424678 -1.295683 -1.555719 -2.073112 " transform="matrix(0.44717,-0.89438,-0.89438,-0.44717,7.63449,169.455)"/>
<path style="fill:none;stroke-width:0.79701;stroke-linecap:butt;stroke-linejoin:miter;stroke:rgb(100%,0%,0%);stroke-opacity:1;stroke-miterlimit:10;" d="M -56.692719 -28.346344 L -51.196625 -16.053375 " transform="matrix(1,0,0,-1,58.306,124.806)"/>
<path style="fill:none;stroke-width:0.6376;stroke-linecap:round;stroke-linejoin:round;stroke:rgb(100%,0%,0%);stroke-opacity:1;stroke-miterlimit:10;" d="M -1.55589 2.073264 C -1.425219 1.292984 -0.00144559 0.128116 0.389927 -0.00069783 C -0.0020543 -0.128904 -1.423333 -1.295048 -1.554844 -2.072749 " transform="matrix(0.40819,-0.91286,-0.91286,-0.40819,7.10973,140.85957)"/>
<path style="fill:none;stroke-width:0.79701;stroke-linecap:butt;stroke-linejoin:miter;stroke:rgb(100%,0%,0%);stroke-opacity:1;stroke-miterlimit:10;" d="M -56.692719 0.0013125 L -51.196625 12.294281 " transform="matrix(1,0,0,-1,58.306,124.806)"/>
<path style="fill:none;stroke-width:0.6376;stroke-linecap:round;stroke-linejoin:round;stroke:rgb(100%,0%,0%);stroke-opacity:1;stroke-miterlimit:10;" d="M -1.553367 2.070518 C -1.424256 1.293808 -0.000427186 0.129002 0.387386 -0.00138993 C -0.00102442 -0.128019 -1.42582 -1.295824 -1.55373 -2.071937 " transform="matrix(0.40823,-0.91284,-0.91284,-0.40823,7.11012,112.51321)"/>
<path style="fill:none;stroke-width:0.79701;stroke-linecap:butt;stroke-linejoin:miter;stroke:rgb(100%,0%,0%);stroke-opacity:1;stroke-miterlimit:10;" d="M -56.692719 28.345062 L -50.27475 40.184906 " transform="matrix(1,0,0,-1,58.306,124.806)"/>
<path style="fill:none;stroke-width:0.6376;stroke-linecap:round;stroke-linejoin:round;stroke:rgb(100%,0%,0%);stroke-opacity:1;stroke-miterlimit:10;" d="M -1.554481 2.072975 C -1.425444 1.29416 0.00118591 0.130245 0.388396 -0.00196022 C -0.000695029 -0.128522 -1.424931 -1.296367 -1.554661 -2.0733 " transform="matrix(0.47667,-0.87901,-0.87901,-0.47667,8.03189,84.62172)"/>
<path style="fill:none;stroke-width:0.79701;stroke-linecap:butt;stroke-linejoin:miter;stroke:rgb(100%,0%,0%);stroke-opacity:1;stroke-miterlimit:10;" d="M -56.692719 56.692719 L -48.919281 67.688812 " transform="matrix(1,0,0,-1,58.306,124.806)"/>
<path style="fill:none;stroke-width:0.6376;stroke-linecap:round;stroke-linejoin:round;stroke:rgb(100%,0%,0%);stroke-opacity:1;stroke-miterlimit:10;" d="M -1.555774 2.071999 C -1.422798 1.295281 -0.000178205 0.129126 0.387024 0.00103096 C 0.000405513 -0.128815 -1.424274 -1.294078 -1.554682 -2.070446 " transform="matrix(0.57732,-0.81647,-0.81647,-0.57732,9.38678,57.11737)"/>
<path style="fill:none;stroke-width:0.79701;stroke-linecap:butt;stroke-linejoin:miter;stroke:rgb(100%,0%,0%);stroke-opacity:1;stroke-miterlimit:10;" d="M -56.692719 85.040375 L -47.829437 95.177094 " transform="matrix(1,0,0,-1,58.306,124.806)"/>
<path style="fill:none;stroke-width:0.6376;stroke-linecap:round;stroke-linejoin:round;stroke:rgb(100%,0%,0%);stroke-opacity:1;stroke-miterlimit:10;" d="M -1.552632 2.07248 C -1.424617 1.297052 0.000491732 0.130226 0.387779 0.00185585 C -0.000322782 -0.129952 -1.42394 -1.297009 -1.556104 -2.071623 " transform="matrix(0.65825,-0.75275,-0.75275,-0.65825,10.47661,29.62906)"/>
<path style="fill:none;stroke-width:0.79701;stroke-linecap:butt;stroke-linejoin:miter;stroke:rgb(100%,0%,0%);stroke-opacity:1;stroke-miterlimit:10;" d="M -56.692719 113.388031 L -47.173187 122.907562 " transform="matrix(1,0,0,-1,58.306,124.806)"/>
<path style="fill:none;stroke-width:0.6376;stroke-linecap:round;stroke-linejoin:round;stroke:rgb(100%,0%,0%);stroke-opacity:1;stroke-miterlimit:10;" d="M -1.554234 2.071558 C -1.424412 1.295391 0.000863562 0.129758 0.390328 -0.0000636402 C 0.000863562 -0.129885 -1.424412 -1.295518 -1.554234 -2.071685 " transform="matrix(0.7071,-0.7071,-0.7071,-0.7071,11.13411,1.89705)"/>
<g clip-path="url(#clip2)" clip-rule="nonzero">
<path style="fill:none;stroke-width:0.79701;stroke-linecap:butt;stroke-linejoin:miter;stroke:rgb(100%,0%,0%);stroke-opacity:1;stroke-miterlimit:10;" d="M -28.345062 -56.694 L -22.848969 -44.401031 " transform="matrix(1,0,0,-1,58.306,124.806)"/>
</g>
<path style="fill:none;stroke-width:0.6376;stroke-linecap:round;stroke-linejoin:round;stroke:rgb(100%,0%,0%);stroke-opacity:1;stroke-miterlimit:10;" d="M -1.552751 2.073741 C -1.423675 1.297027 0.0016934 0.128593 0.387905 0.00175026 C 0.00108469 -0.128427 -1.423761 -1.296167 -1.555271 -2.073867 " transform="matrix(0.40819,-0.91286,-0.91286,-0.40819,35.45654,169.20638)"/>
<path style="fill:none;stroke-width:0.79701;stroke-linecap:butt;stroke-linejoin:miter;stroke:rgb(100%,0%,0%);stroke-opacity:1;stroke-miterlimit:10;" d="M -28.345062 -28.346344 L -24.08725 -15.572906 " transform="matrix(1,0,0,-1,58.306,124.806)"/>
<path style="fill:none;stroke-width:0.6376;stroke-linecap:round;stroke-linejoin:round;stroke:rgb(100%,0%,0%);stroke-opacity:1;stroke-miterlimit:10;" d="M -1.552042 2.071397 C -1.424806 1.294379 0.00075228 0.130701 0.389878 0.000990583 C 0.00075146 -0.128717 -1.42605 -1.296092 -1.554526 -2.071874 " transform="matrix(0.31621,-0.94864,-0.94864,-0.31621,34.2175,140.37798)"/>
<path style="fill:none;stroke-width:0.79701;stroke-linecap:butt;stroke-linejoin:miter;stroke:rgb(100%,0%,0%);stroke-opacity:1;stroke-miterlimit:10;" d="M -28.345062 0.0013125 L -24.747406 12.977875 " transform="matrix(1,0,0,-1,58.306,124.806)"/>
<path style="fill:none;stroke-width:0.6376;stroke-linecap:round;stroke-linejoin:round;stroke:rgb(100%,0%,0%);stroke-opacity:1;stroke-miterlimit:10;" d="M -1.554897 2.073833 C -1.42411 1.295271 0.00172744 0.129951 0.390822 -0.00132131 C 0.000783129 -0.12976 -1.423304 -1.294943 -1.552228 -2.07256 " transform="matrix(0.26723,-0.96358,-0.96358,-0.26723,33.55835,111.82936)"/>
<path style="fill:none;stroke-width:0.79701;stroke-linecap:butt;stroke-linejoin:miter;stroke:rgb(100%,0%,0%);stroke-opacity:1;stroke-miterlimit:10;" d="M -28.345062 28.345062 L -22.848969 40.641937 " transform="matrix(1,0,0,-1,58.306,124.806)"/>
<path style="fill:none;stroke-width:0.6376;stroke-linecap:round;stroke-linejoin:round;stroke:rgb(100%,0%,0%);stroke-opacity:1;stroke-miterlimit:10;" d="M -1.55462 2.073338 C -1.425516 1.296623 -0.0000971616 0.128233 0.387716 -0.00216251 C -0.000696741 -0.128788 -1.425509 -1.296585 -1.553427 -2.0727 " transform="matrix(0.40822,-0.91284,-0.91284,-0.40822,35.45694,84.16554)"/>
<path style="fill:none;stroke-width:0.79701;stroke-linecap:butt;stroke-linejoin:miter;stroke:rgb(100%,0%,0%);stroke-opacity:1;stroke-miterlimit:10;" d="M -28.345062 56.692719 L -20.298187 67.489594 " transform="matrix(1,0,0,-1,58.306,124.806)"/>
<path style="fill:none;stroke-width:0.6376;stroke-linecap:round;stroke-linejoin:round;stroke:rgb(100%,0%,0%);stroke-opacity:1;stroke-miterlimit:10;" d="M -1.553967 2.070336 C -1.424261 1.294902 -0.000342883 0.129617 0.388352 0.000315103 C -0.00190445 -0.129768 -1.422679 -1.295872 -1.55549 -2.072079 " transform="matrix(0.59756,-0.80176,-0.80176,-0.59756,38.00647,57.31546)"/>
<path style="fill:none;stroke-width:0.79701;stroke-linecap:butt;stroke-linejoin:miter;stroke:rgb(100%,0%,0%);stroke-opacity:1;stroke-miterlimit:10;" d="M -28.345062 85.040375 L -18.825531 94.563812 " transform="matrix(1,0,0,-1,58.306,124.806)"/>
<path style="fill:none;stroke-width:0.6376;stroke-linecap:round;stroke-linejoin:round;stroke:rgb(100%,0%,0%);stroke-opacity:1;stroke-miterlimit:10;" d="M -1.554875 2.070358 C -1.425047 1.294186 0.000247466 0.128555 0.389716 -0.00126475 C 0.000249302 -0.13109 -1.425028 -1.296741 -1.554845 -2.072915 " transform="matrix(0.7071,-0.70709,-0.70709,-0.7071,39.48135,30.24342)"/>
<path style="fill:none;stroke-width:0.79701;stroke-linecap:butt;stroke-linejoin:miter;stroke:rgb(100%,0%,0%);stroke-opacity:1;stroke-miterlimit:10;" d="M -28.345062 113.388031 L -18.208344 122.251312 " transform="matrix(1,0,0,-1,58.306,124.806)"/>
<path style="fill:none;stroke-width:0.6376;stroke-linecap:round;stroke-linejoin:round;stroke:rgb(100%,0%,0%);stroke-opacity:1;stroke-miterlimit:10;" d="M -1.554821 2.070381 C -1.422658 1.295768 0.000959848 0.128711 0.388693 0.00241511 C -0.00116629 -0.128895 -1.426275 -1.295721 -1.55429 -2.071149 " transform="matrix(0.75275,-0.65825,-0.65825,-0.75275,40.09572,2.55455)"/>
<g clip-path="url(#clip3)" clip-rule="nonzero">
<path style="fill:none;stroke-width:0.79701;stroke-linecap:butt;stroke-linejoin:miter;stroke:rgb(100%,0%,0%);stroke-opacity:1;stroke-miterlimit:10;" d="M -0.0013125 -56.694 L 5.498688 -44.401031 " transform="matrix(1,0,0,-1,58.306,124.806)"/>
</g>
<path style="fill:none;stroke-width:0.6376;stroke-linecap:round;stroke-linejoin:round;stroke:rgb(100%,0%,0%);stroke-opacity:1;stroke-miterlimit:10;" d="M -1.555831 2.071808 C -1.42672 1.295099 0.000674835 0.131887 0.388488 0.00149516 C 0.00167237 -0.1287 -1.423123 -1.296505 -1.554599 -2.074212 " transform="matrix(0.40823,-0.91284,-0.91284,-0.40823,63.80371,169.2068)"/>
<path style="fill:none;stroke-width:0.79701;stroke-linecap:butt;stroke-linejoin:miter;stroke:rgb(100%,0%,0%);stroke-opacity:1;stroke-miterlimit:10;" d="M -0.0013125 -28.346344 L 3.60025 -15.369781 " transform="matrix(1,0,0,-1,58.306,124.806)"/>
<path style="fill:none;stroke-width:0.6376;stroke-linecap:round;stroke-linejoin:round;stroke:rgb(100%,0%,0%);stroke-opacity:1;stroke-miterlimit:10;" d="M -1.55552 2.072761 C -1.424733 1.2942 0.0011049 0.128879 0.389155 0.00137142 C 0.000160581 -0.130832 -1.423927 -1.296014 -1.552851 -2.073631 " transform="matrix(0.26723,-0.96358,-0.96358,-0.26723,61.90514,140.17613)"/>
<path style="fill:none;stroke-width:0.79701;stroke-linecap:butt;stroke-linejoin:miter;stroke:rgb(100%,0%,0%);stroke-opacity:1;stroke-miterlimit:10;" d="M -0.0013125 0.0013125 L -0.0013125 13.466156 " transform="matrix(1,0,0,-1,58.306,124.806)"/>
<path style="fill:none;stroke-width:0.6376;stroke-linecap:round;stroke-linejoin:round;stroke:rgb(100%,0%,0%);stroke-opacity:1;stroke-miterlimit:10;" d="M -1.554981 2.071625 C -1.426075 1.294281 -0.00029375 0.130219 0.390331 0.0013125 C -0.00029375 -0.127594 -1.426075 -1.295563 -1.554981 -2.072906 " transform="matrix(0,-1,-1,0,58.306,111.33955)"/>
<path style="fill:none;stroke-width:0.79701;stroke-linecap:butt;stroke-linejoin:miter;stroke:rgb(100%,0%,0%);stroke-opacity:1;stroke-miterlimit:10;" d="M -0.0013125 28.345062 L 5.498688 40.641937 " transform="matrix(1,0,0,-1,58.306,124.806)"/>
<path style="fill:none;stroke-width:0.6376;stroke-linecap:round;stroke-linejoin:round;stroke:rgb(100%,0%,0%);stroke-opacity:1;stroke-miterlimit:10;" d="M -1.554079 2.073029 C -1.424955 1.296328 0.000478145 0.127991 0.386695 0.00117316 C -0.000114388 -0.129028 -1.424877 -1.29685 -1.552772 -2.072958 " transform="matrix(0.40825,-0.91284,-0.91284,-0.40825,63.80414,84.16597)"/>
<path style="fill:none;stroke-width:0.79701;stroke-linecap:butt;stroke-linejoin:miter;stroke:rgb(100%,0%,0%);stroke-opacity:1;stroke-miterlimit:10;" d="M -0.0013125 56.692719 L 9.522125 66.216156 " transform="matrix(1,0,0,-1,58.306,124.806)"/>
<path style="fill:none;stroke-width:0.6376;stroke-linecap:round;stroke-linejoin:round;stroke:rgb(100%,0%,0%);stroke-opacity:1;stroke-miterlimit:10;" d="M -1.552044 2.07192 C -1.424985 1.29299 0.0002908 0.127357 0.386994 0.000297872 C -0.00247136 -0.129524 -1.422223 -1.295156 -1.554807 -2.074086 " transform="matrix(0.7071,-0.7071,-0.7071,-0.7071,67.82813,58.59026)"/>
<path style="fill:none;stroke-width:0.79701;stroke-linecap:butt;stroke-linejoin:miter;stroke:rgb(100%,0%,0%);stroke-opacity:1;stroke-miterlimit:10;" d="M -0.0013125 85.040375 L 10.795563 93.08725 " transform="matrix(1,0,0,-1,58.306,124.806)"/>
<path style="fill:none;stroke-width:0.6376;stroke-linecap:round;stroke-linejoin:round;stroke:rgb(100%,0%,0%);stroke-opacity:1;stroke-miterlimit:10;" d="M -1.554545 2.074036 C -1.424068 1.294697 0.00217316 0.129391 0.389298 0.0016416 C 0.000602535 -0.12766 -1.42565 -1.296078 -1.555356 -2.071512 " transform="matrix(0.80176,-0.59756,-0.59756,-0.80176,69.10292,31.71832)"/>
<path style="fill:none;stroke-width:0.79701;stroke-linecap:butt;stroke-linejoin:miter;stroke:rgb(100%,0%,0%);stroke-opacity:1;stroke-miterlimit:10;" d="M -0.0013125 113.388031 L 10.994781 121.161469 " transform="matrix(1,0,0,-1,58.306,124.806)"/>
<path style="fill:none;stroke-width:0.6376;stroke-linecap:round;stroke-linejoin:round;stroke:rgb(100%,0%,0%);stroke-opacity:1;stroke-miterlimit:10;" d="M -1.55507 2.07061 C -1.424662 1.294242 0.0000177502 0.128979 0.386636 -0.000867005 C -0.000565967 -0.128962 -1.423185 -1.295117 -1.556162 -2.071836 " transform="matrix(0.81647,-0.57732,-0.57732,-0.81647,69.30101,3.64438)"/>
<g clip-path="url(#clip4)" clip-rule="nonzero">
<path style="fill:none;stroke-width:0.79701;stroke-linecap:butt;stroke-linejoin:miter;stroke:rgb(100%,0%,0%);stroke-opacity:1;stroke-miterlimit:10;" d="M 28.346344 -56.694 L 34.768219 -44.858063 " transform="matrix(1,0,0,-1,58.306,124.806)"/>
</g>
<path style="fill:none;stroke-width:0.6376;stroke-linecap:round;stroke-linejoin:round;stroke:rgb(100%,0%,0%);stroke-opacity:1;stroke-miterlimit:10;" d="M -1.552086 2.071363 C -1.424911 1.295982 -0.00171472 0.130205 0.38893 -0.000137979 C 0.00170063 -0.130134 -1.424397 -1.294544 -1.554128 -2.071478 " transform="matrix(0.47667,-0.87901,-0.87901,-0.47667,93.0723,169.66212)"/>
<path style="fill:none;stroke-width:0.79701;stroke-linecap:butt;stroke-linejoin:miter;stroke:rgb(100%,0%,0%);stroke-opacity:1;stroke-miterlimit:10;" d="M 28.346344 -28.346344 L 33.846344 -16.053375 " transform="matrix(1,0,0,-1,58.306,124.806)"/>
<path style="fill:none;stroke-width:0.6376;stroke-linecap:round;stroke-linejoin:round;stroke:rgb(100%,0%,0%);stroke-opacity:1;stroke-miterlimit:10;" d="M -1.555489 2.071062 C -1.426385 1.294348 0.00100489 0.131119 0.388818 0.000722583 C 0.00200005 -0.129469 -1.424407 -1.2937 -1.555891 -2.07141 " transform="matrix(0.40822,-0.91284,-0.91284,-0.40822,92.15053,140.85913)"/>
<path style="fill:none;stroke-width:0.79701;stroke-linecap:butt;stroke-linejoin:miter;stroke:rgb(100%,0%,0%);stroke-opacity:1;stroke-miterlimit:10;" d="M 28.346344 0.0013125 L 33.846344 12.294281 " transform="matrix(1,0,0,-1,58.306,124.806)"/>
<path style="fill:none;stroke-width:0.6376;stroke-linecap:round;stroke-linejoin:round;stroke:rgb(100%,0%,0%);stroke-opacity:1;stroke-miterlimit:10;" d="M -1.554511 2.071898 C -1.425387 1.295196 -0.00154875 0.130426 0.389829 0.00163673 C -0.000546467 -0.130159 -1.426904 -1.294415 -1.554799 -2.070523 " transform="matrix(0.40825,-0.91284,-0.91284,-0.40825,92.15094,112.51277)"/>
<path style="fill:none;stroke-width:0.79701;stroke-linecap:butt;stroke-linejoin:miter;stroke:rgb(100%,0%,0%);stroke-opacity:1;stroke-miterlimit:10;" d="M 28.346344 28.345062 L 37.869781 37.872406 " transform="matrix(1,0,0,-1,58.306,124.806)"/>
<path style="fill:none;stroke-width:0.6376;stroke-linecap:round;stroke-linejoin:round;stroke:rgb(100%,0%,0%);stroke-opacity:1;stroke-miterlimit:10;" d="M -1.552966 2.073478 C -1.425907 1.294548 -0.000631099 0.128916 0.388834 -0.000905989 C -0.000631099 -0.130728 -1.425907 -1.29636 -1.555729 -2.072528 " transform="matrix(0.7071,-0.7071,-0.7071,-0.7071,96.17754,86.93446)"/>
<path style="fill:none;stroke-width:0.79701;stroke-linecap:butt;stroke-linejoin:miter;stroke:rgb(100%,0%,0%);stroke-opacity:1;stroke-miterlimit:10;" d="M 28.346344 56.692719 L 40.639313 62.192719 " transform="matrix(1,0,0,-1,58.306,124.806)"/>
<path style="fill:none;stroke-width:0.6376;stroke-linecap:round;stroke-linejoin:round;stroke:rgb(100%,0%,0%);stroke-opacity:1;stroke-miterlimit:10;" d="M -1.555 2.074405 C -1.42354 1.296702 0.00122315 0.12888 0.388033 -0.00132084 C 0.000220873 -0.131705 -1.423617 -1.296475 -1.552741 -2.073176 " transform="matrix(0.91284,-0.40825,-0.40825,-0.91284,98.94603,62.61424)"/>
<path style="fill:none;stroke-width:0.79701;stroke-linecap:butt;stroke-linejoin:miter;stroke:rgb(100%,0%,0%);stroke-opacity:1;stroke-miterlimit:10;" d="M 28.346344 85.040375 L 40.639313 90.536469 " transform="matrix(1,0,0,-1,58.306,124.806)"/>
<path style="fill:none;stroke-width:0.6376;stroke-linecap:round;stroke-linejoin:round;stroke:rgb(100%,0%,0%);stroke-opacity:1;stroke-miterlimit:10;" d="M -1.55298 2.070559 C -1.425063 1.294444 0.00134404 0.130213 0.388162 0.0000213 C 0.00034888 -0.130375 -1.423475 -1.295199 -1.552579 -2.071913 " transform="matrix(0.91284,-0.40822,-0.40822,-0.91284,98.94646,34.26785)"/>
<path style="fill:none;stroke-width:0.79701;stroke-linecap:butt;stroke-linejoin:miter;stroke:rgb(100%,0%,0%);stroke-opacity:1;stroke-miterlimit:10;" d="M 28.346344 113.388031 L 40.186188 119.806 " transform="matrix(1,0,0,-1,58.306,124.806)"/>
<path style="fill:none;stroke-width:0.6376;stroke-linecap:round;stroke-linejoin:round;stroke:rgb(100%,0%,0%);stroke-opacity:1;stroke-miterlimit:10;" d="M -1.553573 2.072619 C -1.423843 1.295686 0.000393208 0.127841 0.389485 0.00127908 C -0.00115992 -0.129064 -1.424356 -1.294841 -1.553393 -2.073656 " transform="matrix(0.87901,-0.47667,-0.47667,-0.87901,98.49028,4.99928)"/>
<g clip-path="url(#clip5)" clip-rule="nonzero">
<path style="fill:none;stroke-width:0.79701;stroke-linecap:butt;stroke-linejoin:miter;stroke:rgb(100%,0%,0%);stroke-opacity:1;stroke-miterlimit:10;" d="M 56.694 -56.694 L 64.467438 -45.697906 " transform="matrix(1,0,0,-1,58.306,124.806)"/>
</g>
<path style="fill:none;stroke-width:0.6376;stroke-linecap:round;stroke-linejoin:round;stroke:rgb(100%,0%,0%);stroke-opacity:1;stroke-miterlimit:10;" d="M -1.555663 2.072692 C -1.425875 1.293718 -0.000066487 0.129818 0.389391 -0.00146571 C 0.000517231 -0.128122 -1.424162 -1.293385 -1.552315 -2.072942 " transform="matrix(0.57732,-0.81647,-0.81647,-0.57732,122.774,170.50458)"/>
<path style="fill:none;stroke-width:0.79701;stroke-linecap:butt;stroke-linejoin:miter;stroke:rgb(100%,0%,0%);stroke-opacity:1;stroke-miterlimit:10;" d="M 56.694 -28.346344 L 64.740875 -17.549469 " transform="matrix(1,0,0,-1,58.306,124.806)"/>
<path style="fill:none;stroke-width:0.6376;stroke-linecap:round;stroke-linejoin:round;stroke:rgb(100%,0%,0%);stroke-opacity:1;stroke-miterlimit:10;" d="M -1.553708 2.07221 C -1.424002 1.296776 -0.0000837317 0.13149 0.388612 0.00218893 C 0.00068916 -0.131027 -1.425552 -1.296333 -1.552897 -2.073337 " transform="matrix(0.59756,-0.80176,-0.80176,-0.59756,123.04688,142.35585)"/>
<path style="fill:none;stroke-width:0.79701;stroke-linecap:butt;stroke-linejoin:miter;stroke:rgb(100%,0%,0%);stroke-opacity:1;stroke-miterlimit:10;" d="M 56.694 0.0013125 L 66.217438 9.520844 " transform="matrix(1,0,0,-1,58.306,124.806)"/>
<path style="fill:none;stroke-width:0.6376;stroke-linecap:round;stroke-linejoin:round;stroke:rgb(100%,0%,0%);stroke-opacity:1;stroke-miterlimit:10;" d="M -1.554807 2.072274 C -1.424985 1.296106 0.0002908 0.130474 0.389756 0.000652312 C 0.0002908 -0.129169 -1.424985 -1.294802 -1.554807 -2.070969 " transform="matrix(0.7071,-0.7071,-0.7071,-0.7071,124.52174,115.28387)"/>
<path style="fill:none;stroke-width:0.79701;stroke-linecap:butt;stroke-linejoin:miter;stroke:rgb(100%,0%,0%);stroke-opacity:1;stroke-miterlimit:10;" d="M 56.694 28.345062 L 68.986969 33.845062 " transform="matrix(1,0,0,-1,58.306,124.806)"/>
<path style="fill:none;stroke-width:0.6376;stroke-linecap:round;stroke-linejoin:round;stroke:rgb(100%,0%,0%);stroke-opacity:1;stroke-miterlimit:10;" d="M -1.554578 2.0733 C -1.423118 1.295597 -0.00192084 0.12937 0.39005 0.00114032 C 0.00223767 -0.129243 -1.426761 -1.295985 -1.555885 -2.072686 " transform="matrix(0.91284,-0.40825,-0.40825,-0.91284,127.29285,90.96106)"/>
<path style="fill:none;stroke-width:0.79701;stroke-linecap:butt;stroke-linejoin:miter;stroke:rgb(100%,0%,0%);stroke-opacity:1;stroke-miterlimit:10;" d="M 56.694 56.692719 L 70.158844 56.692719 " transform="matrix(1,0,0,-1,58.306,124.806)"/>
<path style="fill:none;stroke-width:0.6376;stroke-linecap:round;stroke-linejoin:round;stroke:rgb(100%,0%,0%);stroke-opacity:1;stroke-miterlimit:10;" d="M -1.555904 2.073317 C -1.423091 1.295974 -0.00121625 0.128005 0.389409 -0.00090125 C -0.00121625 -0.129808 -1.423091 -1.29387 -1.555904 -2.071214 " transform="matrix(1,0,0,-1,128.46606,68.11238)"/>
<path style="fill:none;stroke-width:0.79701;stroke-linecap:butt;stroke-linejoin:miter;stroke:rgb(100%,0%,0%);stroke-opacity:1;stroke-miterlimit:10;" d="M 56.694 85.040375 L 69.670563 88.638031 " transform="matrix(1,0,0,-1,58.306,124.806)"/>
<path style="fill:none;stroke-width:0.6376;stroke-linecap:round;stroke-linejoin:round;stroke:rgb(100%,0%,0%);stroke-opacity:1;stroke-miterlimit:10;" d="M -1.553603 2.071091 C -1.424679 1.293474 -0.000591887 0.128292 0.389447 -0.000147233 C 0.000352428 -0.131419 -1.425485 -1.29674 -1.555228 -2.071537 " transform="matrix(0.96358,-0.26723,-0.26723,-0.96358,127.97626,36.16643)"/>
<path style="fill:none;stroke-width:0.79701;stroke-linecap:butt;stroke-linejoin:miter;stroke:rgb(100%,0%,0%);stroke-opacity:1;stroke-miterlimit:10;" d="M 56.694 113.388031 L 68.986969 118.884125 " transform="matrix(1,0,0,-1,58.306,124.806)"/>
<path style="fill:none;stroke-width:0.6376;stroke-linecap:round;stroke-linejoin:round;stroke:rgb(100%,0%,0%);stroke-opacity:1;stroke-miterlimit:10;" d="M -1.554605 2.07224 C -1.423129 1.294533 -0.00189923 0.128322 0.390077 0.0000987567 C -0.001302 -0.128698 -1.425131 -1.293505 -1.554241 -2.070214 " transform="matrix(0.91284,-0.40823,-0.40823,-0.91284,127.2924,5.92105)"/>
<g clip-path="url(#clip6)" clip-rule="nonzero">
<path style="fill:none;stroke-width:0.79701;stroke-linecap:butt;stroke-linejoin:miter;stroke:rgb(100%,0%,0%);stroke-opacity:1;stroke-miterlimit:10;" d="M 85.041656 -56.694 L 93.904938 -46.557281 " transform="matrix(1,0,0,-1,58.306,124.806)"/>
</g>
<path style="fill:none;stroke-width:0.6376;stroke-linecap:round;stroke-linejoin:round;stroke:rgb(100%,0%,0%);stroke-opacity:1;stroke-miterlimit:10;" d="M -1.552665 2.071979 C -1.424651 1.296551 0.000458182 0.129725 0.387746 0.00135491 C -0.000356332 -0.130453 -1.426545 -1.29457 -1.556137 -2.072124 " transform="matrix(0.65825,-0.75275,-0.75275,-0.65825,152.21063,171.36308)"/>
<path style="fill:none;stroke-width:0.79701;stroke-linecap:butt;stroke-linejoin:miter;stroke:rgb(100%,0%,0%);stroke-opacity:1;stroke-miterlimit:10;" d="M 85.041656 -28.346344 L 94.561188 -18.822906 " transform="matrix(1,0,0,-1,58.306,124.806)"/>
<path style="fill:none;stroke-width:0.6376;stroke-linecap:round;stroke-linejoin:round;stroke:rgb(100%,0%,0%);stroke-opacity:1;stroke-miterlimit:10;" d="M -1.554845 2.071103 C -1.425028 1.294929 0.00024929 0.129278 0.389716 -0.000547237 C 0.000247454 -0.130367 -1.425047 -1.295998 -1.554875 -2.07217 " transform="matrix(0.70709,-0.7071,-0.7071,-0.70709,152.86858,143.63065)"/>
<path style="fill:none;stroke-width:0.79701;stroke-linecap:butt;stroke-linejoin:miter;stroke:rgb(100%,0%,0%);stroke-opacity:1;stroke-miterlimit:10;" d="M 85.041656 0.0013125 L 95.838531 8.048187 " transform="matrix(1,0,0,-1,58.306,124.806)"/>
<path style="fill:none;stroke-width:0.6376;stroke-linecap:round;stroke-linejoin:round;stroke:rgb(100%,0%,0%);stroke-opacity:1;stroke-miterlimit:10;" d="M -1.55404 2.070481 C -1.424361 1.296609 -0.000454561 0.12817 0.38667 0.000421127 C 0.00110701 -0.131215 -1.425944 -1.294166 -1.552517 -2.071934 " transform="matrix(0.80176,-0.59756,-0.59756,-0.80176,154.14336,116.75874)"/>
<path style="fill:none;stroke-width:0.79701;stroke-linecap:butt;stroke-linejoin:miter;stroke:rgb(100%,0%,0%);stroke-opacity:1;stroke-miterlimit:10;" d="M 85.041656 28.345062 L 97.334625 33.845062 " transform="matrix(1,0,0,-1,58.306,124.806)"/>
<path style="fill:none;stroke-width:0.6376;stroke-linecap:round;stroke-linejoin:round;stroke:rgb(100%,0%,0%);stroke-opacity:1;stroke-miterlimit:10;" d="M -1.554098 2.073484 C -1.422614 1.295774 -0.00136789 0.129572 0.389016 -0.00221477 C -0.000768311 -0.12745 -1.426187 -1.29584 -1.555291 -2.072554 " transform="matrix(0.91284,-0.40822,-0.40822,-0.91284,155.64008,90.96147)"/>
<path style="fill:none;stroke-width:0.79701;stroke-linecap:butt;stroke-linejoin:miter;stroke:rgb(100%,0%,0%);stroke-opacity:1;stroke-miterlimit:10;" d="M 85.041656 56.692719 L 98.018219 60.294281 " transform="matrix(1,0,0,-1,58.306,124.806)"/>
<path style="fill:none;stroke-width:0.6376;stroke-linecap:round;stroke-linejoin:round;stroke:rgb(100%,0%,0%);stroke-opacity:1;stroke-miterlimit:10;" d="M -1.553014 2.070049 C -1.423046 1.296197 0.00104143 0.131014 0.390036 -0.00118891 C 0.00198575 -0.128697 -1.423852 -1.294017 -1.554639 -2.072578 " transform="matrix(0.96358,-0.26723,-0.26723,-0.96358,156.32307,64.51324)"/>
<path style="fill:none;stroke-width:0.79701;stroke-linecap:butt;stroke-linejoin:miter;stroke:rgb(100%,0%,0%);stroke-opacity:1;stroke-miterlimit:10;" d="M 85.041656 85.040375 L 97.815094 89.298187 " transform="matrix(1,0,0,-1,58.306,124.806)"/>
<path style="fill:none;stroke-width:0.6376;stroke-linecap:round;stroke-linejoin:round;stroke:rgb(100%,0%,0%);stroke-opacity:1;stroke-miterlimit:10;" d="M -1.553098 2.073658 C -1.425857 1.29417 0.00217889 0.130501 0.3876 0.00202874 C 0.00217971 -0.128917 -1.424614 -1.296301 -1.555556 -2.072084 " transform="matrix(0.94864,-0.31621,-0.31621,-0.94864,156.12123,35.5073)"/>
<path style="fill:none;stroke-width:0.79701;stroke-linecap:butt;stroke-linejoin:miter;stroke:rgb(100%,0%,0%);stroke-opacity:1;stroke-miterlimit:10;" d="M 85.041656 113.388031 L 97.334625 118.884125 " transform="matrix(1,0,0,-1,58.306,124.806)"/>
<path style="fill:none;stroke-width:0.6376;stroke-linecap:round;stroke-linejoin:round;stroke:rgb(100%,0%,0%);stroke-opacity:1;stroke-miterlimit:10;" d="M -1.554142 2.072358 C -1.426198 1.296253 -0.00135254 0.128513 0.390629 0.000307352 C -0.000743829 -0.128507 -1.424518 -1.293375 -1.555188 -2.073655 " transform="matrix(0.91286,-0.40819,-0.40819,-0.91286,155.63963,5.92145)"/>
<g clip-path="url(#clip7)" clip-rule="nonzero">
<path style="fill:none;stroke-width:0.79701;stroke-linecap:butt;stroke-linejoin:miter;stroke:rgb(100%,0%,0%);stroke-opacity:1;stroke-miterlimit:10;" d="M 113.385406 -56.694 L 122.908844 -47.170563 " transform="matrix(1,0,0,-1,58.306,124.806)"/>
</g>
<path style="fill:none;stroke-width:0.6376;stroke-linecap:round;stroke-linejoin:round;stroke:rgb(100%,0%,0%);stroke-opacity:1;stroke-miterlimit:10;" d="M -1.554234 2.069873 C -1.424412 1.293706 0.000863562 0.128073 0.387566 0.00101382 C -0.0018986 -0.128808 -1.424412 -1.297202 -1.554234 -2.07337 " transform="matrix(0.7071,-0.7071,-0.7071,-0.7071,181.21495,171.97789)"/>
<g clip-path="url(#clip8)" clip-rule="nonzero">
<path style="fill:none;stroke-width:0.79701;stroke-linecap:butt;stroke-linejoin:miter;stroke:rgb(100%,0%,0%);stroke-opacity:1;stroke-miterlimit:10;" d="M 113.385406 -28.346344 L 123.522125 -19.483063 " transform="matrix(1,0,0,-1,58.306,124.806)"/>
</g>
<path style="fill:none;stroke-width:0.6376;stroke-linecap:round;stroke-linejoin:round;stroke:rgb(100%,0%,0%);stroke-opacity:1;stroke-miterlimit:10;" d="M -1.552216 2.072821 C -1.422624 1.295267 0.000993398 0.12821 0.388726 0.00191417 C -0.00113274 -0.129396 -1.426242 -1.296222 -1.554256 -2.07165 " transform="matrix(0.75275,-0.65825,-0.65825,-0.75275,181.82974,144.28857)"/>
<g clip-path="url(#clip9)" clip-rule="nonzero">
<path style="fill:none;stroke-width:0.79701;stroke-linecap:butt;stroke-linejoin:miter;stroke:rgb(100%,0%,0%);stroke-opacity:1;stroke-miterlimit:10;" d="M 113.385406 0.0013125 L 124.3815 7.77475 " transform="matrix(1,0,0,-1,58.306,124.806)"/>
</g>
<path style="fill:none;stroke-width:0.6376;stroke-linecap:round;stroke-linejoin:round;stroke:rgb(100%,0%,0%);stroke-opacity:1;stroke-miterlimit:10;" d="M -1.555189 2.071344 C -1.424781 1.294976 -0.000101143 0.129713 0.386517 -0.00013227 C -0.000684861 -0.128227 -1.423304 -1.294382 -1.553091 -2.073356 " transform="matrix(0.81647,-0.57732,-0.57732,-0.81647,182.68825,117.03163)"/>
<g clip-path="url(#clip10)" clip-rule="nonzero">
<path style="fill:none;stroke-width:0.79701;stroke-linecap:butt;stroke-linejoin:miter;stroke:rgb(100%,0%,0%);stroke-opacity:1;stroke-miterlimit:10;" d="M 113.385406 28.345062 L 125.22525 34.766937 " transform="matrix(1,0,0,-1,58.306,124.806)"/>
</g>
<path style="fill:none;stroke-width:0.6376;stroke-linecap:round;stroke-linejoin:round;stroke:rgb(100%,0%,0%);stroke-opacity:1;stroke-miterlimit:10;" d="M -1.555981 2.071025 C -1.426251 1.294092 -0.000153038 0.129682 0.387076 -0.000314418 C 0.0017279 -0.129085 -1.424902 -1.293001 -1.553939 -2.071815 " transform="matrix(0.87901,-0.47667,-0.47667,-0.87901,183.5307,90.0397)"/>
<g clip-path="url(#clip11)" clip-rule="nonzero">
<path style="fill:none;stroke-width:0.79701;stroke-linecap:butt;stroke-linejoin:miter;stroke:rgb(100%,0%,0%);stroke-opacity:1;stroke-miterlimit:10;" d="M 113.385406 56.692719 L 125.678375 62.192719 " transform="matrix(1,0,0,-1,58.306,124.806)"/>
</g>
<path style="fill:none;stroke-width:0.6376;stroke-linecap:round;stroke-linejoin:round;stroke:rgb(100%,0%,0%);stroke-opacity:1;stroke-miterlimit:10;" d="M -1.553751 2.070004 C -1.425841 1.293892 0.000549644 0.129652 0.387365 -0.000542552 C -0.000447888 -0.130934 -1.424276 -1.295741 -1.553387 -2.072451 " transform="matrix(0.91284,-0.40823,-0.40823,-0.91284,183.98602,62.61467)"/>
<g clip-path="url(#clip12)" clip-rule="nonzero">
<path style="fill:none;stroke-width:0.79701;stroke-linecap:butt;stroke-linejoin:miter;stroke:rgb(100%,0%,0%);stroke-opacity:1;stroke-miterlimit:10;" d="M 113.385406 85.040375 L 125.682281 90.536469 " transform="matrix(1,0,0,-1,58.306,124.806)"/>
</g>
<path style="fill:none;stroke-width:0.6376;stroke-linecap:round;stroke-linejoin:round;stroke:rgb(100%,0%,0%);stroke-opacity:1;stroke-miterlimit:10;" d="M -1.553728 2.071235 C -1.425784 1.29513 0.000655952 0.130956 0.387476 0.00077889 C -0.000329935 -0.12963 -1.424104 -1.294498 -1.55318 -2.071212 " transform="matrix(0.91286,-0.40819,-0.40819,-0.91286,183.98645,34.26825)"/>
<g clip-path="url(#clip13)" clip-rule="nonzero">
<path style="fill:none;stroke-width:0.79701;stroke-linecap:butt;stroke-linejoin:miter;stroke:rgb(100%,0%,0%);stroke-opacity:1;stroke-miterlimit:10;" d="M 113.385406 113.388031 L 125.432281 119.407562 " transform="matrix(1,0,0,-1,58.306,124.806)"/>
</g>
<path style="fill:none;stroke-width:0.6376;stroke-linecap:round;stroke-linejoin:round;stroke:rgb(100%,0%,0%);stroke-opacity:1;stroke-miterlimit:10;" d="M -1.553525 2.071925 C -1.425978 1.296244 -0.000375759 0.129249 0.389216 -0.000024344 C 0.0013759 -0.129312 -1.424185 -1.29461 -1.555198 -2.072044 " transform="matrix(0.89438,-0.44717,-0.44717,-0.89438,183.73782,5.39668)"/>
</g>
</svg>
