<?xml version="1.0" encoding="UTF-8"?>
<svg xmlns="http://www.w3.org/2000/svg" xmlns:xlink="http://www.w3.org/1999/xlink" width="493.52pt" height="258.8pt" viewBox="0 0 493.52 258.8" version="1.1">
<defs>
<clipPath id="clip1">
  <path d="M 341 1 L 493.519531 1 L 493.519531 258 L 341 258 Z M 341 1 "/>
</clipPath>
<clipPath id="clip2">
  <path d="M 426 171 L 493.519531 171 L 493.519531 257 L 426 257 Z M 426 171 "/>
</clipPath>
<clipPath id="clip3">
  <path d="M 426 171 L 493.519531 171 L 493.519531 258 L 426 258 Z M 426 171 "/>
</clipPath>
<clipPath id="clip4">
  <path d="M 426 86 L 493.519531 86 L 493.519531 88 L 426 88 Z M 426 86 "/>
</clipPath>
</defs>
<g id="surface1">
<path style="fill:none;stroke-width:0.79701;stroke-linecap:butt;stroke-linejoin:miter;stroke:rgb(100%,0%,0%);stroke-opacity:1;stroke-miterlimit:10;" d="M 0.00028125 -0.00009375 L 0.00028125 255.121 L 255.121375 255.121 L 255.121375 -0.00009375 Z M 0.00028125 -0.00009375 " transform="matrix(1,0,0,-1,1.613,256.996)"/>
<path style="fill-rule:nonzero;fill:rgb(0%,0%,0%);fill-opacity:0.8;stroke-width:0.3985;stroke-linecap:butt;stroke-linejoin:miter;stroke:rgb(0%,0%,0%);stroke-opacity:1;stroke-miterlimit:10;" d="M 85.039344 -0.004 L 85.039344 255.124906 L -0.003625 255.124906 L -0.003625 -0.004 Z M 85.039344 -0.004 " transform="matrix(1,0,0,-1,1.613,256.996)"/>
<path style="fill:none;stroke-width:0.3985;stroke-linecap:butt;stroke-linejoin:miter;stroke:rgb(0%,0%,0%);stroke-opacity:1;stroke-miterlimit:10;" d="M 170.082313 -0.004 L 170.082313 255.124906 " transform="matrix(1,0,0,-1,1.613,256.996)"/>
<path style="fill:none;stroke-width:0.79701;stroke-linecap:butt;stroke-linejoin:miter;stroke:rgb(100%,0%,0%);stroke-opacity:1;stroke-miterlimit:10;" d="M 283.469031 127.562406 L 311.10575 127.562406 " transform="matrix(1,0,0,-1,1.613,256.996)"/>
<path style="fill:none;stroke-width:0.6376;stroke-linecap:round;stroke-linejoin:round;stroke:rgb(100%,0%,0%);stroke-opacity:1;stroke-miterlimit:10;" d="M -1.552571 2.072099 C -1.423665 1.294755 -0.00179 0.130692 0.388835 0.00178625 C -0.00179 -0.131026 -1.423665 -1.295089 -1.552571 -2.072433 " transform="matrix(1,0,0,-1,312.72054,129.43538)"/>
<g clip-path="url(#clip1)" clip-rule="nonzero">
<path style="fill:none;stroke-width:0.79701;stroke-linecap:butt;stroke-linejoin:miter;stroke:rgb(100%,0%,0%);stroke-opacity:1;stroke-miterlimit:10;" d="M 340.160438 -0.00009375 L 340.160438 255.121 L 595.281531 255.121 L 595.281531 -0.00009375 Z M 340.160438 -0.00009375 " transform="matrix(1,0,0,-1,1.613,256.996)"/>
</g>
<path style="fill-rule:nonzero;fill:rgb(0%,0%,0%);fill-opacity:0.8;stroke-width:0.3985;stroke-linecap:butt;stroke-linejoin:miter;stroke:rgb(0%,0%,0%);stroke-opacity:1;stroke-miterlimit:10;" d="M 425.1995 -0.004 L 425.1995 255.124906 L 340.156531 255.124906 L 340.156531 -0.004 Z M 425.1995 -0.004 " transform="matrix(1,0,0,-1,1.613,256.996)"/>
<g clip-path="url(#clip2)" clip-rule="nonzero">
<path style=" stroke:none;fill-rule:nonzero;fill:rgb(0%,0%,0%);fill-opacity:0.8;" d="M 426.8125 257 L 426.8125 171.957031 L 511.855469 171.957031 L 511.855469 257 Z M 426.8125 257 "/>
</g>
<g clip-path="url(#clip3)" clip-rule="nonzero">
<path style="fill:none;stroke-width:0.3985;stroke-linecap:butt;stroke-linejoin:miter;stroke:rgb(0%,0%,0%);stroke-opacity:1;stroke-miterlimit:10;" d="M 425.1995 -0.004 L 425.1995 85.038969 L 510.242469 85.038969 L 510.242469 -0.004 Z M 425.1995 -0.004 " transform="matrix(1,0,0,-1,1.613,256.996)"/>
</g>
<g clip-path="url(#clip4)" clip-rule="nonzero">
<path style="fill:none;stroke-width:0.3985;stroke-linecap:butt;stroke-linejoin:miter;stroke:rgb(0%,0%,0%);stroke-opacity:1;stroke-miterlimit:10;" d="M 425.1995 170.081937 L 510.242469 170.081937 " transform="matrix(1,0,0,-1,1.613,256.996)"/>
</g>
</g>
</svg>
