<?xml version="1.0" encoding="UTF-8"?>
<svg xmlns="http://www.w3.org/2000/svg" xmlns:xlink="http://www.w3.org/1999/xlink" width="229.52pt" height="115.76pt" viewBox="0 0 229.52 115.76" version="1.1">
<defs>
<clipPath id="clip1">
  <path d="M 0 0 L 229.519531 0 L 229.519531 90 L 0 90 Z M 0 0 "/>
</clipPath>
</defs>
<g id="surface1">
<path style="fill:none;stroke-width:0.3985;stroke-linecap:butt;stroke-linejoin:miter;stroke:rgb(0%,0%,0%);stroke-opacity:1;stroke-dasharray:0.3985,1.99255;stroke-miterlimit:10;" d="M -28.347188 -28.346938 L 198.42625 -28.346938 M -28.347188 -14.175063 L 198.42625 -14.175063 M -28.347188 0.00071875 L 198.42625 0.00071875 M -28.347188 14.172594 L 198.42625 14.172594 M -28.347188 28.348375 L 198.42625 28.348375 M -28.347188 42.52025 L 198.42625 42.52025 M -28.347188 56.692125 L 198.42625 56.692125 M -28.347188 70.867906 L 198.42625 70.867906 M -28.347188 85.039781 L 198.42625 85.039781 M -28.347188 -28.346938 L -28.347188 85.039781 M -14.175313 -28.346938 L -14.175313 85.039781 M 0.00046875 -28.346938 L 0.00046875 85.039781 M 14.172344 -28.346938 L 14.172344 85.039781 M 28.348125 -28.346938 L 28.348125 85.039781 M 42.52 -28.346938 L 42.52 85.039781 M 56.691875 -28.346938 L 56.691875 85.039781 M 70.867656 -28.346938 L 70.867656 85.039781 M 85.039531 -28.346938 L 85.039531 85.039781 M 99.215312 -28.346938 L 99.215312 85.039781 M 113.387187 -28.346938 L 113.387187 85.039781 M 127.559062 -28.346938 L 127.559062 85.039781 M 141.734844 -28.346938 L 141.734844 85.039781 M 155.906719 -28.346938 L 155.906719 85.039781 M 170.0825 -28.346938 L 170.0825 85.039781 M 184.254375 -28.346938 L 184.254375 85.039781 M 198.42625 -28.346938 L 198.42625 85.039781 " transform="matrix(1,0,0,-1,29.48,86.239)"/>
<g clip-path="url(#clip1)" clip-rule="nonzero">
<path style="fill:none;stroke-width:0.79701;stroke-linecap:butt;stroke-linejoin:miter;stroke:rgb(0%,0%,100%);stroke-opacity:1;stroke-miterlimit:10;" d="M -28.347188 48.485094 L -23.718281 46.922594 L -19.093281 45.496812 L -14.464375 44.285875 L -9.835469 43.356187 L -5.206563 42.758531 L -0.581563 42.524156 L 4.047344 42.664781 L 8.67625 43.172594 L 13.30125 44.024156 L 17.930156 45.168687 L 22.559062 46.547594 L 27.184062 48.08275 L 31.812969 49.684312 L 36.441875 51.262437 L 41.070781 52.711656 L 45.695781 53.934312 L 50.324687 54.836656 L 54.953594 55.340562 L 59.578594 55.364 L 64.2075 54.856187 L 68.836406 53.778062 L 73.461406 52.117906 L 78.090312 49.883531 L 82.719219 47.102281 L 87.348125 43.83275 L 91.973125 40.156969 L 96.602031 36.164781 L 101.230937 31.981187 L 105.855937 27.735094 L 110.484844 23.571031 L 115.11375 19.637437 L 119.73875 16.08275 L 124.367656 13.059312 L 128.996562 10.692125 L 133.625469 9.114 L 138.250469 8.4265 L 142.879375 8.70775 L 147.508281 10.004625 L 152.133281 12.348375 L 156.762187 15.719469 L 161.391094 20.08275 L 166.016094 25.352281 L 170.645 31.418687 L 175.273906 38.14525 L 179.898906 45.360094 L 184.527812 52.879625 L 189.156719 60.485094 L 193.785625 67.965562 L 198.410625 75.086656 " transform="matrix(1,0,0,-1,29.48,86.239)"/>
</g>
<path style="fill-rule:nonzero;fill:rgb(100%,0%,0%);fill-opacity:0.5;stroke-width:0.79701;stroke-linecap:butt;stroke-linejoin:miter;stroke:rgb(0%,0%,0%);stroke-opacity:1;stroke-miterlimit:10;" d="M 28.348125 0.00071875 L 28.348125 48.473375 L 56.691875 55.278062 L 56.691875 0.00071875 Z M 56.691875 0.00071875 L 56.691875 55.278062 L 85.039531 45.637437 L 85.039531 0.00071875 Z M 85.039531 0.00071875 L 85.039531 45.637437 L 113.387187 20.977281 L 113.387187 0.00071875 Z M 113.387187 0.00071875 L 113.387187 20.977281 L 141.734844 8.504625 L 141.734844 0.00071875 Z M 113.387187 0.00071875 " transform="matrix(1,0,0,-1,29.48,86.239)"/>
</g>
</svg>
