<?xml version="1.0" encoding="UTF-8"?>
<svg xmlns="http://www.w3.org/2000/svg" xmlns:xlink="http://www.w3.org/1999/xlink" width="75.44pt" height="87.44pt" viewBox="0 0 75.44 87.44" version="1.1">
<g id="surface1">
<path style="fill:none;stroke-width:0.79701;stroke-linecap:butt;stroke-linejoin:miter;stroke:rgb(0%,0%,100%);stroke-opacity:1;stroke-miterlimit:10;" d="M -28.34875 -28.347625 L -14.88 -28.347625 " transform="matrix(1,0,0,-1,31.88,43.918)"/>
<path style="fill:none;stroke-width:0.6376;stroke-linecap:round;stroke-linejoin:round;stroke:rgb(0%,0%,100%);stroke-opacity:1;stroke-miterlimit:10;" d="M -1.553938 2.073394 C -1.425031 1.29605 0.00075 0.128081 0.387469 -0.000825 C 0.00075 -0.129731 -1.425031 -1.293794 -1.553938 -2.071138 " transform="matrix(1,0,0,-1,16.99925,72.2648)"/>
<path style="fill:none;stroke-width:0.79701;stroke-linecap:butt;stroke-linejoin:miter;stroke:rgb(100%,0%,0%);stroke-opacity:1;stroke-miterlimit:10;" d="M -28.34875 -28.347625 L -28.34875 -41.812469 " transform="matrix(1,0,0,-1,31.88,43.918)"/>
<path style="fill:none;stroke-width:0.6376;stroke-linecap:round;stroke-linejoin:round;stroke:rgb(100%,0%,0%);stroke-opacity:1;stroke-miterlimit:10;" d="M -1.555059 2.072269 C -1.426152 1.294925 -0.00037125 0.130862 0.390254 -0.00195 C -0.00037125 -0.130856 -1.426152 -1.294919 -1.555059 -2.072263 " transform="matrix(0,1,1,0,3.5332,85.73084)"/>
<path style="fill:none;stroke-width:0.79701;stroke-linecap:butt;stroke-linejoin:miter;stroke:rgb(0%,0%,100%);stroke-opacity:1;stroke-miterlimit:10;" d="M -28.34875 0.00003125 L -14.88 0.00003125 " transform="matrix(1,0,0,-1,31.88,43.918)"/>
<path style="fill:none;stroke-width:0.6376;stroke-linecap:round;stroke-linejoin:round;stroke:rgb(0%,0%,100%);stroke-opacity:1;stroke-miterlimit:10;" d="M -1.553938 2.070344 C -1.425031 1.296906 0.00075 0.128937 0.387469 0.00003125 C 0.00075 -0.128875 -1.425031 -1.296844 -1.553938 -2.070281 " transform="matrix(1,0,0,-1,16.99925,43.918)"/>
<path style="fill:none;stroke-width:0.79701;stroke-linecap:butt;stroke-linejoin:miter;stroke:rgb(0%,0%,100%);stroke-opacity:1;stroke-miterlimit:10;" d="M -28.34875 28.347687 L -14.88 28.347687 " transform="matrix(1,0,0,-1,31.88,43.918)"/>
<path style="fill:none;stroke-width:0.6376;stroke-linecap:round;stroke-linejoin:round;stroke:rgb(0%,0%,100%);stroke-opacity:1;stroke-miterlimit:10;" d="M -1.553938 2.0712 C -1.425031 1.293856 0.00075 0.129794 0.387469 0.0008875 C 0.00075 -0.128019 -1.425031 -1.295988 -1.553938 -2.073331 " transform="matrix(1,0,0,-1,16.99925,15.5712)"/>
<path style="fill:none;stroke-width:0.79701;stroke-linecap:butt;stroke-linejoin:miter;stroke:rgb(100%,0%,0%);stroke-opacity:1;stroke-miterlimit:10;" d="M -28.34875 28.347687 L -28.34875 41.812531 " transform="matrix(1,0,0,-1,31.88,43.918)"/>
<path style="fill:none;stroke-width:0.6376;stroke-linecap:round;stroke-linejoin:round;stroke:rgb(100%,0%,0%);stroke-opacity:1;stroke-miterlimit:10;" d="M -1.554996 2.072263 C -1.42609 1.294919 -0.00030875 0.130856 0.390316 0.00195 C -0.00030875 -0.130862 -1.42609 -1.294925 -1.554996 -2.072269 " transform="matrix(0,-1,-1,0,3.5332,2.10516)"/>
<path style="fill:none;stroke-width:0.79701;stroke-linecap:butt;stroke-linejoin:miter;stroke:rgb(100%,0%,0%);stroke-opacity:1;stroke-miterlimit:10;" d="M -0.00109375 -28.347625 L -0.00109375 -41.812469 " transform="matrix(1,0,0,-1,31.88,43.918)"/>
<path style="fill:none;stroke-width:0.6376;stroke-linecap:round;stroke-linejoin:round;stroke:rgb(100%,0%,0%);stroke-opacity:1;stroke-miterlimit:10;" d="M -1.555059 2.073125 C -1.426152 1.295781 -0.00037125 0.127812 0.390254 -0.00109375 C -0.00037125 -0.13 -1.426152 -1.294063 -1.555059 -2.071406 " transform="matrix(0,1,1,0,31.88,85.73084)"/>
<path style="fill:none;stroke-width:0.79701;stroke-linecap:butt;stroke-linejoin:miter;stroke:rgb(100%,0%,0%);stroke-opacity:1;stroke-miterlimit:10;" d="M -0.00109375 28.347687 L -0.00109375 41.812531 " transform="matrix(1,0,0,-1,31.88,43.918)"/>
<path style="fill:none;stroke-width:0.6376;stroke-linecap:round;stroke-linejoin:round;stroke:rgb(100%,0%,0%);stroke-opacity:1;stroke-miterlimit:10;" d="M -1.554996 2.071406 C -1.42609 1.294063 -0.00030875 0.13 0.390316 0.00109375 C -0.00030875 -0.127812 -1.42609 -1.295781 -1.554996 -2.073125 " transform="matrix(0,-1,-1,0,31.88,2.10516)"/>
<path style="fill:none;stroke-width:0.79701;stroke-linecap:butt;stroke-linejoin:miter;stroke:rgb(0%,0%,100%);stroke-opacity:1;stroke-miterlimit:10;" d="M 28.346562 -28.347625 L 41.811406 -28.347625 " transform="matrix(1,0,0,-1,31.88,43.918)"/>
<path style="fill:none;stroke-width:0.6376;stroke-linecap:round;stroke-linejoin:round;stroke:rgb(0%,0%,100%);stroke-opacity:1;stroke-miterlimit:10;" d="M -1.552215 2.073394 C -1.423309 1.29605 -0.00143375 0.128081 0.389191 -0.000825 C -0.00143375 -0.129731 -1.423309 -1.293794 -1.552215 -2.071138 " transform="matrix(1,0,0,-1,73.69284,72.2648)"/>
<path style="fill:none;stroke-width:0.79701;stroke-linecap:butt;stroke-linejoin:miter;stroke:rgb(100%,0%,0%);stroke-opacity:1;stroke-miterlimit:10;" d="M 28.346562 -28.347625 L 28.346562 -41.812469 " transform="matrix(1,0,0,-1,31.88,43.918)"/>
<path style="fill:none;stroke-width:0.6376;stroke-linecap:round;stroke-linejoin:round;stroke:rgb(100%,0%,0%);stroke-opacity:1;stroke-miterlimit:10;" d="M -1.555059 2.073981 C -1.426152 1.296637 -0.00037125 0.128669 0.390254 -0.0002375 C -0.00037125 -0.129144 -1.426152 -1.293206 -1.555059 -2.07055 " transform="matrix(0,1,1,0,60.2268,85.73084)"/>
<path style="fill:none;stroke-width:0.79701;stroke-linecap:butt;stroke-linejoin:miter;stroke:rgb(0%,0%,100%);stroke-opacity:1;stroke-miterlimit:10;" d="M 28.346562 0.00003125 L 41.811406 0.00003125 " transform="matrix(1,0,0,-1,31.88,43.918)"/>
<path style="fill:none;stroke-width:0.6376;stroke-linecap:round;stroke-linejoin:round;stroke:rgb(0%,0%,100%);stroke-opacity:1;stroke-miterlimit:10;" d="M -1.552215 2.070344 C -1.423309 1.296906 -0.00143375 0.128937 0.389191 0.00003125 C -0.00143375 -0.128875 -1.423309 -1.296844 -1.552215 -2.070281 " transform="matrix(1,0,0,-1,73.69284,43.918)"/>
<path style="fill:none;stroke-width:0.79701;stroke-linecap:butt;stroke-linejoin:miter;stroke:rgb(0%,0%,100%);stroke-opacity:1;stroke-miterlimit:10;" d="M 28.346562 28.347687 L 41.811406 28.347687 " transform="matrix(1,0,0,-1,31.88,43.918)"/>
<path style="fill:none;stroke-width:0.6376;stroke-linecap:round;stroke-linejoin:round;stroke:rgb(0%,0%,100%);stroke-opacity:1;stroke-miterlimit:10;" d="M -1.552215 2.0712 C -1.423309 1.293856 -0.00143375 0.129794 0.389191 0.0008875 C -0.00143375 -0.128019 -1.423309 -1.295988 -1.552215 -2.073331 " transform="matrix(1,0,0,-1,73.69284,15.5712)"/>
<path style="fill:none;stroke-width:0.79701;stroke-linecap:butt;stroke-linejoin:miter;stroke:rgb(100%,0%,0%);stroke-opacity:1;stroke-miterlimit:10;" d="M 28.346562 28.347687 L 28.346562 41.812531 " transform="matrix(1,0,0,-1,31.88,43.918)"/>
<path style="fill:none;stroke-width:0.6376;stroke-linecap:round;stroke-linejoin:round;stroke:rgb(100%,0%,0%);stroke-opacity:1;stroke-miterlimit:10;" d="M -1.554996 2.07055 C -1.42609 1.293206 -0.00030875 0.129144 0.390316 0.0002375 C -0.00030875 -0.128669 -1.42609 -1.296637 -1.554996 -2.073981 " transform="matrix(0,-1,-1,0,60.2268,2.10516)"/>
</g>
</svg>
