<?xml version="1.0" encoding="UTF-8"?>
<svg xmlns="http://www.w3.org/2000/svg" xmlns:xlink="http://www.w3.org/1999/xlink" width="173.36pt" height="127.76pt" viewBox="0 0 173.36 127.76" version="1.1">
<defs>
<clipPath id="clip1">
  <path d="M 52 1 L 173.359375 1 L 173.359375 98 L 52 98 Z M 52 1 "/>
</clipPath>
<clipPath id="clip2">
  <path d="M 109 0 L 173.359375 0 L 173.359375 19 L 109 19 Z M 109 0 "/>
</clipPath>
<clipPath id="clip3">
  <path d="M 0 0 L 173.359375 0 L 173.359375 127.761719 L 0 127.761719 Z M 0 0 "/>
</clipPath>
<clipPath id="clip4">
  <path d="M 0 108 L 70 108 L 70 127.761719 L 0 127.761719 Z M 0 108 "/>
</clipPath>
<clipPath id="clip5">
  <path d="M 0 103 L 70 103 L 70 127.761719 L 0 127.761719 Z M 0 103 "/>
</clipPath>
</defs>
<g id="surface1">
<path style="fill:none;stroke-width:0.3985;stroke-linecap:butt;stroke-linejoin:miter;stroke:rgb(50%,50%,50%);stroke-opacity:1;stroke-miterlimit:10;" d="M -0.00065625 -0.0015 L 28.347 -0.0015 M -0.00065625 -0.0015 L -0.00065625 28.346156 M -0.00065625 -0.0015 L -5.668625 -5.669469 " transform="matrix(1,0,0,-1,86.653,63.561)"/>
<g clip-path="url(#clip1)" clip-rule="nonzero">
<path style="fill:none;stroke-width:0.3985;stroke-linecap:butt;stroke-linejoin:miter;stroke:rgb(0%,0%,0%);stroke-opacity:1;stroke-miterlimit:10;" d="M -0.00065625 28.346156 L -0.00065625 56.693812 M 28.347 -0.0015 L 85.042313 -0.0015 M -5.668625 -5.669469 L -28.348312 -28.34525 " transform="matrix(1,0,0,-1,86.653,63.561)"/>
</g>
<path style=" stroke:none;fill-rule:nonzero;fill:rgb(50%,50%,50%);fill-opacity:0.3;" d="M 171.695312 6.867188 C 171.695312 3.734375 159.003906 1.199219 143.347656 1.199219 C 127.691406 1.199219 115 3.734375 115 6.867188 C 115 10 127.691406 12.535156 143.347656 12.535156 C 159.003906 12.535156 171.695312 10 171.695312 6.867188 Z M 171.695312 6.867188 "/>
<g clip-path="url(#clip2)" clip-rule="nonzero">
<path style="fill:none;stroke-width:0.3985;stroke-linecap:butt;stroke-linejoin:miter;stroke:rgb(0%,0%,0%);stroke-opacity:1;stroke-miterlimit:10;" d="M 85.042313 56.693812 C 85.042313 59.826625 72.350906 62.361781 56.694656 62.361781 C 41.038406 62.361781 28.347 59.826625 28.347 56.693812 C 28.347 53.561 41.038406 51.025844 56.694656 51.025844 C 72.350906 51.025844 85.042313 53.561 85.042313 56.693812 Z M 85.042313 56.693812 " transform="matrix(1,0,0,-1,86.653,63.561)"/>
</g>
<g clip-path="url(#clip3)" clip-rule="nonzero">
<path style="fill:none;stroke-width:0.79701;stroke-linecap:butt;stroke-linejoin:miter;stroke:rgb(0%,0%,100%);stroke-opacity:1;stroke-miterlimit:10;" d="M -85.039719 -56.692906 L 28.347 56.693812 M -28.348312 -56.692906 L 85.042313 56.693812 " transform="matrix(1,0,0,-1,86.653,63.561)"/>
</g>
<path style="fill:none;stroke-width:0.79701;stroke-linecap:butt;stroke-linejoin:miter;stroke:rgb(0%,0%,100%);stroke-opacity:1;stroke-miterlimit:10;" d="M -28.348312 -0.0015 C -28.348312 -3.130406 -15.656906 -5.669469 -0.00065625 -5.669469 C 15.655594 -5.669469 28.347 -3.130406 28.347 -0.0015 " transform="matrix(1,0,0,-1,86.653,63.561)"/>
<path style="fill:none;stroke-width:0.79701;stroke-linecap:butt;stroke-linejoin:miter;stroke:rgb(0%,0%,0%);stroke-opacity:1;stroke-dasharray:0.79701,1.99255;stroke-miterlimit:10;" d="M -28.348312 -0.0015 C -28.348312 3.131312 -15.656906 5.670375 -0.00065625 5.670375 C 15.655594 5.670375 28.347 3.131312 28.347 -0.0015 " transform="matrix(1,0,0,-1,86.653,63.561)"/>
<g clip-path="url(#clip4)" clip-rule="nonzero">
<path style="fill:none;stroke-width:0.79701;stroke-linecap:butt;stroke-linejoin:miter;stroke:rgb(0%,0%,100%);stroke-opacity:1;stroke-miterlimit:10;" d="M -85.039719 -56.692906 C -85.039719 -59.825719 -72.348312 -62.364781 -56.692062 -62.364781 C -41.039719 -62.364781 -28.348312 -59.825719 -28.348312 -56.692906 " transform="matrix(1,0,0,-1,86.653,63.561)"/>
</g>
<g clip-path="url(#clip5)" clip-rule="nonzero">
<path style="fill:none;stroke-width:0.79701;stroke-linecap:butt;stroke-linejoin:miter;stroke:rgb(0%,0%,0%);stroke-opacity:1;stroke-dasharray:0.79701,1.99255;stroke-miterlimit:10;" d="M -85.039719 -56.692906 C -85.039719 -53.564 -72.348312 -51.024938 -56.692062 -51.024938 C -41.039719 -51.024938 -28.348312 -53.564 -28.348312 -56.692906 " transform="matrix(1,0,0,-1,86.653,63.561)"/>
</g>
</g>
</svg>
