<?xml version="1.0" encoding="UTF-8"?>
<svg xmlns="http://www.w3.org/2000/svg" xmlns:xlink="http://www.w3.org/1999/xlink" width="229.04pt" height="104.72pt" viewBox="0 0 229.04 104.72" version="1.1">
<defs>
<clipPath id="clip1">
  <path d="M 0 0 L 180 0 L 180 104.71875 L 0 104.71875 Z M 0 0 "/>
</clipPath>
<clipPath id="clip2">
  <path d="M 162 0 L 229.039062 0 L 229.039062 63 L 162 63 Z M 162 0 "/>
</clipPath>
</defs>
<g id="surface1">
<path style=" stroke:none;fill-rule:nonzero;fill:rgb(0%,0%,0%);fill-opacity:1;" d="M 117.351562 58.089844 C 117.351562 56.527344 116.082031 55.257812 114.519531 55.257812 C 112.953125 55.257812 111.683594 56.527344 111.683594 58.089844 C 111.683594 59.65625 112.953125 60.925781 114.519531 60.925781 C 116.082031 60.925781 117.351562 59.65625 117.351562 58.089844 Z M 117.351562 58.089844 "/>
<path style=" stroke:none;fill-rule:nonzero;fill:rgb(0%,0%,0%);fill-opacity:1;" d="M 60.660156 100.609375 C 60.660156 99.046875 59.390625 97.777344 57.824219 97.777344 C 56.257812 97.777344 54.988281 99.046875 54.988281 100.609375 C 54.988281 102.175781 56.257812 103.445312 57.824219 103.445312 C 59.390625 103.445312 60.660156 102.175781 60.660156 100.609375 Z M 60.660156 100.609375 "/>
<g clip-path="url(#clip1)" clip-rule="nonzero">
<path style="fill:none;stroke-width:0.79701;stroke-linecap:butt;stroke-linejoin:miter;stroke:rgb(0%,0%,0%);stroke-opacity:1;stroke-miterlimit:10;" d="M -170.079187 -7.084781 L -141.735437 -14.174625 L -113.387781 -42.518375 L -56.692469 -7.084781 L -56.692469 7.087094 L -7.087 28.344906 L -2.833094 56.692562 " transform="matrix(1,0,0,-1,171.212,58.091)"/>
</g>
<g clip-path="url(#clip2)" clip-rule="nonzero">
<path style="fill:none;stroke-width:0.79701;stroke-linecap:butt;stroke-linejoin:miter;stroke:rgb(0%,0%,0%);stroke-opacity:1;stroke-miterlimit:10;" d="M 2.834875 56.692562 L 5.670813 14.173031 L 56.69425 7.087094 " transform="matrix(1,0,0,-1,171.212,58.091)"/>
</g>
</g>
</svg>
