<?xml version="1.0" encoding="UTF-8"?>
<svg xmlns="http://www.w3.org/2000/svg" xmlns:xlink="http://www.w3.org/1999/xlink" width="74pt" height="66.8pt" viewBox="0 0 74 66.8" version="1.1">
<defs>
<clipPath id="clip1">
  <path d="M 0 32 L 56 32 L 56 66.800781 L 0 66.800781 Z M 0 32 "/>
</clipPath>
<clipPath id="clip2">
  <path d="M 32 0 L 74 0 L 74 27 L 32 27 Z M 32 0 "/>
</clipPath>
</defs>
<g id="surface1">
<g clip-path="url(#clip1)" clip-rule="nonzero">
<path style="fill:none;stroke-width:0.79701;stroke-linecap:butt;stroke-linejoin:miter;stroke:rgb(0%,0%,0%);stroke-opacity:1;stroke-miterlimit:10;" d="M -14.173719 -7.087781 L -12.400281 -6.201063 L -10.63075 -5.314344 L -8.857312 -4.427625 L -7.087781 -3.544813 L -5.314344 -2.658094 L -3.544812 -1.771375 L -1.771375 -0.884656 L -0.00184375 -0.00184375 L 3.545031 1.771594 L 5.314563 2.658312 L 7.088 3.545031 L 8.857531 4.427844 L 10.630969 5.314562 L 12.4005 6.201281 L 14.173938 7.088 L 15.943469 7.970812 L 19.490344 9.74425 L 21.259875 10.630969 L 23.033313 11.517687 L 24.802844 12.4005 L 26.576281 13.287219 L 28.345813 14.173937 " transform="matrix(1,0,0,-1,15.787,58.088)"/>
</g>
<g clip-path="url(#clip2)" clip-rule="nonzero">
<path style="fill:none;stroke-width:0.79701;stroke-linecap:butt;stroke-linejoin:miter;stroke:rgb(0%,0%,0%);stroke-opacity:1;stroke-miterlimit:10;" d="M 28.345813 42.521594 L 29.529406 43.111437 L 33.068469 44.880969 L 34.252063 45.470812 L 35.43175 46.064562 L 36.611438 46.654406 L 37.795031 47.24425 L 41.334094 49.013781 L 42.517688 49.603625 L 43.697375 50.197375 L 44.877063 50.787219 L 46.060656 51.377062 L 48.420031 52.55675 L 49.603625 53.146594 L 50.783313 53.736437 L 51.963 54.330187 L 53.142688 54.920031 L 54.326281 55.509875 L 56.685656 56.689562 " transform="matrix(1,0,0,-1,15.787,58.088)"/>
</g>
<path style="fill-rule:nonzero;fill:rgb(100%,100%,100%);fill-opacity:1;stroke-width:0.3985;stroke-linecap:butt;stroke-linejoin:miter;stroke:rgb(0%,0%,0%);stroke-opacity:1;stroke-miterlimit:10;" d="M 31.18175 14.173937 C 31.18175 15.740344 29.912219 17.009875 28.345813 17.009875 C 26.779406 17.009875 25.513781 15.740344 25.513781 14.173937 C 25.513781 12.607531 26.779406 11.338 28.345813 11.338 C 29.912219 11.338 31.18175 12.607531 31.18175 14.173937 Z M 31.18175 14.173937 " transform="matrix(1,0,0,-1,15.787,58.088)"/>
<path style=" stroke:none;fill-rule:nonzero;fill:rgb(0%,0%,0%);fill-opacity:1;" d="M 46.96875 15.566406 C 46.96875 14.003906 45.699219 12.734375 44.132812 12.734375 C 42.566406 12.734375 41.300781 14.003906 41.300781 15.566406 C 41.300781 17.132812 42.566406 18.402344 44.132812 18.402344 C 45.699219 18.402344 46.96875 17.132812 46.96875 15.566406 Z M 46.96875 15.566406 "/>
</g>
</svg>
