<?xml version="1.0" encoding="UTF-8"?>
<svg xmlns="http://www.w3.org/2000/svg" xmlns:xlink="http://www.w3.org/1999/xlink" width="74pt" height="76.4pt" viewBox="0 0 74 76.4" version="1.1">
<defs>
<clipPath id="clip1">
  <path d="M 0 21 L 56 21 L 56 76.398438 L 0 76.398438 Z M 0 21 "/>
</clipPath>
<clipPath id="clip2">
  <path d="M 32 0 L 74 0 L 74 44 L 32 44 Z M 32 0 "/>
</clipPath>
</defs>
<g id="surface1">
<g clip-path="url(#clip1)" clip-rule="nonzero">
<path style="fill:none;stroke-width:0.79701;stroke-linecap:butt;stroke-linejoin:miter;stroke:rgb(0%,0%,0%);stroke-opacity:1;stroke-miterlimit:10;" d="M -14.173719 -14.171438 L -12.400281 -12.401906 L -10.63075 -10.628469 L -8.857312 -8.858938 L -7.087781 -7.0855 L -5.314344 -5.315969 L -3.544812 -3.542531 L -1.771375 -1.773 L -0.00184375 0.0004375 L 1.771594 1.769969 L 3.545031 3.543406 L 5.314563 5.316844 L 7.088 7.086375 L 8.857531 8.859812 L 10.630969 10.629344 L 12.4005 12.402781 L 14.173938 14.172312 L 15.943469 15.94575 L 17.716906 17.715281 L 23.033313 23.031687 L 24.802844 24.805125 L 26.576281 26.574656 L 28.345813 28.348094 " transform="matrix(1,0,0,-1,15.787,60.727)"/>
</g>
<g clip-path="url(#clip2)" clip-rule="nonzero">
<path style="fill:none;stroke-width:0.79701;stroke-linecap:butt;stroke-linejoin:miter;stroke:rgb(0%,0%,0%);stroke-opacity:1;stroke-miterlimit:10;" d="M 28.345813 56.691844 L 29.529406 55.512156 L 31.888781 53.152781 L 33.068469 51.969187 L 34.252063 50.7895 L 35.43175 49.609812 L 36.611438 48.426219 L 37.795031 47.246531 L 40.154406 44.887156 L 41.334094 43.703562 L 42.517688 42.523875 L 43.697375 41.344187 L 44.877063 40.160594 L 46.060656 38.980906 L 47.240344 37.801219 L 48.420031 36.617625 L 49.603625 35.437937 L 51.963 33.078562 L 53.142688 31.894969 L 54.326281 30.715281 L 55.505969 29.535594 L 56.685656 28.352 " transform="matrix(1,0,0,-1,15.787,60.727)"/>
</g>
<path style="fill-rule:nonzero;fill:rgb(100%,100%,100%);fill-opacity:1;stroke-width:0.3985;stroke-linecap:butt;stroke-linejoin:miter;stroke:rgb(0%,0%,0%);stroke-opacity:1;stroke-miterlimit:10;" d="M 31.18175 56.691844 C 31.18175 58.25825 29.912219 59.527781 28.345813 59.527781 C 26.779406 59.527781 25.513781 58.25825 25.513781 56.691844 C 25.513781 55.129344 26.779406 53.859812 28.345813 53.859812 C 29.912219 53.859812 31.18175 55.129344 31.18175 56.691844 Z M 31.18175 56.691844 " transform="matrix(1,0,0,-1,15.787,60.727)"/>
<path style=" stroke:none;fill-rule:nonzero;fill:rgb(0%,0%,0%);fill-opacity:1;" d="M 46.96875 32.378906 C 46.96875 30.816406 45.699219 29.546875 44.132812 29.546875 C 42.566406 29.546875 41.300781 30.816406 41.300781 32.378906 C 41.300781 33.945312 42.566406 35.214844 44.132812 35.214844 C 45.699219 35.214844 46.96875 33.945312 46.96875 32.378906 Z M 46.96875 32.378906 "/>
</g>
</svg>
