<?xml version="1.0" encoding="UTF-8"?>
<svg xmlns="http://www.w3.org/2000/svg" xmlns:xlink="http://www.w3.org/1999/xlink" width="379.76pt" height="172.88pt" viewBox="0 0 379.76 172.88" version="1.1">
<defs>
<clipPath id="clip1">
  <path d="M 0 0 L 379.761719 0 L 379.761719 172.878906 L 0 172.878906 Z M 0 0 "/>
</clipPath>
</defs>
<g id="surface1">
<g clip-path="url(#clip1)" clip-rule="nonzero">
<path style="fill:none;stroke-width:0.79701;stroke-linecap:butt;stroke-linejoin:miter;stroke:rgb(0%,0%,0%);stroke-opacity:1;stroke-miterlimit:10;" d="M -0.00121875 28.346219 C -0.00121875 28.346219 0.233156 29.189969 0.506594 29.229031 C 0.776125 29.268094 1.451906 28.986844 1.967531 28.631375 C 2.483156 28.279812 3.522219 27.381375 4.225344 26.674344 C 4.928469 25.967312 6.225344 24.541531 7.033937 23.549344 C 7.846437 22.55325 9.244875 20.713406 10.069094 19.510281 C 10.893312 18.307156 12.233156 16.189969 12.963625 14.86575 C 13.698 13.541531 14.803469 11.307156 15.342531 9.955594 C 15.877687 8.604031 16.588625 6.408719 16.838625 5.127469 C 17.088625 3.846219 17.256594 1.846219 17.143312 0.732937 C 17.030031 -0.38425 16.549562 -2.0405 16.026125 -2.907688 C 15.498781 -3.770969 14.311281 -4.958469 13.35425 -5.505344 C 12.397219 -6.048313 10.498781 -6.661594 9.123781 -6.833469 C 7.752687 -7.005344 5.194094 -6.974094 3.459719 -6.735813 C 1.721437 -6.497531 -1.380125 -5.778781 -3.39575 -5.122531 C -5.415281 -4.466281 -8.89575 -3.063938 -11.075438 -1.997531 C -13.259031 -0.931125 -16.907469 1.119656 -19.1145 2.561062 C -21.317625 4.002469 -24.891844 6.631375 -26.969969 8.397 C -29.044188 10.162625 -32.286375 13.268094 -34.075438 15.287625 C -35.8645 17.307156 -38.512938 20.760281 -39.8645 22.947781 C -41.212156 25.135281 -43.028563 28.791531 -43.805906 31.05325 C -44.579344 33.318875 -45.360594 37.018094 -45.45825 39.264187 C -45.555906 41.506375 -45.157469 45.092312 -44.505125 47.221219 C -43.852781 49.346219 -42.192625 52.666531 -40.766844 54.5845 C -39.344969 56.502469 -36.415281 59.416531 -34.243406 61.05325 C -32.071531 62.686062 -27.95825 65.076687 -25.110594 66.361844 C -22.266844 67.647 -17.126219 69.424344 -13.731688 70.318875 C -10.33325 71.2095 -4.411375 72.318875 -0.630125 72.795437 C 3.147219 73.272 9.549562 73.689969 13.5105 73.748562 C 17.471437 73.807156 23.998781 73.557156 27.912844 73.217312 C 31.826906 72.881375 38.096437 72.010281 41.725344 71.318875 C 45.358156 70.627469 50.967531 69.221219 54.080812 68.24075 C 57.190187 67.260281 61.768312 65.436062 64.139406 64.24075 C 66.5105 63.041531 69.721437 60.936062 71.16675 59.61575 C 72.612062 58.291531 74.178469 56.061062 74.557375 54.7095 C 74.936281 53.357937 74.670656 51.154812 73.897219 49.869656 C 73.123781 48.5845 70.936281 46.572781 68.990969 45.447781 C 67.045656 44.322781 62.951906 42.647 59.881594 41.768094 C 56.815187 40.889187 50.951906 39.674344 46.877687 39.11575 C 42.803469 38.55325 35.41675 37.912625 30.518312 37.725125 C 25.615969 37.533719 17.053469 37.537625 11.569094 37.756375 C 6.088625 37.975125 -3.216063 38.658719 -8.997313 39.295437 C -14.774656 39.936062 -24.325438 41.30325 -30.087156 42.350125 C -35.848875 43.400906 -45.106688 45.424344 -50.516844 46.850125 C -55.927 48.275906 -64.348875 50.881375 -69.087156 52.631375 C -73.821531 54.385281 -80.891844 57.467312 -84.653563 59.479031 C -88.411375 61.486844 -93.657469 64.92825 -96.184813 67.111844 C -98.712156 69.291531 -101.762938 72.943875 -102.860594 75.205594 C -103.95825 77.467312 -104.548094 81.170437 -104.091063 83.416531 C -103.634031 85.662625 -101.618406 89.256375 -99.567625 91.393094 C -97.516844 93.525906 -92.903563 96.861844 -89.313719 98.791531 C -85.719969 100.721219 -78.669188 103.658719 -73.673094 105.307156 C -68.677 106.955594 -59.485594 109.369656 -53.313719 110.674344 C -47.141844 111.975125 -36.2395 113.783719 -29.192625 114.693875 C -22.149656 115.604031 -10.087156 116.744656 -2.528563 117.24075 C 5.026125 117.736844 17.612062 118.189969 25.280031 118.268094 C 32.944094 118.342312 45.373781 118.119656 52.721437 117.799344 C 60.069094 117.482937 71.631594 116.635281 78.240969 115.9595 C 84.850344 115.283719 94.877687 113.900906 100.350344 112.932156 C 105.823 111.963406 113.694094 110.154812 117.686281 108.967312 C 121.678469 107.775906 126.881594 105.682156 129.119875 104.36575 C 131.358156 103.045437 133.518312 100.814969 133.823 99.463406 C 134.123781 98.107937 133.0105 95.900906 131.29175 94.611844 C 129.576906 93.322781 125.151125 91.295437 121.444094 90.162625 C 117.740969 89.029812 110.139406 87.3345 104.588625 86.443875 C 99.037844 85.549344 88.588625 84.314969 81.440187 83.736844 C 74.295656 83.162625 61.47925 82.49075 53.080812 82.283719 C 44.686281 82.076687 30.151125 82.049344 20.936281 82.248562 C 11.721437 82.447781 -3.782469 83.100125 -13.33325 83.721219 C -22.884031 84.338406 -38.528563 85.67825 -47.89575 86.705594 C -57.262938 87.736844 -72.184813 89.729031 -80.844969 91.139187 C -89.505125 92.549344 -102.860594 95.127469 -110.313719 96.86575 C -117.766844 98.604031 -128.762938 101.670437 -134.563719 103.670437 C -140.360594 105.670437 -148.337156 109.096219 -152.118406 111.272 C -155.899656 113.447781 -160.317625 117.092312 -161.813719 119.354031 C -163.309813 121.61575 -163.83325 125.318875 -162.899656 127.568875 C -161.969969 129.814969 -158.466063 133.420437 -155.094969 135.561062 C -151.719969 137.701687 -144.282469 141.05325 -138.587156 142.994656 C -132.891844 144.936062 -121.809813 147.893094 -114.044188 149.557156 C -106.282469 151.221219 -92.08325 153.662625 -82.622313 154.982937 C -73.165281 156.30325 -56.555906 158.139187 -45.880125 159.068875 C -35.204344 159.998562 -17.024656 161.170437 -5.692625 161.686062 C 5.643312 162.201687 24.41675 162.682156 35.803469 162.779812 C 47.190187 162.877469 65.561281 162.682156 76.377687 162.381375 C 87.194094 162.080594 104.127687 161.260281 113.764406 160.600125 C 123.401125 159.939969 137.928469 158.580594 145.826906 157.619656 C 153.725344 156.662625 165.002687 154.873562 170.686281 153.689969 C 176.373781 152.510281 183.705812 150.424344 186.819094 149.111844 C 189.928469 147.795437 192.803469 145.568875 193.108156 144.217312 C 193.412844 142.861844 191.588625 140.650906 189.006594 139.357937 C 186.424562 138.061062 179.893312 136.022 174.498781 134.881375 C 169.10425 133.736844 158.100344 132.025906 150.127687 131.119656 C 142.155031 130.217312 127.201906 128.955594 117.030031 128.36575 C 106.858156 127.772 88.686281 127.072781 76.826906 126.850125 C 64.967531 126.623562 44.487062 126.564969 31.549562 126.744656 C 18.615969 126.924344 -3.079344 127.545437 -16.407469 128.147 C -29.731688 128.744656 -51.501219 130.05325 -64.501219 131.064969 C -77.497313 132.076687 -98.141844 134.037625 -110.091063 135.432156 C -122.040281 136.826687 -140.399656 139.381375 -150.626219 141.107937 C -160.848875 142.830594 -183.798094 147.86575 -183.798094 147.86575 " transform="matrix(1,0,0,-1,184.927,164.272)"/>
</g>
<path style="fill:none;stroke-width:1.19553;stroke-linecap:butt;stroke-linejoin:miter;stroke:rgb(100%,0%,0%);stroke-opacity:1;stroke-miterlimit:10;" d="M -0.00121875 28.346219 C -0.00121875 28.346219 0.0026875 28.424344 0.0026875 28.455594 C 0.0026875 28.482937 0.00659375 28.529812 0.0105 28.557156 C 0.0105 28.5845 0.0183125 28.623562 0.0222187 28.650906 C 0.026125 28.674344 0.0339375 28.713406 0.0378437 28.736844 C 0.04175 28.760281 0.0534687 28.795437 0.057375 28.818875 C 0.0651875 28.838406 0.0769062 28.869656 0.0847187 28.889187 C 0.0925312 28.908719 0.108156 28.939969 0.115969 28.955594 C 0.123781 28.975125 0.139406 29.002469 0.151125 29.018094 C 0.162844 29.033719 0.178469 29.05325 0.190187 29.068875 C 0.201906 29.080594 0.221437 29.100125 0.237062 29.111844 C 0.248781 29.123562 0.272219 29.143094 0.283937 29.150906 C 0.299562 29.162625 0.323 29.174344 0.338625 29.182156 C 0.35425 29.189969 0.381594 29.201687 0.397219 29.205594 C 0.41675 29.2095 0.444094 29.217312 0.459719 29.221219 C 0.47925 29.225125 0.5105 29.229031 0.530031 29.232937 C 0.549562 29.232937 0.580812 29.236844 0.600344 29.236844 C 0.623781 29.236844 0.655031 29.232937 0.678469 29.232937 C 0.698 29.229031 0.737062 29.225125 0.7605 29.221219 C 0.780031 29.217312 0.819094 29.2095 0.842531 29.201687 C 0.869875 29.197781 0.908937 29.186062 0.932375 29.182156 C 0.959719 29.174344 1.002687 29.158719 1.026125 29.147 C 1.053469 29.139187 1.096437 29.123562 1.127687 29.111844 C 1.155031 29.100125 1.198 29.080594 1.22925 29.064969 C 1.256594 29.05325 1.303469 29.029812 1.334719 29.014187 C 1.365969 28.998562 1.412844 28.975125 1.444094 28.955594 C 1.475344 28.939969 1.526125 28.908719 1.561281 28.893094 C 1.592531 28.873562 1.643312 28.842312 1.678469 28.822781 C 1.713625 28.799344 1.768312 28.768094 1.799562 28.744656 C 1.834719 28.721219 1.893312 28.682156 1.928469 28.658719 C 1.963625 28.635281 2.022219 28.596219 2.057375 28.568875 C 2.092531 28.545437 2.155031 28.502469 2.190187 28.475125 C 2.22925 28.447781 2.29175 28.400906 2.326906 28.369656 C 2.365969 28.342312 2.428469 28.291531 2.471437 28.260281 C 2.5105 28.229031 2.573 28.17825 2.615969 28.147 C 2.655031 28.111844 2.721437 28.061062 2.7605 28.025906 C 2.803469 27.99075 2.869875 27.932156 2.912844 27.897 C 2.955812 27.861844 3.026125 27.80325 3.069094 27.764187 C 3.112062 27.725125 3.182375 27.662625 3.225344 27.623562 C 3.268312 27.5845 3.342531 27.522 3.3855 27.479031 C 3.432375 27.439969 3.502687 27.369656 3.549562 27.326687 C 3.596437 27.287625 3.670656 27.217312 3.717531 27.170437 C 3.764406 27.127469 3.838625 27.05325 3.8855 27.010281 C 3.932375 26.963406 4.0105 26.889187 4.057375 26.842312 C 4.108156 26.795437 4.186281 26.717312 4.233156 26.666531 C 4.283937 26.619656 4.362062 26.537625 4.412844 26.486844 C 4.459719 26.439969 4.54175 26.354031 4.592531 26.30325 C 4.643312 26.252469 4.721437 26.166531 4.772219 26.11575 C 4.823 26.061062 4.905031 25.975125 4.959719 25.920437 C 5.0105 25.86575 5.092531 25.775906 5.147219 25.717312 C 5.198 25.662625 5.280031 25.572781 5.334719 25.514187 C 5.3855 25.455594 5.471437 25.361844 5.526125 25.30325 C 5.576906 25.244656 5.662844 25.150906 5.717531 25.088406 C 5.772219 25.029812 5.858156 24.92825 5.912844 24.869656 C 5.967531 24.807156 6.053469 24.705594 6.108156 24.643094 C 6.162844 24.580594 6.252687 24.479031 6.307375 24.416531 C 6.362062 24.350125 6.451906 24.248562 6.506594 24.182156 C 6.561281 24.11575 6.651125 24.010281 6.705812 23.939969 C 6.764406 23.873562 6.85425 23.768094 6.908937 23.697781 C 6.967531 23.631375 7.057375 23.522 7.112062 23.451687 C 7.170656 23.381375 7.2605 23.272 7.315187 23.201687 C 7.373781 23.131375 7.463625 23.014187 7.522219 22.943875 C 7.580812 22.873562 7.670656 22.756375 7.72925 22.686062 C 7.783937 22.611844 7.877687 22.494656 7.936281 22.420437 C 7.990969 22.350125 8.084719 22.229031 8.143312 22.154812 C 8.198 22.080594 8.29175 21.9595 8.350344 21.885281 C 8.408937 21.807156 8.498781 21.686062 8.557375 21.607937 C 8.615969 21.533719 8.709719 21.408719 8.764406 21.330594 C 8.823 21.252469 8.91675 21.127469 8.975344 21.049344 C 9.033937 20.971219 9.123781 20.842312 9.182375 20.764187 C 9.240969 20.682156 9.334719 20.55325 9.389406 20.475125 C 9.448 20.393094 9.54175 20.264187 9.600344 20.182156 C 9.655031 20.100125 9.748781 19.971219 9.807375 19.889187 C 9.862062 19.807156 9.955812 19.674344 10.014406 19.588406 C 10.069094 19.506375 10.162844 19.373562 10.221437 19.287625 C 10.276125 19.205594 10.369875 19.068875 10.424562 18.986844 C 10.483156 18.900906 10.573 18.764187 10.631594 18.682156 C 10.686281 18.596219 10.780031 18.4595 10.834719 18.369656 C 10.893312 18.283719 10.983156 18.147 11.037844 18.061062 C 11.092531 17.975125 11.182375 17.8345 11.240969 17.748562 C 11.295656 17.658719 11.3855 17.518094 11.440187 17.432156 C 11.494875 17.342312 11.584719 17.201687 11.639406 17.111844 C 11.694094 17.025906 11.780031 16.881375 11.834719 16.795437 C 11.889406 16.705594 11.975344 16.561062 12.030031 16.471219 C 12.084719 16.381375 12.170656 16.24075 12.225344 16.150906 C 12.280031 16.061062 12.362062 15.912625 12.41675 15.822781 C 12.467531 15.732937 12.553469 15.588406 12.608156 15.498562 C 12.658937 15.404812 12.740969 15.260281 12.795656 15.170437 C 12.846437 15.076687 12.928469 14.932156 12.97925 14.838406 C 13.030031 14.748562 13.112062 14.600125 13.162844 14.510281 C 13.213625 14.416531 13.29175 14.268094 13.342531 14.17825 C 13.393312 14.0845 13.471437 13.936062 13.518312 13.842312 C 13.569094 13.752469 13.647219 13.604031 13.694094 13.510281 C 13.740969 13.416531 13.819094 13.268094 13.865969 13.174344 C 13.912844 13.0845 13.987062 12.932156 14.033937 12.842312 C 14.080812 12.748562 14.155031 12.600125 14.201906 12.506375 C 14.244875 12.412625 14.319094 12.264187 14.362062 12.170437 C 14.408937 12.076687 14.47925 11.924344 14.522219 11.830594 C 14.565187 11.736844 14.6355 11.588406 14.678469 11.494656 C 14.721437 11.400906 14.830812 11.158719 14.830812 11.158719 " transform="matrix(1,0,0,-1,184.927,164.272)"/>
</g>
</svg>
