<?xml version="1.0" encoding="UTF-8"?>
<svg xmlns="http://www.w3.org/2000/svg" xmlns:xlink="http://www.w3.org/1999/xlink" width="399.44pt" height="179.12pt" viewBox="0 0 399.44 179.12" version="1.1">
<defs>
<clipPath id="clip1">
  <path d="M 233 0 L 399.441406 0 L 399.441406 108 L 233 108 Z M 233 0 "/>
</clipPath>
<clipPath id="clip2">
  <path d="M 0 134 L 183 134 L 183 179.121094 L 0 179.121094 Z M 0 134 "/>
</clipPath>
<clipPath id="clip3">
  <path d="M 43 164 L 61 164 L 61 179.121094 L 43 179.121094 Z M 43 164 "/>
</clipPath>
</defs>
<g id="surface1">
<g clip-path="url(#clip1)" clip-rule="nonzero">
<path style="fill:none;stroke-width:0.79701;stroke-linecap:butt;stroke-linejoin:miter;stroke:rgb(100%,0%,0%);stroke-opacity:1;stroke-miterlimit:10;" d="M 17.009813 138.059062 L 18.552781 131.187969 L 20.099656 125.219219 L 21.646531 119.980937 L 23.193406 115.336406 L 24.736375 111.184062 L 26.28325 107.453594 L 27.830125 104.074687 L 29.377 101.000469 L 30.919969 98.184062 L 32.466844 95.598125 L 34.013719 93.211406 L 35.560594 91.004375 L 37.103563 88.941875 L 38.650438 87.031719 L 40.197313 85.242656 L 41.744188 83.566875 L 43.287156 81.98875 L 44.834031 80.504375 L 46.380906 79.102031 L 47.927781 77.777812 L 49.47075 76.52 L 51.017625 75.328594 L 52.5645 74.195781 L 54.111375 73.117656 L 55.654344 72.090312 L 57.201219 71.105937 L 58.748094 70.164531 L 60.294969 69.27 L 61.837938 68.410625 L 63.384813 67.5825 L 64.931688 66.793437 L 66.478563 66.027812 L 68.021531 65.297344 L 69.568406 64.590312 L 71.115281 63.910625 L 72.662156 63.254375 L 74.205125 62.617656 L 75.752 62.008281 L 77.298875 61.414531 L 78.84575 60.844219 L 80.388719 60.285625 L 81.935594 59.746562 L 83.482469 59.227031 L 85.029344 58.723125 L 86.572313 58.230937 L 88.119188 57.754375 L 89.666063 57.289531 L 91.212938 56.840312 L 92.755906 56.410625 L 94.302781 55.98875 L 95.849656 55.570781 L 97.392625 55.168437 L 98.9395 54.773906 L 100.486375 54.387187 L 102.03325 54.012187 L 103.576219 53.648906 L 105.123094 53.293437 L 106.669969 52.945781 L 108.216844 52.602031 L 109.759813 52.273906 L 111.306688 51.941875 L 112.853563 51.625469 L 114.400438 51.320781 L 115.943406 51.012187 L 117.490281 50.711406 L 120.584031 50.133281 L 122.127 49.855937 L 123.673875 49.5825 L 126.767625 49.05125 L 128.310594 48.789531 L 129.857469 48.539531 L 132.951219 48.047344 L 134.494188 47.805156 L 136.041063 47.570781 L 137.587938 47.340312 L 139.134813 47.11375 L 140.677781 46.891094 L 142.224656 46.668437 L 143.771531 46.453594 L 145.318406 46.242656 L 146.861375 46.035625 L 148.40825 45.8325 L 149.955125 45.633281 L 151.502 45.42625 L 153.044969 45.234844 L 154.591844 45.043437 L 156.138719 44.848125 L 157.685594 44.668437 L 159.228563 44.480937 L 160.775438 44.305156 L 162.322313 44.121562 L 163.869188 43.945781 L 165.412156 43.777812 L 166.959031 43.605937 L 170.052781 43.277812 " transform="matrix(1,0,0,-1,227.873,139.145)"/>
</g>
<g clip-path="url(#clip2)" clip-rule="nonzero">
<path style="fill:none;stroke-width:0.79701;stroke-linecap:butt;stroke-linejoin:miter;stroke:rgb(100%,0%,0%);stroke-opacity:1;stroke-miterlimit:10;" d="M -226.775344 -32.48 L -225.056594 -32.534688 L -223.34175 -32.589375 L -221.623 -32.640156 L -219.90425 -32.69875 L -218.189406 -32.749531 L -216.470656 -32.804219 L -214.755812 -32.862813 L -213.037062 -32.9175 L -211.318312 -32.968281 L -209.603469 -33.026875 L -207.884719 -33.081563 L -206.169875 -33.140156 L -204.451125 -33.194844 L -202.732375 -33.253438 L -201.017531 -33.308125 L -199.298781 -33.366719 L -197.583937 -33.421406 L -195.865187 -33.48 L -194.146437 -33.534688 L -192.431594 -33.597188 L -190.712844 -33.655781 L -188.998 -33.710469 L -187.27925 -33.769063 L -185.5605 -33.82375 L -183.845656 -33.88625 L -182.126906 -33.944844 L -180.412062 -33.999531 L -176.974562 -34.116719 L -175.259719 -34.179219 L -173.540969 -34.233906 L -171.826125 -34.2925 L -170.107375 -34.347188 L -168.388625 -34.405781 L -166.673781 -34.468281 L -164.955031 -34.522969 L -163.240187 -34.581563 L -161.521437 -34.63625 L -159.802687 -34.687031 L -158.087844 -34.745625 L -156.369094 -34.800313 L -154.65425 -34.858906 L -152.9355 -34.909688 L -151.220656 -34.960469 L -149.501906 -35.015156 L -147.783156 -35.065938 L -146.068312 -35.116719 L -144.349562 -35.171406 L -142.634719 -35.214375 L -140.915969 -35.26125 L -139.197219 -35.304219 L -137.482375 -35.351094 L -135.763625 -35.397969 L -134.048781 -35.437031 L -130.611281 -35.515156 L -128.896437 -35.550313 L -127.177687 -35.581563 L -125.462844 -35.612813 L -123.744094 -35.640156 L -122.025344 -35.663594 L -120.3105 -35.679219 L -118.59175 -35.694844 L -116.876906 -35.710469 L -115.158156 -35.718281 L -111.724562 -35.718281 L -110.005812 -35.710469 L -108.290969 -35.694844 L -106.572219 -35.675313 L -104.853469 -35.644063 L -103.138625 -35.605 L -101.419875 -35.554219 L -99.705031 -35.499531 L -97.986281 -35.425313 L -96.267531 -35.339375 L -94.552687 -35.241719 L -92.833937 -35.128438 L -91.119094 -34.999531 L -89.400344 -34.847188 L -87.681594 -34.671406 L -85.96675 -34.468281 L -84.248 -34.237813 L -82.533156 -33.98 L -80.814406 -33.683125 L -79.095656 -33.335469 L -77.380812 -32.944844 L -75.662062 -32.499531 L -73.947219 -31.987813 L -72.228469 -31.394063 L -70.509719 -30.706563 L -68.794875 -29.913594 L -67.076125 -28.995625 L -65.361281 -27.577656 L -63.642531 -26.085469 L -61.923781 -24.23 L -60.208937 -21.565938 L -58.490187 -17.554219 L -56.775344 -6.190938 " transform="matrix(1,0,0,-1,227.873,139.145)"/>
</g>
<path style="fill:none;stroke-width:0.79701;stroke-linecap:butt;stroke-linejoin:miter;stroke:rgb(100%,0%,0%);stroke-opacity:1;stroke-miterlimit:10;" d="M -56.689406 2.687969 L -56.248 11.42625 L -55.806594 14.437969 L -55.365187 16.484844 L -54.927687 18.348125 L -54.486281 19.766094 L -54.044875 21.090312 L -53.603469 22.312969 L -53.165969 23.570781 L -52.724562 24.5825 L -52.283156 25.570781 L -51.845656 26.527812 L -51.40425 27.4575 L -50.962844 28.609844 L -50.521437 29.406719 L -50.083937 30.199687 L -49.642531 30.996562 L -49.201125 31.785625 L -48.763625 32.570781 L -48.322219 33.355937 L -47.880812 34.125469 L -47.439406 34.898906 L -47.001906 35.664531 L -46.5605 36.422344 L -45.677687 37.930156 L -45.240187 38.680156 L -44.357375 40.164531 L -43.919875 40.906719 L -43.478469 41.656719 L -42.595656 43.141094 L -42.158156 43.891094 L -41.71675 44.641094 L -41.275344 45.395 L -40.833937 46.152812 L -40.396437 46.914531 L -39.955031 47.680156 L -39.513625 48.449687 L -39.076125 49.227031 L -38.634719 50.008281 L -38.193312 50.797344 L -37.751906 51.598125 L -37.314406 52.402812 L -36.873 53.215312 L -36.431594 54.035625 L -35.994094 54.871562 L -35.552687 55.7075 L -35.111281 56.559062 L -34.669875 57.414531 L -34.232375 58.289531 L -33.790969 59.17625 L -33.349562 60.074687 L -32.908156 60.98875 L -32.470656 61.914531 L -32.02925 62.855937 L -31.587844 63.812969 L -31.150344 64.789531 L -30.708937 65.781719 L -30.267531 66.789531 L -29.826125 67.816875 L -29.388625 68.86375 L -28.947219 69.934062 L -28.505812 71.02 L -28.068312 72.137187 L -27.626906 73.273906 L -27.1855 74.434062 L -26.744094 75.621562 L -26.306594 76.840312 L -25.865187 78.0825 L -25.423781 79.355937 L -24.982375 80.656719 L -24.544875 81.996562 L -24.103469 83.36375 L -23.662062 84.777812 L -23.224562 86.223125 L -22.783156 87.711406 L -22.34175 89.242656 L -21.900344 90.824687 L -21.462844 92.445781 L -21.021437 94.121562 L -20.580031 95.852031 L -20.142531 97.641094 L -19.701125 99.480937 L -19.259719 101.395 L -18.818312 103.371562 L -18.380812 105.418437 L -17.939406 107.547344 L -17.498 109.750469 L -17.056594 112.047344 L -16.619094 114.449687 L -16.177687 116.937969 L -15.736281 119.547344 L -15.298781 122.258281 L -14.857375 125.105937 L -14.415969 128.086406 L -13.974562 131.215312 L -13.537062 134.508281 L -13.095656 137.969219 " transform="matrix(1,0,0,-1,227.873,139.145)"/>
<path style=" stroke:none;fill-rule:nonzero;fill:rgb(100%,0%,0%);fill-opacity:1;" d="M 117.320312 174.863281 C 117.320312 173.296875 116.050781 172.027344 114.484375 172.027344 C 112.921875 172.027344 111.652344 173.296875 111.652344 174.863281 C 111.652344 176.425781 112.921875 177.695312 114.484375 177.695312 C 116.050781 177.695312 117.320312 176.425781 117.320312 174.863281 Z M 117.320312 174.863281 "/>
<path style=" stroke:none;fill-rule:nonzero;fill:rgb(100%,100%,100%);fill-opacity:1;" d="M 54.390625 173.160156 C 54.390625 171.59375 53.121094 170.328125 51.554688 170.328125 C 49.992188 170.328125 48.722656 171.59375 48.722656 173.160156 C 48.722656 174.726562 49.992188 175.996094 51.554688 175.996094 C 53.121094 175.996094 54.390625 174.726562 54.390625 173.160156 Z M 54.390625 173.160156 "/>
<g clip-path="url(#clip3)" clip-rule="nonzero">
<path style="fill:none;stroke-width:0.3985;stroke-linecap:butt;stroke-linejoin:miter;stroke:rgb(100%,0%,0%);stroke-opacity:1;stroke-miterlimit:10;" d="M -173.482375 -34.015156 C -173.482375 -32.44875 -174.751906 -31.183125 -176.318312 -31.183125 C -177.880812 -31.183125 -179.150344 -32.44875 -179.150344 -34.015156 C -179.150344 -35.581563 -177.880812 -36.851094 -176.318312 -36.851094 C -174.751906 -36.851094 -173.482375 -35.581563 -173.482375 -34.015156 Z M -173.482375 -34.015156 " transform="matrix(1,0,0,-1,227.873,139.145)"/>
</g>
<path style="fill-rule:nonzero;fill:rgb(100%,100%,100%);fill-opacity:1;stroke-width:0.3985;stroke-linecap:butt;stroke-linejoin:miter;stroke:rgb(100%,0%,0%);stroke-opacity:1;stroke-miterlimit:10;" d="M -41.103469 40.820781 C -41.103469 42.383281 -42.373 43.652812 -43.939406 43.652812 C -45.501906 43.652812 -46.771437 42.383281 -46.771437 40.820781 C -46.771437 39.254375 -45.501906 37.984844 -43.939406 37.984844 C -42.373 37.984844 -41.103469 39.254375 -41.103469 40.820781 Z M -41.103469 40.820781 " transform="matrix(1,0,0,-1,227.873,139.145)"/>
<path style="fill-rule:nonzero;fill:rgb(100%,100%,100%);fill-opacity:1;stroke-width:0.3985;stroke-linecap:butt;stroke-linejoin:miter;stroke:rgb(100%,0%,0%);stroke-opacity:1;stroke-miterlimit:10;" d="M -53.857375 0.00046875 C -53.857375 1.566875 -55.126906 2.836406 -56.693312 2.836406 C -58.259719 2.836406 -59.52925 1.566875 -59.52925 0.00046875 C -59.52925 -1.565938 -58.259719 -2.835469 -56.693312 -2.835469 C -55.126906 -2.835469 -53.857375 -1.565938 -53.857375 0.00046875 Z M -53.857375 0.00046875 " transform="matrix(1,0,0,-1,227.873,139.145)"/>
</g>
</svg>
