<?xml version="1.0" encoding="UTF-8"?>
<svg xmlns="http://www.w3.org/2000/svg" xmlns:xlink="http://www.w3.org/1999/xlink" width="172.88pt" height="130.16pt" viewBox="0 0 172.88 130.16" version="1.1">
<defs>
<clipPath id="clip1">
  <path d="M 0 0 L 172.878906 0 L 172.878906 130.160156 L 0 130.160156 Z M 0 0 "/>
</clipPath>
<clipPath id="clip2">
  <path d="M 0 94 L 172.878906 94 L 172.878906 121 L 0 121 Z M 0 94 "/>
</clipPath>
</defs>
<g id="surface1">
<g clip-path="url(#clip1)" clip-rule="nonzero">
<path style="fill:none;stroke-width:0.3985;stroke-linecap:butt;stroke-linejoin:miter;stroke:rgb(0%,0%,0%);stroke-opacity:1;stroke-miterlimit:10;" d="M -85.038937 -0.0009375 C -85.038937 -7.829063 -46.968625 -14.172813 0.000125 -14.172813 C 46.968875 -14.172813 85.039188 -7.829063 85.039188 -0.0009375 L 0.000125 113.385781 L -85.038937 -0.0009375 " transform="matrix(1,0,0,-1,86.453,114.585)"/>
</g>
<g clip-path="url(#clip2)" clip-rule="nonzero">
<path style="fill:none;stroke-width:0.3985;stroke-linecap:butt;stroke-linejoin:miter;stroke:rgb(0%,0%,0%);stroke-opacity:1;stroke-dasharray:2.98883,2.98883;stroke-miterlimit:10;" d="M -85.038937 -0.0009375 C -85.038937 7.827187 -46.968625 14.174844 0.000125 14.174844 C 46.968875 14.174844 85.039188 7.827187 85.039188 -0.0009375 " transform="matrix(1,0,0,-1,86.453,114.585)"/>
</g>
</g>
</svg>
