<?xml version="1.0" encoding="UTF-8"?>
<svg xmlns="http://www.w3.org/2000/svg" xmlns:xlink="http://www.w3.org/1999/xlink" width="230.48pt" height="173.36pt" viewBox="0 0 230.48 173.36" version="1.1">
<g id="surface1">
<path style="fill:none;stroke-width:0.3985;stroke-linecap:butt;stroke-linejoin:miter;stroke:rgb(50%,50%,50%);stroke-opacity:1;stroke-dasharray:0.3985,1.99255;stroke-miterlimit:10;" d="M -113.385813 -85.039469 L 113.387625 -85.039469 M -113.385813 -56.691812 L 113.387625 -56.691812 M -113.385813 -28.348062 L 113.387625 -28.348062 M -113.385813 -0.00040625 L 113.387625 -0.00040625 M -113.385813 28.34725 L 113.387625 28.34725 M -113.385813 56.694906 L 113.387625 56.694906 M -113.385813 85.030844 L 113.387625 85.030844 M -113.385813 -85.039469 L -113.385813 85.038656 M -85.042063 -85.039469 L -85.042063 85.038656 M -56.694406 -85.039469 L -56.694406 85.038656 M -28.34675 -85.039469 L -28.34675 85.038656 M 0.00090625 -85.039469 L 0.00090625 85.038656 M 28.348562 -85.039469 L 28.348562 85.038656 M 56.692312 -85.039469 L 56.692312 85.038656 M 85.039969 -85.039469 L 85.039969 85.038656 M 113.375906 -85.039469 L 113.375906 85.038656 " transform="matrix(1,0,0,-1,115.878,87.316)"/>
<path style="fill:none;stroke-width:1.59404;stroke-linecap:butt;stroke-linejoin:miter;stroke:rgb(0%,0%,0%);stroke-opacity:1;stroke-miterlimit:10;" d="M -56.694406 85.038656 L -113.385813 -56.691812 L 85.039969 -56.691812 L 56.692312 28.34725 Z M -56.694406 85.038656 " transform="matrix(1,0,0,-1,115.878,87.316)"/>
</g>
</svg>
