<?xml version="1.0" encoding="UTF-8"?>
<svg xmlns="http://www.w3.org/2000/svg" xmlns:xlink="http://www.w3.org/1999/xlink" width="101.84pt" height="156.08pt" viewBox="0 0 101.84 156.08" version="1.1">
<defs>
<clipPath id="clip1">
  <path d="M 0 0 L 101.839844 0 L 101.839844 156.078125 L 0 156.078125 Z M 0 0 "/>
</clipPath>
</defs>
<g id="surface1">
<path style="fill-rule:nonzero;fill:rgb(100%,79.998779%,79.998779%);fill-opacity:1;stroke-width:0.3985;stroke-linecap:butt;stroke-linejoin:miter;stroke:rgb(0%,0%,0%);stroke-opacity:1;stroke-dasharray:0.3985,1.99255;stroke-miterlimit:10;" d="M 28.346188 -14.173344 L 28.346188 42.521969 L 49.607906 42.521969 L 49.607906 -14.173344 Z M 28.346188 -14.173344 " transform="matrix(1,0,0,-1,32.396,89.354)"/>
<g clip-path="url(#clip1)" clip-rule="nonzero">
<path style="fill:none;stroke-width:0.79701;stroke-linecap:butt;stroke-linejoin:miter;stroke:rgb(0%,0%,0%);stroke-opacity:1;stroke-miterlimit:10;" d="M -28.345219 85.0415 L -24.329594 59.693844 L -20.313969 39.553219 L -16.298344 24.13525 L -12.282719 12.951656 L -8.267094 5.525875 L -4.251469 1.369625 L -0.235844 0.0024375 L 3.779781 0.939937 L 7.795406 3.69775 L 11.811031 7.7915 L 15.826656 12.736812 L 19.842281 18.053219 L 23.857906 23.26025 L 27.873531 27.865719 L 31.889156 31.389156 L 35.904781 33.354 L 39.920406 33.264156 L 43.936031 30.646969 L 47.951656 25.014156 L 51.967281 15.88525 L 55.982906 2.771969 L 59.998531 -14.80225 L 64.014156 -37.329594 L 68.029781 -65.290531 " transform="matrix(1,0,0,-1,32.396,89.354)"/>
</g>
<path style=" stroke:none;fill-rule:nonzero;fill:rgb(0%,0%,100%);fill-opacity:1;" d="M 6.882812 4.3125 C 6.882812 2.746094 5.613281 1.480469 4.050781 1.480469 C 2.484375 1.480469 1.214844 2.746094 1.214844 4.3125 C 1.214844 5.878906 2.484375 7.148438 4.050781 7.148438 C 5.613281 7.148438 6.882812 5.878906 6.882812 4.3125 Z M 6.882812 4.3125 "/>
<path style="fill:none;stroke-width:0.3985;stroke-linecap:butt;stroke-linejoin:miter;stroke:rgb(100%,0%,0%);stroke-opacity:1;stroke-dasharray:2.98883,2.98883;stroke-miterlimit:10;" d="M 28.346188 34.014156 L 49.32275 34.014156 " transform="matrix(1,0,0,-1,32.396,89.354)"/>
<path style=" stroke:none;fill-rule:nonzero;fill:rgb(100%,0%,0%);fill-opacity:1;" d="M 72.648438 55.339844 C 72.648438 53.773438 71.378906 52.503906 69.8125 52.503906 C 68.25 52.503906 66.980469 53.773438 66.980469 55.339844 C 66.980469 56.902344 68.25 58.171875 69.8125 58.171875 C 71.378906 58.171875 72.648438 56.902344 72.648438 55.339844 Z M 72.648438 55.339844 "/>
</g>
</svg>
