<?xml version="1.0" encoding="UTF-8"?>
<svg xmlns="http://www.w3.org/2000/svg" xmlns:xlink="http://www.w3.org/1999/xlink" width="186.8pt" height="186.8pt" viewBox="0 0 186.8 186.8" version="1.1">
<defs>
<clipPath id="clip1">
  <path d="M 0 166 L 17 166 L 17 186.800781 L 0 186.800781 Z M 0 166 "/>
</clipPath>
<clipPath id="clip2">
  <path d="M 28 166 L 46 166 L 46 186.800781 L 28 186.800781 Z M 28 166 "/>
</clipPath>
<clipPath id="clip3">
  <path d="M 56 166 L 74 166 L 74 186.800781 L 56 186.800781 Z M 56 166 "/>
</clipPath>
<clipPath id="clip4">
  <path d="M 85 166 L 102 166 L 102 186.800781 L 85 186.800781 Z M 85 166 "/>
</clipPath>
<clipPath id="clip5">
  <path d="M 113 166 L 131 166 L 131 186.800781 L 113 186.800781 Z M 113 166 "/>
</clipPath>
<clipPath id="clip6">
  <path d="M 141 166 L 159 166 L 159 186.800781 L 141 186.800781 Z M 141 166 "/>
</clipPath>
<clipPath id="clip7">
  <path d="M 170 166 L 186.800781 166 L 186.800781 186.800781 L 170 186.800781 Z M 170 166 "/>
</clipPath>
<clipPath id="clip8">
  <path d="M 169 138 L 186.800781 138 L 186.800781 163 L 169 163 Z M 169 138 "/>
</clipPath>
<clipPath id="clip9">
  <path d="M 169 110 L 186.800781 110 L 186.800781 134 L 169 134 Z M 169 110 "/>
</clipPath>
<clipPath id="clip10">
  <path d="M 167 83 L 186.800781 83 L 186.800781 105 L 167 105 Z M 167 83 "/>
</clipPath>
<clipPath id="clip11">
  <path d="M 166 56 L 186.800781 56 L 186.800781 75 L 166 75 Z M 166 56 "/>
</clipPath>
<clipPath id="clip12">
  <path d="M 166 0 L 186.800781 0 L 186.800781 18 L 166 18 Z M 166 0 "/>
</clipPath>
</defs>
<g id="surface1">
<path style="fill:none;stroke-width:0.3985;stroke-linecap:butt;stroke-linejoin:miter;stroke:rgb(50%,50%,50%);stroke-opacity:1;stroke-dasharray:0.3985,1.99255;stroke-miterlimit:10;" d="M -0.001 -85.03875 L 170.081031 -85.03875 M -0.001 -56.695 L 170.081031 -56.695 M -0.001 -28.347344 L 170.081031 -28.347344 M -0.001 0.0003125 L 170.081031 0.0003125 M -0.001 28.347969 L 170.081031 28.347969 M -0.001 56.691719 L 170.081031 56.691719 M -0.001 85.031562 L 170.081031 85.031562 M -0.001 -85.03875 L -0.001 85.039375 M 28.346656 -85.03875 L 28.346656 85.039375 M 56.694313 -85.03875 L 56.694313 85.039375 M 85.041969 -85.03875 L 85.041969 85.039375 M 113.385719 -85.03875 L 113.385719 85.039375 M 141.733375 -85.03875 L 141.733375 85.039375 M 170.069313 -85.03875 L 170.069313 85.039375 " transform="matrix(1,0,0,-1,8.501,93.805)"/>
<g clip-path="url(#clip1)" clip-rule="nonzero">
<path style="fill:none;stroke-width:0.3985;stroke-linecap:butt;stroke-linejoin:miter;stroke:rgb(100%,0%,0%);stroke-opacity:1;stroke-miterlimit:10;" d="M -2.633812 -78.460625 L 2.631813 -91.620781 " transform="matrix(1,0,0,-1,8.501,93.805)"/>
</g>
<path style="fill:none;stroke-width:0.3985;stroke-linecap:butt;stroke-linejoin:miter;stroke:rgb(100%,0%,0%);stroke-opacity:1;stroke-miterlimit:10;" d="M -3.168969 -50.355156 L 3.170875 -63.030938 " transform="matrix(1,0,0,-1,8.501,93.805)"/>
<path style="fill:none;stroke-width:0.3985;stroke-linecap:butt;stroke-linejoin:miter;stroke:rgb(100%,0%,0%);stroke-opacity:1;stroke-miterlimit:10;" d="M -3.930687 -22.452813 L 3.932594 -34.241875 " transform="matrix(1,0,0,-1,8.501,93.805)"/>
<path style="fill:none;stroke-width:0.3985;stroke-linecap:butt;stroke-linejoin:miter;stroke:rgb(100%,0%,0%);stroke-opacity:1;stroke-miterlimit:10;" d="M -5.012719 5.012031 L 5.010719 -5.011406 " transform="matrix(1,0,0,-1,8.501,93.805)"/>
<path style="fill:none;stroke-width:0.3985;stroke-linecap:butt;stroke-linejoin:miter;stroke:rgb(100%,0%,0%);stroke-opacity:1;stroke-miterlimit:10;" d="M -6.336937 31.515937 L 6.338844 25.176094 " transform="matrix(1,0,0,-1,8.501,93.805)"/>
<path style="fill:none;stroke-width:0.3985;stroke-linecap:butt;stroke-linejoin:miter;stroke:rgb(100%,0%,0%);stroke-opacity:1;stroke-miterlimit:10;" d="M -7.086937 56.691719 L 7.084938 56.691719 " transform="matrix(1,0,0,-1,8.501,93.805)"/>
<path style="fill:none;stroke-width:0.3985;stroke-linecap:butt;stroke-linejoin:miter;stroke:rgb(100%,0%,0%);stroke-opacity:1;stroke-miterlimit:10;" d="M -6.336937 81.871406 L 6.338844 88.21125 " transform="matrix(1,0,0,-1,8.501,93.805)"/>
<g clip-path="url(#clip2)" clip-rule="nonzero">
<path style="fill:none;stroke-width:0.3985;stroke-linecap:butt;stroke-linejoin:miter;stroke:rgb(100%,0%,0%);stroke-opacity:1;stroke-miterlimit:10;" d="M 25.713844 -78.460625 L 30.979469 -91.620781 " transform="matrix(1,0,0,-1,8.501,93.805)"/>
</g>
<path style="fill:none;stroke-width:0.3985;stroke-linecap:butt;stroke-linejoin:miter;stroke:rgb(100%,0%,0%);stroke-opacity:1;stroke-miterlimit:10;" d="M 25.178688 -50.355156 L 31.514625 -63.030938 " transform="matrix(1,0,0,-1,8.501,93.805)"/>
<path style="fill:none;stroke-width:0.3985;stroke-linecap:butt;stroke-linejoin:miter;stroke:rgb(100%,0%,0%);stroke-opacity:1;stroke-miterlimit:10;" d="M 24.416969 -22.452813 L 32.276344 -34.241875 " transform="matrix(1,0,0,-1,8.501,93.805)"/>
<path style="fill:none;stroke-width:0.3985;stroke-linecap:butt;stroke-linejoin:miter;stroke:rgb(100%,0%,0%);stroke-opacity:1;stroke-miterlimit:10;" d="M 23.334938 5.012031 L 33.358375 -5.011406 " transform="matrix(1,0,0,-1,8.501,93.805)"/>
<path style="fill:none;stroke-width:0.3985;stroke-linecap:butt;stroke-linejoin:miter;stroke:rgb(100%,0%,0%);stroke-opacity:1;stroke-miterlimit:10;" d="M 22.006813 31.515937 L 34.6865 25.176094 " transform="matrix(1,0,0,-1,8.501,93.805)"/>
<path style="fill:none;stroke-width:0.3985;stroke-linecap:butt;stroke-linejoin:miter;stroke:rgb(100%,0%,0%);stroke-opacity:1;stroke-miterlimit:10;" d="M 21.260719 56.691719 L 35.432594 56.691719 " transform="matrix(1,0,0,-1,8.501,93.805)"/>
<path style="fill:none;stroke-width:0.3985;stroke-linecap:butt;stroke-linejoin:miter;stroke:rgb(100%,0%,0%);stroke-opacity:1;stroke-miterlimit:10;" d="M 22.006813 81.871406 L 34.6865 88.21125 " transform="matrix(1,0,0,-1,8.501,93.805)"/>
<g clip-path="url(#clip3)" clip-rule="nonzero">
<path style="fill:none;stroke-width:0.3985;stroke-linecap:butt;stroke-linejoin:miter;stroke:rgb(100%,0%,0%);stroke-opacity:1;stroke-miterlimit:10;" d="M 54.0615 -78.460625 L 59.327125 -91.620781 " transform="matrix(1,0,0,-1,8.501,93.805)"/>
</g>
<path style="fill:none;stroke-width:0.3985;stroke-linecap:butt;stroke-linejoin:miter;stroke:rgb(100%,0%,0%);stroke-opacity:1;stroke-miterlimit:10;" d="M 53.526344 -50.355156 L 59.862281 -63.030938 " transform="matrix(1,0,0,-1,8.501,93.805)"/>
<path style="fill:none;stroke-width:0.3985;stroke-linecap:butt;stroke-linejoin:miter;stroke:rgb(100%,0%,0%);stroke-opacity:1;stroke-miterlimit:10;" d="M 52.760719 -22.452813 L 60.624 -34.241875 " transform="matrix(1,0,0,-1,8.501,93.805)"/>
<path style="fill:none;stroke-width:0.3985;stroke-linecap:butt;stroke-linejoin:miter;stroke:rgb(100%,0%,0%);stroke-opacity:1;stroke-miterlimit:10;" d="M 51.682594 5.012031 L 61.706031 -5.011406 " transform="matrix(1,0,0,-1,8.501,93.805)"/>
<path style="fill:none;stroke-width:0.3985;stroke-linecap:butt;stroke-linejoin:miter;stroke:rgb(100%,0%,0%);stroke-opacity:1;stroke-miterlimit:10;" d="M 50.354469 31.515937 L 63.03025 25.176094 " transform="matrix(1,0,0,-1,8.501,93.805)"/>
<path style="fill:none;stroke-width:0.3985;stroke-linecap:butt;stroke-linejoin:miter;stroke:rgb(100%,0%,0%);stroke-opacity:1;stroke-miterlimit:10;" d="M 49.608375 56.691719 L 63.78025 56.691719 " transform="matrix(1,0,0,-1,8.501,93.805)"/>
<path style="fill:none;stroke-width:0.3985;stroke-linecap:butt;stroke-linejoin:miter;stroke:rgb(100%,0%,0%);stroke-opacity:1;stroke-miterlimit:10;" d="M 50.354469 81.871406 L 63.03025 88.21125 " transform="matrix(1,0,0,-1,8.501,93.805)"/>
<g clip-path="url(#clip4)" clip-rule="nonzero">
<path style="fill:none;stroke-width:0.3985;stroke-linecap:butt;stroke-linejoin:miter;stroke:rgb(100%,0%,0%);stroke-opacity:1;stroke-miterlimit:10;" d="M 82.409156 -78.460625 L 87.670875 -91.620781 " transform="matrix(1,0,0,-1,8.501,93.805)"/>
</g>
<path style="fill:none;stroke-width:0.3985;stroke-linecap:butt;stroke-linejoin:miter;stroke:rgb(100%,0%,0%);stroke-opacity:1;stroke-miterlimit:10;" d="M 81.870094 -50.355156 L 88.209938 -63.030938 " transform="matrix(1,0,0,-1,8.501,93.805)"/>
<path style="fill:none;stroke-width:0.3985;stroke-linecap:butt;stroke-linejoin:miter;stroke:rgb(100%,0%,0%);stroke-opacity:1;stroke-miterlimit:10;" d="M 81.108375 -22.452813 L 88.971656 -34.241875 " transform="matrix(1,0,0,-1,8.501,93.805)"/>
<path style="fill:none;stroke-width:0.3985;stroke-linecap:butt;stroke-linejoin:miter;stroke:rgb(100%,0%,0%);stroke-opacity:1;stroke-miterlimit:10;" d="M 80.03025 5.012031 L 90.049781 -5.011406 " transform="matrix(1,0,0,-1,8.501,93.805)"/>
<path style="fill:none;stroke-width:0.3985;stroke-linecap:butt;stroke-linejoin:miter;stroke:rgb(100%,0%,0%);stroke-opacity:1;stroke-miterlimit:10;" d="M 78.702125 31.515937 L 91.377906 25.176094 " transform="matrix(1,0,0,-1,8.501,93.805)"/>
<path style="fill:none;stroke-width:0.3985;stroke-linecap:butt;stroke-linejoin:miter;stroke:rgb(100%,0%,0%);stroke-opacity:1;stroke-miterlimit:10;" d="M 77.952125 56.691719 L 92.127906 56.691719 " transform="matrix(1,0,0,-1,8.501,93.805)"/>
<path style="fill:none;stroke-width:0.3985;stroke-linecap:butt;stroke-linejoin:miter;stroke:rgb(100%,0%,0%);stroke-opacity:1;stroke-miterlimit:10;" d="M 78.702125 81.871406 L 91.377906 88.21125 " transform="matrix(1,0,0,-1,8.501,93.805)"/>
<g clip-path="url(#clip5)" clip-rule="nonzero">
<path style="fill:none;stroke-width:0.3985;stroke-linecap:butt;stroke-linejoin:miter;stroke:rgb(100%,0%,0%);stroke-opacity:1;stroke-miterlimit:10;" d="M 110.756813 -78.460625 L 116.018531 -91.620781 " transform="matrix(1,0,0,-1,8.501,93.805)"/>
</g>
<path style="fill:none;stroke-width:0.3985;stroke-linecap:butt;stroke-linejoin:miter;stroke:rgb(100%,0%,0%);stroke-opacity:1;stroke-miterlimit:10;" d="M 110.21775 -50.355156 L 116.557594 -63.030938 " transform="matrix(1,0,0,-1,8.501,93.805)"/>
<path style="fill:none;stroke-width:0.3985;stroke-linecap:butt;stroke-linejoin:miter;stroke:rgb(100%,0%,0%);stroke-opacity:1;stroke-miterlimit:10;" d="M 109.456031 -22.452813 L 117.319313 -34.241875 " transform="matrix(1,0,0,-1,8.501,93.805)"/>
<path style="fill:none;stroke-width:0.3985;stroke-linecap:butt;stroke-linejoin:miter;stroke:rgb(100%,0%,0%);stroke-opacity:1;stroke-miterlimit:10;" d="M 108.377906 5.012031 L 118.397438 -5.011406 " transform="matrix(1,0,0,-1,8.501,93.805)"/>
<path style="fill:none;stroke-width:0.3985;stroke-linecap:butt;stroke-linejoin:miter;stroke:rgb(100%,0%,0%);stroke-opacity:1;stroke-miterlimit:10;" d="M 107.049781 31.515937 L 119.725563 25.176094 " transform="matrix(1,0,0,-1,8.501,93.805)"/>
<path style="fill:none;stroke-width:0.3985;stroke-linecap:butt;stroke-linejoin:miter;stroke:rgb(100%,0%,0%);stroke-opacity:1;stroke-miterlimit:10;" d="M 106.299781 56.691719 L 120.475563 56.691719 " transform="matrix(1,0,0,-1,8.501,93.805)"/>
<path style="fill:none;stroke-width:0.3985;stroke-linecap:butt;stroke-linejoin:miter;stroke:rgb(100%,0%,0%);stroke-opacity:1;stroke-miterlimit:10;" d="M 107.049781 81.871406 L 119.725563 88.21125 " transform="matrix(1,0,0,-1,8.501,93.805)"/>
<g clip-path="url(#clip6)" clip-rule="nonzero">
<path style="fill:none;stroke-width:0.3985;stroke-linecap:butt;stroke-linejoin:miter;stroke:rgb(100%,0%,0%);stroke-opacity:1;stroke-miterlimit:10;" d="M 139.100563 -78.460625 L 144.366188 -91.620781 " transform="matrix(1,0,0,-1,8.501,93.805)"/>
</g>
<path style="fill:none;stroke-width:0.3985;stroke-linecap:butt;stroke-linejoin:miter;stroke:rgb(100%,0%,0%);stroke-opacity:1;stroke-miterlimit:10;" d="M 138.565406 -50.355156 L 144.901344 -63.030938 " transform="matrix(1,0,0,-1,8.501,93.805)"/>
<path style="fill:none;stroke-width:0.3985;stroke-linecap:butt;stroke-linejoin:miter;stroke:rgb(100%,0%,0%);stroke-opacity:1;stroke-miterlimit:10;" d="M 137.803688 -22.452813 L 145.666969 -34.241875 " transform="matrix(1,0,0,-1,8.501,93.805)"/>
<path style="fill:none;stroke-width:0.3985;stroke-linecap:butt;stroke-linejoin:miter;stroke:rgb(100%,0%,0%);stroke-opacity:1;stroke-miterlimit:10;" d="M 136.721656 5.012031 L 146.745094 -5.011406 " transform="matrix(1,0,0,-1,8.501,93.805)"/>
<path style="fill:none;stroke-width:0.3985;stroke-linecap:butt;stroke-linejoin:miter;stroke:rgb(100%,0%,0%);stroke-opacity:1;stroke-miterlimit:10;" d="M 135.397438 31.515937 L 148.073219 25.176094 " transform="matrix(1,0,0,-1,8.501,93.805)"/>
<path style="fill:none;stroke-width:0.3985;stroke-linecap:butt;stroke-linejoin:miter;stroke:rgb(100%,0%,0%);stroke-opacity:1;stroke-miterlimit:10;" d="M 134.647438 56.691719 L 148.819313 56.691719 " transform="matrix(1,0,0,-1,8.501,93.805)"/>
<path style="fill:none;stroke-width:0.3985;stroke-linecap:butt;stroke-linejoin:miter;stroke:rgb(100%,0%,0%);stroke-opacity:1;stroke-miterlimit:10;" d="M 135.397438 81.871406 L 148.073219 88.21125 " transform="matrix(1,0,0,-1,8.501,93.805)"/>
<g clip-path="url(#clip7)" clip-rule="nonzero">
<path style="fill:none;stroke-width:0.3985;stroke-linecap:butt;stroke-linejoin:miter;stroke:rgb(100%,0%,0%);stroke-opacity:1;stroke-miterlimit:10;" d="M 167.448219 -78.460625 L 172.713844 -91.620781 " transform="matrix(1,0,0,-1,8.501,93.805)"/>
</g>
<g clip-path="url(#clip8)" clip-rule="nonzero">
<path style="fill:none;stroke-width:0.3985;stroke-linecap:butt;stroke-linejoin:miter;stroke:rgb(100%,0%,0%);stroke-opacity:1;stroke-miterlimit:10;" d="M 166.913063 -50.355156 L 173.249 -63.030938 " transform="matrix(1,0,0,-1,8.501,93.805)"/>
</g>
<g clip-path="url(#clip9)" clip-rule="nonzero">
<path style="fill:none;stroke-width:0.3985;stroke-linecap:butt;stroke-linejoin:miter;stroke:rgb(100%,0%,0%);stroke-opacity:1;stroke-miterlimit:10;" d="M 166.151344 -22.452813 L 174.010719 -34.241875 " transform="matrix(1,0,0,-1,8.501,93.805)"/>
</g>
<g clip-path="url(#clip10)" clip-rule="nonzero">
<path style="fill:none;stroke-width:0.3985;stroke-linecap:butt;stroke-linejoin:miter;stroke:rgb(100%,0%,0%);stroke-opacity:1;stroke-miterlimit:10;" d="M 165.069313 5.012031 L 175.09275 -5.011406 " transform="matrix(1,0,0,-1,8.501,93.805)"/>
</g>
<g clip-path="url(#clip11)" clip-rule="nonzero">
<path style="fill:none;stroke-width:0.3985;stroke-linecap:butt;stroke-linejoin:miter;stroke:rgb(100%,0%,0%);stroke-opacity:1;stroke-miterlimit:10;" d="M 163.741188 31.515937 L 176.420875 25.176094 " transform="matrix(1,0,0,-1,8.501,93.805)"/>
</g>
<path style="fill:none;stroke-width:0.3985;stroke-linecap:butt;stroke-linejoin:miter;stroke:rgb(100%,0%,0%);stroke-opacity:1;stroke-miterlimit:10;" d="M 162.995094 56.691719 L 177.166969 56.691719 " transform="matrix(1,0,0,-1,8.501,93.805)"/>
<g clip-path="url(#clip12)" clip-rule="nonzero">
<path style="fill:none;stroke-width:0.3985;stroke-linecap:butt;stroke-linejoin:miter;stroke:rgb(100%,0%,0%);stroke-opacity:1;stroke-miterlimit:10;" d="M 163.741188 81.871406 L 176.420875 88.21125 " transform="matrix(1,0,0,-1,8.501,93.805)"/>
</g>
<path style="fill:none;stroke-width:0.3985;stroke-linecap:butt;stroke-linejoin:miter;stroke:rgb(0%,0%,100%);stroke-opacity:1;stroke-miterlimit:10;" d="M -0.001 85.039375 L 13.764625 91.922187 " transform="matrix(1,0,0,-1,8.501,93.805)"/>
<path style="fill:none;stroke-width:0.31879;stroke-linecap:round;stroke-linejoin:round;stroke:rgb(0%,0%,100%);stroke-opacity:1;stroke-miterlimit:10;" d="M -1.194016 1.592827 C -1.094428 0.997078 -0.000756194 0.100842 0.297993 -0.000484836 C -0.000754397 -0.10007 -1.096157 -0.998073 -1.197482 -1.593823 " transform="matrix(0.89436,-0.44717,-0.44717,-0.89436,22.26452,1.88282)"/>
<path style=" stroke:none;fill-rule:nonzero;fill:rgb(0%,0%,100%);fill-opacity:1;" d="M 11.335938 8.765625 C 11.335938 7.199219 10.066406 5.929688 8.5 5.929688 C 6.933594 5.929688 5.667969 7.199219 5.667969 8.765625 C 5.667969 10.332031 6.933594 11.597656 8.5 11.597656 C 10.066406 11.597656 11.335938 10.332031 11.335938 8.765625 Z M 11.335938 8.765625 "/>
</g>
</svg>
