<?xml version="1.0" encoding="UTF-8"?>
<svg xmlns="http://www.w3.org/2000/svg" xmlns:xlink="http://www.w3.org/1999/xlink" width="265.04pt" height="130.16pt" viewBox="0 0 265.04 130.16" version="1.1">
<defs>
<clipPath id="clip1">
  <path d="M 0 0 L 178 0 L 178 130.160156 L 0 130.160156 Z M 0 0 "/>
</clipPath>
<clipPath id="clip2">
  <path d="M 243 0 L 265.039062 0 L 265.039062 121 L 243 121 Z M 243 0 "/>
</clipPath>
</defs>
<g id="surface1">
<g clip-path="url(#clip1)" clip-rule="nonzero">
<path style="fill:none;stroke-width:0.3985;stroke-linecap:butt;stroke-linejoin:miter;stroke:rgb(0%,0%,0%);stroke-opacity:1;stroke-miterlimit:10;" d="M -85.038937 -0.0009375 C -85.038937 -7.829063 -46.968625 -14.172813 0.000125 -14.172813 C 46.968875 -14.172813 85.039188 -7.829063 85.039188 -0.0009375 L 0.000125 113.385781 L -85.038937 -0.0009375 " transform="matrix(1,0,0,-1,86.453,114.585)"/>
</g>
<path style="fill:none;stroke-width:0.3985;stroke-linecap:butt;stroke-linejoin:miter;stroke:rgb(0%,0%,0%);stroke-opacity:1;stroke-dasharray:2.98883,2.98883;stroke-miterlimit:10;" d="M -85.038937 -0.0009375 C -85.038937 7.827187 -46.968625 14.174844 0.000125 14.174844 C 46.968875 14.174844 85.039188 7.827187 85.039188 -0.0009375 " transform="matrix(1,0,0,-1,86.453,114.585)"/>
<path style="fill-rule:nonzero;fill:rgb(0%,0%,0%);fill-opacity:0.3;stroke-width:0.3985;stroke-linecap:butt;stroke-linejoin:miter;stroke:rgb(0%,0%,0%);stroke-opacity:1;stroke-miterlimit:10;" d="M 42.519656 56.694375 C 42.519656 52.780312 23.4845 49.608437 0.000125 49.608437 C -23.48425 49.608437 -42.519406 52.780312 -42.519406 56.694375 L -49.605344 47.338906 C -49.605344 42.643594 -27.398312 38.835 0.000125 38.835 C 27.398563 38.835 49.605594 42.643594 49.605594 47.338906 Z M 42.519656 56.694375 " transform="matrix(1,0,0,-1,86.453,114.585)"/>
<path style=" stroke:none;fill-rule:nonzero;fill:rgb(0%,0%,0%);fill-opacity:0.1;" d="M 128.972656 57.890625 C 128.972656 53.195312 109.9375 49.386719 86.453125 49.386719 C 62.96875 49.386719 43.933594 53.195312 43.933594 57.890625 C 43.933594 62.589844 62.96875 66.394531 86.453125 66.394531 C 109.9375 66.394531 128.972656 62.589844 128.972656 57.890625 Z M 128.972656 57.890625 "/>
<path style="fill:none;stroke-width:1.59404;stroke-linecap:butt;stroke-linejoin:miter;stroke:rgb(0%,0%,0%);stroke-opacity:1;stroke-miterlimit:10;" d="M 70.867313 51.0225 L 140.527469 51.0225 " transform="matrix(1,0,0,-1,86.453,114.585)"/>
<path style="fill:none;stroke-width:1.27522;stroke-linecap:round;stroke-linejoin:round;stroke:rgb(0%,0%,0%);stroke-opacity:1;stroke-miterlimit:10;" d="M -2.270593 3.02943 C -2.083093 1.892711 -0.00106125 0.189586 0.569251 -0.00182 C -0.00106125 -0.18932 -2.083093 -1.892445 -2.270593 -3.029164 " transform="matrix(1,0,0,-1,226.98153,63.56068)"/>
<g clip-path="url(#clip2)" clip-rule="nonzero">
<path style="fill:none;stroke-width:0.3985;stroke-linecap:butt;stroke-linejoin:miter;stroke:rgb(0%,0%,0%);stroke-opacity:1;stroke-miterlimit:10;" d="M 162.992313 3.983437 L 162.992313 109.401406 C 162.992313 111.604531 164.777469 113.385781 166.980594 113.385781 L 173.183719 113.385781 C 175.382938 113.385781 177.168094 111.604531 177.168094 109.401406 L 177.168094 3.983437 C 177.168094 1.784219 175.382938 -0.0009375 173.183719 -0.0009375 L 166.980594 -0.0009375 C 164.777469 -0.0009375 162.992313 1.784219 162.992313 3.983437 Z M 162.992313 3.983437 " transform="matrix(1,0,0,-1,86.453,114.585)"/>
</g>
<path style="fill-rule:nonzero;fill:rgb(0%,0%,0%);fill-opacity:0.3;stroke-width:0.3985;stroke-linecap:butt;stroke-linejoin:miter;stroke:rgb(0%,0%,0%);stroke-opacity:1;stroke-miterlimit:10;" d="M 162.992313 56.694375 L 162.992313 47.338906 L 177.168094 47.338906 L 177.168094 56.694375 Z M 162.992313 56.694375 " transform="matrix(1,0,0,-1,86.453,114.585)"/>
</g>
</svg>
