<?xml version="1.0" encoding="UTF-8"?>
<svg xmlns="http://www.w3.org/2000/svg" xmlns:xlink="http://www.w3.org/1999/xlink" width="172.88pt" height="172.4pt" viewBox="0 0 172.88 172.4" version="1.1">
<defs>
<clipPath id="clip1">
  <path d="M 0 0 L 172.878906 0 L 172.878906 172.398438 L 0 172.398438 Z M 0 0 "/>
</clipPath>
</defs>
<g id="surface1">
<path style=" stroke:none;fill-rule:nonzero;fill:rgb(0%,0%,0%);fill-opacity:0.2;" d="M 171.496094 86.238281 C 171.496094 39.273438 133.421875 1.199219 86.453125 1.199219 C 39.488281 1.199219 1.414062 39.273438 1.414062 86.238281 C 1.414062 133.207031 39.488281 171.28125 86.453125 171.28125 C 133.421875 171.28125 171.496094 133.207031 171.496094 86.238281 Z M 171.496094 86.238281 "/>
<g clip-path="url(#clip1)" clip-rule="nonzero">
<path style="fill:none;stroke-width:0.3985;stroke-linecap:butt;stroke-linejoin:miter;stroke:rgb(0%,0%,0%);stroke-opacity:1;stroke-miterlimit:10;" d="M 85.042094 0.00071875 C 85.042094 46.965562 46.967875 85.039781 -0.000875 85.039781 C -46.965719 85.039781 -85.039937 46.965562 -85.039937 0.00071875 C -85.039937 -46.968031 -46.965719 -85.04225 -0.000875 -85.04225 C 46.967875 -85.04225 85.042094 -46.968031 85.042094 0.00071875 Z M 85.042094 0.00071875 " transform="matrix(1,0,0,-1,86.454,86.239)"/>
</g>
<path style="fill-rule:nonzero;fill:rgb(100%,100%,100%);fill-opacity:1;stroke-width:0.3985;stroke-linecap:butt;stroke-linejoin:miter;stroke:rgb(0%,0%,0%);stroke-opacity:1;stroke-miterlimit:10;" d="M -42.520406 -21.261 L -42.520406 21.258531 L 42.518656 21.258531 L 42.518656 -21.261 Z M -42.520406 -21.261 " transform="matrix(1,0,0,-1,86.454,86.239)"/>
</g>
</svg>
