<?xml version="1.0" encoding="UTF-8"?>
<svg xmlns="http://www.w3.org/2000/svg" xmlns:xlink="http://www.w3.org/1999/xlink" width="247.76pt" height="7.76pt" viewBox="0 0 247.76 7.76" version="1.1">
<g id="surface1">
<path style=" stroke:none;fill-rule:nonzero;fill:rgb(0%,0%,0%);fill-opacity:1;" d="M 126.707031 3.882812 C 126.707031 2.316406 125.441406 1.046875 123.875 1.046875 C 122.308594 1.046875 121.039062 2.316406 121.039062 3.882812 C 121.039062 5.445312 122.308594 6.714844 123.875 6.714844 C 125.441406 6.714844 126.707031 5.445312 126.707031 3.882812 Z M 126.707031 3.882812 "/>
<path style=" stroke:none;fill-rule:nonzero;fill:rgb(0%,0%,0%);fill-opacity:1;" d="M 155.054688 3.882812 C 155.054688 2.316406 153.785156 1.046875 152.222656 1.046875 C 150.65625 1.046875 149.386719 2.316406 149.386719 3.882812 C 149.386719 5.445312 150.65625 6.714844 152.222656 6.714844 C 153.785156 6.714844 155.054688 5.445312 155.054688 3.882812 Z M 155.054688 3.882812 "/>
<path style="fill:none;stroke-width:0.79701;stroke-linecap:butt;stroke-linejoin:miter;stroke:rgb(100%,0%,0%);stroke-opacity:1;stroke-miterlimit:10;" d="M -113.385719 -0.0018125 L -122.034156 -0.0018125 " transform="matrix(1,0,0,-1,123.874,3.881)"/>
<path style="fill:none;stroke-width:0.6376;stroke-linecap:round;stroke-linejoin:round;stroke:rgb(100%,0%,0%);stroke-opacity:1;stroke-miterlimit:10;" d="M -1.554891 2.072125 C -1.425985 1.294781 -0.00020375 0.130719 0.390421 0.0018125 C -0.00020375 -0.131 -1.425985 -1.295062 -1.554891 -2.072406 " transform="matrix(-1,0,0,1,1.83964,3.881)"/>
<path style="fill:none;stroke-width:0.79701;stroke-linecap:butt;stroke-linejoin:miter;stroke:rgb(100%,0%,0%);stroke-opacity:1;stroke-miterlimit:10;" d="M -85.041969 -0.0018125 L -93.6865 -0.0018125 " transform="matrix(1,0,0,-1,123.874,3.881)"/>
<path style="fill:none;stroke-width:0.6376;stroke-linecap:round;stroke-linejoin:round;stroke:rgb(100%,0%,0%);stroke-opacity:1;stroke-miterlimit:10;" d="M -1.555738 2.072125 C -1.422925 1.294781 -0.00105 0.130719 0.389575 0.0018125 C -0.00105 -0.131 -1.422925 -1.295062 -1.555738 -2.072406 " transform="matrix(-1,0,0,1,30.18645,3.881)"/>
<path style="fill:none;stroke-width:0.79701;stroke-linecap:butt;stroke-linejoin:miter;stroke:rgb(100%,0%,0%);stroke-opacity:1;stroke-miterlimit:10;" d="M -56.694312 -0.0018125 L -65.338844 -0.0018125 " transform="matrix(1,0,0,-1,123.874,3.881)"/>
<path style="fill:none;stroke-width:0.6376;stroke-linecap:round;stroke-linejoin:round;stroke:rgb(100%,0%,0%);stroke-opacity:1;stroke-miterlimit:10;" d="M -1.552678 2.072125 C -1.423771 1.294781 -0.00189625 0.130719 0.388729 0.0018125 C -0.00189625 -0.131 -1.423771 -1.295062 -1.552678 -2.072406 " transform="matrix(-1,0,0,1,58.53326,3.881)"/>
<path style="fill:none;stroke-width:0.79701;stroke-linecap:butt;stroke-linejoin:miter;stroke:rgb(100%,0%,0%);stroke-opacity:1;stroke-miterlimit:10;" d="M -28.346656 -0.0018125 L -36.995094 -0.0018125 " transform="matrix(1,0,0,-1,123.874,3.881)"/>
<path style="fill:none;stroke-width:0.6376;stroke-linecap:round;stroke-linejoin:round;stroke:rgb(100%,0%,0%);stroke-opacity:1;stroke-miterlimit:10;" d="M -1.553524 2.072125 C -1.424618 1.294781 0.00116375 0.130719 0.387882 0.0018125 C 0.00116375 -0.131 -1.424618 -1.295062 -1.553524 -2.072406 " transform="matrix(-1,0,0,1,86.88007,3.881)"/>
<path style="fill:none;stroke-width:0.79701;stroke-linecap:butt;stroke-linejoin:miter;stroke:rgb(100%,0%,0%);stroke-opacity:1;stroke-miterlimit:10;" d="M 56.692406 -0.0018125 L 65.340844 -0.0018125 " transform="matrix(1,0,0,-1,123.874,3.881)"/>
<path style="fill:none;stroke-width:0.6376;stroke-linecap:round;stroke-linejoin:round;stroke:rgb(100%,0%,0%);stroke-opacity:1;stroke-miterlimit:10;" d="M -1.554584 2.072406 C -1.425678 1.295062 0.00010375 0.131 0.386822 -0.0018125 C 0.00010375 -0.130719 -1.425678 -1.294781 -1.554584 -2.072125 " transform="matrix(1,0,0,-1,189.21474,3.881)"/>
<path style="fill:none;stroke-width:0.79701;stroke-linecap:butt;stroke-linejoin:miter;stroke:rgb(100%,0%,0%);stroke-opacity:1;stroke-miterlimit:10;" d="M 85.040063 -0.0018125 L 93.6885 -0.0018125 " transform="matrix(1,0,0,-1,123.874,3.881)"/>
<path style="fill:none;stroke-width:0.6376;stroke-linecap:round;stroke-linejoin:round;stroke:rgb(100%,0%,0%);stroke-opacity:1;stroke-miterlimit:10;" d="M -1.553738 2.072406 C -1.424831 1.295062 0.00095 0.131 0.387669 -0.0018125 C 0.00095 -0.130719 -1.424831 -1.294781 -1.553738 -2.072125 " transform="matrix(1,0,0,-1,217.56155,3.881)"/>
<path style="fill:none;stroke-width:0.79701;stroke-linecap:butt;stroke-linejoin:miter;stroke:rgb(100%,0%,0%);stroke-opacity:1;stroke-miterlimit:10;" d="M 113.387719 -0.0018125 L 122.036156 -0.0018125 " transform="matrix(1,0,0,-1,123.874,3.881)"/>
<path style="fill:none;stroke-width:0.6376;stroke-linecap:round;stroke-linejoin:round;stroke:rgb(100%,0%,0%);stroke-opacity:1;stroke-miterlimit:10;" d="M -1.552891 2.072406 C -1.423985 1.295062 0.00179625 0.131 0.388515 -0.0018125 C 0.00179625 -0.130719 -1.423985 -1.294781 -1.552891 -2.072125 " transform="matrix(1,0,0,-1,245.90836,3.881)"/>
</g>
</svg>
