<?xml version="1.0" encoding="UTF-8"?>
<svg xmlns="http://www.w3.org/2000/svg" xmlns:xlink="http://www.w3.org/1999/xlink" width="493.04pt" height="144.56pt" viewBox="0 0 493.04 144.56" version="1.1">
<defs>
<clipPath id="clip1">
  <path d="M 397 1 L 493.039062 1 L 493.039062 144 L 397 144 Z M 397 1 "/>
</clipPath>
<clipPath id="clip2">
  <path d="M 397 1 L 493.039062 1 L 493.039062 144 L 397 144 Z M 397 1 "/>
</clipPath>
</defs>
<g id="surface1">
<path style="fill:none;stroke-width:0.79701;stroke-linecap:butt;stroke-linejoin:miter;stroke:rgb(100%,0%,0%);stroke-opacity:1;stroke-miterlimit:10;" d="M -56.693187 70.865375 L -29.052562 70.865375 " transform="matrix(1,0,0,-1,57.826,143.131)"/>
<path style="fill:none;stroke-width:0.6376;stroke-linecap:round;stroke-linejoin:round;stroke:rgb(100%,0%,0%);stroke-opacity:1;stroke-miterlimit:10;" d="M -1.55308 2.072594 C -1.424174 1.29525 0.0016075 0.131187 0.388326 -0.001625 C 0.0016075 -0.130531 -1.424174 -1.294594 -1.55308 -2.071938 " transform="matrix(1,0,0,-1,28.77183,72.264)"/>
<path style="fill:none;stroke-width:0.79701;stroke-linecap:butt;stroke-linejoin:miter;stroke:rgb(100%,0%,0%);stroke-opacity:1;stroke-miterlimit:10;" d="M -0.00178125 -0.0018125 L -0.00178125 141.732562 L 255.123219 141.732562 L 255.123219 -0.0018125 Z M -0.00178125 -0.0018125 " transform="matrix(1,0,0,-1,57.826,143.131)"/>
<path style="fill-rule:nonzero;fill:rgb(0%,0%,0%);fill-opacity:0.2;stroke-width:0.3985;stroke-linecap:butt;stroke-linejoin:miter;stroke:rgb(0%,0%,0%);stroke-opacity:1;stroke-miterlimit:10;" d="M 85.037281 -0.0018125 L 85.037281 141.732562 L -0.00178125 141.732562 L -0.00178125 -0.0018125 Z M 85.037281 -0.0018125 " transform="matrix(1,0,0,-1,57.826,143.131)"/>
<path style="fill:none;stroke-width:0.3985;stroke-linecap:butt;stroke-linejoin:miter;stroke:rgb(0%,0%,0%);stroke-opacity:1;stroke-miterlimit:10;" d="M 170.08025 -0.0018125 L 170.08025 141.732562 " transform="matrix(1,0,0,-1,57.826,143.131)"/>
<path style="fill-rule:nonzero;fill:rgb(0%,0%,0%);fill-opacity:0.2;stroke-width:0.3985;stroke-linecap:butt;stroke-linejoin:miter;stroke:rgb(0%,0%,0%);stroke-opacity:1;stroke-miterlimit:10;" d="M 113.384938 -0.0018125 L 113.384938 141.732562 L -0.00178125 141.732562 L -0.00178125 -0.0018125 Z M 113.384938 -0.0018125 " transform="matrix(1,0,0,-1,57.826,143.131)"/>
<path style="fill:none;stroke-width:0.3985;stroke-linecap:butt;stroke-linejoin:miter;stroke:rgb(0%,0%,0%);stroke-opacity:1;stroke-miterlimit:10;" d="M 141.732594 -0.0018125 L 141.732594 141.732562 " transform="matrix(1,0,0,-1,57.826,143.131)"/>
<path style="fill-rule:nonzero;fill:rgb(0%,0%,0%);fill-opacity:0.2;stroke-width:0.3985;stroke-linecap:butt;stroke-linejoin:miter;stroke:rgb(0%,0%,0%);stroke-opacity:1;stroke-miterlimit:10;" d="M 122.834156 -0.0018125 L 122.834156 141.732562 L -0.00178125 141.732562 L -0.00178125 -0.0018125 Z M 122.834156 -0.0018125 " transform="matrix(1,0,0,-1,57.826,143.131)"/>
<path style="fill:none;stroke-width:0.3985;stroke-linecap:butt;stroke-linejoin:miter;stroke:rgb(0%,0%,0%);stroke-opacity:1;stroke-miterlimit:10;" d="M 132.287281 -0.0018125 L 132.287281 141.732562 " transform="matrix(1,0,0,-1,57.826,143.131)"/>
<path style="fill:none;stroke-width:0.79701;stroke-linecap:butt;stroke-linejoin:miter;stroke:rgb(100%,0%,0%);stroke-opacity:1;stroke-miterlimit:10;" d="M 283.466969 70.865375 L 311.107594 70.865375 " transform="matrix(1,0,0,-1,57.826,143.131)"/>
<path style="fill:none;stroke-width:0.6376;stroke-linecap:round;stroke-linejoin:round;stroke:rgb(100%,0%,0%);stroke-opacity:1;stroke-miterlimit:10;" d="M -1.554634 2.072594 C -1.425727 1.29525 0.00005375 0.131187 0.386773 -0.001625 C 0.00005375 -0.130531 -1.425727 -1.294594 -1.554634 -2.071938 " transform="matrix(1,0,0,-1,368.93354,72.264)"/>
<g clip-path="url(#clip1)" clip-rule="nonzero">
<path style="fill:none;stroke-width:0.79701;stroke-linecap:butt;stroke-linejoin:miter;stroke:rgb(100%,0%,0%);stroke-opacity:1;stroke-miterlimit:10;" d="M 340.162281 -0.0018125 L 340.162281 141.732562 L 595.283375 141.732562 L 595.283375 -0.0018125 Z M 340.162281 -0.0018125 " transform="matrix(1,0,0,-1,57.826,143.131)"/>
</g>
<path style="fill-rule:nonzero;fill:rgb(0%,0%,0%);fill-opacity:0.2;stroke-width:0.3985;stroke-linecap:butt;stroke-linejoin:miter;stroke:rgb(0%,0%,0%);stroke-opacity:1;stroke-miterlimit:10;" d="M 425.201344 -0.0018125 L 425.201344 141.732562 L 340.162281 141.732562 L 340.162281 -0.0018125 Z M 425.201344 -0.0018125 " transform="matrix(1,0,0,-1,57.826,143.131)"/>
<g clip-path="url(#clip2)" clip-rule="nonzero">
<path style="fill-rule:nonzero;fill:rgb(0%,0%,0%);fill-opacity:0.2;stroke-width:0.3985;stroke-linecap:butt;stroke-linejoin:miter;stroke:rgb(0%,0%,0%);stroke-opacity:1;stroke-miterlimit:10;" d="M 453.549 -0.0018125 L 453.549 141.732562 L 340.162281 141.732562 L 340.162281 -0.0018125 Z M 453.549 -0.0018125 " transform="matrix(1,0,0,-1,57.826,143.131)"/>
<path style="fill-rule:nonzero;fill:rgb(0%,0%,0%);fill-opacity:0.2;stroke-width:0.3985;stroke-linecap:butt;stroke-linejoin:miter;stroke:rgb(0%,0%,0%);stroke-opacity:1;stroke-miterlimit:10;" d="M 462.998219 -0.0018125 L 462.998219 141.732562 L 340.162281 141.732562 L 340.162281 -0.0018125 Z M 462.998219 -0.0018125 " transform="matrix(1,0,0,-1,57.826,143.131)"/>
<path style="fill-rule:nonzero;fill:rgb(0%,0%,0%);fill-opacity:0.2;stroke-width:0.3985;stroke-linecap:butt;stroke-linejoin:miter;stroke:rgb(0%,0%,0%);stroke-opacity:1;stroke-miterlimit:10;" d="M 466.146656 -0.0018125 L 466.146656 141.732562 L 340.162281 141.732562 L 340.162281 -0.0018125 Z M 466.146656 -0.0018125 " transform="matrix(1,0,0,-1,57.826,143.131)"/>
</g>
</g>
</svg>
