<?xml version="1.0" encoding="UTF-8"?>
<svg xmlns="http://www.w3.org/2000/svg" xmlns:xlink="http://www.w3.org/1999/xlink" width="342.8pt" height="122.96pt" viewBox="0 0 342.8 122.96" version="1.1">
<defs>
<clipPath id="clip1">
  <path d="M 165 0 L 342.800781 0 L 342.800781 122.960938 L 165 122.960938 Z M 165 0 "/>
</clipPath>
<clipPath id="clip2">
  <path d="M 0 0 L 178 0 L 178 122.960938 L 0 122.960938 Z M 0 0 "/>
</clipPath>
</defs>
<g id="surface1">
<g clip-path="url(#clip1)" clip-rule="nonzero">
<path style="fill:none;stroke-width:0.3985;stroke-linecap:butt;stroke-linejoin:miter;stroke:rgb(0%,0%,0%);stroke-opacity:1;stroke-miterlimit:10;" d="M -0.001875 0.00140625 L 1.716875 -0.0454688 L 3.435625 -0.174375 L 5.154375 -0.389219 L 6.869219 -0.69 L 8.587969 -1.076719 L 10.306719 -1.541563 L 12.021563 -2.088438 L 13.740313 -2.713438 L 15.459063 -3.40875 L 17.177813 -4.182188 L 18.892656 -5.018125 L 20.611406 -5.920469 L 22.330156 -6.885313 L 24.045 -7.904844 L 25.76375 -8.975156 L 27.4825 -10.092344 L 29.20125 -11.248594 L 30.916094 -12.443906 L 32.634844 -13.670469 L 34.353594 -14.920469 L 36.068438 -16.19 L 37.787188 -17.475156 L 39.505938 -18.764219 L 41.220781 -20.053281 L 42.939531 -21.342344 L 44.658281 -22.615781 L 46.377031 -23.869688 L 48.091875 -25.104063 L 49.810625 -26.307188 L 51.529375 -27.47125 L 53.244219 -28.592344 L 54.962969 -29.666563 L 56.681719 -30.686094 L 58.400469 -31.643125 L 60.115313 -32.537656 L 61.834063 -33.357969 L 63.552813 -34.100156 L 65.267656 -34.764219 L 66.986406 -35.338438 L 68.705156 -35.818906 L 70.42 -36.209531 L 72.13875 -36.494688 L 73.8575 -36.678281 L 75.57625 -36.756406 L 77.291094 -36.725156 L 79.009844 -36.580625 L 80.728594 -36.318906 L 82.443438 -35.943906 L 84.162188 -35.447813 L 85.880938 -34.834531 L 87.599688 -34.09625 L 89.314531 -33.240781 L 91.033281 -32.260313 L 92.752031 -31.162656 L 94.466875 -29.943906 L 96.185625 -28.600156 L 97.904375 -27.143125 L 99.623125 -25.568906 L 101.337969 -23.881406 L 103.056719 -22.080625 L 104.775469 -20.174375 L 106.490313 -18.15875 L 108.209063 -16.041563 L 109.927813 -13.826719 L 111.642656 -11.514219 L 113.361406 -9.115781 L 115.080156 -6.6275 L 116.798906 -4.065 L 118.51375 -1.420469 L 120.2325 1.290469 L 121.95125 4.067812 L 123.666094 6.899844 L 125.384844 9.790469 L 127.103594 12.724062 L 128.822344 15.700625 L 130.537188 18.712344 L 132.255938 21.751406 L 133.974688 24.81 L 135.689531 27.888125 L 137.408281 30.974062 L 140.845781 37.15375 L 142.560625 40.231875 L 144.279375 43.294375 L 145.998125 46.337344 L 147.712969 49.352969 L 149.431719 52.333437 L 151.150469 55.27875 L 152.865313 58.181094 L 154.584063 61.036562 L 156.302813 63.837344 L 158.021563 66.579531 L 159.736406 69.263125 L 161.455156 71.880312 L 163.173906 74.427187 L 164.88875 76.899844 L 166.6075 79.298281 L 168.32625 81.6225 L 170.045 83.860781 " transform="matrix(1,0,0,-1,171.455,85.06)"/>
</g>
<g clip-path="url(#clip2)" clip-rule="nonzero">
<path style="fill:none;stroke-width:0.3985;stroke-linecap:butt;stroke-linejoin:miter;stroke:rgb(0%,0%,0%);stroke-opacity:1;stroke-miterlimit:10;" d="M -0.001875 0.00140625 L -1.716719 -0.0454688 L -3.435469 -0.174375 L -5.154219 -0.389219 L -6.869062 -0.69 L -8.587812 -1.076719 L -10.306562 -1.541563 L -12.021406 -2.088438 L -13.740156 -2.713438 L -15.458906 -3.40875 L -17.177656 -4.182188 L -18.8925 -5.018125 L -20.61125 -5.920469 L -22.33 -6.885313 L -24.044844 -7.904844 L -25.763594 -8.975156 L -27.482344 -10.092344 L -29.201094 -11.248594 L -30.915937 -12.443906 L -32.634687 -13.670469 L -34.353437 -14.920469 L -36.068281 -16.19 L -37.787031 -17.475156 L -41.224531 -20.053281 L -42.939375 -21.342344 L -44.658125 -22.615781 L -46.376875 -23.869688 L -48.091719 -25.104063 L -49.810469 -26.307188 L -51.529219 -27.47125 L -53.244062 -28.592344 L -54.962812 -29.666563 L -56.681562 -30.686094 L -58.400312 -31.643125 L -60.115156 -32.537656 L -61.833906 -33.357969 L -63.552656 -34.100156 L -65.2675 -34.764219 L -66.98625 -35.338438 L -68.705 -35.818906 L -70.42375 -36.209531 L -72.138594 -36.494688 L -73.857344 -36.678281 L -75.576094 -36.756406 L -77.290937 -36.725156 L -79.009687 -36.580625 L -80.728437 -36.318906 L -82.443281 -35.943906 L -84.162031 -35.447813 L -85.880781 -34.834531 L -87.599531 -34.09625 L -89.314375 -33.240781 L -91.033125 -32.260313 L -92.751875 -31.162656 L -94.466719 -29.943906 L -96.185469 -28.600156 L -97.904219 -27.143125 L -99.622969 -25.568906 L -101.337812 -23.881406 L -103.056562 -22.080625 L -104.775312 -20.174375 L -106.490156 -18.15875 L -108.208906 -16.041563 L -109.927656 -13.826719 L -111.646406 -11.514219 L -113.36125 -9.115781 L -115.08 -6.6275 L -116.79875 -4.065 L -118.513594 -1.420469 L -120.232344 1.290469 L -121.951094 4.067812 L -123.665937 6.899844 L -125.384687 9.790469 L -127.103437 12.724062 L -128.822187 15.700625 L -130.537031 18.712344 L -132.255781 21.751406 L -133.974531 24.81 L -135.689375 27.888125 L -137.408125 30.974062 L -140.845625 37.15375 L -142.560469 40.231875 L -144.279219 43.294375 L -145.997969 46.337344 L -147.712812 49.352969 L -149.431562 52.333437 L -151.150312 55.27875 L -152.869062 58.181094 L -154.583906 61.036562 L -156.302656 63.837344 L -158.021406 66.579531 L -159.73625 69.263125 L -161.455 71.880312 L -163.17375 74.427187 L -164.888594 76.899844 L -166.607344 79.298281 L -168.326094 81.6225 L -170.044844 83.860781 " transform="matrix(1,0,0,-1,171.455,85.06)"/>
</g>
</g>
</svg>
