<?xml version="1.0" encoding="UTF-8"?>
<svg xmlns="http://www.w3.org/2000/svg" xmlns:xlink="http://www.w3.org/1999/xlink" width="88.4pt" height="74.96pt" viewBox="0 0 88.4 74.96" version="1.1">
<defs>
<clipPath id="clip1">
  <path d="M 0 0 L 88.398438 0 L 88.398438 74.960938 L 0 74.960938 Z M 0 0 "/>
</clipPath>
</defs>
<g id="surface1">
<g clip-path="url(#clip1)" clip-rule="nonzero">
<path style="fill:none;stroke-width:0.79701;stroke-linecap:butt;stroke-linejoin:miter;stroke:rgb(0%,0%,0%);stroke-opacity:1;stroke-miterlimit:10;" d="M -56.692719 57.578562 L -53.14975 36.488719 L -49.606781 20.430125 L -46.063812 8.527781 L -42.520844 0.0004375 L -38.977875 -5.86675 L -35.434906 -9.687063 L -31.891937 -12.011281 L -28.345062 -13.288625 L -24.802094 -13.894094 L -21.259125 -14.11675 L -17.716156 -14.171438 L -10.630219 -14.171438 L -7.08725 -14.11675 L -3.544281 -13.894094 L -0.0013125 -13.288625 L 3.541656 -12.011281 L 7.088531 -9.687063 L 10.6315 -5.86675 L 14.174469 0.0004375 L 17.717438 8.527781 L 21.260406 20.430125 L 24.803375 36.488719 L 28.346344 57.578562 " transform="matrix(1,0,0,-1,58.306,58.977)"/>
</g>
</g>
</svg>
