<?xml version="1.0" encoding="UTF-8"?>
<svg xmlns="http://www.w3.org/2000/svg" xmlns:xlink="http://www.w3.org/1999/xlink" width="119.12pt" height="119.12pt" viewBox="0 0 119.12 119.12" version="1.1">
<defs>
<clipPath id="clip1">
  <path d="M 18 0 L 119.121094 0 L 119.121094 101 L 18 101 Z M 18 0 "/>
</clipPath>
</defs>
<g id="surface1">
<path style="fill-rule:nonzero;fill:rgb(0%,0%,100%);fill-opacity:0.5;stroke-width:0.79701;stroke-linecap:butt;stroke-linejoin:miter;stroke:rgb(0%,0%,0%);stroke-opacity:1;stroke-miterlimit:10;" d="M 28.346281 0.00078125 L 28.346281 28.348437 L 56.693938 28.348437 L 56.693938 0.00078125 Z M 28.346281 0.00078125 " transform="matrix(1,0,0,-1,-26.733,117.7)"/>
<path style=" stroke:none;fill-rule:nonzero;fill:rgb(0%,0%,0%);fill-opacity:1;" d="M 32.796875 89.351562 C 32.796875 87.789062 31.527344 86.519531 29.960938 86.519531 C 28.394531 86.519531 27.125 87.789062 27.125 89.351562 C 27.125 90.917969 28.394531 92.1875 29.960938 92.1875 C 31.527344 92.1875 32.796875 90.917969 32.796875 89.351562 Z M 32.796875 89.351562 "/>
<path style="fill-rule:nonzero;fill:rgb(0%,0%,100%);fill-opacity:0.5;stroke-width:0.79701;stroke-linecap:butt;stroke-linejoin:miter;stroke:rgb(0%,0%,0%);stroke-opacity:1;stroke-miterlimit:10;" d="M 56.693938 0.00078125 L 56.693938 56.692187 L 85.041594 56.692187 L 85.041594 0.00078125 Z M 56.693938 0.00078125 " transform="matrix(1,0,0,-1,-26.733,117.7)"/>
<path style=" stroke:none;fill-rule:nonzero;fill:rgb(0%,0%,0%);fill-opacity:1;" d="M 61.140625 61.007812 C 61.140625 59.441406 59.871094 58.171875 58.308594 58.171875 C 56.742188 58.171875 55.472656 59.441406 55.472656 61.007812 C 55.472656 62.570312 56.742188 63.839844 58.308594 63.839844 C 59.871094 63.839844 61.140625 62.570312 61.140625 61.007812 Z M 61.140625 61.007812 "/>
<path style="fill-rule:nonzero;fill:rgb(0%,0%,100%);fill-opacity:0.5;stroke-width:0.79701;stroke-linecap:butt;stroke-linejoin:miter;stroke:rgb(0%,0%,0%);stroke-opacity:1;stroke-miterlimit:10;" d="M 85.041594 0.00078125 L 85.041594 85.039844 L 113.385344 85.039844 L 113.385344 0.00078125 Z M 85.041594 0.00078125 " transform="matrix(1,0,0,-1,-26.733,117.7)"/>
<path style=" stroke:none;fill-rule:nonzero;fill:rgb(0%,0%,0%);fill-opacity:1;" d="M 89.488281 32.660156 C 89.488281 31.09375 88.21875 29.824219 86.652344 29.824219 C 85.089844 29.824219 83.820312 31.09375 83.820312 32.660156 C 83.820312 34.226562 85.089844 35.496094 86.652344 35.496094 C 88.21875 35.496094 89.488281 34.226562 89.488281 32.660156 Z M 89.488281 32.660156 "/>
<path style="fill-rule:nonzero;fill:rgb(0%,0%,100%);fill-opacity:0.5;stroke-width:0.79701;stroke-linecap:butt;stroke-linejoin:miter;stroke:rgb(0%,0%,0%);stroke-opacity:1;stroke-miterlimit:10;" d="M 113.385344 0.00078125 L 113.385344 113.3875 L 141.733 113.3875 L 141.733 0.00078125 Z M 113.385344 0.00078125 " transform="matrix(1,0,0,-1,-26.733,117.7)"/>
<path style=" stroke:none;fill-rule:nonzero;fill:rgb(0%,0%,0%);fill-opacity:1;" d="M 117.835938 4.3125 C 117.835938 2.746094 116.566406 1.476562 115 1.476562 C 113.433594 1.476562 112.167969 2.746094 112.167969 4.3125 C 112.167969 5.878906 113.433594 7.148438 115 7.148438 C 116.566406 7.148438 117.835938 5.878906 117.835938 4.3125 Z M 117.835938 4.3125 "/>
<g clip-path="url(#clip1)" clip-rule="nonzero">
<path style="fill:none;stroke-width:0.79701;stroke-linecap:butt;stroke-linejoin:miter;stroke:rgb(0%,0%,0%);stroke-opacity:1;stroke-miterlimit:10;" d="M 56.693938 28.348437 L 141.733 113.3875 " transform="matrix(1,0,0,-1,-26.733,117.7)"/>
</g>
</g>
</svg>
