<?xml version="1.0" encoding="UTF-8"?>
<svg xmlns="http://www.w3.org/2000/svg" xmlns:xlink="http://www.w3.org/1999/xlink" width="198.32pt" height="254.48pt" viewBox="0 0 198.32 254.48" version="1.1">
<defs>
<clipPath id="clip1">
  <path d="M 0 229 L 38 229 L 38 254.480469 L 0 254.480469 Z M 0 229 "/>
</clipPath>
<clipPath id="clip2">
  <path d="M 18 229 L 53 229 L 53 254.480469 L 18 254.480469 Z M 18 229 "/>
</clipPath>
<clipPath id="clip3">
  <path d="M 47 229 L 73 229 L 73 254.480469 L 47 254.480469 Z M 47 229 "/>
</clipPath>
<clipPath id="clip4">
  <path d="M 103 229 L 129 229 L 129 254.480469 L 103 254.480469 Z M 103 229 "/>
</clipPath>
<clipPath id="clip5">
  <path d="M 132 229 L 166 229 L 166 254.480469 L 132 254.480469 Z M 132 229 "/>
</clipPath>
<clipPath id="clip6">
  <path d="M 160 229 L 198.320312 229 L 198.320312 254.480469 L 160 254.480469 Z M 160 229 "/>
</clipPath>
<clipPath id="clip7">
  <path d="M 160 200 L 198.320312 200 L 198.320312 232 L 160 232 Z M 160 200 "/>
</clipPath>
<clipPath id="clip8">
  <path d="M 160 172 L 198.320312 172 L 198.320312 201 L 160 201 Z M 160 172 "/>
</clipPath>
<clipPath id="clip9">
  <path d="M 160 144 L 198.320312 144 L 198.320312 170 L 160 170 Z M 160 144 "/>
</clipPath>
<clipPath id="clip10">
  <path d="M 160 84 L 198.320312 84 L 198.320312 111 L 160 111 Z M 160 84 "/>
</clipPath>
<clipPath id="clip11">
  <path d="M 160 53 L 198.320312 53 L 198.320312 82 L 160 82 Z M 160 53 "/>
</clipPath>
<clipPath id="clip12">
  <path d="M 160 22 L 198.320312 22 L 198.320312 54 L 160 54 Z M 160 22 "/>
</clipPath>
<clipPath id="clip13">
  <path d="M 160 0 L 198.320312 0 L 198.320312 25 L 160 25 Z M 160 0 "/>
</clipPath>
</defs>
<g id="surface1">
<g clip-path="url(#clip1)" clip-rule="nonzero">
<path style="fill:none;stroke-width:0.79701;stroke-linecap:butt;stroke-linejoin:miter;stroke:rgb(100%,0%,0%);stroke-opacity:1;stroke-miterlimit:10;" d="M -85.039719 -113.38575 L -60.176437 -124.440438 " transform="matrix(1,0,0,-1,86.653,127.083)"/>
</g>
<path style="fill:none;stroke-width:0.6376;stroke-linecap:round;stroke-linejoin:round;stroke:rgb(100%,0%,0%);stroke-opacity:1;stroke-miterlimit:10;" d="M -1.555456 2.072335 C -1.424567 1.296926 0.00012425 0.130442 0.387631 -0.000841602 C 0.000521144 -0.130143 -1.426945 -1.294646 -1.555055 -2.074022 " transform="matrix(0.91379,0.40613,0.40613,-0.91379,26.47816,251.52149)"/>
<path style="fill:none;stroke-width:0.79701;stroke-linecap:butt;stroke-linejoin:miter;stroke:rgb(100%,0%,0%);stroke-opacity:1;stroke-miterlimit:10;" d="M -85.039719 -85.042 L -60.199875 -93.319344 " transform="matrix(1,0,0,-1,86.653,127.083)"/>
<path style="fill:none;stroke-width:0.6376;stroke-linecap:round;stroke-linejoin:round;stroke:rgb(100%,0%,0%);stroke-opacity:1;stroke-miterlimit:10;" d="M -1.556096 2.072983 C -1.423919 1.293494 0.00163894 0.129816 0.387059 -0.00112981 C 0.00163812 -0.129602 -1.425163 -1.296977 -1.553639 -2.072759 " transform="matrix(0.94864,0.31621,0.31621,-0.94864,26.45349,220.40388)"/>
<path style="fill:none;stroke-width:0.79701;stroke-linecap:butt;stroke-linejoin:miter;stroke:rgb(100%,0%,0%);stroke-opacity:1;stroke-miterlimit:10;" d="M -85.039719 -56.694344 L -60.219406 -62.209969 " transform="matrix(1,0,0,-1,86.653,127.083)"/>
<path style="fill:none;stroke-width:0.6376;stroke-linecap:round;stroke-linejoin:round;stroke:rgb(100%,0%,0%);stroke-opacity:1;stroke-miterlimit:10;" d="M -1.553194 2.071428 C -1.424831 1.295602 -0.000757195 0.127376 0.387363 0.00152135 C 0.0000827409 -0.128548 -1.425754 -1.293724 -1.553315 -2.070391 " transform="matrix(0.97614,0.21689,0.21689,-0.97614,26.43405,189.29247)"/>
<path style="fill:none;stroke-width:0.79701;stroke-linecap:butt;stroke-linejoin:miter;stroke:rgb(100%,0%,0%);stroke-opacity:1;stroke-miterlimit:10;" d="M -85.039719 -28.346688 L -60.231125 -31.1045 " transform="matrix(1,0,0,-1,86.653,127.083)"/>
<path style="fill:none;stroke-width:0.6376;stroke-linecap:round;stroke-linejoin:round;stroke:rgb(100%,0%,0%);stroke-opacity:1;stroke-miterlimit:10;" d="M -1.55423 2.070651 C -1.424827 1.295012 0.0017542 0.128943 0.38957 -0.000911902 C -0.000838721 -0.130753 -1.42401 -1.295046 -1.553872 -2.071974 " transform="matrix(0.99385,0.11041,0.11041,-0.99385,26.42152,158.18655)"/>
<path style="fill:none;stroke-width:0.79701;stroke-linecap:butt;stroke-linejoin:miter;stroke:rgb(100%,0%,0%);stroke-opacity:1;stroke-miterlimit:10;" d="M -85.039719 0.00096875 L -60.235031 0.00096875 " transform="matrix(1,0,0,-1,86.653,127.083)"/>
<path style="fill:none;stroke-width:0.6376;stroke-linecap:round;stroke-linejoin:round;stroke:rgb(100%,0%,0%);stroke-opacity:1;stroke-miterlimit:10;" d="M -1.553899 2.071281 C -1.424992 1.293937 0.00078875 0.129875 0.387508 0.00096875 C 0.00078875 -0.127938 -1.424992 -1.295906 -1.553899 -2.07325 " transform="matrix(1,0,0,-1,26.41718,127.083)"/>
<path style="fill:none;stroke-width:0.79701;stroke-linecap:butt;stroke-linejoin:miter;stroke:rgb(100%,0%,0%);stroke-opacity:1;stroke-miterlimit:10;" d="M -85.039719 28.348625 L -60.231125 31.102531 " transform="matrix(1,0,0,-1,86.653,127.083)"/>
<path style="fill:none;stroke-width:0.6376;stroke-linecap:round;stroke-linejoin:round;stroke:rgb(100%,0%,0%);stroke-opacity:1;stroke-miterlimit:10;" d="M -1.553658 2.0739 C -1.423796 1.296971 -0.00105611 0.128796 0.389353 -0.00104488 C 0.00153681 -0.1309 -1.425045 -1.296968 -1.554448 -2.072607 " transform="matrix(0.99385,-0.11041,-0.11041,-0.99385,26.42152,95.97945)"/>
<path style="fill:none;stroke-width:0.79701;stroke-linecap:butt;stroke-linejoin:miter;stroke:rgb(100%,0%,0%);stroke-opacity:1;stroke-miterlimit:10;" d="M -85.039719 56.692375 L -60.219406 62.208 " transform="matrix(1,0,0,-1,86.653,127.083)"/>
<path style="fill:none;stroke-width:0.6376;stroke-linecap:round;stroke-linejoin:round;stroke:rgb(100%,0%,0%);stroke-opacity:1;stroke-miterlimit:10;" d="M -1.552895 2.072282 C -1.425334 1.295615 0.000503011 0.130439 0.387783 0.000370125 C -0.00118424 -0.129298 -1.42441 -1.29371 -1.553621 -2.07335 " transform="matrix(0.97614,-0.21689,-0.21689,-0.97614,26.43405,64.87353)"/>
<path style="fill:none;stroke-width:0.79701;stroke-linecap:butt;stroke-linejoin:miter;stroke:rgb(100%,0%,0%);stroke-opacity:1;stroke-miterlimit:10;" d="M -85.039719 85.040031 L -60.199875 93.321281 " transform="matrix(1,0,0,-1,86.653,127.083)"/>
<path style="fill:none;stroke-width:0.6376;stroke-linecap:round;stroke-linejoin:round;stroke:rgb(100%,0%,0%);stroke-opacity:1;stroke-miterlimit:10;" d="M -1.554262 2.070892 C -1.425786 1.295109 0.00101553 0.127734 0.386437 -0.000737995 C 0.00101635 -0.131683 -1.424542 -1.295362 -1.555484 -2.071144 " transform="matrix(0.94864,-0.31621,-0.31621,-0.94864,26.45349,33.76212)"/>
<path style="fill:none;stroke-width:0.79701;stroke-linecap:butt;stroke-linejoin:miter;stroke:rgb(100%,0%,0%);stroke-opacity:1;stroke-miterlimit:10;" d="M -85.039719 113.387687 L -60.176437 124.438469 " transform="matrix(1,0,0,-1,86.653,127.083)"/>
<path style="fill:none;stroke-width:0.6376;stroke-linecap:round;stroke-linejoin:round;stroke:rgb(100%,0%,0%);stroke-opacity:1;stroke-miterlimit:10;" d="M -1.555855 2.072223 C -1.426158 1.296417 -0.000278462 0.128344 0.386831 -0.000957506 C 0.000911164 -0.128672 -1.423781 -1.295155 -1.554669 -2.070564 " transform="matrix(0.91379,-0.40613,-0.40613,-0.91379,26.47816,2.64451)"/>
<g clip-path="url(#clip2)" clip-rule="nonzero">
<path style="fill:none;stroke-width:0.79701;stroke-linecap:butt;stroke-linejoin:miter;stroke:rgb(100%,0%,0%);stroke-opacity:1;stroke-miterlimit:10;" d="M -56.692062 -113.38575 L -45.856125 -124.225594 " transform="matrix(1,0,0,-1,86.653,127.083)"/>
</g>
<path style="fill:none;stroke-width:0.6376;stroke-linecap:round;stroke-linejoin:round;stroke:rgb(100%,0%,0%);stroke-opacity:1;stroke-miterlimit:10;" d="M -1.552958 2.070993 C -1.423137 1.294826 0.00213902 0.129193 0.388842 0.00213372 C -0.000623144 -0.127688 -1.423137 -1.296083 -1.552958 -2.07225 " transform="matrix(0.7071,0.7071,0.7071,-0.7071,40.79776,251.30859)"/>
<path style="fill:none;stroke-width:0.79701;stroke-linecap:butt;stroke-linejoin:miter;stroke:rgb(100%,0%,0%);stroke-opacity:1;stroke-miterlimit:10;" d="M -56.692062 -85.042 L -45.922531 -93.120125 " transform="matrix(1,0,0,-1,86.653,127.083)"/>
<path style="fill:none;stroke-width:0.6376;stroke-linecap:round;stroke-linejoin:round;stroke:rgb(100%,0%,0%);stroke-opacity:1;stroke-miterlimit:10;" d="M -1.555274 2.070953 C -1.423231 1.295931 -0.00208262 0.130285 0.389337 -0.000964886 C 0.00260763 -0.129879 -1.424767 -1.293209 -1.552888 -2.072921 " transform="matrix(0.79997,0.59999,0.59999,-0.79997,40.73209,220.20313)"/>
<path style="fill:none;stroke-width:0.79701;stroke-linecap:butt;stroke-linejoin:miter;stroke:rgb(100%,0%,0%);stroke-opacity:1;stroke-miterlimit:10;" d="M -56.692062 -56.694344 L -45.988937 -62.045906 " transform="matrix(1,0,0,-1,86.653,127.083)"/>
<path style="fill:none;stroke-width:0.6376;stroke-linecap:round;stroke-linejoin:round;stroke:rgb(100%,0%,0%);stroke-opacity:1;stroke-miterlimit:10;" d="M -1.552781 2.072076 C -1.425252 1.292883 0.000344405 0.127576 0.388192 -0.00171029 C -0.00140498 -0.13099 -1.423528 -1.296271 -1.554565 -2.073715 " transform="matrix(0.89436,0.44717,0.44717,-0.89436,40.6653,189.12957)"/>
<path style="fill:none;stroke-width:0.79701;stroke-linecap:butt;stroke-linejoin:miter;stroke:rgb(100%,0%,0%);stroke-opacity:1;stroke-miterlimit:10;" d="M -56.692062 -28.346688 L -46.039719 -31.01075 " transform="matrix(1,0,0,-1,86.653,127.083)"/>
<path style="fill:none;stroke-width:0.6376;stroke-linecap:round;stroke-linejoin:round;stroke:rgb(100%,0%,0%);stroke-opacity:1;stroke-miterlimit:10;" d="M -1.554934 2.070843 C -1.425143 1.29395 0.00167357 0.128598 0.388223 -0.000255707 C 0.00167107 -0.129102 -1.426116 -1.295374 -1.554026 -2.072264 " transform="matrix(0.97012,0.24252,0.24252,-0.97012,40.61172,158.0931)"/>
<path style="fill:none;stroke-width:0.79701;stroke-linecap:butt;stroke-linejoin:miter;stroke:rgb(100%,0%,0%);stroke-opacity:1;stroke-miterlimit:10;" d="M -56.692062 0.00096875 L -46.063156 0.00096875 " transform="matrix(1,0,0,-1,86.653,127.083)"/>
<path style="fill:none;stroke-width:0.6376;stroke-linecap:round;stroke-linejoin:round;stroke:rgb(100%,0%,0%);stroke-opacity:1;stroke-miterlimit:10;" d="M -1.555434 2.071281 C -1.426527 1.293937 -0.00074625 0.129875 0.389879 0.00096875 C -0.00074625 -0.127938 -1.426527 -1.295906 -1.555434 -2.07325 " transform="matrix(1,0,0,-1,40.59059,127.083)"/>
<path style="fill:none;stroke-width:0.79701;stroke-linecap:butt;stroke-linejoin:miter;stroke:rgb(100%,0%,0%);stroke-opacity:1;stroke-miterlimit:10;" d="M -56.692062 28.348625 L -46.039719 31.008781 " transform="matrix(1,0,0,-1,86.653,127.083)"/>
<path style="fill:none;stroke-width:0.6376;stroke-linecap:round;stroke-linejoin:round;stroke:rgb(100%,0%,0%);stroke-opacity:1;stroke-miterlimit:10;" d="M -1.554504 2.070354 C -1.425646 1.297253 0.00119359 0.127192 0.387746 -0.00165431 C 0.00119609 -0.130508 -1.425621 -1.29586 -1.555411 -2.072753 " transform="matrix(0.97012,-0.24252,-0.24252,-0.97012,40.61172,96.0729)"/>
<path style="fill:none;stroke-width:0.79701;stroke-linecap:butt;stroke-linejoin:miter;stroke:rgb(100%,0%,0%);stroke-opacity:1;stroke-miterlimit:10;" d="M -56.692062 56.692375 L -45.988937 62.047844 " transform="matrix(1,0,0,-1,86.653,127.083)"/>
<path style="fill:none;stroke-width:0.6376;stroke-linecap:round;stroke-linejoin:round;stroke:rgb(100%,0%,0%);stroke-opacity:1;stroke-miterlimit:10;" d="M -1.555446 2.071954 C -1.424409 1.29451 -0.00228548 0.129229 0.387312 -0.0000507645 C -0.000536101 -0.129337 -1.426132 -1.294644 -1.553661 -2.073837 " transform="matrix(0.89436,-0.44717,-0.44717,-0.89436,40.6653,65.03643)"/>
<path style="fill:none;stroke-width:0.79701;stroke-linecap:butt;stroke-linejoin:miter;stroke:rgb(100%,0%,0%);stroke-opacity:1;stroke-miterlimit:10;" d="M -56.692062 85.040031 L -45.922531 93.122062 " transform="matrix(1,0,0,-1,86.653,127.083)"/>
<path style="fill:none;stroke-width:0.6376;stroke-linecap:round;stroke-linejoin:round;stroke:rgb(100%,0%,0%);stroke-opacity:1;stroke-miterlimit:10;" d="M -1.55407 2.071346 C -1.423605 1.294759 0.00142633 0.128304 0.388155 -0.00061015 C -0.000920065 -0.128735 -1.424412 -1.297506 -1.556455 -2.072528 " transform="matrix(0.79997,-0.59999,-0.59999,-0.79997,40.73209,33.96287)"/>
<path style="fill:none;stroke-width:0.79701;stroke-linecap:butt;stroke-linejoin:miter;stroke:rgb(100%,0%,0%);stroke-opacity:1;stroke-miterlimit:10;" d="M -56.692062 113.387687 L -45.856125 124.227531 " transform="matrix(1,0,0,-1,86.653,127.083)"/>
<path style="fill:none;stroke-width:0.6376;stroke-linecap:round;stroke-linejoin:round;stroke:rgb(100%,0%,0%);stroke-opacity:1;stroke-miterlimit:10;" d="M -1.554351 2.070858 C -1.424529 1.29469 0.000746889 0.129058 0.390212 -0.000763683 C 0.000746889 -0.130585 -1.424529 -1.296218 -1.554351 -2.072385 " transform="matrix(0.7071,-0.7071,-0.7071,-0.7071,40.79776,2.85741)"/>
<g clip-path="url(#clip3)" clip-rule="nonzero">
<path style="fill:none;stroke-width:0.79701;stroke-linecap:butt;stroke-linejoin:miter;stroke:rgb(100%,0%,0%);stroke-opacity:1;stroke-miterlimit:10;" d="M -28.348312 -113.38575 L -25.68425 -124.038094 " transform="matrix(1,0,0,-1,86.653,127.083)"/>
</g>
<path style="fill:none;stroke-width:0.6376;stroke-linecap:round;stroke-linejoin:round;stroke:rgb(100%,0%,0%);stroke-opacity:1;stroke-miterlimit:10;" d="M -1.553506 2.070681 C -1.425596 1.29379 -0.00159838 0.128466 0.388744 -0.00132778 C -0.00159588 -0.129234 -1.424623 -1.295533 -1.554413 -2.072427 " transform="matrix(0.24252,0.97012,0.97012,-0.24252,60.96951,251.12255)"/>
<path style="fill:none;stroke-width:0.79701;stroke-linecap:butt;stroke-linejoin:miter;stroke:rgb(100%,0%,0%);stroke-opacity:1;stroke-miterlimit:10;" d="M -28.348312 -85.042 L -25.735031 -92.874031 " transform="matrix(1,0,0,-1,86.653,127.083)"/>
<path style="fill:none;stroke-width:0.6376;stroke-linecap:round;stroke-linejoin:round;stroke:rgb(100%,0%,0%);stroke-opacity:1;stroke-miterlimit:10;" d="M -1.553355 2.070776 C -1.424879 1.294994 -0.00178402 0.128855 0.387343 -0.000853025 C -0.00178319 -0.130563 -1.423636 -1.295477 -1.554577 -2.071259 " transform="matrix(0.31621,0.94864,0.94864,-0.31621,60.91739,219.9565)"/>
<path style="fill:none;stroke-width:0.79701;stroke-linecap:butt;stroke-linejoin:miter;stroke:rgb(100%,0%,0%);stroke-opacity:1;stroke-miterlimit:10;" d="M -28.348312 -56.694344 L -25.828781 -61.7295 " transform="matrix(1,0,0,-1,86.653,127.083)"/>
<path style="fill:none;stroke-width:0.6376;stroke-linecap:round;stroke-linejoin:round;stroke:rgb(100%,0%,0%);stroke-opacity:1;stroke-miterlimit:10;" d="M -1.553944 2.073591 C -1.422925 1.29617 -0.000867024 0.1309 0.388716 0.00161719 C -0.000869368 -0.131152 -1.426442 -1.296397 -1.552234 -2.072069 " transform="matrix(0.4472,0.89438,0.89438,-0.4472,60.82472,188.81322)"/>
<path style="fill:none;stroke-width:0.79701;stroke-linecap:butt;stroke-linejoin:miter;stroke:rgb(100%,0%,0%);stroke-opacity:1;stroke-miterlimit:10;" d="M -28.348312 -28.346688 L -26.012375 -30.682625 " transform="matrix(1,0,0,-1,86.653,127.083)"/>
<path style="fill:none;stroke-width:0.6376;stroke-linecap:round;stroke-linejoin:round;stroke:rgb(100%,0%,0%);stroke-opacity:1;stroke-miterlimit:10;" d="M -1.554409 2.073452 C -1.42461 1.297281 0.000633054 0.131608 0.387332 -0.000986772 C 0.00062571 -0.128035 -1.424683 -1.293628 -1.551765 -2.072554 " transform="matrix(0.70712,0.70708,0.70708,-0.70712,60.64087,157.76449)"/>
<path style="fill:none;stroke-width:0.79701;stroke-linecap:butt;stroke-linejoin:miter;stroke:rgb(100%,0%,0%);stroke-opacity:1;stroke-miterlimit:10;" d="M -28.348312 0.00096875 L -26.219406 0.00096875 " transform="matrix(1,0,0,-1,86.653,127.083)"/>
<path style="fill:none;stroke-width:0.6376;stroke-linecap:round;stroke-linejoin:round;stroke:rgb(100%,0%,0%);stroke-opacity:1;stroke-miterlimit:10;" d="M -1.554794 2.071281 C -1.425887 1.293937 -0.00010625 0.129875 0.386613 0.00096875 C -0.00010625 -0.127938 -1.425887 -1.295906 -1.554794 -2.07325 " transform="matrix(1,0,0,-1,60.4337,127.083)"/>
<path style="fill:none;stroke-width:0.79701;stroke-linecap:butt;stroke-linejoin:miter;stroke:rgb(100%,0%,0%);stroke-opacity:1;stroke-miterlimit:10;" d="M -28.348312 28.348625 L -26.012375 30.680656 " transform="matrix(1,0,0,-1,86.653,127.083)"/>
<path style="fill:none;stroke-width:0.6376;stroke-linecap:round;stroke-linejoin:round;stroke:rgb(100%,0%,0%);stroke-opacity:1;stroke-miterlimit:10;" d="M -1.553157 2.071162 C -1.423313 1.294998 0.0019957 0.129405 0.388702 0.00235684 C 0.00200305 -0.130238 -1.42324 -1.295911 -1.553039 -2.072082 " transform="matrix(0.70712,-0.70708,-0.70708,-0.70712,60.64087,96.40151)"/>
<path style="fill:none;stroke-width:0.79701;stroke-linecap:butt;stroke-linejoin:miter;stroke:rgb(100%,0%,0%);stroke-opacity:1;stroke-miterlimit:10;" d="M -28.348312 56.692375 L -25.828781 61.731437 " transform="matrix(1,0,0,-1,86.653,127.083)"/>
<path style="fill:none;stroke-width:0.6376;stroke-linecap:round;stroke-linejoin:round;stroke:rgb(100%,0%,0%);stroke-opacity:1;stroke-miterlimit:10;" d="M -1.553995 2.071189 C -1.424709 1.297263 0.00086366 0.132019 0.390449 -0.000750658 C 0.000866004 -0.130033 -1.424686 -1.29705 -1.552211 -2.072725 " transform="matrix(0.4472,-0.89438,-0.89438,-0.4472,60.82472,65.35278)"/>
<path style="fill:none;stroke-width:0.79701;stroke-linecap:butt;stroke-linejoin:miter;stroke:rgb(100%,0%,0%);stroke-opacity:1;stroke-miterlimit:10;" d="M -28.348312 85.040031 L -25.735031 92.872062 " transform="matrix(1,0,0,-1,86.653,127.083)"/>
<path style="fill:none;stroke-width:0.6376;stroke-linecap:round;stroke-linejoin:round;stroke:rgb(100%,0%,0%);stroke-opacity:1;stroke-miterlimit:10;" d="M -1.552739 2.071872 C -1.425503 1.294854 0.0000549667 0.131176 0.389181 0.00146574 C 0.0000541463 -0.128242 -1.423041 -1.294382 -1.555223 -2.071399 " transform="matrix(0.31621,-0.94864,-0.94864,-0.31621,60.91739,34.2095)"/>
<path style="fill:none;stroke-width:0.79701;stroke-linecap:butt;stroke-linejoin:miter;stroke:rgb(100%,0%,0%);stroke-opacity:1;stroke-miterlimit:10;" d="M -28.348312 113.387687 L -25.68425 124.040031 " transform="matrix(1,0,0,-1,86.653,127.083)"/>
<path style="fill:none;stroke-width:0.6376;stroke-linecap:round;stroke-linejoin:round;stroke:rgb(100%,0%,0%);stroke-opacity:1;stroke-miterlimit:10;" d="M -1.552534 2.072896 C -1.426533 1.295056 0.00028382 0.129704 0.386834 0.000850298 C 0.000281319 -0.127996 -1.423716 -1.29332 -1.555416 -2.071158 " transform="matrix(0.24252,-0.97012,-0.97012,-0.24252,60.96951,3.04345)"/>
<path style="fill:none;stroke-width:0.79701;stroke-linecap:butt;stroke-linejoin:miter;stroke:rgb(100%,0%,0%);stroke-opacity:1;stroke-miterlimit:10;" d="M -0.00065625 -113.38575 L -0.00065625 -124.018563 " transform="matrix(1,0,0,-1,86.653,127.083)"/>
<path style="fill:none;stroke-width:0.6376;stroke-linecap:round;stroke-linejoin:round;stroke:rgb(100%,0%,0%);stroke-opacity:1;stroke-miterlimit:10;" d="M -1.554545 2.073563 C -1.425639 1.296219 0.0001425 0.12825 0.386861 -0.00065625 C 0.0001425 -0.129562 -1.425639 -1.293625 -1.554545 -2.070969 " transform="matrix(0,1,1,0,86.653,251.10142)"/>
<path style="fill:none;stroke-width:0.79701;stroke-linecap:butt;stroke-linejoin:miter;stroke:rgb(100%,0%,0%);stroke-opacity:1;stroke-miterlimit:10;" d="M -0.00065625 -85.042 L -0.00065625 -92.838875 " transform="matrix(1,0,0,-1,86.653,127.083)"/>
<path style="fill:none;stroke-width:0.6376;stroke-linecap:round;stroke-linejoin:round;stroke:rgb(100%,0%,0%);stroke-opacity:1;stroke-miterlimit:10;" d="M -1.553002 2.073563 C -1.424096 1.296219 0.001685 0.12825 0.388404 -0.00065625 C 0.001685 -0.129562 -1.424096 -1.293625 -1.553002 -2.070969 " transform="matrix(0,1,1,0,86.653,219.92019)"/>
<path style="fill:none;stroke-width:0.79701;stroke-linecap:butt;stroke-linejoin:miter;stroke:rgb(100%,0%,0%);stroke-opacity:1;stroke-miterlimit:10;" d="M -0.00065625 -56.694344 L -0.00065625 -61.655281 " transform="matrix(1,0,0,-1,86.653,127.083)"/>
<path style="fill:none;stroke-width:0.6376;stroke-linecap:round;stroke-linejoin:round;stroke:rgb(100%,0%,0%);stroke-opacity:1;stroke-miterlimit:10;" d="M -1.554926 2.073563 C -1.42602 1.296219 -0.00023875 0.12825 0.390386 -0.00065625 C -0.00023875 -0.129562 -1.42602 -1.293625 -1.554926 -2.070969 " transform="matrix(0,1,1,0,86.653,188.73852)"/>
<path style="fill:none;stroke-width:0.79701;stroke-linecap:butt;stroke-linejoin:miter;stroke:rgb(100%,0%,0%);stroke-opacity:1;stroke-miterlimit:10;" d="M -0.00065625 -28.346688 L -0.00065625 -30.475594 " transform="matrix(1,0,0,-1,86.653,127.083)"/>
<path style="fill:none;stroke-width:0.6376;stroke-linecap:round;stroke-linejoin:round;stroke:rgb(100%,0%,0%);stroke-opacity:1;stroke-miterlimit:10;" d="M -1.553384 2.073563 C -1.424477 1.296219 0.00130375 0.12825 0.388023 -0.00065625 C 0.00130375 -0.129562 -1.424477 -1.293625 -1.553384 -2.070969 " transform="matrix(0,1,1,0,86.653,157.55729)"/>
<path style="fill:none;stroke-width:0.79701;stroke-linecap:butt;stroke-linejoin:miter;stroke:rgb(100%,0%,0%);stroke-opacity:1;stroke-miterlimit:10;" d="M -0.00065625 0.00096875 L -0.00065625 0.00096875 " transform="matrix(1,0,0,-1,86.653,127.083)"/>
<path style="fill:none;stroke-width:0.79701;stroke-linecap:butt;stroke-linejoin:miter;stroke:rgb(100%,0%,0%);stroke-opacity:1;stroke-miterlimit:10;" d="M -0.00065625 28.348625 L -0.00065625 30.473625 " transform="matrix(1,0,0,-1,86.653,127.083)"/>
<path style="fill:none;stroke-width:0.6376;stroke-linecap:round;stroke-linejoin:round;stroke:rgb(100%,0%,0%);stroke-opacity:1;stroke-miterlimit:10;" d="M -1.555353 2.070969 C -1.426446 1.293625 -0.000665 0.129562 0.38996 0.00065625 C -0.000665 -0.12825 -1.426446 -1.296219 -1.555353 -2.073563 " transform="matrix(0,-1,-1,0,86.653,96.60871)"/>
<path style="fill:none;stroke-width:0.79701;stroke-linecap:butt;stroke-linejoin:miter;stroke:rgb(100%,0%,0%);stroke-opacity:1;stroke-miterlimit:10;" d="M -0.00065625 56.692375 L -0.00065625 61.657219 " transform="matrix(1,0,0,-1,86.653,127.083)"/>
<path style="fill:none;stroke-width:0.6376;stroke-linecap:round;stroke-linejoin:round;stroke:rgb(100%,0%,0%);stroke-opacity:1;stroke-miterlimit:10;" d="M -1.552989 2.070969 C -1.424083 1.293625 0.00169875 0.129562 0.388417 0.00065625 C 0.00169875 -0.12825 -1.424083 -1.296219 -1.552989 -2.073563 " transform="matrix(0,-1,-1,0,86.653,65.42748)"/>
<path style="fill:none;stroke-width:0.79701;stroke-linecap:butt;stroke-linejoin:miter;stroke:rgb(100%,0%,0%);stroke-opacity:1;stroke-miterlimit:10;" d="M -0.00065625 85.040031 L -0.00065625 92.836906 " transform="matrix(1,0,0,-1,86.653,127.083)"/>
<path style="fill:none;stroke-width:0.6376;stroke-linecap:round;stroke-linejoin:round;stroke:rgb(100%,0%,0%);stroke-opacity:1;stroke-miterlimit:10;" d="M -1.554971 2.070969 C -1.426065 1.293625 -0.00028375 0.129562 0.390341 0.00065625 C -0.00028375 -0.12825 -1.426065 -1.296219 -1.554971 -2.073563 " transform="matrix(0,-1,-1,0,86.653,34.24581)"/>
<path style="fill:none;stroke-width:0.79701;stroke-linecap:butt;stroke-linejoin:miter;stroke:rgb(100%,0%,0%);stroke-opacity:1;stroke-miterlimit:10;" d="M -0.00065625 113.387687 L -0.00065625 124.016594 " transform="matrix(1,0,0,-1,86.653,127.083)"/>
<path style="fill:none;stroke-width:0.6376;stroke-linecap:round;stroke-linejoin:round;stroke:rgb(100%,0%,0%);stroke-opacity:1;stroke-miterlimit:10;" d="M -1.552608 2.070969 C -1.423701 1.293625 -0.00182625 0.129562 0.388799 0.00065625 C -0.00182625 -0.12825 -1.423701 -1.296219 -1.552608 -2.073563 " transform="matrix(0,-1,-1,0,86.653,3.06458)"/>
<g clip-path="url(#clip4)" clip-rule="nonzero">
<path style="fill:none;stroke-width:0.79701;stroke-linecap:butt;stroke-linejoin:miter;stroke:rgb(100%,0%,0%);stroke-opacity:1;stroke-miterlimit:10;" d="M 28.347 -113.38575 L 31.011063 -124.038094 " transform="matrix(1,0,0,-1,86.653,127.083)"/>
</g>
<path style="fill:none;stroke-width:0.6376;stroke-linecap:round;stroke-linejoin:round;stroke:rgb(100%,0%,0%);stroke-opacity:1;stroke-miterlimit:10;" d="M -1.553088 2.072352 C -1.425178 1.295461 -0.00118062 0.130137 0.389161 0.000343334 C -0.00117812 -0.127563 -1.424205 -1.293862 -1.553995 -2.070755 " transform="matrix(0.24252,0.97012,0.97012,-0.24252,117.6631,251.12255)"/>
<path style="fill:none;stroke-width:0.79701;stroke-linecap:butt;stroke-linejoin:miter;stroke:rgb(100%,0%,0%);stroke-opacity:1;stroke-miterlimit:10;" d="M 28.347 -85.042 L 30.956375 -92.874031 " transform="matrix(1,0,0,-1,86.653,127.083)"/>
<path style="fill:none;stroke-width:0.6376;stroke-linecap:round;stroke-linejoin:round;stroke:rgb(100%,0%,0%);stroke-opacity:1;stroke-miterlimit:10;" d="M -1.552817 2.072392 C -1.424341 1.29661 -0.00124562 0.13047 0.387881 0.000762185 C -0.0012448 -0.128948 -1.423097 -1.293861 -1.555274 -2.07335 " transform="matrix(0.31621,0.94864,0.94864,-0.31621,117.611,219.9565)"/>
<path style="fill:none;stroke-width:0.79701;stroke-linecap:butt;stroke-linejoin:miter;stroke:rgb(100%,0%,0%);stroke-opacity:1;stroke-miterlimit:10;" d="M 28.347 -56.694344 L 30.866531 -61.7295 " transform="matrix(1,0,0,-1,86.653,127.083)"/>
<path style="fill:none;stroke-width:0.6376;stroke-linecap:round;stroke-linejoin:round;stroke:rgb(100%,0%,0%);stroke-opacity:1;stroke-miterlimit:10;" d="M -1.55492 2.071638 C -1.423901 1.294216 -0.00184369 0.128946 0.387739 -0.000336099 C -0.000098992 -0.129612 -1.425672 -1.294856 -1.55321 -2.074023 " transform="matrix(0.4472,0.89438,0.89438,-0.4472,117.51831,188.81322)"/>
<path style="fill:none;stroke-width:0.79701;stroke-linecap:butt;stroke-linejoin:miter;stroke:rgb(100%,0%,0%);stroke-opacity:1;stroke-miterlimit:10;" d="M 28.347 -28.346688 L 30.682938 -30.682625 " transform="matrix(1,0,0,-1,86.653,127.083)"/>
<path style="fill:none;stroke-width:0.6376;stroke-linecap:round;stroke-linejoin:round;stroke:rgb(100%,0%,0%);stroke-opacity:1;stroke-miterlimit:10;" d="M -1.555991 2.071843 C -1.426169 1.295675 -0.000893615 0.130043 0.388571 0.000220973 C -0.000893615 -0.129601 -1.426169 -1.295233 -1.555991 -2.071401 " transform="matrix(0.7071,0.7071,0.7071,-0.7071,117.33446,157.76446)"/>
<path style="fill:none;stroke-width:0.79701;stroke-linecap:butt;stroke-linejoin:miter;stroke:rgb(100%,0%,0%);stroke-opacity:1;stroke-miterlimit:10;" d="M 28.347 0.00096875 L 30.475906 0.00096875 " transform="matrix(1,0,0,-1,86.653,127.083)"/>
<path style="fill:none;stroke-width:0.6376;stroke-linecap:round;stroke-linejoin:round;stroke:rgb(100%,0%,0%);stroke-opacity:1;stroke-miterlimit:10;" d="M -1.553071 2.071281 C -1.424165 1.293937 0.00161625 0.129875 0.388335 0.00096875 C 0.00161625 -0.127938 -1.424165 -1.295906 -1.553071 -2.07325 " transform="matrix(1,0,0,-1,117.12729,127.083)"/>
<path style="fill:none;stroke-width:0.79701;stroke-linecap:butt;stroke-linejoin:miter;stroke:rgb(100%,0%,0%);stroke-opacity:1;stroke-miterlimit:10;" d="M 28.347 28.348625 L 30.682938 30.680656 " transform="matrix(1,0,0,-1,86.653,127.083)"/>
<path style="fill:none;stroke-width:0.6376;stroke-linecap:round;stroke-linejoin:round;stroke:rgb(100%,0%,0%);stroke-opacity:1;stroke-miterlimit:10;" d="M -1.554621 2.072771 C -1.424799 1.296603 0.000476418 0.130971 0.389941 0.00114906 C 0.000476418 -0.128673 -1.424799 -1.294305 -1.554621 -2.070473 " transform="matrix(0.7071,-0.7071,-0.7071,-0.7071,117.33446,96.40154)"/>
<path style="fill:none;stroke-width:0.79701;stroke-linecap:butt;stroke-linejoin:miter;stroke:rgb(100%,0%,0%);stroke-opacity:1;stroke-miterlimit:10;" d="M 28.347 56.692375 L 30.866531 61.731437 " transform="matrix(1,0,0,-1,86.653,127.083)"/>
<path style="fill:none;stroke-width:0.6376;stroke-linecap:round;stroke-linejoin:round;stroke:rgb(100%,0%,0%);stroke-opacity:1;stroke-miterlimit:10;" d="M -1.554971 2.073142 C -1.423939 1.295723 0.00163404 0.130478 0.389472 0.00120263 C -0.000110663 -0.12808 -1.425662 -1.295097 -1.553187 -2.070772 " transform="matrix(0.4472,-0.89438,-0.89438,-0.4472,117.51831,65.35278)"/>
<path style="fill:none;stroke-width:0.79701;stroke-linecap:butt;stroke-linejoin:miter;stroke:rgb(100%,0%,0%);stroke-opacity:1;stroke-miterlimit:10;" d="M 28.347 85.040031 L 30.956375 92.872062 " transform="matrix(1,0,0,-1,86.653,127.083)"/>
<path style="fill:none;stroke-width:0.6376;stroke-linecap:round;stroke-linejoin:round;stroke:rgb(100%,0%,0%);stroke-opacity:1;stroke-miterlimit:10;" d="M -1.553436 2.073963 C -1.424965 1.293239 0.000593364 0.129561 0.38972 -0.000149471 C 0.000592544 -0.129857 -1.422503 -1.295997 -1.554684 -2.073014 " transform="matrix(0.31621,-0.94864,-0.94864,-0.31621,117.611,34.2095)"/>
<path style="fill:none;stroke-width:0.79701;stroke-linecap:butt;stroke-linejoin:miter;stroke:rgb(100%,0%,0%);stroke-opacity:1;stroke-miterlimit:10;" d="M 28.347 113.387687 L 31.011063 124.040031 " transform="matrix(1,0,0,-1,86.653,127.083)"/>
<path style="fill:none;stroke-width:0.6376;stroke-linecap:round;stroke-linejoin:round;stroke:rgb(100%,0%,0%);stroke-opacity:1;stroke-miterlimit:10;" d="M -1.552116 2.071225 C -1.426115 1.293385 0.000701582 0.128033 0.387251 -0.00082082 C 0.000699082 -0.129667 -1.423298 -1.294991 -1.554998 -2.072829 " transform="matrix(0.24252,-0.97012,-0.97012,-0.24252,117.6631,3.04345)"/>
<g clip-path="url(#clip5)" clip-rule="nonzero">
<path style="fill:none;stroke-width:0.79701;stroke-linecap:butt;stroke-linejoin:miter;stroke:rgb(100%,0%,0%);stroke-opacity:1;stroke-miterlimit:10;" d="M 56.694656 -113.38575 L 67.530594 -124.225594 " transform="matrix(1,0,0,-1,86.653,127.083)"/>
</g>
<path style="fill:none;stroke-width:0.6376;stroke-linecap:round;stroke-linejoin:round;stroke:rgb(100%,0%,0%);stroke-opacity:1;stroke-miterlimit:10;" d="M -1.553306 2.070646 C -1.423484 1.294478 0.00179165 0.128846 0.388494 0.00178635 C -0.000970513 -0.128035 -1.423484 -1.29643 -1.553306 -2.072598 " transform="matrix(0.7071,0.7071,0.7071,-0.7071,154.18497,251.30859)"/>
<path style="fill:none;stroke-width:0.79701;stroke-linecap:butt;stroke-linejoin:miter;stroke:rgb(100%,0%,0%);stroke-opacity:1;stroke-miterlimit:10;" d="M 56.694656 -85.042 L 67.468094 -93.120125 " transform="matrix(1,0,0,-1,86.653,127.083)"/>
<path style="fill:none;stroke-width:0.6376;stroke-linecap:round;stroke-linejoin:round;stroke:rgb(100%,0%,0%);stroke-opacity:1;stroke-miterlimit:10;" d="M -1.552542 2.073002 C -1.423624 1.295636 -0.00247562 0.12999 0.388944 -0.00125965 C 0.00221462 -0.130174 -1.42516 -1.293504 -1.553281 -2.073216 " transform="matrix(0.79997,0.59999,0.59999,-0.79997,154.1193,220.20313)"/>
<path style="fill:none;stroke-width:0.79701;stroke-linecap:butt;stroke-linejoin:miter;stroke:rgb(100%,0%,0%);stroke-opacity:1;stroke-miterlimit:10;" d="M 56.694656 -56.694344 L 67.397781 -62.045906 " transform="matrix(1,0,0,-1,86.653,127.083)"/>
<path style="fill:none;stroke-width:0.6376;stroke-linecap:round;stroke-linejoin:round;stroke:rgb(100%,0%,0%);stroke-opacity:1;stroke-miterlimit:10;" d="M -1.553229 2.071852 C -1.422206 1.294406 -0.000103964 0.127352 0.387744 -0.00193447 C 0.00164081 -0.129467 -1.423976 -1.296495 -1.555013 -2.073939 " transform="matrix(0.89436,0.44717,0.44717,-0.89436,154.05252,189.12957)"/>
<path style="fill:none;stroke-width:0.79701;stroke-linecap:butt;stroke-linejoin:miter;stroke:rgb(100%,0%,0%);stroke-opacity:1;stroke-miterlimit:10;" d="M 56.694656 -28.346688 L 67.347 -31.01075 " transform="matrix(1,0,0,-1,86.653,127.083)"/>
<path style="fill:none;stroke-width:0.6376;stroke-linecap:round;stroke-linejoin:round;stroke:rgb(100%,0%,0%);stroke-opacity:1;stroke-miterlimit:10;" d="M -1.55541 2.070724 C -1.42562 1.293831 0.00119698 0.128479 0.387747 -0.000374851 C 0.00119448 -0.129221 -1.422803 -1.294545 -1.554503 -2.072383 " transform="matrix(0.97012,0.24252,0.24252,-0.97012,153.99893,158.0931)"/>
<path style="fill:none;stroke-width:0.79701;stroke-linecap:butt;stroke-linejoin:miter;stroke:rgb(100%,0%,0%);stroke-opacity:1;stroke-miterlimit:10;" d="M 56.694656 0.00096875 L 67.323563 0.00096875 " transform="matrix(1,0,0,-1,86.653,127.083)"/>
<path style="fill:none;stroke-width:0.6376;stroke-linecap:round;stroke-linejoin:round;stroke:rgb(100%,0%,0%);stroke-opacity:1;stroke-miterlimit:10;" d="M -1.555925 2.071281 C -1.423112 1.293937 -0.0012375 0.129875 0.389388 0.00096875 C -0.0012375 -0.127938 -1.423112 -1.295906 -1.555925 -2.07325 " transform="matrix(1,0,0,-1,153.9778,127.083)"/>
<path style="fill:none;stroke-width:0.79701;stroke-linecap:butt;stroke-linejoin:miter;stroke:rgb(100%,0%,0%);stroke-opacity:1;stroke-miterlimit:10;" d="M 56.694656 28.348625 L 67.347 31.008781 " transform="matrix(1,0,0,-1,86.653,127.083)"/>
<path style="fill:none;stroke-width:0.6376;stroke-linecap:round;stroke-linejoin:round;stroke:rgb(100%,0%,0%);stroke-opacity:1;stroke-miterlimit:10;" d="M -1.55498 2.070473 C -1.422333 1.296425 0.000716992 0.127311 0.387269 -0.00153517 C 0.000719492 -0.130389 -1.426097 -1.295741 -1.555888 -2.072634 " transform="matrix(0.97012,-0.24252,-0.24252,-0.97012,153.99893,96.0729)"/>
<path style="fill:none;stroke-width:0.79701;stroke-linecap:butt;stroke-linejoin:miter;stroke:rgb(100%,0%,0%);stroke-opacity:1;stroke-miterlimit:10;" d="M 56.694656 56.692375 L 67.397781 62.047844 " transform="matrix(1,0,0,-1,86.653,127.083)"/>
<path style="fill:none;stroke-width:0.6376;stroke-linecap:round;stroke-linejoin:round;stroke:rgb(100%,0%,0%);stroke-opacity:1;stroke-miterlimit:10;" d="M -1.555894 2.072178 C -1.424857 1.294734 0.000760299 0.127706 0.386863 0.000173415 C -0.00098447 -0.129113 -1.423087 -1.296167 -1.55411 -2.073613 " transform="matrix(0.89436,-0.44717,-0.44717,-0.89436,154.05252,65.03643)"/>
<path style="fill:none;stroke-width:0.79701;stroke-linecap:butt;stroke-linejoin:miter;stroke:rgb(100%,0%,0%);stroke-opacity:1;stroke-miterlimit:10;" d="M 56.694656 85.040031 L 67.468094 93.122062 " transform="matrix(1,0,0,-1,86.653,127.083)"/>
<path style="fill:none;stroke-width:0.6376;stroke-linecap:round;stroke-linejoin:round;stroke:rgb(100%,0%,0%);stroke-opacity:1;stroke-miterlimit:10;" d="M -1.554463 2.071641 C -1.423998 1.295054 0.00103332 0.128599 0.387762 -0.000315387 C -0.00131307 -0.12844 -1.424805 -1.297211 -1.553723 -2.074577 " transform="matrix(0.79997,-0.59999,-0.59999,-0.79997,154.1193,33.96287)"/>
<path style="fill:none;stroke-width:0.79701;stroke-linecap:butt;stroke-linejoin:miter;stroke:rgb(100%,0%,0%);stroke-opacity:1;stroke-miterlimit:10;" d="M 56.694656 113.387687 L 67.530594 124.227531 " transform="matrix(1,0,0,-1,86.653,127.083)"/>
<path style="fill:none;stroke-width:0.6376;stroke-linecap:round;stroke-linejoin:round;stroke:rgb(100%,0%,0%);stroke-opacity:1;stroke-miterlimit:10;" d="M -1.554698 2.071205 C -1.424876 1.295038 0.000399519 0.129405 0.389864 -0.000416313 C 0.000399519 -0.130238 -1.424876 -1.29587 -1.554698 -2.072038 " transform="matrix(0.7071,-0.7071,-0.7071,-0.7071,154.18497,2.85741)"/>
<g clip-path="url(#clip6)" clip-rule="nonzero">
<path style="fill:none;stroke-width:0.79701;stroke-linecap:butt;stroke-linejoin:miter;stroke:rgb(100%,0%,0%);stroke-opacity:1;stroke-miterlimit:10;" d="M 85.042313 -113.38575 L 109.905594 -124.440438 " transform="matrix(1,0,0,-1,86.653,127.083)"/>
</g>
<path style="fill:none;stroke-width:0.6376;stroke-linecap:round;stroke-linejoin:round;stroke:rgb(100%,0%,0%);stroke-opacity:1;stroke-miterlimit:10;" d="M -1.554358 2.072823 C -1.427039 1.295827 0.00122199 0.13093 0.388728 -0.000353715 C 0.00161888 -0.129655 -1.425847 -1.294159 -1.553957 -2.073534 " transform="matrix(0.91379,0.40613,0.40613,-0.91379,196.55899,251.52149)"/>
<g clip-path="url(#clip7)" clip-rule="nonzero">
<path style="fill:none;stroke-width:0.79701;stroke-linecap:butt;stroke-linejoin:miter;stroke:rgb(100%,0%,0%);stroke-opacity:1;stroke-miterlimit:10;" d="M 85.042313 -85.042 L 109.882156 -93.319344 " transform="matrix(1,0,0,-1,86.653,127.083)"/>
</g>
<path style="fill:none;stroke-width:0.6376;stroke-linecap:round;stroke-linejoin:round;stroke:rgb(100%,0%,0%);stroke-opacity:1;stroke-miterlimit:10;" d="M -1.554957 2.073363 C -1.42278 1.293874 -0.000927369 0.12896 0.388199 -0.000749932 C -0.000928189 -0.130458 -1.424023 -1.296597 -1.552499 -2.072379 " transform="matrix(0.94864,0.31621,0.31621,-0.94864,196.53432,220.40388)"/>
<g clip-path="url(#clip8)" clip-rule="nonzero">
<path style="fill:none;stroke-width:0.79701;stroke-linecap:butt;stroke-linejoin:miter;stroke:rgb(100%,0%,0%);stroke-opacity:1;stroke-miterlimit:10;" d="M 85.042313 -56.694344 L 109.862625 -62.209969 " transform="matrix(1,0,0,-1,86.653,127.083)"/>
</g>
<path style="fill:none;stroke-width:0.6376;stroke-linecap:round;stroke-linejoin:round;stroke:rgb(100%,0%,0%);stroke-opacity:1;stroke-miterlimit:10;" d="M -1.555835 2.070842 C -1.423658 1.295862 0.000415522 0.127637 0.388535 0.00178192 C 0.00125546 -0.128287 -1.424581 -1.293463 -1.555956 -2.070977 " transform="matrix(0.97614,0.21689,0.21689,-0.97614,196.51488,189.29247)"/>
<g clip-path="url(#clip9)" clip-rule="nonzero">
<path style="fill:none;stroke-width:0.79701;stroke-linecap:butt;stroke-linejoin:miter;stroke:rgb(100%,0%,0%);stroke-opacity:1;stroke-miterlimit:10;" d="M 85.042313 -28.346688 L 109.850906 -31.1045 " transform="matrix(1,0,0,-1,86.653,127.083)"/>
</g>
<path style="fill:none;stroke-width:0.6376;stroke-linecap:round;stroke-linejoin:round;stroke:rgb(100%,0%,0%);stroke-opacity:1;stroke-miterlimit:10;" d="M -1.553036 2.070783 C -1.423633 1.295144 -0.000934358 0.128644 0.386882 -0.00121058 C 0.000355227 -0.13062 -1.422816 -1.294913 -1.552678 -2.071842 " transform="matrix(0.99385,0.11041,0.11041,-0.99385,196.50235,158.18655)"/>
<path style="fill:none;stroke-width:0.79701;stroke-linecap:butt;stroke-linejoin:miter;stroke:rgb(100%,0%,0%);stroke-opacity:1;stroke-miterlimit:10;" d="M 85.042313 0.00096875 L 109.843094 0.00096875 " transform="matrix(1,0,0,-1,86.653,127.083)"/>
<path style="fill:none;stroke-width:0.6376;stroke-linecap:round;stroke-linejoin:round;stroke:rgb(100%,0%,0%);stroke-opacity:1;stroke-miterlimit:10;" d="M -1.552687 2.071281 C -1.423781 1.293937 -0.00190625 0.129875 0.388719 0.00096875 C -0.00190625 -0.127938 -1.423781 -1.295906 -1.552687 -2.07325 " transform="matrix(1,0,0,-1,196.498,127.083)"/>
<g clip-path="url(#clip10)" clip-rule="nonzero">
<path style="fill:none;stroke-width:0.79701;stroke-linecap:butt;stroke-linejoin:miter;stroke:rgb(100%,0%,0%);stroke-opacity:1;stroke-miterlimit:10;" d="M 85.042313 28.348625 L 109.850906 31.102531 " transform="matrix(1,0,0,-1,86.653,127.083)"/>
</g>
<path style="fill:none;stroke-width:0.6376;stroke-linecap:round;stroke-linejoin:round;stroke:rgb(100%,0%,0%);stroke-opacity:1;stroke-miterlimit:10;" d="M -1.552464 2.073767 C -1.422603 1.296839 0.000137842 0.128664 0.386664 -0.0007462 C -0.00115174 -0.130601 -1.423851 -1.297101 -1.553254 -2.07274 " transform="matrix(0.99385,-0.11041,-0.11041,-0.99385,196.50235,95.97945)"/>
<g clip-path="url(#clip11)" clip-rule="nonzero">
<path style="fill:none;stroke-width:0.79701;stroke-linecap:butt;stroke-linejoin:miter;stroke:rgb(100%,0%,0%);stroke-opacity:1;stroke-miterlimit:10;" d="M 85.042313 56.692375 L 109.862625 62.208 " transform="matrix(1,0,0,-1,86.653,127.083)"/>
</g>
<path style="fill:none;stroke-width:0.6376;stroke-linecap:round;stroke-linejoin:round;stroke:rgb(100%,0%,0%);stroke-opacity:1;stroke-miterlimit:10;" d="M -1.555536 2.072869 C -1.424161 1.295355 0.00167573 0.130179 0.388955 0.000109558 C -0.0000115271 -0.129559 -1.423238 -1.293971 -1.556262 -2.072764 " transform="matrix(0.97614,-0.21689,-0.21689,-0.97614,196.51488,64.87353)"/>
<g clip-path="url(#clip12)" clip-rule="nonzero">
<path style="fill:none;stroke-width:0.79701;stroke-linecap:butt;stroke-linejoin:miter;stroke:rgb(100%,0%,0%);stroke-opacity:1;stroke-miterlimit:10;" d="M 85.042313 85.040031 L 109.882156 93.321281 " transform="matrix(1,0,0,-1,86.653,127.083)"/>
</g>
<path style="fill:none;stroke-width:0.6376;stroke-linecap:round;stroke-linejoin:round;stroke:rgb(100%,0%,0%);stroke-opacity:1;stroke-miterlimit:10;" d="M -1.553122 2.070512 C -1.424646 1.29473 -0.00155079 0.12859 0.387576 -0.00111788 C -0.00154997 -0.130828 -1.423402 -1.295741 -1.554344 -2.071524 " transform="matrix(0.94864,-0.31621,-0.31621,-0.94864,196.53432,33.76212)"/>
<g clip-path="url(#clip13)" clip-rule="nonzero">
<path style="fill:none;stroke-width:0.79701;stroke-linecap:butt;stroke-linejoin:miter;stroke:rgb(100%,0%,0%);stroke-opacity:1;stroke-miterlimit:10;" d="M 85.042313 113.387687 L 109.905594 124.438469 " transform="matrix(1,0,0,-1,86.653,127.083)"/>
</g>
<path style="fill:none;stroke-width:0.6376;stroke-linecap:round;stroke-linejoin:round;stroke:rgb(100%,0%,0%);stroke-opacity:1;stroke-miterlimit:10;" d="M -1.554757 2.071735 C -1.42506 1.295929 0.000819279 0.127856 0.387929 -0.00144539 C 0.0020089 -0.129159 -1.426252 -1.294057 -1.553571 -2.071052 " transform="matrix(0.91379,-0.40613,-0.40613,-0.91379,196.55899,2.64451)"/>
</g>
</svg>
