<?xml version="1.0" encoding="UTF-8"?>
<svg xmlns="http://www.w3.org/2000/svg" xmlns:xlink="http://www.w3.org/1999/xlink" width="186.8pt" height="182.48pt" viewBox="0 0 186.8 182.48" version="1.1">
<defs>
<clipPath id="clip1">
  <path d="M 0 162 L 17 162 L 17 182.480469 L 0 182.480469 Z M 0 162 "/>
</clipPath>
<clipPath id="clip2">
  <path d="M 28 162 L 46 162 L 46 182.480469 L 28 182.480469 Z M 28 162 "/>
</clipPath>
<clipPath id="clip3">
  <path d="M 56 162 L 74 162 L 74 182.480469 L 56 182.480469 Z M 56 162 "/>
</clipPath>
<clipPath id="clip4">
  <path d="M 85 162 L 102 162 L 102 182.480469 L 85 182.480469 Z M 85 162 "/>
</clipPath>
<clipPath id="clip5">
  <path d="M 113 162 L 131 162 L 131 182.480469 L 113 182.480469 Z M 113 162 "/>
</clipPath>
<clipPath id="clip6">
  <path d="M 141 162 L 159 162 L 159 182.480469 L 141 182.480469 Z M 141 162 "/>
</clipPath>
<clipPath id="clip7">
  <path d="M 170 162 L 186.800781 162 L 186.800781 182.480469 L 170 182.480469 Z M 170 162 "/>
</clipPath>
<clipPath id="clip8">
  <path d="M 169 134 L 186.800781 134 L 186.800781 159 L 169 159 Z M 169 134 "/>
</clipPath>
<clipPath id="clip9">
  <path d="M 169 106 L 186.800781 106 L 186.800781 130 L 169 130 Z M 169 106 "/>
</clipPath>
<clipPath id="clip10">
  <path d="M 167 78 L 186.800781 78 L 186.800781 101 L 167 101 Z M 167 78 "/>
</clipPath>
<clipPath id="clip11">
  <path d="M 166 52 L 186.800781 52 L 186.800781 70 L 166 70 Z M 166 52 "/>
</clipPath>
<clipPath id="clip12">
  <path d="M 166 0 L 186.800781 0 L 186.800781 14 L 166 14 Z M 166 0 "/>
</clipPath>
</defs>
<g id="surface1">
<path style="fill:none;stroke-width:0.3985;stroke-linecap:butt;stroke-linejoin:miter;stroke:rgb(50%,50%,50%);stroke-opacity:1;stroke-dasharray:0.3985,1.99255;stroke-miterlimit:10;" d="M -0.001 -85.041219 L 170.081031 -85.041219 M -0.001 -56.693563 L 170.081031 -56.693563 M -0.001 -28.345906 L 170.081031 -28.345906 M -0.001 0.00175 L 170.081031 0.00175 M -0.001 28.3455 L 170.081031 28.3455 M -0.001 56.693156 L 170.081031 56.693156 M -0.001 85.029094 L 170.081031 85.029094 M -0.001 -85.041219 L -0.001 85.040812 M 28.346656 -85.041219 L 28.346656 85.040812 M 56.694313 -85.041219 L 56.694313 85.040812 M 85.041969 -85.041219 L 85.041969 85.040812 M 113.385719 -85.041219 L 113.385719 85.040812 M 141.733375 -85.041219 L 141.733375 85.040812 M 170.069313 -85.041219 L 170.069313 85.040812 " transform="matrix(1,0,0,-1,8.501,89.408)"/>
<g clip-path="url(#clip1)" clip-rule="nonzero">
<path style="fill:none;stroke-width:0.3985;stroke-linecap:butt;stroke-linejoin:miter;stroke:rgb(100%,0%,0%);stroke-opacity:1;stroke-miterlimit:10;" d="M -2.633812 -78.459188 L 2.631813 -91.619344 " transform="matrix(1,0,0,-1,8.501,89.408)"/>
</g>
<path style="fill:none;stroke-width:0.3985;stroke-linecap:butt;stroke-linejoin:miter;stroke:rgb(100%,0%,0%);stroke-opacity:1;stroke-miterlimit:10;" d="M -3.168969 -50.353719 L 3.170875 -63.033406 " transform="matrix(1,0,0,-1,8.501,89.408)"/>
<path style="fill:none;stroke-width:0.3985;stroke-linecap:butt;stroke-linejoin:miter;stroke:rgb(100%,0%,0%);stroke-opacity:1;stroke-miterlimit:10;" d="M -3.930687 -22.451375 L 3.932594 -34.244344 " transform="matrix(1,0,0,-1,8.501,89.408)"/>
<path style="fill:none;stroke-width:0.3985;stroke-linecap:butt;stroke-linejoin:miter;stroke:rgb(100%,0%,0%);stroke-opacity:1;stroke-miterlimit:10;" d="M -5.012719 5.009562 L 5.010719 -5.009969 " transform="matrix(1,0,0,-1,8.501,89.408)"/>
<path style="fill:none;stroke-width:0.3985;stroke-linecap:butt;stroke-linejoin:miter;stroke:rgb(100%,0%,0%);stroke-opacity:1;stroke-miterlimit:10;" d="M -6.336937 31.517375 L 6.338844 25.177531 " transform="matrix(1,0,0,-1,8.501,89.408)"/>
<path style="fill:none;stroke-width:0.3985;stroke-linecap:butt;stroke-linejoin:miter;stroke:rgb(100%,0%,0%);stroke-opacity:1;stroke-miterlimit:10;" d="M -7.086937 56.693156 L 7.084938 56.693156 " transform="matrix(1,0,0,-1,8.501,89.408)"/>
<path style="fill:none;stroke-width:0.3985;stroke-linecap:butt;stroke-linejoin:miter;stroke:rgb(100%,0%,0%);stroke-opacity:1;stroke-miterlimit:10;" d="M -6.336937 81.872844 L 6.338844 88.208781 " transform="matrix(1,0,0,-1,8.501,89.408)"/>
<g clip-path="url(#clip2)" clip-rule="nonzero">
<path style="fill:none;stroke-width:0.3985;stroke-linecap:butt;stroke-linejoin:miter;stroke:rgb(100%,0%,0%);stroke-opacity:1;stroke-miterlimit:10;" d="M 25.713844 -78.459188 L 30.979469 -91.619344 " transform="matrix(1,0,0,-1,8.501,89.408)"/>
</g>
<path style="fill:none;stroke-width:0.3985;stroke-linecap:butt;stroke-linejoin:miter;stroke:rgb(100%,0%,0%);stroke-opacity:1;stroke-miterlimit:10;" d="M 25.178688 -50.353719 L 31.514625 -63.033406 " transform="matrix(1,0,0,-1,8.501,89.408)"/>
<path style="fill:none;stroke-width:0.3985;stroke-linecap:butt;stroke-linejoin:miter;stroke:rgb(100%,0%,0%);stroke-opacity:1;stroke-miterlimit:10;" d="M 24.416969 -22.451375 L 32.276344 -34.244344 " transform="matrix(1,0,0,-1,8.501,89.408)"/>
<path style="fill:none;stroke-width:0.3985;stroke-linecap:butt;stroke-linejoin:miter;stroke:rgb(100%,0%,0%);stroke-opacity:1;stroke-miterlimit:10;" d="M 23.334938 5.009562 L 33.358375 -5.009969 " transform="matrix(1,0,0,-1,8.501,89.408)"/>
<path style="fill:none;stroke-width:0.3985;stroke-linecap:butt;stroke-linejoin:miter;stroke:rgb(100%,0%,0%);stroke-opacity:1;stroke-miterlimit:10;" d="M 22.006813 31.517375 L 34.6865 25.177531 " transform="matrix(1,0,0,-1,8.501,89.408)"/>
<path style="fill:none;stroke-width:0.3985;stroke-linecap:butt;stroke-linejoin:miter;stroke:rgb(100%,0%,0%);stroke-opacity:1;stroke-miterlimit:10;" d="M 21.260719 56.693156 L 35.432594 56.693156 " transform="matrix(1,0,0,-1,8.501,89.408)"/>
<path style="fill:none;stroke-width:0.3985;stroke-linecap:butt;stroke-linejoin:miter;stroke:rgb(100%,0%,0%);stroke-opacity:1;stroke-miterlimit:10;" d="M 22.006813 81.872844 L 34.6865 88.208781 " transform="matrix(1,0,0,-1,8.501,89.408)"/>
<g clip-path="url(#clip3)" clip-rule="nonzero">
<path style="fill:none;stroke-width:0.3985;stroke-linecap:butt;stroke-linejoin:miter;stroke:rgb(100%,0%,0%);stroke-opacity:1;stroke-miterlimit:10;" d="M 54.0615 -78.459188 L 59.327125 -91.619344 " transform="matrix(1,0,0,-1,8.501,89.408)"/>
</g>
<path style="fill:none;stroke-width:0.3985;stroke-linecap:butt;stroke-linejoin:miter;stroke:rgb(100%,0%,0%);stroke-opacity:1;stroke-miterlimit:10;" d="M 53.526344 -50.353719 L 59.862281 -63.033406 " transform="matrix(1,0,0,-1,8.501,89.408)"/>
<path style="fill:none;stroke-width:0.3985;stroke-linecap:butt;stroke-linejoin:miter;stroke:rgb(100%,0%,0%);stroke-opacity:1;stroke-miterlimit:10;" d="M 52.760719 -22.451375 L 60.624 -34.244344 " transform="matrix(1,0,0,-1,8.501,89.408)"/>
<path style="fill:none;stroke-width:0.3985;stroke-linecap:butt;stroke-linejoin:miter;stroke:rgb(100%,0%,0%);stroke-opacity:1;stroke-miterlimit:10;" d="M 51.682594 5.009562 L 61.706031 -5.009969 " transform="matrix(1,0,0,-1,8.501,89.408)"/>
<path style="fill:none;stroke-width:0.3985;stroke-linecap:butt;stroke-linejoin:miter;stroke:rgb(100%,0%,0%);stroke-opacity:1;stroke-miterlimit:10;" d="M 50.354469 31.517375 L 63.03025 25.177531 " transform="matrix(1,0,0,-1,8.501,89.408)"/>
<path style="fill:none;stroke-width:0.3985;stroke-linecap:butt;stroke-linejoin:miter;stroke:rgb(100%,0%,0%);stroke-opacity:1;stroke-miterlimit:10;" d="M 49.608375 56.693156 L 63.78025 56.693156 " transform="matrix(1,0,0,-1,8.501,89.408)"/>
<path style="fill:none;stroke-width:0.3985;stroke-linecap:butt;stroke-linejoin:miter;stroke:rgb(100%,0%,0%);stroke-opacity:1;stroke-miterlimit:10;" d="M 50.354469 81.872844 L 63.03025 88.208781 " transform="matrix(1,0,0,-1,8.501,89.408)"/>
<g clip-path="url(#clip4)" clip-rule="nonzero">
<path style="fill:none;stroke-width:0.3985;stroke-linecap:butt;stroke-linejoin:miter;stroke:rgb(100%,0%,0%);stroke-opacity:1;stroke-miterlimit:10;" d="M 82.409156 -78.459188 L 87.670875 -91.619344 " transform="matrix(1,0,0,-1,8.501,89.408)"/>
</g>
<path style="fill:none;stroke-width:0.3985;stroke-linecap:butt;stroke-linejoin:miter;stroke:rgb(100%,0%,0%);stroke-opacity:1;stroke-miterlimit:10;" d="M 81.870094 -50.353719 L 88.209938 -63.033406 " transform="matrix(1,0,0,-1,8.501,89.408)"/>
<path style="fill:none;stroke-width:0.3985;stroke-linecap:butt;stroke-linejoin:miter;stroke:rgb(100%,0%,0%);stroke-opacity:1;stroke-miterlimit:10;" d="M 81.108375 -22.451375 L 88.971656 -34.244344 " transform="matrix(1,0,0,-1,8.501,89.408)"/>
<path style="fill:none;stroke-width:0.3985;stroke-linecap:butt;stroke-linejoin:miter;stroke:rgb(100%,0%,0%);stroke-opacity:1;stroke-miterlimit:10;" d="M 80.03025 5.009562 L 90.049781 -5.009969 " transform="matrix(1,0,0,-1,8.501,89.408)"/>
<path style="fill:none;stroke-width:0.3985;stroke-linecap:butt;stroke-linejoin:miter;stroke:rgb(100%,0%,0%);stroke-opacity:1;stroke-miterlimit:10;" d="M 78.702125 31.517375 L 91.377906 25.177531 " transform="matrix(1,0,0,-1,8.501,89.408)"/>
<path style="fill:none;stroke-width:0.3985;stroke-linecap:butt;stroke-linejoin:miter;stroke:rgb(100%,0%,0%);stroke-opacity:1;stroke-miterlimit:10;" d="M 77.952125 56.693156 L 92.127906 56.693156 " transform="matrix(1,0,0,-1,8.501,89.408)"/>
<path style="fill:none;stroke-width:0.3985;stroke-linecap:butt;stroke-linejoin:miter;stroke:rgb(100%,0%,0%);stroke-opacity:1;stroke-miterlimit:10;" d="M 78.702125 81.872844 L 91.377906 88.208781 " transform="matrix(1,0,0,-1,8.501,89.408)"/>
<g clip-path="url(#clip5)" clip-rule="nonzero">
<path style="fill:none;stroke-width:0.3985;stroke-linecap:butt;stroke-linejoin:miter;stroke:rgb(100%,0%,0%);stroke-opacity:1;stroke-miterlimit:10;" d="M 110.756813 -78.459188 L 116.018531 -91.619344 " transform="matrix(1,0,0,-1,8.501,89.408)"/>
</g>
<path style="fill:none;stroke-width:0.3985;stroke-linecap:butt;stroke-linejoin:miter;stroke:rgb(100%,0%,0%);stroke-opacity:1;stroke-miterlimit:10;" d="M 110.21775 -50.353719 L 116.557594 -63.033406 " transform="matrix(1,0,0,-1,8.501,89.408)"/>
<path style="fill:none;stroke-width:0.3985;stroke-linecap:butt;stroke-linejoin:miter;stroke:rgb(100%,0%,0%);stroke-opacity:1;stroke-miterlimit:10;" d="M 109.456031 -22.451375 L 117.319313 -34.244344 " transform="matrix(1,0,0,-1,8.501,89.408)"/>
<path style="fill:none;stroke-width:0.3985;stroke-linecap:butt;stroke-linejoin:miter;stroke:rgb(100%,0%,0%);stroke-opacity:1;stroke-miterlimit:10;" d="M 108.377906 5.009562 L 118.397438 -5.009969 " transform="matrix(1,0,0,-1,8.501,89.408)"/>
<path style="fill:none;stroke-width:0.3985;stroke-linecap:butt;stroke-linejoin:miter;stroke:rgb(100%,0%,0%);stroke-opacity:1;stroke-miterlimit:10;" d="M 107.049781 31.517375 L 119.725563 25.177531 " transform="matrix(1,0,0,-1,8.501,89.408)"/>
<path style="fill:none;stroke-width:0.3985;stroke-linecap:butt;stroke-linejoin:miter;stroke:rgb(100%,0%,0%);stroke-opacity:1;stroke-miterlimit:10;" d="M 106.299781 56.693156 L 120.475563 56.693156 " transform="matrix(1,0,0,-1,8.501,89.408)"/>
<path style="fill:none;stroke-width:0.3985;stroke-linecap:butt;stroke-linejoin:miter;stroke:rgb(100%,0%,0%);stroke-opacity:1;stroke-miterlimit:10;" d="M 107.049781 81.872844 L 119.725563 88.208781 " transform="matrix(1,0,0,-1,8.501,89.408)"/>
<g clip-path="url(#clip6)" clip-rule="nonzero">
<path style="fill:none;stroke-width:0.3985;stroke-linecap:butt;stroke-linejoin:miter;stroke:rgb(100%,0%,0%);stroke-opacity:1;stroke-miterlimit:10;" d="M 139.100563 -78.459188 L 144.366188 -91.619344 " transform="matrix(1,0,0,-1,8.501,89.408)"/>
</g>
<path style="fill:none;stroke-width:0.3985;stroke-linecap:butt;stroke-linejoin:miter;stroke:rgb(100%,0%,0%);stroke-opacity:1;stroke-miterlimit:10;" d="M 138.565406 -50.353719 L 144.901344 -63.033406 " transform="matrix(1,0,0,-1,8.501,89.408)"/>
<path style="fill:none;stroke-width:0.3985;stroke-linecap:butt;stroke-linejoin:miter;stroke:rgb(100%,0%,0%);stroke-opacity:1;stroke-miterlimit:10;" d="M 137.803688 -22.451375 L 145.666969 -34.244344 " transform="matrix(1,0,0,-1,8.501,89.408)"/>
<path style="fill:none;stroke-width:0.3985;stroke-linecap:butt;stroke-linejoin:miter;stroke:rgb(100%,0%,0%);stroke-opacity:1;stroke-miterlimit:10;" d="M 136.721656 5.009562 L 146.745094 -5.009969 " transform="matrix(1,0,0,-1,8.501,89.408)"/>
<path style="fill:none;stroke-width:0.3985;stroke-linecap:butt;stroke-linejoin:miter;stroke:rgb(100%,0%,0%);stroke-opacity:1;stroke-miterlimit:10;" d="M 135.397438 31.517375 L 148.073219 25.177531 " transform="matrix(1,0,0,-1,8.501,89.408)"/>
<path style="fill:none;stroke-width:0.3985;stroke-linecap:butt;stroke-linejoin:miter;stroke:rgb(100%,0%,0%);stroke-opacity:1;stroke-miterlimit:10;" d="M 134.647438 56.693156 L 148.819313 56.693156 " transform="matrix(1,0,0,-1,8.501,89.408)"/>
<path style="fill:none;stroke-width:0.3985;stroke-linecap:butt;stroke-linejoin:miter;stroke:rgb(100%,0%,0%);stroke-opacity:1;stroke-miterlimit:10;" d="M 135.397438 81.872844 L 148.073219 88.208781 " transform="matrix(1,0,0,-1,8.501,89.408)"/>
<g clip-path="url(#clip7)" clip-rule="nonzero">
<path style="fill:none;stroke-width:0.3985;stroke-linecap:butt;stroke-linejoin:miter;stroke:rgb(100%,0%,0%);stroke-opacity:1;stroke-miterlimit:10;" d="M 167.448219 -78.459188 L 172.713844 -91.619344 " transform="matrix(1,0,0,-1,8.501,89.408)"/>
</g>
<g clip-path="url(#clip8)" clip-rule="nonzero">
<path style="fill:none;stroke-width:0.3985;stroke-linecap:butt;stroke-linejoin:miter;stroke:rgb(100%,0%,0%);stroke-opacity:1;stroke-miterlimit:10;" d="M 166.913063 -50.353719 L 173.249 -63.033406 " transform="matrix(1,0,0,-1,8.501,89.408)"/>
</g>
<g clip-path="url(#clip9)" clip-rule="nonzero">
<path style="fill:none;stroke-width:0.3985;stroke-linecap:butt;stroke-linejoin:miter;stroke:rgb(100%,0%,0%);stroke-opacity:1;stroke-miterlimit:10;" d="M 166.151344 -22.451375 L 174.010719 -34.244344 " transform="matrix(1,0,0,-1,8.501,89.408)"/>
</g>
<g clip-path="url(#clip10)" clip-rule="nonzero">
<path style="fill:none;stroke-width:0.3985;stroke-linecap:butt;stroke-linejoin:miter;stroke:rgb(100%,0%,0%);stroke-opacity:1;stroke-miterlimit:10;" d="M 165.069313 5.009562 L 175.09275 -5.009969 " transform="matrix(1,0,0,-1,8.501,89.408)"/>
</g>
<g clip-path="url(#clip11)" clip-rule="nonzero">
<path style="fill:none;stroke-width:0.3985;stroke-linecap:butt;stroke-linejoin:miter;stroke:rgb(100%,0%,0%);stroke-opacity:1;stroke-miterlimit:10;" d="M 163.741188 31.517375 L 176.420875 25.177531 " transform="matrix(1,0,0,-1,8.501,89.408)"/>
</g>
<path style="fill:none;stroke-width:0.3985;stroke-linecap:butt;stroke-linejoin:miter;stroke:rgb(100%,0%,0%);stroke-opacity:1;stroke-miterlimit:10;" d="M 162.995094 56.693156 L 177.166969 56.693156 " transform="matrix(1,0,0,-1,8.501,89.408)"/>
<g clip-path="url(#clip12)" clip-rule="nonzero">
<path style="fill:none;stroke-width:0.3985;stroke-linecap:butt;stroke-linejoin:miter;stroke:rgb(100%,0%,0%);stroke-opacity:1;stroke-miterlimit:10;" d="M 163.741188 81.872844 L 176.420875 88.208781 " transform="matrix(1,0,0,-1,8.501,89.408)"/>
</g>
</g>
</svg>
