<?xml version="1.0" encoding="UTF-8"?>
<svg xmlns="http://www.w3.org/2000/svg" xmlns:xlink="http://www.w3.org/1999/xlink" width="194.96pt" height="191.12pt" viewBox="0 0 194.96 191.12" version="1.1">
<g id="surface1">
<path style="fill:none;stroke-width:0.79701;stroke-linecap:butt;stroke-linejoin:miter;stroke:rgb(0%,0%,100%);stroke-opacity:1;stroke-miterlimit:10;" d="M -56.69475 -56.694219 L -47.378344 -56.694219 " transform="matrix(1,0,0,-1,60.226,130.63)"/>
<path style="fill:none;stroke-width:0.6376;stroke-linecap:round;stroke-linejoin:round;stroke:rgb(0%,0%,100%);stroke-opacity:1;stroke-miterlimit:10;" d="M -1.553971 2.07362 C -1.425065 1.296276 0.00071625 0.128308 0.387435 -0.00059875 C 0.00071625 -0.129505 -1.425065 -1.293567 -1.553971 -2.070911 " transform="matrix(1,0,0,-1,12.84694,187.32362)"/>
<path style="fill:none;stroke-width:0.79701;stroke-linecap:butt;stroke-linejoin:miter;stroke:rgb(100%,0%,0%);stroke-opacity:1;stroke-miterlimit:10;" d="M -56.69475 -56.694219 L -56.69475 -37.358281 " transform="matrix(1,0,0,-1,60.226,130.63)"/>
<path style="fill:none;stroke-width:0.6376;stroke-linecap:round;stroke-linejoin:round;stroke:rgb(100%,0%,0%);stroke-opacity:1;stroke-miterlimit:10;" d="M -1.552343 2.071442 C -1.423436 1.294099 -0.00156125 0.130036 0.389064 0.00113 C -0.00156125 -0.127776 -1.423436 -1.295745 -1.552343 -2.073089 " transform="matrix(0,-1,-1,0,3.53238,167.98672)"/>
<path style="fill:none;stroke-width:0.79701;stroke-linecap:butt;stroke-linejoin:miter;stroke:rgb(0%,0%,100%);stroke-opacity:1;stroke-miterlimit:10;" d="M -56.69475 -28.346563 L -49.479906 -28.346563 " transform="matrix(1,0,0,-1,60.226,130.63)"/>
<path style="fill:none;stroke-width:0.6376;stroke-linecap:round;stroke-linejoin:round;stroke:rgb(0%,0%,100%);stroke-opacity:1;stroke-miterlimit:10;" d="M -1.552507 2.07055 C -1.423601 1.293206 -0.00172625 0.129144 0.388899 0.0002375 C -0.00172625 -0.128669 -1.423601 -1.296638 -1.552507 -2.073981 " transform="matrix(1,0,0,-1,10.74782,158.9768)"/>
<path style="fill:none;stroke-width:0.79701;stroke-linecap:butt;stroke-linejoin:miter;stroke:rgb(100%,0%,0%);stroke-opacity:1;stroke-miterlimit:10;" d="M -56.69475 -28.346563 L -56.69475 -11.33875 " transform="matrix(1,0,0,-1,60.226,130.63)"/>
<path style="fill:none;stroke-width:0.6376;stroke-linecap:round;stroke-linejoin:round;stroke:rgb(100%,0%,0%);stroke-opacity:1;stroke-miterlimit:10;" d="M -1.556038 2.071442 C -1.423225 1.294099 -0.00135 0.130036 0.389275 0.00113 C -0.00135 -0.127776 -1.423225 -1.295745 -1.556038 -2.073089 " transform="matrix(0,-1,-1,0,3.53238,141.9674)"/>
<path style="fill:none;stroke-width:0.79701;stroke-linecap:butt;stroke-linejoin:miter;stroke:rgb(0%,0%,100%);stroke-opacity:1;stroke-miterlimit:10;" d="M -56.69475 0.00109375 L -50.315844 0.00109375 " transform="matrix(1,0,0,-1,60.226,130.63)"/>
<path style="fill:none;stroke-width:0.6376;stroke-linecap:round;stroke-linejoin:round;stroke:rgb(0%,0%,100%);stroke-opacity:1;stroke-miterlimit:10;" d="M -1.552355 2.071406 C -1.423449 1.294062 -0.00157375 0.13 0.389051 0.00109375 C -0.00157375 -0.127813 -1.423449 -1.295781 -1.552355 -2.073125 " transform="matrix(1,0,0,-1,9.91173,130.63)"/>
<path style="fill:none;stroke-width:0.79701;stroke-linecap:butt;stroke-linejoin:miter;stroke:rgb(100%,0%,0%);stroke-opacity:1;stroke-miterlimit:10;" d="M -56.69475 0.00109375 L -56.69475 15.137812 " transform="matrix(1,0,0,-1,60.226,130.63)"/>
<path style="fill:none;stroke-width:0.6376;stroke-linecap:round;stroke-linejoin:round;stroke:rgb(100%,0%,0%);stroke-opacity:1;stroke-miterlimit:10;" d="M -1.555535 2.071442 C -1.422723 1.294099 -0.0008475 0.130036 0.389777 0.00113 C -0.0008475 -0.127776 -1.422723 -1.295745 -1.555535 -2.073089 " transform="matrix(0,-1,-1,0,3.53238,115.49134)"/>
<path style="fill:none;stroke-width:0.79701;stroke-linecap:butt;stroke-linejoin:miter;stroke:rgb(0%,0%,100%);stroke-opacity:1;stroke-miterlimit:10;" d="M -56.69475 28.34875 L -49.479906 28.34875 " transform="matrix(1,0,0,-1,60.226,130.63)"/>
<path style="fill:none;stroke-width:0.6376;stroke-linecap:round;stroke-linejoin:round;stroke:rgb(0%,0%,100%);stroke-opacity:1;stroke-miterlimit:10;" d="M -1.552507 2.072262 C -1.423601 1.294919 -0.00172625 0.130856 0.388899 0.00195 C -0.00172625 -0.130863 -1.423601 -1.294925 -1.552507 -2.072269 " transform="matrix(1,0,0,-1,10.74782,102.2832)"/>
<path style="fill:none;stroke-width:0.79701;stroke-linecap:butt;stroke-linejoin:miter;stroke:rgb(100%,0%,0%);stroke-opacity:1;stroke-miterlimit:10;" d="M -56.69475 28.34875 L -56.69475 42.247187 " transform="matrix(1,0,0,-1,60.226,130.63)"/>
<path style="fill:none;stroke-width:0.6376;stroke-linecap:round;stroke-linejoin:round;stroke:rgb(100%,0%,0%);stroke-opacity:1;stroke-miterlimit:10;" d="M -1.552424 2.071442 C -1.423518 1.294099 -0.0016425 0.130036 0.388982 0.00113 C -0.0016425 -0.127776 -1.423518 -1.295745 -1.552424 -2.073089 " transform="matrix(0,-1,-1,0,3.53238,88.38117)"/>
<path style="fill:none;stroke-width:0.79701;stroke-linecap:butt;stroke-linejoin:miter;stroke:rgb(0%,0%,100%);stroke-opacity:1;stroke-miterlimit:10;" d="M -56.69475 56.6925 L -47.378344 56.6925 " transform="matrix(1,0,0,-1,60.226,130.63)"/>
<path style="fill:none;stroke-width:0.6376;stroke-linecap:round;stroke-linejoin:round;stroke:rgb(0%,0%,100%);stroke-opacity:1;stroke-miterlimit:10;" d="M -1.553971 2.073099 C -1.425065 1.295755 0.00071625 0.127786 0.387435 -0.00112 C 0.00071625 -0.130026 -1.425065 -1.294089 -1.553971 -2.071433 " transform="matrix(1,0,0,-1,12.84694,73.93638)"/>
<path style="fill:none;stroke-width:0.79701;stroke-linecap:butt;stroke-linejoin:miter;stroke:rgb(100%,0%,0%);stroke-opacity:1;stroke-miterlimit:10;" d="M -56.69475 56.6925 L -56.69475 70.16125 " transform="matrix(1,0,0,-1,60.226,130.63)"/>
<path style="fill:none;stroke-width:0.6376;stroke-linecap:round;stroke-linejoin:round;stroke:rgb(100%,0%,0%);stroke-opacity:1;stroke-miterlimit:10;" d="M -1.553088 2.071442 C -1.424181 1.294099 0.0016 0.130036 0.388319 0.00113 C 0.0016 -0.127776 -1.424181 -1.295745 -1.553088 -2.073089 " transform="matrix(0,-1,-1,0,3.53238,60.47035)"/>
<path style="fill:none;stroke-width:0.79701;stroke-linecap:butt;stroke-linejoin:miter;stroke:rgb(0%,0%,100%);stroke-opacity:1;stroke-miterlimit:10;" d="M -56.69475 85.040156 L -44.624437 85.040156 " transform="matrix(1,0,0,-1,60.226,130.63)"/>
<path style="fill:none;stroke-width:0.6376;stroke-linecap:round;stroke-linejoin:round;stroke:rgb(0%,0%,100%);stroke-opacity:1;stroke-miterlimit:10;" d="M -1.553605 2.073955 C -1.424699 1.296611 0.0010825 0.128642 0.387801 -0.00026375 C 0.0010825 -0.12917 -1.424699 -1.293233 -1.553605 -2.070576 " transform="matrix(1,0,0,-1,15.60048,45.58958)"/>
<path style="fill:none;stroke-width:0.79701;stroke-linecap:butt;stroke-linejoin:miter;stroke:rgb(100%,0%,0%);stroke-opacity:1;stroke-miterlimit:10;" d="M -56.69475 85.040156 L -56.69475 98.9425 " transform="matrix(1,0,0,-1,60.226,130.63)"/>
<path style="fill:none;stroke-width:0.6376;stroke-linecap:round;stroke-linejoin:round;stroke:rgb(100%,0%,0%);stroke-opacity:1;stroke-miterlimit:10;" d="M -1.554628 2.071442 C -1.425721 1.294099 0.00006 0.130036 0.386779 0.00113 C 0.00006 -0.127776 -1.425721 -1.295745 -1.554628 -2.073089 " transform="matrix(0,-1,-1,0,3.53238,31.68756)"/>
<path style="fill:none;stroke-width:0.79701;stroke-linecap:butt;stroke-linejoin:miter;stroke:rgb(0%,0%,100%);stroke-opacity:1;stroke-miterlimit:10;" d="M -56.69475 113.387812 L -41.554125 113.387812 " transform="matrix(1,0,0,-1,60.226,130.63)"/>
<path style="fill:none;stroke-width:0.6376;stroke-linecap:round;stroke-linejoin:round;stroke:rgb(0%,0%,100%);stroke-opacity:1;stroke-miterlimit:10;" d="M -1.553883 2.070885 C -1.424976 1.293541 0.000805 0.129479 0.387524 0.0005725 C 0.000805 -0.128334 -1.424976 -1.296303 -1.553883 -2.073646 " transform="matrix(1,0,0,-1,18.67107,17.24276)"/>
<path style="fill:none;stroke-width:0.79701;stroke-linecap:butt;stroke-linejoin:miter;stroke:rgb(100%,0%,0%);stroke-opacity:1;stroke-miterlimit:10;" d="M -56.69475 113.387812 L -56.69475 128.524531 " transform="matrix(1,0,0,-1,60.226,130.63)"/>
<path style="fill:none;stroke-width:0.6376;stroke-linecap:round;stroke-linejoin:round;stroke:rgb(100%,0%,0%);stroke-opacity:1;stroke-miterlimit:10;" d="M -1.556056 2.071442 C -1.423244 1.294099 -0.00136875 0.130036 0.389256 0.00113 C -0.00136875 -0.127776 -1.423244 -1.295745 -1.556056 -2.073089 " transform="matrix(0,-1,-1,0,3.53238,2.1041)"/>
<path style="fill:none;stroke-width:0.79701;stroke-linecap:butt;stroke-linejoin:miter;stroke:rgb(0%,0%,100%);stroke-opacity:1;stroke-miterlimit:10;" d="M -28.347094 -56.694219 L -21.13225 -56.694219 " transform="matrix(1,0,0,-1,60.226,130.63)"/>
<path style="fill:none;stroke-width:0.6376;stroke-linecap:round;stroke-linejoin:round;stroke:rgb(0%,0%,100%);stroke-opacity:1;stroke-miterlimit:10;" d="M -1.555577 2.07362 C -1.422765 1.296276 -0.00089 0.128308 0.389735 -0.00059875 C -0.00089 -0.129505 -1.422765 -1.293567 -1.555577 -2.070911 " transform="matrix(1,0,0,-1,39.09464,187.32362)"/>
<path style="fill:none;stroke-width:0.79701;stroke-linecap:butt;stroke-linejoin:miter;stroke:rgb(100%,0%,0%);stroke-opacity:1;stroke-miterlimit:10;" d="M -28.347094 -56.694219 L -28.347094 -39.6825 " transform="matrix(1,0,0,-1,60.226,130.63)"/>
<path style="fill:none;stroke-width:0.6376;stroke-linecap:round;stroke-linejoin:round;stroke:rgb(100%,0%,0%);stroke-opacity:1;stroke-miterlimit:10;" d="M -1.552988 2.070606 C -1.424081 1.293262 0.0017 0.1292 0.388419 0.00029375 C 0.0017 -0.128613 -1.424081 -1.296581 -1.552988 -2.073925 " transform="matrix(0,-1,-1,0,31.8792,170.3142)"/>
<path style="fill:none;stroke-width:0.79701;stroke-linecap:butt;stroke-linejoin:miter;stroke:rgb(0%,0%,100%);stroke-opacity:1;stroke-miterlimit:10;" d="M -28.347094 -28.346563 L -24.042406 -28.346563 " transform="matrix(1,0,0,-1,60.226,130.63)"/>
<path style="fill:none;stroke-width:0.6376;stroke-linecap:round;stroke-linejoin:round;stroke:rgb(0%,0%,100%);stroke-opacity:1;stroke-miterlimit:10;" d="M -1.553894 2.07055 C -1.424988 1.293206 0.00079375 0.129144 0.387512 0.0002375 C 0.00079375 -0.128669 -1.424988 -1.296638 -1.553894 -2.073981 " transform="matrix(1,0,0,-1,36.1828,158.9768)"/>
<path style="fill:none;stroke-width:0.79701;stroke-linecap:butt;stroke-linejoin:miter;stroke:rgb(100%,0%,0%);stroke-opacity:1;stroke-miterlimit:10;" d="M -28.347094 -28.346563 L -28.347094 -14.022344 " transform="matrix(1,0,0,-1,60.226,130.63)"/>
<path style="fill:none;stroke-width:0.6376;stroke-linecap:round;stroke-linejoin:round;stroke:rgb(100%,0%,0%);stroke-opacity:1;stroke-miterlimit:10;" d="M -1.555731 2.070606 C -1.422919 1.293262 -0.00104375 0.1292 0.389581 0.00029375 C -0.00104375 -0.128613 -1.422919 -1.296581 -1.555731 -2.073925 " transform="matrix(0,-1,-1,0,31.8792,144.6513)"/>
<path style="fill:none;stroke-width:0.79701;stroke-linecap:butt;stroke-linejoin:miter;stroke:rgb(0%,0%,100%);stroke-opacity:1;stroke-miterlimit:10;" d="M -28.347094 0.00109375 L -25.511156 0.00109375 " transform="matrix(1,0,0,-1,60.226,130.63)"/>
<path style="fill:none;stroke-width:0.6376;stroke-linecap:round;stroke-linejoin:round;stroke:rgb(0%,0%,100%);stroke-opacity:1;stroke-miterlimit:10;" d="M -1.555024 2.071406 C -1.426117 1.294062 -0.00033625 0.13 0.390289 0.00109375 C -0.00033625 -0.127813 -1.426117 -1.295781 -1.555024 -2.073125 " transform="matrix(1,0,0,-1,34.71518,130.63)"/>
<path style="fill:none;stroke-width:0.79701;stroke-linecap:butt;stroke-linejoin:miter;stroke:rgb(100%,0%,0%);stroke-opacity:1;stroke-miterlimit:10;" d="M -28.347094 0.00109375 L -28.347094 12.0675 " transform="matrix(1,0,0,-1,60.226,130.63)"/>
<path style="fill:none;stroke-width:0.6376;stroke-linecap:round;stroke-linejoin:round;stroke:rgb(100%,0%,0%);stroke-opacity:1;stroke-miterlimit:10;" d="M -1.555258 2.070606 C -1.426351 1.293262 -0.00057 0.1292 0.390055 0.00029375 C -0.00057 -0.128613 -1.426351 -1.296581 -1.555258 -2.073925 " transform="matrix(0,-1,-1,0,31.8792,118.56193)"/>
<path style="fill:none;stroke-width:0.79701;stroke-linecap:butt;stroke-linejoin:miter;stroke:rgb(0%,0%,100%);stroke-opacity:1;stroke-miterlimit:10;" d="M -28.347094 28.34875 L -24.042406 28.34875 " transform="matrix(1,0,0,-1,60.226,130.63)"/>
<path style="fill:none;stroke-width:0.6376;stroke-linecap:round;stroke-linejoin:round;stroke:rgb(0%,0%,100%);stroke-opacity:1;stroke-miterlimit:10;" d="M -1.553894 2.072262 C -1.424988 1.294919 0.00079375 0.130856 0.387512 0.00195 C 0.00079375 -0.130863 -1.424988 -1.294925 -1.553894 -2.072269 " transform="matrix(1,0,0,-1,36.1828,102.2832)"/>
<path style="fill:none;stroke-width:0.79701;stroke-linecap:butt;stroke-linejoin:miter;stroke:rgb(100%,0%,0%);stroke-opacity:1;stroke-miterlimit:10;" d="M -28.347094 28.34875 L -28.347094 38.844844 " transform="matrix(1,0,0,-1,60.226,130.63)"/>
<path style="fill:none;stroke-width:0.6376;stroke-linecap:round;stroke-linejoin:round;stroke:rgb(100%,0%,0%);stroke-opacity:1;stroke-miterlimit:10;" d="M -1.554174 2.070606 C -1.425268 1.293262 0.00051375 0.1292 0.387232 0.00029375 C 0.00051375 -0.128613 -1.425268 -1.296581 -1.554174 -2.073925 " transform="matrix(0,-1,-1,0,31.8792,91.78567)"/>
<path style="fill:none;stroke-width:0.79701;stroke-linecap:butt;stroke-linejoin:miter;stroke:rgb(0%,0%,100%);stroke-opacity:1;stroke-miterlimit:10;" d="M -28.347094 56.6925 L -21.13225 56.6925 " transform="matrix(1,0,0,-1,60.226,130.63)"/>
<path style="fill:none;stroke-width:0.6376;stroke-linecap:round;stroke-linejoin:round;stroke:rgb(0%,0%,100%);stroke-opacity:1;stroke-miterlimit:10;" d="M -1.555577 2.073099 C -1.422765 1.295755 -0.00089 0.127786 0.389735 -0.00112 C -0.00089 -0.130026 -1.422765 -1.294089 -1.555577 -2.071433 " transform="matrix(1,0,0,-1,39.09464,73.93638)"/>
<path style="fill:none;stroke-width:0.79701;stroke-linecap:butt;stroke-linejoin:miter;stroke:rgb(100%,0%,0%);stroke-opacity:1;stroke-miterlimit:10;" d="M -28.347094 56.6925 L -28.347094 66.614375 " transform="matrix(1,0,0,-1,60.226,130.63)"/>
<path style="fill:none;stroke-width:0.6376;stroke-linecap:round;stroke-linejoin:round;stroke:rgb(100%,0%,0%);stroke-opacity:1;stroke-miterlimit:10;" d="M -1.552696 2.070606 C -1.42379 1.293262 -0.001915 0.1292 0.38871 0.00029375 C -0.001915 -0.128613 -1.42379 -1.296581 -1.552696 -2.073925 " transform="matrix(0,-1,-1,0,31.8792,64.01371)"/>
<path style="fill:none;stroke-width:0.79701;stroke-linecap:butt;stroke-linejoin:miter;stroke:rgb(0%,0%,100%);stroke-opacity:1;stroke-miterlimit:10;" d="M -28.347094 85.040156 L -17.851 85.040156 " transform="matrix(1,0,0,-1,60.226,130.63)"/>
<path style="fill:none;stroke-width:0.6376;stroke-linecap:round;stroke-linejoin:round;stroke:rgb(0%,0%,100%);stroke-opacity:1;stroke-miterlimit:10;" d="M -1.552521 2.073955 C -1.423615 1.296611 -0.00174 0.128642 0.388885 -0.00026375 C -0.00174 -0.12917 -1.423615 -1.293233 -1.552521 -2.070576 " transform="matrix(1,0,0,-1,42.37674,45.58958)"/>
<path style="fill:none;stroke-width:0.79701;stroke-linecap:butt;stroke-linejoin:miter;stroke:rgb(100%,0%,0%);stroke-opacity:1;stroke-miterlimit:10;" d="M -28.347094 85.040156 L -28.347094 95.53625 " transform="matrix(1,0,0,-1,60.226,130.63)"/>
<path style="fill:none;stroke-width:0.6376;stroke-linecap:round;stroke-linejoin:round;stroke:rgb(100%,0%,0%);stroke-opacity:1;stroke-miterlimit:10;" d="M -1.552481 2.070606 C -1.423575 1.293262 -0.0017 0.1292 0.388925 0.00029375 C -0.0017 -0.128613 -1.423575 -1.296581 -1.552481 -2.073925 " transform="matrix(0,-1,-1,0,31.8792,35.09205)"/>
<path style="fill:none;stroke-width:0.79701;stroke-linecap:butt;stroke-linejoin:miter;stroke:rgb(0%,0%,100%);stroke-opacity:1;stroke-miterlimit:10;" d="M -28.347094 113.387812 L -14.44475 113.387812 " transform="matrix(1,0,0,-1,60.226,130.63)"/>
<path style="fill:none;stroke-width:0.6376;stroke-linecap:round;stroke-linejoin:round;stroke:rgb(0%,0%,100%);stroke-opacity:1;stroke-miterlimit:10;" d="M -1.554677 2.070885 C -1.425771 1.293541 0.00001 0.129479 0.386729 0.0005725 C 0.00001 -0.128334 -1.425771 -1.296303 -1.554677 -2.073646 " transform="matrix(1,0,0,-1,45.78124,17.24276)"/>
<path style="fill:none;stroke-width:0.79701;stroke-linecap:butt;stroke-linejoin:miter;stroke:rgb(100%,0%,0%);stroke-opacity:1;stroke-miterlimit:10;" d="M -28.347094 113.387812 L -28.347094 125.454219 " transform="matrix(1,0,0,-1,60.226,130.63)"/>
<path style="fill:none;stroke-width:0.6376;stroke-linecap:round;stroke-linejoin:round;stroke:rgb(100%,0%,0%);stroke-opacity:1;stroke-miterlimit:10;" d="M -1.555769 2.070606 C -1.422956 1.293262 -0.00108125 0.1292 0.389544 0.00029375 C -0.00108125 -0.128613 -1.422956 -1.296581 -1.555769 -2.073925 " transform="matrix(0,-1,-1,0,31.8792,5.1747)"/>
<path style="fill:none;stroke-width:0.79701;stroke-linecap:butt;stroke-linejoin:miter;stroke:rgb(0%,0%,100%);stroke-opacity:1;stroke-miterlimit:10;" d="M 0.0005625 -56.694219 L 6.379469 -56.694219 " transform="matrix(1,0,0,-1,60.226,130.63)"/>
<path style="fill:none;stroke-width:0.6376;stroke-linecap:round;stroke-linejoin:round;stroke:rgb(0%,0%,100%);stroke-opacity:1;stroke-miterlimit:10;" d="M -1.554539 2.07362 C -1.425633 1.296276 0.00014875 0.128308 0.386867 -0.00059875 C 0.00014875 -0.129505 -1.425633 -1.293567 -1.554539 -2.070911 " transform="matrix(1,0,0,-1,66.60532,187.32362)"/>
<path style="fill:none;stroke-width:0.79701;stroke-linecap:butt;stroke-linejoin:miter;stroke:rgb(100%,0%,0%);stroke-opacity:1;stroke-miterlimit:10;" d="M 0.0005625 -56.694219 L 0.0005625 -41.553594 " transform="matrix(1,0,0,-1,60.226,130.63)"/>
<path style="fill:none;stroke-width:0.6376;stroke-linecap:round;stroke-linejoin:round;stroke:rgb(100%,0%,0%);stroke-opacity:1;stroke-miterlimit:10;" d="M -1.553351 2.073656 C -1.424445 1.296312 0.00133625 0.128344 0.388055 -0.0005625 C 0.00133625 -0.129469 -1.424445 -1.293531 -1.553351 -2.070875 " transform="matrix(0,-1,-1,0,60.226,172.18493)"/>
<path style="fill:none;stroke-width:0.79701;stroke-linecap:butt;stroke-linejoin:miter;stroke:rgb(0%,0%,100%);stroke-opacity:1;stroke-miterlimit:10;" d="M 0.0005625 -28.346563 L 2.8365 -28.346563 " transform="matrix(1,0,0,-1,60.226,130.63)"/>
<path style="fill:none;stroke-width:0.6376;stroke-linecap:round;stroke-linejoin:round;stroke:rgb(0%,0%,100%);stroke-opacity:1;stroke-miterlimit:10;" d="M -1.554158 2.07055 C -1.425251 1.293206 0.00053 0.129144 0.387249 0.0002375 C 0.00053 -0.128669 -1.425251 -1.296638 -1.554158 -2.073981 " transform="matrix(1,0,0,-1,63.06197,158.9768)"/>
<path style="fill:none;stroke-width:0.79701;stroke-linecap:butt;stroke-linejoin:miter;stroke:rgb(100%,0%,0%);stroke-opacity:1;stroke-miterlimit:10;" d="M 0.0005625 -28.346563 L 0.0005625 -16.280156 " transform="matrix(1,0,0,-1,60.226,130.63)"/>
<path style="fill:none;stroke-width:0.6376;stroke-linecap:round;stroke-linejoin:round;stroke:rgb(100%,0%,0%);stroke-opacity:1;stroke-miterlimit:10;" d="M -1.552218 2.073656 C -1.423311 1.296312 -0.00143625 0.128344 0.389189 -0.0005625 C -0.00143625 -0.129469 -1.423311 -1.293531 -1.552218 -2.070875 " transform="matrix(0,-1,-1,0,60.226,146.90872)"/>
<path style="fill:none;stroke-width:0.79701;stroke-linecap:butt;stroke-linejoin:miter;stroke:rgb(100%,0%,0%);stroke-opacity:1;stroke-miterlimit:10;" d="M 0.0005625 0.00109375 L 0.0005625 9.313594 " transform="matrix(1,0,0,-1,60.226,130.63)"/>
<path style="fill:none;stroke-width:0.6376;stroke-linecap:round;stroke-linejoin:round;stroke:rgb(100%,0%,0%);stroke-opacity:1;stroke-miterlimit:10;" d="M -1.555624 2.073656 C -1.422811 1.296312 -0.00093625 0.128344 0.389689 -0.0005625 C -0.00093625 -0.129469 -1.422811 -1.293531 -1.555624 -2.070875 " transform="matrix(0,-1,-1,0,60.226,121.31547)"/>
<path style="fill:none;stroke-width:0.79701;stroke-linecap:butt;stroke-linejoin:miter;stroke:rgb(0%,0%,100%);stroke-opacity:1;stroke-miterlimit:10;" d="M 0.0005625 28.34875 L 2.8365 28.34875 " transform="matrix(1,0,0,-1,60.226,130.63)"/>
<path style="fill:none;stroke-width:0.6376;stroke-linecap:round;stroke-linejoin:round;stroke:rgb(0%,0%,100%);stroke-opacity:1;stroke-miterlimit:10;" d="M -1.554158 2.072262 C -1.425251 1.294919 0.00053 0.130856 0.387249 0.00195 C 0.00053 -0.130863 -1.425251 -1.294925 -1.554158 -2.072269 " transform="matrix(1,0,0,-1,63.06197,102.2832)"/>
<path style="fill:none;stroke-width:0.79701;stroke-linecap:butt;stroke-linejoin:miter;stroke:rgb(100%,0%,0%);stroke-opacity:1;stroke-miterlimit:10;" d="M 0.0005625 28.34875 L 0.0005625 35.563594 " transform="matrix(1,0,0,-1,60.226,130.63)"/>
<path style="fill:none;stroke-width:0.6376;stroke-linecap:round;stroke-linejoin:round;stroke:rgb(100%,0%,0%);stroke-opacity:1;stroke-miterlimit:10;" d="M -1.553324 2.073656 C -1.424418 1.296312 0.00136375 0.128344 0.388082 -0.0005625 C 0.00136375 -0.129469 -1.424418 -1.293531 -1.553324 -2.070875 " transform="matrix(0,-1,-1,0,60.226,95.06777)"/>
<path style="fill:none;stroke-width:0.79701;stroke-linecap:butt;stroke-linejoin:miter;stroke:rgb(0%,0%,100%);stroke-opacity:1;stroke-miterlimit:10;" d="M 0.0005625 56.6925 L 6.379469 56.6925 " transform="matrix(1,0,0,-1,60.226,130.63)"/>
<path style="fill:none;stroke-width:0.6376;stroke-linecap:round;stroke-linejoin:round;stroke:rgb(0%,0%,100%);stroke-opacity:1;stroke-miterlimit:10;" d="M -1.554539 2.073099 C -1.425633 1.295755 0.00014875 0.127786 0.386867 -0.00112 C 0.00014875 -0.130026 -1.425633 -1.294089 -1.554539 -2.071433 " transform="matrix(1,0,0,-1,66.60532,73.93638)"/>
<path style="fill:none;stroke-width:0.79701;stroke-linecap:butt;stroke-linejoin:miter;stroke:rgb(100%,0%,0%);stroke-opacity:1;stroke-miterlimit:10;" d="M 0.0005625 56.6925 L 0.0005625 63.071406 " transform="matrix(1,0,0,-1,60.226,130.63)"/>
<path style="fill:none;stroke-width:0.6376;stroke-linecap:round;stroke-linejoin:round;stroke:rgb(100%,0%,0%);stroke-opacity:1;stroke-miterlimit:10;" d="M -1.552315 2.073656 C -1.423409 1.296312 -0.00153375 0.128344 0.389091 -0.0005625 C -0.00153375 -0.129469 -1.423409 -1.293531 -1.552315 -2.070875 " transform="matrix(0,-1,-1,0,60.226,67.55706)"/>
<path style="fill:none;stroke-width:0.79701;stroke-linecap:butt;stroke-linejoin:miter;stroke:rgb(0%,0%,100%);stroke-opacity:1;stroke-miterlimit:10;" d="M 0.0005625 85.040156 L 9.922438 85.040156 " transform="matrix(1,0,0,-1,60.226,130.63)"/>
<path style="fill:none;stroke-width:0.6376;stroke-linecap:round;stroke-linejoin:round;stroke:rgb(0%,0%,100%);stroke-opacity:1;stroke-miterlimit:10;" d="M -1.55492 2.073955 C -1.426014 1.296611 -0.0002325 0.128642 0.390393 -0.00026375 C -0.0002325 -0.12917 -1.426014 -1.293233 -1.55492 -2.070576 " transform="matrix(1,0,0,-1,70.14867,45.58958)"/>
<path style="fill:none;stroke-width:0.79701;stroke-linecap:butt;stroke-linejoin:miter;stroke:rgb(100%,0%,0%);stroke-opacity:1;stroke-miterlimit:10;" d="M 0.0005625 85.040156 L 0.0005625 92.255 " transform="matrix(1,0,0,-1,60.226,130.63)"/>
<path style="fill:none;stroke-width:0.6376;stroke-linecap:round;stroke-linejoin:round;stroke:rgb(100%,0%,0%);stroke-opacity:1;stroke-miterlimit:10;" d="M -1.555527 2.073656 C -1.422715 1.296312 -0.00084 0.128344 0.389785 -0.0005625 C -0.00084 -0.129469 -1.422715 -1.293531 -1.555527 -2.070875 " transform="matrix(0,-1,-1,0,60.226,38.37416)"/>
<path style="fill:none;stroke-width:0.79701;stroke-linecap:butt;stroke-linejoin:miter;stroke:rgb(0%,0%,100%);stroke-opacity:1;stroke-miterlimit:10;" d="M 0.0005625 113.387812 L 13.465406 113.387812 " transform="matrix(1,0,0,-1,60.226,130.63)"/>
<path style="fill:none;stroke-width:0.6376;stroke-linecap:round;stroke-linejoin:round;stroke:rgb(0%,0%,100%);stroke-opacity:1;stroke-miterlimit:10;" d="M -1.555311 2.070885 C -1.426405 1.293541 -0.00062375 0.129479 0.390001 0.0005725 C -0.00062375 -0.128334 -1.426405 -1.296303 -1.555311 -2.073646 " transform="matrix(1,0,0,-1,73.69203,17.24276)"/>
<path style="fill:none;stroke-width:0.79701;stroke-linecap:butt;stroke-linejoin:miter;stroke:rgb(100%,0%,0%);stroke-opacity:1;stroke-miterlimit:10;" d="M 0.0005625 113.387812 L 0.0005625 122.700312 " transform="matrix(1,0,0,-1,60.226,130.63)"/>
<path style="fill:none;stroke-width:0.6376;stroke-linecap:round;stroke-linejoin:round;stroke:rgb(100%,0%,0%);stroke-opacity:1;stroke-miterlimit:10;" d="M -1.552239 2.073656 C -1.423333 1.296312 -0.0014575 0.128344 0.389167 -0.0005625 C -0.0014575 -0.129469 -1.423333 -1.293531 -1.552239 -2.070875 " transform="matrix(0,-1,-1,0,60.226,7.92823)"/>
<path style="fill:none;stroke-width:0.79701;stroke-linecap:butt;stroke-linejoin:miter;stroke:rgb(0%,0%,100%);stroke-opacity:1;stroke-miterlimit:10;" d="M 28.348219 -56.694219 L 35.563063 -56.694219 " transform="matrix(1,0,0,-1,60.226,130.63)"/>
<path style="fill:none;stroke-width:0.6376;stroke-linecap:round;stroke-linejoin:round;stroke:rgb(0%,0%,100%);stroke-opacity:1;stroke-miterlimit:10;" d="M -1.553855 2.07362 C -1.424949 1.296276 0.0008325 0.128308 0.387551 -0.00059875 C 0.0008325 -0.129505 -1.424949 -1.293567 -1.553855 -2.070911 " transform="matrix(1,0,0,-1,95.78823,187.32362)"/>
<path style="fill:none;stroke-width:0.79701;stroke-linecap:butt;stroke-linejoin:miter;stroke:rgb(100%,0%,0%);stroke-opacity:1;stroke-miterlimit:10;" d="M 28.348219 -56.694219 L 28.348219 -42.791875 " transform="matrix(1,0,0,-1,60.226,130.63)"/>
<path style="fill:none;stroke-width:0.6376;stroke-linecap:round;stroke-linejoin:round;stroke:rgb(100%,0%,0%);stroke-opacity:1;stroke-miterlimit:10;" d="M -1.555003 2.0728 C -1.426096 1.295456 -0.000315 0.131394 0.39031 -0.00141875 C -0.000315 -0.130325 -1.426096 -1.294387 -1.555003 -2.071731 " transform="matrix(0,-1,-1,0,88.5728,173.42156)"/>
<path style="fill:none;stroke-width:0.79701;stroke-linecap:butt;stroke-linejoin:miter;stroke:rgb(0%,0%,100%);stroke-opacity:1;stroke-miterlimit:10;" d="M 28.348219 -28.346563 L 32.649 -28.346563 " transform="matrix(1,0,0,-1,60.226,130.63)"/>
<path style="fill:none;stroke-width:0.6376;stroke-linecap:round;stroke-linejoin:round;stroke:rgb(0%,0%,100%);stroke-opacity:1;stroke-miterlimit:10;" d="M -1.556078 2.07055 C -1.423265 1.293206 -0.00139 0.129144 0.389235 0.0002375 C -0.00139 -0.128669 -1.423265 -1.296638 -1.556078 -2.073981 " transform="matrix(1,0,0,-1,92.87639,158.9768)"/>
<path style="fill:none;stroke-width:0.79701;stroke-linecap:butt;stroke-linejoin:miter;stroke:rgb(100%,0%,0%);stroke-opacity:1;stroke-miterlimit:10;" d="M 28.348219 -28.346563 L 28.348219 -17.850469 " transform="matrix(1,0,0,-1,60.226,130.63)"/>
<path style="fill:none;stroke-width:0.6376;stroke-linecap:round;stroke-linejoin:round;stroke:rgb(100%,0%,0%);stroke-opacity:1;stroke-miterlimit:10;" d="M -1.555896 2.0728 C -1.423084 1.295456 -0.00120875 0.131394 0.389416 -0.00141875 C -0.00120875 -0.130325 -1.423084 -1.294387 -1.555896 -2.071731 " transform="matrix(0,-1,-1,0,88.5728,148.47926)"/>
<path style="fill:none;stroke-width:0.79701;stroke-linecap:butt;stroke-linejoin:miter;stroke:rgb(0%,0%,100%);stroke-opacity:1;stroke-miterlimit:10;" d="M 28.348219 0.00109375 L 31.184156 0.00109375 " transform="matrix(1,0,0,-1,60.226,130.63)"/>
<path style="fill:none;stroke-width:0.6376;stroke-linecap:round;stroke-linejoin:round;stroke:rgb(0%,0%,100%);stroke-opacity:1;stroke-miterlimit:10;" d="M -1.553301 2.071406 C -1.424395 1.294062 0.00138625 0.13 0.388105 0.00109375 C 0.00138625 -0.127813 -1.424395 -1.295781 -1.553301 -2.073125 " transform="matrix(1,0,0,-1,91.40877,130.63)"/>
<path style="fill:none;stroke-width:0.79701;stroke-linecap:butt;stroke-linejoin:miter;stroke:rgb(100%,0%,0%);stroke-opacity:1;stroke-miterlimit:10;" d="M 28.348219 0.00109375 L 28.348219 7.215937 " transform="matrix(1,0,0,-1,60.226,130.63)"/>
<path style="fill:none;stroke-width:0.6376;stroke-linecap:round;stroke-linejoin:round;stroke:rgb(100%,0%,0%);stroke-opacity:1;stroke-miterlimit:10;" d="M -1.55416 2.0728 C -1.425254 1.295456 0.0005275 0.131394 0.387246 -0.00141875 C 0.0005275 -0.130325 -1.425254 -1.294387 -1.55416 -2.071731 " transform="matrix(0,-1,-1,0,88.5728,123.41459)"/>
<path style="fill:none;stroke-width:0.79701;stroke-linecap:butt;stroke-linejoin:miter;stroke:rgb(0%,0%,100%);stroke-opacity:1;stroke-miterlimit:10;" d="M 28.348219 28.34875 L 32.649 28.34875 " transform="matrix(1,0,0,-1,60.226,130.63)"/>
<path style="fill:none;stroke-width:0.6376;stroke-linecap:round;stroke-linejoin:round;stroke:rgb(0%,0%,100%);stroke-opacity:1;stroke-miterlimit:10;" d="M -1.556078 2.072262 C -1.423265 1.294919 -0.00139 0.130856 0.389235 0.00195 C -0.00139 -0.130863 -1.423265 -1.294925 -1.556078 -2.072269 " transform="matrix(1,0,0,-1,92.87639,102.2832)"/>
<path style="fill:none;stroke-width:0.79701;stroke-linecap:butt;stroke-linejoin:miter;stroke:rgb(100%,0%,0%);stroke-opacity:1;stroke-miterlimit:10;" d="M 28.348219 28.34875 L 28.348219 32.649531 " transform="matrix(1,0,0,-1,60.226,130.63)"/>
<path style="fill:none;stroke-width:0.6376;stroke-linecap:round;stroke-linejoin:round;stroke:rgb(100%,0%,0%);stroke-opacity:1;stroke-miterlimit:10;" d="M -1.555546 2.0728 C -1.422734 1.295456 -0.00085875 0.131394 0.389766 -0.00141875 C -0.00085875 -0.130325 -1.422734 -1.294387 -1.555546 -2.071731 " transform="matrix(0,-1,-1,0,88.5728,97.97961)"/>
<path style="fill:none;stroke-width:0.79701;stroke-linecap:butt;stroke-linejoin:miter;stroke:rgb(0%,0%,100%);stroke-opacity:1;stroke-miterlimit:10;" d="M 28.348219 56.6925 L 35.563063 56.6925 " transform="matrix(1,0,0,-1,60.226,130.63)"/>
<path style="fill:none;stroke-width:0.6376;stroke-linecap:round;stroke-linejoin:round;stroke:rgb(0%,0%,100%);stroke-opacity:1;stroke-miterlimit:10;" d="M -1.553855 2.073099 C -1.424949 1.295755 0.0008325 0.127786 0.387551 -0.00112 C 0.0008325 -0.130026 -1.424949 -1.294089 -1.553855 -2.071433 " transform="matrix(1,0,0,-1,95.78823,73.93638)"/>
<path style="fill:none;stroke-width:0.79701;stroke-linecap:butt;stroke-linejoin:miter;stroke:rgb(100%,0%,0%);stroke-opacity:1;stroke-miterlimit:10;" d="M 28.348219 56.6925 L 28.348219 59.528437 " transform="matrix(1,0,0,-1,60.226,130.63)"/>
<path style="fill:none;stroke-width:0.6376;stroke-linecap:round;stroke-linejoin:round;stroke:rgb(100%,0%,0%);stroke-opacity:1;stroke-miterlimit:10;" d="M -1.55584 2.0728 C -1.423028 1.295456 -0.0011525 0.131394 0.389472 -0.00141875 C -0.0011525 -0.130325 -1.423028 -1.294387 -1.55584 -2.071731 " transform="matrix(0,-1,-1,0,88.5728,71.10041)"/>
<path style="fill:none;stroke-width:0.79701;stroke-linecap:butt;stroke-linejoin:miter;stroke:rgb(0%,0%,100%);stroke-opacity:1;stroke-miterlimit:10;" d="M 28.348219 85.040156 L 38.844313 85.040156 " transform="matrix(1,0,0,-1,60.226,130.63)"/>
<path style="fill:none;stroke-width:0.6376;stroke-linecap:round;stroke-linejoin:round;stroke:rgb(0%,0%,100%);stroke-opacity:1;stroke-miterlimit:10;" d="M -1.554705 2.073955 C -1.425799 1.296611 -0.0000175 0.128642 0.386701 -0.00026375 C -0.0000175 -0.12917 -1.425799 -1.293233 -1.554705 -2.070576 " transform="matrix(1,0,0,-1,99.07033,45.58958)"/>
<path style="fill:none;stroke-width:0.79701;stroke-linecap:butt;stroke-linejoin:miter;stroke:rgb(100%,0%,0%);stroke-opacity:1;stroke-miterlimit:10;" d="M 28.348219 85.040156 L 28.348219 89.344844 " transform="matrix(1,0,0,-1,60.226,130.63)"/>
<path style="fill:none;stroke-width:0.6376;stroke-linecap:round;stroke-linejoin:round;stroke:rgb(100%,0%,0%);stroke-opacity:1;stroke-miterlimit:10;" d="M -1.553854 2.0728 C -1.424948 1.295456 0.00083375 0.131394 0.387552 -0.00141875 C 0.00083375 -0.130325 -1.424948 -1.294387 -1.553854 -2.071731 " transform="matrix(0,-1,-1,0,88.5728,41.28599)"/>
<path style="fill:none;stroke-width:0.79701;stroke-linecap:butt;stroke-linejoin:miter;stroke:rgb(0%,0%,100%);stroke-opacity:1;stroke-miterlimit:10;" d="M 28.348219 113.387812 L 42.250563 113.387812 " transform="matrix(1,0,0,-1,60.226,130.63)"/>
<path style="fill:none;stroke-width:0.6376;stroke-linecap:round;stroke-linejoin:round;stroke:rgb(0%,0%,100%);stroke-opacity:1;stroke-miterlimit:10;" d="M -1.552955 2.070885 C -1.424049 1.293541 0.0017325 0.129479 0.388451 0.0005725 C 0.0017325 -0.128334 -1.424049 -1.296303 -1.552955 -2.073646 " transform="matrix(1,0,0,-1,102.47483,17.24276)"/>
<path style="fill:none;stroke-width:0.79701;stroke-linecap:butt;stroke-linejoin:miter;stroke:rgb(100%,0%,0%);stroke-opacity:1;stroke-miterlimit:10;" d="M 28.348219 113.387812 L 28.348219 120.602656 " transform="matrix(1,0,0,-1,60.226,130.63)"/>
<path style="fill:none;stroke-width:0.6376;stroke-linecap:round;stroke-linejoin:round;stroke:rgb(100%,0%,0%);stroke-opacity:1;stroke-miterlimit:10;" d="M -1.554681 2.0728 C -1.425775 1.295456 0.00000625 0.131394 0.386725 -0.00141875 C 0.00000625 -0.130325 -1.425775 -1.294387 -1.554681 -2.071731 " transform="matrix(0,-1,-1,0,88.5728,10.02735)"/>
<path style="fill:none;stroke-width:0.79701;stroke-linecap:butt;stroke-linejoin:miter;stroke:rgb(0%,0%,100%);stroke-opacity:1;stroke-miterlimit:10;" d="M 56.691969 -56.694219 L 66.008375 -56.694219 " transform="matrix(1,0,0,-1,60.226,130.63)"/>
<path style="fill:none;stroke-width:0.6376;stroke-linecap:round;stroke-linejoin:round;stroke:rgb(0%,0%,100%);stroke-opacity:1;stroke-miterlimit:10;" d="M -1.554462 2.07362 C -1.425556 1.296276 0.000225 0.128308 0.386944 -0.00059875 C 0.000225 -0.129505 -1.425556 -1.293567 -1.554462 -2.070911 " transform="matrix(1,0,0,-1,126.23415,187.32362)"/>
<path style="fill:none;stroke-width:0.79701;stroke-linecap:butt;stroke-linejoin:miter;stroke:rgb(100%,0%,0%);stroke-opacity:1;stroke-miterlimit:10;" d="M 56.691969 -56.694219 L 56.691969 -43.229375 " transform="matrix(1,0,0,-1,60.226,130.63)"/>
<path style="fill:none;stroke-width:0.6376;stroke-linecap:round;stroke-linejoin:round;stroke:rgb(100%,0%,0%);stroke-opacity:1;stroke-miterlimit:10;" d="M -1.552586 2.071964 C -1.42368 1.29462 -0.001805 0.130558 0.38882 0.00165125 C -0.001805 -0.131161 -1.42368 -1.295224 -1.552586 -2.072567 " transform="matrix(0,-1,-1,0,116.91962,173.85757)"/>
<path style="fill:none;stroke-width:0.79701;stroke-linecap:butt;stroke-linejoin:miter;stroke:rgb(0%,0%,100%);stroke-opacity:1;stroke-miterlimit:10;" d="M 56.691969 -28.346563 L 63.910719 -28.346563 " transform="matrix(1,0,0,-1,60.226,130.63)"/>
<path style="fill:none;stroke-width:0.6376;stroke-linecap:round;stroke-linejoin:round;stroke:rgb(0%,0%,100%);stroke-opacity:1;stroke-miterlimit:10;" d="M -1.552999 2.07055 C -1.424093 1.293206 0.00168875 0.129144 0.388407 0.0002375 C 0.00168875 -0.128669 -1.424093 -1.296638 -1.552999 -2.073981 " transform="matrix(1,0,0,-1,124.13503,158.9768)"/>
<path style="fill:none;stroke-width:0.79701;stroke-linecap:butt;stroke-linejoin:miter;stroke:rgb(100%,0%,0%);stroke-opacity:1;stroke-miterlimit:10;" d="M 56.691969 -28.346563 L 56.691969 -18.424688 " transform="matrix(1,0,0,-1,60.226,130.63)"/>
<path style="fill:none;stroke-width:0.6376;stroke-linecap:round;stroke-linejoin:round;stroke:rgb(100%,0%,0%);stroke-opacity:1;stroke-miterlimit:10;" d="M -1.555275 2.071964 C -1.426369 1.29462 -0.0005875 0.130558 0.390038 0.00165125 C -0.0005875 -0.131161 -1.426369 -1.295224 -1.555275 -2.072567 " transform="matrix(0,-1,-1,0,116.91962,149.0541)"/>
<path style="fill:none;stroke-width:0.79701;stroke-linecap:butt;stroke-linejoin:miter;stroke:rgb(0%,0%,100%);stroke-opacity:1;stroke-miterlimit:10;" d="M 56.691969 0.00109375 L 63.074781 0.00109375 " transform="matrix(1,0,0,-1,60.226,130.63)"/>
<path style="fill:none;stroke-width:0.6376;stroke-linecap:round;stroke-linejoin:round;stroke:rgb(0%,0%,100%);stroke-opacity:1;stroke-miterlimit:10;" d="M -1.552846 2.071406 C -1.42394 1.294062 0.00184125 0.13 0.38856 0.00109375 C 0.00184125 -0.127813 -1.42394 -1.295781 -1.552846 -2.073125 " transform="matrix(1,0,0,-1,123.29894,130.63)"/>
<path style="fill:none;stroke-width:0.79701;stroke-linecap:butt;stroke-linejoin:miter;stroke:rgb(100%,0%,0%);stroke-opacity:1;stroke-miterlimit:10;" d="M 56.691969 0.00109375 L 56.691969 6.38 " transform="matrix(1,0,0,-1,60.226,130.63)"/>
<path style="fill:none;stroke-width:0.6376;stroke-linecap:round;stroke-linejoin:round;stroke:rgb(100%,0%,0%);stroke-opacity:1;stroke-miterlimit:10;" d="M -1.554008 2.071964 C -1.425101 1.29462 0.00068 0.130558 0.387399 0.00165125 C 0.00068 -0.131161 -1.425101 -1.295224 -1.554008 -2.072567 " transform="matrix(0,-1,-1,0,116.91962,124.25068)"/>
<path style="fill:none;stroke-width:0.79701;stroke-linecap:butt;stroke-linejoin:miter;stroke:rgb(0%,0%,100%);stroke-opacity:1;stroke-miterlimit:10;" d="M 56.691969 28.34875 L 63.910719 28.34875 " transform="matrix(1,0,0,-1,60.226,130.63)"/>
<path style="fill:none;stroke-width:0.6376;stroke-linecap:round;stroke-linejoin:round;stroke:rgb(0%,0%,100%);stroke-opacity:1;stroke-miterlimit:10;" d="M -1.552999 2.072262 C -1.424093 1.294919 0.00168875 0.130856 0.388407 0.00195 C 0.00168875 -0.130863 -1.424093 -1.294925 -1.552999 -2.072269 " transform="matrix(1,0,0,-1,124.13503,102.2832)"/>
<path style="fill:none;stroke-width:0.79701;stroke-linecap:butt;stroke-linejoin:miter;stroke:rgb(100%,0%,0%);stroke-opacity:1;stroke-miterlimit:10;" d="M 56.691969 28.34875 L 56.691969 31.184687 " transform="matrix(1,0,0,-1,60.226,130.63)"/>
<path style="fill:none;stroke-width:0.6376;stroke-linecap:round;stroke-linejoin:round;stroke:rgb(100%,0%,0%);stroke-opacity:1;stroke-miterlimit:10;" d="M -1.55277 2.071964 C -1.423864 1.29462 0.0019175 0.130558 0.388636 0.00165125 C 0.0019175 -0.131161 -1.423864 -1.295224 -1.55277 -2.072567 " transform="matrix(0,-1,-1,0,116.91962,99.44723)"/>
<path style="fill:none;stroke-width:0.79701;stroke-linecap:butt;stroke-linejoin:miter;stroke:rgb(0%,0%,100%);stroke-opacity:1;stroke-miterlimit:10;" d="M 56.691969 56.6925 L 66.008375 56.6925 " transform="matrix(1,0,0,-1,60.226,130.63)"/>
<path style="fill:none;stroke-width:0.6376;stroke-linecap:round;stroke-linejoin:round;stroke:rgb(0%,0%,100%);stroke-opacity:1;stroke-miterlimit:10;" d="M -1.554462 2.073099 C -1.425556 1.295755 0.000225 0.127786 0.386944 -0.00112 C 0.000225 -0.130026 -1.425556 -1.294089 -1.554462 -2.071433 " transform="matrix(1,0,0,-1,126.23415,73.93638)"/>
<path style="fill:none;stroke-width:0.79701;stroke-linecap:butt;stroke-linejoin:miter;stroke:rgb(0%,0%,100%);stroke-opacity:1;stroke-miterlimit:10;" d="M 56.691969 85.040156 L 68.762281 85.040156 " transform="matrix(1,0,0,-1,60.226,130.63)"/>
<path style="fill:none;stroke-width:0.6376;stroke-linecap:round;stroke-linejoin:round;stroke:rgb(0%,0%,100%);stroke-opacity:1;stroke-miterlimit:10;" d="M -1.554096 2.073955 C -1.42519 1.296611 0.00059125 0.128642 0.38731 -0.00026375 C 0.00059125 -0.12917 -1.42519 -1.293233 -1.554096 -2.070576 " transform="matrix(1,0,0,-1,128.98769,45.58958)"/>
<path style="fill:none;stroke-width:0.79701;stroke-linecap:butt;stroke-linejoin:miter;stroke:rgb(100%,0%,0%);stroke-opacity:1;stroke-miterlimit:10;" d="M 56.691969 85.040156 L 56.691969 87.876094 " transform="matrix(1,0,0,-1,60.226,130.63)"/>
<path style="fill:none;stroke-width:0.6376;stroke-linecap:round;stroke-linejoin:round;stroke:rgb(100%,0%,0%);stroke-opacity:1;stroke-miterlimit:10;" d="M -1.554994 2.071964 C -1.426087 1.29462 -0.00030625 0.130558 0.390319 0.00165125 C -0.00030625 -0.131161 -1.426087 -1.295224 -1.554994 -2.072567 " transform="matrix(0,-1,-1,0,116.91962,42.7536)"/>
<path style="fill:none;stroke-width:0.79701;stroke-linecap:butt;stroke-linejoin:miter;stroke:rgb(0%,0%,100%);stroke-opacity:1;stroke-miterlimit:10;" d="M 56.691969 113.387812 L 71.832594 113.387812 " transform="matrix(1,0,0,-1,60.226,130.63)"/>
<path style="fill:none;stroke-width:0.6376;stroke-linecap:round;stroke-linejoin:round;stroke:rgb(0%,0%,100%);stroke-opacity:1;stroke-miterlimit:10;" d="M -1.554374 2.070885 C -1.425467 1.293541 0.00031375 0.129479 0.387033 0.0005725 C 0.00031375 -0.128334 -1.425467 -1.296303 -1.554374 -2.073646 " transform="matrix(1,0,0,-1,132.05828,17.24276)"/>
<path style="fill:none;stroke-width:0.79701;stroke-linecap:butt;stroke-linejoin:miter;stroke:rgb(100%,0%,0%);stroke-opacity:1;stroke-miterlimit:10;" d="M 56.691969 113.387812 L 56.691969 119.766719 " transform="matrix(1,0,0,-1,60.226,130.63)"/>
<path style="fill:none;stroke-width:0.6376;stroke-linecap:round;stroke-linejoin:round;stroke:rgb(100%,0%,0%);stroke-opacity:1;stroke-miterlimit:10;" d="M -1.554529 2.071964 C -1.425623 1.29462 0.00015875 0.130558 0.386877 0.00165125 C 0.00015875 -0.131161 -1.425623 -1.295224 -1.554529 -2.072567 " transform="matrix(0,-1,-1,0,116.91962,10.86344)"/>
<path style="fill:none;stroke-width:0.79701;stroke-linecap:butt;stroke-linejoin:miter;stroke:rgb(0%,0%,100%);stroke-opacity:1;stroke-miterlimit:10;" d="M 85.039625 -56.694219 L 97.109938 -56.694219 " transform="matrix(1,0,0,-1,60.226,130.63)"/>
<path style="fill:none;stroke-width:0.6376;stroke-linecap:round;stroke-linejoin:round;stroke:rgb(0%,0%,100%);stroke-opacity:1;stroke-miterlimit:10;" d="M -1.55324 2.07362 C -1.424334 1.296276 0.0014475 0.128308 0.388166 -0.00059875 C 0.0014475 -0.129505 -1.424334 -1.293567 -1.55324 -2.070911 " transform="matrix(1,0,0,-1,157.33449,187.32362)"/>
<path style="fill:none;stroke-width:0.79701;stroke-linecap:butt;stroke-linejoin:miter;stroke:rgb(100%,0%,0%);stroke-opacity:1;stroke-miterlimit:10;" d="M 85.039625 -56.694219 L 85.039625 -42.791875 " transform="matrix(1,0,0,-1,60.226,130.63)"/>
<path style="fill:none;stroke-width:0.6376;stroke-linecap:round;stroke-linejoin:round;stroke:rgb(100%,0%,0%);stroke-opacity:1;stroke-miterlimit:10;" d="M -1.555003 2.071108 C -1.426096 1.293764 -0.000315 0.129701 0.39031 0.000795 C -0.000315 -0.128111 -1.426096 -1.29608 -1.555003 -2.073424 " transform="matrix(0,-1,-1,0,145.26642,173.42156)"/>
<path style="fill:none;stroke-width:0.79701;stroke-linecap:butt;stroke-linejoin:miter;stroke:rgb(0%,0%,100%);stroke-opacity:1;stroke-miterlimit:10;" d="M 85.039625 -28.346563 L 95.539625 -28.346563 " transform="matrix(1,0,0,-1,60.226,130.63)"/>
<path style="fill:none;stroke-width:0.6376;stroke-linecap:round;stroke-linejoin:round;stroke:rgb(0%,0%,100%);stroke-opacity:1;stroke-miterlimit:10;" d="M -1.553013 2.07055 C -1.424106 1.293206 0.001675 0.129144 0.388394 0.0002375 C 0.001675 -0.128669 -1.424106 -1.296638 -1.553013 -2.073981 " transform="matrix(1,0,0,-1,155.76395,158.9768)"/>
<path style="fill:none;stroke-width:0.79701;stroke-linecap:butt;stroke-linejoin:miter;stroke:rgb(100%,0%,0%);stroke-opacity:1;stroke-miterlimit:10;" d="M 85.039625 -28.346563 L 85.039625 -17.850469 " transform="matrix(1,0,0,-1,60.226,130.63)"/>
<path style="fill:none;stroke-width:0.6376;stroke-linecap:round;stroke-linejoin:round;stroke:rgb(100%,0%,0%);stroke-opacity:1;stroke-miterlimit:10;" d="M -1.555896 2.071108 C -1.423084 1.293764 -0.00120875 0.129701 0.389416 0.000795 C -0.00120875 -0.128111 -1.423084 -1.29608 -1.555896 -2.073424 " transform="matrix(0,-1,-1,0,145.26642,148.47926)"/>
<path style="fill:none;stroke-width:0.79701;stroke-linecap:butt;stroke-linejoin:miter;stroke:rgb(0%,0%,100%);stroke-opacity:1;stroke-miterlimit:10;" d="M 85.039625 0.00109375 L 94.9615 0.00109375 " transform="matrix(1,0,0,-1,60.226,130.63)"/>
<path style="fill:none;stroke-width:0.6376;stroke-linecap:round;stroke-linejoin:round;stroke:rgb(0%,0%,100%);stroke-opacity:1;stroke-miterlimit:10;" d="M -1.552381 2.071406 C -1.423475 1.294062 -0.0016 0.13 0.389025 0.00109375 C -0.0016 -0.127813 -1.423475 -1.295781 -1.552381 -2.073125 " transform="matrix(1,0,0,-1,155.1891,130.63)"/>
<path style="fill:none;stroke-width:0.79701;stroke-linecap:butt;stroke-linejoin:miter;stroke:rgb(100%,0%,0%);stroke-opacity:1;stroke-miterlimit:10;" d="M 85.039625 0.00109375 L 85.039625 7.215937 " transform="matrix(1,0,0,-1,60.226,130.63)"/>
<path style="fill:none;stroke-width:0.6376;stroke-linecap:round;stroke-linejoin:round;stroke:rgb(100%,0%,0%);stroke-opacity:1;stroke-miterlimit:10;" d="M -1.55416 2.071108 C -1.425254 1.293764 0.0005275 0.129701 0.387246 0.000795 C 0.0005275 -0.128111 -1.425254 -1.29608 -1.55416 -2.073424 " transform="matrix(0,-1,-1,0,145.26642,123.41459)"/>
<path style="fill:none;stroke-width:0.79701;stroke-linecap:butt;stroke-linejoin:miter;stroke:rgb(0%,0%,100%);stroke-opacity:1;stroke-miterlimit:10;" d="M 85.039625 28.34875 L 95.539625 28.34875 " transform="matrix(1,0,0,-1,60.226,130.63)"/>
<path style="fill:none;stroke-width:0.6376;stroke-linecap:round;stroke-linejoin:round;stroke:rgb(0%,0%,100%);stroke-opacity:1;stroke-miterlimit:10;" d="M -1.553013 2.072262 C -1.424106 1.294919 0.001675 0.130856 0.388394 0.00195 C 0.001675 -0.130863 -1.424106 -1.294925 -1.553013 -2.072269 " transform="matrix(1,0,0,-1,155.76395,102.2832)"/>
<path style="fill:none;stroke-width:0.79701;stroke-linecap:butt;stroke-linejoin:miter;stroke:rgb(100%,0%,0%);stroke-opacity:1;stroke-miterlimit:10;" d="M 85.039625 28.34875 L 85.039625 32.649531 " transform="matrix(1,0,0,-1,60.226,130.63)"/>
<path style="fill:none;stroke-width:0.6376;stroke-linecap:round;stroke-linejoin:round;stroke:rgb(100%,0%,0%);stroke-opacity:1;stroke-miterlimit:10;" d="M -1.555546 2.071108 C -1.422734 1.293764 -0.00085875 0.129701 0.389766 0.000795 C -0.00085875 -0.128111 -1.422734 -1.29608 -1.555546 -2.073424 " transform="matrix(0,-1,-1,0,145.26642,97.97961)"/>
<path style="fill:none;stroke-width:0.79701;stroke-linecap:butt;stroke-linejoin:miter;stroke:rgb(0%,0%,100%);stroke-opacity:1;stroke-miterlimit:10;" d="M 85.039625 56.6925 L 97.109938 56.6925 " transform="matrix(1,0,0,-1,60.226,130.63)"/>
<path style="fill:none;stroke-width:0.6376;stroke-linecap:round;stroke-linejoin:round;stroke:rgb(0%,0%,100%);stroke-opacity:1;stroke-miterlimit:10;" d="M -1.55324 2.073099 C -1.424334 1.295755 0.0014475 0.127786 0.388166 -0.00112 C 0.0014475 -0.130026 -1.424334 -1.294089 -1.55324 -2.071433 " transform="matrix(1,0,0,-1,157.33449,73.93638)"/>
<path style="fill:none;stroke-width:0.79701;stroke-linecap:butt;stroke-linejoin:miter;stroke:rgb(100%,0%,0%);stroke-opacity:1;stroke-miterlimit:10;" d="M 85.039625 56.6925 L 85.039625 59.528437 " transform="matrix(1,0,0,-1,60.226,130.63)"/>
<path style="fill:none;stroke-width:0.6376;stroke-linecap:round;stroke-linejoin:round;stroke:rgb(100%,0%,0%);stroke-opacity:1;stroke-miterlimit:10;" d="M -1.55584 2.071108 C -1.423028 1.293764 -0.0011525 0.129701 0.389472 0.000795 C -0.0011525 -0.128111 -1.423028 -1.29608 -1.55584 -2.073424 " transform="matrix(0,-1,-1,0,145.26642,71.10041)"/>
<path style="fill:none;stroke-width:0.79701;stroke-linecap:butt;stroke-linejoin:miter;stroke:rgb(0%,0%,100%);stroke-opacity:1;stroke-miterlimit:10;" d="M 85.039625 85.040156 L 99.36775 85.040156 " transform="matrix(1,0,0,-1,60.226,130.63)"/>
<path style="fill:none;stroke-width:0.6376;stroke-linecap:round;stroke-linejoin:round;stroke:rgb(0%,0%,100%);stroke-opacity:1;stroke-miterlimit:10;" d="M -1.552858 2.073955 C -1.423951 1.296611 0.00183 0.128642 0.388549 -0.00026375 C 0.00183 -0.12917 -1.423951 -1.293233 -1.552858 -2.070576 " transform="matrix(1,0,0,-1,159.59192,45.58958)"/>
<path style="fill:none;stroke-width:0.79701;stroke-linecap:butt;stroke-linejoin:miter;stroke:rgb(100%,0%,0%);stroke-opacity:1;stroke-miterlimit:10;" d="M 85.039625 85.040156 L 85.039625 89.344844 " transform="matrix(1,0,0,-1,60.226,130.63)"/>
<path style="fill:none;stroke-width:0.6376;stroke-linecap:round;stroke-linejoin:round;stroke:rgb(100%,0%,0%);stroke-opacity:1;stroke-miterlimit:10;" d="M -1.553854 2.071108 C -1.424948 1.293764 0.00083375 0.129701 0.387552 0.000795 C 0.00083375 -0.128111 -1.424948 -1.29608 -1.553854 -2.073424 " transform="matrix(0,-1,-1,0,145.26642,41.28599)"/>
<path style="fill:none;stroke-width:0.79701;stroke-linecap:butt;stroke-linejoin:miter;stroke:rgb(0%,0%,100%);stroke-opacity:1;stroke-miterlimit:10;" d="M 85.039625 113.387812 L 102.051344 113.387812 " transform="matrix(1,0,0,-1,60.226,130.63)"/>
<path style="fill:none;stroke-width:0.6376;stroke-linecap:round;stroke-linejoin:round;stroke:rgb(0%,0%,100%);stroke-opacity:1;stroke-miterlimit:10;" d="M -1.553144 2.070885 C -1.424238 1.293541 0.00154375 0.129479 0.388262 0.0005725 C 0.00154375 -0.128334 -1.424238 -1.296303 -1.553144 -2.073646 " transform="matrix(1,0,0,-1,162.2758,17.24276)"/>
<path style="fill:none;stroke-width:0.79701;stroke-linecap:butt;stroke-linejoin:miter;stroke:rgb(100%,0%,0%);stroke-opacity:1;stroke-miterlimit:10;" d="M 85.039625 113.387812 L 85.039625 120.602656 " transform="matrix(1,0,0,-1,60.226,130.63)"/>
<path style="fill:none;stroke-width:0.6376;stroke-linecap:round;stroke-linejoin:round;stroke:rgb(100%,0%,0%);stroke-opacity:1;stroke-miterlimit:10;" d="M -1.554681 2.071108 C -1.425775 1.293764 0.00000625 0.129701 0.386725 0.000795 C 0.00000625 -0.128111 -1.425775 -1.29608 -1.554681 -2.073424 " transform="matrix(0,-1,-1,0,145.26642,10.02735)"/>
<path style="fill:none;stroke-width:0.79701;stroke-linecap:butt;stroke-linejoin:miter;stroke:rgb(0%,0%,100%);stroke-opacity:1;stroke-miterlimit:10;" d="M 113.387281 -56.694219 L 128.524 -56.694219 " transform="matrix(1,0,0,-1,60.226,130.63)"/>
<path style="fill:none;stroke-width:0.6376;stroke-linecap:round;stroke-linejoin:round;stroke:rgb(0%,0%,100%);stroke-opacity:1;stroke-miterlimit:10;" d="M -1.552681 2.07362 C -1.423775 1.296276 -0.0019 0.128308 0.388725 -0.00059875 C -0.0019 -0.129505 -1.423775 -1.293567 -1.552681 -2.070911 " transform="matrix(1,0,0,-1,188.7519,187.32362)"/>
<path style="fill:none;stroke-width:0.79701;stroke-linecap:butt;stroke-linejoin:miter;stroke:rgb(100%,0%,0%);stroke-opacity:1;stroke-miterlimit:10;" d="M 113.387281 -56.694219 L 113.387281 -41.553594 " transform="matrix(1,0,0,-1,60.226,130.63)"/>
<path style="fill:none;stroke-width:0.6376;stroke-linecap:round;stroke-linejoin:round;stroke:rgb(100%,0%,0%);stroke-opacity:1;stroke-miterlimit:10;" d="M -1.553351 2.070271 C -1.424445 1.296834 0.00133625 0.128865 0.388055 -0.00004125 C 0.00133625 -0.128947 -1.424445 -1.296916 -1.553351 -2.070354 " transform="matrix(0,-1,-1,0,173.61324,172.18493)"/>
<path style="fill:none;stroke-width:0.79701;stroke-linecap:butt;stroke-linejoin:miter;stroke:rgb(0%,0%,100%);stroke-opacity:1;stroke-miterlimit:10;" d="M 113.387281 -28.346563 L 127.289625 -28.346563 " transform="matrix(1,0,0,-1,60.226,130.63)"/>
<path style="fill:none;stroke-width:0.6376;stroke-linecap:round;stroke-linejoin:round;stroke:rgb(0%,0%,100%);stroke-opacity:1;stroke-miterlimit:10;" d="M -1.554323 2.07055 C -1.425416 1.293206 0.000365 0.129144 0.387084 0.0002375 C 0.000365 -0.128669 -1.425416 -1.296638 -1.554323 -2.073981 " transform="matrix(1,0,0,-1,187.51526,158.9768)"/>
<path style="fill:none;stroke-width:0.79701;stroke-linecap:butt;stroke-linejoin:miter;stroke:rgb(100%,0%,0%);stroke-opacity:1;stroke-miterlimit:10;" d="M 113.387281 -28.346563 L 113.387281 -16.280156 " transform="matrix(1,0,0,-1,60.226,130.63)"/>
<path style="fill:none;stroke-width:0.6376;stroke-linecap:round;stroke-linejoin:round;stroke:rgb(100%,0%,0%);stroke-opacity:1;stroke-miterlimit:10;" d="M -1.552218 2.070271 C -1.423311 1.296834 -0.00143625 0.128865 0.389189 -0.00004125 C -0.00143625 -0.128947 -1.423311 -1.296916 -1.552218 -2.070354 " transform="matrix(0,-1,-1,0,173.61324,146.90872)"/>
<path style="fill:none;stroke-width:0.79701;stroke-linecap:butt;stroke-linejoin:miter;stroke:rgb(0%,0%,100%);stroke-opacity:1;stroke-miterlimit:10;" d="M 113.387281 0.00109375 L 126.852125 0.00109375 " transform="matrix(1,0,0,-1,60.226,130.63)"/>
<path style="fill:none;stroke-width:0.6376;stroke-linecap:round;stroke-linejoin:round;stroke:rgb(0%,0%,100%);stroke-opacity:1;stroke-miterlimit:10;" d="M -1.555833 2.071406 C -1.42302 1.294062 -0.001145 0.13 0.38948 0.00109375 C -0.001145 -0.127813 -1.42302 -1.295781 -1.555833 -2.073125 " transform="matrix(1,0,0,-1,187.07927,130.63)"/>
<path style="fill:none;stroke-width:0.79701;stroke-linecap:butt;stroke-linejoin:miter;stroke:rgb(100%,0%,0%);stroke-opacity:1;stroke-miterlimit:10;" d="M 113.387281 0.00109375 L 113.387281 9.313594 " transform="matrix(1,0,0,-1,60.226,130.63)"/>
<path style="fill:none;stroke-width:0.6376;stroke-linecap:round;stroke-linejoin:round;stroke:rgb(100%,0%,0%);stroke-opacity:1;stroke-miterlimit:10;" d="M -1.555624 2.070271 C -1.422811 1.296834 -0.00093625 0.128865 0.389689 -0.00004125 C -0.00093625 -0.128947 -1.422811 -1.296916 -1.555624 -2.070354 " transform="matrix(0,-1,-1,0,173.61324,121.31547)"/>
<path style="fill:none;stroke-width:0.79701;stroke-linecap:butt;stroke-linejoin:miter;stroke:rgb(0%,0%,100%);stroke-opacity:1;stroke-miterlimit:10;" d="M 113.387281 28.34875 L 127.289625 28.34875 " transform="matrix(1,0,0,-1,60.226,130.63)"/>
<path style="fill:none;stroke-width:0.6376;stroke-linecap:round;stroke-linejoin:round;stroke:rgb(0%,0%,100%);stroke-opacity:1;stroke-miterlimit:10;" d="M -1.554323 2.072262 C -1.425416 1.294919 0.000365 0.130856 0.387084 0.00195 C 0.000365 -0.130863 -1.425416 -1.294925 -1.554323 -2.072269 " transform="matrix(1,0,0,-1,187.51526,102.2832)"/>
<path style="fill:none;stroke-width:0.79701;stroke-linecap:butt;stroke-linejoin:miter;stroke:rgb(100%,0%,0%);stroke-opacity:1;stroke-miterlimit:10;" d="M 113.387281 28.34875 L 113.387281 35.563594 " transform="matrix(1,0,0,-1,60.226,130.63)"/>
<path style="fill:none;stroke-width:0.6376;stroke-linecap:round;stroke-linejoin:round;stroke:rgb(100%,0%,0%);stroke-opacity:1;stroke-miterlimit:10;" d="M -1.553324 2.070271 C -1.424418 1.296834 0.00136375 0.128865 0.388082 -0.00004125 C 0.00136375 -0.128947 -1.424418 -1.296916 -1.553324 -2.070354 " transform="matrix(0,-1,-1,0,173.61324,95.06777)"/>
<path style="fill:none;stroke-width:0.79701;stroke-linecap:butt;stroke-linejoin:miter;stroke:rgb(0%,0%,100%);stroke-opacity:1;stroke-miterlimit:10;" d="M 113.387281 56.6925 L 128.524 56.6925 " transform="matrix(1,0,0,-1,60.226,130.63)"/>
<path style="fill:none;stroke-width:0.6376;stroke-linecap:round;stroke-linejoin:round;stroke:rgb(0%,0%,100%);stroke-opacity:1;stroke-miterlimit:10;" d="M -1.552681 2.073099 C -1.423775 1.295755 -0.0019 0.127786 0.388725 -0.00112 C -0.0019 -0.130026 -1.423775 -1.294089 -1.552681 -2.071433 " transform="matrix(1,0,0,-1,188.7519,73.93638)"/>
<path style="fill:none;stroke-width:0.79701;stroke-linecap:butt;stroke-linejoin:miter;stroke:rgb(100%,0%,0%);stroke-opacity:1;stroke-miterlimit:10;" d="M 113.387281 56.6925 L 113.387281 63.071406 " transform="matrix(1,0,0,-1,60.226,130.63)"/>
<path style="fill:none;stroke-width:0.6376;stroke-linecap:round;stroke-linejoin:round;stroke:rgb(100%,0%,0%);stroke-opacity:1;stroke-miterlimit:10;" d="M -1.552315 2.070271 C -1.423409 1.296834 -0.00153375 0.128865 0.389091 -0.00004125 C -0.00153375 -0.128947 -1.423409 -1.296916 -1.552315 -2.070354 " transform="matrix(0,-1,-1,0,173.61324,67.55706)"/>
<path style="fill:none;stroke-width:0.79701;stroke-linecap:butt;stroke-linejoin:miter;stroke:rgb(0%,0%,100%);stroke-opacity:1;stroke-miterlimit:10;" d="M 113.387281 85.040156 L 130.395094 85.040156 " transform="matrix(1,0,0,-1,60.226,130.63)"/>
<path style="fill:none;stroke-width:0.6376;stroke-linecap:round;stroke-linejoin:round;stroke:rgb(0%,0%,100%);stroke-opacity:1;stroke-miterlimit:10;" d="M -1.552308 2.073955 C -1.423401 1.296611 -0.00152625 0.128642 0.389099 -0.00026375 C -0.00152625 -0.12917 -1.423401 -1.293233 -1.552308 -2.070576 " transform="matrix(1,0,0,-1,190.62262,45.58958)"/>
<path style="fill:none;stroke-width:0.79701;stroke-linecap:butt;stroke-linejoin:miter;stroke:rgb(100%,0%,0%);stroke-opacity:1;stroke-miterlimit:10;" d="M 113.387281 85.040156 L 113.387281 92.255 " transform="matrix(1,0,0,-1,60.226,130.63)"/>
<path style="fill:none;stroke-width:0.6376;stroke-linecap:round;stroke-linejoin:round;stroke:rgb(100%,0%,0%);stroke-opacity:1;stroke-miterlimit:10;" d="M -1.555527 2.070271 C -1.422715 1.296834 -0.00084 0.128865 0.389785 -0.00004125 C -0.00084 -0.128947 -1.422715 -1.296916 -1.555527 -2.070354 " transform="matrix(0,-1,-1,0,173.61324,38.37416)"/>
<path style="fill:none;stroke-width:0.79701;stroke-linecap:butt;stroke-linejoin:miter;stroke:rgb(0%,0%,100%);stroke-opacity:1;stroke-miterlimit:10;" d="M 113.387281 113.387812 L 132.723219 113.387812 " transform="matrix(1,0,0,-1,60.226,130.63)"/>
<path style="fill:none;stroke-width:0.6376;stroke-linecap:round;stroke-linejoin:round;stroke:rgb(0%,0%,100%);stroke-opacity:1;stroke-miterlimit:10;" d="M -1.555569 2.070885 C -1.422756 1.293541 -0.00088125 0.129479 0.389744 0.0005725 C -0.00088125 -0.128334 -1.422756 -1.296303 -1.555569 -2.073646 " transform="matrix(1,0,0,-1,192.9501,17.24276)"/>
<path style="fill:none;stroke-width:0.79701;stroke-linecap:butt;stroke-linejoin:miter;stroke:rgb(100%,0%,0%);stroke-opacity:1;stroke-miterlimit:10;" d="M 113.387281 113.387812 L 113.387281 122.700312 " transform="matrix(1,0,0,-1,60.226,130.63)"/>
<path style="fill:none;stroke-width:0.6376;stroke-linecap:round;stroke-linejoin:round;stroke:rgb(100%,0%,0%);stroke-opacity:1;stroke-miterlimit:10;" d="M -1.552239 2.070271 C -1.423333 1.296834 -0.0014575 0.128865 0.389167 -0.00004125 C -0.0014575 -0.128947 -1.423333 -1.296916 -1.552239 -2.070354 " transform="matrix(0,-1,-1,0,173.61324,7.92823)"/>
</g>
</svg>
