<?xml version="1.0" encoding="UTF-8"?>
<svg xmlns="http://www.w3.org/2000/svg" xmlns:xlink="http://www.w3.org/1999/xlink" width="87.92pt" height="91.28pt" viewBox="0 0 87.92 91.28" version="1.1">
<g id="surface1">
<path style="fill:none;stroke-width:0.3985;stroke-linecap:butt;stroke-linejoin:miter;stroke:rgb(0%,0%,0%);stroke-opacity:1;stroke-miterlimit:10;" d="M 42.519125 0.00009375 C 42.519125 23.484469 23.483969 42.519625 -0.00040625 42.519625 C -23.484781 42.519625 -42.519938 23.484469 -42.519938 0.00009375 C -42.519938 -23.484281 -23.484781 -42.519438 -0.00040625 -42.519438 C 23.483969 -42.519438 42.519125 -23.484281 42.519125 0.00009375 Z M 42.519125 0.00009375 " transform="matrix(1,0,0,-1,43.934,47.504)"/>
<path style=" stroke:none;fill-rule:nonzero;fill:rgb(0%,0%,0%);fill-opacity:1;" d="M 46.769531 4.984375 C 46.769531 3.417969 45.5 2.148438 43.933594 2.148438 C 42.367188 2.148438 41.097656 3.417969 41.097656 4.984375 C 41.097656 6.550781 42.367188 7.820312 43.933594 7.820312 C 45.5 7.820312 46.769531 6.550781 46.769531 4.984375 Z M 46.769531 4.984375 "/>
<path style="fill:none;stroke-width:1.59404;stroke-linecap:butt;stroke-linejoin:miter;stroke:rgb(100%,0%,0%);stroke-opacity:1;stroke-miterlimit:10;" d="M -0.00040625 42.519625 L 12.968344 42.519625 " transform="matrix(1,0,0,-1,43.934,47.504)"/>
<path style="fill:none;stroke-width:1.27522;stroke-linecap:round;stroke-linejoin:round;stroke:rgb(100%,0%,0%);stroke-opacity:1;stroke-miterlimit:10;" d="M -2.272994 3.026769 C -2.081588 1.893956 0.00044375 0.190831 0.56685 -0.000575 C 0.00044375 -0.188075 -2.081588 -1.8912 -2.272994 -3.027919 " transform="matrix(1,0,0,-1,56.9019,4.9838)"/>
<path style="fill:none;stroke-width:1.59404;stroke-linecap:butt;stroke-linejoin:miter;stroke:rgb(0%,0%,100%);stroke-opacity:1;stroke-miterlimit:10;" d="M -0.00040625 42.519625 L -0.00040625 29.550875 " transform="matrix(1,0,0,-1,43.934,47.504)"/>
<path style="fill:none;stroke-width:1.27522;stroke-linecap:round;stroke-linejoin:round;stroke:rgb(0%,0%,100%);stroke-opacity:1;stroke-miterlimit:10;" d="M -2.272012 3.026937 C -2.080606 1.894125 0.001425 0.191 0.567831 -0.00040625 C 0.001425 -0.187906 -2.080606 -1.891031 -2.272012 -3.02775 " transform="matrix(0,1,1,0,43.934,17.9517)"/>
</g>
</svg>
