<?xml version="1.0" encoding="UTF-8"?>
<svg xmlns="http://www.w3.org/2000/svg" xmlns:xlink="http://www.w3.org/1999/xlink" width="190.16pt" height="166.16pt" viewBox="0 0 190.16 166.16" version="1.1">
<defs>
<clipPath id="clip1">
  <path d="M 0 138 L 116 138 L 116 166.160156 L 0 166.160156 Z M 0 138 "/>
</clipPath>
<clipPath id="clip2">
  <path d="M 104 36 L 190.160156 36 L 190.160156 122 L 104 122 Z M 104 36 "/>
</clipPath>
</defs>
<g id="surface1">
<path style="fill:none;stroke-width:0.79701;stroke-linecap:butt;stroke-linejoin:miter;stroke:rgb(0%,0%,0%);stroke-opacity:1;stroke-miterlimit:10;" d="M 51.380094 -70.86775 L 44.301969 -64.9615 L 37.844938 -59.05525 L 32.001188 -53.149 L 26.770719 -47.246656 L 22.157438 -41.340406 L 18.161344 -35.434156 L 14.774625 -29.527906 L 12.009 -23.621656 L 9.856656 -17.719313 L 8.317594 -11.813063 L 7.395719 -5.906813 L 7.087125 -0.0005625 L 7.395719 5.901781 L 8.317594 11.808031 L 9.85275 17.714281 L 12.005094 23.620531 L 14.774625 29.526781 L 18.157438 35.429125 L 22.157438 41.335375 L 26.770719 47.241625 L 31.997281 53.147875 L 37.841031 59.054125 L 44.301969 64.956469 L 51.376188 70.862719 " transform="matrix(1,0,0,-1,52.991,79.351)"/>
<path style="fill:none;stroke-width:0.79701;stroke-linecap:butt;stroke-linejoin:miter;stroke:rgb(0%,0%,0%);stroke-opacity:1;stroke-miterlimit:10;" d="M -51.377719 -70.86775 L -44.3035 -64.9615 L -37.842562 -59.05525 L -32.002719 -53.149 L -26.77225 -47.246656 L -22.158969 -41.340406 L -18.158969 -35.434156 L -14.776156 -29.527906 L -12.006625 -23.621656 L -9.854281 -17.719313 L -8.315219 -11.813063 L -7.393344 -5.906813 L -7.08475 -0.0005625 L -7.393344 5.901781 L -8.315219 11.808031 L -9.854281 17.714281 L -12.006625 23.620531 L -14.776156 29.526781 L -18.158969 35.429125 L -22.155062 41.335375 L -26.768344 47.241625 L -31.998812 53.147875 L -37.842562 59.054125 L -44.299594 64.956469 L -51.373812 70.862719 " transform="matrix(1,0,0,-1,52.991,79.351)"/>
<g clip-path="url(#clip1)" clip-rule="nonzero">
<path style="fill:none;stroke-width:0.79701;stroke-linecap:butt;stroke-linejoin:miter;stroke:rgb(0%,0%,0%);stroke-opacity:1;stroke-miterlimit:10;" d="M -51.377719 -70.86775 C -51.377719 -78.695875 -28.377719 -85.039625 0.0011875 -85.039625 C 28.376188 -85.039625 51.380094 -78.695875 51.380094 -70.86775 " transform="matrix(1,0,0,-1,52.991,79.351)"/>
</g>
<path style="fill:none;stroke-width:0.79701;stroke-linecap:butt;stroke-linejoin:miter;stroke:rgb(0%,0%,0%);stroke-opacity:1;stroke-miterlimit:10;" d="M 51.380094 70.866625 C 51.380094 74.780687 28.376188 77.952562 0.0011875 77.952562 C -28.377719 77.952562 -51.377719 74.780687 -51.377719 70.866625 C -51.377719 66.952562 -28.377719 63.780687 0.0011875 63.780687 C 28.376188 63.780687 51.380094 66.952562 51.380094 70.866625 Z M 51.380094 70.866625 " transform="matrix(1,0,0,-1,52.991,79.351)"/>
<path style="fill:none;stroke-width:0.79701;stroke-linecap:butt;stroke-linejoin:miter;stroke:rgb(0%,0%,0%);stroke-opacity:1;stroke-miterlimit:10;" d="M -7.08475 -0.0005625 C -7.08475 -1.094313 -3.912875 -1.984938 0.0011875 -1.984938 C 3.91525 -1.984938 7.087125 -1.094313 7.087125 -0.0005625 " transform="matrix(1,0,0,-1,52.991,79.351)"/>
<path style="fill:none;stroke-width:0.3985;stroke-linecap:butt;stroke-linejoin:miter;stroke:rgb(0%,0%,0%);stroke-opacity:1;stroke-dasharray:2.98883,2.98883;stroke-miterlimit:10;" d="M -7.08475 -0.0005625 C -7.08475 1.097094 -3.912875 1.983812 0.0011875 1.983812 C 3.91525 1.983812 7.087125 1.097094 7.087125 -0.0005625 " transform="matrix(1,0,0,-1,52.991,79.351)"/>
<path style=" stroke:none;fill-rule:nonzero;fill:rgb(0%,0%,0%);fill-opacity:0.1;" d="M 45.90625 79.351562 C 45.90625 80.445312 49.078125 81.335938 52.992188 81.335938 C 56.90625 81.335938 60.078125 80.445312 60.078125 79.351562 C 60.078125 78.253906 56.90625 77.367188 52.992188 77.367188 C 49.078125 77.367188 45.90625 78.253906 45.90625 79.351562 "/>
<path style=" stroke:none;fill-rule:nonzero;fill:rgb(0%,0%,0%);fill-opacity:0.3;" d="M 1.613281 150.21875 C 1.613281 158.046875 24.613281 164.390625 52.992188 164.390625 C 81.367188 164.390625 104.371094 158.046875 104.371094 150.21875 M 104.371094 150.21875 L 100.753906 147.265625 L 97.296875 144.3125 L 93.988281 141.359375 L 90.835938 138.40625 L 87.839844 135.457031 L 84.992188 132.503906 L 82.300781 129.550781 L 79.765625 126.597656 L 77.378906 123.644531 L 75.152344 120.691406 L 73.074219 117.742188 L 71.152344 114.789062 L 69.382812 111.835938 L 67.769531 108.882812 L 66.308594 105.929688 L 65 102.976562 L 63.847656 100.027344 L 62.847656 97.074219 L 62 94.121094 L 61.308594 91.167969 L 60.769531 88.214844 L 60.386719 85.261719 L 60.15625 82.308594 L 60.078125 79.359375 C 60.078125 80.453125 56.90625 81.34375 52.992188 81.34375 C 49.078125 81.34375 45.90625 80.453125 45.90625 79.359375 M 45.90625 79.351562 L 45.828125 82.304688 L 45.597656 85.257812 L 45.210938 88.207031 L 44.675781 91.160156 L 43.984375 94.113281 L 43.136719 97.066406 L 42.136719 100.019531 L 40.984375 102.972656 L 39.675781 105.921875 L 38.214844 108.875 L 36.601562 111.828125 L 34.832031 114.78125 L 32.914062 117.734375 L 30.835938 120.6875 L 28.605469 123.636719 L 26.222656 126.589844 L 23.6875 129.542969 L 20.996094 132.496094 L 18.152344 135.449219 L 15.152344 138.402344 L 12 141.355469 L 8.695312 144.304688 L 5.234375 147.257812 L 1.621094 150.210938 C 1.621094 158.039062 24.625 164.382812 53 164.382812 C 81.375 164.382812 104.378906 158.039062 104.378906 150.210938 "/>
<g clip-path="url(#clip2)" clip-rule="nonzero">
<path style="fill:none;stroke-width:1.59404;stroke-linecap:butt;stroke-linejoin:miter;stroke:rgb(0%,0%,0%);stroke-opacity:1;stroke-miterlimit:10;" d="M 73.700406 -0.0005625 C 75.473844 11.058031 81.676969 19.925219 88.97775 19.925219 C 96.278531 19.925219 102.485563 11.058031 104.255094 -0.0005625 C 106.028531 -11.059156 103.364469 -19.926344 99.610563 -19.926344 C 95.85275 -19.926344 93.188688 -11.059156 94.962125 -0.0005625 C 96.731656 11.058031 102.938688 19.925219 110.239469 19.925219 C 117.54025 19.925219 123.743375 11.058031 125.516813 -0.0005625 L 130.395719 -0.0005625 " transform="matrix(1,0,0,-1,52.991,79.351)"/>
</g>
<path style="fill:none;stroke-width:1.59404;stroke-linecap:butt;stroke-linejoin:miter;stroke:rgb(0%,0%,0%);stroke-opacity:1;stroke-miterlimit:10;" d="M 130.395719 -0.0005625 L 134.860563 -0.0005625 " transform="matrix(1,0,0,-1,52.991,79.351)"/>
<path style="fill:none;stroke-width:1.27522;stroke-linecap:round;stroke-linejoin:round;stroke:rgb(0%,0%,0%);stroke-opacity:1;stroke-miterlimit:10;" d="M -2.272125 3.026781 C -2.080719 1.893969 0.0013125 0.190844 0.567719 -0.0005625 C 0.0013125 -0.188063 -2.080719 -1.891188 -2.272125 -3.027906 " transform="matrix(1,0,0,-1,187.85025,79.351)"/>
</g>
</svg>
