<?xml version="1.0" encoding="UTF-8"?>
<svg xmlns="http://www.w3.org/2000/svg" xmlns:xlink="http://www.w3.org/1999/xlink" width="74pt" height="76.4pt" viewBox="0 0 74 76.4" version="1.1">
<defs>
<clipPath id="clip1">
  <path d="M 0 20 L 56 20 L 56 76.398438 L 0 76.398438 Z M 0 20 "/>
</clipPath>
<clipPath id="clip2">
  <path d="M 32 0 L 74 0 L 74 44 L 32 44 Z M 32 0 "/>
</clipPath>
</defs>
<g id="surface1">
<g clip-path="url(#clip1)" clip-rule="nonzero">
<path style="fill:none;stroke-width:0.79701;stroke-linecap:butt;stroke-linejoin:miter;stroke:rgb(0%,0%,0%);stroke-opacity:1;stroke-miterlimit:10;" d="M -14.173719 -14.175125 L -12.400281 -12.401688 L -10.63075 -10.62825 L -8.857312 -8.858719 L -7.087781 -7.085281 L -5.314344 -5.31575 L -3.544812 -3.542313 L -1.771375 -1.772781 L -0.00184375 0.00065625 L 1.771594 1.770187 L 7.088 7.086594 L 8.857531 8.860031 L 10.630969 10.629562 L 12.4005 12.403 L 14.173938 14.172531 L 15.943469 15.945969 L 17.716906 17.7155 L 23.033313 23.031906 L 24.802844 24.805344 L 26.576281 26.574875 L 28.345813 28.348312 " transform="matrix(1,0,0,-1,15.787,60.528)"/>
</g>
<g clip-path="url(#clip2)" clip-rule="nonzero">
<path style="fill:none;stroke-width:0.79701;stroke-linecap:butt;stroke-linejoin:miter;stroke:rgb(0%,0%,0%);stroke-opacity:1;stroke-miterlimit:10;" d="M 28.345813 56.692062 L 29.529406 55.512375 L 31.888781 53.153 L 33.068469 51.969406 L 34.252063 50.789719 L 35.43175 49.610031 L 36.611438 48.426437 L 37.795031 47.24675 L 38.974719 46.067062 L 40.154406 44.883469 L 41.334094 43.703781 L 42.517688 42.524094 L 43.697375 41.344406 L 44.877063 40.160812 L 46.060656 38.981125 L 47.240344 37.801437 L 48.420031 36.617844 L 49.603625 35.438156 L 51.963 33.078781 L 53.142688 31.895187 L 54.326281 30.7155 L 55.505969 29.535812 L 56.685656 28.352219 " transform="matrix(1,0,0,-1,15.787,60.528)"/>
</g>
<path style="fill-rule:nonzero;fill:rgb(100%,100%,100%);fill-opacity:1;stroke-width:0.3985;stroke-linecap:butt;stroke-linejoin:miter;stroke:rgb(0%,0%,0%);stroke-opacity:1;stroke-miterlimit:10;" d="M 31.18175 28.348312 C 31.18175 29.910812 29.912219 31.180344 28.345813 31.180344 C 26.779406 31.180344 25.513781 29.910812 25.513781 28.348312 C 25.513781 26.781906 26.779406 25.512375 28.345813 25.512375 C 29.912219 25.512375 31.18175 26.781906 31.18175 28.348312 Z M 31.18175 28.348312 " transform="matrix(1,0,0,-1,15.787,60.528)"/>
<path style=" stroke:none;fill-rule:nonzero;fill:rgb(0%,0%,0%);fill-opacity:1;" d="M 46.96875 3.835938 C 46.96875 2.269531 45.699219 1 44.132812 1 C 42.566406 1 41.300781 2.269531 41.300781 3.835938 C 41.300781 5.398438 42.566406 6.667969 44.132812 6.667969 C 45.699219 6.667969 46.96875 5.398438 46.96875 3.835938 Z M 46.96875 3.835938 "/>
</g>
</svg>
