<?xml version="1.0" encoding="UTF-8"?>
<svg xmlns="http://www.w3.org/2000/svg" xmlns:xlink="http://www.w3.org/1999/xlink" width="158.48pt" height="37.04pt" viewBox="0 0 158.48 37.04" version="1.1">
<defs>
<clipPath id="clip1">
  <path d="M 86 18 L 115 18 L 115 37.039062 L 86 37.039062 Z M 86 18 "/>
</clipPath>
</defs>
<g id="surface1">
<path style="fill:none;stroke-width:0.79701;stroke-linecap:butt;stroke-linejoin:miter;stroke:rgb(0%,0%,100%);stroke-opacity:1;stroke-miterlimit:10;" d="M -14.174187 0.001875 L 85.040656 0.001875 " transform="matrix(1,0,0,-1,15.307,32.58)"/>
<path style=" stroke:none;fill-rule:nonzero;fill:rgb(100%,100%,100%);fill-opacity:1;" d="M 103.183594 32.578125 C 103.183594 31.015625 101.914062 29.746094 100.347656 29.746094 C 98.78125 29.746094 97.511719 31.015625 97.511719 32.578125 C 97.511719 34.144531 98.78125 35.414062 100.347656 35.414062 C 101.914062 35.414062 103.183594 34.144531 103.183594 32.578125 Z M 103.183594 32.578125 "/>
<g clip-path="url(#clip1)" clip-rule="nonzero">
<path style="fill:none;stroke-width:0.79701;stroke-linecap:butt;stroke-linejoin:miter;stroke:rgb(0%,0%,100%);stroke-opacity:1;stroke-miterlimit:10;" d="M 87.876594 0.001875 C 87.876594 1.564375 86.607063 2.833906 85.040656 2.833906 C 83.47425 2.833906 82.204719 1.564375 82.204719 0.001875 C 82.204719 -1.564531 83.47425 -2.834063 85.040656 -2.834063 C 86.607063 -2.834063 87.876594 -1.564531 87.876594 0.001875 Z M 87.876594 0.001875 " transform="matrix(1,0,0,-1,15.307,32.58)"/>
</g>
<path style="fill:none;stroke-width:0.79701;stroke-linecap:butt;stroke-linejoin:miter;stroke:rgb(0%,0%,100%);stroke-opacity:1;stroke-miterlimit:10;" d="M 113.388313 0.001875 L 141.735969 0.001875 " transform="matrix(1,0,0,-1,15.307,32.58)"/>
<path style=" stroke:none;fill-rule:nonzero;fill:rgb(0%,0%,100%);fill-opacity:1;" d="M 131.527344 32.578125 C 131.527344 31.015625 130.261719 29.746094 128.695312 29.746094 C 127.128906 29.746094 125.859375 31.015625 125.859375 32.578125 C 125.859375 34.144531 127.128906 35.414062 128.695312 35.414062 C 130.261719 35.414062 131.527344 34.144531 131.527344 32.578125 Z M 131.527344 32.578125 "/>
<path style="fill:none;stroke-width:0.79701;stroke-linecap:butt;stroke-linejoin:miter;stroke:rgb(0%,0%,100%);stroke-opacity:1;stroke-miterlimit:10;" d="M 85.040656 28.345625 L 113.388313 28.345625 " transform="matrix(1,0,0,-1,15.307,32.58)"/>
<path style=" stroke:none;fill-rule:nonzero;fill:rgb(0%,0%,100%);fill-opacity:1;" d="M 103.183594 4.234375 C 103.183594 2.667969 101.914062 1.398438 100.347656 1.398438 C 98.78125 1.398438 97.511719 2.667969 97.511719 4.234375 C 97.511719 5.796875 98.78125 7.066406 100.347656 7.066406 C 101.914062 7.066406 103.183594 5.796875 103.183594 4.234375 Z M 103.183594 4.234375 "/>
<path style="fill-rule:nonzero;fill:rgb(100%,100%,100%);fill-opacity:1;stroke-width:0.79701;stroke-linecap:butt;stroke-linejoin:miter;stroke:rgb(0%,0%,100%);stroke-opacity:1;stroke-miterlimit:10;" d="M 116.220344 28.345625 C 116.220344 29.912031 114.954719 31.181562 113.388313 31.181562 C 111.821906 31.181562 110.552375 29.912031 110.552375 28.345625 C 110.552375 26.783125 111.821906 25.513594 113.388313 25.513594 C 114.954719 25.513594 116.220344 26.783125 116.220344 28.345625 Z M 116.220344 28.345625 " transform="matrix(1,0,0,-1,15.307,32.58)"/>
<path style=" stroke:none;fill-rule:nonzero;fill:rgb(0%,0%,100%);fill-opacity:0.1;" d="M 100.347656 32.578125 L 100.347656 4.234375 L 128.695312 4.234375 L 128.695312 32.578125 Z M 100.347656 32.578125 "/>
</g>
</svg>
