<?xml version="1.0" encoding="UTF-8"?>
<svg xmlns="http://www.w3.org/2000/svg" xmlns:xlink="http://www.w3.org/1999/xlink" width="82.64pt" height="38.96pt" viewBox="0 0 82.64 38.96" version="1.1">
<defs>
<clipPath id="clip1">
  <path d="M 12 0 L 82.640625 0 L 82.640625 38.960938 L 12 38.960938 Z M 12 0 "/>
</clipPath>
</defs>
<g id="surface1">
<path style=" stroke:none;fill-rule:nonzero;fill:rgb(0%,0%,100%);fill-opacity:1;" d="M 24.09375 2.492188 L 24.664062 1.878906 L 25.234375 2.402344 L 25.808594 3.980469 L 26.378906 6.359375 L 26.953125 9.160156 L 27.523438 11.925781 L 28.097656 14.214844 L 28.667969 15.664062 L 29.242188 16.03125 L 29.8125 15.261719 L 30.386719 13.480469 L 30.957031 10.972656 L 31.53125 8.144531 L 32.101562 5.445312 L 32.675781 3.308594 L 33.246094 2.085938 L 33.820312 1.96875 L 34.390625 2.972656 L 34.964844 4.945312 L 35.535156 7.558594 L 36.109375 10.402344 L 36.679688 13.011719 L 37.253906 14.972656 L 37.824219 15.964844 L 38.398438 15.832031 L 38.96875 14.59375 L 39.542969 12.453125 L 40.113281 9.746094 L 40.6875 6.917969 L 41.257812 4.417969 L 41.832031 2.648438 L 42.402344 1.894531 L 42.976562 2.273438 L 43.546875 3.734375 L 44.121094 6.03125 L 44.691406 8.804688 L 45.265625 11.597656 L 45.835938 13.972656 L 46.410156 15.539062 L 46.980469 16.046875 L 47.554688 15.417969 L 48.125 13.75 L 48.699219 11.3125 L 49.269531 8.496094 L 49.84375 5.757812 L 50.414062 3.53125 L 50.988281 2.179688 L 51.558594 1.917969 L 52.132812 2.792969 L 52.703125 4.65625 L 53.277344 7.214844 L 53.847656 10.050781 L 54.421875 12.714844 L 54.992188 14.773438 L 55.566406 15.902344 L 56.136719 15.910156 L 56.710938 14.804688 L 57.28125 12.757812 L 57.855469 10.101562 L 58.425781 7.261719 L 59 4.695312 L 59.570312 2.816406 L 60.144531 1.925781 L 60.714844 2.167969 L 61.289062 3.5 L 61.859375 5.710938 L 62.433594 8.449219 L 63.003906 11.265625 L 63.578125 13.714844 L 64.148438 15.398438 L 64.722656 16.046875 L 65.292969 15.554688 L 65.867188 14.007812 L 66.4375 11.644531 L 67.011719 8.851562 L 67.582031 6.078125 L 68.15625 3.765625 L 68.726562 2.292969 L 69.300781 1.890625 L 69.871094 2.625 L 70.445312 4.378906 L 71.015625 6.871094 L 71.589844 9.699219 L 72.160156 12.410156 L 72.734375 14.5625 L 73.304688 15.820312 L 73.878906 15.972656 L 74.449219 14.996094 L 75.023438 13.050781 L 75.59375 10.449219 L 76.167969 7.609375 L 76.738281 4.984375 L 77.3125 3 L 77.882812 1.976562 L 78.457031 2.074219 L 79.027344 3.28125 L 79.601562 5.402344 L 80.171875 8.09375 L 80.746094 10.925781 L 80.785156 37.308594 L 24.09375 37.308594 L 24.09375 2.445312 "/>
<g clip-path="url(#clip1)" clip-rule="nonzero">
<path style="fill:none;stroke-width:0.79701;stroke-linecap:butt;stroke-linejoin:miter;stroke:rgb(0%,0%,100%);stroke-opacity:1;stroke-miterlimit:10;" d="M 28.34875 34.817812 L 28.919062 35.431094 L 29.489375 34.907656 L 30.063594 33.329531 L 30.633906 30.950625 L 31.208125 28.149844 L 31.778437 25.384219 L 32.352656 23.095156 L 32.922969 21.645937 L 33.497187 21.27875 L 34.0675 22.048281 L 34.641719 23.829531 L 35.212031 26.337344 L 35.78625 29.165469 L 36.356562 31.864687 L 36.930781 34.001406 L 37.501094 35.224062 L 38.075312 35.34125 L 38.645625 34.337344 L 39.219844 32.364687 L 39.790156 29.751406 L 40.364375 26.907656 L 40.934687 24.298281 L 41.508906 22.337344 L 42.079219 21.345156 L 42.653437 21.477969 L 43.22375 22.71625 L 43.797969 24.856875 L 44.368281 27.563906 L 44.9425 30.392031 L 45.512812 32.892031 L 46.087031 34.661562 L 46.657344 35.415469 L 47.231562 35.036562 L 47.801875 33.575625 L 48.376094 31.27875 L 48.946406 28.505312 L 49.520625 25.712344 L 50.090937 23.337344 L 50.665156 21.770937 L 51.235469 21.263125 L 51.809687 21.892031 L 52.38 23.56 L 52.954219 25.9975 L 53.524531 28.813906 L 54.09875 31.552187 L 54.669062 33.77875 L 55.243281 35.130312 L 55.813594 35.392031 L 56.387812 34.517031 L 56.958125 32.65375 L 57.532344 30.095156 L 58.102656 27.259219 L 58.676875 24.595156 L 59.247187 22.536562 L 59.821406 21.407656 L 60.391719 21.399844 L 60.965937 22.505312 L 61.53625 24.552187 L 62.110469 27.208437 L 62.680781 30.048281 L 63.255 32.614687 L 63.825312 34.493594 L 64.399531 35.384219 L 64.969844 35.142031 L 65.544062 33.81 L 66.114375 31.599062 L 66.688594 28.860781 L 67.258906 26.044375 L 67.833125 23.595156 L 68.403437 21.911562 L 68.977656 21.263125 L 69.547969 21.755312 L 70.122187 23.302187 L 70.6925 25.665469 L 71.266719 28.458437 L 71.837031 31.231875 L 72.41125 33.544375 L 72.981562 35.017031 L 73.555781 35.419375 L 74.126094 34.685 L 74.700312 32.931094 L 75.270625 30.438906 L 75.844844 27.610781 L 76.415156 24.899844 L 76.989375 22.7475 L 77.559687 21.489687 L 78.133906 21.337344 L 78.704219 22.313906 L 79.278437 24.259219 L 79.84875 26.860781 L 80.422969 29.700625 L 80.993281 32.325625 L 81.5675 34.31 L 82.137812 35.333437 L 82.712031 35.235781 L 83.282344 34.02875 L 83.856562 31.907656 L 84.426875 29.21625 L 85.001094 26.384219 L 85.040156 0.00140625 L 28.34875 0.00140625 L 28.34875 34.864687 " transform="matrix(1,0,0,-1,-4.255,37.31)"/>
</g>
<path style="fill:none;stroke-width:0.3985;stroke-linecap:butt;stroke-linejoin:miter;stroke:rgb(0%,0%,0%);stroke-opacity:1;stroke-dasharray:0.3985,1.99255;stroke-miterlimit:10;" d="M 5.669062 21.259219 L 28.34875 21.259219 " transform="matrix(1,0,0,-1,-4.255,37.31)"/>
<path style="fill:none;stroke-width:0.3985;stroke-linecap:butt;stroke-linejoin:miter;stroke:rgb(0%,0%,0%);stroke-opacity:1;stroke-dasharray:0.3985,1.99255;stroke-miterlimit:10;" d="M 5.669062 35.435 L 28.34875 35.435 " transform="matrix(1,0,0,-1,-4.255,37.31)"/>
</g>
</svg>
