<?xml version="1.0" encoding="UTF-8"?>
<svg xmlns="http://www.w3.org/2000/svg" xmlns:xlink="http://www.w3.org/1999/xlink" width="343.28pt" height="92.72pt" viewBox="0 0 343.28 92.72" version="1.1">
<defs>
<clipPath id="clip1">
  <path d="M 0 44 L 343.28125 44 L 343.28125 92.71875 L 0 92.71875 Z M 0 44 "/>
</clipPath>
</defs>
<g id="surface1">
<path style="fill:none;stroke-width:0.79701;stroke-linecap:butt;stroke-linejoin:miter;stroke:rgb(0%,0%,0%);stroke-opacity:1;stroke-miterlimit:10;" d="M -85.039656 28.445094 L -77.953719 35.5115 L -70.867781 42.452906 L -63.781844 49.156031 L -56.692 55.503687 L -49.606063 61.390406 L -42.520125 66.710719 L -35.434188 71.374781 L -28.34825 75.304469 L -21.258406 78.433375 L -14.172469 80.706812 L -7.086531 82.085719 L -0.00059375 82.550562 L 7.085344 82.085719 L 14.175187 80.706812 L 21.261125 78.433375 L 28.347062 75.304469 L 35.433 71.374781 L 42.518937 66.710719 L 49.608781 61.390406 L 56.694719 55.503687 L 63.780656 49.156031 L 70.866594 42.452906 L 77.952531 35.5115 L 85.038469 28.445094 " transform="matrix(1,0,0,-1,171.692,83.949)"/>
<g clip-path="url(#clip1)" clip-rule="nonzero">
<path style="fill:none;stroke-width:0.79701;stroke-linecap:butt;stroke-linejoin:miter;stroke:rgb(0%,0%,0%);stroke-opacity:1;stroke-miterlimit:10;" d="M -170.082625 -7.086156 L -85.039656 28.347437 M 85.038469 28.347437 L 170.081437 -7.086156 " transform="matrix(1,0,0,-1,171.692,83.949)"/>
</g>
</g>
</svg>
