<?xml version="1.0" encoding="UTF-8"?>
<svg xmlns="http://www.w3.org/2000/svg" xmlns:xlink="http://www.w3.org/1999/xlink" width="148.4pt" height="118.16pt" viewBox="0 0 148.4 118.16" version="1.1">
<defs>
<clipPath id="clip1">
  <path d="M 21 60 L 100 60 L 100 118.160156 L 21 118.160156 Z M 21 60 "/>
</clipPath>
<clipPath id="clip2">
  <path d="M 77 0 L 148.398438 0 L 148.398438 118.160156 L 77 118.160156 Z M 77 0 "/>
</clipPath>
</defs>
<g id="surface1">
<path style=" stroke:none;fill-rule:nonzero;fill:rgb(0%,0%,0%);fill-opacity:1;" d="M 6.882812 82.839844 C 6.882812 81.273438 5.617188 80.003906 4.050781 80.003906 C 2.484375 80.003906 1.214844 81.273438 1.214844 82.839844 C 1.214844 84.40625 2.484375 85.675781 4.050781 85.675781 C 5.617188 85.675781 6.882812 84.40625 6.882812 82.839844 Z M 6.882812 82.839844 "/>
<path style="fill:none;stroke-width:0.79701;stroke-linecap:butt;stroke-linejoin:miter;stroke:rgb(0%,0%,0%);stroke-opacity:1;stroke-miterlimit:10;" d="M 0.00078125 0.00015625 L 27.688281 11.074375 " transform="matrix(1,0,0,-1,4.05,82.84)"/>
<path style="fill:none;stroke-width:0.6376;stroke-linecap:round;stroke-linejoin:round;stroke:rgb(0%,0%,0%);stroke-opacity:1;stroke-miterlimit:10;" d="M -1.554614 2.071697 C -1.423295 1.295521 -0.000750354 0.129116 0.388794 -0.00144578 C 0.00143302 -0.128402 -1.424674 -1.295612 -1.554499 -2.072521 " transform="matrix(0.92845,-0.37135,-0.37135,-0.92845,31.74005,71.76413)"/>
<g clip-path="url(#clip1)" clip-rule="nonzero">
<path style="fill:none;stroke-width:0.79701;stroke-linecap:butt;stroke-linejoin:miter;stroke:rgb(0%,0%,0%);stroke-opacity:1;stroke-miterlimit:10;" d="M 28.348438 11.34 L 84.485156 -33.292813 " transform="matrix(1,0,0,-1,4.05,82.84)"/>
</g>
<path style="fill:none;stroke-width:0.6376;stroke-linecap:round;stroke-linejoin:round;stroke:rgb(0%,0%,0%);stroke-opacity:1;stroke-miterlimit:10;" d="M -1.554767 2.072409 C -1.426581 1.295981 -0.0000921806 0.129397 0.388137 -0.00112934 C 0.00094743 -0.129285 -1.4223 -1.2957 -1.552796 -2.073168 " transform="matrix(0.78273,0.62227,0.62227,-0.78273,88.53674,116.13259)"/>
<g clip-path="url(#clip2)" clip-rule="nonzero">
<path style="fill:none;stroke-width:0.79701;stroke-linecap:butt;stroke-linejoin:miter;stroke:rgb(0%,0%,0%);stroke-opacity:1;stroke-miterlimit:10;" d="M 85.039844 -33.734219 L 141.422656 81.285312 " transform="matrix(1,0,0,-1,4.05,82.84)"/>
</g>
<path style="fill:none;stroke-width:0.6376;stroke-linecap:round;stroke-linejoin:round;stroke:rgb(0%,0%,0%);stroke-opacity:1;stroke-miterlimit:10;" d="M -1.552403 2.071277 C -1.42401 1.294569 -0.000612467 0.130274 0.389698 -0.000342442 C 0.000826683 -0.130049 -1.425231 -1.294563 -1.553654 -2.070991 " transform="matrix(0.44012,-0.89789,-0.89789,-0.44012,145.47271,1.55288)"/>
</g>
</svg>
