<?xml version="1.0" encoding="UTF-8"?>
<svg xmlns="http://www.w3.org/2000/svg" xmlns:xlink="http://www.w3.org/1999/xlink" width="172.4pt" height="122.96pt" viewBox="0 0 172.4 122.96" version="1.1">
<defs>
<clipPath id="clip1">
  <path d="M 0 0 L 172.398438 0 L 172.398438 122.960938 L 0 122.960938 Z M 0 0 "/>
</clipPath>
</defs>
<g id="surface1">
<g clip-path="url(#clip1)" clip-rule="nonzero">
<path style="fill:none;stroke-width:0.3985;stroke-linecap:butt;stroke-linejoin:miter;stroke:rgb(0%,0%,0%);stroke-opacity:1;stroke-miterlimit:10;" d="M -0.00040625 0.00140625 L 1.718344 -0.0454688 L 3.437094 -0.174375 L 5.151938 -0.389219 L 6.870688 -0.69 L 8.589438 -1.076719 L 10.304281 -1.541563 L 12.023031 -2.088438 L 13.741781 -2.713438 L 15.456625 -3.40875 L 17.175375 -4.182188 L 18.894125 -5.018125 L 20.612875 -5.920469 L 22.327719 -6.885313 L 24.046469 -7.904844 L 25.765219 -8.975156 L 27.480063 -10.092344 L 29.198813 -11.248594 L 30.917563 -12.443906 L 32.636313 -13.670469 L 34.351156 -14.920469 L 36.069906 -16.19 L 37.788656 -17.475156 L 39.5035 -18.764219 L 42.941 -21.342344 L 44.655844 -22.615781 L 46.374594 -23.869688 L 48.093344 -25.104063 L 49.812094 -26.307188 L 51.526938 -27.47125 L 53.245688 -28.592344 L 54.964438 -29.666563 L 56.679281 -30.686094 L 58.398031 -31.643125 L 60.116781 -32.537656 L 61.835531 -33.357969 L 63.550375 -34.100156 L 65.269125 -34.764219 L 66.987875 -35.338438 L 68.702719 -35.818906 L 70.421469 -36.209531 L 72.140219 -36.494688 L 73.858969 -36.678281 L 75.573813 -36.756406 L 77.292563 -36.725156 L 79.011313 -36.580625 L 80.726156 -36.318906 L 82.444906 -35.943906 L 84.163656 -35.447813 L 85.8785 -34.834531 L 87.59725 -34.09625 L 89.316 -33.240781 L 91.03475 -32.260313 L 92.749594 -31.162656 L 94.468344 -29.943906 L 96.187094 -28.600156 L 97.901938 -27.143125 L 99.620688 -25.568906 L 101.339438 -23.881406 L 103.058188 -22.080625 L 104.773031 -20.174375 L 106.491781 -18.15875 L 108.210531 -16.041563 L 109.925375 -13.826719 L 111.644125 -11.514219 L 113.362875 -9.115781 L 115.081625 -6.6275 L 116.796469 -4.065 L 118.515219 -1.420469 L 120.233969 1.290469 L 121.948813 4.067812 L 123.667563 6.899844 L 125.386313 9.790469 L 127.101156 12.724062 L 128.819906 15.700625 L 130.538656 18.712344 L 132.257406 21.751406 L 133.97225 24.81 L 135.691 27.888125 L 137.40975 30.974062 L 139.124594 34.063906 L 140.843344 37.15375 L 142.562094 40.231875 L 144.280844 43.294375 L 145.995688 46.337344 L 147.714438 49.352969 L 149.433188 52.333437 L 151.148031 55.27875 L 152.866781 58.181094 L 154.585531 61.036562 L 156.304281 63.837344 L 158.019125 66.579531 L 159.737875 69.263125 L 161.456625 71.880312 L 163.171469 74.427187 L 164.890219 76.899844 L 166.608969 79.298281 L 168.323813 81.6225 L 170.042563 83.860781 " transform="matrix(1,0,0,-1,0.934,85.06)"/>
</g>
</g>
</svg>
