<?xml version="1.0" encoding="UTF-8"?>
<svg xmlns="http://www.w3.org/2000/svg" xmlns:xlink="http://www.w3.org/1999/xlink" width="493.52pt" height="144.56pt" viewBox="0 0 493.52 144.56" version="1.1">
<defs>
<clipPath id="clip1">
  <path d="M 341 1 L 493.519531 1 L 493.519531 144 L 341 144 Z M 341 1 "/>
</clipPath>
</defs>
<g id="surface1">
<path style="fill:none;stroke-width:0.79701;stroke-linecap:butt;stroke-linejoin:miter;stroke:rgb(100%,0%,0%);stroke-opacity:1;stroke-miterlimit:10;" d="M 0.00028125 -0.0018125 L 0.00028125 141.732562 L 255.121375 141.732562 L 255.121375 -0.0018125 Z M 0.00028125 -0.0018125 " transform="matrix(1,0,0,-1,1.613,143.131)"/>
<path style="fill-rule:nonzero;fill:rgb(0%,0%,0%);fill-opacity:0.2;stroke-width:0.3985;stroke-linecap:butt;stroke-linejoin:miter;stroke:rgb(0%,0%,0%);stroke-opacity:1;stroke-miterlimit:10;" d="M 85.039344 -0.0018125 L 85.039344 141.732562 L 0.00028125 141.732562 L 0.00028125 -0.0018125 Z M 85.039344 -0.0018125 " transform="matrix(1,0,0,-1,1.613,143.131)"/>
<path style="fill:none;stroke-width:0.3985;stroke-linecap:butt;stroke-linejoin:miter;stroke:rgb(0%,0%,0%);stroke-opacity:1;stroke-miterlimit:10;" d="M 170.082313 -0.0018125 L 170.082313 141.732562 " transform="matrix(1,0,0,-1,1.613,143.131)"/>
<path style="fill:none;stroke-width:0.79701;stroke-linecap:butt;stroke-linejoin:miter;stroke:rgb(100%,0%,0%);stroke-opacity:1;stroke-miterlimit:10;" d="M 283.469031 70.865375 L 311.10575 70.865375 " transform="matrix(1,0,0,-1,1.613,143.131)"/>
<path style="fill:none;stroke-width:0.6376;stroke-linecap:round;stroke-linejoin:round;stroke:rgb(100%,0%,0%);stroke-opacity:1;stroke-miterlimit:10;" d="M -1.552571 2.072594 C -1.423665 1.29525 -0.00179 0.131187 0.388835 -0.001625 C -0.00179 -0.130531 -1.423665 -1.294594 -1.552571 -2.071938 " transform="matrix(1,0,0,-1,312.72054,72.264)"/>
<g clip-path="url(#clip1)" clip-rule="nonzero">
<path style="fill:none;stroke-width:0.79701;stroke-linecap:butt;stroke-linejoin:miter;stroke:rgb(100%,0%,0%);stroke-opacity:1;stroke-miterlimit:10;" d="M 340.160438 -0.0018125 L 340.160438 141.732562 L 595.281531 141.732562 L 595.281531 -0.0018125 Z M 340.160438 -0.0018125 " transform="matrix(1,0,0,-1,1.613,143.131)"/>
</g>
<path style="fill-rule:nonzero;fill:rgb(0%,0%,0%);fill-opacity:0.2;stroke-width:0.3985;stroke-linecap:butt;stroke-linejoin:miter;stroke:rgb(0%,0%,0%);stroke-opacity:1;stroke-miterlimit:10;" d="M 425.1995 -0.0018125 L 425.1995 141.732562 L 340.160438 141.732562 L 340.160438 -0.0018125 Z M 425.1995 -0.0018125 " transform="matrix(1,0,0,-1,1.613,143.131)"/>
<path style="fill-rule:nonzero;fill:rgb(0%,0%,0%);fill-opacity:0.2;stroke-width:0.3985;stroke-linecap:butt;stroke-linejoin:miter;stroke:rgb(0%,0%,0%);stroke-opacity:1;stroke-miterlimit:10;" d="M 453.547156 -0.0018125 L 453.547156 141.732562 L 340.160438 141.732562 L 340.160438 -0.0018125 Z M 453.547156 -0.0018125 " transform="matrix(1,0,0,-1,1.613,143.131)"/>
<path style="fill:none;stroke-width:0.3985;stroke-linecap:butt;stroke-linejoin:miter;stroke:rgb(0%,0%,0%);stroke-opacity:1;stroke-miterlimit:10;" d="M 481.894813 -0.0018125 L 481.894813 141.732562 " transform="matrix(1,0,0,-1,1.613,143.131)"/>
</g>
</svg>
