<?xml version="1.0" encoding="UTF-8"?>
<svg xmlns="http://www.w3.org/2000/svg" xmlns:xlink="http://www.w3.org/1999/xlink" width="342.8pt" height="144.56pt" viewBox="0 0 342.8 144.56" version="1.1">
<defs>
<clipPath id="clip1">
  <path d="M 273 46 L 342.800781 46 L 342.800781 144.558594 L 273 144.558594 Z M 273 46 "/>
</clipPath>
</defs>
<g id="surface1">
<path style="fill:none;stroke-width:0.79701;stroke-linecap:butt;stroke-linejoin:miter;stroke:rgb(0%,0%,0%);stroke-opacity:1;stroke-miterlimit:10;" d="M -170.079187 28.863781 L -165.356531 28.957531 L -160.633875 29.070812 L -155.907312 29.199719 L -151.184656 29.355969 L -146.458094 29.539562 L -141.735437 29.754406 L -137.012781 30.012219 L -132.286219 30.313 L -127.563562 30.672375 L -122.840906 31.09425 L -118.114344 31.59425 L -113.391687 32.184094 L -108.665125 32.879406 L -103.942469 33.699719 L -99.219812 34.672375 L -94.49325 35.816906 L -89.770594 37.172375 L -85.044031 38.773937 L -80.321375 40.664562 L -75.598719 42.898937 L -70.872156 45.539562 L -66.1495 48.65675 L -61.422937 52.340344 L -56.700281 56.691906 " transform="matrix(1,0,0,-1,171.212,86.438)"/>
<path style="fill:none;stroke-width:0.79701;stroke-linecap:butt;stroke-linejoin:miter;stroke:rgb(0%,0%,0%);stroke-opacity:1;stroke-miterlimit:10;" d="M -56.692469 56.715344 L -49.606531 62.242687 L -42.520594 67.555187 L -35.434656 72.453625 L -28.348719 76.746594 L -21.258875 80.266125 L -14.172937 82.883312 L -7.087 84.496594 L -0.0010625 85.039562 L 7.084875 84.496594 L 14.174719 82.883312 L 21.260656 80.266125 L 28.346594 76.746594 L 35.432531 72.453625 L 42.518469 67.555187 L 49.608313 62.242687 L 63.780188 51.188 L 70.866125 45.871594 L 77.952063 40.973156 L 85.041906 36.672375 L 92.127844 33.145031 L 99.213781 30.520031 L 106.299719 28.902844 L 113.385656 28.348156 " transform="matrix(1,0,0,-1,171.212,86.438)"/>
<g clip-path="url(#clip1)" clip-rule="nonzero">
<path style="fill:none;stroke-width:0.79701;stroke-linecap:butt;stroke-linejoin:miter;stroke:rgb(0%,0%,0%);stroke-opacity:1;stroke-miterlimit:10;" d="M 113.385656 28.348156 L 115.748938 28.160656 L 118.112219 27.617687 L 120.471594 26.711437 L 122.834875 25.453625 L 125.198156 23.836437 L 127.561438 21.8755 L 129.920813 19.582531 L 132.284094 16.965344 L 134.647375 14.027844 L 137.00675 10.789562 L 139.370031 7.262219 L 141.733313 3.465344 L 144.092688 -0.59325 L 146.455969 -4.890125 L 148.81925 -9.409656 L 151.182531 -14.132313 L 153.541906 -19.034656 L 155.905188 -24.101063 L 158.268469 -29.304188 L 160.627844 -34.6245 L 162.991125 -40.038563 L 165.354406 -45.526844 L 167.713781 -51.058094 L 170.077063 -56.616688 " transform="matrix(1,0,0,-1,171.212,86.438)"/>
</g>
</g>
</svg>
