<?xml version="1.0" encoding="UTF-8"?>
<svg xmlns="http://www.w3.org/2000/svg" xmlns:xlink="http://www.w3.org/1999/xlink" width="121.52pt" height="64.88pt" viewBox="0 0 121.52 64.88" version="1.1">
<g id="surface1">
<path style="fill:none;stroke-width:0.79701;stroke-linecap:butt;stroke-linejoin:miter;stroke:rgb(0%,0%,0%);stroke-opacity:1;stroke-miterlimit:10;" d="M 0.00078125 0.00021875 L 56.692188 0.00021875 " transform="matrix(1,0,0,-1,4.05,60.926)"/>
<path style=" stroke:none;fill-rule:nonzero;fill:rgb(0%,0%,0%);fill-opacity:1;" d="M 6.882812 60.925781 C 6.882812 59.359375 5.617188 58.089844 4.050781 58.089844 C 2.484375 58.089844 1.214844 59.359375 1.214844 60.925781 C 1.214844 62.492188 2.484375 63.761719 4.050781 63.761719 C 5.617188 63.761719 6.882812 62.492188 6.882812 60.925781 Z M 6.882812 60.925781 "/>
<path style=" stroke:none;fill-rule:nonzero;fill:rgb(0%,0%,0%);fill-opacity:1;" d="M 63.578125 60.925781 C 63.578125 59.359375 62.308594 58.089844 60.742188 58.089844 C 59.179688 58.089844 57.910156 59.359375 57.910156 60.925781 C 57.910156 62.492188 59.179688 63.761719 60.742188 63.761719 C 62.308594 63.761719 63.578125 62.492188 63.578125 60.925781 Z M 63.578125 60.925781 "/>
<path style="fill:none;stroke-width:0.79701;stroke-linecap:butt;stroke-linejoin:miter;stroke:rgb(0%,0%,0%);stroke-opacity:1;stroke-miterlimit:10;" d="M 56.692188 56.695531 L 113.3875 56.695531 " transform="matrix(1,0,0,-1,4.05,60.926)"/>
<path style="fill-rule:nonzero;fill:rgb(100%,100%,100%);fill-opacity:1;stroke-width:0.79701;stroke-linecap:butt;stroke-linejoin:miter;stroke:rgb(0%,0%,0%);stroke-opacity:1;stroke-miterlimit:10;" d="M 59.528125 56.695531 C 59.528125 58.258031 58.258594 59.527562 56.692188 59.527562 C 55.129688 59.527562 53.860156 58.258031 53.860156 56.695531 C 53.860156 55.129125 55.129688 53.859594 56.692188 53.859594 C 58.258594 53.859594 59.528125 55.129125 59.528125 56.695531 Z M 59.528125 56.695531 " transform="matrix(1,0,0,-1,4.05,60.926)"/>
<path style=" stroke:none;fill-rule:nonzero;fill:rgb(0%,0%,0%);fill-opacity:1;" d="M 120.273438 4.230469 C 120.273438 2.667969 119.003906 1.398438 117.4375 1.398438 C 115.871094 1.398438 114.601562 2.667969 114.601562 4.230469 C 114.601562 5.796875 115.871094 7.066406 117.4375 7.066406 C 119.003906 7.066406 120.273438 5.796875 120.273438 4.230469 Z M 120.273438 4.230469 "/>
</g>
</svg>
