<?xml version="1.0" encoding="UTF-8"?>
<svg xmlns="http://www.w3.org/2000/svg" xmlns:xlink="http://www.w3.org/1999/xlink" width="102.32pt" height="54.8pt" viewBox="0 0 102.32 54.8" version="1.1">
<defs>
<clipPath id="clip1">
  <path d="M 0 0 L 84 0 L 84 54.800781 L 0 54.800781 Z M 0 0 "/>
</clipPath>
<clipPath id="clip2">
  <path d="M 61 13 L 102.320312 13 L 102.320312 54.800781 L 61 54.800781 Z M 61 13 "/>
</clipPath>
</defs>
<g id="surface1">
<g clip-path="url(#clip1)" clip-rule="nonzero">
<path style="fill:none;stroke-width:0.79701;stroke-linecap:butt;stroke-linejoin:miter;stroke:rgb(0%,0%,0%);stroke-opacity:1;stroke-miterlimit:10;" d="M -42.519719 51.874562 L -39.566594 46.171437 L -36.613469 40.882375 L -33.66425 36.003469 L -30.711125 31.534719 L -27.758 27.476125 L -24.804875 23.827687 L -21.85175 20.5855 L -18.898625 17.757375 L -15.949406 15.3355 L -12.996281 13.323781 L -10.043156 11.726125 L -7.090031 10.534719 L -4.136906 9.757375 L -1.183781 9.386281 L 1.765438 9.425344 L 4.718563 9.874562 L 7.671688 10.737844 L 10.624813 12.007375 L 13.577938 13.687062 L 16.531063 15.780812 L 19.484188 18.280812 L 22.433406 21.190969 L 25.386531 24.511281 L 28.339656 28.24175 " transform="matrix(1,0,0,-1,44.133,53.273)"/>
</g>
<g clip-path="url(#clip2)" clip-rule="nonzero">
<path style="fill:none;stroke-width:0.79701;stroke-linecap:butt;stroke-linejoin:miter;stroke:rgb(0%,0%,0%);stroke-opacity:1;stroke-miterlimit:10;" d="M 28.347469 28.347219 L 29.527156 27.167531 L 30.706844 25.983937 L 31.890438 24.80425 L 33.070125 23.624562 L 34.249813 22.440969 L 35.433406 21.261281 L 37.792781 18.901906 L 38.972469 17.718312 L 40.156063 16.538625 L 41.33575 15.358937 L 42.515438 14.175344 L 43.699031 12.995656 L 49.601375 7.093312 L 50.781063 5.909719 L 51.964656 4.730031 L 53.144344 3.550344 L 54.324031 2.36675 L 55.507625 1.187062 L 56.687313 0.007375 " transform="matrix(1,0,0,-1,44.133,53.273)"/>
</g>
</g>
</svg>
