<?xml version="1.0" encoding="UTF-8"?>
<svg xmlns="http://www.w3.org/2000/svg" xmlns:xlink="http://www.w3.org/1999/xlink" width="130.16pt" height="36.56pt" viewBox="0 0 130.16 36.56" version="1.1">
<defs>
<clipPath id="clip1">
  <path d="M 50 18 L 80 18 L 80 36.558594 L 50 36.558594 Z M 50 18 "/>
</clipPath>
</defs>
<g id="surface1">
<path style="fill:none;stroke-width:0.79701;stroke-linecap:butt;stroke-linejoin:miter;stroke:rgb(0%,0%,0%);stroke-opacity:1;stroke-miterlimit:10;" d="M -63.780187 0.0013125 L 0.0010625 0.0013125 " transform="matrix(1,0,0,-1,64.913,32.181)"/>
<path style=" stroke:none;fill-rule:nonzero;fill:rgb(100%,100%,100%);fill-opacity:1;" d="M 67.746094 32.179688 C 67.746094 30.617188 66.480469 29.347656 64.914062 29.347656 C 63.347656 29.347656 62.078125 30.617188 62.078125 32.179688 C 62.078125 33.746094 63.347656 35.015625 64.914062 35.015625 C 66.480469 35.015625 67.746094 33.746094 67.746094 32.179688 Z M 67.746094 32.179688 "/>
<g clip-path="url(#clip1)" clip-rule="nonzero">
<path style="fill:none;stroke-width:0.79701;stroke-linecap:butt;stroke-linejoin:miter;stroke:rgb(0%,0%,0%);stroke-opacity:1;stroke-miterlimit:10;" d="M 2.833094 0.0013125 C 2.833094 1.563812 1.567469 2.833344 0.0010625 2.833344 C -1.565344 2.833344 -2.834875 1.563812 -2.834875 0.0013125 C -2.834875 -1.565094 -1.565344 -2.834625 0.0010625 -2.834625 C 1.567469 -2.834625 2.833094 -1.565094 2.833094 0.0013125 Z M 2.833094 0.0013125 " transform="matrix(1,0,0,-1,64.913,32.181)"/>
</g>
<path style="fill:none;stroke-width:0.79701;stroke-linecap:butt;stroke-linejoin:miter;stroke:rgb(0%,0%,0%);stroke-opacity:1;stroke-miterlimit:10;" d="M 0.0010625 28.345062 L 63.778406 28.345062 " transform="matrix(1,0,0,-1,64.913,32.181)"/>
<path style=" stroke:none;fill-rule:nonzero;fill:rgb(0%,0%,0%);fill-opacity:1;" d="M 67.746094 3.835938 C 67.746094 2.269531 66.480469 1 64.914062 1 C 63.347656 1 62.078125 2.269531 62.078125 3.835938 C 62.078125 5.398438 63.347656 6.667969 64.914062 6.667969 C 66.480469 6.667969 67.746094 5.398438 67.746094 3.835938 Z M 67.746094 3.835938 "/>
<path style="fill:none;stroke-width:1.59404;stroke-linecap:butt;stroke-linejoin:miter;stroke:rgb(0%,0%,100%);stroke-opacity:1;stroke-miterlimit:10;" d="M -56.69425 0.0013125 L -37.702062 0.0013125 " transform="matrix(1,0,0,-1,64.913,32.181)"/>
<path style="fill-rule:nonzero;fill:rgb(100%,0%,0%);fill-opacity:0.5;stroke-width:0.79701;stroke-linecap:butt;stroke-linejoin:miter;stroke:rgb(100%,0%,0%);stroke-opacity:1;stroke-miterlimit:10;" d="M 37.700281 0.0013125 L 37.700281 28.345062 L 56.692469 28.345062 L 56.692469 0.0013125 Z M 37.700281 0.0013125 " transform="matrix(1,0,0,-1,64.913,32.181)"/>
</g>
</svg>
