<?xml version="1.0" encoding="UTF-8"?>
<svg xmlns="http://www.w3.org/2000/svg" xmlns:xlink="http://www.w3.org/1999/xlink" width="365.36pt" height="234.32pt" viewBox="0 0 365.36 234.32" version="1.1">
<defs>
<clipPath id="clip1">
  <path d="M 30 214 L 92 214 L 92 234.320312 L 30 234.320312 Z M 30 214 "/>
</clipPath>
<clipPath id="clip2">
  <path d="M 69 210 L 126 210 L 126 234.320312 L 69 234.320312 Z M 69 210 "/>
</clipPath>
<clipPath id="clip3">
  <path d="M 109 205 L 160 205 L 160 234.320312 L 109 234.320312 Z M 109 205 "/>
</clipPath>
<clipPath id="clip4">
  <path d="M 149 200 L 194 200 L 194 234.320312 L 149 234.320312 Z M 149 200 "/>
</clipPath>
<clipPath id="clip5">
  <path d="M 188 196 L 228 196 L 228 234.320312 L 188 234.320312 Z M 188 196 "/>
</clipPath>
<clipPath id="clip6">
  <path d="M 228 191 L 262 191 L 262 234.320312 L 228 234.320312 Z M 228 191 "/>
</clipPath>
<clipPath id="clip7">
  <path d="M 267 186 L 296 186 L 296 234.320312 L 267 234.320312 Z M 267 186 "/>
</clipPath>
<clipPath id="clip8">
  <path d="M 307 16 L 365.359375 16 L 365.359375 44 L 307 44 Z M 307 16 "/>
</clipPath>
</defs>
<g id="surface1">
<path style="fill:none;stroke-width:0.79701;stroke-linecap:butt;stroke-linejoin:miter;stroke:rgb(100%,0%,0%);stroke-opacity:1;stroke-miterlimit:10;" d="M -136.065625 -113.386313 L -180.710156 -113.386313 " transform="matrix(1,0,0,-1,182.55,117.184)"/>
<path style="fill:none;stroke-width:0.6376;stroke-linecap:round;stroke-linejoin:round;stroke:rgb(100%,0%,0%);stroke-opacity:1;stroke-miterlimit:10;" d="M -1.556091 2.073291 C -1.423279 1.295948 -0.00140375 0.127979 0.389221 -0.0009275 C -0.00140375 -0.129834 -1.423279 -1.293896 -1.556091 -2.07124 " transform="matrix(-1,0,0,1,1.83844,230.57124)"/>
<path style="fill:none;stroke-width:0.79701;stroke-linecap:butt;stroke-linejoin:miter;stroke:rgb(100%,0%,0%);stroke-opacity:1;stroke-miterlimit:10;" d="M -136.065625 -85.038656 L -175.046094 -89.679281 " transform="matrix(1,0,0,-1,182.55,117.184)"/>
<path style="fill:none;stroke-width:0.6376;stroke-linecap:round;stroke-linejoin:round;stroke:rgb(100%,0%,0%);stroke-opacity:1;stroke-miterlimit:10;" d="M -1.556058 2.071834 C -1.424073 1.296863 -0.00138882 0.128276 0.388453 -0.000744157 C -0.000370768 -0.127554 -1.425806 -1.295426 -1.55353 -2.070953 " transform="matrix(-0.99295,0.1182,0.1182,0.99295,7.50299,206.86498)"/>
<path style="fill:none;stroke-width:0.79701;stroke-linecap:butt;stroke-linejoin:miter;stroke:rgb(100%,0%,0%);stroke-opacity:1;stroke-miterlimit:10;" d="M -136.065625 -56.694906 L -169.397656 -65.952719 " transform="matrix(1,0,0,-1,182.55,117.184)"/>
<path style="fill:none;stroke-width:0.6376;stroke-linecap:round;stroke-linejoin:round;stroke:rgb(100%,0%,0%);stroke-opacity:1;stroke-miterlimit:10;" d="M -1.553949 2.073244 C -1.42534 1.295573 -0.0017227 0.129812 0.388265 0.0012145 C -0.000883623 -0.1299 -1.423432 -1.29569 -1.553489 -2.070436 " transform="matrix(-0.96347,0.26762,0.26762,0.96347,13.1511,183.13711)"/>
<path style="fill:none;stroke-width:0.79701;stroke-linecap:butt;stroke-linejoin:miter;stroke:rgb(100%,0%,0%);stroke-opacity:1;stroke-miterlimit:10;" d="M -136.065625 -28.34725 L -163.776562 -42.202719 " transform="matrix(1,0,0,-1,182.55,117.184)"/>
<path style="fill:none;stroke-width:0.6376;stroke-linecap:round;stroke-linejoin:round;stroke:rgb(100%,0%,0%);stroke-opacity:1;stroke-miterlimit:10;" d="M -1.555168 2.073471 C -1.424131 1.296027 0.00148651 0.128999 0.387589 0.00146653 C -0.000258261 -0.12782 -1.42236 -1.294873 -1.553384 -2.07232 " transform="matrix(-0.89436,0.44717,0.44717,0.89436,18.77177,159.38787)"/>
<path style="fill:none;stroke-width:0.79701;stroke-linecap:butt;stroke-linejoin:miter;stroke:rgb(100%,0%,0%);stroke-opacity:1;stroke-miterlimit:10;" d="M -136.065625 0.00040625 L -158.198437 -18.444906 " transform="matrix(1,0,0,-1,182.55,117.184)"/>
<path style="fill:none;stroke-width:0.6376;stroke-linecap:round;stroke-linejoin:round;stroke:rgb(100%,0%,0%);stroke-opacity:1;stroke-miterlimit:10;" d="M -1.552581 2.072009 C -1.426534 1.295751 -0.0000494717 0.12737 0.388581 0.0018303 C -0.00154832 -0.130716 -1.424016 -1.294614 -1.553054 -2.071875 " transform="matrix(-0.76819,0.64015,0.64015,0.76819,24.35202,135.62875)"/>
<path style="fill:none;stroke-width:0.79701;stroke-linecap:butt;stroke-linejoin:miter;stroke:rgb(100%,0%,0%);stroke-opacity:1;stroke-miterlimit:10;" d="M -136.065625 28.348062 L -152.659375 5.297281 " transform="matrix(1,0,0,-1,182.55,117.184)"/>
<path style="fill:none;stroke-width:0.6376;stroke-linecap:round;stroke-linejoin:round;stroke:rgb(100%,0%,0%);stroke-opacity:1;stroke-miterlimit:10;" d="M -1.553248 2.07272 C -1.425432 1.293482 -0.000115166 0.129497 0.387283 -0.000738753 C -0.000497703 -0.130714 -1.424311 -1.295437 -1.553535 -2.072011 " transform="matrix(-0.58427,0.8115,0.8115,0.58427,29.89094,111.88537)"/>
<path style="fill:none;stroke-width:0.79701;stroke-linecap:butt;stroke-linejoin:miter;stroke:rgb(100%,0%,0%);stroke-opacity:1;stroke-miterlimit:10;" d="M -136.065625 56.691812 L -147.139844 29.004312 " transform="matrix(1,0,0,-1,182.55,117.184)"/>
<path style="fill:none;stroke-width:0.6376;stroke-linecap:round;stroke-linejoin:round;stroke:rgb(100%,0%,0%);stroke-opacity:1;stroke-miterlimit:10;" d="M -1.553121 2.071813 C -1.423296 1.294905 0.00135998 0.131321 0.390171 0.000737978 C 0.000627309 -0.129823 -1.426995 -1.294053 -1.553236 -2.072405 " transform="matrix(-0.37135,0.92845,0.92845,0.37135,35.40983,88.18044)"/>
<path style="fill:none;stroke-width:0.79701;stroke-linecap:butt;stroke-linejoin:miter;stroke:rgb(100%,0%,0%);stroke-opacity:1;stroke-miterlimit:10;" d="M -136.065625 85.039469 L -141.6125 52.668375 " transform="matrix(1,0,0,-1,182.55,117.184)"/>
<path style="fill:none;stroke-width:0.6376;stroke-linecap:round;stroke-linejoin:round;stroke:rgb(100%,0%,0%);stroke-opacity:1;stroke-miterlimit:10;" d="M -1.554162 2.073329 C -1.424689 1.294917 0.00000836349 0.12817 0.386573 0.000228599 C 0.000556732 -0.129358 -1.424926 -1.293226 -1.552979 -2.072187 " transform="matrix(-0.16895,0.98558,0.98558,0.16895,40.93618,64.5174)"/>
<path style="fill:none;stroke-width:0.79701;stroke-linecap:butt;stroke-linejoin:miter;stroke:rgb(100%,0%,0%);stroke-opacity:1;stroke-miterlimit:10;" d="M -136.065625 113.387125 L -136.065625 76.297281 " transform="matrix(1,0,0,-1,182.55,117.184)"/>
<path style="fill:none;stroke-width:0.6376;stroke-linecap:round;stroke-linejoin:round;stroke:rgb(100%,0%,0%);stroke-opacity:1;stroke-miterlimit:10;" d="M -1.552989 2.072924 C -1.424082 1.29558 0.00169875 0.127611 0.388418 -0.001295 C 0.00169875 -0.130201 -1.424082 -1.294264 -1.552989 -2.071607 " transform="matrix(0,1,1,0,46.48567,40.88502)"/>
<g clip-path="url(#clip1)" clip-rule="nonzero">
<path style="fill:none;stroke-width:0.79701;stroke-linecap:butt;stroke-linejoin:miter;stroke:rgb(100%,0%,0%);stroke-opacity:1;stroke-miterlimit:10;" d="M -102.05 -113.386313 L -141.030469 -108.745688 " transform="matrix(1,0,0,-1,182.55,117.184)"/>
</g>
<path style="fill:none;stroke-width:0.6376;stroke-linecap:round;stroke-linejoin:round;stroke:rgb(100%,0%,0%);stroke-opacity:1;stroke-miterlimit:10;" d="M -1.553224 2.072233 C -1.4255 1.296706 -0.0000649288 0.128834 0.389221 -0.00185469 C -0.000621223 -0.130875 -1.423767 -1.295583 -1.555752 -2.070554 " transform="matrix(-0.99295,-0.1182,-0.1182,0.99295,41.51907,225.93066)"/>
<path style="fill:none;stroke-width:0.79701;stroke-linecap:butt;stroke-linejoin:miter;stroke:rgb(100%,0%,0%);stroke-opacity:1;stroke-miterlimit:10;" d="M -102.05 -85.038656 L -135.358594 -85.038656 " transform="matrix(1,0,0,-1,182.55,117.184)"/>
<path style="fill:none;stroke-width:0.6376;stroke-linecap:round;stroke-linejoin:round;stroke:rgb(100%,0%,0%);stroke-opacity:1;stroke-miterlimit:10;" d="M -1.553054 2.072455 C -1.424148 1.295111 0.00163375 0.131049 0.388352 -0.00176375 C 0.00163375 -0.13067 -1.424148 -1.294732 -1.553054 -2.072076 " transform="matrix(-1,0,0,1,47.19304,202.22442)"/>
<path style="fill:none;stroke-width:0.79701;stroke-linecap:butt;stroke-linejoin:miter;stroke:rgb(100%,0%,0%);stroke-opacity:1;stroke-miterlimit:10;" d="M -102.05 -56.694906 L -129.698437 -61.300375 " transform="matrix(1,0,0,-1,182.55,117.184)"/>
<path style="fill:none;stroke-width:0.6376;stroke-linecap:round;stroke-linejoin:round;stroke:rgb(100%,0%,0%);stroke-opacity:1;stroke-miterlimit:10;" d="M -1.554367 2.071718 C -1.42655 1.293992 -0.000796446 0.129674 0.389676 0.00123705 C -0.000149144 -0.127857 -1.426498 -1.296085 -1.55557 -2.070606 " transform="matrix(-0.98634,0.16437,0.16437,0.98634,52.8529,178.48551)"/>
<path style="fill:none;stroke-width:0.79701;stroke-linecap:butt;stroke-linejoin:miter;stroke:rgb(100%,0%,0%);stroke-opacity:1;stroke-miterlimit:10;" d="M -102.05 -28.34725 L -124.073437 -37.523031 " transform="matrix(1,0,0,-1,182.55,117.184)"/>
<path style="fill:none;stroke-width:0.6376;stroke-linecap:round;stroke-linejoin:round;stroke:rgb(100%,0%,0%);stroke-opacity:1;stroke-miterlimit:10;" d="M -1.555518 2.073712 C -1.422987 1.294823 0.000488891 0.130415 0.389636 -0.00209885 C -0.00100983 -0.127112 -1.422949 -1.295168 -1.556659 -2.073159 " transform="matrix(-0.92303,0.38458,0.38458,0.92303,58.47764,154.70756)"/>
<path style="fill:none;stroke-width:0.79701;stroke-linecap:butt;stroke-linejoin:miter;stroke:rgb(100%,0%,0%);stroke-opacity:1;stroke-miterlimit:10;" d="M -102.05 0.00040625 L -118.514844 -13.72225 " transform="matrix(1,0,0,-1,182.55,117.184)"/>
<path style="fill:none;stroke-width:0.6376;stroke-linecap:round;stroke-linejoin:round;stroke:rgb(100%,0%,0%);stroke-opacity:1;stroke-miterlimit:10;" d="M -1.555965 2.071728 C -1.424416 1.29597 -0.000933144 0.13009 0.388198 -0.000951593 C 0.000569025 -0.130497 -1.4244 -1.297396 -1.556439 -2.072156 " transform="matrix(-0.76819,0.64015,0.64015,0.76819,64.0371,130.90457)"/>
<path style="fill:none;stroke-width:0.79701;stroke-linecap:butt;stroke-linejoin:miter;stroke:rgb(100%,0%,0%);stroke-opacity:1;stroke-miterlimit:10;" d="M -102.05 28.348062 L -113.022656 10.055094 " transform="matrix(1,0,0,-1,182.55,117.184)"/>
<path style="fill:none;stroke-width:0.6376;stroke-linecap:round;stroke-linejoin:round;stroke:rgb(100%,0%,0%);stroke-opacity:1;stroke-miterlimit:10;" d="M -1.5538 2.074555 C -1.423822 1.2961 0.00113271 0.128438 0.387683 0.000487475 C -0.000203191 -0.127475 -1.422442 -1.295181 -1.553736 -2.07096 " transform="matrix(-0.5145,0.85747,0.85747,0.5145,69.52717,107.12826)"/>
<path style="fill:none;stroke-width:0.79701;stroke-linecap:butt;stroke-linejoin:miter;stroke:rgb(100%,0%,0%);stroke-opacity:1;stroke-miterlimit:10;" d="M -102.05 56.691812 L -107.553906 33.758219 " transform="matrix(1,0,0,-1,182.55,117.184)"/>
<path style="fill:none;stroke-width:0.6376;stroke-linecap:round;stroke-linejoin:round;stroke:rgb(100%,0%,0%);stroke-opacity:1;stroke-miterlimit:10;" d="M -1.552829 2.072149 C -1.42658 1.294954 -0.00213255 0.130276 0.386992 -0.00131557 C 0.000141135 -0.130308 -1.423596 -1.295534 -1.554132 -2.07409 " transform="matrix(-0.23334,0.97234,0.97234,0.23334,74.99783,83.4248)"/>
<path style="fill:none;stroke-width:0.79701;stroke-linecap:butt;stroke-linejoin:miter;stroke:rgb(100%,0%,0%);stroke-opacity:1;stroke-miterlimit:10;" d="M -102.05 85.039469 L -102.05 57.40275 " transform="matrix(1,0,0,-1,182.55,117.184)"/>
<path style="fill:none;stroke-width:0.6376;stroke-linecap:round;stroke-linejoin:round;stroke:rgb(100%,0%,0%);stroke-opacity:1;stroke-miterlimit:10;" d="M -1.552561 2.072469 C -1.423655 1.295125 -0.00178 0.131063 0.388845 -0.00175 C -0.00178 -0.130656 -1.423655 -1.294719 -1.552561 -2.072062 " transform="matrix(0,1,1,0,80.50175,59.78303)"/>
<path style="fill:none;stroke-width:0.79701;stroke-linecap:butt;stroke-linejoin:miter;stroke:rgb(100%,0%,0%);stroke-opacity:1;stroke-miterlimit:10;" d="M -102.05 113.387125 L -96.499219 81.012125 " transform="matrix(1,0,0,-1,182.55,117.184)"/>
<path style="fill:none;stroke-width:0.6376;stroke-linecap:round;stroke-linejoin:round;stroke:rgb(100%,0%,0%);stroke-opacity:1;stroke-miterlimit:10;" d="M -1.553679 2.073171 C -1.425626 1.294209 -0.000143414 0.130341 0.389723 0.0000951065 C -0.0013518 -0.131036 -1.425389 -1.293933 -1.554863 -2.072345 " transform="matrix(0.16895,0.98558,0.98558,-0.16895,86.05125,36.1706)"/>
<g clip-path="url(#clip2)" clip-rule="nonzero">
<path style="fill:none;stroke-width:0.79701;stroke-linecap:butt;stroke-linejoin:miter;stroke:rgb(100%,0%,0%);stroke-opacity:1;stroke-miterlimit:10;" d="M -68.030469 -113.386313 L -101.366406 -104.1285 " transform="matrix(1,0,0,-1,182.55,117.184)"/>
</g>
<path style="fill:none;stroke-width:0.6376;stroke-linecap:round;stroke-linejoin:round;stroke:rgb(100%,0%,0%);stroke-opacity:1;stroke-miterlimit:10;" d="M -1.552707 2.071057 C -1.426413 1.295266 -0.000101185 0.130521 0.389047 -0.000593674 C -0.000940258 -0.129191 -1.424558 -1.294952 -1.553167 -2.072623 " transform="matrix(-0.96347,-0.26762,-0.26762,0.96347,81.18327,221.31172)"/>
<path style="fill:none;stroke-width:0.79701;stroke-linecap:butt;stroke-linejoin:miter;stroke:rgb(100%,0%,0%);stroke-opacity:1;stroke-miterlimit:10;" d="M -68.030469 -85.038656 L -95.682812 -80.433188 " transform="matrix(1,0,0,-1,182.55,117.184)"/>
<path style="fill:none;stroke-width:0.6376;stroke-linecap:round;stroke-linejoin:round;stroke:rgb(100%,0%,0%);stroke-opacity:1;stroke-miterlimit:10;" d="M -1.555045 2.070229 C -1.425974 1.295708 -0.000267244 0.131334 0.3902 -0.00161356 C -0.000272401 -0.13005 -1.426025 -1.294368 -1.553843 -2.072095 " transform="matrix(-0.98634,-0.16437,-0.16437,0.98634,86.86898,197.61651)"/>
<path style="fill:none;stroke-width:0.79701;stroke-linecap:butt;stroke-linejoin:miter;stroke:rgb(100%,0%,0%);stroke-opacity:1;stroke-miterlimit:10;" d="M -68.030469 -56.694906 L -90.003125 -56.694906 " transform="matrix(1,0,0,-1,182.55,117.184)"/>
<path style="fill:none;stroke-width:0.6376;stroke-linecap:round;stroke-linejoin:round;stroke:rgb(100%,0%,0%);stroke-opacity:1;stroke-miterlimit:10;" d="M -1.553393 2.071599 C -1.424486 1.294255 0.001295 0.130193 0.388014 0.00128625 C 0.001295 -0.12762 -1.424486 -1.295589 -1.553393 -2.072932 " transform="matrix(-1,0,0,1,92.54817,173.87762)"/>
<path style="fill:none;stroke-width:0.79701;stroke-linecap:butt;stroke-linejoin:miter;stroke:rgb(100%,0%,0%);stroke-opacity:1;stroke-miterlimit:10;" d="M -68.030469 -28.34725 L -84.358594 -32.882406 " transform="matrix(1,0,0,-1,182.55,117.184)"/>
<path style="fill:none;stroke-width:0.6376;stroke-linecap:round;stroke-linejoin:round;stroke:rgb(100%,0%,0%);stroke-opacity:1;stroke-miterlimit:10;" d="M -1.553592 2.070244 C -1.42393 1.296337 -0.000297212 0.130586 0.388647 -0.00177176 C 0.000544366 -0.129126 -1.42576 -1.293888 -1.553092 -2.073446 " transform="matrix(-0.96347,0.26761,0.26761,0.96347,98.19133,150.06567)"/>
<path style="fill:none;stroke-width:0.79701;stroke-linecap:butt;stroke-linejoin:miter;stroke:rgb(100%,0%,0%);stroke-opacity:1;stroke-miterlimit:10;" d="M -68.030469 0.00040625 L -78.827344 -8.995688 " transform="matrix(1,0,0,-1,182.55,117.184)"/>
<path style="fill:none;stroke-width:0.6376;stroke-linecap:round;stroke-linejoin:round;stroke:rgb(100%,0%,0%);stroke-opacity:1;stroke-miterlimit:10;" d="M -1.553173 2.071945 C -1.424125 1.293186 0.00185899 0.130306 0.387989 0.00176579 C 0.000360138 -0.12778 -1.424608 -1.294679 -1.553647 -2.071939 " transform="matrix(-0.76819,0.64015,0.64015,0.76819,103.7227,126.17996)"/>
<path style="fill:none;stroke-width:0.79701;stroke-linecap:butt;stroke-linejoin:miter;stroke:rgb(100%,0%,0%);stroke-opacity:1;stroke-miterlimit:10;" d="M -68.030469 28.348062 L -73.436719 14.828531 " transform="matrix(1,0,0,-1,182.55,117.184)"/>
<path style="fill:none;stroke-width:0.6376;stroke-linecap:round;stroke-linejoin:round;stroke:rgb(100%,0%,0%);stroke-opacity:1;stroke-miterlimit:10;" d="M -1.555089 2.072572 C -1.425263 1.295663 0.000843187 0.128453 0.388204 0.00149663 C -0.00134019 -0.129065 -1.423885 -1.295471 -1.555204 -2.071646 " transform="matrix(-0.37135,0.92845,0.92845,0.37135,109.11152,102.35386)"/>
<path style="fill:none;stroke-width:0.79701;stroke-linecap:butt;stroke-linejoin:miter;stroke:rgb(100%,0%,0%);stroke-opacity:1;stroke-miterlimit:10;" d="M -68.030469 56.691812 L -68.030469 38.504312 " transform="matrix(1,0,0,-1,182.55,117.184)"/>
<path style="fill:none;stroke-width:0.6376;stroke-linecap:round;stroke-linejoin:round;stroke:rgb(100%,0%,0%);stroke-opacity:1;stroke-miterlimit:10;" d="M -1.55561 2.072014 C -1.422797 1.29467 -0.0009225 0.130608 0.389703 0.00170125 C -0.0009225 -0.131111 -1.422797 -1.295174 -1.55561 -2.072517 " transform="matrix(0,1,1,0,114.51783,78.68061)"/>
<path style="fill:none;stroke-width:0.79701;stroke-linecap:butt;stroke-linejoin:miter;stroke:rgb(100%,0%,0%);stroke-opacity:1;stroke-miterlimit:10;" d="M -68.030469 85.039469 L -62.526562 62.105875 " transform="matrix(1,0,0,-1,182.55,117.184)"/>
<path style="fill:none;stroke-width:0.6376;stroke-linecap:round;stroke-linejoin:round;stroke:rgb(100%,0%,0%);stroke-opacity:1;stroke-miterlimit:10;" d="M -1.554965 2.074199 C -1.424429 1.295643 -0.000692782 0.130416 0.389957 0.000512838 C 0.000832147 -0.131079 -1.423615 -1.295757 -1.553663 -2.07204 " transform="matrix(0.23334,0.97234,0.97234,-0.23334,120.02179,55.07798)"/>
<path style="fill:none;stroke-width:0.79701;stroke-linecap:butt;stroke-linejoin:miter;stroke:rgb(100%,0%,0%);stroke-opacity:1;stroke-miterlimit:10;" d="M -68.030469 113.387125 L -56.95625 85.695719 " transform="matrix(1,0,0,-1,182.55,117.184)"/>
<path style="fill:none;stroke-width:0.6376;stroke-linecap:round;stroke-linejoin:round;stroke:rgb(100%,0%,0%);stroke-opacity:1;stroke-miterlimit:10;" d="M -1.554685 2.073368 C -1.424816 1.293565 -0.000821199 0.130786 0.388723 0.000225083 C -0.0000885238 -0.130358 -1.424744 -1.293941 -1.55457 -2.07085 " transform="matrix(0.37135,0.92845,0.92845,-0.37135,125.59372,31.48683)"/>
<g clip-path="url(#clip3)" clip-rule="nonzero">
<path style="fill:none;stroke-width:0.79701;stroke-linecap:butt;stroke-linejoin:miter;stroke:rgb(100%,0%,0%);stroke-opacity:1;stroke-miterlimit:10;" d="M -34.014844 -113.386313 L -61.729687 -99.530844 " transform="matrix(1,0,0,-1,182.55,117.184)"/>
</g>
<path style="fill:none;stroke-width:0.6376;stroke-linecap:round;stroke-linejoin:round;stroke:rgb(100%,0%,0%);stroke-opacity:1;stroke-miterlimit:10;" d="M -1.555448 2.070787 C -1.424425 1.293341 0.00117182 0.128035 0.38902 -0.00125186 C -0.00057756 -0.130531 -1.422701 -1.295812 -1.553738 -2.073256 " transform="matrix(-0.89436,-0.44717,-0.44717,0.89436,120.82002,216.71414)"/>
<path style="fill:none;stroke-width:0.79701;stroke-linecap:butt;stroke-linejoin:miter;stroke:rgb(100%,0%,0%);stroke-opacity:1;stroke-miterlimit:10;" d="M -34.014844 -85.038656 L -56.038281 -75.862875 " transform="matrix(1,0,0,-1,182.55,117.184)"/>
<path style="fill:none;stroke-width:0.6376;stroke-linecap:round;stroke-linejoin:round;stroke:rgb(100%,0%,0%);stroke-opacity:1;stroke-miterlimit:10;" d="M -1.555336 2.072309 C -1.425227 1.292809 -0.00116743 0.129856 0.387379 -0.000264862 C 0.000332301 -0.127673 -1.425255 -1.297206 -1.555681 -2.070994 " transform="matrix(-0.92302,-0.38458,-0.38458,0.92302,126.5098,193.04766)"/>
<path style="fill:none;stroke-width:0.79701;stroke-linecap:butt;stroke-linejoin:miter;stroke:rgb(100%,0%,0%);stroke-opacity:1;stroke-miterlimit:10;" d="M -34.014844 -56.694906 L -50.342969 -52.15975 " transform="matrix(1,0,0,-1,182.55,117.184)"/>
<path style="fill:none;stroke-width:0.6376;stroke-linecap:round;stroke-linejoin:round;stroke:rgb(100%,0%,0%);stroke-opacity:1;stroke-miterlimit:10;" d="M -1.552081 2.071506 C -1.425795 1.295712 0.000510074 0.13095 0.389658 -0.000168514 C -0.000331503 -0.128762 -1.423964 -1.294513 -1.552581 -2.072184 " transform="matrix(-0.96347,-0.26761,-0.26761,0.96347,132.20741,169.34272)"/>
<path style="fill:none;stroke-width:0.79701;stroke-linecap:butt;stroke-linejoin:miter;stroke:rgb(100%,0%,0%);stroke-opacity:1;stroke-miterlimit:10;" d="M -34.014844 -28.34725 L -44.647656 -28.34725 " transform="matrix(1,0,0,-1,182.55,117.184)"/>
<path style="fill:none;stroke-width:0.6376;stroke-linecap:round;stroke-linejoin:round;stroke:rgb(100%,0%,0%);stroke-opacity:1;stroke-miterlimit:10;" d="M -1.554261 2.070763 C -1.425355 1.293419 0.00042625 0.129356 0.387145 0.00045 C 0.00042625 -0.128456 -1.425355 -1.296425 -1.554261 -2.073769 " transform="matrix(-1,0,0,1,137.90277,145.5308)"/>
<path style="fill:none;stroke-width:0.79701;stroke-linecap:butt;stroke-linejoin:miter;stroke:rgb(100%,0%,0%);stroke-opacity:1;stroke-miterlimit:10;" d="M -34.014844 0.00040625 L -39.139844 -4.273031 " transform="matrix(1,0,0,-1,182.55,117.184)"/>
<path style="fill:none;stroke-width:0.6376;stroke-linecap:round;stroke-linejoin:round;stroke:rgb(100%,0%,0%);stroke-opacity:1;stroke-miterlimit:10;" d="M -1.555854 2.071664 C -1.424306 1.295906 -0.000822547 0.130025 0.388308 -0.00101609 C 0.000679623 -0.130562 -1.424289 -1.297461 -1.556328 -2.07222 " transform="matrix(-0.76819,0.64015,0.64015,0.76819,143.40832,121.45533)"/>
<path style="fill:none;stroke-width:0.79701;stroke-linecap:butt;stroke-linejoin:miter;stroke:rgb(100%,0%,0%);stroke-opacity:1;stroke-miterlimit:10;" d="M -34.014844 28.348062 L -34.014844 19.605875 " transform="matrix(1,0,0,-1,182.55,117.184)"/>
<path style="fill:none;stroke-width:0.6376;stroke-linecap:round;stroke-linejoin:round;stroke:rgb(100%,0%,0%);stroke-opacity:1;stroke-miterlimit:10;" d="M -1.555202 2.071549 C -1.426296 1.294205 -0.000515 0.130143 0.39011 0.00123625 C -0.000515 -0.12767 -1.426296 -1.295639 -1.555202 -2.072982 " transform="matrix(0,1,1,0,148.53392,97.57864)"/>
<path style="fill:none;stroke-width:0.79701;stroke-linecap:butt;stroke-linejoin:miter;stroke:rgb(100%,0%,0%);stroke-opacity:1;stroke-miterlimit:10;" d="M -34.014844 56.691812 L -28.608594 43.176187 " transform="matrix(1,0,0,-1,182.55,117.184)"/>
<path style="fill:none;stroke-width:0.6376;stroke-linecap:round;stroke-linejoin:round;stroke:rgb(100%,0%,0%);stroke-opacity:1;stroke-miterlimit:10;" d="M -1.556351 2.071029 C -1.425032 1.294854 -0.00248758 0.128448 0.388507 0.00151362 C -0.000304207 -0.129069 -1.426411 -1.29628 -1.556236 -2.073188 " transform="matrix(0.37135,0.92845,0.92845,-0.37135,153.94026,74.00704)"/>
<path style="fill:none;stroke-width:0.79701;stroke-linecap:butt;stroke-linejoin:miter;stroke:rgb(100%,0%,0%);stroke-opacity:1;stroke-miterlimit:10;" d="M -34.014844 85.039469 L -23.042187 66.750406 " transform="matrix(1,0,0,-1,182.55,117.184)"/>
<path style="fill:none;stroke-width:0.6376;stroke-linecap:round;stroke-linejoin:round;stroke:rgb(100%,0%,0%);stroke-opacity:1;stroke-miterlimit:10;" d="M -1.555473 2.071356 C -1.424179 1.295577 0.0000704117 0.13122 0.389297 -0.00210133 C -0.000603518 -0.128042 -1.425559 -1.295704 -1.553527 -2.070809 " transform="matrix(0.5145,0.85747,0.85747,-0.5145,159.50854,50.43464)"/>
<path style="fill:none;stroke-width:0.79701;stroke-linecap:butt;stroke-linejoin:miter;stroke:rgb(100%,0%,0%);stroke-opacity:1;stroke-miterlimit:10;" d="M -34.014844 113.387125 L -17.421094 90.34025 " transform="matrix(1,0,0,-1,182.55,117.184)"/>
<path style="fill:none;stroke-width:0.6376;stroke-linecap:round;stroke-linejoin:round;stroke:rgb(100%,0%,0%);stroke-opacity:1;stroke-miterlimit:10;" d="M -1.555662 2.07342 C -1.423267 1.294564 0.000546312 0.129841 0.388327 -0.000134613 C 0.000928849 -0.13037 -1.424388 -1.294355 -1.555374 -2.071311 " transform="matrix(0.58427,0.8115,0.8115,-0.58427,165.12869,26.84495)"/>
<g clip-path="url(#clip4)" clip-rule="nonzero">
<path style="fill:none;stroke-width:0.79701;stroke-linecap:butt;stroke-linejoin:miter;stroke:rgb(100%,0%,0%);stroke-opacity:1;stroke-miterlimit:10;" d="M 0.00078125 -113.386313 L -22.132031 -94.941 " transform="matrix(1,0,0,-1,182.55,117.184)"/>
</g>
<path style="fill:none;stroke-width:0.6376;stroke-linecap:round;stroke-linejoin:round;stroke:rgb(100%,0%,0%);stroke-opacity:1;stroke-miterlimit:10;" d="M -1.556315 2.072545 C -1.427277 1.295285 0.000692269 0.130886 0.388321 0.00134068 C -0.000809901 -0.129701 -1.424293 -1.295581 -1.555842 -2.071339 " transform="matrix(-0.76819,-0.64015,-0.64015,0.76819,160.41635,212.12646)"/>
<path style="fill:none;stroke-width:0.79701;stroke-linecap:butt;stroke-linejoin:miter;stroke:rgb(100%,0%,0%);stroke-opacity:1;stroke-miterlimit:10;" d="M 0.00078125 -85.038656 L -16.464062 -71.319906 " transform="matrix(1,0,0,-1,182.55,117.184)"/>
<path style="fill:none;stroke-width:0.6376;stroke-linecap:round;stroke-linejoin:round;stroke:rgb(100%,0%,0%);stroke-opacity:1;stroke-miterlimit:10;" d="M -1.553997 2.071405 C -1.424959 1.294145 0.00000977764 0.127246 0.390639 0.000200607 C -0.00099219 -0.12784 -1.424475 -1.29372 -1.553523 -2.072479 " transform="matrix(-0.76819,-0.64015,-0.64015,0.76819,166.08537,188.50382)"/>
<path style="fill:none;stroke-width:0.79701;stroke-linecap:butt;stroke-linejoin:miter;stroke:rgb(100%,0%,0%);stroke-opacity:1;stroke-miterlimit:10;" d="M 0.00078125 -56.694906 L -10.796094 -47.698813 " transform="matrix(1,0,0,-1,182.55,117.184)"/>
<path style="fill:none;stroke-width:0.6376;stroke-linecap:round;stroke-linejoin:round;stroke:rgb(100%,0%,0%);stroke-opacity:1;stroke-miterlimit:10;" d="M -1.55353 2.073221 C -1.424492 1.295961 0.000476665 0.129062 0.388105 -0.000484086 C 0.00197551 -0.129025 -1.424509 -1.297406 -1.553056 -2.070663 " transform="matrix(-0.76819,-0.64015,-0.64015,0.76819,171.75486,164.88163)"/>
<path style="fill:none;stroke-width:0.79701;stroke-linecap:butt;stroke-linejoin:miter;stroke:rgb(100%,0%,0%);stroke-opacity:1;stroke-miterlimit:10;" d="M 0.00078125 -28.34725 L -5.124219 -24.073813 " transform="matrix(1,0,0,-1,182.55,117.184)"/>
<path style="fill:none;stroke-width:0.6376;stroke-linecap:round;stroke-linejoin:round;stroke:rgb(100%,0%,0%);stroke-opacity:1;stroke-miterlimit:10;" d="M -1.556076 2.07258 C -1.427026 1.29531 0.000980305 0.130912 0.388617 0.00136905 C -0.000518551 -0.129679 -1.424009 -1.295596 -1.55555 -2.071368 " transform="matrix(-0.76817,-0.64015,-0.64015,0.76817,177.4244,141.25944)"/>
<path style="fill:none;stroke-width:0.79701;stroke-linecap:butt;stroke-linejoin:miter;stroke:rgb(100%,0%,0%);stroke-opacity:1;stroke-miterlimit:10;" d="M 0.00078125 28.348062 L 5.125781 24.074625 " transform="matrix(1,0,0,-1,182.55,117.184)"/>
<path style="fill:none;stroke-width:0.6376;stroke-linecap:round;stroke-linejoin:round;stroke:rgb(100%,0%,0%);stroke-opacity:1;stroke-miterlimit:10;" d="M -1.552895 2.071204 C -1.423845 1.293933 -0.0013405 0.130036 0.386296 0.000492724 C 0.000161676 -0.128055 -1.423328 -1.293971 -1.552368 -2.072744 " transform="matrix(0.76817,0.64015,0.64015,-0.76817,187.6756,93.10856)"/>
<path style="fill:none;stroke-width:0.79701;stroke-linecap:butt;stroke-linejoin:miter;stroke:rgb(100%,0%,0%);stroke-opacity:1;stroke-miterlimit:10;" d="M 0.00078125 56.691812 L 10.79375 47.695719 " transform="matrix(1,0,0,-1,182.55,117.184)"/>
<path style="fill:none;stroke-width:0.6376;stroke-linecap:round;stroke-linejoin:round;stroke:rgb(100%,0%,0%);stroke-opacity:1;stroke-miterlimit:10;" d="M -1.555851 2.072345 C -1.426813 1.295084 0.0011569 0.130686 0.388786 0.00114045 C -0.000345267 -0.129901 -1.423828 -1.295781 -1.555377 -2.07154 " transform="matrix(0.76819,0.64015,0.64015,-0.76819,193.34514,69.48637)"/>
<path style="fill:none;stroke-width:0.79701;stroke-linecap:butt;stroke-linejoin:miter;stroke:rgb(100%,0%,0%);stroke-opacity:1;stroke-miterlimit:10;" d="M 0.00078125 85.039469 L 16.465625 71.320719 " transform="matrix(1,0,0,-1,182.55,117.184)"/>
<path style="fill:none;stroke-width:0.6376;stroke-linecap:round;stroke-linejoin:round;stroke:rgb(100%,0%,0%);stroke-opacity:1;stroke-miterlimit:10;" d="M -1.553317 2.07303 C -1.424279 1.295769 0.000690015 0.12887 0.388319 -0.000675671 C 0.00218886 -0.129216 -1.426796 -1.294596 -1.552843 -2.070855 " transform="matrix(0.76819,0.64015,0.64015,-0.76819,199.01463,45.86418)"/>
<path style="fill:none;stroke-width:0.79701;stroke-linecap:butt;stroke-linejoin:miter;stroke:rgb(100%,0%,0%);stroke-opacity:1;stroke-miterlimit:10;" d="M 0.00078125 113.387125 L 22.133594 94.941812 " transform="matrix(1,0,0,-1,182.55,117.184)"/>
<path style="fill:none;stroke-width:0.6376;stroke-linecap:round;stroke-linejoin:round;stroke:rgb(100%,0%,0%);stroke-opacity:1;stroke-miterlimit:10;" d="M -1.553134 2.071169 C -1.424096 1.293908 -0.00162851 0.13001 0.388501 -0.00253661 C -0.000129663 -0.128076 -1.423613 -1.293956 -1.552661 -2.072716 " transform="matrix(0.76819,0.64015,0.64015,-0.76819,204.68365,22.24154)"/>
<g clip-path="url(#clip5)" clip-rule="nonzero">
<path style="fill:none;stroke-width:0.79701;stroke-linecap:butt;stroke-linejoin:miter;stroke:rgb(100%,0%,0%);stroke-opacity:1;stroke-miterlimit:10;" d="M 34.016406 -113.386313 L 17.422656 -90.339438 " transform="matrix(1,0,0,-1,182.55,117.184)"/>
</g>
<path style="fill:none;stroke-width:0.6376;stroke-linecap:round;stroke-linejoin:round;stroke:rgb(100%,0%,0%);stroke-opacity:1;stroke-miterlimit:10;" d="M -1.555915 2.071677 C -1.426691 1.295104 0.000292709 0.128098 0.388074 -0.00187747 C -0.00249498 -0.12983 -1.424641 -1.296098 -1.555628 -2.073054 " transform="matrix(-0.58427,-0.8115,-0.8115,0.58427,199.97131,207.52305)"/>
<path style="fill:none;stroke-width:0.79701;stroke-linecap:butt;stroke-linejoin:miter;stroke:rgb(100%,0%,0%);stroke-opacity:1;stroke-miterlimit:10;" d="M 34.016406 -85.038656 L 23.039844 -66.749594 " transform="matrix(1,0,0,-1,182.55,117.184)"/>
<path style="fill:none;stroke-width:0.6376;stroke-linecap:round;stroke-linejoin:round;stroke:rgb(100%,0%,0%);stroke-opacity:1;stroke-miterlimit:10;" d="M -1.55357 2.072948 C -1.424286 1.293819 -0.000036804 0.129462 0.38785 0.00150023 C -0.000710734 -0.1298 -1.423656 -1.294113 -1.553634 -2.072567 " transform="matrix(-0.5145,-0.85747,-0.85747,0.5145,205.59146,183.93336)"/>
<path style="fill:none;stroke-width:0.79701;stroke-linecap:butt;stroke-linejoin:miter;stroke:rgb(100%,0%,0%);stroke-opacity:1;stroke-miterlimit:10;" d="M 34.016406 -56.694906 L 28.610156 -43.175375 " transform="matrix(1,0,0,-1,182.55,117.184)"/>
<path style="fill:none;stroke-width:0.6376;stroke-linecap:round;stroke-linejoin:round;stroke:rgb(100%,0%,0%);stroke-opacity:1;stroke-miterlimit:10;" d="M -1.554727 2.072904 C -1.423407 1.296728 -0.000862738 0.130322 0.388681 -0.000238943 C -0.000130062 -0.130822 -1.424786 -1.294405 -1.554611 -2.071314 " transform="matrix(-0.37135,-0.92845,-0.92845,0.37135,211.15974,160.36096)"/>
<path style="fill:none;stroke-width:0.79701;stroke-linecap:butt;stroke-linejoin:miter;stroke:rgb(100%,0%,0%);stroke-opacity:1;stroke-miterlimit:10;" d="M 34.016406 -28.34725 L 34.016406 -19.605063 " transform="matrix(1,0,0,-1,182.55,117.184)"/>
<path style="fill:none;stroke-width:0.6376;stroke-linecap:round;stroke-linejoin:round;stroke:rgb(100%,0%,0%);stroke-opacity:1;stroke-miterlimit:10;" d="M -1.55439 2.073892 C -1.425484 1.296549 0.0002975 0.12858 0.387016 -0.00032625 C 0.0002975 -0.129233 -1.425484 -1.293295 -1.55439 -2.070639 " transform="matrix(0,-1,-1,0,216.56608,136.78936)"/>
<path style="fill:none;stroke-width:0.79701;stroke-linecap:butt;stroke-linejoin:miter;stroke:rgb(100%,0%,0%);stroke-opacity:1;stroke-miterlimit:10;" d="M 34.016406 0.00040625 L 39.141406 4.269937 " transform="matrix(1,0,0,-1,182.55,117.184)"/>
<path style="fill:none;stroke-width:0.6376;stroke-linecap:round;stroke-linejoin:round;stroke:rgb(100%,0%,0%);stroke-opacity:1;stroke-miterlimit:10;" d="M -1.554134 2.071288 C -1.422585 1.295529 0.00089803 0.129649 0.387028 0.00110861 C -0.000600819 -0.128437 -1.425569 -1.295336 -1.554608 -2.072597 " transform="matrix(0.76819,-0.64015,-0.64015,-0.76819,221.69168,112.91267)"/>
<path style="fill:none;stroke-width:0.79701;stroke-linecap:butt;stroke-linejoin:miter;stroke:rgb(100%,0%,0%);stroke-opacity:1;stroke-miterlimit:10;" d="M 34.016406 28.348062 L 44.645313 28.348062 " transform="matrix(1,0,0,-1,182.55,117.184)"/>
<path style="fill:none;stroke-width:0.6376;stroke-linecap:round;stroke-linejoin:round;stroke:rgb(100%,0%,0%);stroke-opacity:1;stroke-miterlimit:10;" d="M -1.552699 2.071575 C -1.423792 1.294231 -0.0019175 0.130169 0.388708 0.0012625 C -0.0019175 -0.127644 -1.423792 -1.295613 -1.552699 -2.072956 " transform="matrix(1,0,0,-1,227.19723,88.8372)"/>
<path style="fill:none;stroke-width:0.79701;stroke-linecap:butt;stroke-linejoin:miter;stroke:rgb(100%,0%,0%);stroke-opacity:1;stroke-miterlimit:10;" d="M 34.016406 56.691812 L 50.344531 52.160562 " transform="matrix(1,0,0,-1,182.55,117.184)"/>
<path style="fill:none;stroke-width:0.6376;stroke-linecap:round;stroke-linejoin:round;stroke:rgb(100%,0%,0%);stroke-opacity:1;stroke-miterlimit:10;" d="M -1.554557 2.071662 C -1.424507 1.296913 -0.000920298 0.127342 0.387182 -0.0000128882 C 0.000956628 -0.127561 -1.42644 -1.294357 -1.555057 -2.072029 " transform="matrix(0.96347,0.26761,0.26761,-0.96347,232.89259,65.02528)"/>
<path style="fill:none;stroke-width:0.79701;stroke-linecap:butt;stroke-linejoin:miter;stroke:rgb(100%,0%,0%);stroke-opacity:1;stroke-miterlimit:10;" d="M 34.016406 85.039469 L 56.039844 75.863687 " transform="matrix(1,0,0,-1,182.55,117.184)"/>
<path style="fill:none;stroke-width:0.6376;stroke-linecap:round;stroke-linejoin:round;stroke:rgb(100%,0%,0%);stroke-opacity:1;stroke-miterlimit:10;" d="M -1.554206 2.07366 C -1.424098 1.29416 -0.0000375318 0.131207 0.388508 0.00108618 C -0.000641362 -0.13143 -1.424125 -1.295855 -1.553049 -2.073249 " transform="matrix(0.92302,0.38458,0.38458,-0.92302,238.5902,41.32034)"/>
<path style="fill:none;stroke-width:0.79701;stroke-linecap:butt;stroke-linejoin:miter;stroke:rgb(100%,0%,0%);stroke-opacity:1;stroke-miterlimit:10;" d="M 34.016406 113.387125 L 61.73125 99.531656 " transform="matrix(1,0,0,-1,182.55,117.184)"/>
<path style="fill:none;stroke-width:0.6376;stroke-linecap:round;stroke-linejoin:round;stroke:rgb(100%,0%,0%);stroke-opacity:1;stroke-miterlimit:10;" d="M -1.554413 2.072213 C -1.42339 1.294767 -0.00128805 0.127713 0.390054 0.000173733 C 0.000456717 -0.129106 -1.425161 -1.296134 -1.552703 -2.071831 " transform="matrix(0.89436,0.44717,0.44717,-0.89436,244.27998,17.65386)"/>
<g clip-path="url(#clip6)" clip-rule="nonzero">
<path style="fill:none;stroke-width:0.79701;stroke-linecap:butt;stroke-linejoin:miter;stroke:rgb(100%,0%,0%);stroke-opacity:1;stroke-miterlimit:10;" d="M 68.032031 -113.386313 L 56.957813 -85.698813 " transform="matrix(1,0,0,-1,182.55,117.184)"/>
</g>
<path style="fill:none;stroke-width:0.6376;stroke-linecap:round;stroke-linejoin:round;stroke:rgb(100%,0%,0%);stroke-opacity:1;stroke-miterlimit:10;" d="M -1.554511 2.071615 C -1.423192 1.29544 -0.000647054 0.129034 0.388897 -0.00152748 C 0.00153632 -0.128484 -1.42457 -1.295694 -1.554395 -2.072602 " transform="matrix(-0.37135,-0.92845,-0.92845,0.37135,239.50628,202.88117)"/>
<path style="fill:none;stroke-width:0.79701;stroke-linecap:butt;stroke-linejoin:miter;stroke:rgb(100%,0%,0%);stroke-opacity:1;stroke-miterlimit:10;" d="M 68.032031 -85.038656 L 62.528125 -62.105063 " transform="matrix(1,0,0,-1,182.55,117.184)"/>
<path style="fill:none;stroke-width:0.6376;stroke-linecap:round;stroke-linejoin:round;stroke:rgb(100%,0%,0%);stroke-opacity:1;stroke-miterlimit:10;" d="M -1.55454 2.07249 C -1.424004 1.293934 -0.000267304 0.128707 0.386584 -0.000284633 C -0.0016294 -0.128077 -1.426988 -1.296554 -1.553237 -2.073749 " transform="matrix(-0.23334,-0.97234,-0.97234,0.23334,245.07821,179.29002)"/>
<path style="fill:none;stroke-width:0.79701;stroke-linecap:butt;stroke-linejoin:miter;stroke:rgb(100%,0%,0%);stroke-opacity:1;stroke-miterlimit:10;" d="M 68.032031 -56.694906 L 68.032031 -38.5035 " transform="matrix(1,0,0,-1,182.55,117.184)"/>
<path style="fill:none;stroke-width:0.6376;stroke-linecap:round;stroke-linejoin:round;stroke:rgb(100%,0%,0%);stroke-opacity:1;stroke-miterlimit:10;" d="M -1.554798 2.070451 C -1.425891 1.297014 -0.00011 0.129045 0.386609 0.00013875 C -0.00011 -0.128768 -1.425891 -1.296736 -1.554798 -2.07408 " transform="matrix(0,-1,-1,0,250.58217,155.68739)"/>
<path style="fill:none;stroke-width:0.79701;stroke-linecap:butt;stroke-linejoin:miter;stroke:rgb(100%,0%,0%);stroke-opacity:1;stroke-miterlimit:10;" d="M 68.032031 -28.34725 L 73.438281 -14.831625 " transform="matrix(1,0,0,-1,182.55,117.184)"/>
<path style="fill:none;stroke-width:0.6376;stroke-linecap:round;stroke-linejoin:round;stroke:rgb(100%,0%,0%);stroke-opacity:1;stroke-miterlimit:10;" d="M -1.553754 2.071423 C -1.423929 1.294514 0.000727191 0.130931 0.389539 0.000347556 C -0.00000548419 -0.130214 -1.424001 -1.292993 -1.553869 -2.072795 " transform="matrix(0.37135,-0.92845,-0.92845,-0.37135,255.98848,132.01414)"/>
<path style="fill:none;stroke-width:0.79701;stroke-linecap:butt;stroke-linejoin:miter;stroke:rgb(100%,0%,0%);stroke-opacity:1;stroke-miterlimit:10;" d="M 68.032031 0.00040625 L 78.828906 8.9965 " transform="matrix(1,0,0,-1,182.55,117.184)"/>
<path style="fill:none;stroke-width:0.6376;stroke-linecap:round;stroke-linejoin:round;stroke:rgb(100%,0%,0%);stroke-opacity:1;stroke-miterlimit:10;" d="M -1.554453 2.07407 C -1.425405 1.29531 -0.00192227 0.12943 0.389709 0.00138968 C -0.000420101 -0.131157 -1.422888 -1.295055 -1.551926 -2.072316 " transform="matrix(0.76819,-0.64015,-0.64015,-0.76819,261.3773,108.18804)"/>
<path style="fill:none;stroke-width:0.79701;stroke-linecap:butt;stroke-linejoin:miter;stroke:rgb(100%,0%,0%);stroke-opacity:1;stroke-miterlimit:10;" d="M 68.032031 28.348062 L 84.360156 32.883219 " transform="matrix(1,0,0,-1,182.55,117.184)"/>
<path style="fill:none;stroke-width:0.6376;stroke-linecap:round;stroke-linejoin:round;stroke:rgb(100%,0%,0%);stroke-opacity:1;stroke-miterlimit:10;" d="M -1.555633 2.071654 C -1.423252 1.292938 0.00142583 0.130951 0.386606 -0.000361578 C -0.00149656 -0.127716 -1.424037 -1.293523 -1.555133 -2.072036 " transform="matrix(0.96347,-0.26761,-0.26761,-0.96347,266.90867,84.30233)"/>
<path style="fill:none;stroke-width:0.79701;stroke-linecap:butt;stroke-linejoin:miter;stroke:rgb(100%,0%,0%);stroke-opacity:1;stroke-miterlimit:10;" d="M 68.032031 56.691812 L 90.000781 56.691812 " transform="matrix(1,0,0,-1,182.55,117.184)"/>
<path style="fill:none;stroke-width:0.6376;stroke-linecap:round;stroke-linejoin:round;stroke:rgb(100%,0%,0%);stroke-opacity:1;stroke-miterlimit:10;" d="M -1.555736 2.072411 C -1.422924 1.295067 -0.00104875 0.131005 0.389576 -0.0018075 C -0.00104875 -0.130714 -1.422924 -1.294776 -1.555736 -2.07212 " transform="matrix(1,0,0,-1,272.55183,60.49038)"/>
<path style="fill:none;stroke-width:0.79701;stroke-linecap:butt;stroke-linejoin:miter;stroke:rgb(100%,0%,0%);stroke-opacity:1;stroke-miterlimit:10;" d="M 68.032031 85.039469 L 95.680469 80.434 " transform="matrix(1,0,0,-1,182.55,117.184)"/>
<path style="fill:none;stroke-width:0.6376;stroke-linecap:round;stroke-linejoin:round;stroke:rgb(100%,0%,0%);stroke-opacity:1;stroke-miterlimit:10;" d="M -1.553638 2.071287 C -1.424567 1.296767 0.00178267 0.128539 0.387755 -0.00119735 C 0.00113537 -0.128992 -1.424618 -1.29331 -1.552435 -2.071037 " transform="matrix(0.98634,0.16437,0.16437,-0.98634,278.23102,36.75149)"/>
<path style="fill:none;stroke-width:0.79701;stroke-linecap:butt;stroke-linejoin:miter;stroke:rgb(100%,0%,0%);stroke-opacity:1;stroke-miterlimit:10;" d="M 68.032031 113.387125 L 101.367969 104.129312 " transform="matrix(1,0,0,-1,182.55,117.184)"/>
<path style="fill:none;stroke-width:0.6376;stroke-linecap:round;stroke-linejoin:round;stroke:rgb(100%,0%,0%);stroke-opacity:1;stroke-miterlimit:10;" d="M -1.555182 2.071212 C -1.425125 1.296467 0.00118693 0.131722 0.390335 0.000607428 C 0.000347858 -0.12799 -1.42327 -1.293751 -1.555643 -2.072467 " transform="matrix(0.96347,0.26762,0.26762,-0.96347,283.91673,13.05628)"/>
<g clip-path="url(#clip7)" clip-rule="nonzero">
<path style="fill:none;stroke-width:0.79701;stroke-linecap:butt;stroke-linejoin:miter;stroke:rgb(100%,0%,0%);stroke-opacity:1;stroke-miterlimit:10;" d="M 102.047656 -113.386313 L 96.496875 -81.015219 " transform="matrix(1,0,0,-1,182.55,117.184)"/>
</g>
<path style="fill:none;stroke-width:0.6376;stroke-linecap:round;stroke-linejoin:round;stroke:rgb(100%,0%,0%);stroke-opacity:1;stroke-miterlimit:10;" d="M -1.553143 2.071493 C -1.424429 1.296382 0.000393433 0.128664 0.38641 -0.000922263 C -0.000154936 -0.128863 -1.424852 -1.29561 -1.554326 -2.074023 " transform="matrix(-0.16895,-0.98558,-0.98558,0.16895,279.04875,198.1974)"/>
<path style="fill:none;stroke-width:0.79701;stroke-linecap:butt;stroke-linejoin:miter;stroke:rgb(100%,0%,0%);stroke-opacity:1;stroke-miterlimit:10;" d="M 102.047656 -85.038656 L 102.047656 -57.401938 " transform="matrix(1,0,0,-1,182.55,117.184)"/>
<path style="fill:none;stroke-width:0.6376;stroke-linecap:round;stroke-linejoin:round;stroke:rgb(100%,0%,0%);stroke-opacity:1;stroke-miterlimit:10;" d="M -1.555655 2.070906 C -1.422843 1.293563 -0.0009675 0.1295 0.389657 0.00059375 C -0.0009675 -0.128312 -1.422843 -1.296281 -1.555655 -2.073625 " transform="matrix(0,-1,-1,0,284.59825,174.58497)"/>
<path style="fill:none;stroke-width:0.79701;stroke-linecap:butt;stroke-linejoin:miter;stroke:rgb(100%,0%,0%);stroke-opacity:1;stroke-miterlimit:10;" d="M 102.047656 -56.694906 L 107.551563 -33.757406 " transform="matrix(1,0,0,-1,182.55,117.184)"/>
<path style="fill:none;stroke-width:0.6376;stroke-linecap:round;stroke-linejoin:round;stroke:rgb(100%,0%,0%);stroke-opacity:1;stroke-miterlimit:10;" d="M -1.555473 2.069907 C -1.425425 1.293624 -0.000977802 0.128946 0.387236 0.0011532 C 0.000384297 -0.127839 -1.423352 -1.293065 -1.553888 -2.071622 " transform="matrix(0.23334,-0.97234,-0.97234,-0.23334,290.10217,150.9432)"/>
<path style="fill:none;stroke-width:0.79701;stroke-linecap:butt;stroke-linejoin:miter;stroke:rgb(100%,0%,0%);stroke-opacity:1;stroke-miterlimit:10;" d="M 102.047656 -28.34725 L 113.024219 -10.054281 " transform="matrix(1,0,0,-1,182.55,117.184)"/>
<path style="fill:none;stroke-width:0.6376;stroke-linecap:round;stroke-linejoin:round;stroke:rgb(100%,0%,0%);stroke-opacity:1;stroke-miterlimit:10;" d="M -1.555649 2.071623 C -1.425671 1.293169 0.000623532 0.130866 0.389184 -0.000434323 C 0.00129746 -0.128397 -1.426301 -1.294763 -1.552236 -2.071882 " transform="matrix(0.5145,-0.85747,-0.85747,-0.5145,295.57283,127.23974)"/>
<path style="fill:none;stroke-width:0.79701;stroke-linecap:butt;stroke-linejoin:miter;stroke:rgb(100%,0%,0%);stroke-opacity:1;stroke-miterlimit:10;" d="M 102.047656 0.00040625 L 118.5125 13.719156 " transform="matrix(1,0,0,-1,182.55,117.184)"/>
<path style="fill:none;stroke-width:0.6376;stroke-linecap:round;stroke-linejoin:round;stroke:rgb(100%,0%,0%);stroke-opacity:1;stroke-miterlimit:10;" d="M -1.554244 2.071352 C -1.422696 1.295594 0.000787433 0.129714 0.389918 -0.00132771 C -0.000711416 -0.128373 -1.42568 -1.295272 -1.554718 -2.072532 " transform="matrix(0.76819,-0.64015,-0.64015,-0.76819,301.0629,103.46343)"/>
<path style="fill:none;stroke-width:0.79701;stroke-linecap:butt;stroke-linejoin:miter;stroke:rgb(100%,0%,0%);stroke-opacity:1;stroke-miterlimit:10;" d="M 102.047656 28.348062 L 124.071094 37.523844 " transform="matrix(1,0,0,-1,182.55,117.184)"/>
<path style="fill:none;stroke-width:0.6376;stroke-linecap:round;stroke-linejoin:round;stroke:rgb(100%,0%,0%);stroke-opacity:1;stroke-miterlimit:10;" d="M -1.553763 2.073861 C -1.424838 1.296475 0.0022438 0.130564 0.387784 -0.000447339 C -0.000757366 -0.130569 -1.4248 -1.293516 -1.554904 -2.07301 " transform="matrix(0.92303,-0.38458,-0.38458,-0.92303,306.62236,79.66044)"/>
<path style="fill:none;stroke-width:0.79701;stroke-linecap:butt;stroke-linejoin:miter;stroke:rgb(100%,0%,0%);stroke-opacity:1;stroke-miterlimit:10;" d="M 102.047656 56.691812 L 129.696094 61.301187 " transform="matrix(1,0,0,-1,182.55,117.184)"/>
<path style="fill:none;stroke-width:0.6376;stroke-linecap:round;stroke-linejoin:round;stroke:rgb(100%,0%,0%);stroke-opacity:1;stroke-miterlimit:10;" d="M -1.552692 2.072263 C -1.424875 1.294536 0.000878455 0.130218 0.386856 -0.0014295 C 0.000883612 -0.131166 -1.424824 -1.29554 -1.554537 -2.073914 " transform="matrix(0.98634,-0.16437,-0.16437,-0.98634,312.2471,55.88249)"/>
<path style="fill:none;stroke-width:0.79701;stroke-linecap:butt;stroke-linejoin:miter;stroke:rgb(100%,0%,0%);stroke-opacity:1;stroke-miterlimit:10;" d="M 102.047656 85.039469 L 135.35625 85.039469 " transform="matrix(1,0,0,-1,182.55,117.184)"/>
<path style="fill:none;stroke-width:0.6376;stroke-linecap:round;stroke-linejoin:round;stroke:rgb(100%,0%,0%);stroke-opacity:1;stroke-miterlimit:10;" d="M -1.555398 2.073267 C -1.426491 1.295924 -0.00071 0.127955 0.389915 -0.00095125 C -0.00071 -0.129858 -1.426491 -1.29392 -1.555398 -2.071264 " transform="matrix(1,0,0,-1,317.90696,32.14358)"/>
<path style="fill:none;stroke-width:0.79701;stroke-linecap:butt;stroke-linejoin:miter;stroke:rgb(100%,0%,0%);stroke-opacity:1;stroke-miterlimit:10;" d="M 102.047656 113.387125 L 141.032031 108.7465 " transform="matrix(1,0,0,-1,182.55,117.184)"/>
<path style="fill:none;stroke-width:0.6376;stroke-linecap:round;stroke-linejoin:round;stroke:rgb(100%,0%,0%);stroke-opacity:1;stroke-miterlimit:10;" d="M -1.555648 2.072763 C -1.423583 1.293819 0.00139063 0.129826 0.386797 -0.0013249 C 0.000834339 -0.129883 -1.426191 -1.295053 -1.553835 -2.073441 " transform="matrix(0.99295,0.1182,0.1182,-0.99295,323.58093,8.43734)"/>
<path style="fill:none;stroke-width:0.79701;stroke-linecap:butt;stroke-linejoin:miter;stroke:rgb(100%,0%,0%);stroke-opacity:1;stroke-miterlimit:10;" d="M 136.063281 -113.386313 L 136.063281 -76.300375 " transform="matrix(1,0,0,-1,182.55,117.184)"/>
<path style="fill:none;stroke-width:0.6376;stroke-linecap:round;stroke-linejoin:round;stroke:rgb(100%,0%,0%);stroke-opacity:1;stroke-miterlimit:10;" d="M -1.556083 2.071361 C -1.42327 1.294017 -0.001395 0.129955 0.38923 0.00104875 C -0.001395 -0.127858 -1.42327 -1.295826 -1.556083 -2.07317 " transform="matrix(0,-1,-1,0,318.61433,193.48298)"/>
<path style="fill:none;stroke-width:0.79701;stroke-linecap:butt;stroke-linejoin:miter;stroke:rgb(100%,0%,0%);stroke-opacity:1;stroke-miterlimit:10;" d="M 136.063281 -85.038656 L 141.614063 -52.667563 " transform="matrix(1,0,0,-1,182.55,117.184)"/>
<path style="fill:none;stroke-width:0.6376;stroke-linecap:round;stroke-linejoin:round;stroke:rgb(100%,0%,0%);stroke-opacity:1;stroke-miterlimit:10;" d="M -1.553098 2.071926 C -1.423624 1.293514 0.000413206 0.130617 0.387638 -0.00117422 C 0.00162159 -0.13076 -1.423861 -1.294629 -1.555765 -2.07425 " transform="matrix(0.16895,-0.98558,-0.98558,-0.16895,324.16382,169.8506)"/>
<path style="fill:none;stroke-width:0.79701;stroke-linecap:butt;stroke-linejoin:miter;stroke:rgb(100%,0%,0%);stroke-opacity:1;stroke-miterlimit:10;" d="M 136.063281 -56.694906 L 147.141406 -29.0035 " transform="matrix(1,0,0,-1,182.55,117.184)"/>
<path style="fill:none;stroke-width:0.6376;stroke-linecap:round;stroke-linejoin:round;stroke:rgb(100%,0%,0%);stroke-opacity:1;stroke-miterlimit:10;" d="M -1.553237 2.074291 C -1.427039 1.295932 -0.000932356 0.128721 0.387879 -0.0018618 C 0.000511314 -0.127345 -1.42566 -1.295202 -1.553352 -2.069927 " transform="matrix(0.37135,-0.92845,-0.92845,-0.37135,329.69017,146.18756)"/>
<path style="fill:none;stroke-width:0.79701;stroke-linecap:butt;stroke-linejoin:miter;stroke:rgb(100%,0%,0%);stroke-opacity:1;stroke-miterlimit:10;" d="M 136.063281 -28.34725 L 152.660938 -5.300375 " transform="matrix(1,0,0,-1,182.55,117.184)"/>
<path style="fill:none;stroke-width:0.6376;stroke-linecap:round;stroke-linejoin:round;stroke:rgb(100%,0%,0%);stroke-opacity:1;stroke-miterlimit:10;" d="M -1.551676 2.071927 C -1.426142 1.295859 0.00145725 0.128703 0.388856 -0.00153208 C -0.00120781 -0.128337 -1.425021 -1.29306 -1.551963 -2.072804 " transform="matrix(0.58427,-0.8115,-0.8115,-0.58427,335.20906,122.48263)"/>
<path style="fill:none;stroke-width:0.79701;stroke-linecap:butt;stroke-linejoin:miter;stroke:rgb(100%,0%,0%);stroke-opacity:1;stroke-miterlimit:10;" d="M 136.063281 0.00040625 L 158.196094 18.445719 " transform="matrix(1,0,0,-1,182.55,117.184)"/>
<path style="fill:none;stroke-width:0.6376;stroke-linecap:round;stroke-linejoin:round;stroke:rgb(100%,0%,0%);stroke-opacity:1;stroke-miterlimit:10;" d="M -1.553861 2.074134 C -1.424813 1.295375 -0.00132991 0.129494 0.387801 -0.00154683 C 0.000172257 -0.131093 -1.422296 -1.294991 -1.554335 -2.06975 " transform="matrix(0.76819,-0.64015,-0.64015,-0.76819,340.74798,98.73925)"/>
<path style="fill:none;stroke-width:0.79701;stroke-linecap:butt;stroke-linejoin:miter;stroke:rgb(100%,0%,0%);stroke-opacity:1;stroke-miterlimit:10;" d="M 136.063281 28.348062 L 163.778125 42.203531 " transform="matrix(1,0,0,-1,182.55,117.184)"/>
<path style="fill:none;stroke-width:0.6376;stroke-linecap:round;stroke-linejoin:round;stroke:rgb(100%,0%,0%);stroke-opacity:1;stroke-miterlimit:10;" d="M -1.553407 2.073499 C -1.42237 1.296055 -0.000246598 0.130774 0.389351 0.0014945 C -0.000244254 -0.131286 -1.425841 -1.296593 -1.555117 -2.070545 " transform="matrix(0.89436,-0.44717,-0.44717,-0.89436,346.32823,74.98013)"/>
<path style="fill:none;stroke-width:0.79701;stroke-linecap:butt;stroke-linejoin:miter;stroke:rgb(100%,0%,0%);stroke-opacity:1;stroke-miterlimit:10;" d="M 136.063281 56.691812 L 169.399219 65.953531 " transform="matrix(1,0,0,-1,182.55,117.184)"/>
<path style="fill:none;stroke-width:0.6376;stroke-linecap:round;stroke-linejoin:round;stroke:rgb(100%,0%,0%);stroke-opacity:1;stroke-miterlimit:10;" d="M -1.552226 2.073608 C -1.423617 1.295938 0.000000348837 0.130177 0.389988 0.0015792 C 0.000839421 -0.129535 -1.425473 -1.29428 -1.552811 -2.073835 " transform="matrix(0.96347,-0.26762,-0.26762,-0.96347,351.9489,51.23089)"/>
<g clip-path="url(#clip8)" clip-rule="nonzero">
<path style="fill:none;stroke-width:0.79701;stroke-linecap:butt;stroke-linejoin:miter;stroke:rgb(100%,0%,0%);stroke-opacity:1;stroke-miterlimit:10;" d="M 136.063281 85.039469 L 175.047656 89.680094 " transform="matrix(1,0,0,-1,182.55,117.184)"/>
</g>
<path style="fill:none;stroke-width:0.6376;stroke-linecap:round;stroke-linejoin:round;stroke:rgb(100%,0%,0%);stroke-opacity:1;stroke-miterlimit:10;" d="M -1.554411 2.072456 C -1.422887 1.293606 0.000258835 0.128898 0.390101 -0.000122023 C 0.000815129 -0.130811 -1.424159 -1.294804 -1.556223 -2.073748 " transform="matrix(0.99295,-0.1182,-0.1182,-0.99295,357.59701,27.50302)"/>
<path style="fill:none;stroke-width:0.79701;stroke-linecap:butt;stroke-linejoin:miter;stroke:rgb(100%,0%,0%);stroke-opacity:1;stroke-miterlimit:10;" d="M 136.063281 113.387125 L 180.711719 113.387125 " transform="matrix(1,0,0,-1,182.55,117.184)"/>
<path style="fill:none;stroke-width:0.6376;stroke-linecap:round;stroke-linejoin:round;stroke:rgb(100%,0%,0%);stroke-opacity:1;stroke-miterlimit:10;" d="M -1.554529 2.074104 C -1.425622 1.29676 0.00015875 0.128791 0.386878 -0.000115 C 0.00015875 -0.129021 -1.425622 -1.29699 -1.554529 -2.070428 " transform="matrix(1,0,0,-1,363.26156,3.79676)"/>
<path style="fill:none;stroke-width:0.3985;stroke-linecap:butt;stroke-linejoin:miter;stroke:rgb(0%,0%,0%);stroke-opacity:1;stroke-dasharray:0.3985,1.99255;stroke-miterlimit:10;" d="M -136.065625 -113.386313 L 136.063281 -113.386313 M -136.065625 -85.038656 L 136.063281 -85.038656 M -136.065625 -56.694906 L 136.063281 -56.694906 M -136.065625 -28.34725 L 136.063281 -28.34725 M -136.065625 0.00040625 L 136.063281 0.00040625 M -136.065625 28.348062 L 136.063281 28.348062 M -136.065625 56.691812 L 136.063281 56.691812 M -136.065625 85.039469 L 136.063281 85.039469 M -136.065625 113.375406 L 136.063281 113.375406 M -136.065625 -113.386313 L -136.065625 113.387125 M -102.05 -113.386313 L -102.05 113.387125 M -68.030469 -113.386313 L -68.030469 113.387125 M -34.014844 -113.386313 L -34.014844 113.387125 M 0.00078125 -113.386313 L 0.00078125 113.387125 M 34.016406 -113.386313 L 34.016406 113.387125 M 68.032031 -113.386313 L 68.032031 113.387125 M 102.047656 -113.386313 L 102.047656 113.387125 M 136.051563 -113.386313 L 136.051563 113.387125 " transform="matrix(1,0,0,-1,182.55,117.184)"/>
</g>
</svg>
