<?xml version="1.0" encoding="UTF-8"?>
<svg xmlns="http://www.w3.org/2000/svg" xmlns:xlink="http://www.w3.org/1999/xlink" width="144.56pt" height="48.56pt" viewBox="0 0 144.56 48.56" version="1.1">
<g id="surface1">
<path style="fill:none;stroke-width:0.3985;stroke-linecap:butt;stroke-linejoin:miter;stroke:rgb(0%,0%,0%);stroke-opacity:1;stroke-miterlimit:10;" d="M 0.0000625 0.001125 C 0.832094 5.528469 3.878969 9.962062 7.472719 9.962062 C 11.066469 9.962062 14.113344 5.528469 14.945375 0.001125 C 15.7735 -5.530125 14.386781 -9.963719 12.453188 -9.963719 C 10.519594 -9.963719 9.132875 -5.530125 9.961 0.001125 C 10.793031 5.528469 13.839906 9.962062 17.433656 9.962062 C 21.031313 9.962062 24.078188 5.528469 24.906313 0.001125 C 25.738344 -5.530125 24.351625 -9.963719 22.414125 -9.963719 C 20.480531 -9.963719 19.093813 -5.530125 19.925844 0.001125 C 20.753969 5.528469 23.800844 9.962062 27.3985 9.962062 C 30.99225 9.962062 34.039125 5.528469 34.871156 0.001125 C 35.699281 -5.530125 34.312563 -9.963719 32.378969 -9.963719 C 30.445375 -9.963719 29.058656 -5.530125 29.886781 0.001125 C 30.718813 5.528469 33.765688 9.962062 37.359438 9.962062 C 40.953188 9.962062 44.000063 5.528469 44.832094 0.001125 C 45.664125 -5.530125 44.277406 -9.963719 42.339906 -9.963719 C 40.406313 -9.963719 39.019594 -5.530125 39.851625 0.001125 C 40.67975 5.528469 43.726625 9.962062 47.324281 9.962062 C 50.918031 9.962062 53.964906 5.528469 54.793031 0.001125 C 55.625063 -5.530125 54.238344 -9.963719 52.30475 -9.963719 C 50.371156 -9.963719 48.984438 -5.530125 49.812563 0.001125 C 50.644594 5.528469 53.691469 9.962062 57.285219 9.962062 C 60.878969 9.962062 63.925844 5.528469 64.757875 0.001125 C 65.586 -5.530125 64.203188 -9.963719 62.265688 -9.963719 C 60.332094 -9.963719 58.945375 -5.530125 59.777406 0.001125 C 60.605531 5.528469 63.652406 9.962062 67.250063 9.962062 C 70.843813 9.962062 73.890688 5.528469 74.718813 0.001125 C 75.550844 -5.530125 74.164125 -9.963719 72.230531 -9.963719 C 70.296938 -9.963719 68.910219 -5.530125 69.738344 0.001125 C 70.570375 5.528469 73.61725 9.962062 77.211 9.962062 C 80.80475 9.962062 83.851625 5.528469 84.683656 0.001125 L 85.039125 0.001125 " transform="matrix(1,0,0,-1,1.414,15.173)"/>
<path style="fill:none;stroke-width:0.3985;stroke-linecap:butt;stroke-linejoin:miter;stroke:rgb(0%,0%,0%);stroke-opacity:1;stroke-miterlimit:10;" d="M 85.039125 0.001125 L 99.214906 0.001125 " transform="matrix(1,0,0,-1,1.414,15.173)"/>
<path style=" stroke:none;fill-rule:nonzero;fill:rgb(0%,0%,0%);fill-opacity:1;" d="M 128.976562 15.171875 C 128.976562 7.34375 122.628906 1 114.800781 1 C 106.972656 1 100.628906 7.34375 100.628906 15.171875 C 100.628906 23 106.972656 29.347656 114.800781 29.347656 C 122.628906 29.347656 128.976562 23 128.976562 15.171875 Z M 128.976562 15.171875 "/>
<path style="fill:none;stroke-width:1.59404;stroke-linecap:butt;stroke-linejoin:miter;stroke:rgb(0%,0%,0%);stroke-opacity:1;stroke-miterlimit:10;" d="M 85.039125 -28.346531 L 140.527406 -28.346531 " transform="matrix(1,0,0,-1,1.414,15.173)"/>
<path style="fill:none;stroke-width:1.27522;stroke-linecap:round;stroke-linejoin:round;stroke:rgb(0%,0%,0%);stroke-opacity:1;stroke-miterlimit:10;" d="M -2.270655 3.027612 C -2.083155 1.8948 -0.00112375 0.187769 0.569189 0.00026875 C -0.00112375 -0.191138 -2.083155 -1.894263 -2.270655 -3.027075 " transform="matrix(1,0,0,-1,141.94253,43.5198)"/>
</g>
</svg>
