<?xml version="1.0" encoding="UTF-8"?>
<svg xmlns="http://www.w3.org/2000/svg" xmlns:xlink="http://www.w3.org/1999/xlink" width="181.52pt" height="97.04pt" viewBox="0 0 181.52 97.04" version="1.1">
<defs>
<clipPath id="clip1">
  <path d="M 0 0 L 181.519531 0 L 181.519531 97.039062 L 0 97.039062 Z M 0 0 "/>
</clipPath>
</defs>
<g id="surface1">
<g clip-path="url(#clip1)" clip-rule="nonzero">
<path style="fill:none;stroke-width:0.79701;stroke-linecap:butt;stroke-linejoin:miter;stroke:rgb(0%,0%,100%);stroke-opacity:1;stroke-miterlimit:10;" d="M -0.0005 -0.0005625 L 1.796375 -0.05525 L 3.597156 -0.227125 L 5.394031 -0.508375 L 7.190906 -0.902906 L 8.991687 -1.402906 L 10.788562 -2.004469 L 12.585437 -2.703688 L 14.386219 -3.496656 L 16.183094 -4.371656 L 17.979969 -5.328688 L 19.776844 -6.352125 L 21.577625 -7.441969 L 23.3745 -8.582594 L 25.171375 -9.766188 L 26.972156 -10.981031 L 28.769031 -12.219313 L 30.565906 -13.465406 L 32.366687 -14.715406 L 34.163562 -15.949781 L 35.960437 -17.164625 L 37.757312 -18.344313 L 39.558094 -19.473219 L 41.354969 -20.547438 L 43.151844 -21.551344 L 44.952625 -22.473219 L 46.7495 -23.301344 L 48.546375 -24.027906 L 50.347156 -24.645094 L 52.144031 -25.133375 L 53.940906 -25.496656 L 55.741687 -25.715406 L 57.538562 -25.789625 L 59.335437 -25.7115 L 61.132312 -25.469313 L 62.933094 -25.063063 L 64.729969 -24.484938 L 66.526844 -23.734938 L 68.327625 -22.813063 L 70.1245 -21.7115 L 71.921375 -20.434156 L 73.722156 -18.981031 L 75.519031 -17.352125 L 77.315906 -15.551344 L 79.112781 -13.5865 L 80.913562 -11.457594 L 82.710437 -9.176344 L 84.507312 -6.746656 L 86.308094 -4.176344 L 88.104969 -1.473219 L 89.901844 1.347094 L 91.702625 4.272875 L 93.4995 7.300219 L 95.296375 10.409594 L 97.097156 13.585375 L 98.894031 16.81975 L 100.690906 20.089281 L 102.487781 23.386156 L 104.288562 26.690844 L 106.085437 29.983812 L 107.882312 33.253344 L 109.683094 36.476 L 111.479969 39.636156 L 113.276844 42.718187 L 115.077625 45.706469 L 116.8745 48.573656 L 118.671375 51.315844 L 120.46825 53.901781 L 122.269031 56.327562 L 124.065906 58.56975 L 125.862781 60.612719 L 127.663562 62.44475 L 129.460438 64.046312 L 131.257313 65.405687 L 133.058094 66.515062 L 134.854969 67.354906 L 136.651844 67.921312 L 138.448719 68.202562 L 140.2495 68.190844 L 142.046375 67.878344 L 143.84325 67.25725 L 145.644031 66.323656 L 147.440906 65.081469 L 149.237781 63.518969 L 151.038563 61.643969 L 152.835438 59.456469 L 154.632313 56.952562 L 156.433094 54.147875 L 158.229969 51.042406 L 160.026844 47.640062 L 161.823719 43.960375 L 163.6245 40.00725 L 165.421375 35.792406 L 167.21825 31.331469 L 169.019031 26.636156 L 170.815906 21.729906 L 172.612781 16.620531 L 174.413563 11.339281 L 176.210438 5.893969 L 178.007313 0.311937 " transform="matrix(1,0,0,-1,1.813,69.601)"/>
</g>
<path style="fill:none;stroke-width:1.19553;stroke-linecap:butt;stroke-linejoin:miter;stroke:rgb(100%,0%,0%);stroke-opacity:1;stroke-miterlimit:10;" d="M -0.0005 -0.0005625 L -0.0005 28.347094 L 178.019031 28.347094 L 178.019031 -0.0005625 Z M -0.0005 -0.0005625 " transform="matrix(1,0,0,-1,1.813,69.601)"/>
</g>
</svg>
