<?xml version="1.0" encoding="UTF-8"?>
<svg xmlns="http://www.w3.org/2000/svg" xmlns:xlink="http://www.w3.org/1999/xlink" width="342.8pt" height="129.68pt" viewBox="0 0 342.8 129.68" version="1.1">
<defs>
<clipPath id="clip1">
  <path d="M 0 0 L 342.800781 0 L 342.800781 129.679688 L 0 129.679688 Z M 0 0 "/>
</clipPath>
</defs>
<g id="surface1">
<g clip-path="url(#clip1)" clip-rule="nonzero">
<path style="fill:none;stroke-width:0.3985;stroke-linecap:butt;stroke-linejoin:miter;stroke:rgb(0%,0%,0%);stroke-opacity:1;stroke-miterlimit:10;" d="M -170.078937 50.028469 L -166.645344 56.817531 L -163.207844 61.426906 L -159.77425 63.51675 L -156.33675 62.883937 L -152.903156 59.465969 L -149.465656 53.352687 L -146.032062 44.778469 L -142.594562 34.118312 L -139.160969 21.848781 L -135.723469 8.544094 L -132.289875 -5.162938 L -128.852375 -18.627781 L -125.418781 -31.209813 L -121.981281 -42.319188 L -118.547687 -51.448094 L -115.110187 -58.194188 L -111.676594 -62.291844 L -108.239094 -63.616063 L -104.801594 -62.186375 L -101.368 -58.178563 L -97.9305 -51.893406 L -94.496906 -43.752781 L -91.059406 -34.272313 L -87.625812 -24.030125 L -84.188312 -13.619969 L -80.754719 -3.6395 L -77.317219 5.368312 L -73.883625 12.923 L -70.446125 18.657375 L -67.012531 22.313625 L -63.575031 23.786281 L -60.141437 23.087062 L -56.703937 20.39175 L -53.270344 15.989406 L -49.832844 10.270656 L -46.39925 3.727687 L -42.96175 -3.119969 L -39.52425 -9.717625 L -36.090656 -15.526219 L -32.653156 -20.065281 L -29.219562 -22.924656 L -25.782062 -23.807469 L -22.348469 -22.534031 L -18.910969 -19.065281 L -15.477375 -13.510594 L -12.039875 -6.104344 L -8.606281 2.790187 L -5.168781 12.708156 L -1.735187 23.102687 L 1.702313 33.383937 L 5.135906 42.95425 L 8.573406 51.2355 L 12.007 57.70425 L 15.4445 61.930812 L 18.878094 63.598781 L 22.315594 62.524562 L 25.749188 58.669094 L 29.186688 52.149562 L 32.624188 43.215969 L 36.057781 32.262844 L 39.495281 19.790187 L 42.928875 6.380031 L 46.366375 -7.334813 L 49.799969 -20.698094 L 53.237469 -33.084813 L 56.671063 -43.912938 L 60.108563 -52.686375 L 63.542156 -59.026219 L 66.979656 -62.690281 L 70.41325 -63.569188 L 73.85075 -61.717625 L 77.284344 -57.319188 L 80.721844 -50.709813 L 84.155438 -42.323094 L 87.592938 -32.682469 L 91.026531 -22.373875 L 94.464031 -11.994969 L 97.901531 -2.131688 L 101.335125 6.673 L 104.772625 13.962062 L 108.206219 19.380031 L 111.643719 22.696437 L 115.077313 23.813625 L 118.514813 22.786281 L 121.948406 19.798 L 125.385906 15.157375 L 128.8195 9.274562 L 132.257 2.645656 L 135.690594 -4.198094 L 139.128094 -10.705906 L 142.561688 -16.346531 L 145.999188 -20.6395 L 149.432781 -23.205906 L 152.870281 -23.752781 L 156.303875 -22.127781 L 159.741375 -18.319188 L 163.178875 -12.452 L 166.612469 -4.780125 L 170.049969 4.309719 " transform="matrix(1,0,0,-1,171.493,64.798)"/>
</g>
</g>
</svg>
