<?xml version="1.0" encoding="UTF-8"?>
<svg xmlns="http://www.w3.org/2000/svg" xmlns:xlink="http://www.w3.org/1999/xlink" width="116.24pt" height="75.92pt" viewBox="0 0 116.24 75.92" version="1.1">
<defs>
<clipPath id="clip1">
  <path d="M 0 0 L 116.238281 0 L 116.238281 75.921875 L 0 75.921875 Z M 0 0 "/>
</clipPath>
</defs>
<g id="surface1">
<g clip-path="url(#clip1)" clip-rule="nonzero">
<path style="fill:none;stroke-width:0.79701;stroke-linecap:butt;stroke-linejoin:miter;stroke:rgb(100%,0%,0%);stroke-opacity:1;stroke-miterlimit:10;" d="M 56.692281 -80.284438 L 61.418844 -93.233656 L 66.1415 -105.300063 L 70.868063 -116.284438 L 75.590719 -126.007094 L 80.313375 -134.331313 L 85.039938 -141.163344 L 89.762594 -146.436781 L 94.48525 -150.139906 L 99.211813 -152.300063 L 103.934469 -152.991469 L 108.661031 -152.3235 L 113.383688 -150.444594 L 118.106344 -147.538344 L 122.832906 -143.815688 L 127.555563 -139.514906 L 132.282125 -134.878188 L 137.004781 -130.175063 L 141.727438 -125.659438 L 146.454 -121.585219 L 151.176656 -118.202406 L 155.903219 -115.733656 L 160.625875 -114.378188 L 165.348531 -114.303969 L 170.075094 -115.643813 " transform="matrix(1,0,0,-1,-55.079,-78.886)"/>
</g>
<path style=" stroke:none;fill-rule:nonzero;fill:rgb(0%,0%,0%);fill-opacity:1;" d="M 36.765625 66.816406 C 36.765625 65.25 35.496094 63.980469 33.929688 63.980469 C 32.363281 63.980469 31.09375 65.25 31.09375 66.816406 C 31.09375 68.382812 32.363281 69.652344 33.929688 69.652344 C 35.496094 69.652344 36.765625 68.382812 36.765625 66.816406 Z M 36.765625 66.816406 "/>
</g>
</svg>
