<?xml version="1.0" encoding="UTF-8"?>
<svg xmlns="http://www.w3.org/2000/svg" xmlns:xlink="http://www.w3.org/1999/xlink" width="149.84pt" height="193.52pt" viewBox="0 0 149.84 193.52" version="1.1">
<defs>
<clipPath id="clip1">
  <path d="M 75 0 L 149.839844 0 L 149.839844 155 L 75 155 Z M 75 0 "/>
</clipPath>
<clipPath id="clip2">
  <path d="M 97 31 L 149.839844 31 L 149.839844 99 L 97 99 Z M 97 31 "/>
</clipPath>
<clipPath id="clip3">
  <path d="M 90 53 L 149.839844 53 L 149.839844 115 L 90 115 Z M 90 53 "/>
</clipPath>
<clipPath id="clip4">
  <path d="M 0 39 L 149.839844 39 L 149.839844 193.519531 L 0 193.519531 Z M 0 39 "/>
</clipPath>
</defs>
<g id="surface1">
<g clip-path="url(#clip1)" clip-rule="nonzero">
<path style="fill:none;stroke-width:0.79701;stroke-linecap:butt;stroke-linejoin:miter;stroke:rgb(0%,0%,0%);stroke-opacity:1;stroke-miterlimit:10;" d="M -0.0016875 -0.00190625 L 5.861594 5.904344 L 11.470969 11.810594 L 16.58425 17.716844 L 20.978781 23.623094 L 24.467063 29.525437 L 26.900656 35.431687 L 28.166281 41.337937 L 28.213156 47.244187 L 27.045188 53.150437 L 24.705344 59.052781 L 21.295188 64.959031 L 16.967063 70.865281 L 11.900656 76.771531 L 6.322531 82.677781 L 0.470969 88.580125 L -5.400125 94.486375 L -11.036844 100.392625 L -16.200906 106.298875 L -20.657937 112.205125 L -24.22825 118.107469 L -26.747781 124.013719 L -28.111062 129.919969 L -28.255594 135.826219 L -27.181375 141.732469 " transform="matrix(1,0,0,-1,115.197,143.127)"/>
</g>
<path style=" stroke:none;fill-rule:nonzero;fill:rgb(0%,0%,0%);fill-opacity:1;" d="M 138.074219 76.230469 C 138.074219 74.664062 136.804688 73.394531 135.238281 73.394531 C 133.671875 73.394531 132.402344 74.664062 132.402344 76.230469 C 132.402344 77.792969 133.671875 79.0625 135.238281 79.0625 C 136.804688 79.0625 138.074219 77.792969 138.074219 76.230469 Z M 138.074219 76.230469 "/>
<g clip-path="url(#clip2)" clip-rule="nonzero">
<path style="fill:none;stroke-width:1.59404;stroke-linecap:butt;stroke-linejoin:miter;stroke:rgb(100%,0%,0%);stroke-opacity:1;stroke-miterlimit:10;" d="M 20.127219 66.896531 L 4.658469 89.154344 " transform="matrix(1,0,0,-1,115.197,143.127)"/>
</g>
<path style="fill:none;stroke-width:1.27522;stroke-linecap:round;stroke-linejoin:round;stroke:rgb(100%,0%,0%);stroke-opacity:1;stroke-miterlimit:10;" d="M -2.270753 3.027248 C -2.083677 1.893355 -0.000485213 0.188315 0.566906 -0.00153109 C -0.000218547 -0.187718 -2.081558 -1.895143 -2.270516 -3.029303 " transform="matrix(-0.57076,-0.82106,-0.82106,0.57076,119.85356,53.97415)"/>
<g clip-path="url(#clip3)" clip-rule="nonzero">
<path style="fill:none;stroke-width:1.59404;stroke-linecap:butt;stroke-linejoin:miter;stroke:rgb(100%,0%,0%);stroke-opacity:1;stroke-miterlimit:10;" d="M 20.127219 66.896531 L -2.1345 51.154344 " transform="matrix(1,0,0,-1,115.197,143.127)"/>
</g>
<path style="fill:none;stroke-width:1.27522;stroke-linecap:round;stroke-linejoin:round;stroke:rgb(100%,0%,0%);stroke-opacity:1;stroke-miterlimit:10;" d="M -2.273951 3.028231 C -2.08203 1.892455 0.000764775 0.189636 0.568852 -0.00163556 C 0.00115974 -0.188646 -2.080336 -1.893554 -2.269887 -3.02747 " transform="matrix(-0.81638,0.57742,0.57742,0.81638,113.063,91.97365)"/>
<g clip-path="url(#clip4)" clip-rule="nonzero">
<path style="fill:none;stroke-width:0.3985;stroke-linecap:butt;stroke-linejoin:miter;stroke:rgb(0%,0%,0%);stroke-opacity:1;stroke-dasharray:2.98883,2.98883;stroke-miterlimit:10;" d="M 33.619406 24.377 C 33.619406 65.084031 0.623313 98.080125 -40.083719 98.080125 C -80.786844 98.080125 -113.782937 65.084031 -113.782937 24.377 C -113.782937 -16.326125 -80.786844 -49.322219 -40.083719 -49.322219 C 0.623313 -49.322219 33.619406 -16.326125 33.619406 24.377 Z M 33.619406 24.377 " transform="matrix(1,0,0,-1,115.197,143.127)"/>
</g>
</g>
</svg>
