<?xml version="1.0" encoding="UTF-8"?>
<svg xmlns="http://www.w3.org/2000/svg" xmlns:xlink="http://www.w3.org/1999/xlink" width="110.96pt" height="67.28pt" viewBox="0 0 110.96 67.28" version="1.1">
<defs>
<clipPath id="clip1">
  <path d="M 12 0 L 110.960938 0 L 110.960938 67.28125 L 12 67.28125 Z M 12 0 "/>
</clipPath>
<clipPath id="clip2">
  <path d="M 24.09375 65.386719 L 24.980469 65.386719 L 24.980469 65.652344 L 24.09375 65.652344 Z M 24.09375 65.386719 "/>
</clipPath>
<clipPath id="clip3">
  <path d="M 24.09375 65.386719 L 27.96875 65.386719 L 27.96875 65.652344 L 24.09375 65.652344 Z M 24.09375 65.386719 "/>
</clipPath>
<clipPath id="clip4">
  <path d="M 25.976562 65.386719 L 30.957031 65.386719 L 30.957031 65.652344 L 25.976562 65.652344 Z M 25.976562 65.386719 "/>
</clipPath>
<clipPath id="clip5">
  <path d="M 28.964844 65.386719 L 33.945312 65.386719 L 33.945312 65.652344 L 28.964844 65.652344 Z M 28.964844 65.386719 "/>
</clipPath>
<clipPath id="clip6">
  <path d="M 31.953125 65.386719 L 36.933594 65.386719 L 36.933594 65.652344 L 31.953125 65.652344 Z M 31.953125 65.386719 "/>
</clipPath>
<clipPath id="clip7">
  <path d="M 34.941406 65.386719 L 39.925781 65.386719 L 39.925781 65.652344 L 34.941406 65.652344 Z M 34.941406 65.386719 "/>
</clipPath>
<clipPath id="clip8">
  <path d="M 37.933594 65.386719 L 42.914062 65.386719 L 42.914062 65.652344 L 37.933594 65.652344 Z M 37.933594 65.386719 "/>
</clipPath>
<clipPath id="clip9">
  <path d="M 40.921875 65.386719 L 45.902344 65.386719 L 45.902344 65.652344 L 40.921875 65.652344 Z M 40.921875 65.386719 "/>
</clipPath>
<clipPath id="clip10">
  <path d="M 43.910156 65.386719 L 48.890625 65.386719 L 48.890625 65.652344 L 43.910156 65.652344 Z M 43.910156 65.386719 "/>
</clipPath>
<clipPath id="clip11">
  <path d="M 46.898438 65.386719 L 51.878906 65.386719 L 51.878906 65.652344 L 46.898438 65.652344 Z M 46.898438 65.386719 "/>
</clipPath>
<clipPath id="clip12">
  <path d="M 49.886719 65.386719 L 54.867188 65.386719 L 54.867188 65.652344 L 49.886719 65.652344 Z M 49.886719 65.386719 "/>
</clipPath>
<clipPath id="clip13">
  <path d="M 52.875 65.386719 L 57.855469 65.386719 L 57.855469 65.652344 L 52.875 65.652344 Z M 52.875 65.386719 "/>
</clipPath>
<clipPath id="clip14">
  <path d="M 55.863281 65.386719 L 60.847656 65.386719 L 60.847656 65.652344 L 55.863281 65.652344 Z M 55.863281 65.386719 "/>
</clipPath>
<clipPath id="clip15">
  <path d="M 58.855469 65.386719 L 63.835938 65.386719 L 63.835938 65.652344 L 58.855469 65.652344 Z M 58.855469 65.386719 "/>
</clipPath>
<clipPath id="clip16">
  <path d="M 61.84375 65.386719 L 66.824219 65.386719 L 66.824219 65.652344 L 61.84375 65.652344 Z M 61.84375 65.386719 "/>
</clipPath>
<clipPath id="clip17">
  <path d="M 64.832031 65.386719 L 69.8125 65.386719 L 69.8125 65.652344 L 64.832031 65.652344 Z M 64.832031 65.386719 "/>
</clipPath>
<clipPath id="clip18">
  <path d="M 67.820312 65.386719 L 72.800781 65.386719 L 72.800781 65.652344 L 67.820312 65.652344 Z M 67.820312 65.386719 "/>
</clipPath>
<clipPath id="clip19">
  <path d="M 70.808594 65.386719 L 75.789062 65.386719 L 75.789062 65.652344 L 70.808594 65.652344 Z M 70.808594 65.386719 "/>
</clipPath>
<clipPath id="clip20">
  <path d="M 73.796875 65.386719 L 78.777344 65.386719 L 78.777344 65.652344 L 73.796875 65.652344 Z M 73.796875 65.386719 "/>
</clipPath>
<clipPath id="clip21">
  <path d="M 76.785156 65.386719 L 81.769531 65.386719 L 81.769531 65.652344 L 76.785156 65.652344 Z M 76.785156 65.386719 "/>
</clipPath>
<clipPath id="clip22">
  <path d="M 79.773438 65.386719 L 84.757812 65.386719 L 84.757812 65.652344 L 79.773438 65.652344 Z M 79.773438 65.386719 "/>
</clipPath>
<clipPath id="clip23">
  <path d="M 82.765625 65.386719 L 87.746094 65.386719 L 87.746094 65.652344 L 82.765625 65.652344 Z M 82.765625 65.386719 "/>
</clipPath>
<clipPath id="clip24">
  <path d="M 85.753906 65.386719 L 90.734375 65.386719 L 90.734375 65.652344 L 85.753906 65.652344 Z M 85.753906 65.386719 "/>
</clipPath>
<clipPath id="clip25">
  <path d="M 88.742188 65.386719 L 93.722656 65.386719 L 93.722656 65.652344 L 88.742188 65.652344 Z M 88.742188 65.386719 "/>
</clipPath>
<clipPath id="clip26">
  <path d="M 91.730469 65.386719 L 96.710938 65.386719 L 96.710938 65.652344 L 91.730469 65.652344 Z M 91.730469 65.386719 "/>
</clipPath>
<clipPath id="clip27">
  <path d="M 94.71875 65.386719 L 99.699219 65.386719 L 99.699219 65.652344 L 94.71875 65.652344 Z M 94.71875 65.386719 "/>
</clipPath>
<clipPath id="clip28">
  <path d="M 97.707031 65.386719 L 102.691406 65.386719 L 102.691406 65.652344 L 97.707031 65.652344 Z M 97.707031 65.386719 "/>
</clipPath>
<clipPath id="clip29">
  <path d="M 100.695312 65.386719 L 105.679688 65.386719 L 105.679688 65.652344 L 100.695312 65.652344 Z M 100.695312 65.386719 "/>
</clipPath>
<clipPath id="clip30">
  <path d="M 103.6875 65.386719 L 108.667969 65.386719 L 108.667969 65.652344 L 103.6875 65.652344 Z M 103.6875 65.386719 "/>
</clipPath>
<clipPath id="clip31">
  <path d="M 106.675781 65.386719 L 109.132812 65.386719 L 109.132812 65.652344 L 106.675781 65.652344 Z M 106.675781 65.386719 "/>
</clipPath>
<clipPath id="clip32">
  <path d="M 24.09375 62.398438 L 24.980469 62.398438 L 24.980469 65.652344 L 24.09375 65.652344 Z M 24.09375 62.398438 "/>
</clipPath>
<clipPath id="clip33">
  <path d="M 24.09375 62.398438 L 27.96875 62.398438 L 27.96875 65.652344 L 24.09375 65.652344 Z M 24.09375 62.398438 "/>
</clipPath>
<clipPath id="clip34">
  <path d="M 25.976562 62.398438 L 30.957031 62.398438 L 30.957031 65.652344 L 25.976562 65.652344 Z M 25.976562 62.398438 "/>
</clipPath>
<clipPath id="clip35">
  <path d="M 28.964844 62.398438 L 33.945312 62.398438 L 33.945312 65.652344 L 28.964844 65.652344 Z M 28.964844 62.398438 "/>
</clipPath>
<clipPath id="clip36">
  <path d="M 31.953125 62.398438 L 36.933594 62.398438 L 36.933594 65.652344 L 31.953125 65.652344 Z M 31.953125 62.398438 "/>
</clipPath>
<clipPath id="clip37">
  <path d="M 34.941406 62.398438 L 39.925781 62.398438 L 39.925781 65.652344 L 34.941406 65.652344 Z M 34.941406 62.398438 "/>
</clipPath>
<clipPath id="clip38">
  <path d="M 37.933594 62.398438 L 42.914062 62.398438 L 42.914062 65.652344 L 37.933594 65.652344 Z M 37.933594 62.398438 "/>
</clipPath>
<clipPath id="clip39">
  <path d="M 40.921875 62.398438 L 45.902344 62.398438 L 45.902344 65.652344 L 40.921875 65.652344 Z M 40.921875 62.398438 "/>
</clipPath>
<clipPath id="clip40">
  <path d="M 43.910156 62.398438 L 48.890625 62.398438 L 48.890625 65.652344 L 43.910156 65.652344 Z M 43.910156 62.398438 "/>
</clipPath>
<clipPath id="clip41">
  <path d="M 46.898438 62.398438 L 51.878906 62.398438 L 51.878906 65.652344 L 46.898438 65.652344 Z M 46.898438 62.398438 "/>
</clipPath>
<clipPath id="clip42">
  <path d="M 49.886719 62.398438 L 54.867188 62.398438 L 54.867188 65.652344 L 49.886719 65.652344 Z M 49.886719 62.398438 "/>
</clipPath>
<clipPath id="clip43">
  <path d="M 52.875 62.398438 L 57.855469 62.398438 L 57.855469 65.652344 L 52.875 65.652344 Z M 52.875 62.398438 "/>
</clipPath>
<clipPath id="clip44">
  <path d="M 55.863281 62.398438 L 60.847656 62.398438 L 60.847656 65.652344 L 55.863281 65.652344 Z M 55.863281 62.398438 "/>
</clipPath>
<clipPath id="clip45">
  <path d="M 58.855469 62.398438 L 63.835938 62.398438 L 63.835938 65.652344 L 58.855469 65.652344 Z M 58.855469 62.398438 "/>
</clipPath>
<clipPath id="clip46">
  <path d="M 61.84375 62.398438 L 66.824219 62.398438 L 66.824219 65.652344 L 61.84375 65.652344 Z M 61.84375 62.398438 "/>
</clipPath>
<clipPath id="clip47">
  <path d="M 64.832031 62.398438 L 69.8125 62.398438 L 69.8125 65.652344 L 64.832031 65.652344 Z M 64.832031 62.398438 "/>
</clipPath>
<clipPath id="clip48">
  <path d="M 67.820312 62.398438 L 72.800781 62.398438 L 72.800781 65.652344 L 67.820312 65.652344 Z M 67.820312 62.398438 "/>
</clipPath>
<clipPath id="clip49">
  <path d="M 70.808594 62.398438 L 75.789062 62.398438 L 75.789062 65.652344 L 70.808594 65.652344 Z M 70.808594 62.398438 "/>
</clipPath>
<clipPath id="clip50">
  <path d="M 73.796875 62.398438 L 78.777344 62.398438 L 78.777344 65.652344 L 73.796875 65.652344 Z M 73.796875 62.398438 "/>
</clipPath>
<clipPath id="clip51">
  <path d="M 76.785156 62.398438 L 81.769531 62.398438 L 81.769531 65.652344 L 76.785156 65.652344 Z M 76.785156 62.398438 "/>
</clipPath>
<clipPath id="clip52">
  <path d="M 79.773438 62.398438 L 84.757812 62.398438 L 84.757812 65.652344 L 79.773438 65.652344 Z M 79.773438 62.398438 "/>
</clipPath>
<clipPath id="clip53">
  <path d="M 82.765625 62.398438 L 87.746094 62.398438 L 87.746094 65.652344 L 82.765625 65.652344 Z M 82.765625 62.398438 "/>
</clipPath>
<clipPath id="clip54">
  <path d="M 85.753906 62.398438 L 90.734375 62.398438 L 90.734375 65.652344 L 85.753906 65.652344 Z M 85.753906 62.398438 "/>
</clipPath>
<clipPath id="clip55">
  <path d="M 88.742188 62.398438 L 93.722656 62.398438 L 93.722656 65.652344 L 88.742188 65.652344 Z M 88.742188 62.398438 "/>
</clipPath>
<clipPath id="clip56">
  <path d="M 91.730469 62.398438 L 96.710938 62.398438 L 96.710938 65.652344 L 91.730469 65.652344 Z M 91.730469 62.398438 "/>
</clipPath>
<clipPath id="clip57">
  <path d="M 94.71875 62.398438 L 99.699219 62.398438 L 99.699219 65.652344 L 94.71875 65.652344 Z M 94.71875 62.398438 "/>
</clipPath>
<clipPath id="clip58">
  <path d="M 97.707031 62.398438 L 102.691406 62.398438 L 102.691406 65.652344 L 97.707031 65.652344 Z M 97.707031 62.398438 "/>
</clipPath>
<clipPath id="clip59">
  <path d="M 100.695312 62.398438 L 105.679688 62.398438 L 105.679688 65.652344 L 100.695312 65.652344 Z M 100.695312 62.398438 "/>
</clipPath>
<clipPath id="clip60">
  <path d="M 103.6875 62.398438 L 108.667969 62.398438 L 108.667969 65.652344 L 103.6875 65.652344 Z M 103.6875 62.398438 "/>
</clipPath>
<clipPath id="clip61">
  <path d="M 106.675781 62.398438 L 109.132812 62.398438 L 109.132812 65.652344 L 106.675781 65.652344 Z M 106.675781 62.398438 "/>
</clipPath>
<clipPath id="clip62">
  <path d="M 24.09375 59.40625 L 24.980469 59.40625 L 24.980469 64.390625 L 24.09375 64.390625 Z M 24.09375 59.40625 "/>
</clipPath>
<clipPath id="clip63">
  <path d="M 24.09375 59.40625 L 27.96875 59.40625 L 27.96875 64.390625 L 24.09375 64.390625 Z M 24.09375 59.40625 "/>
</clipPath>
<clipPath id="clip64">
  <path d="M 25.976562 59.40625 L 30.957031 59.40625 L 30.957031 64.390625 L 25.976562 64.390625 Z M 25.976562 59.40625 "/>
</clipPath>
<clipPath id="clip65">
  <path d="M 28.964844 59.40625 L 33.945312 59.40625 L 33.945312 64.390625 L 28.964844 64.390625 Z M 28.964844 59.40625 "/>
</clipPath>
<clipPath id="clip66">
  <path d="M 31.953125 59.40625 L 36.933594 59.40625 L 36.933594 64.390625 L 31.953125 64.390625 Z M 31.953125 59.40625 "/>
</clipPath>
<clipPath id="clip67">
  <path d="M 34.941406 59.40625 L 39.925781 59.40625 L 39.925781 64.390625 L 34.941406 64.390625 Z M 34.941406 59.40625 "/>
</clipPath>
<clipPath id="clip68">
  <path d="M 37.933594 59.40625 L 42.914062 59.40625 L 42.914062 64.390625 L 37.933594 64.390625 Z M 37.933594 59.40625 "/>
</clipPath>
<clipPath id="clip69">
  <path d="M 40.921875 59.40625 L 45.902344 59.40625 L 45.902344 64.390625 L 40.921875 64.390625 Z M 40.921875 59.40625 "/>
</clipPath>
<clipPath id="clip70">
  <path d="M 43.910156 59.40625 L 48.890625 59.40625 L 48.890625 64.390625 L 43.910156 64.390625 Z M 43.910156 59.40625 "/>
</clipPath>
<clipPath id="clip71">
  <path d="M 46.898438 59.40625 L 51.878906 59.40625 L 51.878906 64.390625 L 46.898438 64.390625 Z M 46.898438 59.40625 "/>
</clipPath>
<clipPath id="clip72">
  <path d="M 49.886719 59.40625 L 54.867188 59.40625 L 54.867188 64.390625 L 49.886719 64.390625 Z M 49.886719 59.40625 "/>
</clipPath>
<clipPath id="clip73">
  <path d="M 52.875 59.40625 L 57.855469 59.40625 L 57.855469 64.390625 L 52.875 64.390625 Z M 52.875 59.40625 "/>
</clipPath>
<clipPath id="clip74">
  <path d="M 55.863281 59.40625 L 60.847656 59.40625 L 60.847656 64.390625 L 55.863281 64.390625 Z M 55.863281 59.40625 "/>
</clipPath>
<clipPath id="clip75">
  <path d="M 58.855469 59.40625 L 63.835938 59.40625 L 63.835938 64.390625 L 58.855469 64.390625 Z M 58.855469 59.40625 "/>
</clipPath>
<clipPath id="clip76">
  <path d="M 61.84375 59.40625 L 66.824219 59.40625 L 66.824219 64.390625 L 61.84375 64.390625 Z M 61.84375 59.40625 "/>
</clipPath>
<clipPath id="clip77">
  <path d="M 64.832031 59.40625 L 69.8125 59.40625 L 69.8125 64.390625 L 64.832031 64.390625 Z M 64.832031 59.40625 "/>
</clipPath>
<clipPath id="clip78">
  <path d="M 67.820312 59.40625 L 72.800781 59.40625 L 72.800781 64.390625 L 67.820312 64.390625 Z M 67.820312 59.40625 "/>
</clipPath>
<clipPath id="clip79">
  <path d="M 70.808594 59.40625 L 75.789062 59.40625 L 75.789062 64.390625 L 70.808594 64.390625 Z M 70.808594 59.40625 "/>
</clipPath>
<clipPath id="clip80">
  <path d="M 73.796875 59.40625 L 78.777344 59.40625 L 78.777344 64.390625 L 73.796875 64.390625 Z M 73.796875 59.40625 "/>
</clipPath>
<clipPath id="clip81">
  <path d="M 76.785156 59.40625 L 81.769531 59.40625 L 81.769531 64.390625 L 76.785156 64.390625 Z M 76.785156 59.40625 "/>
</clipPath>
<clipPath id="clip82">
  <path d="M 79.773438 59.40625 L 84.757812 59.40625 L 84.757812 64.390625 L 79.773438 64.390625 Z M 79.773438 59.40625 "/>
</clipPath>
<clipPath id="clip83">
  <path d="M 82.765625 59.40625 L 87.746094 59.40625 L 87.746094 64.390625 L 82.765625 64.390625 Z M 82.765625 59.40625 "/>
</clipPath>
<clipPath id="clip84">
  <path d="M 85.753906 59.40625 L 90.734375 59.40625 L 90.734375 64.390625 L 85.753906 64.390625 Z M 85.753906 59.40625 "/>
</clipPath>
<clipPath id="clip85">
  <path d="M 88.742188 59.40625 L 93.722656 59.40625 L 93.722656 64.390625 L 88.742188 64.390625 Z M 88.742188 59.40625 "/>
</clipPath>
<clipPath id="clip86">
  <path d="M 91.730469 59.40625 L 96.710938 59.40625 L 96.710938 64.390625 L 91.730469 64.390625 Z M 91.730469 59.40625 "/>
</clipPath>
<clipPath id="clip87">
  <path d="M 94.71875 59.40625 L 99.699219 59.40625 L 99.699219 64.390625 L 94.71875 64.390625 Z M 94.71875 59.40625 "/>
</clipPath>
<clipPath id="clip88">
  <path d="M 97.707031 59.40625 L 102.691406 59.40625 L 102.691406 64.390625 L 97.707031 64.390625 Z M 97.707031 59.40625 "/>
</clipPath>
<clipPath id="clip89">
  <path d="M 100.695312 59.40625 L 105.679688 59.40625 L 105.679688 64.390625 L 100.695312 64.390625 Z M 100.695312 59.40625 "/>
</clipPath>
<clipPath id="clip90">
  <path d="M 103.6875 59.40625 L 108.667969 59.40625 L 108.667969 64.390625 L 103.6875 64.390625 Z M 103.6875 59.40625 "/>
</clipPath>
<clipPath id="clip91">
  <path d="M 106.675781 59.40625 L 109.132812 59.40625 L 109.132812 64.390625 L 106.675781 64.390625 Z M 106.675781 59.40625 "/>
</clipPath>
<clipPath id="clip92">
  <path d="M 24.09375 58.566406 L 24.980469 58.566406 L 24.980469 61.402344 L 24.09375 61.402344 Z M 24.09375 58.566406 "/>
</clipPath>
<clipPath id="clip93">
  <path d="M 24.09375 58.566406 L 27.96875 58.566406 L 27.96875 61.402344 L 24.09375 61.402344 Z M 24.09375 58.566406 "/>
</clipPath>
<clipPath id="clip94">
  <path d="M 25.976562 58.566406 L 30.957031 58.566406 L 30.957031 61.402344 L 25.976562 61.402344 Z M 25.976562 58.566406 "/>
</clipPath>
<clipPath id="clip95">
  <path d="M 28.964844 58.566406 L 33.945312 58.566406 L 33.945312 61.402344 L 28.964844 61.402344 Z M 28.964844 58.566406 "/>
</clipPath>
<clipPath id="clip96">
  <path d="M 31.953125 58.566406 L 36.933594 58.566406 L 36.933594 61.402344 L 31.953125 61.402344 Z M 31.953125 58.566406 "/>
</clipPath>
<clipPath id="clip97">
  <path d="M 34.941406 58.566406 L 39.925781 58.566406 L 39.925781 61.402344 L 34.941406 61.402344 Z M 34.941406 58.566406 "/>
</clipPath>
<clipPath id="clip98">
  <path d="M 37.933594 58.566406 L 42.914062 58.566406 L 42.914062 61.402344 L 37.933594 61.402344 Z M 37.933594 58.566406 "/>
</clipPath>
<clipPath id="clip99">
  <path d="M 40.921875 58.566406 L 45.902344 58.566406 L 45.902344 61.402344 L 40.921875 61.402344 Z M 40.921875 58.566406 "/>
</clipPath>
<clipPath id="clip100">
  <path d="M 43.910156 58.566406 L 48.890625 58.566406 L 48.890625 61.402344 L 43.910156 61.402344 Z M 43.910156 58.566406 "/>
</clipPath>
<clipPath id="clip101">
  <path d="M 46.898438 58.566406 L 51.878906 58.566406 L 51.878906 61.402344 L 46.898438 61.402344 Z M 46.898438 58.566406 "/>
</clipPath>
<clipPath id="clip102">
  <path d="M 49.886719 58.566406 L 54.867188 58.566406 L 54.867188 61.402344 L 49.886719 61.402344 Z M 49.886719 58.566406 "/>
</clipPath>
<clipPath id="clip103">
  <path d="M 52.875 58.566406 L 57.855469 58.566406 L 57.855469 61.402344 L 52.875 61.402344 Z M 52.875 58.566406 "/>
</clipPath>
<clipPath id="clip104">
  <path d="M 55.863281 58.566406 L 60.847656 58.566406 L 60.847656 61.402344 L 55.863281 61.402344 Z M 55.863281 58.566406 "/>
</clipPath>
<clipPath id="clip105">
  <path d="M 58.855469 58.566406 L 63.835938 58.566406 L 63.835938 61.402344 L 58.855469 61.402344 Z M 58.855469 58.566406 "/>
</clipPath>
<clipPath id="clip106">
  <path d="M 61.84375 58.566406 L 66.824219 58.566406 L 66.824219 61.402344 L 61.84375 61.402344 Z M 61.84375 58.566406 "/>
</clipPath>
<clipPath id="clip107">
  <path d="M 64.832031 58.566406 L 69.8125 58.566406 L 69.8125 61.402344 L 64.832031 61.402344 Z M 64.832031 58.566406 "/>
</clipPath>
<clipPath id="clip108">
  <path d="M 67.820312 58.566406 L 72.800781 58.566406 L 72.800781 61.402344 L 67.820312 61.402344 Z M 67.820312 58.566406 "/>
</clipPath>
<clipPath id="clip109">
  <path d="M 70.808594 58.566406 L 75.789062 58.566406 L 75.789062 61.402344 L 70.808594 61.402344 Z M 70.808594 58.566406 "/>
</clipPath>
<clipPath id="clip110">
  <path d="M 73.796875 58.566406 L 78.777344 58.566406 L 78.777344 61.402344 L 73.796875 61.402344 Z M 73.796875 58.566406 "/>
</clipPath>
<clipPath id="clip111">
  <path d="M 76.785156 58.566406 L 81.769531 58.566406 L 81.769531 61.402344 L 76.785156 61.402344 Z M 76.785156 58.566406 "/>
</clipPath>
<clipPath id="clip112">
  <path d="M 79.773438 58.566406 L 84.757812 58.566406 L 84.757812 61.402344 L 79.773438 61.402344 Z M 79.773438 58.566406 "/>
</clipPath>
<clipPath id="clip113">
  <path d="M 82.765625 58.566406 L 87.746094 58.566406 L 87.746094 61.402344 L 82.765625 61.402344 Z M 82.765625 58.566406 "/>
</clipPath>
<clipPath id="clip114">
  <path d="M 85.753906 58.566406 L 90.734375 58.566406 L 90.734375 61.402344 L 85.753906 61.402344 Z M 85.753906 58.566406 "/>
</clipPath>
<clipPath id="clip115">
  <path d="M 88.742188 58.566406 L 93.722656 58.566406 L 93.722656 61.402344 L 88.742188 61.402344 Z M 88.742188 58.566406 "/>
</clipPath>
<clipPath id="clip116">
  <path d="M 91.730469 58.566406 L 96.710938 58.566406 L 96.710938 61.402344 L 91.730469 61.402344 Z M 91.730469 58.566406 "/>
</clipPath>
<clipPath id="clip117">
  <path d="M 94.71875 58.566406 L 99.699219 58.566406 L 99.699219 61.402344 L 94.71875 61.402344 Z M 94.71875 58.566406 "/>
</clipPath>
<clipPath id="clip118">
  <path d="M 97.707031 58.566406 L 102.691406 58.566406 L 102.691406 61.402344 L 97.707031 61.402344 Z M 97.707031 58.566406 "/>
</clipPath>
<clipPath id="clip119">
  <path d="M 100.695312 58.566406 L 105.679688 58.566406 L 105.679688 61.402344 L 100.695312 61.402344 Z M 100.695312 58.566406 "/>
</clipPath>
<clipPath id="clip120">
  <path d="M 103.6875 58.566406 L 108.667969 58.566406 L 108.667969 61.402344 L 103.6875 61.402344 Z M 103.6875 58.566406 "/>
</clipPath>
<clipPath id="clip121">
  <path d="M 106.675781 58.566406 L 109.132812 58.566406 L 109.132812 61.402344 L 106.675781 61.402344 Z M 106.675781 58.566406 "/>
</clipPath>
</defs>
<g id="surface1">
<path style=" stroke:none;fill-rule:nonzero;fill:rgb(0%,0%,100%);fill-opacity:1;" d="M 24.09375 30.835938 L 24.367188 30.402344 L 24.640625 30.222656 L 24.914062 30.3125 L 25.191406 30.660156 L 25.464844 31.261719 L 25.738281 32.085938 L 26.015625 33.105469 L 26.289062 34.28125 L 26.5625 35.574219 L 26.839844 36.929688 L 27.113281 38.296875 L 27.386719 39.632812 L 27.664062 40.875 L 27.9375 41.988281 L 28.210938 42.925781 L 28.488281 43.652344 L 28.761719 44.140625 L 29.035156 44.371094 L 29.308594 44.339844 L 29.585938 44.046875 L 29.859375 43.5 L 30.132812 42.71875 L 30.410156 41.738281 L 30.683594 40.589844 L 30.957031 39.320312 L 31.234375 37.972656 L 31.507812 36.601562 L 31.78125 35.257812 L 32.058594 33.988281 L 32.332031 32.847656 L 32.605469 31.867188 L 32.882812 31.09375 L 33.15625 30.554688 L 33.429688 30.265625 L 33.703125 30.242188 L 33.980469 30.480469 L 34.253906 30.976562 L 34.527344 31.710938 L 34.804688 32.652344 L 35.078125 33.769531 L 35.351562 35.015625 L 35.628906 36.351562 L 35.902344 37.71875 L 36.175781 39.074219 L 36.453125 40.363281 L 36.726562 41.539062 L 37 42.550781 L 37.277344 43.371094 L 37.550781 43.964844 L 37.824219 44.308594 L 38.097656 44.386719 L 38.375 44.203125 L 38.648438 43.761719 L 38.921875 43.078125 L 39.199219 42.175781 L 39.472656 41.09375 L 39.746094 39.867188 L 40.023438 38.550781 L 40.296875 37.183594 L 40.570312 35.820312 L 40.847656 34.515625 L 41.121094 33.3125 L 41.394531 32.257812 L 41.671875 31.394531 L 41.945312 30.753906 L 42.21875 30.355469 L 42.492188 30.21875 L 42.769531 30.347656 L 43.042969 30.738281 L 43.316406 31.371094 L 43.59375 32.230469 L 43.867188 33.277344 L 44.140625 34.476562 L 44.417969 35.777344 L 44.691406 37.140625 L 44.964844 38.507812 L 45.242188 39.828125 L 45.515625 41.058594 L 45.789062 42.144531 L 46.066406 43.050781 L 46.339844 43.742188 L 46.613281 44.191406 L 46.890625 44.386719 L 47.164062 44.3125 L 47.4375 43.980469 L 47.710938 43.394531 L 47.988281 42.582031 L 48.261719 41.570312 L 48.535156 40.402344 L 48.8125 39.117188 L 49.085938 37.761719 L 49.359375 36.394531 L 49.636719 35.058594 L 49.910156 33.804688 L 50.183594 32.683594 L 50.460938 31.734375 L 50.734375 30.996094 L 51.007812 30.492188 L 51.285156 30.246094 L 51.304688 3.335938 L 51.597656 2.574219 L 51.890625 2.078125 L 52.179688 1.878906 L 52.472656 1.976562 L 52.765625 2.367188 L 53.058594 3.039062 L 53.347656 3.960938 L 53.640625 5.09375 L 53.933594 6.390625 L 54.222656 7.796875 L 54.515625 9.25 L 54.808594 10.691406 L 55.101562 12.0625 L 55.390625 13.300781 L 55.683594 14.351562 L 55.976562 15.179688 L 56.269531 15.742188 L 56.558594 16.019531 L 56.851562 15.996094 L 57.144531 15.675781 L 57.4375 15.074219 L 57.726562 14.210938 L 58.019531 13.125 L 58.3125 11.863281 L 58.605469 10.480469 L 58.894531 9.035156 L 59.1875 7.582031 L 59.480469 6.191406 L 59.773438 4.914062 L 60.0625 3.808594 L 60.355469 2.921875 L 60.648438 2.292969 L 60.941406 1.941406 L 61.230469 1.890625 L 61.523438 2.136719 L 61.816406 2.667969 L 62.109375 3.46875 L 62.398438 4.503906 L 62.691406 5.722656 L 62.984375 7.082031 L 63.277344 8.519531 L 63.566406 9.972656 L 63.859375 11.386719 L 64.152344 12.699219 L 64.441406 13.851562 L 64.734375 14.796875 L 65.027344 15.496094 L 65.320312 15.917969 L 65.609375 16.042969 L 65.902344 15.875 L 66.195312 15.410156 L 66.488281 14.671875 L 66.777344 13.695312 L 67.070312 12.515625 L 67.363281 11.1875 L 67.65625 9.765625 L 67.945312 8.308594 L 68.238281 6.878906 L 68.53125 5.535156 L 68.824219 4.339844 L 69.113281 3.339844 L 69.40625 2.574219 L 69.699219 2.082031 L 69.992188 1.878906 L 70.28125 1.972656 L 70.574219 2.367188 L 70.867188 3.035156 L 71.160156 3.957031 L 71.449219 5.089844 L 71.742188 6.386719 L 72.035156 7.792969 L 72.328125 9.246094 L 72.617188 10.6875 L 72.910156 12.058594 L 73.203125 13.296875 L 73.492188 14.351562 L 73.785156 15.175781 L 74.078125 15.742188 L 74.371094 16.019531 L 74.660156 15.996094 L 74.953125 15.679688 L 75.246094 15.074219 L 75.539062 14.214844 L 75.828125 13.128906 L 76.121094 11.871094 L 76.414062 10.488281 L 76.707031 9.039062 L 76.996094 7.589844 L 77.289062 6.195312 L 77.582031 4.917969 L 77.875 3.8125 L 78.164062 2.925781 L 78.457031 2.292969 L 78.75 1.941406 L 79.042969 1.890625 L 79.332031 2.132812 L 79.625 2.667969 L 79.917969 3.464844 L 80.210938 4.5 L 80.21875 50.839844 L 80.511719 52.296875 L 80.800781 53.71875 L 81.09375 55.046875 L 81.386719 56.222656 L 81.679688 57.199219 L 81.96875 57.933594 L 82.261719 58.394531 L 82.554688 58.566406 L 82.847656 58.433594 L 83.136719 58.007812 L 83.429688 57.308594 L 83.722656 56.363281 L 84.015625 55.207031 L 84.304688 53.894531 L 84.597656 52.484375 L 84.890625 51.027344 L 85.183594 49.589844 L 85.472656 48.234375 L 85.765625 47.011719 L 86.058594 45.984375 L 86.347656 45.183594 L 86.640625 44.652344 L 86.933594 44.410156 L 87.226562 44.464844 L 87.515625 44.816406 L 87.808594 45.449219 L 88.101562 46.339844 L 88.394531 47.445312 L 88.683594 48.722656 L 88.976562 50.117188 L 89.5625 53.015625 L 89.851562 54.398438 L 90.144531 55.65625 L 90.4375 56.738281 L 90.730469 57.597656 L 91.019531 58.199219 L 91.3125 58.519531 L 91.605469 58.539062 L 91.898438 58.257812 L 92.1875 57.695312 L 92.480469 56.867188 L 92.773438 55.808594 L 93.066406 54.570312 L 93.355469 53.199219 L 93.648438 51.757812 L 93.941406 50.304688 L 94.234375 48.898438 L 94.523438 47.605469 L 94.816406 46.472656 L 95.109375 45.554688 L 95.402344 44.882812 L 95.691406 44.492188 L 95.984375 44.398438 L 96.277344 44.601562 L 96.566406 45.097656 L 96.859375 45.863281 L 97.152344 46.867188 L 97.445312 48.0625 L 97.734375 49.40625 L 98.027344 50.835938 L 98.320312 52.292969 L 98.613281 53.714844 L 98.902344 55.042969 L 99.195312 56.21875 L 99.488281 57.199219 L 99.78125 57.933594 L 100.070312 58.394531 L 100.363281 58.566406 L 100.65625 58.4375 L 100.949219 58.011719 L 101.238281 57.3125 L 101.53125 56.363281 L 101.824219 55.210938 L 102.117188 53.902344 L 102.40625 52.488281 L 102.699219 51.03125 L 102.992188 49.59375 L 103.285156 48.238281 L 103.574219 47.015625 L 103.867188 45.984375 L 104.160156 45.1875 L 104.453125 44.652344 L 104.742188 44.410156 L 105.035156 44.464844 L 105.328125 44.8125 L 105.621094 45.445312 L 105.910156 46.335938 L 106.203125 47.441406 L 106.496094 48.71875 L 106.785156 50.109375 L 107.078125 51.5625 L 107.371094 53.007812 L 107.664062 54.390625 L 107.953125 55.652344 L 108.246094 56.734375 L 108.539062 57.597656 L 108.832031 58.199219 L 109.121094 58.515625 L 109.132812 65.652344 L 24.09375 65.652344 L 24.09375 30.785156 "/>
<g clip-path="url(#clip1)" clip-rule="nonzero">
<path style="fill:none;stroke-width:0.79701;stroke-linecap:butt;stroke-linejoin:miter;stroke:rgb(0%,0%,100%);stroke-opacity:1;stroke-miterlimit:10;" d="M 28.34875 34.817062 L 28.622187 35.250656 L 28.895625 35.430344 L 29.169062 35.3405 L 29.446406 34.992844 L 29.719844 34.391281 L 29.993281 33.567062 L 30.270625 32.547531 L 30.544062 31.37175 L 30.8175 30.078781 L 31.094844 28.723312 L 31.368281 27.356125 L 31.641719 26.020187 L 31.919062 24.778 L 32.1925 23.664719 L 32.465937 22.727219 L 32.743281 22.000656 L 33.016719 21.512375 L 33.290156 21.281906 L 33.563594 21.313156 L 33.840937 21.606125 L 34.114375 22.153 L 34.387812 22.93425 L 34.665156 23.914719 L 34.938594 25.063156 L 35.212031 26.332687 L 35.489375 27.680344 L 35.762812 29.051437 L 36.03625 30.395187 L 36.313594 31.664719 L 36.587031 32.805344 L 36.860469 33.785812 L 37.137812 34.55925 L 37.41125 35.098312 L 37.684687 35.387375 L 37.958125 35.410812 L 38.235469 35.172531 L 38.508906 34.676437 L 38.782344 33.942062 L 39.059687 33.000656 L 39.333125 31.883469 L 39.606562 30.637375 L 39.883906 29.301437 L 40.157344 27.93425 L 40.430781 26.578781 L 40.708125 25.289719 L 40.981562 24.113937 L 41.255 23.102219 L 41.532344 22.281906 L 41.805781 21.688156 L 42.079219 21.344406 L 42.352656 21.266281 L 42.63 21.449875 L 42.903437 21.891281 L 43.176875 22.574875 L 43.454219 23.477219 L 43.727656 24.55925 L 44.001094 25.785812 L 44.278437 27.102219 L 44.551875 28.469406 L 44.825312 29.832687 L 45.102656 31.137375 L 45.376094 32.3405 L 45.649531 33.395187 L 45.926875 34.258469 L 46.200312 34.899094 L 46.47375 35.297531 L 46.747187 35.43425 L 47.024531 35.305344 L 47.297969 34.914719 L 47.571406 34.281906 L 47.84875 33.422531 L 48.122187 32.375656 L 48.395625 31.176437 L 48.672969 29.875656 L 48.946406 28.512375 L 49.219844 27.145187 L 49.497187 25.824875 L 49.770625 24.594406 L 50.044062 23.508469 L 50.321406 22.602219 L 50.594844 21.910812 L 50.868281 21.461594 L 51.145625 21.266281 L 51.419062 21.3405 L 51.6925 21.672531 L 51.965937 22.258469 L 52.243281 23.070969 L 52.516719 24.082687 L 52.790156 25.250656 L 53.0675 26.535812 L 53.340937 27.891281 L 53.614375 29.258469 L 53.891719 30.594406 L 54.165156 31.848312 L 54.438594 32.969406 L 54.715937 33.918625 L 54.989375 34.656906 L 55.262812 35.160812 L 55.540156 35.406906 L 55.559687 62.317062 L 55.852656 63.078781 L 56.145625 63.574875 L 56.434687 63.774094 L 56.727656 63.676437 L 57.020625 63.285812 L 57.313594 62.613937 L 57.602656 61.692062 L 57.895625 60.55925 L 58.188594 59.262375 L 58.477656 57.856125 L 58.770625 56.403 L 59.063594 54.961594 L 59.356562 53.5905 L 59.645625 52.352219 L 59.938594 51.301437 L 60.231562 50.473312 L 60.524531 49.910812 L 60.813594 49.633469 L 61.106562 49.656906 L 61.399531 49.977219 L 61.6925 50.578781 L 61.981562 51.442062 L 62.274531 52.528 L 62.5675 53.789719 L 62.860469 55.172531 L 63.149531 56.617844 L 63.4425 58.070969 L 63.735469 59.461594 L 64.028437 60.738937 L 64.3175 61.844406 L 64.610469 62.731125 L 64.903437 63.360031 L 65.196406 63.711594 L 65.485469 63.762375 L 65.778437 63.516281 L 66.071406 62.985031 L 66.364375 62.18425 L 66.653437 61.149094 L 66.946406 59.930344 L 67.239375 58.570969 L 67.532344 57.133469 L 67.821406 55.680344 L 68.114375 54.266281 L 68.407344 52.953781 L 68.696406 51.801437 L 68.989375 50.856125 L 69.282344 50.156906 L 69.575312 49.735031 L 69.864375 49.610031 L 70.157344 49.778 L 70.450312 50.242844 L 70.743281 50.981125 L 71.032344 51.957687 L 71.325312 53.137375 L 71.618281 54.4655 L 71.91125 55.887375 L 72.200312 57.344406 L 72.493281 58.774094 L 72.78625 60.117844 L 73.079219 61.313156 L 73.368281 62.313156 L 73.66125 63.078781 L 73.954219 63.570969 L 74.247187 63.774094 L 74.53625 63.680344 L 74.829219 63.285812 L 75.122187 62.617844 L 75.415156 61.695969 L 75.704219 60.563156 L 75.997187 59.266281 L 76.290156 57.860031 L 76.583125 56.406906 L 76.872187 54.9655 L 77.165156 53.594406 L 77.458125 52.356125 L 77.747187 51.301437 L 78.040156 50.477219 L 78.333125 49.910812 L 78.626094 49.633469 L 78.915156 49.656906 L 79.208125 49.973312 L 79.501094 50.578781 L 79.794062 51.438156 L 80.083125 52.524094 L 80.376094 53.781906 L 80.669062 55.164719 L 80.962031 56.613937 L 81.251094 58.063156 L 81.544062 59.457687 L 81.837031 60.735031 L 82.13 61.8405 L 82.419062 62.727219 L 82.712031 63.360031 L 83.005 63.711594 L 83.297969 63.762375 L 83.587031 63.520187 L 83.88 62.985031 L 84.172969 62.188156 L 84.465937 61.153 L 84.47375 14.813156 L 84.766719 13.356125 L 85.055781 11.93425 L 85.34875 10.606125 L 85.641719 9.430344 L 85.934687 8.453781 L 86.22375 7.719406 L 86.516719 7.258469 L 86.809687 7.086594 L 87.102656 7.219406 L 87.391719 7.645187 L 87.684687 8.344406 L 87.977656 9.289719 L 88.270625 10.445969 L 88.559687 11.758469 L 88.852656 13.168625 L 89.145625 14.625656 L 89.438594 16.063156 L 89.727656 17.418625 L 90.020625 18.641281 L 90.313594 19.668625 L 90.602656 20.469406 L 90.895625 21.000656 L 91.188594 21.242844 L 91.481562 21.188156 L 91.770625 20.836594 L 92.063594 20.203781 L 92.356562 19.313156 L 92.649531 18.207687 L 92.938594 16.930344 L 93.231562 15.535812 L 93.8175 12.637375 L 94.106562 11.254562 L 94.399531 9.99675 L 94.6925 8.914719 L 94.985469 8.055344 L 95.274531 7.453781 L 95.5675 7.133469 L 95.860469 7.113937 L 96.153437 7.395187 L 96.4425 7.957687 L 96.735469 8.785812 L 97.028437 9.844406 L 97.321406 11.082687 L 97.610469 12.453781 L 97.903437 13.895187 L 98.196406 15.348312 L 98.489375 16.754562 L 98.778437 18.047531 L 99.071406 19.180344 L 99.364375 20.098312 L 99.657344 20.770187 L 99.946406 21.160812 L 100.239375 21.254562 L 100.532344 21.051437 L 100.821406 20.555344 L 101.114375 19.789719 L 101.407344 18.785812 L 101.700312 17.5905 L 101.989375 16.24675 L 102.282344 14.817062 L 102.575312 13.360031 L 102.868281 11.938156 L 103.157344 10.610031 L 103.450312 9.43425 L 103.743281 8.453781 L 104.03625 7.719406 L 104.325312 7.258469 L 104.618281 7.086594 L 104.91125 7.2155 L 105.204219 7.641281 L 105.493281 8.3405 L 105.78625 9.289719 L 106.079219 10.442062 L 106.372187 11.750656 L 106.66125 13.164719 L 106.954219 14.62175 L 107.247187 16.05925 L 107.540156 17.414719 L 107.829219 18.637375 L 108.122187 19.668625 L 108.415156 20.4655 L 108.708125 21.000656 L 108.997187 21.242844 L 109.290156 21.188156 L 109.583125 20.8405 L 109.876094 20.207687 L 110.165156 19.317062 L 110.458125 18.211594 L 110.751094 16.93425 L 111.040156 15.543625 L 111.333125 14.0905 L 111.626094 12.645187 L 111.919062 11.262375 L 112.208125 10.000656 L 112.501094 8.918625 L 112.794062 8.055344 L 113.087031 7.453781 L 113.376094 7.137375 L 113.387812 0.00065625 L 28.34875 0.00065625 L 28.34875 34.867844 " transform="matrix(1,0,0,-1,-4.255,65.653)"/>
</g>
<path style="fill:none;stroke-width:0.3985;stroke-linecap:butt;stroke-linejoin:miter;stroke:rgb(0%,0%,0%);stroke-opacity:1;stroke-dasharray:0.3985,1.99255;stroke-miterlimit:10;" d="M 5.669062 7.086594 L 28.34875 7.086594 " transform="matrix(1,0,0,-1,-4.255,65.653)"/>
<g clip-path="url(#clip2)" clip-rule="nonzero">
<path style="fill:none;stroke-width:0.3985;stroke-linecap:butt;stroke-linejoin:miter;stroke:rgb(100%,0%,0%);stroke-opacity:1;stroke-miterlimit:10;" d="M 3.087021 -0.00018375 L 0.00108375 3.08966 M 0.00108375 -0.00018375 L 3.087021 3.08966 " transform="matrix(1,0,0,-1,20.99501,69.37091)"/>
</g>
<g clip-path="url(#clip3)" clip-rule="nonzero">
<path style="fill:none;stroke-width:0.3985;stroke-linecap:butt;stroke-linejoin:miter;stroke:rgb(100%,0%,0%);stroke-opacity:1;stroke-miterlimit:10;" d="M 3.090379 -0.00018375 L 0.000535 3.08966 M 0.000535 -0.00018375 L 3.090379 3.08966 " transform="matrix(1,0,0,-1,23.98384,69.37091)"/>
</g>
<g clip-path="url(#clip4)" clip-rule="nonzero">
<path style="fill:none;stroke-width:0.3985;stroke-linecap:butt;stroke-linejoin:miter;stroke:rgb(100%,0%,0%);stroke-opacity:1;stroke-miterlimit:10;" d="M 3.08983 -0.00018375 L -0.00001375 3.08966 M -0.00001375 -0.00018375 L 3.08983 3.08966 " transform="matrix(1,0,0,-1,26.97267,69.37091)"/>
</g>
<g clip-path="url(#clip5)" clip-rule="nonzero">
<path style="fill:none;stroke-width:0.3985;stroke-linecap:butt;stroke-linejoin:miter;stroke:rgb(100%,0%,0%);stroke-opacity:1;stroke-miterlimit:10;" d="M 3.089281 -0.00018375 L -0.0005625 3.08966 M -0.0005625 -0.00018375 L 3.089281 3.08966 " transform="matrix(1,0,0,-1,29.9615,69.37091)"/>
</g>
<g clip-path="url(#clip6)" clip-rule="nonzero">
<path style="fill:none;stroke-width:0.3985;stroke-linecap:butt;stroke-linejoin:miter;stroke:rgb(100%,0%,0%);stroke-opacity:1;stroke-miterlimit:10;" d="M 3.088733 -0.00018375 L -0.00111125 3.08966 M -0.00111125 -0.00018375 L 3.088733 3.08966 " transform="matrix(1,0,0,-1,32.95033,69.37091)"/>
</g>
<g clip-path="url(#clip7)" clip-rule="nonzero">
<path style="fill:none;stroke-width:0.3985;stroke-linecap:butt;stroke-linejoin:miter;stroke:rgb(100%,0%,0%);stroke-opacity:1;stroke-miterlimit:10;" d="M 3.088184 -0.00018375 L -0.00166 3.08966 M -0.00166 -0.00018375 L 3.088184 3.08966 " transform="matrix(1,0,0,-1,35.93916,69.37091)"/>
</g>
<g clip-path="url(#clip8)" clip-rule="nonzero">
<path style="fill:none;stroke-width:0.3985;stroke-linecap:butt;stroke-linejoin:miter;stroke:rgb(100%,0%,0%);stroke-opacity:1;stroke-miterlimit:10;" d="M 3.087635 -0.00018375 L 0.0016975 3.08966 M 0.0016975 -0.00018375 L 3.087635 3.08966 " transform="matrix(1,0,0,-1,38.92799,69.37091)"/>
</g>
<g clip-path="url(#clip9)" clip-rule="nonzero">
<path style="fill:none;stroke-width:0.3985;stroke-linecap:butt;stroke-linejoin:miter;stroke:rgb(100%,0%,0%);stroke-opacity:1;stroke-miterlimit:10;" d="M 3.087086 -0.00018375 L 0.00114875 3.08966 M 0.00114875 -0.00018375 L 3.087086 3.08966 " transform="matrix(1,0,0,-1,41.91682,69.37091)"/>
</g>
<g clip-path="url(#clip10)" clip-rule="nonzero">
<path style="fill:none;stroke-width:0.3985;stroke-linecap:butt;stroke-linejoin:miter;stroke:rgb(100%,0%,0%);stroke-opacity:1;stroke-miterlimit:10;" d="M 3.086538 -0.00018375 L 0.0006 3.08966 M 0.0006 -0.00018375 L 3.086538 3.08966 " transform="matrix(1,0,0,-1,44.90565,69.37091)"/>
</g>
<g clip-path="url(#clip11)" clip-rule="nonzero">
<path style="fill:none;stroke-width:0.3985;stroke-linecap:butt;stroke-linejoin:miter;stroke:rgb(100%,0%,0%);stroke-opacity:1;stroke-miterlimit:10;" d="M 3.089895 -0.00018375 L 0.00005125 3.08966 M 0.00005125 -0.00018375 L 3.089895 3.08966 " transform="matrix(1,0,0,-1,47.89448,69.37091)"/>
</g>
<g clip-path="url(#clip12)" clip-rule="nonzero">
<path style="fill:none;stroke-width:0.3985;stroke-linecap:butt;stroke-linejoin:miter;stroke:rgb(100%,0%,0%);stroke-opacity:1;stroke-miterlimit:10;" d="M 3.089346 -0.00018375 L -0.0004975 3.08966 M -0.0004975 -0.00018375 L 3.089346 3.08966 " transform="matrix(1,0,0,-1,50.88331,69.37091)"/>
</g>
<g clip-path="url(#clip13)" clip-rule="nonzero">
<path style="fill:none;stroke-width:0.3985;stroke-linecap:butt;stroke-linejoin:miter;stroke:rgb(100%,0%,0%);stroke-opacity:1;stroke-miterlimit:10;" d="M 3.088797 -0.00018375 L -0.00104625 3.08966 M -0.00104625 -0.00018375 L 3.088797 3.08966 " transform="matrix(1,0,0,-1,53.87214,69.37091)"/>
</g>
<g clip-path="url(#clip14)" clip-rule="nonzero">
<path style="fill:none;stroke-width:0.3985;stroke-linecap:butt;stroke-linejoin:miter;stroke:rgb(100%,0%,0%);stroke-opacity:1;stroke-miterlimit:10;" d="M 3.088249 -0.00018375 L -0.001595 3.08966 M -0.001595 -0.00018375 L 3.088249 3.08966 " transform="matrix(1,0,0,-1,56.86097,69.37091)"/>
</g>
<g clip-path="url(#clip15)" clip-rule="nonzero">
<path style="fill:none;stroke-width:0.3985;stroke-linecap:butt;stroke-linejoin:miter;stroke:rgb(100%,0%,0%);stroke-opacity:1;stroke-miterlimit:10;" d="M 3.0877 -0.00018375 L 0.0017625 3.08966 M 0.0017625 -0.00018375 L 3.0877 3.08966 " transform="matrix(1,0,0,-1,59.8498,69.37091)"/>
</g>
<g clip-path="url(#clip16)" clip-rule="nonzero">
<path style="fill:none;stroke-width:0.3985;stroke-linecap:butt;stroke-linejoin:miter;stroke:rgb(100%,0%,0%);stroke-opacity:1;stroke-miterlimit:10;" d="M 3.087151 -0.00018375 L 0.00121375 3.08966 M 0.00121375 -0.00018375 L 3.087151 3.08966 " transform="matrix(1,0,0,-1,62.83863,69.37091)"/>
</g>
<g clip-path="url(#clip17)" clip-rule="nonzero">
<path style="fill:none;stroke-width:0.3985;stroke-linecap:butt;stroke-linejoin:miter;stroke:rgb(100%,0%,0%);stroke-opacity:1;stroke-miterlimit:10;" d="M 3.086603 -0.00018375 L 0.000665 3.08966 M 0.000665 -0.00018375 L 3.086603 3.08966 " transform="matrix(1,0,0,-1,65.82746,69.37091)"/>
</g>
<g clip-path="url(#clip18)" clip-rule="nonzero">
<path style="fill:none;stroke-width:0.3985;stroke-linecap:butt;stroke-linejoin:miter;stroke:rgb(100%,0%,0%);stroke-opacity:1;stroke-miterlimit:10;" d="M 3.08996 -0.00018375 L 0.00011625 3.08966 M 0.00011625 -0.00018375 L 3.08996 3.08966 " transform="matrix(1,0,0,-1,68.81629,69.37091)"/>
</g>
<g clip-path="url(#clip19)" clip-rule="nonzero">
<path style="fill:none;stroke-width:0.3985;stroke-linecap:butt;stroke-linejoin:miter;stroke:rgb(100%,0%,0%);stroke-opacity:1;stroke-miterlimit:10;" d="M 3.089411 -0.00018375 L -0.0004325 3.08966 M -0.0004325 -0.00018375 L 3.089411 3.08966 " transform="matrix(1,0,0,-1,71.80512,69.37091)"/>
</g>
<g clip-path="url(#clip20)" clip-rule="nonzero">
<path style="fill:none;stroke-width:0.3985;stroke-linecap:butt;stroke-linejoin:miter;stroke:rgb(100%,0%,0%);stroke-opacity:1;stroke-miterlimit:10;" d="M 3.088862 -0.00018375 L -0.00098125 3.08966 M -0.00098125 -0.00018375 L 3.088862 3.08966 " transform="matrix(1,0,0,-1,74.79395,69.37091)"/>
</g>
<g clip-path="url(#clip21)" clip-rule="nonzero">
<path style="fill:none;stroke-width:0.3985;stroke-linecap:butt;stroke-linejoin:miter;stroke:rgb(100%,0%,0%);stroke-opacity:1;stroke-miterlimit:10;" d="M 3.088314 -0.00018375 L -0.00153 3.08966 M -0.00153 -0.00018375 L 3.088314 3.08966 " transform="matrix(1,0,0,-1,77.78278,69.37091)"/>
</g>
<g clip-path="url(#clip22)" clip-rule="nonzero">
<path style="fill:none;stroke-width:0.3985;stroke-linecap:butt;stroke-linejoin:miter;stroke:rgb(100%,0%,0%);stroke-opacity:1;stroke-miterlimit:10;" d="M 3.087765 -0.00018375 L 0.0018275 3.08966 M 0.0018275 -0.00018375 L 3.087765 3.08966 " transform="matrix(1,0,0,-1,80.77161,69.37091)"/>
</g>
<g clip-path="url(#clip23)" clip-rule="nonzero">
<path style="fill:none;stroke-width:0.3985;stroke-linecap:butt;stroke-linejoin:miter;stroke:rgb(100%,0%,0%);stroke-opacity:1;stroke-miterlimit:10;" d="M 3.087216 -0.00018375 L 0.00127875 3.08966 M 0.00127875 -0.00018375 L 3.087216 3.08966 " transform="matrix(1,0,0,-1,83.76044,69.37091)"/>
</g>
<g clip-path="url(#clip24)" clip-rule="nonzero">
<path style="fill:none;stroke-width:0.3985;stroke-linecap:butt;stroke-linejoin:miter;stroke:rgb(100%,0%,0%);stroke-opacity:1;stroke-miterlimit:10;" d="M 3.086667 -0.00018375 L 0.00073 3.08966 M 0.00073 -0.00018375 L 3.086667 3.08966 " transform="matrix(1,0,0,-1,86.74927,69.37091)"/>
</g>
<g clip-path="url(#clip25)" clip-rule="nonzero">
<path style="fill:none;stroke-width:0.3985;stroke-linecap:butt;stroke-linejoin:miter;stroke:rgb(100%,0%,0%);stroke-opacity:1;stroke-miterlimit:10;" d="M 3.090025 -0.00018375 L 0.00018125 3.08966 M 0.00018125 -0.00018375 L 3.090025 3.08966 " transform="matrix(1,0,0,-1,89.7381,69.37091)"/>
</g>
<g clip-path="url(#clip26)" clip-rule="nonzero">
<path style="fill:none;stroke-width:0.3985;stroke-linecap:butt;stroke-linejoin:miter;stroke:rgb(100%,0%,0%);stroke-opacity:1;stroke-miterlimit:10;" d="M 3.089476 -0.00018375 L -0.0003675 3.08966 M -0.0003675 -0.00018375 L 3.089476 3.08966 " transform="matrix(1,0,0,-1,92.72693,69.37091)"/>
</g>
<g clip-path="url(#clip27)" clip-rule="nonzero">
<path style="fill:none;stroke-width:0.3985;stroke-linecap:butt;stroke-linejoin:miter;stroke:rgb(100%,0%,0%);stroke-opacity:1;stroke-miterlimit:10;" d="M 3.088927 -0.00018375 L -0.00091625 3.08966 M -0.00091625 -0.00018375 L 3.088927 3.08966 " transform="matrix(1,0,0,-1,95.71576,69.37091)"/>
</g>
<g clip-path="url(#clip28)" clip-rule="nonzero">
<path style="fill:none;stroke-width:0.3985;stroke-linecap:butt;stroke-linejoin:miter;stroke:rgb(100%,0%,0%);stroke-opacity:1;stroke-miterlimit:10;" d="M 3.088379 -0.00018375 L -0.001465 3.08966 M -0.001465 -0.00018375 L 3.088379 3.08966 " transform="matrix(1,0,0,-1,98.70459,69.37091)"/>
</g>
<g clip-path="url(#clip29)" clip-rule="nonzero">
<path style="fill:none;stroke-width:0.3985;stroke-linecap:butt;stroke-linejoin:miter;stroke:rgb(100%,0%,0%);stroke-opacity:1;stroke-miterlimit:10;" d="M 3.08783 -0.00018375 L 0.0018925 3.08966 M 0.0018925 -0.00018375 L 3.08783 3.08966 " transform="matrix(1,0,0,-1,101.69342,69.37091)"/>
</g>
<g clip-path="url(#clip30)" clip-rule="nonzero">
<path style="fill:none;stroke-width:0.3985;stroke-linecap:butt;stroke-linejoin:miter;stroke:rgb(100%,0%,0%);stroke-opacity:1;stroke-miterlimit:10;" d="M 3.087281 -0.00018375 L 0.00134375 3.08966 M 0.00134375 -0.00018375 L 3.087281 3.08966 " transform="matrix(1,0,0,-1,104.68225,69.37091)"/>
</g>
<g clip-path="url(#clip31)" clip-rule="nonzero">
<path style="fill:none;stroke-width:0.3985;stroke-linecap:butt;stroke-linejoin:miter;stroke:rgb(100%,0%,0%);stroke-opacity:1;stroke-miterlimit:10;" d="M 3.086732 -0.00018375 L 0.000795 3.08966 M 0.000795 -0.00018375 L 3.086732 3.08966 " transform="matrix(1,0,0,-1,107.67108,69.37091)"/>
</g>
<g clip-path="url(#clip32)" clip-rule="nonzero">
<path style="fill:none;stroke-width:0.3985;stroke-linecap:butt;stroke-linejoin:miter;stroke:rgb(100%,0%,0%);stroke-opacity:1;stroke-miterlimit:10;" d="M 3.087021 -0.0007325 L 0.00108375 3.089111 M 0.00108375 -0.0007325 L 3.087021 3.089111 " transform="matrix(1,0,0,-1,20.99501,66.38208)"/>
</g>
<g clip-path="url(#clip33)" clip-rule="nonzero">
<path style="fill:none;stroke-width:0.3985;stroke-linecap:butt;stroke-linejoin:miter;stroke:rgb(100%,0%,0%);stroke-opacity:1;stroke-miterlimit:10;" d="M 3.090379 -0.0007325 L 0.000535 3.089111 M 0.000535 -0.0007325 L 3.090379 3.089111 " transform="matrix(1,0,0,-1,23.98384,66.38208)"/>
</g>
<g clip-path="url(#clip34)" clip-rule="nonzero">
<path style="fill:none;stroke-width:0.3985;stroke-linecap:butt;stroke-linejoin:miter;stroke:rgb(100%,0%,0%);stroke-opacity:1;stroke-miterlimit:10;" d="M 3.08983 -0.0007325 L -0.00001375 3.089111 M -0.00001375 -0.0007325 L 3.08983 3.089111 " transform="matrix(1,0,0,-1,26.97267,66.38208)"/>
</g>
<g clip-path="url(#clip35)" clip-rule="nonzero">
<path style="fill:none;stroke-width:0.3985;stroke-linecap:butt;stroke-linejoin:miter;stroke:rgb(100%,0%,0%);stroke-opacity:1;stroke-miterlimit:10;" d="M 3.089281 -0.0007325 L -0.0005625 3.089111 M -0.0005625 -0.0007325 L 3.089281 3.089111 " transform="matrix(1,0,0,-1,29.9615,66.38208)"/>
</g>
<g clip-path="url(#clip36)" clip-rule="nonzero">
<path style="fill:none;stroke-width:0.3985;stroke-linecap:butt;stroke-linejoin:miter;stroke:rgb(100%,0%,0%);stroke-opacity:1;stroke-miterlimit:10;" d="M 3.088733 -0.0007325 L -0.00111125 3.089111 M -0.00111125 -0.0007325 L 3.088733 3.089111 " transform="matrix(1,0,0,-1,32.95033,66.38208)"/>
</g>
<g clip-path="url(#clip37)" clip-rule="nonzero">
<path style="fill:none;stroke-width:0.3985;stroke-linecap:butt;stroke-linejoin:miter;stroke:rgb(100%,0%,0%);stroke-opacity:1;stroke-miterlimit:10;" d="M 3.088184 -0.0007325 L -0.00166 3.089111 M -0.00166 -0.0007325 L 3.088184 3.089111 " transform="matrix(1,0,0,-1,35.93916,66.38208)"/>
</g>
<g clip-path="url(#clip38)" clip-rule="nonzero">
<path style="fill:none;stroke-width:0.3985;stroke-linecap:butt;stroke-linejoin:miter;stroke:rgb(100%,0%,0%);stroke-opacity:1;stroke-miterlimit:10;" d="M 3.087635 -0.0007325 L 0.0016975 3.089111 M 0.0016975 -0.0007325 L 3.087635 3.089111 " transform="matrix(1,0,0,-1,38.92799,66.38208)"/>
</g>
<g clip-path="url(#clip39)" clip-rule="nonzero">
<path style="fill:none;stroke-width:0.3985;stroke-linecap:butt;stroke-linejoin:miter;stroke:rgb(100%,0%,0%);stroke-opacity:1;stroke-miterlimit:10;" d="M 3.087086 -0.0007325 L 0.00114875 3.089111 M 0.00114875 -0.0007325 L 3.087086 3.089111 " transform="matrix(1,0,0,-1,41.91682,66.38208)"/>
</g>
<g clip-path="url(#clip40)" clip-rule="nonzero">
<path style="fill:none;stroke-width:0.3985;stroke-linecap:butt;stroke-linejoin:miter;stroke:rgb(100%,0%,0%);stroke-opacity:1;stroke-miterlimit:10;" d="M 3.086538 -0.0007325 L 0.0006 3.089111 M 0.0006 -0.0007325 L 3.086538 3.089111 " transform="matrix(1,0,0,-1,44.90565,66.38208)"/>
</g>
<g clip-path="url(#clip41)" clip-rule="nonzero">
<path style="fill:none;stroke-width:0.3985;stroke-linecap:butt;stroke-linejoin:miter;stroke:rgb(100%,0%,0%);stroke-opacity:1;stroke-miterlimit:10;" d="M 3.089895 -0.0007325 L 0.00005125 3.089111 M 0.00005125 -0.0007325 L 3.089895 3.089111 " transform="matrix(1,0,0,-1,47.89448,66.38208)"/>
</g>
<g clip-path="url(#clip42)" clip-rule="nonzero">
<path style="fill:none;stroke-width:0.3985;stroke-linecap:butt;stroke-linejoin:miter;stroke:rgb(100%,0%,0%);stroke-opacity:1;stroke-miterlimit:10;" d="M 3.089346 -0.0007325 L -0.0004975 3.089111 M -0.0004975 -0.0007325 L 3.089346 3.089111 " transform="matrix(1,0,0,-1,50.88331,66.38208)"/>
</g>
<g clip-path="url(#clip43)" clip-rule="nonzero">
<path style="fill:none;stroke-width:0.3985;stroke-linecap:butt;stroke-linejoin:miter;stroke:rgb(100%,0%,0%);stroke-opacity:1;stroke-miterlimit:10;" d="M 3.088797 -0.0007325 L -0.00104625 3.089111 M -0.00104625 -0.0007325 L 3.088797 3.089111 " transform="matrix(1,0,0,-1,53.87214,66.38208)"/>
</g>
<g clip-path="url(#clip44)" clip-rule="nonzero">
<path style="fill:none;stroke-width:0.3985;stroke-linecap:butt;stroke-linejoin:miter;stroke:rgb(100%,0%,0%);stroke-opacity:1;stroke-miterlimit:10;" d="M 3.088249 -0.0007325 L -0.001595 3.089111 M -0.001595 -0.0007325 L 3.088249 3.089111 " transform="matrix(1,0,0,-1,56.86097,66.38208)"/>
</g>
<g clip-path="url(#clip45)" clip-rule="nonzero">
<path style="fill:none;stroke-width:0.3985;stroke-linecap:butt;stroke-linejoin:miter;stroke:rgb(100%,0%,0%);stroke-opacity:1;stroke-miterlimit:10;" d="M 3.0877 -0.0007325 L 0.0017625 3.089111 M 0.0017625 -0.0007325 L 3.0877 3.089111 " transform="matrix(1,0,0,-1,59.8498,66.38208)"/>
</g>
<g clip-path="url(#clip46)" clip-rule="nonzero">
<path style="fill:none;stroke-width:0.3985;stroke-linecap:butt;stroke-linejoin:miter;stroke:rgb(100%,0%,0%);stroke-opacity:1;stroke-miterlimit:10;" d="M 3.087151 -0.0007325 L 0.00121375 3.089111 M 0.00121375 -0.0007325 L 3.087151 3.089111 " transform="matrix(1,0,0,-1,62.83863,66.38208)"/>
</g>
<g clip-path="url(#clip47)" clip-rule="nonzero">
<path style="fill:none;stroke-width:0.3985;stroke-linecap:butt;stroke-linejoin:miter;stroke:rgb(100%,0%,0%);stroke-opacity:1;stroke-miterlimit:10;" d="M 3.086603 -0.0007325 L 0.000665 3.089111 M 0.000665 -0.0007325 L 3.086603 3.089111 " transform="matrix(1,0,0,-1,65.82746,66.38208)"/>
</g>
<g clip-path="url(#clip48)" clip-rule="nonzero">
<path style="fill:none;stroke-width:0.3985;stroke-linecap:butt;stroke-linejoin:miter;stroke:rgb(100%,0%,0%);stroke-opacity:1;stroke-miterlimit:10;" d="M 3.08996 -0.0007325 L 0.00011625 3.089111 M 0.00011625 -0.0007325 L 3.08996 3.089111 " transform="matrix(1,0,0,-1,68.81629,66.38208)"/>
</g>
<g clip-path="url(#clip49)" clip-rule="nonzero">
<path style="fill:none;stroke-width:0.3985;stroke-linecap:butt;stroke-linejoin:miter;stroke:rgb(100%,0%,0%);stroke-opacity:1;stroke-miterlimit:10;" d="M 3.089411 -0.0007325 L -0.0004325 3.089111 M -0.0004325 -0.0007325 L 3.089411 3.089111 " transform="matrix(1,0,0,-1,71.80512,66.38208)"/>
</g>
<g clip-path="url(#clip50)" clip-rule="nonzero">
<path style="fill:none;stroke-width:0.3985;stroke-linecap:butt;stroke-linejoin:miter;stroke:rgb(100%,0%,0%);stroke-opacity:1;stroke-miterlimit:10;" d="M 3.088862 -0.0007325 L -0.00098125 3.089111 M -0.00098125 -0.0007325 L 3.088862 3.089111 " transform="matrix(1,0,0,-1,74.79395,66.38208)"/>
</g>
<g clip-path="url(#clip51)" clip-rule="nonzero">
<path style="fill:none;stroke-width:0.3985;stroke-linecap:butt;stroke-linejoin:miter;stroke:rgb(100%,0%,0%);stroke-opacity:1;stroke-miterlimit:10;" d="M 3.088314 -0.0007325 L -0.00153 3.089111 M -0.00153 -0.0007325 L 3.088314 3.089111 " transform="matrix(1,0,0,-1,77.78278,66.38208)"/>
</g>
<g clip-path="url(#clip52)" clip-rule="nonzero">
<path style="fill:none;stroke-width:0.3985;stroke-linecap:butt;stroke-linejoin:miter;stroke:rgb(100%,0%,0%);stroke-opacity:1;stroke-miterlimit:10;" d="M 3.087765 -0.0007325 L 0.0018275 3.089111 M 0.0018275 -0.0007325 L 3.087765 3.089111 " transform="matrix(1,0,0,-1,80.77161,66.38208)"/>
</g>
<g clip-path="url(#clip53)" clip-rule="nonzero">
<path style="fill:none;stroke-width:0.3985;stroke-linecap:butt;stroke-linejoin:miter;stroke:rgb(100%,0%,0%);stroke-opacity:1;stroke-miterlimit:10;" d="M 3.087216 -0.0007325 L 0.00127875 3.089111 M 0.00127875 -0.0007325 L 3.087216 3.089111 " transform="matrix(1,0,0,-1,83.76044,66.38208)"/>
</g>
<g clip-path="url(#clip54)" clip-rule="nonzero">
<path style="fill:none;stroke-width:0.3985;stroke-linecap:butt;stroke-linejoin:miter;stroke:rgb(100%,0%,0%);stroke-opacity:1;stroke-miterlimit:10;" d="M 3.086667 -0.0007325 L 0.00073 3.089111 M 0.00073 -0.0007325 L 3.086667 3.089111 " transform="matrix(1,0,0,-1,86.74927,66.38208)"/>
</g>
<g clip-path="url(#clip55)" clip-rule="nonzero">
<path style="fill:none;stroke-width:0.3985;stroke-linecap:butt;stroke-linejoin:miter;stroke:rgb(100%,0%,0%);stroke-opacity:1;stroke-miterlimit:10;" d="M 3.090025 -0.0007325 L 0.00018125 3.089111 M 0.00018125 -0.0007325 L 3.090025 3.089111 " transform="matrix(1,0,0,-1,89.7381,66.38208)"/>
</g>
<g clip-path="url(#clip56)" clip-rule="nonzero">
<path style="fill:none;stroke-width:0.3985;stroke-linecap:butt;stroke-linejoin:miter;stroke:rgb(100%,0%,0%);stroke-opacity:1;stroke-miterlimit:10;" d="M 3.089476 -0.0007325 L -0.0003675 3.089111 M -0.0003675 -0.0007325 L 3.089476 3.089111 " transform="matrix(1,0,0,-1,92.72693,66.38208)"/>
</g>
<g clip-path="url(#clip57)" clip-rule="nonzero">
<path style="fill:none;stroke-width:0.3985;stroke-linecap:butt;stroke-linejoin:miter;stroke:rgb(100%,0%,0%);stroke-opacity:1;stroke-miterlimit:10;" d="M 3.088927 -0.0007325 L -0.00091625 3.089111 M -0.00091625 -0.0007325 L 3.088927 3.089111 " transform="matrix(1,0,0,-1,95.71576,66.38208)"/>
</g>
<g clip-path="url(#clip58)" clip-rule="nonzero">
<path style="fill:none;stroke-width:0.3985;stroke-linecap:butt;stroke-linejoin:miter;stroke:rgb(100%,0%,0%);stroke-opacity:1;stroke-miterlimit:10;" d="M 3.088379 -0.0007325 L -0.001465 3.089111 M -0.001465 -0.0007325 L 3.088379 3.089111 " transform="matrix(1,0,0,-1,98.70459,66.38208)"/>
</g>
<g clip-path="url(#clip59)" clip-rule="nonzero">
<path style="fill:none;stroke-width:0.3985;stroke-linecap:butt;stroke-linejoin:miter;stroke:rgb(100%,0%,0%);stroke-opacity:1;stroke-miterlimit:10;" d="M 3.08783 -0.0007325 L 0.0018925 3.089111 M 0.0018925 -0.0007325 L 3.08783 3.089111 " transform="matrix(1,0,0,-1,101.69342,66.38208)"/>
</g>
<g clip-path="url(#clip60)" clip-rule="nonzero">
<path style="fill:none;stroke-width:0.3985;stroke-linecap:butt;stroke-linejoin:miter;stroke:rgb(100%,0%,0%);stroke-opacity:1;stroke-miterlimit:10;" d="M 3.087281 -0.0007325 L 0.00134375 3.089111 M 0.00134375 -0.0007325 L 3.087281 3.089111 " transform="matrix(1,0,0,-1,104.68225,66.38208)"/>
</g>
<g clip-path="url(#clip61)" clip-rule="nonzero">
<path style="fill:none;stroke-width:0.3985;stroke-linecap:butt;stroke-linejoin:miter;stroke:rgb(100%,0%,0%);stroke-opacity:1;stroke-miterlimit:10;" d="M 3.086732 -0.0007325 L 0.000795 3.089111 M 0.000795 -0.0007325 L 3.086732 3.089111 " transform="matrix(1,0,0,-1,107.67108,66.38208)"/>
</g>
<g clip-path="url(#clip62)" clip-rule="nonzero">
<path style="fill:none;stroke-width:0.3985;stroke-linecap:butt;stroke-linejoin:miter;stroke:rgb(100%,0%,0%);stroke-opacity:1;stroke-miterlimit:10;" d="M 3.087021 -0.00128125 L 0.00108375 3.088562 M 0.00108375 -0.00128125 L 3.087021 3.088562 " transform="matrix(1,0,0,-1,20.99501,63.39325)"/>
</g>
<g clip-path="url(#clip63)" clip-rule="nonzero">
<path style="fill:none;stroke-width:0.3985;stroke-linecap:butt;stroke-linejoin:miter;stroke:rgb(100%,0%,0%);stroke-opacity:1;stroke-miterlimit:10;" d="M 3.090379 -0.00128125 L 0.000535 3.088562 M 0.000535 -0.00128125 L 3.090379 3.088562 " transform="matrix(1,0,0,-1,23.98384,63.39325)"/>
</g>
<g clip-path="url(#clip64)" clip-rule="nonzero">
<path style="fill:none;stroke-width:0.3985;stroke-linecap:butt;stroke-linejoin:miter;stroke:rgb(100%,0%,0%);stroke-opacity:1;stroke-miterlimit:10;" d="M 3.08983 -0.00128125 L -0.00001375 3.088562 M -0.00001375 -0.00128125 L 3.08983 3.088562 " transform="matrix(1,0,0,-1,26.97267,63.39325)"/>
</g>
<g clip-path="url(#clip65)" clip-rule="nonzero">
<path style="fill:none;stroke-width:0.3985;stroke-linecap:butt;stroke-linejoin:miter;stroke:rgb(100%,0%,0%);stroke-opacity:1;stroke-miterlimit:10;" d="M 3.089281 -0.00128125 L -0.0005625 3.088562 M -0.0005625 -0.00128125 L 3.089281 3.088562 " transform="matrix(1,0,0,-1,29.9615,63.39325)"/>
</g>
<g clip-path="url(#clip66)" clip-rule="nonzero">
<path style="fill:none;stroke-width:0.3985;stroke-linecap:butt;stroke-linejoin:miter;stroke:rgb(100%,0%,0%);stroke-opacity:1;stroke-miterlimit:10;" d="M 3.088733 -0.00128125 L -0.00111125 3.088562 M -0.00111125 -0.00128125 L 3.088733 3.088562 " transform="matrix(1,0,0,-1,32.95033,63.39325)"/>
</g>
<g clip-path="url(#clip67)" clip-rule="nonzero">
<path style="fill:none;stroke-width:0.3985;stroke-linecap:butt;stroke-linejoin:miter;stroke:rgb(100%,0%,0%);stroke-opacity:1;stroke-miterlimit:10;" d="M 3.088184 -0.00128125 L -0.00166 3.088562 M -0.00166 -0.00128125 L 3.088184 3.088562 " transform="matrix(1,0,0,-1,35.93916,63.39325)"/>
</g>
<g clip-path="url(#clip68)" clip-rule="nonzero">
<path style="fill:none;stroke-width:0.3985;stroke-linecap:butt;stroke-linejoin:miter;stroke:rgb(100%,0%,0%);stroke-opacity:1;stroke-miterlimit:10;" d="M 3.087635 -0.00128125 L 0.0016975 3.088562 M 0.0016975 -0.00128125 L 3.087635 3.088562 " transform="matrix(1,0,0,-1,38.92799,63.39325)"/>
</g>
<g clip-path="url(#clip69)" clip-rule="nonzero">
<path style="fill:none;stroke-width:0.3985;stroke-linecap:butt;stroke-linejoin:miter;stroke:rgb(100%,0%,0%);stroke-opacity:1;stroke-miterlimit:10;" d="M 3.087086 -0.00128125 L 0.00114875 3.088562 M 0.00114875 -0.00128125 L 3.087086 3.088562 " transform="matrix(1,0,0,-1,41.91682,63.39325)"/>
</g>
<g clip-path="url(#clip70)" clip-rule="nonzero">
<path style="fill:none;stroke-width:0.3985;stroke-linecap:butt;stroke-linejoin:miter;stroke:rgb(100%,0%,0%);stroke-opacity:1;stroke-miterlimit:10;" d="M 3.086538 -0.00128125 L 0.0006 3.088562 M 0.0006 -0.00128125 L 3.086538 3.088562 " transform="matrix(1,0,0,-1,44.90565,63.39325)"/>
</g>
<g clip-path="url(#clip71)" clip-rule="nonzero">
<path style="fill:none;stroke-width:0.3985;stroke-linecap:butt;stroke-linejoin:miter;stroke:rgb(100%,0%,0%);stroke-opacity:1;stroke-miterlimit:10;" d="M 3.089895 -0.00128125 L 0.00005125 3.088562 M 0.00005125 -0.00128125 L 3.089895 3.088562 " transform="matrix(1,0,0,-1,47.89448,63.39325)"/>
</g>
<g clip-path="url(#clip72)" clip-rule="nonzero">
<path style="fill:none;stroke-width:0.3985;stroke-linecap:butt;stroke-linejoin:miter;stroke:rgb(100%,0%,0%);stroke-opacity:1;stroke-miterlimit:10;" d="M 3.089346 -0.00128125 L -0.0004975 3.088562 M -0.0004975 -0.00128125 L 3.089346 3.088562 " transform="matrix(1,0,0,-1,50.88331,63.39325)"/>
</g>
<g clip-path="url(#clip73)" clip-rule="nonzero">
<path style="fill:none;stroke-width:0.3985;stroke-linecap:butt;stroke-linejoin:miter;stroke:rgb(100%,0%,0%);stroke-opacity:1;stroke-miterlimit:10;" d="M 3.088797 -0.00128125 L -0.00104625 3.088562 M -0.00104625 -0.00128125 L 3.088797 3.088562 " transform="matrix(1,0,0,-1,53.87214,63.39325)"/>
</g>
<g clip-path="url(#clip74)" clip-rule="nonzero">
<path style="fill:none;stroke-width:0.3985;stroke-linecap:butt;stroke-linejoin:miter;stroke:rgb(100%,0%,0%);stroke-opacity:1;stroke-miterlimit:10;" d="M 3.088249 -0.00128125 L -0.001595 3.088562 M -0.001595 -0.00128125 L 3.088249 3.088562 " transform="matrix(1,0,0,-1,56.86097,63.39325)"/>
</g>
<g clip-path="url(#clip75)" clip-rule="nonzero">
<path style="fill:none;stroke-width:0.3985;stroke-linecap:butt;stroke-linejoin:miter;stroke:rgb(100%,0%,0%);stroke-opacity:1;stroke-miterlimit:10;" d="M 3.0877 -0.00128125 L 0.0017625 3.088562 M 0.0017625 -0.00128125 L 3.0877 3.088562 " transform="matrix(1,0,0,-1,59.8498,63.39325)"/>
</g>
<g clip-path="url(#clip76)" clip-rule="nonzero">
<path style="fill:none;stroke-width:0.3985;stroke-linecap:butt;stroke-linejoin:miter;stroke:rgb(100%,0%,0%);stroke-opacity:1;stroke-miterlimit:10;" d="M 3.087151 -0.00128125 L 0.00121375 3.088562 M 0.00121375 -0.00128125 L 3.087151 3.088562 " transform="matrix(1,0,0,-1,62.83863,63.39325)"/>
</g>
<g clip-path="url(#clip77)" clip-rule="nonzero">
<path style="fill:none;stroke-width:0.3985;stroke-linecap:butt;stroke-linejoin:miter;stroke:rgb(100%,0%,0%);stroke-opacity:1;stroke-miterlimit:10;" d="M 3.086603 -0.00128125 L 0.000665 3.088562 M 0.000665 -0.00128125 L 3.086603 3.088562 " transform="matrix(1,0,0,-1,65.82746,63.39325)"/>
</g>
<g clip-path="url(#clip78)" clip-rule="nonzero">
<path style="fill:none;stroke-width:0.3985;stroke-linecap:butt;stroke-linejoin:miter;stroke:rgb(100%,0%,0%);stroke-opacity:1;stroke-miterlimit:10;" d="M 3.08996 -0.00128125 L 0.00011625 3.088562 M 0.00011625 -0.00128125 L 3.08996 3.088562 " transform="matrix(1,0,0,-1,68.81629,63.39325)"/>
</g>
<g clip-path="url(#clip79)" clip-rule="nonzero">
<path style="fill:none;stroke-width:0.3985;stroke-linecap:butt;stroke-linejoin:miter;stroke:rgb(100%,0%,0%);stroke-opacity:1;stroke-miterlimit:10;" d="M 3.089411 -0.00128125 L -0.0004325 3.088562 M -0.0004325 -0.00128125 L 3.089411 3.088562 " transform="matrix(1,0,0,-1,71.80512,63.39325)"/>
</g>
<g clip-path="url(#clip80)" clip-rule="nonzero">
<path style="fill:none;stroke-width:0.3985;stroke-linecap:butt;stroke-linejoin:miter;stroke:rgb(100%,0%,0%);stroke-opacity:1;stroke-miterlimit:10;" d="M 3.088862 -0.00128125 L -0.00098125 3.088562 M -0.00098125 -0.00128125 L 3.088862 3.088562 " transform="matrix(1,0,0,-1,74.79395,63.39325)"/>
</g>
<g clip-path="url(#clip81)" clip-rule="nonzero">
<path style="fill:none;stroke-width:0.3985;stroke-linecap:butt;stroke-linejoin:miter;stroke:rgb(100%,0%,0%);stroke-opacity:1;stroke-miterlimit:10;" d="M 3.088314 -0.00128125 L -0.00153 3.088562 M -0.00153 -0.00128125 L 3.088314 3.088562 " transform="matrix(1,0,0,-1,77.78278,63.39325)"/>
</g>
<g clip-path="url(#clip82)" clip-rule="nonzero">
<path style="fill:none;stroke-width:0.3985;stroke-linecap:butt;stroke-linejoin:miter;stroke:rgb(100%,0%,0%);stroke-opacity:1;stroke-miterlimit:10;" d="M 3.087765 -0.00128125 L 0.0018275 3.088562 M 0.0018275 -0.00128125 L 3.087765 3.088562 " transform="matrix(1,0,0,-1,80.77161,63.39325)"/>
</g>
<g clip-path="url(#clip83)" clip-rule="nonzero">
<path style="fill:none;stroke-width:0.3985;stroke-linecap:butt;stroke-linejoin:miter;stroke:rgb(100%,0%,0%);stroke-opacity:1;stroke-miterlimit:10;" d="M 3.087216 -0.00128125 L 0.00127875 3.088562 M 0.00127875 -0.00128125 L 3.087216 3.088562 " transform="matrix(1,0,0,-1,83.76044,63.39325)"/>
</g>
<g clip-path="url(#clip84)" clip-rule="nonzero">
<path style="fill:none;stroke-width:0.3985;stroke-linecap:butt;stroke-linejoin:miter;stroke:rgb(100%,0%,0%);stroke-opacity:1;stroke-miterlimit:10;" d="M 3.086667 -0.00128125 L 0.00073 3.088562 M 0.00073 -0.00128125 L 3.086667 3.088562 " transform="matrix(1,0,0,-1,86.74927,63.39325)"/>
</g>
<g clip-path="url(#clip85)" clip-rule="nonzero">
<path style="fill:none;stroke-width:0.3985;stroke-linecap:butt;stroke-linejoin:miter;stroke:rgb(100%,0%,0%);stroke-opacity:1;stroke-miterlimit:10;" d="M 3.090025 -0.00128125 L 0.00018125 3.088562 M 0.00018125 -0.00128125 L 3.090025 3.088562 " transform="matrix(1,0,0,-1,89.7381,63.39325)"/>
</g>
<g clip-path="url(#clip86)" clip-rule="nonzero">
<path style="fill:none;stroke-width:0.3985;stroke-linecap:butt;stroke-linejoin:miter;stroke:rgb(100%,0%,0%);stroke-opacity:1;stroke-miterlimit:10;" d="M 3.089476 -0.00128125 L -0.0003675 3.088562 M -0.0003675 -0.00128125 L 3.089476 3.088562 " transform="matrix(1,0,0,-1,92.72693,63.39325)"/>
</g>
<g clip-path="url(#clip87)" clip-rule="nonzero">
<path style="fill:none;stroke-width:0.3985;stroke-linecap:butt;stroke-linejoin:miter;stroke:rgb(100%,0%,0%);stroke-opacity:1;stroke-miterlimit:10;" d="M 3.088927 -0.00128125 L -0.00091625 3.088562 M -0.00091625 -0.00128125 L 3.088927 3.088562 " transform="matrix(1,0,0,-1,95.71576,63.39325)"/>
</g>
<g clip-path="url(#clip88)" clip-rule="nonzero">
<path style="fill:none;stroke-width:0.3985;stroke-linecap:butt;stroke-linejoin:miter;stroke:rgb(100%,0%,0%);stroke-opacity:1;stroke-miterlimit:10;" d="M 3.088379 -0.00128125 L -0.001465 3.088562 M -0.001465 -0.00128125 L 3.088379 3.088562 " transform="matrix(1,0,0,-1,98.70459,63.39325)"/>
</g>
<g clip-path="url(#clip89)" clip-rule="nonzero">
<path style="fill:none;stroke-width:0.3985;stroke-linecap:butt;stroke-linejoin:miter;stroke:rgb(100%,0%,0%);stroke-opacity:1;stroke-miterlimit:10;" d="M 3.08783 -0.00128125 L 0.0018925 3.088562 M 0.0018925 -0.00128125 L 3.08783 3.088562 " transform="matrix(1,0,0,-1,101.69342,63.39325)"/>
</g>
<g clip-path="url(#clip90)" clip-rule="nonzero">
<path style="fill:none;stroke-width:0.3985;stroke-linecap:butt;stroke-linejoin:miter;stroke:rgb(100%,0%,0%);stroke-opacity:1;stroke-miterlimit:10;" d="M 3.087281 -0.00128125 L 0.00134375 3.088562 M 0.00134375 -0.00128125 L 3.087281 3.088562 " transform="matrix(1,0,0,-1,104.68225,63.39325)"/>
</g>
<g clip-path="url(#clip91)" clip-rule="nonzero">
<path style="fill:none;stroke-width:0.3985;stroke-linecap:butt;stroke-linejoin:miter;stroke:rgb(100%,0%,0%);stroke-opacity:1;stroke-miterlimit:10;" d="M 3.086732 -0.00128125 L 0.000795 3.088562 M 0.000795 -0.00128125 L 3.086732 3.088562 " transform="matrix(1,0,0,-1,107.67108,63.39325)"/>
</g>
<g clip-path="url(#clip92)" clip-rule="nonzero">
<path style="fill:none;stroke-width:0.3985;stroke-linecap:butt;stroke-linejoin:miter;stroke:rgb(100%,0%,0%);stroke-opacity:1;stroke-miterlimit:10;" d="M 3.087021 -0.00183 L 0.00108375 3.088014 M 0.00108375 -0.00183 L 3.087021 3.088014 " transform="matrix(1,0,0,-1,20.99501,60.40442)"/>
</g>
<g clip-path="url(#clip93)" clip-rule="nonzero">
<path style="fill:none;stroke-width:0.3985;stroke-linecap:butt;stroke-linejoin:miter;stroke:rgb(100%,0%,0%);stroke-opacity:1;stroke-miterlimit:10;" d="M 3.090379 -0.00183 L 0.000535 3.088014 M 0.000535 -0.00183 L 3.090379 3.088014 " transform="matrix(1,0,0,-1,23.98384,60.40442)"/>
</g>
<g clip-path="url(#clip94)" clip-rule="nonzero">
<path style="fill:none;stroke-width:0.3985;stroke-linecap:butt;stroke-linejoin:miter;stroke:rgb(100%,0%,0%);stroke-opacity:1;stroke-miterlimit:10;" d="M 3.08983 -0.00183 L -0.00001375 3.088014 M -0.00001375 -0.00183 L 3.08983 3.088014 " transform="matrix(1,0,0,-1,26.97267,60.40442)"/>
</g>
<g clip-path="url(#clip95)" clip-rule="nonzero">
<path style="fill:none;stroke-width:0.3985;stroke-linecap:butt;stroke-linejoin:miter;stroke:rgb(100%,0%,0%);stroke-opacity:1;stroke-miterlimit:10;" d="M 3.089281 -0.00183 L -0.0005625 3.088014 M -0.0005625 -0.00183 L 3.089281 3.088014 " transform="matrix(1,0,0,-1,29.9615,60.40442)"/>
</g>
<g clip-path="url(#clip96)" clip-rule="nonzero">
<path style="fill:none;stroke-width:0.3985;stroke-linecap:butt;stroke-linejoin:miter;stroke:rgb(100%,0%,0%);stroke-opacity:1;stroke-miterlimit:10;" d="M 3.088733 -0.00183 L -0.00111125 3.088014 M -0.00111125 -0.00183 L 3.088733 3.088014 " transform="matrix(1,0,0,-1,32.95033,60.40442)"/>
</g>
<g clip-path="url(#clip97)" clip-rule="nonzero">
<path style="fill:none;stroke-width:0.3985;stroke-linecap:butt;stroke-linejoin:miter;stroke:rgb(100%,0%,0%);stroke-opacity:1;stroke-miterlimit:10;" d="M 3.088184 -0.00183 L -0.00166 3.088014 M -0.00166 -0.00183 L 3.088184 3.088014 " transform="matrix(1,0,0,-1,35.93916,60.40442)"/>
</g>
<g clip-path="url(#clip98)" clip-rule="nonzero">
<path style="fill:none;stroke-width:0.3985;stroke-linecap:butt;stroke-linejoin:miter;stroke:rgb(100%,0%,0%);stroke-opacity:1;stroke-miterlimit:10;" d="M 3.087635 -0.00183 L 0.0016975 3.088014 M 0.0016975 -0.00183 L 3.087635 3.088014 " transform="matrix(1,0,0,-1,38.92799,60.40442)"/>
</g>
<g clip-path="url(#clip99)" clip-rule="nonzero">
<path style="fill:none;stroke-width:0.3985;stroke-linecap:butt;stroke-linejoin:miter;stroke:rgb(100%,0%,0%);stroke-opacity:1;stroke-miterlimit:10;" d="M 3.087086 -0.00183 L 0.00114875 3.088014 M 0.00114875 -0.00183 L 3.087086 3.088014 " transform="matrix(1,0,0,-1,41.91682,60.40442)"/>
</g>
<g clip-path="url(#clip100)" clip-rule="nonzero">
<path style="fill:none;stroke-width:0.3985;stroke-linecap:butt;stroke-linejoin:miter;stroke:rgb(100%,0%,0%);stroke-opacity:1;stroke-miterlimit:10;" d="M 3.086538 -0.00183 L 0.0006 3.088014 M 0.0006 -0.00183 L 3.086538 3.088014 " transform="matrix(1,0,0,-1,44.90565,60.40442)"/>
</g>
<g clip-path="url(#clip101)" clip-rule="nonzero">
<path style="fill:none;stroke-width:0.3985;stroke-linecap:butt;stroke-linejoin:miter;stroke:rgb(100%,0%,0%);stroke-opacity:1;stroke-miterlimit:10;" d="M 3.089895 -0.00183 L 0.00005125 3.088014 M 0.00005125 -0.00183 L 3.089895 3.088014 " transform="matrix(1,0,0,-1,47.89448,60.40442)"/>
</g>
<g clip-path="url(#clip102)" clip-rule="nonzero">
<path style="fill:none;stroke-width:0.3985;stroke-linecap:butt;stroke-linejoin:miter;stroke:rgb(100%,0%,0%);stroke-opacity:1;stroke-miterlimit:10;" d="M 3.089346 -0.00183 L -0.0004975 3.088014 M -0.0004975 -0.00183 L 3.089346 3.088014 " transform="matrix(1,0,0,-1,50.88331,60.40442)"/>
</g>
<g clip-path="url(#clip103)" clip-rule="nonzero">
<path style="fill:none;stroke-width:0.3985;stroke-linecap:butt;stroke-linejoin:miter;stroke:rgb(100%,0%,0%);stroke-opacity:1;stroke-miterlimit:10;" d="M 3.088797 -0.00183 L -0.00104625 3.088014 M -0.00104625 -0.00183 L 3.088797 3.088014 " transform="matrix(1,0,0,-1,53.87214,60.40442)"/>
</g>
<g clip-path="url(#clip104)" clip-rule="nonzero">
<path style="fill:none;stroke-width:0.3985;stroke-linecap:butt;stroke-linejoin:miter;stroke:rgb(100%,0%,0%);stroke-opacity:1;stroke-miterlimit:10;" d="M 3.088249 -0.00183 L -0.001595 3.088014 M -0.001595 -0.00183 L 3.088249 3.088014 " transform="matrix(1,0,0,-1,56.86097,60.40442)"/>
</g>
<g clip-path="url(#clip105)" clip-rule="nonzero">
<path style="fill:none;stroke-width:0.3985;stroke-linecap:butt;stroke-linejoin:miter;stroke:rgb(100%,0%,0%);stroke-opacity:1;stroke-miterlimit:10;" d="M 3.0877 -0.00183 L 0.0017625 3.088014 M 0.0017625 -0.00183 L 3.0877 3.088014 " transform="matrix(1,0,0,-1,59.8498,60.40442)"/>
</g>
<g clip-path="url(#clip106)" clip-rule="nonzero">
<path style="fill:none;stroke-width:0.3985;stroke-linecap:butt;stroke-linejoin:miter;stroke:rgb(100%,0%,0%);stroke-opacity:1;stroke-miterlimit:10;" d="M 3.087151 -0.00183 L 0.00121375 3.088014 M 0.00121375 -0.00183 L 3.087151 3.088014 " transform="matrix(1,0,0,-1,62.83863,60.40442)"/>
</g>
<g clip-path="url(#clip107)" clip-rule="nonzero">
<path style="fill:none;stroke-width:0.3985;stroke-linecap:butt;stroke-linejoin:miter;stroke:rgb(100%,0%,0%);stroke-opacity:1;stroke-miterlimit:10;" d="M 3.086603 -0.00183 L 0.000665 3.088014 M 0.000665 -0.00183 L 3.086603 3.088014 " transform="matrix(1,0,0,-1,65.82746,60.40442)"/>
</g>
<g clip-path="url(#clip108)" clip-rule="nonzero">
<path style="fill:none;stroke-width:0.3985;stroke-linecap:butt;stroke-linejoin:miter;stroke:rgb(100%,0%,0%);stroke-opacity:1;stroke-miterlimit:10;" d="M 3.08996 -0.00183 L 0.00011625 3.088014 M 0.00011625 -0.00183 L 3.08996 3.088014 " transform="matrix(1,0,0,-1,68.81629,60.40442)"/>
</g>
<g clip-path="url(#clip109)" clip-rule="nonzero">
<path style="fill:none;stroke-width:0.3985;stroke-linecap:butt;stroke-linejoin:miter;stroke:rgb(100%,0%,0%);stroke-opacity:1;stroke-miterlimit:10;" d="M 3.089411 -0.00183 L -0.0004325 3.088014 M -0.0004325 -0.00183 L 3.089411 3.088014 " transform="matrix(1,0,0,-1,71.80512,60.40442)"/>
</g>
<g clip-path="url(#clip110)" clip-rule="nonzero">
<path style="fill:none;stroke-width:0.3985;stroke-linecap:butt;stroke-linejoin:miter;stroke:rgb(100%,0%,0%);stroke-opacity:1;stroke-miterlimit:10;" d="M 3.088862 -0.00183 L -0.00098125 3.088014 M -0.00098125 -0.00183 L 3.088862 3.088014 " transform="matrix(1,0,0,-1,74.79395,60.40442)"/>
</g>
<g clip-path="url(#clip111)" clip-rule="nonzero">
<path style="fill:none;stroke-width:0.3985;stroke-linecap:butt;stroke-linejoin:miter;stroke:rgb(100%,0%,0%);stroke-opacity:1;stroke-miterlimit:10;" d="M 3.088314 -0.00183 L -0.00153 3.088014 M -0.00153 -0.00183 L 3.088314 3.088014 " transform="matrix(1,0,0,-1,77.78278,60.40442)"/>
</g>
<g clip-path="url(#clip112)" clip-rule="nonzero">
<path style="fill:none;stroke-width:0.3985;stroke-linecap:butt;stroke-linejoin:miter;stroke:rgb(100%,0%,0%);stroke-opacity:1;stroke-miterlimit:10;" d="M 3.087765 -0.00183 L 0.0018275 3.088014 M 0.0018275 -0.00183 L 3.087765 3.088014 " transform="matrix(1,0,0,-1,80.77161,60.40442)"/>
</g>
<g clip-path="url(#clip113)" clip-rule="nonzero">
<path style="fill:none;stroke-width:0.3985;stroke-linecap:butt;stroke-linejoin:miter;stroke:rgb(100%,0%,0%);stroke-opacity:1;stroke-miterlimit:10;" d="M 3.087216 -0.00183 L 0.00127875 3.088014 M 0.00127875 -0.00183 L 3.087216 3.088014 " transform="matrix(1,0,0,-1,83.76044,60.40442)"/>
</g>
<g clip-path="url(#clip114)" clip-rule="nonzero">
<path style="fill:none;stroke-width:0.3985;stroke-linecap:butt;stroke-linejoin:miter;stroke:rgb(100%,0%,0%);stroke-opacity:1;stroke-miterlimit:10;" d="M 3.086667 -0.00183 L 0.00073 3.088014 M 0.00073 -0.00183 L 3.086667 3.088014 " transform="matrix(1,0,0,-1,86.74927,60.40442)"/>
</g>
<g clip-path="url(#clip115)" clip-rule="nonzero">
<path style="fill:none;stroke-width:0.3985;stroke-linecap:butt;stroke-linejoin:miter;stroke:rgb(100%,0%,0%);stroke-opacity:1;stroke-miterlimit:10;" d="M 3.090025 -0.00183 L 0.00018125 3.088014 M 0.00018125 -0.00183 L 3.090025 3.088014 " transform="matrix(1,0,0,-1,89.7381,60.40442)"/>
</g>
<g clip-path="url(#clip116)" clip-rule="nonzero">
<path style="fill:none;stroke-width:0.3985;stroke-linecap:butt;stroke-linejoin:miter;stroke:rgb(100%,0%,0%);stroke-opacity:1;stroke-miterlimit:10;" d="M 3.089476 -0.00183 L -0.0003675 3.088014 M -0.0003675 -0.00183 L 3.089476 3.088014 " transform="matrix(1,0,0,-1,92.72693,60.40442)"/>
</g>
<g clip-path="url(#clip117)" clip-rule="nonzero">
<path style="fill:none;stroke-width:0.3985;stroke-linecap:butt;stroke-linejoin:miter;stroke:rgb(100%,0%,0%);stroke-opacity:1;stroke-miterlimit:10;" d="M 3.088927 -0.00183 L -0.00091625 3.088014 M -0.00091625 -0.00183 L 3.088927 3.088014 " transform="matrix(1,0,0,-1,95.71576,60.40442)"/>
</g>
<g clip-path="url(#clip118)" clip-rule="nonzero">
<path style="fill:none;stroke-width:0.3985;stroke-linecap:butt;stroke-linejoin:miter;stroke:rgb(100%,0%,0%);stroke-opacity:1;stroke-miterlimit:10;" d="M 3.088379 -0.00183 L -0.001465 3.088014 M -0.001465 -0.00183 L 3.088379 3.088014 " transform="matrix(1,0,0,-1,98.70459,60.40442)"/>
</g>
<g clip-path="url(#clip119)" clip-rule="nonzero">
<path style="fill:none;stroke-width:0.3985;stroke-linecap:butt;stroke-linejoin:miter;stroke:rgb(100%,0%,0%);stroke-opacity:1;stroke-miterlimit:10;" d="M 3.08783 -0.00183 L 0.0018925 3.088014 M 0.0018925 -0.00183 L 3.08783 3.088014 " transform="matrix(1,0,0,-1,101.69342,60.40442)"/>
</g>
<g clip-path="url(#clip120)" clip-rule="nonzero">
<path style="fill:none;stroke-width:0.3985;stroke-linecap:butt;stroke-linejoin:miter;stroke:rgb(100%,0%,0%);stroke-opacity:1;stroke-miterlimit:10;" d="M 3.087281 -0.00183 L 0.00134375 3.088014 M 0.00134375 -0.00183 L 3.087281 3.088014 " transform="matrix(1,0,0,-1,104.68225,60.40442)"/>
</g>
<g clip-path="url(#clip121)" clip-rule="nonzero">
<path style="fill:none;stroke-width:0.3985;stroke-linecap:butt;stroke-linejoin:miter;stroke:rgb(100%,0%,0%);stroke-opacity:1;stroke-miterlimit:10;" d="M 3.086732 -0.00183 L 0.000795 3.088014 M 0.000795 -0.00183 L 3.086732 3.088014 " transform="matrix(1,0,0,-1,107.67108,60.40442)"/>
</g>
<path style="fill:none;stroke-width:0.3985;stroke-linecap:butt;stroke-linejoin:miter;stroke:rgb(100%,0%,0%);stroke-opacity:1;stroke-miterlimit:10;" d="M 28.34875 7.086594 L 113.387812 7.086594 L 113.387812 0.00065625 L 28.34875 0.00065625 Z M 28.34875 7.086594 " transform="matrix(1,0,0,-1,-4.255,65.653)"/>
</g>
</svg>
