<?xml version="1.0" encoding="UTF-8"?>
<svg xmlns="http://www.w3.org/2000/svg" xmlns:xlink="http://www.w3.org/1999/xlink" width="116.72pt" height="119.12pt" viewBox="0 0 116.72 119.12" version="1.1">
<g id="surface1">
<path style="fill-rule:nonzero;fill:rgb(0%,0%,100%);fill-opacity:0.5;stroke-width:0.79701;stroke-linecap:butt;stroke-linejoin:miter;stroke:rgb(0%,0%,0%);stroke-opacity:1;stroke-miterlimit:10;" d="M 28.346281 0.00078125 L 28.346281 28.348437 L 56.693938 28.348437 L 56.693938 0.00078125 Z M 28.346281 0.00078125 " transform="matrix(1,0,0,-1,-26.733,117.7)"/>
<path style=" stroke:none;fill-rule:nonzero;fill:rgb(0%,0%,0%);fill-opacity:1;" d="M 18.621094 89.351562 C 18.621094 87.789062 17.351562 86.519531 15.789062 86.519531 C 14.222656 86.519531 12.953125 87.789062 12.953125 89.351562 C 12.953125 90.917969 14.222656 92.1875 15.789062 92.1875 C 17.351562 92.1875 18.621094 90.917969 18.621094 89.351562 Z M 18.621094 89.351562 "/>
<path style="fill-rule:nonzero;fill:rgb(0%,0%,100%);fill-opacity:0.5;stroke-width:0.79701;stroke-linecap:butt;stroke-linejoin:miter;stroke:rgb(0%,0%,0%);stroke-opacity:1;stroke-miterlimit:10;" d="M 56.693938 0.00078125 L 56.693938 56.692187 L 85.041594 56.692187 L 85.041594 0.00078125 Z M 56.693938 0.00078125 " transform="matrix(1,0,0,-1,-26.733,117.7)"/>
<path style=" stroke:none;fill-rule:nonzero;fill:rgb(0%,0%,0%);fill-opacity:1;" d="M 46.96875 61.007812 C 46.96875 59.441406 45.699219 58.171875 44.132812 58.171875 C 42.570312 58.171875 41.300781 59.441406 41.300781 61.007812 C 41.300781 62.570312 42.570312 63.839844 44.132812 63.839844 C 45.699219 63.839844 46.96875 62.570312 46.96875 61.007812 Z M 46.96875 61.007812 "/>
<path style="fill-rule:nonzero;fill:rgb(0%,0%,100%);fill-opacity:0.5;stroke-width:0.79701;stroke-linecap:butt;stroke-linejoin:miter;stroke:rgb(0%,0%,0%);stroke-opacity:1;stroke-miterlimit:10;" d="M 85.041594 0.00078125 L 85.041594 85.039844 L 113.385344 85.039844 L 113.385344 0.00078125 Z M 85.041594 0.00078125 " transform="matrix(1,0,0,-1,-26.733,117.7)"/>
<path style=" stroke:none;fill-rule:nonzero;fill:rgb(0%,0%,0%);fill-opacity:1;" d="M 75.316406 32.660156 C 75.316406 31.09375 74.046875 29.824219 72.480469 29.824219 C 70.914062 29.824219 69.644531 31.09375 69.644531 32.660156 C 69.644531 34.226562 70.914062 35.496094 72.480469 35.496094 C 74.046875 35.496094 75.316406 34.226562 75.316406 32.660156 Z M 75.316406 32.660156 "/>
<path style="fill-rule:nonzero;fill:rgb(0%,0%,100%);fill-opacity:0.5;stroke-width:0.79701;stroke-linecap:butt;stroke-linejoin:miter;stroke:rgb(0%,0%,0%);stroke-opacity:1;stroke-miterlimit:10;" d="M 113.385344 0.00078125 L 113.385344 113.3875 L 141.733 113.3875 L 141.733 0.00078125 Z M 113.385344 0.00078125 " transform="matrix(1,0,0,-1,-26.733,117.7)"/>
<path style=" stroke:none;fill-rule:nonzero;fill:rgb(0%,0%,0%);fill-opacity:1;" d="M 103.664062 4.3125 C 103.664062 2.746094 102.394531 1.476562 100.828125 1.476562 C 99.261719 1.476562 97.992188 2.746094 97.992188 4.3125 C 97.992188 5.878906 99.261719 7.148438 100.828125 7.148438 C 102.394531 7.148438 103.664062 5.878906 103.664062 4.3125 Z M 103.664062 4.3125 "/>
<path style="fill:none;stroke-width:0.79701;stroke-linecap:butt;stroke-linejoin:miter;stroke:rgb(0%,0%,0%);stroke-opacity:1;stroke-miterlimit:10;" d="M 42.522063 28.348437 L 127.561125 113.3875 " transform="matrix(1,0,0,-1,-26.733,117.7)"/>
</g>
</svg>
