<?xml version="1.0" encoding="UTF-8"?>
<svg xmlns="http://www.w3.org/2000/svg" xmlns:xlink="http://www.w3.org/1999/xlink" width="285.68pt" height="181.04pt" viewBox="0 0 285.68 181.04" version="1.1">
<defs>
<clipPath id="clip1">
  <path d="M 0 163 L 41 163 L 41 181.039062 L 0 181.039062 Z M 0 163 "/>
</clipPath>
<clipPath id="clip2">
  <path d="M 26 163 L 70 163 L 70 181.039062 L 26 181.039062 Z M 26 163 "/>
</clipPath>
<clipPath id="clip3">
  <path d="M 96 162 L 126 162 L 126 181.039062 L 96 181.039062 Z M 96 162 "/>
</clipPath>
<clipPath id="clip4">
  <path d="M 159 162 L 189 162 L 189 181.039062 L 159 181.039062 Z M 159 162 "/>
</clipPath>
<clipPath id="clip5">
  <path d="M 216 163 L 260 163 L 260 181.039062 L 216 181.039062 Z M 216 163 "/>
</clipPath>
<clipPath id="clip6">
  <path d="M 244 163 L 285.679688 163 L 285.679688 181.039062 L 244 181.039062 Z M 244 163 "/>
</clipPath>
<clipPath id="clip7">
  <path d="M 244 135 L 285.679688 135 L 285.679688 163 L 244 163 Z M 244 135 "/>
</clipPath>
<clipPath id="clip8">
  <path d="M 244 107 L 285.679688 107 L 285.679688 139 L 244 139 Z M 244 107 "/>
</clipPath>
<clipPath id="clip9">
  <path d="M 244 78 L 285.679688 78 L 285.679688 116 L 244 116 Z M 244 78 "/>
</clipPath>
<clipPath id="clip10">
  <path d="M 244 50 L 285.679688 50 L 285.679688 83 L 244 83 Z M 244 50 "/>
</clipPath>
<clipPath id="clip11">
  <path d="M 244 22 L 285.679688 22 L 285.679688 50 L 244 50 Z M 244 22 "/>
</clipPath>
<clipPath id="clip12">
  <path d="M 244 0 L 285.679688 0 L 285.679688 19 L 244 19 Z M 244 0 "/>
</clipPath>
</defs>
<g id="surface1">
<g clip-path="url(#clip1)" clip-rule="nonzero">
<path style="fill:none;stroke-width:0.79701;stroke-linecap:butt;stroke-linejoin:miter;stroke:rgb(100%,0%,0%);stroke-opacity:1;stroke-miterlimit:10;" d="M -113.385531 -85.041625 L -141.030063 -87.553344 " transform="matrix(1,0,0,-1,142.866,89.974)"/>
</g>
<path style="fill:none;stroke-width:0.6376;stroke-linecap:round;stroke-linejoin:round;stroke:rgb(100%,0%,0%);stroke-opacity:1;stroke-miterlimit:10;" d="M -1.552877 2.071361 C -1.423425 1.294701 0.000468488 0.129726 0.388801 0.000286947 C 0.000471535 -0.129161 -1.423394 -1.29417 -1.552829 -2.070833 " transform="matrix(-0.99585,0.09052,0.09052,0.99585,1.83638,177.52702)"/>
<path style="fill:none;stroke-width:0.79701;stroke-linecap:butt;stroke-linejoin:miter;stroke:rgb(100%,0%,0%);stroke-opacity:1;stroke-miterlimit:10;" d="M -113.385531 -56.693969 L -141.037875 -61.303344 " transform="matrix(1,0,0,-1,142.866,89.974)"/>
<path style="fill:none;stroke-width:0.6376;stroke-linecap:round;stroke-linejoin:round;stroke:rgb(100%,0%,0%);stroke-opacity:1;stroke-miterlimit:10;" d="M -1.554336 2.070763 C -1.425877 1.296889 -0.000765601 0.128718 0.389707 0.000281429 C -0.000118299 -0.128813 -1.425825 -1.293187 -1.555539 -2.071561 " transform="matrix(-0.98634,0.16437,0.16437,0.98634,1.82965,151.27551)"/>
<path style="fill:none;stroke-width:0.79701;stroke-linecap:butt;stroke-linejoin:miter;stroke:rgb(100%,0%,0%);stroke-opacity:1;stroke-miterlimit:10;" d="M -113.385531 -28.346313 L -141.061313 -37.572875 " transform="matrix(1,0,0,-1,142.866,89.974)"/>
<path style="fill:none;stroke-width:0.6376;stroke-linecap:round;stroke-linejoin:round;stroke:rgb(100%,0%,0%);stroke-opacity:1;stroke-miterlimit:10;" d="M -1.555335 2.071822 C -1.423153 1.294805 -0.0000577259 0.128665 0.389069 -0.00104237 C -0.0000569055 -0.130752 -1.425615 -1.294431 -1.552851 -2.071449 " transform="matrix(-0.94864,0.31621,0.31621,0.94864,1.80301,127.54593)"/>
<path style="fill:none;stroke-width:0.79701;stroke-linecap:butt;stroke-linejoin:miter;stroke:rgb(100%,0%,0%);stroke-opacity:1;stroke-miterlimit:10;" d="M -113.385531 0.00134375 L -141.100375 -13.858031 " transform="matrix(1,0,0,-1,142.866,89.974)"/>
<path style="fill:none;stroke-width:0.6376;stroke-linecap:round;stroke-linejoin:round;stroke:rgb(100%,0%,0%);stroke-opacity:1;stroke-miterlimit:10;" d="M -1.555368 2.071519 C -1.424326 1.29409 -0.00221839 0.128843 0.387373 -0.000430807 C -0.000466724 -0.129718 -1.426027 -1.295017 -1.553547 -2.074197 " transform="matrix(-0.89438,0.44717,0.44717,0.89438,1.76462,103.83107)"/>
<path style="fill:none;stroke-width:0.79701;stroke-linecap:butt;stroke-linejoin:miter;stroke:rgb(100%,0%,0%);stroke-opacity:1;stroke-miterlimit:10;" d="M -113.385531 28.345094 L -141.061313 19.122437 " transform="matrix(1,0,0,-1,142.866,89.974)"/>
<path style="fill:none;stroke-width:0.6376;stroke-linecap:round;stroke-linejoin:round;stroke:rgb(100%,0%,0%);stroke-opacity:1;stroke-miterlimit:10;" d="M -1.554644 2.073894 C -1.423698 1.293171 0.000632862 0.130737 0.38976 0.00102942 C 0.000633683 -0.128681 -1.42616 -1.296065 -1.553396 -2.073083 " transform="matrix(-0.94864,0.31621,0.31621,0.94864,1.80301,70.85234)"/>
<path style="fill:none;stroke-width:0.79701;stroke-linecap:butt;stroke-linejoin:miter;stroke:rgb(100%,0%,0%);stroke-opacity:1;stroke-miterlimit:10;" d="M -113.385531 56.69275 L -141.037875 52.087281 " transform="matrix(1,0,0,-1,142.866,89.974)"/>
<path style="fill:none;stroke-width:0.6376;stroke-linecap:round;stroke-linejoin:round;stroke:rgb(100%,0%,0%);stroke-opacity:1;stroke-miterlimit:10;" d="M -1.554255 2.071247 C -1.426438 1.293521 -0.000684844 0.129202 0.389788 0.000766024 C -0.0000375428 -0.128328 -1.426387 -1.296556 -1.555458 -2.071077 " transform="matrix(-0.98634,0.16437,0.16437,0.98634,1.82965,37.8883)"/>
<path style="fill:none;stroke-width:0.79701;stroke-linecap:butt;stroke-linejoin:miter;stroke:rgb(100%,0%,0%);stroke-opacity:1;stroke-miterlimit:10;" d="M -113.385531 85.040406 L -141.030063 82.528687 " transform="matrix(1,0,0,-1,142.866,89.974)"/>
<path style="fill:none;stroke-width:0.6376;stroke-linecap:round;stroke-linejoin:round;stroke:rgb(100%,0%,0%);stroke-opacity:1;stroke-miterlimit:10;" d="M -1.552987 2.070155 C -1.423534 1.293495 0.000358836 0.12852 0.388691 -0.000919383 C 0.000361883 -0.130368 -1.423504 -1.295377 -1.552938 -2.072039 " transform="matrix(-0.99585,0.09052,0.09052,0.99585,1.83638,7.4462)"/>
<g clip-path="url(#clip2)" clip-rule="nonzero">
<path style="fill:none;stroke-width:0.79701;stroke-linecap:butt;stroke-linejoin:miter;stroke:rgb(100%,0%,0%);stroke-opacity:1;stroke-miterlimit:10;" d="M -85.041781 -85.041625 L -105.596469 -86.803344 " transform="matrix(1,0,0,-1,142.866,89.974)"/>
</g>
<path style="fill:none;stroke-width:0.6376;stroke-linecap:round;stroke-linejoin:round;stroke:rgb(100%,0%,0%);stroke-opacity:1;stroke-miterlimit:10;" d="M -1.55477 2.071156 C -1.425211 1.295505 0.000107252 0.130423 0.388769 -0.000906549 C 0.00144355 -0.128461 -1.423858 -1.296232 -1.553184 -2.07322 " transform="matrix(-0.9963,0.08539,0.08539,0.9963,37.27022,176.7763)"/>
<path style="fill:none;stroke-width:0.79701;stroke-linecap:butt;stroke-linejoin:miter;stroke:rgb(100%,0%,0%);stroke-opacity:1;stroke-miterlimit:10;" d="M -85.041781 -56.693969 L -105.600375 -59.924438 " transform="matrix(1,0,0,-1,142.866,89.974)"/>
<path style="fill:none;stroke-width:0.6376;stroke-linecap:round;stroke-linejoin:round;stroke:rgb(100%,0%,0%);stroke-opacity:1;stroke-miterlimit:10;" d="M -1.554279 2.071194 C -1.423102 1.295315 -0.000627794 0.130709 0.389799 -0.00180756 C -0.0020525 -0.13005 -1.42274 -1.294805 -1.552929 -2.073119 " transform="matrix(-0.98785,0.1552,0.1552,0.98785,37.26425,149.89832)"/>
<path style="fill:none;stroke-width:0.79701;stroke-linecap:butt;stroke-linejoin:miter;stroke:rgb(100%,0%,0%);stroke-opacity:1;stroke-miterlimit:10;" d="M -85.041781 -28.346313 L -105.623813 -34.815063 " transform="matrix(1,0,0,-1,142.866,89.974)"/>
<path style="fill:none;stroke-width:0.6376;stroke-linecap:round;stroke-linejoin:round;stroke:rgb(100%,0%,0%);stroke-opacity:1;stroke-miterlimit:10;" d="M -1.553879 2.072249 C -1.425532 1.294852 0.00187856 0.129723 0.387126 0.000476956 C -0.00108989 -0.127318 -1.424018 -1.293548 -1.553883 -2.071704 " transform="matrix(-0.95395,0.29976,0.29976,0.95395,37.24025,124.78975)"/>
<path style="fill:none;stroke-width:0.79701;stroke-linecap:butt;stroke-linejoin:miter;stroke:rgb(100%,0%,0%);stroke-opacity:1;stroke-miterlimit:10;" d="M -85.041781 0.00134375 L -105.658969 -9.721313 " transform="matrix(1,0,0,-1,142.866,89.974)"/>
<path style="fill:none;stroke-width:0.6376;stroke-linecap:round;stroke-linejoin:round;stroke:rgb(100%,0%,0%);stroke-opacity:1;stroke-miterlimit:10;" d="M -1.555465 2.073121 C -1.425602 1.295005 -0.000653161 0.130988 0.386823 0.000164829 C 0.00188185 -0.129328 -1.424986 -1.296496 -1.553774 -2.073613 " transform="matrix(-0.9045,0.42636,0.42636,0.9045,37.20528,99.6943)"/>
<path style="fill:none;stroke-width:0.79701;stroke-linecap:butt;stroke-linejoin:miter;stroke:rgb(100%,0%,0%);stroke-opacity:1;stroke-miterlimit:10;" d="M -85.041781 28.345094 L -105.623813 21.876344 " transform="matrix(1,0,0,-1,142.866,89.974)"/>
<path style="fill:none;stroke-width:0.6376;stroke-linecap:round;stroke-linejoin:round;stroke:rgb(100%,0%,0%);stroke-opacity:1;stroke-miterlimit:10;" d="M -1.554395 2.070606 C -1.424878 1.296935 0.00136216 0.12808 0.38661 -0.00116643 C -0.00160629 -0.128961 -1.424534 -1.295192 -1.554399 -2.073347 " transform="matrix(-0.95395,0.29976,0.29976,0.95395,37.24025,68.09616)"/>
<path style="fill:none;stroke-width:0.79701;stroke-linecap:butt;stroke-linejoin:miter;stroke:rgb(100%,0%,0%);stroke-opacity:1;stroke-miterlimit:10;" d="M -85.041781 56.69275 L -105.600375 53.462281 " transform="matrix(1,0,0,-1,142.866,89.974)"/>
<path style="fill:none;stroke-width:0.6376;stroke-linecap:round;stroke-linejoin:round;stroke:rgb(100%,0%,0%);stroke-opacity:1;stroke-miterlimit:10;" d="M -1.554203 2.071679 C -1.423025 1.2958 -0.000551547 0.131195 0.389876 -0.00132225 C -0.00197625 -0.129565 -1.422664 -1.29432 -1.552852 -2.072634 " transform="matrix(-0.98785,0.1552,0.1552,0.98785,37.26425,36.51111)"/>
<path style="fill:none;stroke-width:0.79701;stroke-linecap:butt;stroke-linejoin:miter;stroke:rgb(100%,0%,0%);stroke-opacity:1;stroke-miterlimit:10;" d="M -85.041781 85.040406 L -105.596469 83.278687 " transform="matrix(1,0,0,-1,142.866,89.974)"/>
<path style="fill:none;stroke-width:0.6376;stroke-linecap:round;stroke-linejoin:round;stroke:rgb(100%,0%,0%);stroke-opacity:1;stroke-miterlimit:10;" d="M -1.554539 2.073852 C -1.425314 1.294308 0.00000466721 0.129226 0.389 0.0017887 C 0.00134097 -0.129658 -1.423627 -1.293536 -1.552953 -2.070524 " transform="matrix(-0.9963,0.08539,0.08539,0.9963,37.27022,6.69547)"/>
<path style="fill:none;stroke-width:0.79701;stroke-linecap:butt;stroke-linejoin:miter;stroke:rgb(100%,0%,0%);stroke-opacity:1;stroke-miterlimit:10;" d="M -56.694125 -85.041625 L -70.158969 -85.041625 " transform="matrix(1,0,0,-1,142.866,89.974)"/>
<path style="fill:none;stroke-width:0.6376;stroke-linecap:round;stroke-linejoin:round;stroke:rgb(100%,0%,0%);stroke-opacity:1;stroke-miterlimit:10;" d="M -1.555369 2.071518 C -1.426462 1.294174 -0.00068125 0.130111 0.389944 0.001205 C -0.00068125 -0.127701 -1.426462 -1.29567 -1.555369 -2.073014 " transform="matrix(-1,0,0,1,72.70635,175.01442)"/>
<path style="fill:none;stroke-width:0.79701;stroke-linecap:butt;stroke-linejoin:miter;stroke:rgb(100%,0%,0%);stroke-opacity:1;stroke-miterlimit:10;" d="M -56.694125 -56.693969 L -70.158969 -56.693969 " transform="matrix(1,0,0,-1,142.866,89.974)"/>
<path style="fill:none;stroke-width:0.6376;stroke-linecap:round;stroke-linejoin:round;stroke:rgb(100%,0%,0%);stroke-opacity:1;stroke-miterlimit:10;" d="M -1.555369 2.070661 C -1.426462 1.293318 -0.00068125 0.129255 0.389944 0.00034875 C -0.00068125 -0.128557 -1.426462 -1.296526 -1.555369 -2.07387 " transform="matrix(-1,0,0,1,72.70635,146.66762)"/>
<path style="fill:none;stroke-width:0.79701;stroke-linecap:butt;stroke-linejoin:miter;stroke:rgb(100%,0%,0%);stroke-opacity:1;stroke-miterlimit:10;" d="M -56.694125 -28.346313 L -70.158969 -28.346313 " transform="matrix(1,0,0,-1,142.866,89.974)"/>
<path style="fill:none;stroke-width:0.6376;stroke-linecap:round;stroke-linejoin:round;stroke:rgb(100%,0%,0%);stroke-opacity:1;stroke-miterlimit:10;" d="M -1.555369 2.073731 C -1.426462 1.296388 -0.00068125 0.128419 0.389944 -0.0004875 C -0.00068125 -0.129394 -1.426462 -1.293456 -1.555369 -2.0708 " transform="matrix(-1,0,0,1,72.70635,118.3208)"/>
<path style="fill:none;stroke-width:0.79701;stroke-linecap:butt;stroke-linejoin:miter;stroke:rgb(100%,0%,0%);stroke-opacity:1;stroke-miterlimit:10;" d="M -56.694125 0.00134375 L -70.158969 0.00134375 " transform="matrix(1,0,0,-1,142.866,89.974)"/>
<path style="fill:none;stroke-width:0.6376;stroke-linecap:round;stroke-linejoin:round;stroke:rgb(100%,0%,0%);stroke-opacity:1;stroke-miterlimit:10;" d="M -1.555369 2.072875 C -1.426462 1.295531 -0.00068125 0.127563 0.389944 -0.00134375 C -0.00068125 -0.13025 -1.426462 -1.294312 -1.555369 -2.071656 " transform="matrix(-1,0,0,1,72.70635,89.974)"/>
<path style="fill:none;stroke-width:0.79701;stroke-linecap:butt;stroke-linejoin:miter;stroke:rgb(100%,0%,0%);stroke-opacity:1;stroke-miterlimit:10;" d="M -56.694125 28.345094 L -70.158969 28.345094 " transform="matrix(1,0,0,-1,142.866,89.974)"/>
<path style="fill:none;stroke-width:0.6376;stroke-linecap:round;stroke-linejoin:round;stroke:rgb(100%,0%,0%);stroke-opacity:1;stroke-miterlimit:10;" d="M -1.555369 2.072019 C -1.426462 1.294675 -0.00068125 0.130613 0.389944 0.00170625 C -0.00068125 -0.131106 -1.426462 -1.295169 -1.555369 -2.072512 " transform="matrix(-1,0,0,1,72.70635,61.6272)"/>
<path style="fill:none;stroke-width:0.79701;stroke-linecap:butt;stroke-linejoin:miter;stroke:rgb(100%,0%,0%);stroke-opacity:1;stroke-miterlimit:10;" d="M -56.694125 56.69275 L -70.158969 56.69275 " transform="matrix(1,0,0,-1,142.866,89.974)"/>
<path style="fill:none;stroke-width:0.6376;stroke-linecap:round;stroke-linejoin:round;stroke:rgb(100%,0%,0%);stroke-opacity:1;stroke-miterlimit:10;" d="M -1.555369 2.071183 C -1.426462 1.293839 -0.00068125 0.129776 0.389944 0.00087 C -0.00068125 -0.128036 -1.426462 -1.296005 -1.555369 -2.073349 " transform="matrix(-1,0,0,1,72.70635,33.28038)"/>
<path style="fill:none;stroke-width:0.79701;stroke-linecap:butt;stroke-linejoin:miter;stroke:rgb(100%,0%,0%);stroke-opacity:1;stroke-miterlimit:10;" d="M -56.694125 85.040406 L -70.158969 85.040406 " transform="matrix(1,0,0,-1,142.866,89.974)"/>
<path style="fill:none;stroke-width:0.6376;stroke-linecap:round;stroke-linejoin:round;stroke:rgb(100%,0%,0%);stroke-opacity:1;stroke-miterlimit:10;" d="M -1.555369 2.070326 C -1.426462 1.296889 -0.00068125 0.12892 0.389944 0.00001375 C -0.00068125 -0.128892 -1.426462 -1.296861 -1.555369 -2.070299 " transform="matrix(-1,0,0,1,72.70635,4.93358)"/>
<g clip-path="url(#clip3)" clip-rule="nonzero">
<path style="fill:none;stroke-width:0.79701;stroke-linecap:butt;stroke-linejoin:miter;stroke:rgb(100%,0%,0%);stroke-opacity:1;stroke-miterlimit:10;" d="M -28.346469 -85.041625 L -34.748813 -83.393188 " transform="matrix(1,0,0,-1,142.866,89.974)"/>
</g>
<path style="fill:none;stroke-width:0.6376;stroke-linecap:round;stroke-linejoin:round;stroke:rgb(100%,0%,0%);stroke-opacity:1;stroke-miterlimit:10;" d="M -1.552866 2.072124 C -1.425439 1.294162 -0.000231589 0.127894 0.387178 0.00163015 C 0.0014923 -0.129805 -1.425171 -1.295254 -1.556415 -2.071157 " transform="matrix(-0.96846,-0.24901,-0.24901,0.96846,108.11756,173.36827)"/>
<path style="fill:none;stroke-width:0.79701;stroke-linecap:butt;stroke-linejoin:miter;stroke:rgb(100%,0%,0%);stroke-opacity:1;stroke-miterlimit:10;" d="M -28.346469 -56.693969 L -34.791781 -53.654906 " transform="matrix(1,0,0,-1,142.866,89.974)"/>
<path style="fill:none;stroke-width:0.6376;stroke-linecap:round;stroke-linejoin:round;stroke:rgb(100%,0%,0%);stroke-opacity:1;stroke-miterlimit:10;" d="M -1.552731 2.071117 C -1.423955 1.294001 0.00122569 0.130354 0.386163 0.000856289 C -0.00131277 -0.129961 -1.42627 -1.293954 -1.556143 -2.072064 " transform="matrix(-0.90451,-0.42635,-0.42635,0.90451,108.07231,143.62871)"/>
<path style="fill:none;stroke-width:0.79701;stroke-linecap:butt;stroke-linejoin:miter;stroke:rgb(100%,0%,0%);stroke-opacity:1;stroke-miterlimit:10;" d="M -28.346469 -28.346313 L -34.920688 -22.151 " transform="matrix(1,0,0,-1,142.866,89.974)"/>
<path style="fill:none;stroke-width:0.6376;stroke-linecap:round;stroke-linejoin:round;stroke:rgb(100%,0%,0%);stroke-opacity:1;stroke-miterlimit:10;" d="M -1.554199 2.07277 C -1.422369 1.295111 -0.000411784 0.12846 0.388242 0.000936988 C 0.000301724 -0.128564 -1.424087 -1.294211 -1.554804 -2.07242 " transform="matrix(-0.7276,-0.68593,-0.68593,0.7276,107.94719,112.125)"/>
<path style="fill:none;stroke-width:0.79701;stroke-linecap:butt;stroke-linejoin:miter;stroke:rgb(100%,0%,0%);stroke-opacity:1;stroke-miterlimit:10;" d="M -28.346469 0.00134375 L -35.026156 9.44275 " transform="matrix(1,0,0,-1,142.866,89.974)"/>
<path style="fill:none;stroke-width:0.6376;stroke-linecap:round;stroke-linejoin:round;stroke:rgb(100%,0%,0%);stroke-opacity:1;stroke-miterlimit:10;" d="M -1.555522 2.072434 C -1.42512 1.296052 -0.000431129 0.130754 0.389382 -0.00135396 C 0.00217178 -0.129446 -1.425929 -1.296538 -1.553472 -2.072334 " transform="matrix(-0.57732,-0.81645,-0.81645,0.57732,107.84088,80.52963)"/>
<path style="fill:none;stroke-width:0.79701;stroke-linecap:butt;stroke-linejoin:miter;stroke:rgb(100%,0%,0%);stroke-opacity:1;stroke-miterlimit:10;" d="M -28.346469 28.345094 L -34.920688 34.544312 " transform="matrix(1,0,0,-1,142.866,89.974)"/>
<path style="fill:none;stroke-width:0.6376;stroke-linecap:round;stroke-linejoin:round;stroke:rgb(100%,0%,0%);stroke-opacity:1;stroke-miterlimit:10;" d="M -1.553017 2.071516 C -1.423867 1.2967 -0.00190983 0.130049 0.389424 -0.000316426 C 0.00148335 -0.129817 -1.422905 -1.295464 -1.553622 -2.073673 " transform="matrix(-0.7276,-0.68593,-0.68593,0.7276,107.94719,55.43141)"/>
<path style="fill:none;stroke-width:0.79701;stroke-linecap:butt;stroke-linejoin:miter;stroke:rgb(100%,0%,0%);stroke-opacity:1;stroke-miterlimit:10;" d="M -28.346469 56.69275 L -34.791781 59.731812 " transform="matrix(1,0,0,-1,142.866,89.974)"/>
<path style="fill:none;stroke-width:0.6376;stroke-linecap:round;stroke-linejoin:round;stroke:rgb(100%,0%,0%);stroke-opacity:1;stroke-miterlimit:10;" d="M -1.55294 2.071561 C -1.424164 1.294446 0.00101623 0.130798 0.38762 -0.00223288 C -0.00152223 -0.129517 -1.424814 -1.297043 -1.556352 -2.07162 " transform="matrix(-0.90451,-0.42635,-0.42635,0.90451,108.07231,30.2415)"/>
<path style="fill:none;stroke-width:0.79701;stroke-linecap:butt;stroke-linejoin:miter;stroke:rgb(100%,0%,0%);stroke-opacity:1;stroke-miterlimit:10;" d="M -28.346469 85.040406 L -34.748813 86.684937 " transform="matrix(1,0,0,-1,142.866,89.974)"/>
<path style="fill:none;stroke-width:0.6376;stroke-linecap:round;stroke-linejoin:round;stroke:rgb(100%,0%,0%);stroke-opacity:1;stroke-miterlimit:10;" d="M -1.552564 2.070951 C -1.425137 1.292989 -0.000902724 0.130504 0.38748 0.000457012 C 0.00179394 -0.130978 -1.42487 -1.296427 -1.556114 -2.07233 " transform="matrix(-0.96846,-0.24901,-0.24901,0.96846,108.11756,3.28745)"/>
<path style="fill:none;stroke-width:0.79701;stroke-linecap:butt;stroke-linejoin:miter;stroke:rgb(100%,0%,0%);stroke-opacity:1;stroke-miterlimit:10;" d="M 0.0011875 -85.041625 L 0.0011875 -83.170531 " transform="matrix(1,0,0,-1,142.866,89.974)"/>
<path style="fill:none;stroke-width:0.6376;stroke-linecap:round;stroke-linejoin:round;stroke:rgb(100%,0%,0%);stroke-opacity:1;stroke-miterlimit:10;" d="M -1.554059 2.073031 C -1.425153 1.295688 0.00062875 0.127719 0.387347 -0.0011875 C 0.00062875 -0.130094 -1.425153 -1.294156 -1.554059 -2.0715 " transform="matrix(0,-1,-1,0,142.866,173.14516)"/>
<path style="fill:none;stroke-width:0.79701;stroke-linecap:butt;stroke-linejoin:miter;stroke:rgb(100%,0%,0%);stroke-opacity:1;stroke-miterlimit:10;" d="M 0.0011875 -56.693969 L 0.0011875 -52.678344 " transform="matrix(1,0,0,-1,142.866,89.974)"/>
<path style="fill:none;stroke-width:0.6376;stroke-linecap:round;stroke-linejoin:round;stroke:rgb(100%,0%,0%);stroke-opacity:1;stroke-miterlimit:10;" d="M -1.552335 2.073031 C -1.423429 1.295688 -0.00155375 0.127719 0.389071 -0.0011875 C -0.00155375 -0.130094 -1.423429 -1.294156 -1.552335 -2.0715 " transform="matrix(0,-1,-1,0,142.866,142.65079)"/>
<path style="fill:none;stroke-width:0.79701;stroke-linecap:butt;stroke-linejoin:miter;stroke:rgb(100%,0%,0%);stroke-opacity:1;stroke-miterlimit:10;" d="M 0.0011875 -28.346313 L 0.0011875 -19.604125 " transform="matrix(1,0,0,-1,142.866,89.974)"/>
<path style="fill:none;stroke-width:0.6376;stroke-linecap:round;stroke-linejoin:round;stroke:rgb(100%,0%,0%);stroke-opacity:1;stroke-miterlimit:10;" d="M -1.553453 2.073031 C -1.424546 1.295688 0.001235 0.127719 0.387954 -0.0011875 C 0.001235 -0.130094 -1.424546 -1.294156 -1.553453 -2.0715 " transform="matrix(0,-1,-1,0,142.866,109.57936)"/>
<path style="fill:none;stroke-width:0.79701;stroke-linecap:butt;stroke-linejoin:miter;stroke:rgb(100%,0%,0%);stroke-opacity:1;stroke-miterlimit:10;" d="M 0.0011875 0.00134375 L 0.0011875 13.466187 " transform="matrix(1,0,0,-1,142.866,89.974)"/>
<path style="fill:none;stroke-width:0.6376;stroke-linecap:round;stroke-linejoin:round;stroke:rgb(100%,0%,0%);stroke-opacity:1;stroke-miterlimit:10;" d="M -1.55453 2.073031 C -1.425624 1.295688 0.0001575 0.127719 0.386876 -0.0011875 C 0.0001575 -0.130094 -1.425624 -1.294156 -1.55453 -2.0715 " transform="matrix(0,-1,-1,0,142.866,76.50797)"/>
<path style="fill:none;stroke-width:0.79701;stroke-linecap:butt;stroke-linejoin:miter;stroke:rgb(100%,0%,0%);stroke-opacity:1;stroke-miterlimit:10;" d="M 0.0011875 28.345094 L 0.0011875 37.087281 " transform="matrix(1,0,0,-1,142.866,89.974)"/>
<path style="fill:none;stroke-width:0.6376;stroke-linecap:round;stroke-linejoin:round;stroke:rgb(100%,0%,0%);stroke-opacity:1;stroke-miterlimit:10;" d="M -1.555636 2.073031 C -1.422824 1.295688 -0.00094875 0.127719 0.389676 -0.0011875 C -0.00094875 -0.130094 -1.422824 -1.294156 -1.555636 -2.0715 " transform="matrix(0,-1,-1,0,142.866,52.88577)"/>
<path style="fill:none;stroke-width:0.79701;stroke-linecap:butt;stroke-linejoin:miter;stroke:rgb(100%,0%,0%);stroke-opacity:1;stroke-miterlimit:10;" d="M 0.0011875 56.69275 L 0.0011875 60.712281 " transform="matrix(1,0,0,-1,142.866,89.974)"/>
<path style="fill:none;stroke-width:0.6376;stroke-linecap:round;stroke-linejoin:round;stroke:rgb(100%,0%,0%);stroke-opacity:1;stroke-miterlimit:10;" d="M -1.552826 2.073031 C -1.42392 1.295688 0.00186125 0.127719 0.38858 -0.0011875 C 0.00186125 -0.130094 -1.42392 -1.294156 -1.552826 -2.0715 " transform="matrix(0,-1,-1,0,142.866,29.26358)"/>
<path style="fill:none;stroke-width:0.79701;stroke-linecap:butt;stroke-linejoin:miter;stroke:rgb(100%,0%,0%);stroke-opacity:1;stroke-miterlimit:10;" d="M 0.0011875 85.040406 L 0.0011875 86.9115 " transform="matrix(1,0,0,-1,142.866,89.974)"/>
<path style="fill:none;stroke-width:0.6376;stroke-linecap:round;stroke-linejoin:round;stroke:rgb(100%,0%,0%);stroke-opacity:1;stroke-miterlimit:10;" d="M -1.552858 2.073031 C -1.423951 1.295688 0.00183 0.127719 0.388549 -0.0011875 C 0.00183 -0.130094 -1.423951 -1.294156 -1.552858 -2.0715 " transform="matrix(0,-1,-1,0,142.866,3.06433)"/>
<g clip-path="url(#clip4)" clip-rule="nonzero">
<path style="fill:none;stroke-width:0.79701;stroke-linecap:butt;stroke-linejoin:miter;stroke:rgb(100%,0%,0%);stroke-opacity:1;stroke-miterlimit:10;" d="M 28.344937 -85.041625 L 34.747281 -83.393188 " transform="matrix(1,0,0,-1,142.866,89.974)"/>
</g>
<path style="fill:none;stroke-width:0.6376;stroke-linecap:round;stroke-linejoin:round;stroke:rgb(100%,0%,0%);stroke-opacity:1;stroke-miterlimit:10;" d="M -1.554115 2.070566 C -1.422871 1.294663 0.00000922603 0.130186 0.389478 -0.0022216 C 0.00206869 -0.128485 -1.423139 -1.294753 -1.554349 -2.071743 " transform="matrix(0.96846,-0.24901,-0.24901,-0.96846,177.61444,173.36827)"/>
<path style="fill:none;stroke-width:0.79701;stroke-linecap:butt;stroke-linejoin:miter;stroke:rgb(100%,0%,0%);stroke-opacity:1;stroke-miterlimit:10;" d="M 28.344937 -56.693969 L 34.794156 -53.654906 " transform="matrix(1,0,0,-1,142.866,89.974)"/>
<path style="fill:none;stroke-width:0.6376;stroke-linecap:round;stroke-linejoin:round;stroke:rgb(100%,0%,0%);stroke-opacity:1;stroke-miterlimit:10;" d="M -1.553994 2.071051 C -1.424122 1.292941 0.00083563 0.128948 0.388312 -0.00186896 C -0.000159457 -0.129701 -1.42534 -1.293348 -1.554116 -2.070464 " transform="matrix(0.90451,-0.42635,-0.42635,-0.90451,177.65969,143.62871)"/>
<path style="fill:none;stroke-width:0.79701;stroke-linecap:butt;stroke-linejoin:miter;stroke:rgb(100%,0%,0%);stroke-opacity:1;stroke-miterlimit:10;" d="M 28.344937 -28.346313 L 34.919156 -22.151 " transform="matrix(1,0,0,-1,142.866,89.974)"/>
<path style="fill:none;stroke-width:0.6376;stroke-linecap:round;stroke-linejoin:round;stroke:rgb(100%,0%,0%);stroke-opacity:1;stroke-miterlimit:10;" d="M -1.553257 2.070589 C -1.425416 1.295054 -0.00107499 0.129345 0.38686 -0.000172617 C 0.00104295 -0.130359 -1.423808 -1.294272 -1.555671 -2.071926 " transform="matrix(0.72757,-0.68596,-0.68596,-0.72757,177.78482,112.12462)"/>
<path style="fill:none;stroke-width:0.79701;stroke-linecap:butt;stroke-linejoin:miter;stroke:rgb(100%,0%,0%);stroke-opacity:1;stroke-miterlimit:10;" d="M 28.344937 0.00134375 L 35.024625 9.44275 " transform="matrix(1,0,0,-1,142.866,89.974)"/>
<path style="fill:none;stroke-width:0.6376;stroke-linecap:round;stroke-linejoin:round;stroke:rgb(100%,0%,0%);stroke-opacity:1;stroke-miterlimit:10;" d="M -1.554356 2.073584 C -1.424558 1.294599 0.00128766 0.130696 0.390753 -0.000585321 C -0.00131525 -0.129503 -1.426004 -1.294802 -1.554151 -2.074374 " transform="matrix(0.57732,-0.81645,-0.81645,-0.57732,177.89112,80.52963)"/>
<path style="fill:none;stroke-width:0.79701;stroke-linecap:butt;stroke-linejoin:miter;stroke:rgb(100%,0%,0%);stroke-opacity:1;stroke-miterlimit:10;" d="M 28.344937 28.345094 L 34.919156 34.544312 " transform="matrix(1,0,0,-1,142.866,89.974)"/>
<path style="fill:none;stroke-width:0.6376;stroke-linecap:round;stroke-linejoin:round;stroke:rgb(100%,0%,0%);stroke-opacity:1;stroke-miterlimit:10;" d="M -1.552083 2.071835 C -1.424241 1.2963 0.00009983 0.130591 0.388035 0.00107347 C 0.00221778 -0.129113 -1.425313 -1.295868 -1.554496 -2.070679 " transform="matrix(0.72757,-0.68596,-0.68596,-0.72757,177.78482,55.43102)"/>
<path style="fill:none;stroke-width:0.79701;stroke-linecap:butt;stroke-linejoin:miter;stroke:rgb(100%,0%,0%);stroke-opacity:1;stroke-miterlimit:10;" d="M 28.344937 56.69275 L 34.794156 59.731812 " transform="matrix(1,0,0,-1,142.866,89.974)"/>
<path style="fill:none;stroke-width:0.6376;stroke-linecap:round;stroke-linejoin:round;stroke:rgb(100%,0%,0%);stroke-opacity:1;stroke-miterlimit:10;" d="M -1.554204 2.070607 C -1.422665 1.29603 0.000626167 0.128504 0.389768 0.00122021 C -0.00036892 -0.130145 -1.425549 -1.293793 -1.554325 -2.070908 " transform="matrix(0.90451,-0.42635,-0.42635,-0.90451,177.65969,30.2415)"/>
<path style="fill:none;stroke-width:0.79701;stroke-linecap:butt;stroke-linejoin:miter;stroke:rgb(100%,0%,0%);stroke-opacity:1;stroke-miterlimit:10;" d="M 28.344937 85.040406 L 34.747281 86.684937 " transform="matrix(1,0,0,-1,142.866,89.974)"/>
<path style="fill:none;stroke-width:0.6376;stroke-linecap:round;stroke-linejoin:round;stroke:rgb(100%,0%,0%);stroke-opacity:1;stroke-miterlimit:10;" d="M -1.553814 2.071739 C -1.422569 1.295836 0.000310863 0.131359 0.38978 -0.00104846 C 0.00139755 -0.131095 -1.422837 -1.29358 -1.554047 -2.07057 " transform="matrix(0.96846,-0.24901,-0.24901,-0.96846,177.61444,3.28745)"/>
<path style="fill:none;stroke-width:0.79701;stroke-linecap:butt;stroke-linejoin:miter;stroke:rgb(100%,0%,0%);stroke-opacity:1;stroke-miterlimit:10;" d="M 56.692594 -85.041625 L 70.161344 -85.041625 " transform="matrix(1,0,0,-1,142.866,89.974)"/>
<path style="fill:none;stroke-width:0.6376;stroke-linecap:round;stroke-linejoin:round;stroke:rgb(100%,0%,0%);stroke-opacity:1;stroke-miterlimit:10;" d="M -1.552994 2.073014 C -1.424088 1.29567 0.00169375 0.127701 0.388412 -0.001205 C 0.00169375 -0.130111 -1.424088 -1.294174 -1.552994 -2.071518 " transform="matrix(1,0,0,-1,213.02565,175.01442)"/>
<path style="fill:none;stroke-width:0.79701;stroke-linecap:butt;stroke-linejoin:miter;stroke:rgb(100%,0%,0%);stroke-opacity:1;stroke-miterlimit:10;" d="M 56.692594 -56.693969 L 70.161344 -56.693969 " transform="matrix(1,0,0,-1,142.866,89.974)"/>
<path style="fill:none;stroke-width:0.6376;stroke-linecap:round;stroke-linejoin:round;stroke:rgb(100%,0%,0%);stroke-opacity:1;stroke-miterlimit:10;" d="M -1.552994 2.07387 C -1.424088 1.296526 0.00169375 0.128557 0.388412 -0.00034875 C 0.00169375 -0.129255 -1.424088 -1.293318 -1.552994 -2.070661 " transform="matrix(1,0,0,-1,213.02565,146.66762)"/>
<path style="fill:none;stroke-width:0.79701;stroke-linecap:butt;stroke-linejoin:miter;stroke:rgb(100%,0%,0%);stroke-opacity:1;stroke-miterlimit:10;" d="M 56.692594 -28.346313 L 70.161344 -28.346313 " transform="matrix(1,0,0,-1,142.866,89.974)"/>
<path style="fill:none;stroke-width:0.6376;stroke-linecap:round;stroke-linejoin:round;stroke:rgb(100%,0%,0%);stroke-opacity:1;stroke-miterlimit:10;" d="M -1.552994 2.0708 C -1.424088 1.293456 0.00169375 0.129394 0.388412 0.0004875 C 0.00169375 -0.128419 -1.424088 -1.296388 -1.552994 -2.073731 " transform="matrix(1,0,0,-1,213.02565,118.3208)"/>
<path style="fill:none;stroke-width:0.79701;stroke-linecap:butt;stroke-linejoin:miter;stroke:rgb(100%,0%,0%);stroke-opacity:1;stroke-miterlimit:10;" d="M 56.692594 0.00134375 L 70.161344 0.00134375 " transform="matrix(1,0,0,-1,142.866,89.974)"/>
<path style="fill:none;stroke-width:0.6376;stroke-linecap:round;stroke-linejoin:round;stroke:rgb(100%,0%,0%);stroke-opacity:1;stroke-miterlimit:10;" d="M -1.552994 2.071656 C -1.424088 1.294312 0.00169375 0.13025 0.388412 0.00134375 C 0.00169375 -0.127563 -1.424088 -1.295531 -1.552994 -2.072875 " transform="matrix(1,0,0,-1,213.02565,89.974)"/>
<path style="fill:none;stroke-width:0.79701;stroke-linecap:butt;stroke-linejoin:miter;stroke:rgb(100%,0%,0%);stroke-opacity:1;stroke-miterlimit:10;" d="M 56.692594 28.345094 L 70.161344 28.345094 " transform="matrix(1,0,0,-1,142.866,89.974)"/>
<path style="fill:none;stroke-width:0.6376;stroke-linecap:round;stroke-linejoin:round;stroke:rgb(100%,0%,0%);stroke-opacity:1;stroke-miterlimit:10;" d="M -1.552994 2.072512 C -1.424088 1.295169 0.00169375 0.131106 0.388412 -0.00170625 C 0.00169375 -0.130613 -1.424088 -1.294675 -1.552994 -2.072019 " transform="matrix(1,0,0,-1,213.02565,61.6272)"/>
<path style="fill:none;stroke-width:0.79701;stroke-linecap:butt;stroke-linejoin:miter;stroke:rgb(100%,0%,0%);stroke-opacity:1;stroke-miterlimit:10;" d="M 56.692594 56.69275 L 70.161344 56.69275 " transform="matrix(1,0,0,-1,142.866,89.974)"/>
<path style="fill:none;stroke-width:0.6376;stroke-linecap:round;stroke-linejoin:round;stroke:rgb(100%,0%,0%);stroke-opacity:1;stroke-miterlimit:10;" d="M -1.552994 2.073349 C -1.424088 1.296005 0.00169375 0.128036 0.388412 -0.00087 C 0.00169375 -0.129776 -1.424088 -1.293839 -1.552994 -2.071183 " transform="matrix(1,0,0,-1,213.02565,33.28038)"/>
<path style="fill:none;stroke-width:0.79701;stroke-linecap:butt;stroke-linejoin:miter;stroke:rgb(100%,0%,0%);stroke-opacity:1;stroke-miterlimit:10;" d="M 56.692594 85.040406 L 70.161344 85.040406 " transform="matrix(1,0,0,-1,142.866,89.974)"/>
<path style="fill:none;stroke-width:0.6376;stroke-linecap:round;stroke-linejoin:round;stroke:rgb(100%,0%,0%);stroke-opacity:1;stroke-miterlimit:10;" d="M -1.552994 2.070299 C -1.424088 1.296861 0.00169375 0.128892 0.388412 -0.00001375 C 0.00169375 -0.12892 -1.424088 -1.296889 -1.552994 -2.070326 " transform="matrix(1,0,0,-1,213.02565,4.93358)"/>
<g clip-path="url(#clip5)" clip-rule="nonzero">
<path style="fill:none;stroke-width:0.79701;stroke-linecap:butt;stroke-linejoin:miter;stroke:rgb(100%,0%,0%);stroke-opacity:1;stroke-miterlimit:10;" d="M 85.04025 -85.041625 L 105.594937 -86.803344 " transform="matrix(1,0,0,-1,142.866,89.974)"/>
</g>
<path style="fill:none;stroke-width:0.6376;stroke-linecap:round;stroke-linejoin:round;stroke:rgb(100%,0%,0%);stroke-opacity:1;stroke-miterlimit:10;" d="M -1.55471 2.073089 C -1.425384 1.296101 -0.0000821788 0.12833 0.387243 0.000775783 C -0.00141848 -0.130554 -1.422845 -1.295302 -1.552404 -2.070954 " transform="matrix(0.9963,0.08539,0.08539,-0.9963,248.46178,176.7763)"/>
<path style="fill:none;stroke-width:0.79701;stroke-linecap:butt;stroke-linejoin:miter;stroke:rgb(100%,0%,0%);stroke-opacity:1;stroke-miterlimit:10;" d="M 85.04025 -56.693969 L 105.60275 -59.924438 " transform="matrix(1,0,0,-1,142.866,89.974)"/>
<path style="fill:none;stroke-width:0.6376;stroke-linecap:round;stroke-linejoin:round;stroke:rgb(100%,0%,0%);stroke-opacity:1;stroke-miterlimit:10;" d="M -1.554441 2.072881 C -1.424253 1.294567 0.000293801 0.130419 0.388287 0.00156989 C 0.0017185 -0.130341 -1.424614 -1.295552 -1.555792 -2.071432 " transform="matrix(0.98785,0.1552,0.1552,-0.98785,248.46775,149.89832)"/>
<path style="fill:none;stroke-width:0.79701;stroke-linecap:butt;stroke-linejoin:miter;stroke:rgb(100%,0%,0%);stroke-opacity:1;stroke-miterlimit:10;" d="M 85.04025 -28.346313 L 105.626187 -34.815063 " transform="matrix(1,0,0,-1,142.866,89.974)"/>
<path style="fill:none;stroke-width:0.6376;stroke-linecap:round;stroke-linejoin:round;stroke:rgb(100%,0%,0%);stroke-opacity:1;stroke-miterlimit:10;" d="M -1.555344 2.071245 C -1.425478 1.293089 0.00117602 0.12803 0.389392 0.000235061 C 0.000417648 -0.130182 -1.423266 -1.29414 -1.55534 -2.072708 " transform="matrix(0.95395,0.29976,0.29976,-0.95395,248.49175,124.78975)"/>
<path style="fill:none;stroke-width:0.79701;stroke-linecap:butt;stroke-linejoin:miter;stroke:rgb(100%,0%,0%);stroke-opacity:1;stroke-miterlimit:10;" d="M 85.04025 0.00134375 L 105.661344 -9.721313 " transform="matrix(1,0,0,-1,142.866,89.974)"/>
<path style="fill:none;stroke-width:0.6376;stroke-linecap:round;stroke-linejoin:round;stroke:rgb(100%,0%,0%);stroke-opacity:1;stroke-miterlimit:10;" d="M -1.555159 2.07296 C -1.426371 1.295843 0.000496701 0.128675 0.388972 0.000847874 C 0.00149524 -0.129975 -1.423453 -1.293992 -1.553316 -2.072108 " transform="matrix(0.9045,0.42636,0.42636,-0.9045,248.52672,99.6943)"/>
<path style="fill:none;stroke-width:0.79701;stroke-linecap:butt;stroke-linejoin:miter;stroke:rgb(100%,0%,0%);stroke-opacity:1;stroke-miterlimit:10;" d="M 85.04025 28.345094 L 105.626187 21.876344 " transform="matrix(1,0,0,-1,142.866,89.974)"/>
<path style="fill:none;stroke-width:0.6376;stroke-linecap:round;stroke-linejoin:round;stroke:rgb(100%,0%,0%);stroke-opacity:1;stroke-miterlimit:10;" d="M -1.55586 2.072888 C -1.425995 1.294732 0.000659622 0.129673 0.388876 0.00187844 C -0.0000987525 -0.128539 -1.422612 -1.296223 -1.555856 -2.071065 " transform="matrix(0.95395,0.29976,0.29976,-0.95395,248.49175,68.09616)"/>
<path style="fill:none;stroke-width:0.79701;stroke-linecap:butt;stroke-linejoin:miter;stroke:rgb(100%,0%,0%);stroke-opacity:1;stroke-miterlimit:10;" d="M 85.04025 56.69275 L 105.60275 53.462281 " transform="matrix(1,0,0,-1,142.866,89.974)"/>
<path style="fill:none;stroke-width:0.6376;stroke-linecap:round;stroke-linejoin:round;stroke:rgb(100%,0%,0%);stroke-opacity:1;stroke-miterlimit:10;" d="M -1.554365 2.072396 C -1.424177 1.294082 0.000370047 0.129934 0.388363 0.00108458 C 0.00179475 -0.130826 -1.424538 -1.296038 -1.555715 -2.071917 " transform="matrix(0.98785,0.1552,0.1552,-0.98785,248.46775,36.51111)"/>
<path style="fill:none;stroke-width:0.79701;stroke-linecap:butt;stroke-linejoin:miter;stroke:rgb(100%,0%,0%);stroke-opacity:1;stroke-miterlimit:10;" d="M 85.04025 85.040406 L 105.594937 83.278687 " transform="matrix(1,0,0,-1,142.866,89.974)"/>
<path style="fill:none;stroke-width:0.6376;stroke-linecap:round;stroke-linejoin:round;stroke:rgb(100%,0%,0%);stroke-opacity:1;stroke-miterlimit:10;" d="M -1.554479 2.070394 C -1.425153 1.293406 -0.000184763 0.129527 0.387474 -0.00191946 C -0.00152106 -0.129357 -1.422948 -1.294105 -1.552173 -2.073649 " transform="matrix(0.9963,0.08539,0.08539,-0.9963,248.46178,6.69547)"/>
<g clip-path="url(#clip6)" clip-rule="nonzero">
<path style="fill:none;stroke-width:0.79701;stroke-linecap:butt;stroke-linejoin:miter;stroke:rgb(100%,0%,0%);stroke-opacity:1;stroke-miterlimit:10;" d="M 113.387906 -85.041625 L 141.028531 -87.553344 " transform="matrix(1,0,0,-1,142.866,89.974)"/>
</g>
<path style="fill:none;stroke-width:0.6376;stroke-linecap:round;stroke-linejoin:round;stroke:rgb(100%,0%,0%);stroke-opacity:1;stroke-miterlimit:10;" d="M -1.554354 2.070695 C -1.424919 1.294032 -0.0010535 0.129023 0.387276 -0.000425568 C -0.00105654 -0.129865 -1.42495 -1.29484 -1.554402 -2.0715 " transform="matrix(0.99585,0.09052,0.09052,-0.99585,283.89562,177.52702)"/>
<g clip-path="url(#clip7)" clip-rule="nonzero">
<path style="fill:none;stroke-width:0.79701;stroke-linecap:butt;stroke-linejoin:miter;stroke:rgb(100%,0%,0%);stroke-opacity:1;stroke-miterlimit:10;" d="M 113.387906 -56.693969 L 141.036344 -61.303344 " transform="matrix(1,0,0,-1,142.866,89.974)"/>
</g>
<path style="fill:none;stroke-width:0.6376;stroke-linecap:round;stroke-linejoin:round;stroke:rgb(100%,0%,0%);stroke-opacity:1;stroke-miterlimit:10;" d="M -1.553196 2.071952 C -1.423483 1.293577 -0.00162881 0.128561 0.388197 -0.000533149 C 0.00157723 -0.128327 -1.423534 -1.296499 -1.555846 -2.071015 " transform="matrix(0.98634,0.16437,0.16437,-0.98634,283.90235,151.27551)"/>
<g clip-path="url(#clip8)" clip-rule="nonzero">
<path style="fill:none;stroke-width:0.79701;stroke-linecap:butt;stroke-linejoin:miter;stroke:rgb(100%,0%,0%);stroke-opacity:1;stroke-miterlimit:10;" d="M 113.387906 -28.346313 L 141.063687 -37.572875 " transform="matrix(1,0,0,-1,142.866,89.974)"/>
</g>
<path style="fill:none;stroke-width:0.6376;stroke-linecap:round;stroke-linejoin:round;stroke:rgb(100%,0%,0%);stroke-opacity:1;stroke-miterlimit:10;" d="M -1.554304 2.070965 C -1.423362 1.295182 -0.00150965 0.130268 0.387616 0.000558128 C -0.00151047 -0.129149 -1.424606 -1.295289 -1.553082 -2.071071 " transform="matrix(0.94864,0.31621,0.31621,-0.94864,283.92899,127.54593)"/>
<g clip-path="url(#clip9)" clip-rule="nonzero">
<path style="fill:none;stroke-width:0.79701;stroke-linecap:butt;stroke-linejoin:miter;stroke:rgb(100%,0%,0%);stroke-opacity:1;stroke-miterlimit:10;" d="M 113.387906 0.00134375 L 141.10275 -13.858031 " transform="matrix(1,0,0,-1,142.866,89.974)"/>
</g>
<path style="fill:none;stroke-width:0.6376;stroke-linecap:round;stroke-linejoin:round;stroke:rgb(100%,0%,0%);stroke-opacity:1;stroke-miterlimit:10;" d="M -1.554917 2.073512 C -1.423903 1.296079 -0.00183641 0.129034 0.389497 0.00149297 C -0.0000939704 -0.127781 -1.425696 -1.294775 -1.553244 -2.070457 " transform="matrix(0.89438,0.44717,0.44717,-0.89438,283.96738,103.83107)"/>
<g clip-path="url(#clip10)" clip-rule="nonzero">
<path style="fill:none;stroke-width:0.79701;stroke-linecap:butt;stroke-linejoin:miter;stroke:rgb(100%,0%,0%);stroke-opacity:1;stroke-miterlimit:10;" d="M 113.387906 28.345094 L 141.063687 19.122437 " transform="matrix(1,0,0,-1,142.866,89.974)"/>
</g>
<path style="fill:none;stroke-width:0.6376;stroke-linecap:round;stroke-linejoin:round;stroke:rgb(100%,0%,0%);stroke-opacity:1;stroke-miterlimit:10;" d="M -1.554848 2.072599 C -1.423907 1.296816 -0.000819058 0.128196 0.388307 -0.00151366 C -0.000819878 -0.131221 -1.42515 -1.293655 -1.552391 -2.073143 " transform="matrix(0.94864,0.31621,0.31621,-0.94864,283.92899,70.85234)"/>
<g clip-path="url(#clip11)" clip-rule="nonzero">
<path style="fill:none;stroke-width:0.79701;stroke-linecap:butt;stroke-linejoin:miter;stroke:rgb(100%,0%,0%);stroke-opacity:1;stroke-miterlimit:10;" d="M 113.387906 56.69275 L 141.036344 52.087281 " transform="matrix(1,0,0,-1,142.866,89.974)"/>
</g>
<path style="fill:none;stroke-width:0.6376;stroke-linecap:round;stroke-linejoin:round;stroke:rgb(100%,0%,0%);stroke-opacity:1;stroke-miterlimit:10;" d="M -1.553115 2.071467 C -1.424044 1.296946 -0.00154805 0.128076 0.388277 -0.00101775 C 0.00165798 -0.128812 -1.424095 -1.29313 -1.555766 -2.071499 " transform="matrix(0.98634,0.16437,0.16437,-0.98634,283.90235,37.8883)"/>
<g clip-path="url(#clip12)" clip-rule="nonzero">
<path style="fill:none;stroke-width:0.79701;stroke-linecap:butt;stroke-linejoin:miter;stroke:rgb(100%,0%,0%);stroke-opacity:1;stroke-miterlimit:10;" d="M 113.387906 85.040406 L 141.028531 82.528687 " transform="matrix(1,0,0,-1,142.866,89.974)"/>
</g>
<path style="fill:none;stroke-width:0.6376;stroke-linecap:round;stroke-linejoin:round;stroke:rgb(100%,0%,0%);stroke-opacity:1;stroke-miterlimit:10;" d="M -1.554463 2.071901 C -1.425029 1.295238 -0.00116315 0.130229 0.387166 0.000780762 C -0.0011662 -0.128658 -1.425059 -1.293634 -1.554512 -2.070294 " transform="matrix(0.99585,0.09052,0.09052,-0.99585,283.89562,7.4462)"/>
</g>
</svg>
