<?xml version="1.0" encoding="UTF-8"?>
<svg xmlns="http://www.w3.org/2000/svg" xmlns:xlink="http://www.w3.org/1999/xlink" width="188.24pt" height="88.88pt" viewBox="0 0 188.24 88.88" version="1.1">
<defs>
<clipPath id="clip1">
  <path d="M 0 0 L 182 0 L 182 88.878906 L 0 88.878906 Z M 0 0 "/>
</clipPath>
<clipPath id="clip2">
  <path d="M 0 7 L 188.238281 7 L 188.238281 88.878906 L 0 88.878906 Z M 0 7 "/>
</clipPath>
<clipPath id="clip3">
  <path d="M 0 35 L 188.238281 35 L 188.238281 88.878906 L 0 88.878906 Z M 0 35 "/>
</clipPath>
</defs>
<g id="surface1">
<g clip-path="url(#clip1)" clip-rule="nonzero">
<path style="fill:none;stroke-width:1.59404;stroke-linecap:butt;stroke-linejoin:miter;stroke:rgb(0%,0%,0%);stroke-opacity:1;stroke-miterlimit:10;" d="M 141.734719 0.0000625 L 0.00034375 85.039125 " transform="matrix(1,0,0,-1,17.027,86.836)"/>
</g>
<path style="fill:none;stroke-width:0.3985;stroke-linecap:butt;stroke-linejoin:miter;stroke:rgb(0%,0%,0%);stroke-opacity:1;stroke-miterlimit:10;" d="M -14.171531 85.039125 L -14.171531 59.988344 " transform="matrix(1,0,0,-1,17.027,86.836)"/>
<path style="fill:none;stroke-width:0.31879;stroke-linecap:round;stroke-linejoin:round;stroke:rgb(0%,0%,0%);stroke-opacity:1;stroke-miterlimit:10;" d="M -1.196916 1.595609 C -1.095354 0.997953 -0.00160375 0.099515 0.299178 0.00185875 C -0.00160375 -0.0997037 -1.095354 -0.998141 -1.196916 -1.595797 " transform="matrix(0,1,1,0,2.85361,26.84926)"/>
<path style="fill:none;stroke-width:0.3985;stroke-linecap:butt;stroke-linejoin:miter;stroke:rgb(0%,0%,100%);stroke-opacity:1;stroke-miterlimit:10;" d="M -14.171531 56.695375 L -14.171531 28.80475 " transform="matrix(1,0,0,-1,17.027,86.836)"/>
<path style="fill:none;stroke-width:0.31879;stroke-linecap:round;stroke-linejoin:round;stroke:rgb(0%,0%,100%);stroke-opacity:1;stroke-miterlimit:10;" d="M -1.194982 1.595609 C -1.097326 0.997953 0.00033 0.099515 0.297205 0.00185875 C 0.00033 -0.0997037 -1.097326 -0.998141 -1.194982 -1.595797 " transform="matrix(0,1,1,0,2.85361,58.03092)"/>
<g clip-path="url(#clip2)" clip-rule="nonzero">
<path style="fill:none;stroke-width:1.59404;stroke-linecap:butt;stroke-linejoin:miter;stroke:rgb(0%,0%,100%);stroke-opacity:1;stroke-miterlimit:10;" d="M 155.906594 0.0000625 L 0.00034375 56.695375 " transform="matrix(1,0,0,-1,17.027,86.836)"/>
</g>
<g clip-path="url(#clip3)" clip-rule="nonzero">
<path style="fill:none;stroke-width:1.59404;stroke-linecap:butt;stroke-linejoin:miter;stroke:rgb(100%,0%,0%);stroke-opacity:1;stroke-miterlimit:10;" d="M 170.082375 0.0000625 L 0.00034375 28.347719 " transform="matrix(1,0,0,-1,17.027,86.836)"/>
</g>
</g>
</svg>
