<?xml version="1.0" encoding="UTF-8"?>
<svg xmlns="http://www.w3.org/2000/svg" xmlns:xlink="http://www.w3.org/1999/xlink" width="186.8pt" height="186.32pt" viewBox="0 0 186.8 186.32" version="1.1">
<defs>
<clipPath id="clip1">
  <path d="M 0 165 L 17 165 L 17 186.320312 L 0 186.320312 Z M 0 165 "/>
</clipPath>
<clipPath id="clip2">
  <path d="M 29 165 L 45 165 L 45 186.320312 L 29 186.320312 Z M 29 165 "/>
</clipPath>
<clipPath id="clip3">
  <path d="M 57 165 L 73 165 L 73 186.320312 L 57 186.320312 Z M 57 165 "/>
</clipPath>
<clipPath id="clip4">
  <path d="M 86 165 L 101 165 L 101 186.320312 L 86 186.320312 Z M 86 165 "/>
</clipPath>
<clipPath id="clip5">
  <path d="M 114 165 L 129 165 L 129 186.320312 L 114 186.320312 Z M 114 165 "/>
</clipPath>
<clipPath id="clip6">
  <path d="M 143 165 L 158 165 L 158 186.320312 L 143 186.320312 Z M 143 165 "/>
</clipPath>
<clipPath id="clip7">
  <path d="M 171 165 L 186 165 L 186 186.320312 L 171 186.320312 Z M 171 165 "/>
</clipPath>
<clipPath id="clip8">
  <path d="M 170 80 L 186.800781 80 L 186.800781 106 L 170 106 Z M 170 80 "/>
</clipPath>
<clipPath id="clip9">
  <path d="M 169 52 L 186.800781 52 L 186.800781 77 L 169 77 Z M 169 52 "/>
</clipPath>
<clipPath id="clip10">
  <path d="M 167 25 L 186.800781 25 L 186.800781 47 L 167 47 Z M 167 25 "/>
</clipPath>
</defs>
<g id="surface1">
<path style="fill:none;stroke-width:0.3985;stroke-linecap:butt;stroke-linejoin:miter;stroke:rgb(50%,50%,50%);stroke-opacity:1;stroke-dasharray:0.3985,1.99255;stroke-miterlimit:10;" d="M -0.001 -85.039 L 170.081031 -85.039 M -0.001 -56.69525 L 170.081031 -56.69525 M -0.001 -28.347594 L 170.081031 -28.347594 M -0.001 0.0000625 L 170.081031 0.0000625 M -0.001 28.347719 L 170.081031 28.347719 M -0.001 56.695375 L 170.081031 56.695375 M -0.001 85.031312 L 170.081031 85.031312 M -0.001 -85.039 L -0.001 85.039125 M 28.346656 -85.039 L 28.346656 85.039125 M 56.694313 -85.039 L 56.694313 85.039125 M 85.041969 -85.039 L 85.041969 85.039125 M 113.385719 -85.039 L 113.385719 85.039125 M 141.733375 -85.039 L 141.733375 85.039125 M 170.069313 -85.039 L 170.069313 85.039125 " transform="matrix(1,0,0,-1,8.501,92.961)"/>
<g clip-path="url(#clip1)" clip-rule="nonzero">
<path style="fill:none;stroke-width:0.3985;stroke-linecap:butt;stroke-linejoin:miter;stroke:rgb(100%,0%,0%);stroke-opacity:1;stroke-miterlimit:10;" d="M -2.239281 -78.316344 L 2.241188 -91.761656 " transform="matrix(1,0,0,-1,8.501,92.961)"/>
</g>
<path style="fill:none;stroke-width:0.3985;stroke-linecap:butt;stroke-linejoin:miter;stroke:rgb(100%,0%,0%);stroke-opacity:1;stroke-miterlimit:10;" d="M -3.168969 -50.355406 L 3.170875 -63.031188 " transform="matrix(1,0,0,-1,8.501,92.961)"/>
<path style="fill:none;stroke-width:0.3985;stroke-linecap:butt;stroke-linejoin:miter;stroke:rgb(100%,0%,0%);stroke-opacity:1;stroke-miterlimit:10;" d="M -5.012719 -23.335875 L 5.010719 -33.359313 " transform="matrix(1,0,0,-1,8.501,92.961)"/>
<path style="fill:none;stroke-width:0.3985;stroke-linecap:butt;stroke-linejoin:miter;stroke:rgb(100%,0%,0%);stroke-opacity:1;stroke-miterlimit:10;" d="M -7.086937 0.0000625 L 7.084938 0.0000625 " transform="matrix(1,0,0,-1,8.501,92.961)"/>
<path style="fill:none;stroke-width:0.3985;stroke-linecap:butt;stroke-linejoin:miter;stroke:rgb(100%,0%,0%);stroke-opacity:1;stroke-miterlimit:10;" d="M -5.012719 23.336 L 5.010719 33.359437 " transform="matrix(1,0,0,-1,8.501,92.961)"/>
<path style="fill:none;stroke-width:0.3985;stroke-linecap:butt;stroke-linejoin:miter;stroke:rgb(100%,0%,0%);stroke-opacity:1;stroke-miterlimit:10;" d="M -3.168969 50.355531 L 3.170875 63.031312 " transform="matrix(1,0,0,-1,8.501,92.961)"/>
<path style="fill:none;stroke-width:0.3985;stroke-linecap:butt;stroke-linejoin:miter;stroke:rgb(100%,0%,0%);stroke-opacity:1;stroke-miterlimit:10;" d="M -2.239281 78.316469 L 2.241188 91.761781 " transform="matrix(1,0,0,-1,8.501,92.961)"/>
<g clip-path="url(#clip2)" clip-rule="nonzero">
<path style="fill:none;stroke-width:0.3985;stroke-linecap:butt;stroke-linejoin:miter;stroke:rgb(100%,0%,0%);stroke-opacity:1;stroke-miterlimit:10;" d="M 26.401344 -78.2265 L 30.291969 -91.855406 " transform="matrix(1,0,0,-1,8.501,92.961)"/>
</g>
<path style="fill:none;stroke-width:0.3985;stroke-linecap:butt;stroke-linejoin:miter;stroke:rgb(100%,0%,0%);stroke-opacity:1;stroke-miterlimit:10;" d="M 25.713844 -50.113219 L 30.979469 -63.273375 " transform="matrix(1,0,0,-1,8.501,92.961)"/>
<path style="fill:none;stroke-width:0.3985;stroke-linecap:butt;stroke-linejoin:miter;stroke:rgb(100%,0%,0%);stroke-opacity:1;stroke-miterlimit:10;" d="M 24.416969 -22.449156 L 32.276344 -34.242125 " transform="matrix(1,0,0,-1,8.501,92.961)"/>
<path style="fill:none;stroke-width:0.3985;stroke-linecap:butt;stroke-linejoin:miter;stroke:rgb(100%,0%,0%);stroke-opacity:1;stroke-miterlimit:10;" d="M 22.006813 3.168031 L 34.6865 -3.167906 " transform="matrix(1,0,0,-1,8.501,92.961)"/>
<path style="fill:none;stroke-width:0.3985;stroke-linecap:butt;stroke-linejoin:miter;stroke:rgb(100%,0%,0%);stroke-opacity:1;stroke-miterlimit:10;" d="M 22.006813 25.17975 L 34.6865 31.515687 " transform="matrix(1,0,0,-1,8.501,92.961)"/>
<path style="fill:none;stroke-width:0.3985;stroke-linecap:butt;stroke-linejoin:miter;stroke:rgb(100%,0%,0%);stroke-opacity:1;stroke-miterlimit:10;" d="M 24.416969 50.796937 L 32.276344 62.589906 " transform="matrix(1,0,0,-1,8.501,92.961)"/>
<path style="fill:none;stroke-width:0.3985;stroke-linecap:butt;stroke-linejoin:miter;stroke:rgb(100%,0%,0%);stroke-opacity:1;stroke-miterlimit:10;" d="M 25.713844 78.461 L 30.979469 91.621156 " transform="matrix(1,0,0,-1,8.501,92.961)"/>
<g clip-path="url(#clip3)" clip-rule="nonzero">
<path style="fill:none;stroke-width:0.3985;stroke-linecap:butt;stroke-linejoin:miter;stroke:rgb(100%,0%,0%);stroke-opacity:1;stroke-miterlimit:10;" d="M 54.975563 -78.164 L 58.413063 -91.914 " transform="matrix(1,0,0,-1,8.501,92.961)"/>
</g>
<path style="fill:none;stroke-width:0.3985;stroke-linecap:butt;stroke-linejoin:miter;stroke:rgb(100%,0%,0%);stroke-opacity:1;stroke-miterlimit:10;" d="M 54.452125 -49.972594 L 58.932594 -63.417906 " transform="matrix(1,0,0,-1,8.501,92.961)"/>
<path style="fill:none;stroke-width:0.3985;stroke-linecap:butt;stroke-linejoin:miter;stroke:rgb(100%,0%,0%);stroke-opacity:1;stroke-miterlimit:10;" d="M 53.526344 -22.00775 L 59.862281 -34.683531 " transform="matrix(1,0,0,-1,8.501,92.961)"/>
<path style="fill:none;stroke-width:0.3985;stroke-linecap:butt;stroke-linejoin:miter;stroke:rgb(100%,0%,0%);stroke-opacity:1;stroke-miterlimit:10;" d="M 51.682594 5.011781 L 61.706031 -5.011656 " transform="matrix(1,0,0,-1,8.501,92.961)"/>
<path style="fill:none;stroke-width:0.3985;stroke-linecap:butt;stroke-linejoin:miter;stroke:rgb(100%,0%,0%);stroke-opacity:1;stroke-miterlimit:10;" d="M 49.608375 28.347719 L 63.78025 28.347719 " transform="matrix(1,0,0,-1,8.501,92.961)"/>
<path style="fill:none;stroke-width:0.3985;stroke-linecap:butt;stroke-linejoin:miter;stroke:rgb(100%,0%,0%);stroke-opacity:1;stroke-miterlimit:10;" d="M 51.682594 51.683656 L 61.706031 61.703187 " transform="matrix(1,0,0,-1,8.501,92.961)"/>
<path style="fill:none;stroke-width:0.3985;stroke-linecap:butt;stroke-linejoin:miter;stroke:rgb(100%,0%,0%);stroke-opacity:1;stroke-miterlimit:10;" d="M 53.526344 78.703187 L 59.862281 91.378969 " transform="matrix(1,0,0,-1,8.501,92.961)"/>
<g clip-path="url(#clip4)" clip-rule="nonzero">
<path style="fill:none;stroke-width:0.3985;stroke-linecap:butt;stroke-linejoin:miter;stroke:rgb(100%,0%,0%);stroke-opacity:1;stroke-miterlimit:10;" d="M 83.502906 -78.121031 L 86.577125 -91.956969 " transform="matrix(1,0,0,-1,8.501,92.961)"/>
</g>
<path style="fill:none;stroke-width:0.3985;stroke-linecap:butt;stroke-linejoin:miter;stroke:rgb(100%,0%,0%);stroke-opacity:1;stroke-miterlimit:10;" d="M 83.09275 -49.878844 L 86.987281 -63.50775 " transform="matrix(1,0,0,-1,8.501,92.961)"/>
<path style="fill:none;stroke-width:0.3985;stroke-linecap:butt;stroke-linejoin:miter;stroke:rgb(100%,0%,0%);stroke-opacity:1;stroke-miterlimit:10;" d="M 82.409156 -21.765563 L 87.670875 -34.925719 " transform="matrix(1,0,0,-1,8.501,92.961)"/>
<path style="fill:none;stroke-width:0.3985;stroke-linecap:butt;stroke-linejoin:miter;stroke:rgb(100%,0%,0%);stroke-opacity:1;stroke-miterlimit:10;" d="M 81.108375 5.894594 L 88.971656 -5.894469 " transform="matrix(1,0,0,-1,8.501,92.961)"/>
<path style="fill:none;stroke-width:0.3985;stroke-linecap:butt;stroke-linejoin:miter;stroke:rgb(100%,0%,0%);stroke-opacity:1;stroke-miterlimit:10;" d="M 78.702125 31.515687 L 91.377906 25.17975 " transform="matrix(1,0,0,-1,8.501,92.961)"/>
<path style="fill:none;stroke-width:0.3985;stroke-linecap:butt;stroke-linejoin:miter;stroke:rgb(100%,0%,0%);stroke-opacity:1;stroke-miterlimit:10;" d="M 78.702125 53.5235 L 91.377906 59.863344 " transform="matrix(1,0,0,-1,8.501,92.961)"/>
<path style="fill:none;stroke-width:0.3985;stroke-linecap:butt;stroke-linejoin:miter;stroke:rgb(100%,0%,0%);stroke-opacity:1;stroke-miterlimit:10;" d="M 81.108375 79.144594 L 88.971656 90.937562 " transform="matrix(1,0,0,-1,8.501,92.961)"/>
<g clip-path="url(#clip5)" clip-rule="nonzero">
<path style="fill:none;stroke-width:0.3985;stroke-linecap:butt;stroke-linejoin:miter;stroke:rgb(100%,0%,0%);stroke-opacity:1;stroke-miterlimit:10;" d="M 111.999 -78.089781 L 114.776344 -91.988219 " transform="matrix(1,0,0,-1,8.501,92.961)"/>
</g>
<path style="fill:none;stroke-width:0.3985;stroke-linecap:butt;stroke-linejoin:miter;stroke:rgb(100%,0%,0%);stroke-opacity:1;stroke-miterlimit:10;" d="M 111.666969 -49.82025 L 115.104469 -63.57025 " transform="matrix(1,0,0,-1,8.501,92.961)"/>
<path style="fill:none;stroke-width:0.3985;stroke-linecap:butt;stroke-linejoin:miter;stroke:rgb(100%,0%,0%);stroke-opacity:1;stroke-miterlimit:10;" d="M 111.147438 -21.624938 L 115.627906 -35.07025 " transform="matrix(1,0,0,-1,8.501,92.961)"/>
<path style="fill:none;stroke-width:0.3985;stroke-linecap:butt;stroke-linejoin:miter;stroke:rgb(100%,0%,0%);stroke-opacity:1;stroke-miterlimit:10;" d="M 110.21775 6.339906 L 116.557594 -6.339781 " transform="matrix(1,0,0,-1,8.501,92.961)"/>
<path style="fill:none;stroke-width:0.3985;stroke-linecap:butt;stroke-linejoin:miter;stroke:rgb(100%,0%,0%);stroke-opacity:1;stroke-miterlimit:10;" d="M 108.377906 33.359437 L 118.397438 23.336 " transform="matrix(1,0,0,-1,8.501,92.961)"/>
<path style="fill:none;stroke-width:0.3985;stroke-linecap:butt;stroke-linejoin:miter;stroke:rgb(100%,0%,0%);stroke-opacity:1;stroke-miterlimit:10;" d="M 106.299781 56.695375 L 120.475563 56.695375 " transform="matrix(1,0,0,-1,8.501,92.961)"/>
<path style="fill:none;stroke-width:0.3985;stroke-linecap:butt;stroke-linejoin:miter;stroke:rgb(100%,0%,0%);stroke-opacity:1;stroke-miterlimit:10;" d="M 108.377906 80.031312 L 118.397438 90.050844 " transform="matrix(1,0,0,-1,8.501,92.961)"/>
<g clip-path="url(#clip6)" clip-rule="nonzero">
<path style="fill:none;stroke-width:0.3985;stroke-linecap:butt;stroke-linejoin:miter;stroke:rgb(100%,0%,0%);stroke-opacity:1;stroke-miterlimit:10;" d="M 140.46775 -78.07025 L 143.002906 -92.011656 " transform="matrix(1,0,0,-1,8.501,92.961)"/>
</g>
<path style="fill:none;stroke-width:0.3985;stroke-linecap:butt;stroke-linejoin:miter;stroke:rgb(100%,0%,0%);stroke-opacity:1;stroke-miterlimit:10;" d="M 140.198219 -49.777281 L 143.272438 -63.609313 " transform="matrix(1,0,0,-1,8.501,92.961)"/>
<path style="fill:none;stroke-width:0.3985;stroke-linecap:butt;stroke-linejoin:miter;stroke:rgb(100%,0%,0%);stroke-opacity:1;stroke-miterlimit:10;" d="M 139.788063 -21.531188 L 143.682594 -35.160094 " transform="matrix(1,0,0,-1,8.501,92.961)"/>
<path style="fill:none;stroke-width:0.3985;stroke-linecap:butt;stroke-linejoin:miter;stroke:rgb(100%,0%,0%);stroke-opacity:1;stroke-miterlimit:10;" d="M 139.100563 6.578187 L 144.366188 -6.578063 " transform="matrix(1,0,0,-1,8.501,92.961)"/>
<path style="fill:none;stroke-width:0.3985;stroke-linecap:butt;stroke-linejoin:miter;stroke:rgb(100%,0%,0%);stroke-opacity:1;stroke-miterlimit:10;" d="M 137.803688 34.24225 L 145.666969 22.449281 " transform="matrix(1,0,0,-1,8.501,92.961)"/>
<path style="fill:none;stroke-width:0.3985;stroke-linecap:butt;stroke-linejoin:miter;stroke:rgb(100%,0%,0%);stroke-opacity:1;stroke-miterlimit:10;" d="M 135.397438 59.863344 L 148.073219 53.5235 " transform="matrix(1,0,0,-1,8.501,92.961)"/>
<path style="fill:none;stroke-width:0.3985;stroke-linecap:butt;stroke-linejoin:miter;stroke:rgb(100%,0%,0%);stroke-opacity:1;stroke-miterlimit:10;" d="M 135.397438 81.871156 L 148.073219 88.211 " transform="matrix(1,0,0,-1,8.501,92.961)"/>
<g clip-path="url(#clip7)" clip-rule="nonzero">
<path style="fill:none;stroke-width:0.3985;stroke-linecap:butt;stroke-linejoin:miter;stroke:rgb(100%,0%,0%);stroke-opacity:1;stroke-miterlimit:10;" d="M 168.916969 -78.050719 L 171.245094 -92.031188 " transform="matrix(1,0,0,-1,8.501,92.961)"/>
</g>
<path style="fill:none;stroke-width:0.3985;stroke-linecap:butt;stroke-linejoin:miter;stroke:rgb(100%,0%,0%);stroke-opacity:1;stroke-miterlimit:10;" d="M 168.690406 -49.746031 L 171.471656 -63.640563 " transform="matrix(1,0,0,-1,8.501,92.961)"/>
<path style="fill:none;stroke-width:0.3985;stroke-linecap:butt;stroke-linejoin:miter;stroke:rgb(100%,0%,0%);stroke-opacity:1;stroke-miterlimit:10;" d="M 168.362281 -21.472594 L 171.799781 -35.222594 " transform="matrix(1,0,0,-1,8.501,92.961)"/>
<g clip-path="url(#clip8)" clip-rule="nonzero">
<path style="fill:none;stroke-width:0.3985;stroke-linecap:butt;stroke-linejoin:miter;stroke:rgb(100%,0%,0%);stroke-opacity:1;stroke-miterlimit:10;" d="M 167.838844 6.722719 L 172.323219 -6.722594 " transform="matrix(1,0,0,-1,8.501,92.961)"/>
</g>
<g clip-path="url(#clip9)" clip-rule="nonzero">
<path style="fill:none;stroke-width:0.3985;stroke-linecap:butt;stroke-linejoin:miter;stroke:rgb(100%,0%,0%);stroke-opacity:1;stroke-miterlimit:10;" d="M 166.913063 34.683656 L 173.249 22.007875 " transform="matrix(1,0,0,-1,8.501,92.961)"/>
</g>
<g clip-path="url(#clip10)" clip-rule="nonzero">
<path style="fill:none;stroke-width:0.3985;stroke-linecap:butt;stroke-linejoin:miter;stroke:rgb(100%,0%,0%);stroke-opacity:1;stroke-miterlimit:10;" d="M 165.069313 61.703187 L 175.09275 51.683656 " transform="matrix(1,0,0,-1,8.501,92.961)"/>
</g>
<path style="fill:none;stroke-width:0.3985;stroke-linecap:butt;stroke-linejoin:miter;stroke:rgb(100%,0%,0%);stroke-opacity:1;stroke-miterlimit:10;" d="M 162.995094 85.039125 L 177.166969 85.039125 " transform="matrix(1,0,0,-1,8.501,92.961)"/>
<path style=" stroke:none;fill-rule:nonzero;fill:rgb(100%,0%,0%);fill-opacity:1;" d="M 11.335938 64.613281 C 11.335938 63.046875 10.066406 61.78125 8.5 61.78125 C 6.933594 61.78125 5.667969 63.046875 5.667969 64.613281 C 5.667969 66.179688 6.933594 67.449219 8.5 67.449219 C 10.066406 67.449219 11.335938 66.179688 11.335938 64.613281 Z M 11.335938 64.613281 "/>
<path style=" stroke:none;fill-rule:nonzero;fill:rgb(100%,0%,0%);fill-opacity:1;" d="M 68.027344 36.265625 C 68.027344 34.703125 66.761719 33.433594 65.195312 33.433594 C 63.628906 33.433594 62.359375 34.703125 62.359375 36.265625 C 62.359375 37.832031 63.628906 39.101562 65.195312 39.101562 C 66.761719 39.101562 68.027344 37.832031 68.027344 36.265625 Z M 68.027344 36.265625 "/>
<path style=" stroke:none;fill-rule:nonzero;fill:rgb(100%,0%,0%);fill-opacity:1;" d="M 124.722656 7.921875 C 124.722656 6.355469 123.453125 5.085938 121.886719 5.085938 C 120.324219 5.085938 119.054688 6.355469 119.054688 7.921875 C 119.054688 9.484375 120.324219 10.753906 121.886719 10.753906 C 123.453125 10.753906 124.722656 9.484375 124.722656 7.921875 Z M 124.722656 7.921875 "/>
<path style=" stroke:none;fill-rule:nonzero;fill:rgb(100%,59.999084%,0%);fill-opacity:1;" d="M 11.335938 92.960938 C 11.335938 91.394531 10.066406 90.125 8.5 90.125 C 6.933594 90.125 5.667969 91.394531 5.667969 92.960938 C 5.667969 94.527344 6.933594 95.796875 8.5 95.796875 C 10.066406 95.796875 11.335938 94.527344 11.335938 92.960938 Z M 11.335938 92.960938 "/>
<path style=" stroke:none;fill-rule:nonzero;fill:rgb(100%,59.999084%,0%);fill-opacity:1;" d="M 68.027344 64.613281 C 68.027344 63.046875 66.761719 61.78125 65.195312 61.78125 C 63.628906 61.78125 62.359375 63.046875 62.359375 64.613281 C 62.359375 66.179688 63.628906 67.449219 65.195312 67.449219 C 66.761719 67.449219 68.027344 66.179688 68.027344 64.613281 Z M 68.027344 64.613281 "/>
<path style=" stroke:none;fill-rule:nonzero;fill:rgb(100%,59.999084%,0%);fill-opacity:1;" d="M 124.722656 36.265625 C 124.722656 34.703125 123.453125 33.433594 121.886719 33.433594 C 120.324219 33.433594 119.054688 34.703125 119.054688 36.265625 C 119.054688 37.832031 120.324219 39.101562 121.886719 39.101562 C 123.453125 39.101562 124.722656 37.832031 124.722656 36.265625 Z M 124.722656 36.265625 "/>
<path style=" stroke:none;fill-rule:nonzero;fill:rgb(100%,59.999084%,0%);fill-opacity:1;" d="M 181.417969 7.921875 C 181.417969 6.355469 180.148438 5.085938 178.582031 5.085938 C 177.015625 5.085938 175.746094 6.355469 175.746094 7.921875 C 175.746094 9.484375 177.015625 10.753906 178.582031 10.753906 C 180.148438 10.753906 181.417969 9.484375 181.417969 7.921875 Z M 181.417969 7.921875 "/>
<path style=" stroke:none;fill-rule:nonzero;fill:rgb(100%,94.898987%,0%);fill-opacity:1;" d="M 11.335938 121.308594 C 11.335938 119.742188 10.066406 118.472656 8.5 118.472656 C 6.933594 118.472656 5.667969 119.742188 5.667969 121.308594 C 5.667969 122.875 6.933594 124.140625 8.5 124.140625 C 10.066406 124.140625 11.335938 122.875 11.335938 121.308594 Z M 11.335938 121.308594 "/>
<path style=" stroke:none;fill-rule:nonzero;fill:rgb(100%,94.898987%,0%);fill-opacity:1;" d="M 68.027344 92.960938 C 68.027344 91.394531 66.761719 90.125 65.195312 90.125 C 63.628906 90.125 62.359375 91.394531 62.359375 92.960938 C 62.359375 94.527344 63.628906 95.796875 65.195312 95.796875 C 66.761719 95.796875 68.027344 94.527344 68.027344 92.960938 Z M 68.027344 92.960938 "/>
<path style=" stroke:none;fill-rule:nonzero;fill:rgb(100%,94.898987%,0%);fill-opacity:1;" d="M 124.722656 64.613281 C 124.722656 63.046875 123.453125 61.78125 121.886719 61.78125 C 120.324219 61.78125 119.054688 63.046875 119.054688 64.613281 C 119.054688 66.179688 120.324219 67.449219 121.886719 67.449219 C 123.453125 67.449219 124.722656 66.179688 124.722656 64.613281 Z M 124.722656 64.613281 "/>
</g>
</svg>
