<?xml version="1.0" encoding="UTF-8"?>
<svg xmlns="http://www.w3.org/2000/svg" xmlns:xlink="http://www.w3.org/1999/xlink" width="130.64pt" height="130.64pt" viewBox="0 0 130.64 130.64" version="1.1">
<defs>
<clipPath id="clip1">
  <path d="M 0 53 L 39 53 L 39 130.640625 L 0 130.640625 Z M 0 53 "/>
</clipPath>
<clipPath id="clip2">
  <path d="M 91 0 L 130.640625 0 L 130.640625 77 L 91 77 Z M 91 0 "/>
</clipPath>
</defs>
<g id="surface1">
<path style="fill:none;stroke-width:0.79701;stroke-linecap:butt;stroke-linejoin:miter;stroke:rgb(0%,0%,0%);stroke-opacity:1;stroke-miterlimit:10;" d="M -63.779719 -63.779031 L 63.778875 63.779562 " transform="matrix(1,0,0,-1,65.393,65.178)"/>
<path style=" stroke:none;fill-rule:nonzero;fill:rgb(0%,0%,100%);fill-opacity:0.5;" d="M 8.699219 121.871094 L 27.691406 102.878906 L 27.691406 65.179688 L 8.699219 65.179688 Z M 8.699219 121.871094 "/>
<g clip-path="url(#clip1)" clip-rule="nonzero">
<path style="fill:none;stroke-width:0.79701;stroke-linecap:butt;stroke-linejoin:miter;stroke:rgb(0%,0%,100%);stroke-opacity:1;stroke-miterlimit:10;" d="M -56.693781 -56.693094 L -37.701594 -37.700906 L -37.701594 -0.0016875 L -56.693781 -0.0016875 Z M -56.693781 -56.693094 " transform="matrix(1,0,0,-1,65.393,65.178)"/>
</g>
<path style=" stroke:none;fill-rule:nonzero;fill:rgb(100%,0%,0%);fill-opacity:0.5;" d="M 103.09375 27.476562 L 122.085938 8.484375 L 122.085938 65.179688 L 103.09375 65.179688 Z M 103.09375 27.476562 "/>
<g clip-path="url(#clip2)" clip-rule="nonzero">
<path style="fill:none;stroke-width:0.79701;stroke-linecap:butt;stroke-linejoin:miter;stroke:rgb(100%,0%,0%);stroke-opacity:1;stroke-miterlimit:10;" d="M 37.70075 37.701437 L 56.692938 56.693625 L 56.692938 -0.0016875 L 37.70075 -0.0016875 Z M 37.70075 37.701437 " transform="matrix(1,0,0,-1,65.393,65.178)"/>
</g>
</g>
</svg>
