<?xml version="1.0" encoding="UTF-8"?>
<svg xmlns="http://www.w3.org/2000/svg" xmlns:xlink="http://www.w3.org/1999/xlink" width="342.32pt" height="170pt" viewBox="0 0 342.32 170" version="1.1">
<defs>
<clipPath id="clip1">
  <path d="M 165 0 L 342.320312 0 L 342.320312 128 L 165 128 Z M 165 0 "/>
</clipPath>
</defs>
<g id="surface1">
<g clip-path="url(#clip1)" clip-rule="nonzero">
<path style="fill:none;stroke-width:0.3985;stroke-linecap:butt;stroke-linejoin:miter;stroke:rgb(0%,0%,0%);stroke-opacity:1;stroke-miterlimit:10;" d="M 0.0015625 0.00140625 L 1.716406 -0.0454688 L 3.435156 -0.174375 L 5.153906 -0.389219 L 6.86875 -0.69 L 8.5875 -1.076719 L 10.30625 -1.541563 L 12.025 -2.088438 L 13.739844 -2.713438 L 15.458594 -3.40875 L 17.177344 -4.182188 L 18.892188 -5.018125 L 20.610938 -5.920469 L 22.329688 -6.885313 L 24.048438 -7.904844 L 25.763281 -8.975156 L 27.482031 -10.092344 L 29.200781 -11.248594 L 30.915625 -12.443906 L 32.634375 -13.670469 L 34.353125 -14.920469 L 36.067969 -16.19 L 37.786719 -17.475156 L 41.224219 -20.053281 L 42.939063 -21.342344 L 44.657813 -22.615781 L 46.376563 -23.869688 L 48.091406 -25.104063 L 49.810156 -26.307188 L 51.528906 -27.47125 L 53.247656 -28.592344 L 54.9625 -29.666563 L 56.68125 -30.686094 L 58.4 -31.643125 L 60.114844 -32.537656 L 61.833594 -33.357969 L 63.552344 -34.100156 L 65.267188 -34.764219 L 66.985938 -35.338438 L 68.704688 -35.818906 L 70.423438 -36.209531 L 72.138281 -36.494688 L 73.857031 -36.678281 L 75.575781 -36.756406 L 77.290625 -36.725156 L 79.009375 -36.580625 L 80.728125 -36.318906 L 82.446875 -35.943906 L 84.161719 -35.447813 L 85.880469 -34.834531 L 87.599219 -34.09625 L 89.314063 -33.240781 L 91.032813 -32.260313 L 92.751563 -31.162656 L 94.470313 -29.943906 L 96.185156 -28.600156 L 97.903906 -27.143125 L 99.622656 -25.568906 L 101.3375 -23.881406 L 103.05625 -22.080625 L 104.775 -20.174375 L 106.489844 -18.15875 L 108.208594 -16.041563 L 109.927344 -13.826719 L 111.646094 -11.514219 L 113.360938 -9.115781 L 115.079688 -6.6275 L 116.798438 -4.065 L 118.513281 -1.420469 L 120.232031 1.290469 L 121.950781 4.067812 L 123.669531 6.899844 L 125.384375 9.790469 L 127.103125 12.724062 L 128.821875 15.700625 L 130.536719 18.712344 L 132.255469 21.751406 L 133.974219 24.81 L 135.692969 27.888125 L 137.407813 30.974062 L 140.845313 37.15375 L 142.560156 40.231875 L 144.278906 43.294375 L 145.997656 46.337344 L 147.7125 49.352969 L 149.43125 52.333437 L 151.15 55.27875 L 152.86875 58.181094 L 154.583594 61.036562 L 156.302344 63.837344 L 158.021094 66.579531 L 159.735938 69.263125 L 161.454688 71.880312 L 163.173438 74.427187 L 164.892188 76.899844 L 166.607031 79.298281 L 168.325781 81.6225 L 170.044531 83.860781 " transform="matrix(1,0,0,-1,170.975,85.06)"/>
</g>
<path style="fill:none;stroke-width:0.3985;stroke-linecap:butt;stroke-linejoin:miter;stroke:rgb(0%,0%,0%);stroke-opacity:1;stroke-miterlimit:10;" d="M 0.0015625 0.00140625 L -1.717187 0.044375 L -3.435937 0.173281 L -5.154687 0.392031 L -6.869531 0.688906 L -8.588281 1.075625 L -10.307031 1.540469 L -12.021875 2.087344 L -13.740625 2.712344 L -15.459375 3.411562 L -17.174219 4.181094 L -18.892969 5.017031 L -20.611719 5.923281 L -22.330469 6.884219 L -24.045312 7.90375 L -25.764062 8.974062 L -27.482812 10.09125 L -29.197656 11.2475 L -30.916406 12.442812 L -32.635156 13.669375 L -34.353906 14.919375 L -36.06875 16.188906 L -37.7875 17.474062 L -39.50625 18.763125 L -41.221094 20.056094 L -42.939844 21.34125 L -44.658594 22.614687 L -46.377344 23.8725 L -48.092187 25.102969 L -49.810937 26.306094 L -51.529687 27.470156 L -53.244531 28.595156 L -54.963281 29.665469 L -56.682031 30.685 L -58.396875 31.645937 L -60.115625 32.536562 L -61.834375 33.356875 L -63.553125 34.102969 L -65.267969 34.763125 L -66.986719 35.337344 L -68.705469 35.821719 L -70.420312 36.208437 L -72.139062 36.493594 L -73.857812 36.681094 L -75.576562 36.759219 L -77.291406 36.724062 L -79.010156 36.579531 L -80.728906 36.321719 L -82.44375 35.942812 L -84.1625 35.446719 L -85.88125 34.833437 L -87.596094 34.099062 L -89.314844 33.239687 L -91.033594 32.263125 L -92.752344 31.161562 L -94.467187 29.942812 L -96.185937 28.602969 L -97.904687 27.145937 L -99.619531 25.571719 L -101.338281 23.880312 L -103.057031 22.079531 L -104.775781 20.173281 L -106.490625 18.157656 L -108.209375 16.040469 L -109.928125 13.825625 L -111.642969 11.513125 L -113.361719 9.114687 L -115.080469 6.630312 L -116.799219 4.063906 L -118.514062 1.419375 L -120.232812 -1.291563 L -121.951562 -4.065 L -123.666406 -6.900938 L -125.385156 -9.787656 L -127.103906 -12.725156 L -128.81875 -15.701719 L -130.5375 -18.709531 L -132.25625 -21.748594 L -133.975 -24.811094 L -135.689844 -27.889219 L -137.408594 -30.975156 L -139.127344 -34.065 L -140.842187 -37.150938 L -142.560937 -40.232969 L -144.279687 -43.295469 L -145.998437 -46.334531 L -147.713281 -49.350156 L -149.432031 -52.334531 L -151.150781 -55.279844 L -152.865625 -58.182188 L -154.584375 -61.037656 L -156.303125 -63.838438 L -158.021875 -66.580625 L -159.736719 -69.264219 L -161.455469 -71.881406 L -163.174219 -74.428281 L -164.889062 -76.900938 L -166.607812 -79.299375 L -168.326562 -81.619688 L -170.041406 -83.861875 " transform="matrix(1,0,0,-1,170.975,85.06)"/>
</g>
</svg>
