<?xml version="1.0" encoding="UTF-8"?>
<svg xmlns="http://www.w3.org/2000/svg" xmlns:xlink="http://www.w3.org/1999/xlink" width="193.04pt" height="188.72pt" viewBox="0 0 193.04 188.72" version="1.1">
<defs>
<clipPath id="clip1">
  <path d="M 0 156 L 23 156 L 23 188.71875 L 0 188.71875 Z M 0 156 "/>
</clipPath>
<clipPath id="clip2">
  <path d="M 18 158 L 49 158 L 49 188.71875 L 18 188.71875 Z M 18 158 "/>
</clipPath>
<clipPath id="clip3">
  <path d="M 47 160 L 77 160 L 77 188.71875 L 47 188.71875 Z M 47 160 "/>
</clipPath>
<clipPath id="clip4">
  <path d="M 75 162 L 106 162 L 106 188.71875 L 75 188.71875 Z M 75 162 "/>
</clipPath>
<clipPath id="clip5">
  <path d="M 103 162 L 136 162 L 136 188.71875 L 103 188.71875 Z M 103 162 "/>
</clipPath>
<clipPath id="clip6">
  <path d="M 132 161 L 167 161 L 167 188.71875 L 132 188.71875 Z M 132 161 "/>
</clipPath>
<clipPath id="clip7">
  <path d="M 160 160 L 193.039062 160 L 193.039062 188.71875 L 160 188.71875 Z M 160 160 "/>
</clipPath>
<clipPath id="clip8">
  <path d="M 160 135 L 193.039062 135 L 193.039062 171 L 160 171 Z M 160 135 "/>
</clipPath>
<clipPath id="clip9">
  <path d="M 160 109 L 193.039062 109 L 193.039062 142 L 160 142 Z M 160 109 "/>
</clipPath>
<clipPath id="clip10">
  <path d="M 160 83 L 193.039062 83 L 193.039062 114 L 160 114 Z M 160 83 "/>
</clipPath>
<clipPath id="clip11">
  <path d="M 160 55 L 193.039062 55 L 193.039062 86 L 160 86 Z M 160 55 "/>
</clipPath>
<clipPath id="clip12">
  <path d="M 160 26 L 193.039062 26 L 193.039062 57 L 160 57 Z M 160 26 "/>
</clipPath>
<clipPath id="clip13">
  <path d="M 160 0 L 193.039062 0 L 193.039062 29 L 160 29 Z M 160 0 "/>
</clipPath>
</defs>
<g id="surface1">
<g clip-path="url(#clip1)" clip-rule="nonzero">
<path style="fill:none;stroke-width:0.79701;stroke-linecap:butt;stroke-linejoin:miter;stroke:rgb(100%,0%,0%);stroke-opacity:1;stroke-miterlimit:10;" d="M -56.692719 -56.694219 L -46.989594 -37.280156 " transform="matrix(1,0,0,-1,58.306,130.63)"/>
</g>
<path style="fill:none;stroke-width:0.6376;stroke-linecap:round;stroke-linejoin:round;stroke:rgb(100%,0%,0%);stroke-opacity:1;stroke-miterlimit:10;" d="M -1.553853 2.072511 C -1.422839 1.295078 -0.000772555 0.128032 0.387067 -0.00125529 C 0.000969887 -0.128782 -1.424632 -1.295776 -1.555674 -2.073205 " transform="matrix(0.44717,-0.89438,-0.89438,-0.44717,11.31798,167.91203)"/>
<path style="fill:none;stroke-width:0.79701;stroke-linecap:butt;stroke-linejoin:miter;stroke:rgb(100%,0%,0%);stroke-opacity:1;stroke-miterlimit:10;" d="M -56.692719 -28.346563 L -49.059906 -11.27625 " transform="matrix(1,0,0,-1,58.306,130.63)"/>
<path style="fill:none;stroke-width:0.6376;stroke-linecap:round;stroke-linejoin:round;stroke:rgb(100%,0%,0%);stroke-opacity:1;stroke-miterlimit:10;" d="M -1.556609 2.072917 C -1.422344 1.294231 0.00147996 0.129407 0.389293 -0.000988907 C 0.000880383 -0.127615 -1.423932 -1.295412 -1.555415 -2.073121 " transform="matrix(0.40822,-0.91284,-0.91284,-0.40822,9.24643,141.90574)"/>
<path style="fill:none;stroke-width:0.79701;stroke-linecap:butt;stroke-linejoin:miter;stroke:rgb(100%,0%,0%);stroke-opacity:1;stroke-miterlimit:10;" d="M -56.692719 0.00109375 L -49.895844 15.200312 " transform="matrix(1,0,0,-1,58.306,130.63)"/>
<path style="fill:none;stroke-width:0.6376;stroke-linecap:round;stroke-linejoin:round;stroke:rgb(100%,0%,0%);stroke-opacity:1;stroke-miterlimit:10;" d="M -1.5561 2.07296 C -1.425395 1.292684 0.00199977 0.129472 0.389813 -0.000919416 C -0.0021635 -0.129143 -1.423393 -1.295354 -1.554869 -2.073061 " transform="matrix(0.40823,-0.91284,-0.91284,-0.40823,8.41034,115.42968)"/>
<path style="fill:none;stroke-width:0.79701;stroke-linecap:butt;stroke-linejoin:miter;stroke:rgb(100%,0%,0%);stroke-opacity:1;stroke-miterlimit:10;" d="M -56.692719 28.34875 L -49.106781 42.333125 " transform="matrix(1,0,0,-1,58.306,130.63)"/>
<path style="fill:none;stroke-width:0.6376;stroke-linecap:round;stroke-linejoin:round;stroke:rgb(100%,0%,0%);stroke-opacity:1;stroke-miterlimit:10;" d="M -1.55528 2.070438 C -1.424671 1.29692 0.000387048 0.127708 0.389169 0.000799648 C 0.00194017 -0.129197 -1.424158 -1.293607 -1.553888 -2.07054 " transform="matrix(0.47667,-0.87901,-0.87901,-0.47667,9.19801,88.29559)"/>
<path style="fill:none;stroke-width:0.79701;stroke-linecap:butt;stroke-linejoin:miter;stroke:rgb(100%,0%,0%);stroke-opacity:1;stroke-miterlimit:10;" d="M -56.692719 56.6925 L -47.079437 70.290156 " transform="matrix(1,0,0,-1,58.306,130.63)"/>
<path style="fill:none;stroke-width:0.6376;stroke-linecap:round;stroke-linejoin:round;stroke:rgb(100%,0%,0%);stroke-opacity:1;stroke-miterlimit:10;" d="M -1.555024 2.071794 C -1.425237 1.292798 0.000606426 0.128858 0.387819 0.000758285 C 0.00118893 -0.129089 -1.423536 -1.294378 -1.553952 -2.070767 " transform="matrix(0.5773,-0.81645,-0.81645,-0.5773,11.22595,60.34051)"/>
<path style="fill:none;stroke-width:0.79701;stroke-linecap:butt;stroke-linejoin:miter;stroke:rgb(100%,0%,0%);stroke-opacity:1;stroke-miterlimit:10;" d="M -56.692719 85.040156 L -44.384125 99.118281 " transform="matrix(1,0,0,-1,58.306,130.63)"/>
<path style="fill:none;stroke-width:0.6376;stroke-linecap:round;stroke-linejoin:round;stroke:rgb(100%,0%,0%);stroke-opacity:1;stroke-miterlimit:10;" d="M -1.555182 2.070658 C -1.427167 1.29523 0.000882139 0.130976 0.390741 -0.000334901 C 0.0000676257 -0.129202 -1.42355 -1.296259 -1.553142 -2.073813 " transform="matrix(0.65825,-0.75275,-0.75275,-0.65825,13.92223,31.51266)"/>
<path style="fill:none;stroke-width:0.79701;stroke-linecap:butt;stroke-linejoin:miter;stroke:rgb(100%,0%,0%);stroke-opacity:1;stroke-miterlimit:10;" d="M -56.692719 113.387812 L -41.348969 128.731562 " transform="matrix(1,0,0,-1,58.306,130.63)"/>
<path style="fill:none;stroke-width:0.6376;stroke-linecap:round;stroke-linejoin:round;stroke:rgb(100%,0%,0%);stroke-opacity:1;stroke-miterlimit:10;" d="M -1.554249 2.071418 C -1.424427 1.29525 0.000848536 0.129617 0.390313 -0.000204179 C 0.000848536 -0.130026 -1.424427 -1.295658 -1.554249 -2.071826 " transform="matrix(0.7071,-0.7071,-0.7071,-0.7071,16.95824,1.89694)"/>
<g clip-path="url(#clip2)" clip-rule="nonzero">
<path style="fill:none;stroke-width:0.79701;stroke-linecap:butt;stroke-linejoin:miter;stroke:rgb(100%,0%,0%);stroke-opacity:1;stroke-miterlimit:10;" d="M -28.345062 -56.694219 L -20.71225 -39.623906 " transform="matrix(1,0,0,-1,58.306,130.63)"/>
</g>
<path style="fill:none;stroke-width:0.6376;stroke-linecap:round;stroke-linejoin:round;stroke:rgb(100%,0%,0%);stroke-opacity:1;stroke-miterlimit:10;" d="M -1.553475 2.07338 C -1.424371 1.296666 0.00104785 0.128276 0.387266 0.00144591 C 0.000448267 -0.128746 -1.424364 -1.296543 -1.552282 -2.072658 " transform="matrix(0.40822,-0.91284,-0.91284,-0.40822,37.59323,170.25254)"/>
<path style="fill:none;stroke-width:0.79701;stroke-linecap:butt;stroke-linejoin:miter;stroke:rgb(100%,0%,0%);stroke-opacity:1;stroke-miterlimit:10;" d="M -28.345062 -28.346563 L -23.559906 -13.983281 " transform="matrix(1,0,0,-1,58.306,130.63)"/>
<path style="fill:none;stroke-width:0.6376;stroke-linecap:round;stroke-linejoin:round;stroke:rgb(100%,0%,0%);stroke-opacity:1;stroke-miterlimit:10;" d="M -1.553791 2.07256 C -1.426555 1.295542 0.000238773 0.128158 0.389365 -0.0015524 C 0.000237953 -0.13126 -1.424092 -1.293694 -1.555039 -2.074417 " transform="matrix(0.31621,-0.94864,-0.94864,-0.31621,34.7465,144.61497)"/>
<path style="fill:none;stroke-width:0.79701;stroke-linecap:butt;stroke-linejoin:miter;stroke:rgb(100%,0%,0%);stroke-opacity:1;stroke-miterlimit:10;" d="M -28.345062 0.00109375 L -24.9935 12.094844 " transform="matrix(1,0,0,-1,58.306,130.63)"/>
<path style="fill:none;stroke-width:0.6376;stroke-linecap:round;stroke-linejoin:round;stroke:rgb(100%,0%,0%);stroke-opacity:1;stroke-miterlimit:10;" d="M -1.554465 2.071216 C -1.424709 1.296408 0.00117025 0.13109 0.390273 -0.000178691 C 0.000229808 -0.128626 -1.423864 -1.293849 -1.552778 -2.07148 " transform="matrix(0.26724,-0.96356,-0.96356,-0.26724,33.3135,118.53616)"/>
<path style="fill:none;stroke-width:0.79701;stroke-linecap:butt;stroke-linejoin:miter;stroke:rgb(100%,0%,0%);stroke-opacity:1;stroke-miterlimit:10;" d="M -28.345062 28.34875 L -23.626312 38.907344 " transform="matrix(1,0,0,-1,58.306,130.63)"/>
<path style="fill:none;stroke-width:0.6376;stroke-linecap:round;stroke-linejoin:round;stroke:rgb(100%,0%,0%);stroke-opacity:1;stroke-miterlimit:10;" d="M -1.553874 2.071368 C -1.42477 1.294654 -0.00094652 0.12983 0.386867 -0.000566366 C 0.0000486374 -0.130758 -1.426358 -1.294989 -1.554276 -2.071104 " transform="matrix(0.40822,-0.91284,-0.91284,-0.40822,34.6814,91.72401)"/>
<path style="fill:none;stroke-width:0.79701;stroke-linecap:butt;stroke-linejoin:miter;stroke:rgb(100%,0%,0%);stroke-opacity:1;stroke-miterlimit:10;" d="M -28.345062 56.6925 L -20.845062 66.755 " transform="matrix(1,0,0,-1,58.306,130.63)"/>
<path style="fill:none;stroke-width:0.6376;stroke-linecap:round;stroke-linejoin:round;stroke:rgb(100%,0%,0%);stroke-opacity:1;stroke-miterlimit:10;" d="M -1.554259 2.069751 C -1.424553 1.294317 -0.00063466 0.129031 0.388061 -0.000270302 C 0.000935971 -0.128019 -1.425305 -1.293326 -1.555782 -2.072664 " transform="matrix(0.59756,-0.80176,-0.80176,-0.59756,37.4593,63.87347)"/>
<path style="fill:none;stroke-width:0.79701;stroke-linecap:butt;stroke-linejoin:miter;stroke:rgb(100%,0%,0%);stroke-opacity:1;stroke-miterlimit:10;" d="M -28.345062 85.040156 L -17.641937 95.743281 " transform="matrix(1,0,0,-1,58.306,130.63)"/>
<path style="fill:none;stroke-width:0.6376;stroke-linecap:round;stroke-linejoin:round;stroke:rgb(100%,0%,0%);stroke-opacity:1;stroke-miterlimit:10;" d="M -1.55356 2.07021 C -1.423732 1.294038 0.00156182 0.128407 0.388268 0.00134981 C -0.00119854 -0.128475 -1.423714 -1.296888 -1.553531 -2.073063 " transform="matrix(0.7071,-0.70709,-0.70709,-0.7071,40.66391,34.88487)"/>
<path style="fill:none;stroke-width:0.79701;stroke-linecap:butt;stroke-linejoin:miter;stroke:rgb(100%,0%,0%);stroke-opacity:1;stroke-miterlimit:10;" d="M -28.345062 113.387812 L -14.270844 125.696406 " transform="matrix(1,0,0,-1,58.306,130.63)"/>
<path style="fill:none;stroke-width:0.6376;stroke-linecap:round;stroke-linejoin:round;stroke:rgb(100%,0%,0%);stroke-opacity:1;stroke-miterlimit:10;" d="M -1.551833 2.072285 C -1.425182 1.297303 -0.00156408 0.130245 0.38911 0.00137817 C -0.000749568 -0.129932 -1.423287 -1.293818 -1.553873 -2.072186 " transform="matrix(0.75275,-0.65825,-0.65825,-0.75275,44.03613,4.93295)"/>
<g clip-path="url(#clip3)" clip-rule="nonzero">
<path style="fill:none;stroke-width:0.79701;stroke-linecap:butt;stroke-linejoin:miter;stroke:rgb(100%,0%,0%);stroke-opacity:1;stroke-miterlimit:10;" d="M -0.0013125 -56.694219 L 6.799469 -41.495 " transform="matrix(1,0,0,-1,58.306,130.63)"/>
</g>
<path style="fill:none;stroke-width:0.6376;stroke-linecap:round;stroke-linejoin:round;stroke:rgb(100%,0%,0%);stroke-opacity:1;stroke-miterlimit:10;" d="M -1.553404 2.072279 C -1.424293 1.295569 -0.000464246 0.130763 0.387349 0.000370914 C 0.000533286 -0.129824 -1.425857 -1.294063 -1.553767 -2.070176 " transform="matrix(0.40823,-0.91284,-0.91284,-0.40823,65.10393,172.12327)"/>
<path style="fill:none;stroke-width:0.79701;stroke-linecap:butt;stroke-linejoin:miter;stroke:rgb(100%,0%,0%);stroke-opacity:1;stroke-miterlimit:10;" d="M -0.0013125 -28.346563 L 3.354156 -16.252813 " transform="matrix(1,0,0,-1,58.306,130.63)"/>
<path style="fill:none;stroke-width:0.6376;stroke-linecap:round;stroke-linejoin:round;stroke:rgb(100%,0%,0%);stroke-opacity:1;stroke-miterlimit:10;" d="M -1.555081 2.070157 C -1.425324 1.295349 0.000554669 0.13003 0.389657 -0.00123805 C -0.00038577 -0.129685 -1.424479 -1.294908 -1.553394 -2.07254 " transform="matrix(0.26724,-0.96356,-0.96356,-0.26724,61.6603,146.88294)"/>
<path style="fill:none;stroke-width:0.79701;stroke-linecap:butt;stroke-linejoin:miter;stroke:rgb(100%,0%,0%);stroke-opacity:1;stroke-miterlimit:10;" d="M -0.0013125 0.00109375 L -0.0013125 9.313594 " transform="matrix(1,0,0,-1,58.306,130.63)"/>
<path style="fill:none;stroke-width:0.6376;stroke-linecap:round;stroke-linejoin:round;stroke:rgb(100%,0%,0%);stroke-opacity:1;stroke-miterlimit:10;" d="M -1.555624 2.071625 C -1.422811 1.294281 -0.00093625 0.130219 0.389689 0.0013125 C -0.00093625 -0.127594 -1.422811 -1.295563 -1.555624 -2.072906 " transform="matrix(0,-1,-1,0,58.306,121.31547)"/>
<path style="fill:none;stroke-width:0.79701;stroke-linecap:butt;stroke-linejoin:miter;stroke:rgb(100%,0%,0%);stroke-opacity:1;stroke-miterlimit:10;" d="M -0.0013125 28.34875 L 3.2565 35.622187 " transform="matrix(1,0,0,-1,58.306,130.63)"/>
<path style="fill:none;stroke-width:0.6376;stroke-linecap:round;stroke-linejoin:round;stroke:rgb(100%,0%,0%);stroke-opacity:1;stroke-miterlimit:10;" d="M -1.553236 2.071869 C -1.424112 1.295168 -0.000273624 0.130397 0.387538 0.0000137843 C 0.000728658 -0.130187 -1.425629 -1.294443 -1.553524 -2.070552 " transform="matrix(0.40825,-0.91284,-0.91284,-0.40825,61.56055,95.00611)"/>
<path style="fill:none;stroke-width:0.79701;stroke-linecap:butt;stroke-linejoin:miter;stroke:rgb(100%,0%,0%);stroke-opacity:1;stroke-miterlimit:10;" d="M -0.0013125 56.6925 L 6.584625 63.278437 " transform="matrix(1,0,0,-1,58.306,130.63)"/>
<path style="fill:none;stroke-width:0.6376;stroke-linecap:round;stroke-linejoin:round;stroke:rgb(100%,0%,0%);stroke-opacity:1;stroke-miterlimit:10;" d="M -1.55483 2.071765 C -1.425008 1.295597 0.000267819 0.129965 0.389733 0.00014319 C 0.000267819 -0.129678 -1.425008 -1.295311 -1.55483 -2.071479 " transform="matrix(0.7071,-0.7071,-0.7071,-0.7071,64.89249,67.3499)"/>
<path style="fill:none;stroke-width:0.79701;stroke-linecap:butt;stroke-linejoin:miter;stroke:rgb(100%,0%,0%);stroke-opacity:1;stroke-miterlimit:10;" d="M -0.0013125 85.040156 L 10.061188 92.540156 " transform="matrix(1,0,0,-1,58.306,130.63)"/>
<path style="fill:none;stroke-width:0.6376;stroke-linecap:round;stroke-linejoin:round;stroke:rgb(100%,0%,0%);stroke-opacity:1;stroke-miterlimit:10;" d="M -1.554792 2.074315 C -1.424315 1.294976 0.00192606 0.12967 0.389051 0.00192087 C 0.000355431 -0.127381 -1.425897 -1.295799 -1.555603 -2.071232 " transform="matrix(0.80176,-0.59756,-0.59756,-0.80176,68.36891,38.08949)"/>
<path style="fill:none;stroke-width:0.79701;stroke-linecap:butt;stroke-linejoin:miter;stroke:rgb(100%,0%,0%);stroke-opacity:1;stroke-miterlimit:10;" d="M -0.0013125 113.387812 L 13.596344 123.001094 " transform="matrix(1,0,0,-1,58.306,130.63)"/>
<path style="fill:none;stroke-width:0.6376;stroke-linecap:round;stroke-linejoin:round;stroke:rgb(100%,0%,0%);stroke-opacity:1;stroke-miterlimit:10;" d="M -1.554281 2.070634 C -1.423865 1.294245 0.000859247 0.128956 0.387489 -0.000891087 C 0.000276747 -0.128991 -1.422377 -1.295186 -1.555353 -2.071927 " transform="matrix(0.81645,-0.5773,-0.5773,-0.81645,71.90187,7.62922)"/>
<g clip-path="url(#clip4)" clip-rule="nonzero">
<path style="fill:none;stroke-width:0.79701;stroke-linecap:butt;stroke-linejoin:miter;stroke:rgb(100%,0%,0%);stroke-opacity:1;stroke-miterlimit:10;" d="M 28.346344 -56.694219 L 35.932281 -42.705938 " transform="matrix(1,0,0,-1,58.306,130.63)"/>
</g>
<path style="fill:none;stroke-width:0.6376;stroke-linecap:round;stroke-linejoin:round;stroke:rgb(100%,0%,0%);stroke-opacity:1;stroke-miterlimit:10;" d="M -1.554746 2.072238 C -1.425709 1.293424 0.000921222 0.129508 0.38627 0.000737313 C -0.00095972 -0.129259 -1.425195 -1.297103 -1.554926 -2.074037 " transform="matrix(0.47667,-0.87901,-0.87901,-0.47667,94.2384,173.33598)"/>
<path style="fill:none;stroke-width:0.79701;stroke-linecap:butt;stroke-linejoin:miter;stroke:rgb(100%,0%,0%);stroke-opacity:1;stroke-miterlimit:10;" d="M 28.346344 -28.346563 L 33.069 -17.787969 " transform="matrix(1,0,0,-1,58.306,130.63)"/>
<path style="fill:none;stroke-width:0.6376;stroke-linecap:round;stroke-linejoin:round;stroke:rgb(100%,0%,0%);stroke-opacity:1;stroke-miterlimit:10;" d="M -1.556343 2.072667 C -1.423672 1.297548 0.00174619 0.129158 0.389559 -0.00123821 C 0.00114661 -0.127864 -1.423666 -1.295661 -1.555149 -2.073371 " transform="matrix(0.40822,-0.91284,-0.91284,-0.40822,91.375,148.4176)"/>
<path style="fill:none;stroke-width:0.79701;stroke-linecap:butt;stroke-linejoin:miter;stroke:rgb(100%,0%,0%);stroke-opacity:1;stroke-miterlimit:10;" d="M 28.346344 0.00109375 L 31.60025 7.278437 " transform="matrix(1,0,0,-1,58.306,130.63)"/>
<path style="fill:none;stroke-width:0.6376;stroke-linecap:round;stroke-linejoin:round;stroke:rgb(100%,0%,0%);stroke-opacity:1;stroke-miterlimit:10;" d="M -1.553654 2.070755 C -1.42453 1.294054 -0.000691528 0.129284 0.387121 -0.00110017 C 0.000310754 -0.131301 -1.426047 -1.295557 -1.553942 -2.071666 " transform="matrix(0.40825,-0.91284,-0.91284,-0.40825,89.90736,123.35293)"/>
<path style="fill:none;stroke-width:0.79701;stroke-linecap:butt;stroke-linejoin:miter;stroke:rgb(100%,0%,0%);stroke-opacity:1;stroke-miterlimit:10;" d="M 28.346344 28.34875 L 32.858063 32.856562 " transform="matrix(1,0,0,-1,58.306,130.63)"/>
<path style="fill:none;stroke-width:0.6376;stroke-linecap:round;stroke-linejoin:round;stroke:rgb(100%,0%,0%);stroke-opacity:1;stroke-miterlimit:10;" d="M -1.555447 2.073323 C -1.422864 1.294393 -0.000350021 0.131523 0.389115 0.00170149 C -0.000350021 -0.12812 -1.425626 -1.293753 -1.552685 -2.072682 " transform="matrix(0.7071,-0.7071,-0.7071,-0.7071,91.16356,97.77244)"/>
<path style="fill:none;stroke-width:0.79701;stroke-linecap:butt;stroke-linejoin:miter;stroke:rgb(100%,0%,0%);stroke-opacity:1;stroke-miterlimit:10;" d="M 28.346344 56.6925 L 35.623688 59.946406 " transform="matrix(1,0,0,-1,58.306,130.63)"/>
<path style="fill:none;stroke-width:0.6376;stroke-linecap:round;stroke-linejoin:round;stroke:rgb(100%,0%,0%);stroke-opacity:1;stroke-miterlimit:10;" d="M -1.555642 2.07171 C -1.424181 1.294006 0.00217659 0.12975 0.388986 -0.000450462 C 0.0011743 -0.130834 -1.42623 -1.29401 -1.555354 -2.070711 " transform="matrix(0.91284,-0.40825,-0.40825,-0.91284,93.92989,70.68183)"/>
<path style="fill:none;stroke-width:0.79701;stroke-linecap:butt;stroke-linejoin:miter;stroke:rgb(100%,0%,0%);stroke-opacity:1;stroke-miterlimit:10;" d="M 28.346344 85.040156 L 38.904938 89.762812 " transform="matrix(1,0,0,-1,58.306,130.63)"/>
<path style="fill:none;stroke-width:0.6376;stroke-linecap:round;stroke-linejoin:round;stroke:rgb(100%,0%,0%);stroke-opacity:1;stroke-miterlimit:10;" d="M -1.552129 2.072231 C -1.424211 1.296116 0.000600991 0.128319 0.389014 0.00169309 C 0.00120057 -0.128703 -1.424218 -1.297093 -1.553322 -2.073807 " transform="matrix(0.91284,-0.40822,-0.40822,-0.91284,97.21199,40.86738)"/>
<path style="fill:none;stroke-width:0.79701;stroke-linecap:butt;stroke-linejoin:miter;stroke:rgb(100%,0%,0%);stroke-opacity:1;stroke-miterlimit:10;" d="M 28.346344 113.387812 L 42.334625 120.97375 " transform="matrix(1,0,0,-1,58.306,130.63)"/>
<path style="fill:none;stroke-width:0.6376;stroke-linecap:round;stroke-linejoin:round;stroke:rgb(100%,0%,0%);stroke-opacity:1;stroke-miterlimit:10;" d="M -1.556146 2.071425 C -1.426416 1.294491 -0.000317635 0.130081 0.386912 0.0000848477 C 0.00156331 -0.128686 -1.426929 -1.296036 -1.554104 -2.071416 " transform="matrix(0.87901,-0.47667,-0.47667,-0.87901,100.64041,9.65716)"/>
<g clip-path="url(#clip5)" clip-rule="nonzero">
<path style="fill:none;stroke-width:0.79701;stroke-linecap:butt;stroke-linejoin:miter;stroke:rgb(100%,0%,0%);stroke-opacity:1;stroke-miterlimit:10;" d="M 56.694 -56.694219 L 66.307281 -43.096563 " transform="matrix(1,0,0,-1,58.306,130.63)"/>
</g>
<path style="fill:none;stroke-width:0.6376;stroke-linecap:round;stroke-linejoin:round;stroke:rgb(100%,0%,0%);stroke-opacity:1;stroke-miterlimit:10;" d="M -1.554906 2.072479 C -1.425119 1.293482 0.000723925 0.129543 0.387936 0.00144306 C 0.00130642 -0.128404 -1.423418 -1.293693 -1.553834 -2.070082 " transform="matrix(0.5773,-0.81645,-0.81645,-0.5773,124.61316,173.72772)"/>
<path style="fill:none;stroke-width:0.79701;stroke-linecap:butt;stroke-linejoin:miter;stroke:rgb(100%,0%,0%);stroke-opacity:1;stroke-miterlimit:10;" d="M 56.694 -28.346563 L 64.194 -18.284063 " transform="matrix(1,0,0,-1,58.306,130.63)"/>
<path style="fill:none;stroke-width:0.6376;stroke-linecap:round;stroke-linejoin:round;stroke:rgb(100%,0%,0%);stroke-opacity:1;stroke-miterlimit:10;" d="M -1.553992 2.07163 C -1.424286 1.296197 -0.00036749 0.130911 0.388328 0.0016095 C 0.000405402 -0.131606 -1.422704 -1.294578 -1.555515 -2.070784 " transform="matrix(0.59756,-0.80176,-0.80176,-0.59756,122.49971,148.91387)"/>
<path style="fill:none;stroke-width:0.79701;stroke-linecap:butt;stroke-linejoin:miter;stroke:rgb(100%,0%,0%);stroke-opacity:1;stroke-miterlimit:10;" d="M 56.694 0.00109375 L 63.279938 6.587031 " transform="matrix(1,0,0,-1,58.306,130.63)"/>
<path style="fill:none;stroke-width:0.6376;stroke-linecap:round;stroke-linejoin:round;stroke:rgb(100%,0%,0%);stroke-opacity:1;stroke-miterlimit:10;" d="M -1.552067 2.072119 C -1.425008 1.29319 0.000267819 0.127557 0.386971 0.000497631 C -0.00249434 -0.129324 -1.422246 -1.294957 -1.55483 -2.073886 " transform="matrix(0.7071,-0.7071,-0.7071,-0.7071,121.5861,124.04351)"/>
<path style="fill:none;stroke-width:0.79701;stroke-linecap:butt;stroke-linejoin:miter;stroke:rgb(100%,0%,0%);stroke-opacity:1;stroke-miterlimit:10;" d="M 56.694 28.34875 L 63.971344 31.602656 " transform="matrix(1,0,0,-1,58.306,130.63)"/>
<path style="fill:none;stroke-width:0.6376;stroke-linecap:round;stroke-linejoin:round;stroke:rgb(100%,0%,0%);stroke-opacity:1;stroke-miterlimit:10;" d="M -1.555206 2.070588 C -1.423745 1.292884 -0.00095323 0.130223 0.389423 -0.00157258 C -0.00195551 -0.130361 -1.425794 -1.295132 -1.554918 -2.071833 " transform="matrix(0.91284,-0.40825,-0.40825,-0.91284,122.27669,99.02864)"/>
<path style="fill:none;stroke-width:0.79701;stroke-linecap:butt;stroke-linejoin:miter;stroke:rgb(100%,0%,0%);stroke-opacity:1;stroke-miterlimit:10;" d="M 56.694 56.6925 L 66.0065 56.6925 " transform="matrix(1,0,0,-1,58.306,130.63)"/>
<path style="fill:none;stroke-width:0.6376;stroke-linecap:round;stroke-linejoin:round;stroke:rgb(100%,0%,0%);stroke-opacity:1;stroke-miterlimit:10;" d="M -1.552431 2.073099 C -1.423525 1.295755 -0.00165 0.127786 0.388975 -0.00112 C -0.00165 -0.130026 -1.423525 -1.294089 -1.552431 -2.071433 " transform="matrix(1,0,0,-1,124.31415,73.93638)"/>
<path style="fill:none;stroke-width:0.79701;stroke-linecap:butt;stroke-linejoin:miter;stroke:rgb(100%,0%,0%);stroke-opacity:1;stroke-miterlimit:10;" d="M 56.694 85.040156 L 68.78775 88.395625 " transform="matrix(1,0,0,-1,58.306,130.63)"/>
<path style="fill:none;stroke-width:0.6376;stroke-linecap:round;stroke-linejoin:round;stroke:rgb(100%,0%,0%);stroke-opacity:1;stroke-miterlimit:10;" d="M -1.55296 2.073497 C -1.424045 1.295866 0.0000484625 0.130643 0.389048 -0.00156876 C 0.000988902 -0.129073 -1.42489 -1.294391 -1.555691 -2.072964 " transform="matrix(0.96356,-0.26724,-0.26724,-0.96356,127.09346,42.23527)"/>
<path style="fill:none;stroke-width:0.79701;stroke-linecap:butt;stroke-linejoin:miter;stroke:rgb(100%,0%,0%);stroke-opacity:1;stroke-miterlimit:10;" d="M 56.694 113.387812 L 71.893219 120.184687 " transform="matrix(1,0,0,-1,58.306,130.63)"/>
<path style="fill:none;stroke-width:0.6376;stroke-linecap:round;stroke-linejoin:round;stroke:rgb(100%,0%,0%);stroke-opacity:1;stroke-miterlimit:10;" d="M -1.555643 2.07308 C -1.424167 1.295372 0.000628985 0.127567 0.389039 0.000938081 C 0.00122622 -0.129454 -1.422602 -1.29426 -1.553308 -2.074536 " transform="matrix(0.91284,-0.40823,-0.40823,-0.91284,130.19994,10.44483)"/>
<g clip-path="url(#clip6)" clip-rule="nonzero">
<path style="fill:none;stroke-width:0.79701;stroke-linecap:butt;stroke-linejoin:miter;stroke:rgb(100%,0%,0%);stroke-opacity:1;stroke-miterlimit:10;" d="M 85.041656 -56.694219 L 97.35025 -42.616094 " transform="matrix(1,0,0,-1,58.306,130.63)"/>
</g>
<path style="fill:none;stroke-width:0.6376;stroke-linecap:round;stroke-linejoin:round;stroke:rgb(100%,0%,0%);stroke-opacity:1;stroke-miterlimit:10;" d="M -1.552269 2.072707 C -1.424255 1.297279 0.000854227 0.130453 0.388142 0.00208317 C 0.0000397136 -0.129724 -1.423578 -1.296782 -1.555741 -2.071395 " transform="matrix(0.65825,-0.75275,-0.75275,-0.65825,155.65623,173.24667)"/>
<path style="fill:none;stroke-width:0.79701;stroke-linecap:butt;stroke-linejoin:miter;stroke:rgb(100%,0%,0%);stroke-opacity:1;stroke-miterlimit:10;" d="M 85.041656 -28.346563 L 95.744781 -17.643438 " transform="matrix(1,0,0,-1,58.306,130.63)"/>
<path style="fill:none;stroke-width:0.6376;stroke-linecap:round;stroke-linejoin:round;stroke:rgb(100%,0%,0%);stroke-opacity:1;stroke-miterlimit:10;" d="M -1.553531 2.070941 C -1.423714 1.294767 0.00156365 0.129116 0.388268 0.0020532 C 0.00156181 -0.130529 -1.423732 -1.296159 -1.55356 -2.072332 " transform="matrix(0.70709,-0.7071,-0.7071,-0.70709,154.05113,148.27209)"/>
<path style="fill:none;stroke-width:0.79701;stroke-linecap:butt;stroke-linejoin:miter;stroke:rgb(100%,0%,0%);stroke-opacity:1;stroke-miterlimit:10;" d="M 85.041656 0.00109375 L 95.104156 7.501094 " transform="matrix(1,0,0,-1,58.306,130.63)"/>
<path style="fill:none;stroke-width:0.6376;stroke-linecap:round;stroke-linejoin:round;stroke:rgb(100%,0%,0%);stroke-opacity:1;stroke-miterlimit:10;" d="M -1.554287 2.07076 C -1.424609 1.296888 -0.000701665 0.128449 0.389555 -0.00163406 C 0.000859902 -0.130935 -1.423058 -1.296221 -1.552764 -2.071655 " transform="matrix(0.80176,-0.59756,-0.59756,-0.80176,153.40935,123.12991)"/>
<path style="fill:none;stroke-width:0.79701;stroke-linecap:butt;stroke-linejoin:miter;stroke:rgb(100%,0%,0%);stroke-opacity:1;stroke-miterlimit:10;" d="M 85.041656 28.34875 L 95.60025 33.0675 " transform="matrix(1,0,0,-1,58.306,130.63)"/>
<path style="fill:none;stroke-width:0.6376;stroke-linecap:round;stroke-linejoin:round;stroke:rgb(100%,0%,0%);stroke-opacity:1;stroke-miterlimit:10;" d="M -1.554841 2.071589 C -1.423357 1.29388 -0.0005162 0.131244 0.389868 -0.000542986 C -0.00151136 -0.129344 -1.425335 -1.294168 -1.554439 -2.070882 " transform="matrix(0.91284,-0.40822,-0.40822,-0.91284,153.90561,97.561)"/>
<path style="fill:none;stroke-width:0.79701;stroke-linecap:butt;stroke-linejoin:miter;stroke:rgb(100%,0%,0%);stroke-opacity:1;stroke-miterlimit:10;" d="M 85.041656 56.6925 L 97.135406 60.047969 " transform="matrix(1,0,0,-1,58.306,130.63)"/>
<path style="fill:none;stroke-width:0.6376;stroke-linecap:round;stroke-linejoin:round;stroke:rgb(100%,0%,0%);stroke-opacity:1;stroke-miterlimit:10;" d="M -1.552358 2.072463 C -1.423443 1.294831 0.000650112 0.129608 0.390693 0.00116091 C 0.00159055 -0.130107 -1.424288 -1.295426 -1.554045 -2.070234 " transform="matrix(0.96356,-0.26724,-0.26724,-0.96356,155.44026,70.58209)"/>
<path style="fill:none;stroke-width:0.79701;stroke-linecap:butt;stroke-linejoin:miter;stroke:rgb(100%,0%,0%);stroke-opacity:1;stroke-miterlimit:10;" d="M 85.041656 85.040156 L 99.401031 89.829219 " transform="matrix(1,0,0,-1,58.306,130.63)"/>
<path style="fill:none;stroke-width:0.6376;stroke-linecap:round;stroke-linejoin:round;stroke:rgb(100%,0%,0%);stroke-opacity:1;stroke-miterlimit:10;" d="M -1.554712 2.072209 C -1.426236 1.296427 0.000565271 0.129052 0.389692 -0.000655761 C 0.000566091 -0.130366 -1.424992 -1.294044 -1.552228 -2.071062 " transform="matrix(0.94864,-0.31621,-0.31621,-0.94864,157.70824,40.80229)"/>
<path style="fill:none;stroke-width:0.79701;stroke-linecap:butt;stroke-linejoin:miter;stroke:rgb(100%,0%,0%);stroke-opacity:1;stroke-miterlimit:10;" d="M 85.041656 113.387812 L 102.111969 121.020625 " transform="matrix(1,0,0,-1,58.306,130.63)"/>
<path style="fill:none;stroke-width:0.6376;stroke-linecap:round;stroke-linejoin:round;stroke:rgb(100%,0%,0%);stroke-opacity:1;stroke-miterlimit:10;" d="M -1.554617 2.072437 C -1.423133 1.294727 -0.00188675 0.128525 0.390092 0.000304349 C -0.00128717 -0.128497 -1.425111 -1.293321 -1.554215 -2.070035 " transform="matrix(0.91284,-0.40822,-0.40822,-0.91284,160.41747,9.60874)"/>
<g clip-path="url(#clip7)" clip-rule="nonzero">
<path style="fill:none;stroke-width:0.79701;stroke-linecap:butt;stroke-linejoin:miter;stroke:rgb(100%,0%,0%);stroke-opacity:1;stroke-miterlimit:10;" d="M 113.385406 -56.694219 L 128.733063 -41.346563 " transform="matrix(1,0,0,-1,58.306,130.63)"/>
</g>
<path style="fill:none;stroke-width:0.6376;stroke-linecap:round;stroke-linejoin:round;stroke:rgb(100%,0%,0%);stroke-opacity:1;stroke-miterlimit:10;" d="M -1.554249 2.069705 C -1.424427 1.293537 0.000848536 0.127904 0.387551 0.000845001 C -0.00191363 -0.128977 -1.424427 -1.297371 -1.554249 -2.073539 " transform="matrix(0.7071,-0.7071,-0.7071,-0.7071,187.03906,171.97776)"/>
<g clip-path="url(#clip8)" clip-rule="nonzero">
<path style="fill:none;stroke-width:0.79701;stroke-linecap:butt;stroke-linejoin:miter;stroke:rgb(100%,0%,0%);stroke-opacity:1;stroke-miterlimit:10;" d="M 113.385406 -28.346563 L 127.463531 -16.037969 " transform="matrix(1,0,0,-1,58.306,130.63)"/>
</g>
<path style="fill:none;stroke-width:0.6376;stroke-linecap:round;stroke-linejoin:round;stroke:rgb(100%,0%,0%);stroke-opacity:1;stroke-miterlimit:10;" d="M -1.554747 2.074362 C -1.425156 1.296808 -0.00153806 0.129751 0.389136 0.000883811 C -0.000723546 -0.130427 -1.423261 -1.294312 -1.553847 -2.072681 " transform="matrix(0.75275,-0.65825,-0.65825,-0.75275,185.77016,146.66697)"/>
<g clip-path="url(#clip9)" clip-rule="nonzero">
<path style="fill:none;stroke-width:0.79701;stroke-linecap:butt;stroke-linejoin:miter;stroke:rgb(100%,0%,0%);stroke-opacity:1;stroke-miterlimit:10;" d="M 113.385406 0.00109375 L 126.983063 9.614375 " transform="matrix(1,0,0,-1,58.306,130.63)"/>
</g>
<path style="fill:none;stroke-width:0.6376;stroke-linecap:round;stroke-linejoin:round;stroke:rgb(100%,0%,0%);stroke-opacity:1;stroke-miterlimit:10;" d="M -1.554406 2.071361 C -1.42399 1.294971 0.000734574 0.129683 0.387365 -0.000164497 C 0.000152074 -0.128264 -1.422501 -1.294459 -1.555478 -2.0712 " transform="matrix(0.81645,-0.5773,-0.5773,-0.81645,185.28911,121.01646)"/>
<g clip-path="url(#clip10)" clip-rule="nonzero">
<path style="fill:none;stroke-width:0.79701;stroke-linecap:butt;stroke-linejoin:miter;stroke:rgb(100%,0%,0%);stroke-opacity:1;stroke-miterlimit:10;" d="M 113.385406 28.34875 L 127.373688 35.930781 " transform="matrix(1,0,0,-1,58.306,130.63)"/>
</g>
<path style="fill:none;stroke-width:0.6376;stroke-linecap:round;stroke-linejoin:round;stroke:rgb(100%,0%,0%);stroke-opacity:1;stroke-miterlimit:10;" d="M -1.553266 2.07143 C -1.423536 1.294497 -0.000871929 0.131949 0.389791 0.0000903054 C -0.000853216 -0.130253 -1.424049 -1.29603 -1.556521 -2.072982 " transform="matrix(0.87901,-0.47667,-0.47667,-0.87901,185.68085,94.6976)"/>
<g clip-path="url(#clip11)" clip-rule="nonzero">
<path style="fill:none;stroke-width:0.79701;stroke-linecap:butt;stroke-linejoin:miter;stroke:rgb(100%,0%,0%);stroke-opacity:1;stroke-miterlimit:10;" d="M 113.385406 56.6925 L 128.588531 63.493281 " transform="matrix(1,0,0,-1,58.306,130.63)"/>
</g>
<path style="fill:none;stroke-width:0.6376;stroke-linecap:round;stroke-linejoin:round;stroke:rgb(100%,0%,0%);stroke-opacity:1;stroke-miterlimit:10;" d="M -1.55478 2.07084 C -1.42687 1.294727 -0.000479046 0.130488 0.389902 -0.00130207 C -0.00147658 -0.130099 -1.425305 -1.294905 -1.554416 -2.071615 " transform="matrix(0.91284,-0.40823,-0.40823,-0.91284,186.89355,67.13845)"/>
<g clip-path="url(#clip12)" clip-rule="nonzero">
<path style="fill:none;stroke-width:0.79701;stroke-linecap:butt;stroke-linejoin:miter;stroke:rgb(100%,0%,0%);stroke-opacity:1;stroke-miterlimit:10;" d="M 113.385406 85.040156 L 130.459625 92.672969 " transform="matrix(1,0,0,-1,58.306,130.63)"/>
</g>
<path style="fill:none;stroke-width:0.6376;stroke-linecap:round;stroke-linejoin:round;stroke:rgb(100%,0%,0%);stroke-opacity:1;stroke-miterlimit:10;" d="M -1.554185 2.071328 C -1.426268 1.295213 0.00013914 0.130982 0.386957 0.000790179 C -0.000856017 -0.129606 -1.42468 -1.29443 -1.553784 -2.071144 " transform="matrix(0.91284,-0.40822,-0.40822,-0.91284,188.76428,37.95556)"/>
<g clip-path="url(#clip13)" clip-rule="nonzero">
<path style="fill:none;stroke-width:0.79701;stroke-linecap:butt;stroke-linejoin:miter;stroke:rgb(100%,0%,0%);stroke-opacity:1;stroke-miterlimit:10;" d="M 113.385406 113.387812 L 132.799469 123.090937 " transform="matrix(1,0,0,-1,58.306,130.63)"/>
</g>
<path style="fill:none;stroke-width:0.6376;stroke-linecap:round;stroke-linejoin:round;stroke:rgb(100%,0%,0%);stroke-opacity:1;stroke-miterlimit:10;" d="M -1.553396 2.071721 C -1.425848 1.296039 -0.000246055 0.129045 0.389345 -0.000228954 C 0.00150561 -0.129517 -1.424055 -1.294815 -1.555069 -2.072248 " transform="matrix(0.89438,-0.44717,-0.44717,-0.89438,191.1048,7.53718)"/>
</g>
</svg>
