<?xml version="1.0" encoding="UTF-8"?>
<svg xmlns="http://www.w3.org/2000/svg" xmlns:xlink="http://www.w3.org/1999/xlink" width="493.04pt" height="258.8pt" viewBox="0 0 493.04 258.8" version="1.1">
<defs>
<clipPath id="clip1">
  <path d="M 397 1 L 493.039062 1 L 493.039062 258 L 397 258 Z M 397 1 "/>
</clipPath>
<clipPath id="clip2">
  <path d="M 483 171 L 493.039062 171 L 493.039062 257 L 483 257 Z M 483 171 "/>
</clipPath>
<clipPath id="clip3">
  <path d="M 482 171 L 493.039062 171 L 493.039062 258 L 482 258 Z M 482 171 "/>
</clipPath>
<clipPath id="clip4">
  <path d="M 482 86 L 493.039062 86 L 493.039062 88 L 482 88 Z M 482 86 "/>
</clipPath>
<clipPath id="clip5">
  <path d="M 483 86 L 493.039062 86 L 493.039062 172 L 483 172 Z M 483 86 "/>
</clipPath>
<clipPath id="clip6">
  <path d="M 482 86 L 493.039062 86 L 493.039062 173 L 482 173 Z M 482 86 "/>
</clipPath>
</defs>
<g id="surface1">
<path style="fill:none;stroke-width:0.79701;stroke-linecap:butt;stroke-linejoin:miter;stroke:rgb(100%,0%,0%);stroke-opacity:1;stroke-miterlimit:10;" d="M -56.693187 127.562406 L -29.052562 127.562406 " transform="matrix(1,0,0,-1,57.826,256.996)"/>
<path style="fill:none;stroke-width:0.6376;stroke-linecap:round;stroke-linejoin:round;stroke:rgb(100%,0%,0%);stroke-opacity:1;stroke-miterlimit:10;" d="M -1.55308 2.072099 C -1.424174 1.294755 0.0016075 0.130692 0.388326 0.00178625 C 0.0016075 -0.131026 -1.424174 -1.295089 -1.55308 -2.072433 " transform="matrix(1,0,0,-1,28.77183,129.43538)"/>
<path style="fill:none;stroke-width:0.79701;stroke-linecap:butt;stroke-linejoin:miter;stroke:rgb(100%,0%,0%);stroke-opacity:1;stroke-miterlimit:10;" d="M -0.00178125 -0.00009375 L -0.00178125 255.121 L 255.123219 255.121 L 255.123219 -0.00009375 Z M -0.00178125 -0.00009375 " transform="matrix(1,0,0,-1,57.826,256.996)"/>
<path style="fill-rule:nonzero;fill:rgb(0%,0%,0%);fill-opacity:0.8;stroke-width:0.3985;stroke-linecap:butt;stroke-linejoin:miter;stroke:rgb(0%,0%,0%);stroke-opacity:1;stroke-miterlimit:10;" d="M 85.037281 -0.004 L 85.037281 255.124906 L -0.0056875 255.124906 L -0.0056875 -0.004 Z M 85.037281 -0.004 " transform="matrix(1,0,0,-1,57.826,256.996)"/>
<path style="fill:none;stroke-width:0.3985;stroke-linecap:butt;stroke-linejoin:miter;stroke:rgb(0%,0%,0%);stroke-opacity:1;stroke-miterlimit:10;" d="M 170.08025 -0.004 L 170.08025 255.124906 " transform="matrix(1,0,0,-1,57.826,256.996)"/>
<path style="fill-rule:nonzero;fill:rgb(0%,0%,0%);fill-opacity:0.8;stroke-width:0.3985;stroke-linecap:butt;stroke-linejoin:miter;stroke:rgb(0%,0%,0%);stroke-opacity:1;stroke-miterlimit:10;" d="M 85.037281 -0.004 L 85.037281 85.038969 L 170.08025 85.038969 L 170.08025 -0.004 Z M 85.037281 -0.004 " transform="matrix(1,0,0,-1,57.826,256.996)"/>
<path style="fill:none;stroke-width:0.3985;stroke-linecap:butt;stroke-linejoin:miter;stroke:rgb(0%,0%,0%);stroke-opacity:1;stroke-miterlimit:10;" d="M 85.037281 170.081937 L 170.08025 170.081937 " transform="matrix(1,0,0,-1,57.826,256.996)"/>
<path style="fill-rule:nonzero;fill:rgb(0%,0%,0%);fill-opacity:0.6;stroke-width:0.3985;stroke-linecap:butt;stroke-linejoin:miter;stroke:rgb(0%,0%,0%);stroke-opacity:1;stroke-miterlimit:10;" d="M 113.384938 85.038969 L 113.384938 170.081937 L 85.037281 170.081937 L 85.037281 85.038969 Z M 113.384938 85.038969 " transform="matrix(1,0,0,-1,57.826,256.996)"/>
<path style="fill:none;stroke-width:0.3985;stroke-linecap:butt;stroke-linejoin:miter;stroke:rgb(0%,0%,0%);stroke-opacity:1;stroke-miterlimit:10;" d="M 141.732594 85.038969 L 141.732594 170.081937 " transform="matrix(1,0,0,-1,57.826,256.996)"/>
<path style="fill-rule:nonzero;fill:rgb(0%,0%,0%);fill-opacity:0.6;stroke-width:0.3985;stroke-linecap:butt;stroke-linejoin:miter;stroke:rgb(0%,0%,0%);stroke-opacity:1;stroke-miterlimit:10;" d="M 113.384938 85.038969 L 113.384938 113.386625 L 141.732594 113.386625 L 141.732594 85.038969 Z M 113.384938 85.038969 " transform="matrix(1,0,0,-1,57.826,256.996)"/>
<path style="fill:none;stroke-width:0.3985;stroke-linecap:butt;stroke-linejoin:miter;stroke:rgb(0%,0%,0%);stroke-opacity:1;stroke-miterlimit:10;" d="M 113.384938 141.734281 L 141.732594 141.734281 " transform="matrix(1,0,0,-1,57.826,256.996)"/>
<path style="fill:none;stroke-width:0.79701;stroke-linecap:butt;stroke-linejoin:miter;stroke:rgb(100%,0%,0%);stroke-opacity:1;stroke-miterlimit:10;" d="M 283.466969 127.562406 L 311.107594 127.562406 " transform="matrix(1,0,0,-1,57.826,256.996)"/>
<path style="fill:none;stroke-width:0.6376;stroke-linecap:round;stroke-linejoin:round;stroke:rgb(100%,0%,0%);stroke-opacity:1;stroke-miterlimit:10;" d="M -1.554634 2.072099 C -1.425727 1.294755 0.00005375 0.130692 0.386773 0.00178625 C 0.00005375 -0.131026 -1.425727 -1.295089 -1.554634 -2.072433 " transform="matrix(1,0,0,-1,368.93354,129.43538)"/>
<g clip-path="url(#clip1)" clip-rule="nonzero">
<path style="fill:none;stroke-width:0.79701;stroke-linecap:butt;stroke-linejoin:miter;stroke:rgb(100%,0%,0%);stroke-opacity:1;stroke-miterlimit:10;" d="M 340.162281 -0.00009375 L 340.162281 255.121 L 595.283375 255.121 L 595.283375 -0.00009375 Z M 340.162281 -0.00009375 " transform="matrix(1,0,0,-1,57.826,256.996)"/>
</g>
<path style="fill-rule:nonzero;fill:rgb(0%,0%,0%);fill-opacity:0.8;stroke-width:0.3985;stroke-linecap:butt;stroke-linejoin:miter;stroke:rgb(0%,0%,0%);stroke-opacity:1;stroke-miterlimit:10;" d="M 425.201344 -0.004 L 425.201344 255.124906 L 340.158375 255.124906 L 340.158375 -0.004 Z M 425.201344 -0.004 " transform="matrix(1,0,0,-1,57.826,256.996)"/>
<g clip-path="url(#clip2)" clip-rule="nonzero">
<path style=" stroke:none;fill-rule:nonzero;fill:rgb(0%,0%,0%);fill-opacity:0.8;" d="M 483.027344 257 L 483.027344 171.957031 L 568.070312 171.957031 L 568.070312 257 Z M 483.027344 257 "/>
</g>
<g clip-path="url(#clip3)" clip-rule="nonzero">
<path style="fill:none;stroke-width:0.3985;stroke-linecap:butt;stroke-linejoin:miter;stroke:rgb(0%,0%,0%);stroke-opacity:1;stroke-miterlimit:10;" d="M 425.201344 -0.004 L 425.201344 85.038969 L 510.244312 85.038969 L 510.244312 -0.004 Z M 425.201344 -0.004 " transform="matrix(1,0,0,-1,57.826,256.996)"/>
</g>
<g clip-path="url(#clip4)" clip-rule="nonzero">
<path style="fill:none;stroke-width:0.3985;stroke-linecap:butt;stroke-linejoin:miter;stroke:rgb(0%,0%,0%);stroke-opacity:1;stroke-miterlimit:10;" d="M 425.201344 170.081937 L 510.244312 170.081937 " transform="matrix(1,0,0,-1,57.826,256.996)"/>
</g>
<g clip-path="url(#clip5)" clip-rule="nonzero">
<path style=" stroke:none;fill-rule:nonzero;fill:rgb(0%,0%,0%);fill-opacity:0.6;" d="M 511.375 171.957031 L 511.375 86.914062 L 483.027344 86.914062 L 483.027344 171.957031 Z M 511.375 171.957031 "/>
</g>
<g clip-path="url(#clip6)" clip-rule="nonzero">
<path style="fill:none;stroke-width:0.3985;stroke-linecap:butt;stroke-linejoin:miter;stroke:rgb(0%,0%,0%);stroke-opacity:1;stroke-miterlimit:10;" d="M 453.549 85.038969 L 453.549 170.081937 L 425.201344 170.081937 L 425.201344 85.038969 Z M 453.549 85.038969 " transform="matrix(1,0,0,-1,57.826,256.996)"/>
</g>
</g>
</svg>
