<?xml version="1.0" encoding="UTF-8"?>
<svg xmlns="http://www.w3.org/2000/svg" xmlns:xlink="http://www.w3.org/1999/xlink" width="172.4pt" height="93.68pt" viewBox="0 0 172.4 93.68" version="1.1">
<defs>
<clipPath id="clip1">
  <path d="M 43 74 L 72 74 L 72 93.679688 L 43 93.679688 Z M 43 74 "/>
</clipPath>
</defs>
<g id="surface1">
<path style="fill:none;stroke-width:0.79701;stroke-linecap:butt;stroke-linejoin:miter;stroke:rgb(0%,0%,0%);stroke-opacity:1;stroke-miterlimit:10;" d="M -113.386187 -42.520219 L -56.694781 -42.520219 " transform="matrix(1,0,0,-1,114.519,46.554)"/>
<path style=" stroke:none;fill-rule:nonzero;fill:rgb(100%,100%,100%);fill-opacity:1;" d="M 60.660156 89.074219 C 60.660156 87.507812 59.390625 86.238281 57.824219 86.238281 C 56.261719 86.238281 54.992188 87.507812 54.992188 89.074219 C 54.992188 90.640625 56.261719 91.910156 57.824219 91.910156 C 59.390625 91.910156 60.660156 90.640625 60.660156 89.074219 Z M 60.660156 89.074219 "/>
<g clip-path="url(#clip1)" clip-rule="nonzero">
<path style="fill:none;stroke-width:0.79701;stroke-linecap:butt;stroke-linejoin:miter;stroke:rgb(0%,0%,0%);stroke-opacity:1;stroke-miterlimit:10;" d="M -53.858844 -42.520219 C -53.858844 -40.953813 -55.128375 -39.684281 -56.694781 -39.684281 C -58.257281 -39.684281 -59.526812 -40.953813 -59.526812 -42.520219 C -59.526812 -44.086625 -58.257281 -45.356156 -56.694781 -45.356156 C -55.128375 -45.356156 -53.858844 -44.086625 -53.858844 -42.520219 Z M -53.858844 -42.520219 " transform="matrix(1,0,0,-1,114.519,46.554)"/>
</g>
<path style="fill:none;stroke-width:0.3985;stroke-linecap:butt;stroke-linejoin:miter;stroke:rgb(0%,0%,0%);stroke-opacity:1;stroke-miterlimit:10;" d="M -56.694781 42.518844 L 56.691938 42.518844 " transform="matrix(1,0,0,-1,114.519,46.554)"/>
<path style="fill-rule:nonzero;fill:rgb(100%,100%,100%);fill-opacity:1;stroke-width:0.3985;stroke-linecap:butt;stroke-linejoin:miter;stroke:rgb(0%,0%,0%);stroke-opacity:1;stroke-miterlimit:10;" d="M -53.858844 42.518844 C -53.858844 44.08525 -55.128375 45.354781 -56.694781 45.354781 C -58.257281 45.354781 -59.526812 44.08525 -59.526812 42.518844 C -59.526812 40.956344 -58.257281 39.686812 -56.694781 39.686812 C -55.128375 39.686812 -53.858844 40.956344 -53.858844 42.518844 Z M -53.858844 42.518844 " transform="matrix(1,0,0,-1,114.519,46.554)"/>
</g>
</svg>
