<?xml version="1.0" encoding="UTF-8"?>
<svg xmlns="http://www.w3.org/2000/svg" xmlns:xlink="http://www.w3.org/1999/xlink" width="342.32pt" height="61.52pt" viewBox="0 0 342.32 61.52" version="1.1">
<defs>
<clipPath id="clip1">
  <path d="M 0 0 L 342.320312 0 L 342.320312 61.519531 L 0 61.519531 Z M 0 0 "/>
</clipPath>
</defs>
<g id="surface1">
<g clip-path="url(#clip1)" clip-rule="nonzero">
<path style="fill:none;stroke-width:0.79701;stroke-linecap:butt;stroke-linejoin:miter;stroke:rgb(0%,0%,0%);stroke-opacity:1;stroke-miterlimit:10;" d="M -169.411219 28.570344 L -0.0010625 85.039094 L 169.409094 28.570344 " transform="matrix(1,0,0,-1,171.212,86.918)"/>
</g>
<path style="fill:none;stroke-width:0.6376;stroke-linecap:round;stroke-linejoin:round;stroke:rgb(0%,0%,0%);stroke-opacity:1;stroke-miterlimit:10;" d="M -1.556362 2.071302 C -1.42418 1.294284 -0.00108512 0.128145 0.388042 -0.00156299 C 0.000151014 -0.127567 -1.422937 -1.296187 -1.553878 -2.071969 " transform="matrix(-0.94864,0.31621,0.31621,0.94864,1.8022,58.34753)"/>
<path style="fill:none;stroke-width:0.6376;stroke-linecap:round;stroke-linejoin:round;stroke:rgb(0%,0%,0%);stroke-opacity:1;stroke-miterlimit:10;" d="M -1.555894 2.071297 C -1.424953 1.295515 0.00184094 0.12813 0.389732 0.00212629 C 0.000604806 -0.127581 -1.426196 -1.294956 -1.554672 -2.070739 " transform="matrix(0.94864,0.31621,0.31621,-0.94864,340.6218,58.34753)"/>
</g>
</svg>
