<?xml version="1.0" encoding="UTF-8"?>
<svg xmlns="http://www.w3.org/2000/svg" xmlns:xlink="http://www.w3.org/1999/xlink" width="174.32pt" height="174.32pt" viewBox="0 0 174.32 174.32" version="1.1">
<g id="surface1">
<path style=" stroke:none;fill-rule:nonzero;fill:rgb(100%,0%,0%);fill-opacity:1;" d="M 172.089844 87.316406 C 172.089844 40.347656 134.019531 2.277344 87.050781 2.277344 C 40.082031 2.277344 2.011719 40.347656 2.011719 87.316406 C 2.011719 134.28125 40.082031 172.355469 87.050781 172.355469 C 134.019531 172.355469 172.089844 134.28125 172.089844 87.316406 "/>
<path style="fill:none;stroke-width:1.59404;stroke-linecap:butt;stroke-linejoin:miter;stroke:rgb(0%,0%,0%);stroke-opacity:1;stroke-miterlimit:10;" d="M 85.038844 -0.00040625 C 85.038844 46.968344 46.968531 85.038656 -0.00021875 85.038656 C -46.968969 85.038656 -85.039281 46.968344 -85.039281 -0.00040625 C -85.039281 -46.96525 -46.968969 -85.039469 -0.00021875 -85.039469 C 46.968531 -85.039469 85.038844 -46.96525 85.038844 -0.00040625 " transform="matrix(1,0,0,-1,87.051,87.316)"/>
<path style=" stroke:none;fill-rule:nonzero;fill:rgb(0%,0%,100%);fill-opacity:1;" d="M 115.398438 87.316406 C 115.398438 71.660156 102.707031 58.96875 87.050781 58.96875 C 71.394531 58.96875 58.703125 71.660156 58.703125 87.316406 C 58.703125 102.972656 71.394531 115.664062 87.050781 115.664062 C 102.707031 115.664062 115.398438 102.972656 115.398438 87.316406 L 143.746094 87.316406 C 143.746094 118.628906 118.363281 144.007812 87.050781 144.007812 C 55.738281 144.007812 30.355469 118.628906 30.355469 87.316406 C 30.355469 56.003906 55.738281 30.621094 87.050781 30.621094 C 118.363281 30.621094 143.746094 56.003906 143.746094 87.316406 L 115.398438 87.316406 "/>
<path style=" stroke:none;fill-rule:nonzero;fill:rgb(0%,0%,100%);fill-opacity:1;" d="M 96.40625 87.316406 C 96.40625 82.148438 92.21875 77.960938 87.050781 77.960938 C 81.882812 77.960938 77.695312 82.148438 77.695312 87.316406 C 77.695312 92.480469 81.882812 96.671875 87.050781 96.671875 C 92.21875 96.671875 96.40625 92.480469 96.40625 87.316406 L 106.042969 87.316406 C 106.042969 97.804688 97.539062 106.308594 87.050781 106.308594 C 76.5625 106.308594 68.058594 97.804688 68.058594 87.316406 C 68.058594 76.828125 76.5625 68.324219 87.050781 68.324219 C 97.539062 68.324219 106.042969 76.828125 106.042969 87.316406 L 96.40625 87.316406 "/>
<path style=" stroke:none;fill-rule:nonzero;fill:rgb(0%,0%,100%);fill-opacity:1;" d="M 90.167969 87.316406 C 90.167969 85.59375 88.773438 84.199219 87.050781 84.199219 C 85.328125 84.199219 83.933594 85.59375 83.933594 87.316406 C 83.933594 89.039062 85.328125 90.433594 87.050781 90.433594 C 88.773438 90.433594 90.167969 89.039062 90.167969 87.316406 L 93.289062 87.316406 C 93.289062 90.761719 90.496094 93.550781 87.050781 93.550781 C 83.605469 93.550781 80.816406 90.761719 80.816406 87.316406 C 80.816406 83.871094 83.605469 81.078125 87.050781 81.078125 C 90.496094 81.078125 93.289062 83.871094 93.289062 87.316406 L 90.167969 87.316406 "/>
<path style=" stroke:none;fill-rule:nonzero;fill:rgb(0%,0%,100%);fill-opacity:1;" d="M 88.101562 87.316406 C 88.101562 86.738281 87.628906 86.265625 87.050781 86.265625 C 86.472656 86.265625 86.003906 86.738281 86.003906 87.316406 C 86.003906 87.894531 86.472656 88.363281 87.050781 88.363281 C 87.628906 88.363281 88.101562 87.894531 88.101562 87.316406 L 89.148438 87.316406 C 89.148438 88.472656 88.210938 89.414062 87.050781 89.414062 C 85.890625 89.414062 84.953125 88.472656 84.953125 87.316406 C 84.953125 86.15625 85.890625 85.21875 87.050781 85.21875 C 88.210938 85.21875 89.148438 86.15625 89.148438 87.316406 L 88.101562 87.316406 "/>
</g>
</svg>
