<?xml version="1.0" encoding="UTF-8"?>
<svg xmlns="http://www.w3.org/2000/svg" xmlns:xlink="http://www.w3.org/1999/xlink" width="247.28pt" height="200.72pt" viewBox="0 0 247.28 200.72" version="1.1">
<defs>
<clipPath id="clip1">
  <path d="M 41 108 L 224 108 L 224 200.71875 L 41 200.71875 Z M 41 108 "/>
</clipPath>
</defs>
<g id="surface1">
<g clip-path="url(#clip1)" clip-rule="nonzero">
<path style="fill:none;stroke-width:0.3985;stroke-linecap:butt;stroke-linejoin:miter;stroke:rgb(0%,0%,0%);stroke-opacity:1;stroke-miterlimit:10;" d="M -85.040844 -0.0009375 C -85.040844 -46.965781 -46.966625 -85.04 -0.00178125 -85.04 C 46.966969 -85.04 85.041187 -46.965781 85.041187 -0.0009375 " transform="matrix(1,0,0,-1,132.451,114.585)"/>
</g>
<path style="fill-rule:nonzero;fill:rgb(75%,75%,75%);fill-opacity:1;stroke-width:0.3985;stroke-linecap:butt;stroke-linejoin:miter;stroke:rgb(0%,0%,0%);stroke-opacity:1;stroke-miterlimit:10;" d="M -113.3885 -0.0009375 L -113.3885 113.385781 L 113.388844 113.385781 L 113.388844 -0.0009375 Z M -113.3885 -0.0009375 " transform="matrix(1,0,0,-1,132.451,114.585)"/>
<path style="fill:none;stroke-width:0.3985;stroke-linecap:butt;stroke-linejoin:miter;stroke:rgb(0%,0%,0%);stroke-opacity:1;stroke-dasharray:2.98883,2.98883;stroke-miterlimit:10;" d="M 85.041187 -0.0009375 C 85.041187 46.967812 46.966969 85.042031 -0.00178125 85.042031 C -46.966625 85.042031 -85.040844 46.967812 -85.040844 -0.0009375 " transform="matrix(1,0,0,-1,132.451,114.585)"/>
<path style="fill:none;stroke-width:1.59404;stroke-linecap:butt;stroke-linejoin:miter;stroke:rgb(50%,50%,50%);stroke-opacity:1;stroke-miterlimit:10;" d="M -127.560375 85.042031 L -127.560375 29.55375 " transform="matrix(1,0,0,-1,132.451,114.585)"/>
<path style="fill:none;stroke-width:1.27522;stroke-linecap:round;stroke-linejoin:round;stroke:rgb(50%,50%,50%);stroke-opacity:1;stroke-miterlimit:10;" d="M -2.270981 3.027589 C -2.083481 1.894776 -0.00145 0.187745 0.568863 0.000245 C -0.00145 -0.191161 -2.083481 -1.894286 -2.270981 -3.027099 " transform="matrix(0,1,1,0,4.89038,85.0327)"/>
</g>
</svg>
