<?xml version="1.0" encoding="UTF-8"?>
<svg xmlns="http://www.w3.org/2000/svg" xmlns:xlink="http://www.w3.org/1999/xlink" width="174.32pt" height="130.64pt" viewBox="0 0 174.32 130.64" version="1.1">
<defs>
<clipPath id="clip1">
  <path d="M 0 0 L 174.320312 0 L 174.320312 70 L 0 70 Z M 0 0 "/>
</clipPath>
<clipPath id="clip2">
  <path d="M 0 18 L 174.320312 18 L 174.320312 130.640625 L 0 130.640625 Z M 0 18 "/>
</clipPath>
</defs>
<g id="surface1">
<g clip-path="url(#clip1)" clip-rule="nonzero">
<path style="fill:none;stroke-width:0.79701;stroke-linecap:butt;stroke-linejoin:miter;stroke:rgb(0%,0%,0%);stroke-opacity:1;stroke-miterlimit:10;" d="M -85.03925 28.344906 L -0.0001875 0.00115625 L 85.038875 28.344906 L 42.519344 56.692562 L -42.519719 56.692562 Z M -85.03925 28.344906 " transform="matrix(1,0,0,-1,87.133,58.091)"/>
</g>
<g clip-path="url(#clip2)" clip-rule="nonzero">
<path style="fill:none;stroke-width:0.79701;stroke-linecap:butt;stroke-linejoin:miter;stroke:rgb(0%,0%,0%);stroke-opacity:1;stroke-miterlimit:10;" d="M -85.03925 28.344906 L -85.03925 -42.518375 M -0.0001875 0.00115625 L -0.0001875 -70.866031 M 85.038875 28.344906 L 85.038875 -42.518375 M -85.03925 -42.518375 L -0.0001875 -70.866031 L 85.038875 -42.518375 " transform="matrix(1,0,0,-1,87.133,58.091)"/>
</g>
<path style="fill:none;stroke-width:0.3985;stroke-linecap:butt;stroke-linejoin:miter;stroke:rgb(0%,0%,0%);stroke-opacity:1;stroke-miterlimit:10;" d="M 42.519344 56.692562 L 42.519344 14.173031 M -42.519719 56.692562 L -42.519719 14.173031 " transform="matrix(1,0,0,-1,87.133,58.091)"/>
</g>
</svg>
