<?xml version="1.0" encoding="UTF-8"?>
<svg xmlns="http://www.w3.org/2000/svg" xmlns:xlink="http://www.w3.org/1999/xlink" width="173.36pt" height="87.44pt" viewBox="0 0 173.36 87.44" version="1.1">
<defs>
<clipPath id="clip1">
  <path d="M 0 0 L 173.359375 0 L 173.359375 87.441406 L 0 87.441406 Z M 0 0 "/>
</clipPath>
<clipPath id="clip2">
  <path d="M 81 0 L 166 0 L 166 87.441406 L 81 87.441406 Z M 81 0 "/>
</clipPath>
</defs>
<g id="surface1">
<g clip-path="url(#clip1)" clip-rule="nonzero">
<path style="fill:none;stroke-width:0.79701;stroke-linecap:butt;stroke-linejoin:miter;stroke:rgb(0%,0%,0%);stroke-opacity:1;stroke-miterlimit:10;" d="M -85.039719 0.0005 C -85.039719 46.965344 -46.9655 85.039562 -0.00065625 85.039562 C 46.968094 85.039562 85.042313 46.965344 85.042313 0.0005 " transform="matrix(1,0,0,-1,86.653,86.438)"/>
</g>
<path style=" stroke:none;fill-rule:nonzero;fill:rgb(0%,0%,100%);fill-opacity:0.5;" d="M 86.652344 86.4375 L 86.652344 1.398438 C 117.03125 1.398438 145.109375 17.609375 160.300781 43.917969 L 160.355469 86.4375 Z M 86.652344 86.4375 "/>
<g clip-path="url(#clip2)" clip-rule="nonzero">
<path style="fill:none;stroke-width:0.3985;stroke-linecap:butt;stroke-linejoin:miter;stroke:rgb(0%,0%,0%);stroke-opacity:1;stroke-miterlimit:10;" d="M -0.00065625 0.0005 L -0.00065625 85.039562 C 30.37825 85.039562 58.456375 68.828625 73.647781 42.520031 L 73.702469 0.0005 Z M -0.00065625 0.0005 " transform="matrix(1,0,0,-1,86.653,86.438)"/>
</g>
</g>
</svg>
