<?xml version="1.0" encoding="UTF-8"?>
<svg xmlns="http://www.w3.org/2000/svg" xmlns:xlink="http://www.w3.org/1999/xlink" width="403.76pt" height="350.48pt" viewBox="0 0 403.76 350.48" version="1.1">
<defs>
<clipPath id="clip1">
  <path d="M 98 170 L 306 170 L 306 350.480469 L 98 350.480469 Z M 98 170 "/>
</clipPath>
</defs>
<g id="surface1">
<path style=" stroke:none;fill-rule:nonzero;fill:rgb(0%,0%,0%);fill-opacity:1;" d="M 398.410156 346.527344 L 202.015625 6.367188 L 5.621094 346.527344 L 398.410156 346.527344 "/>
<path style="fill:none;stroke-width:0.3985;stroke-linecap:butt;stroke-linejoin:miter;stroke:rgb(0%,0%,0%);stroke-opacity:1;stroke-miterlimit:10;" d="M 196.394156 -113.385344 L -0.000375 226.774813 L -196.394906 -113.385344 L 196.394156 -113.385344 " transform="matrix(1,0,0,-1,202.016,233.142)"/>
<path style=" stroke:none;fill-rule:nonzero;fill:rgb(100%,100%,100%);fill-opacity:1;" d="M 300.210938 176.449219 L 202.015625 346.527344 L 103.820312 176.449219 L 300.210938 176.449219 "/>
<g clip-path="url(#clip1)" clip-rule="nonzero">
<path style="fill:none;stroke-width:0.3985;stroke-linecap:butt;stroke-linejoin:miter;stroke:rgb(100%,100%,100%);stroke-opacity:1;stroke-miterlimit:10;" d="M 98.194938 56.692781 L -0.000375 -113.385344 L -98.195687 56.692781 L 98.194938 56.692781 " transform="matrix(1,0,0,-1,202.016,233.142)"/>
</g>
<path style="fill-rule:nonzero;fill:rgb(100%,100%,100%);fill-opacity:1;stroke-width:0.3985;stroke-linecap:butt;stroke-linejoin:miter;stroke:rgb(100%,100%,100%);stroke-opacity:1;stroke-miterlimit:10;" d="M 49.097281 141.73575 L -0.000375 56.692781 L -49.098031 141.73575 L 49.097281 141.73575 " transform="matrix(1,0,0,-1,202.016,233.142)"/>
<path style="fill-rule:nonzero;fill:rgb(100%,100%,100%);fill-opacity:1;stroke-width:0.3985;stroke-linecap:butt;stroke-linejoin:miter;stroke:rgb(100%,100%,100%);stroke-opacity:1;stroke-miterlimit:10;" d="M 24.550406 184.255281 L -0.000375 141.73575 L -24.54725 184.255281 L 24.550406 184.255281 " transform="matrix(1,0,0,-1,202.016,233.142)"/>
<path style="fill-rule:nonzero;fill:rgb(100%,100%,100%);fill-opacity:1;stroke-width:0.3985;stroke-linecap:butt;stroke-linejoin:miter;stroke:rgb(100%,100%,100%);stroke-opacity:1;stroke-miterlimit:10;" d="M 12.273063 205.513094 L -0.000375 184.255281 L -12.273812 205.513094 L 12.273063 205.513094 " transform="matrix(1,0,0,-1,202.016,233.142)"/>
<path style="fill-rule:nonzero;fill:rgb(100%,100%,100%);fill-opacity:1;stroke-width:0.3985;stroke-linecap:butt;stroke-linejoin:miter;stroke:rgb(100%,100%,100%);stroke-opacity:1;stroke-miterlimit:10;" d="M 6.136344 216.145906 L -0.000375 205.513094 L -6.137094 216.145906 L 6.136344 216.145906 " transform="matrix(1,0,0,-1,202.016,233.142)"/>
<path style="fill-rule:nonzero;fill:rgb(100%,100%,100%);fill-opacity:1;stroke-width:0.3985;stroke-linecap:butt;stroke-linejoin:miter;stroke:rgb(100%,100%,100%);stroke-opacity:1;stroke-miterlimit:10;" d="M 3.069938 221.458406 L -0.000375 216.145906 L -3.066781 221.458406 L 3.069938 221.458406 " transform="matrix(1,0,0,-1,202.016,233.142)"/>
<path style="fill-rule:nonzero;fill:rgb(100%,100%,100%);fill-opacity:1;stroke-width:0.3985;stroke-linecap:butt;stroke-linejoin:miter;stroke:rgb(100%,100%,100%);stroke-opacity:1;stroke-miterlimit:10;" d="M 1.534781 224.118563 L -0.000375 221.458406 L -1.535531 224.118563 L 1.534781 224.118563 " transform="matrix(1,0,0,-1,202.016,233.142)"/>
<path style="fill-rule:nonzero;fill:rgb(100%,100%,100%);fill-opacity:1;stroke-width:0.3985;stroke-linecap:butt;stroke-linejoin:miter;stroke:rgb(100%,100%,100%);stroke-opacity:1;stroke-miterlimit:10;" d="M 0.76525 225.446688 L -0.000375 224.118563 L -0.766 225.446688 L 0.76525 225.446688 " transform="matrix(1,0,0,-1,202.016,233.142)"/>
<path style="fill-rule:nonzero;fill:rgb(100%,100%,100%);fill-opacity:1;stroke-width:0.3985;stroke-linecap:butt;stroke-linejoin:miter;stroke:rgb(100%,100%,100%);stroke-opacity:1;stroke-miterlimit:10;" d="M 0.382438 226.11075 L -0.000375 225.446688 L -0.383187 226.11075 L 0.382438 226.11075 " transform="matrix(1,0,0,-1,202.016,233.142)"/>
<path style="fill-rule:nonzero;fill:rgb(100%,100%,100%);fill-opacity:1;stroke-width:0.3985;stroke-linecap:butt;stroke-linejoin:miter;stroke:rgb(100%,100%,100%);stroke-opacity:1;stroke-miterlimit:10;" d="M 0.191031 226.442781 L -0.000375 226.11075 L -0.191781 226.442781 L 0.191031 226.442781 " transform="matrix(1,0,0,-1,202.016,233.142)"/>
<path style="fill:none;stroke-width:4.98138;stroke-linecap:butt;stroke-linejoin:miter;stroke:rgb(100%,0%,0%);stroke-opacity:1;stroke-miterlimit:10;" d="M 196.394156 -113.385344 L -0.000375 226.774813 L -196.394906 -113.385344 Z M 196.394156 -113.385344 " transform="matrix(1,0,0,-1,202.016,233.142)"/>
</g>
</svg>
