<?xml version="1.0" encoding="UTF-8"?>
<svg xmlns="http://www.w3.org/2000/svg" xmlns:xlink="http://www.w3.org/1999/xlink" width="180.56pt" height="97.04pt" viewBox="0 0 180.56 97.04" version="1.1">
<defs>
<clipPath id="clip1">
  <path d="M 0 0 L 180.558594 0 L 180.558594 97.039062 L 0 97.039062 Z M 0 0 "/>
</clipPath>
</defs>
<g id="surface1">
<g clip-path="url(#clip1)" clip-rule="nonzero">
<path style="fill:none;stroke-width:0.79701;stroke-linecap:butt;stroke-linejoin:miter;stroke:rgb(0%,0%,100%);stroke-opacity:1;stroke-miterlimit:10;" d="M -0.0001875 -0.0005625 L 1.796688 -0.05525 L 3.597469 -0.227125 L 5.394344 -0.508375 L 7.191219 -0.902906 L 8.992 -1.402906 L 10.788875 -2.004469 L 12.58575 -2.703688 L 14.382625 -3.496656 L 16.183406 -4.371656 L 17.980281 -5.328688 L 19.777156 -6.352125 L 21.577938 -7.441969 L 23.374813 -8.582594 L 25.171688 -9.766188 L 26.972469 -10.981031 L 28.769344 -12.219313 L 30.566219 -13.465406 L 32.367 -14.715406 L 34.163875 -15.949781 L 35.96075 -17.164625 L 37.757625 -18.344313 L 39.558406 -19.473219 L 41.355281 -20.547438 L 43.152156 -21.551344 L 44.952938 -22.473219 L 46.749813 -23.301344 L 48.546688 -24.027906 L 50.347469 -24.645094 L 52.144344 -25.133375 L 53.941219 -25.496656 L 55.738094 -25.715406 L 57.538875 -25.789625 L 59.33575 -25.7115 L 61.132625 -25.469313 L 62.933406 -25.063063 L 64.730281 -24.484938 L 66.527156 -23.734938 L 68.327938 -22.813063 L 70.124813 -21.7115 L 71.921688 -20.434156 L 73.718563 -18.981031 L 75.519344 -17.352125 L 77.316219 -15.551344 L 79.113094 -13.5865 L 80.913875 -11.457594 L 82.71075 -9.176344 L 84.507625 -6.746656 L 86.308406 -4.176344 L 88.105281 -1.473219 L 89.902156 1.347094 L 91.702938 4.272875 L 93.499813 7.300219 L 95.296688 10.409594 L 97.093563 13.585375 L 98.894344 16.81975 L 100.691219 20.089281 L 102.488094 23.386156 L 104.288875 26.690844 L 106.08575 29.983812 L 107.882625 33.253344 L 109.683406 36.476 L 111.480281 39.636156 L 113.277156 42.718187 L 115.074031 45.706469 L 116.874813 48.573656 L 118.671688 51.315844 L 120.468563 53.901781 L 122.269344 56.327562 L 124.066219 58.56975 L 125.863094 60.612719 L 127.663875 62.44475 L 129.46075 64.046312 L 131.257625 65.405687 L 133.058406 66.515062 L 134.855281 67.354906 L 136.652156 67.921312 L 138.449031 68.202562 L 140.249813 68.190844 L 142.046688 67.878344 L 143.843563 67.25725 L 145.644344 66.323656 L 147.441219 65.081469 L 149.238094 63.518969 L 151.038875 61.643969 L 152.83575 59.456469 L 154.632625 56.952562 L 156.4295 54.147875 L 158.230281 51.042406 L 160.027156 47.640062 L 161.824031 43.960375 L 163.624813 40.00725 L 165.421688 35.792406 L 167.218563 31.331469 L 169.019344 26.636156 L 170.816219 21.729906 L 172.613094 16.620531 L 174.409969 11.339281 L 176.21075 5.893969 L 178.007625 0.311937 " transform="matrix(1,0,0,-1,1.133,69.601)"/>
</g>
</g>
</svg>
