<?xml version="1.0" encoding="UTF-8"?>
<svg xmlns="http://www.w3.org/2000/svg" xmlns:xlink="http://www.w3.org/1999/xlink" width="115.76pt" height="84.08pt" viewBox="0 0 115.76 84.08" version="1.1">
<defs>
<clipPath id="clip1">
  <path d="M 0 0 L 115.761719 0 L 115.761719 84.078125 L 0 84.078125 Z M 0 0 "/>
</clipPath>
</defs>
<g id="surface1">
<g clip-path="url(#clip1)" clip-rule="nonzero">
<path style="fill:none;stroke-width:0.79701;stroke-linecap:butt;stroke-linejoin:miter;stroke:rgb(0%,0%,100%);stroke-opacity:1;stroke-miterlimit:10;" d="M -0.0001875 2.833469 L 49.894344 8.087375 C 52.08575 8.317844 53.890438 10.286594 53.933406 12.489719 L 55.202938 81.056125 C 55.242 83.255344 55.277156 83.255344 55.277156 81.056125 C 55.277156 84.4155 55.784969 83.907687 56.409969 83.907687 C 57.034969 83.907687 57.542781 84.4155 57.542781 81.056125 C 57.542781 83.255344 57.589656 83.255344 57.64825 81.056125 L 59.425594 12.485812 C 59.484188 10.286594 61.3045 8.317844 63.492 8.087375 L 113.386531 2.833469 " transform="matrix(1,0,0,-1,1.133,85.478)"/>
</g>
</g>
</svg>
