<?xml version="1.0" encoding="UTF-8"?>
<svg xmlns="http://www.w3.org/2000/svg" xmlns:xlink="http://www.w3.org/1999/xlink" width="60pt" height="58pt" viewBox="0 0 60 58" version="1.1">
<g id="surface1">
<path style="fill:none;stroke-width:0.3985;stroke-linecap:butt;stroke-linejoin:miter;stroke:rgb(0%,0%,0%);stroke-opacity:1;stroke-miterlimit:10;" d="M -26.9595 8.759313 L -16.662625 -22.932094 L 16.661594 -22.932094 L 26.958469 8.759313 L 0.0014375 28.34525 L -26.9595 8.759313 " transform="matrix(1,0,0,-1,29.647,31.939)"/>
<path style=" stroke:none;fill-rule:nonzero;fill:rgb(0%,0%,0%);fill-opacity:1;" d="M 4.679688 23.179688 C 4.679688 22.078125 3.789062 21.1875 2.6875 21.1875 C 1.585938 21.1875 0.695312 22.078125 0.695312 23.179688 C 0.695312 24.28125 1.585938 25.171875 2.6875 25.171875 C 3.789062 25.171875 4.679688 24.28125 4.679688 23.179688 Z M 4.679688 23.179688 "/>
<path style=" stroke:none;fill-rule:nonzero;fill:rgb(0%,0%,0%);fill-opacity:1;" d="M 14.976562 54.871094 C 14.976562 53.773438 14.085938 52.878906 12.984375 52.878906 C 11.882812 52.878906 10.992188 53.773438 10.992188 54.871094 C 10.992188 55.972656 11.882812 56.863281 12.984375 56.863281 C 14.085938 56.863281 14.976562 55.972656 14.976562 54.871094 Z M 14.976562 54.871094 "/>
<path style=" stroke:none;fill-rule:nonzero;fill:rgb(0%,0%,0%);fill-opacity:1;" d="M 48.300781 54.871094 C 48.300781 53.773438 47.410156 52.878906 46.308594 52.878906 C 45.207031 52.878906 44.316406 53.773438 44.316406 54.871094 C 44.316406 55.972656 45.207031 56.863281 46.308594 56.863281 C 47.410156 56.863281 48.300781 55.972656 48.300781 54.871094 Z M 48.300781 54.871094 "/>
<path style=" stroke:none;fill-rule:nonzero;fill:rgb(0%,0%,0%);fill-opacity:1;" d="M 58.597656 23.179688 C 58.597656 22.078125 57.707031 21.1875 56.605469 21.1875 C 55.507812 21.1875 54.613281 22.078125 54.613281 23.179688 C 54.613281 24.28125 55.507812 25.171875 56.605469 25.171875 C 57.707031 25.171875 58.597656 24.28125 58.597656 23.179688 Z M 58.597656 23.179688 "/>
<path style=" stroke:none;fill-rule:nonzero;fill:rgb(0%,0%,0%);fill-opacity:1;" d="M 31.640625 3.59375 C 31.640625 2.492188 30.746094 1.601562 29.648438 1.601562 C 28.546875 1.601562 27.65625 2.492188 27.65625 3.59375 C 27.65625 4.691406 28.546875 5.585938 29.648438 5.585938 C 30.746094 5.585938 31.640625 4.691406 31.640625 3.59375 Z M 31.640625 3.59375 "/>
</g>
</svg>
