<?xml version="1.0" encoding="UTF-8" standalone="no"?>
<!-- Created with Inkscape (http://www.inkscape.org/) -->

<svg
   xmlns:dc="http://purl.org/dc/elements/1.1/"
   xmlns:cc="http://creativecommons.org/ns#"
   xmlns:rdf="http://www.w3.org/1999/02/22-rdf-syntax-ns#"
   xmlns:svg="http://www.w3.org/2000/svg"
   xmlns="http://www.w3.org/2000/svg"
   xmlns:sodipodi="http://sodipodi.sourceforge.net/DTD/sodipodi-0.dtd"
   xmlns:inkscape="http://www.inkscape.org/namespaces/inkscape"
   id="svg3463"
   version="1.1"
   inkscape:version="0.91 r13725"
   xml:space="preserve"
   width="317.96875"
   height="36.758877"
   viewBox="0 0 317.96875 36.758877"
   sodipodi:docname="fig-2-5-57.svg"><metadata
     id="metadata3469"><rdf:RDF><cc:Work
         rdf:about=""><dc:format>image/svg+xml</dc:format><dc:type
           rdf:resource="http://purl.org/dc/dcmitype/StillImage" /><dc:title></dc:title></cc:Work></rdf:RDF></metadata><defs
     id="defs3467"><clipPath
       clipPathUnits="userSpaceOnUse"
       id="clipPath3479"><path
         d="m 28,776 640,0 0,-748 -640,0 0,748 z"
         id="path3481"
         inkscape:connector-curvature="0" /></clipPath><clipPath
       clipPathUnits="userSpaceOnUse"
       id="clipPath3485"><path
         d="m 0,804.03 696,0 0,-804 -696,0 0,804 z"
         id="path3487"
         inkscape:connector-curvature="0" /></clipPath><clipPath
       clipPathUnits="userSpaceOnUse"
       id="clipPath3641"><path
         d="m 109.5,614.97 255,0 0,-33 -255,0 0,33 z"
         id="path3643"
         inkscape:connector-curvature="0"
         style="clip-rule:evenodd" /></clipPath><clipPath
       clipPathUnits="userSpaceOnUse"
       id="clipPath3647"><path
         d="m 28,776 640,0 0,-748 -640,0 0,748 z"
         id="path3649"
         inkscape:connector-curvature="0" /></clipPath><clipPath
       clipPathUnits="userSpaceOnUse"
       id="clipPath3653"><path
         d="m 0,804.03 696,0 0,-804 -696,0 0,804 z"
         id="path3655"
         inkscape:connector-curvature="0" /></clipPath><clipPath
       clipPathUnits="userSpaceOnUse"
       id="clipPath3671"><path
         d="m 182.058,609.894 15.75,0 0,-10.688 -15.75,0 0,10.688 z"
         id="path3673"
         inkscape:connector-curvature="0" /></clipPath><linearGradient
       x1="0.118"
       y1="0"
       x2="1"
       y2="0"
       gradientUnits="userSpaceOnUse"
       gradientTransform="matrix(13.125,0,0,-14.6875,181.8701,611.8938)"
       spreadMethod="pad"
       id="linearGradient3677"><stop
         style="stop-opacity:1;stop-color:#2056ae"
         offset="0"
         id="stop3679" /><stop
         style="stop-opacity:1;stop-color:#ffffff"
         offset="0.426966"
         id="stop3681" /><stop
         style="stop-opacity:1;stop-color:#2056ae"
         offset="1"
         id="stop3683" /></linearGradient><clipPath
       clipPathUnits="userSpaceOnUse"
       id="clipPath3691"><path
         d="m 109.5,614.97 255,0 0,-33 -255,0 0,33 z"
         id="path3693"
         inkscape:connector-curvature="0"
         style="clip-rule:evenodd" /></clipPath><clipPath
       clipPathUnits="userSpaceOnUse"
       id="clipPath3697"><path
         d="m 28,776 640,0 0,-748 -640,0 0,748 z"
         id="path3699"
         inkscape:connector-curvature="0" /></clipPath><clipPath
       clipPathUnits="userSpaceOnUse"
       id="clipPath3703"><path
         d="m 0,804.03 696,0 0,-804 -696,0 0,804 z"
         id="path3705"
         inkscape:connector-curvature="0" /></clipPath><clipPath
       clipPathUnits="userSpaceOnUse"
       id="clipPath3713"><path
         d="m 182.058,609.894 15.75,0"
         id="path3715"
         inkscape:connector-curvature="0" /></clipPath><linearGradient
       x1="0.118"
       y1="0"
       x2="1"
       y2="0"
       gradientUnits="userSpaceOnUse"
       gradientTransform="matrix(13.125,0,0,-4,181.8701,611.8938)"
       spreadMethod="pad"
       id="linearGradient3719"><stop
         style="stop-opacity:1;stop-color:#3a6abd"
         offset="0"
         id="stop3721" /><stop
         style="stop-opacity:1;stop-color:#ffffff"
         offset="0.595506"
         id="stop3723" /><stop
         style="stop-opacity:1;stop-color:#3a6abd"
         offset="1"
         id="stop3725" /></linearGradient><clipPath
       clipPathUnits="userSpaceOnUse"
       id="clipPath3733"><path
         d="m 109.5,614.97 255,0 0,-33 -255,0 0,33 z"
         id="path3735"
         inkscape:connector-curvature="0"
         style="clip-rule:evenodd" /></clipPath><clipPath
       clipPathUnits="userSpaceOnUse"
       id="clipPath3739"><path
         d="m 28,776 640,0 0,-748 -640,0 0,748 z"
         id="path3741"
         inkscape:connector-curvature="0" /></clipPath><clipPath
       clipPathUnits="userSpaceOnUse"
       id="clipPath3745"><path
         d="m 0,804.03 696,0 0,-804 -696,0 0,804 z"
         id="path3747"
         inkscape:connector-curvature="0" /></clipPath><clipPath
       clipPathUnits="userSpaceOnUse"
       id="clipPath3755"><path
         d="m 182.058,610.644 c -0.414,0 -0.75,-0.336 -0.75,-0.75 0,-0.414 0.336,-0.75 0.75,-0.75 l 15.75,0 c 0.414,0 0.75,0.336 0.75,0.75 0,0.414 -0.336,0.75 -0.75,0.75 l -15.75,0"
         id="path3757"
         inkscape:connector-curvature="0" /></clipPath><linearGradient
       x1="0.118"
       y1="0"
       x2="1"
       y2="0"
       gradientUnits="userSpaceOnUse"
       gradientTransform="matrix(17.6177,0,0,-5.5,181.124,612.6438)"
       spreadMethod="pad"
       id="linearGradient3761"><stop
         style="stop-opacity:1;stop-color:#2056ae"
         offset="0"
         id="stop3763" /><stop
         style="stop-opacity:1;stop-color:#ffffff"
         offset="0.679775"
         id="stop3765" /><stop
         style="stop-opacity:1;stop-color:#2056ae"
         offset="1"
         id="stop3767" /></linearGradient><clipPath
       clipPathUnits="userSpaceOnUse"
       id="clipPath3775"><path
         d="m 109.5,614.97 255,0 0,-33 -255,0 0,33 z"
         id="path3777"
         inkscape:connector-curvature="0"
         style="clip-rule:evenodd" /></clipPath><clipPath
       clipPathUnits="userSpaceOnUse"
       id="clipPath3781"><path
         d="m 28,776 640,0 0,-748 -640,0 0,748 z"
         id="path3783"
         inkscape:connector-curvature="0" /></clipPath><clipPath
       clipPathUnits="userSpaceOnUse"
       id="clipPath3787"><path
         d="m 0,804.03 696,0 0,-804 -696,0 0,804 z"
         id="path3789"
         inkscape:connector-curvature="0" /></clipPath><clipPath
       clipPathUnits="userSpaceOnUse"
       id="clipPath3797"><path
         d="m 146.425,599.206 8.625,0 0,7.875 -8.625,0 0,-7.875 z"
         id="path3799"
         inkscape:connector-curvature="0" /></clipPath><linearGradient
       x1="0.118"
       y1="0"
       x2="1"
       y2="0"
       gradientUnits="userSpaceOnUse"
       gradientTransform="matrix(8.8786,0,0,-11.875,146.2983,609.0813)"
       spreadMethod="pad"
       id="linearGradient3803"><stop
         style="stop-opacity:1;stop-color:#2056ae"
         offset="0"
         id="stop3805" /><stop
         style="stop-opacity:1;stop-color:#ffffff"
         offset="0.455056"
         id="stop3807" /><stop
         style="stop-opacity:1;stop-color:#2056ae"
         offset="1"
         id="stop3809" /></linearGradient><clipPath
       clipPathUnits="userSpaceOnUse"
       id="clipPath3817"><path
         d="m 109.5,614.97 255,0 0,-33 -255,0 0,33 z"
         id="path3819"
         inkscape:connector-curvature="0"
         style="clip-rule:evenodd" /></clipPath><clipPath
       clipPathUnits="userSpaceOnUse"
       id="clipPath3823"><path
         d="m 28,776 640,0 0,-748 -640,0 0,748 z"
         id="path3825"
         inkscape:connector-curvature="0" /></clipPath><clipPath
       clipPathUnits="userSpaceOnUse"
       id="clipPath3829"><path
         d="m 0,804.03 696,0 0,-804 -696,0 0,804 z"
         id="path3831"
         inkscape:connector-curvature="0" /></clipPath><clipPath
       clipPathUnits="userSpaceOnUse"
       id="clipPath3839"><path
         d="m 133.683,612.894 12.75,0 0,-13.688 -12.75,0 0,13.688 z"
         id="path3841"
         inkscape:connector-curvature="0" /></clipPath><linearGradient
       x1="0.118"
       y1="0"
       x2="1"
       y2="0"
       gradientUnits="userSpaceOnUse"
       gradientTransform="matrix(13.125,0,0,-17.6875,133.4951,614.8938)"
       spreadMethod="pad"
       id="linearGradient3845"><stop
         style="stop-opacity:1;stop-color:#2056ae"
         offset="0"
         id="stop3847" /><stop
         style="stop-opacity:1;stop-color:#ffffff"
         offset="0.455056"
         id="stop3849" /><stop
         style="stop-opacity:1;stop-color:#2056ae"
         offset="1"
         id="stop3851" /></linearGradient><clipPath
       clipPathUnits="userSpaceOnUse"
       id="clipPath3859"><path
         d="m 109.5,614.97 255,0 0,-33 -255,0 0,33 z"
         id="path3861"
         inkscape:connector-curvature="0"
         style="clip-rule:evenodd" /></clipPath><clipPath
       clipPathUnits="userSpaceOnUse"
       id="clipPath3865"><path
         d="m 28,776 640,0 0,-748 -640,0 0,748 z"
         id="path3867"
         inkscape:connector-curvature="0" /></clipPath><clipPath
       clipPathUnits="userSpaceOnUse"
       id="clipPath3871"><path
         d="m 0,804.03 696,0 0,-804 -696,0 0,804 z"
         id="path3873"
         inkscape:connector-curvature="0" /></clipPath><clipPath
       clipPathUnits="userSpaceOnUse"
       id="clipPath3891"><path
         d="m 339.604,612.144 19.5,0 0,-12.188 -19.5,0 0,12.188 z"
         id="path3893"
         inkscape:connector-curvature="0" /></clipPath><linearGradient
       x1="0.118"
       y1="0"
       x2="1"
       y2="0"
       gradientUnits="userSpaceOnUse"
       gradientTransform="matrix(13.125,0,0,-16.1875,339.417,614.1438)"
       spreadMethod="pad"
       id="linearGradient3897"><stop
         style="stop-opacity:1;stop-color:#2056ae"
         offset="0"
         id="stop3899" /><stop
         style="stop-opacity:1;stop-color:#ffffff"
         offset="0.44382"
         id="stop3901" /><stop
         style="stop-opacity:1;stop-color:#2056ae"
         offset="1"
         id="stop3903" /></linearGradient><clipPath
       clipPathUnits="userSpaceOnUse"
       id="clipPath3911"><path
         d="m 109.5,614.97 255,0 0,-33 -255,0 0,33 z"
         id="path3913"
         inkscape:connector-curvature="0"
         style="clip-rule:evenodd" /></clipPath><clipPath
       clipPathUnits="userSpaceOnUse"
       id="clipPath3917"><path
         d="m 28,776 640,0 0,-748 -640,0 0,748 z"
         id="path3919"
         inkscape:connector-curvature="0" /></clipPath><clipPath
       clipPathUnits="userSpaceOnUse"
       id="clipPath3923"><path
         d="m 0,804.03 696,0 0,-804 -696,0 0,804 z"
         id="path3925"
         inkscape:connector-curvature="0" /></clipPath><clipPath
       clipPathUnits="userSpaceOnUse"
       id="clipPath3933"><path
         d="m 359.104,612.144 -19.5,0 c 2.672,2.73 17.11,2.73 19.5,0"
         id="path3935"
         inkscape:connector-curvature="0" /></clipPath><linearGradient
       x1="0.118"
       y1="0"
       x2="1"
       y2="0"
       gradientUnits="userSpaceOnUse"
       gradientTransform="matrix(-8.5314,4.5938,6.882,12.7808,349.3994,604.5979)"
       spreadMethod="pad"
       id="linearGradient3939"><stop
         style="stop-opacity:1;stop-color:#2056ae"
         offset="0"
         id="stop3941" /><stop
         style="stop-opacity:1;stop-color:#ffffff"
         offset="0.707865"
         id="stop3943" /><stop
         style="stop-opacity:1;stop-color:#2056ae"
         offset="1"
         id="stop3945" /></linearGradient><clipPath
       clipPathUnits="userSpaceOnUse"
       id="clipPath3953"><path
         d="m 109.5,614.97 255,0 0,-33 -255,0 0,33 z"
         id="path3955"
         inkscape:connector-curvature="0"
         style="clip-rule:evenodd" /></clipPath><clipPath
       clipPathUnits="userSpaceOnUse"
       id="clipPath3959"><path
         d="m 28,776 640,0 0,-748 -640,0 0,748 z"
         id="path3961"
         inkscape:connector-curvature="0" /></clipPath><clipPath
       clipPathUnits="userSpaceOnUse"
       id="clipPath3965"><path
         d="m 0,804.03 696,0 0,-804 -696,0 0,804 z"
         id="path3967"
         inkscape:connector-curvature="0" /></clipPath><clipPath
       clipPathUnits="userSpaceOnUse"
       id="clipPath4017"><path
         d="m 28,776 640,0 0,-748 -640,0 0,748 z"
         id="path4019"
         inkscape:connector-curvature="0" /></clipPath><clipPath
       clipPathUnits="userSpaceOnUse"
       id="clipPath4023"><path
         d="m 0,804.03 696,0 0,-804 -696,0 0,804 z"
         id="path4025"
         inkscape:connector-curvature="0" /></clipPath><clipPath
       clipPathUnits="userSpaceOnUse"
       id="clipPath4079"><path
         d="m 42,271.19 625.5,0 0,-6 -625.5,0 0,6 z"
         id="path4081"
         inkscape:connector-curvature="0"
         style="clip-rule:evenodd" /></clipPath><clipPath
       clipPathUnits="userSpaceOnUse"
       id="clipPath4085"><path
         d="m 28,776 640,0 0,-748 -640,0 0,748 z"
         id="path4087"
         inkscape:connector-curvature="0" /></clipPath><clipPath
       clipPathUnits="userSpaceOnUse"
       id="clipPath4091"><path
         d="m 0,804.03 696,0 0,-804 -696,0 0,804 z"
         id="path4093"
         inkscape:connector-curvature="0" /></clipPath><clipPath
       clipPathUnits="userSpaceOnUse"
       id="clipPath4103"><path
         d="m 159.5,291.81 508,0 0,-21 -508,0 0,21 z"
         id="path4105"
         inkscape:connector-curvature="0"
         style="clip-rule:evenodd" /></clipPath><clipPath
       clipPathUnits="userSpaceOnUse"
       id="clipPath4109"><path
         d="m 28,776 640,0 0,-748 -640,0 0,748 z"
         id="path4111"
         inkscape:connector-curvature="0" /></clipPath><clipPath
       clipPathUnits="userSpaceOnUse"
       id="clipPath4115"><path
         d="m 0,804.03 696,0 0,-804 -696,0 0,804 z"
         id="path4117"
         inkscape:connector-curvature="0" /></clipPath><linearGradient
       x1="0"
       y1="128"
       x2="256"
       y2="128"
       gradientUnits="userSpaceOnUse"
       gradientTransform="matrix(1.9922,0,0,-0.0898,158.5,292.81)"
       id="linearGradient4121"><stop
         style="stop-opacity:1;stop-color:#a9c3bc"
         offset="0"
         id="stop4123" /><stop
         style="stop-opacity:1;stop-color:#ffffff"
         offset="1"
         id="stop4125" /></linearGradient><clipPath
       clipPathUnits="userSpaceOnUse"
       id="clipPath4133"><path
         d="m 28,776 640,0 0,-748 -640,0 0,748 z"
         id="path4135"
         inkscape:connector-curvature="0" /></clipPath><clipPath
       clipPathUnits="userSpaceOnUse"
       id="clipPath4139"><path
         d="m 0,804.03 696,0 0,-804 -696,0 0,804 z"
         id="path4141"
         inkscape:connector-curvature="0" /></clipPath><clipPath
       clipPathUnits="userSpaceOnUse"
       id="clipPath4451"><path
         d="m 109.5,263.17 126,0 0,-81 -126,0 0,81 z"
         id="path4453"
         inkscape:connector-curvature="0"
         style="clip-rule:evenodd" /></clipPath><clipPath
       clipPathUnits="userSpaceOnUse"
       id="clipPath4457"><path
         d="m 28,776 640,0 0,-748 -640,0 0,748 z"
         id="path4459"
         inkscape:connector-curvature="0" /></clipPath><clipPath
       clipPathUnits="userSpaceOnUse"
       id="clipPath4463"><path
         d="m 0,804.03 696,0 0,-804 -696,0 0,804 z"
         id="path4465"
         inkscape:connector-curvature="0" /></clipPath><clipPath
       clipPathUnits="userSpaceOnUse"
       id="clipPath4555"><path
         d="m 28,776 640,0 0,-748 -640,0 0,748 z"
         id="path4557"
         inkscape:connector-curvature="0" /></clipPath><clipPath
       clipPathUnits="userSpaceOnUse"
       id="clipPath4561"><path
         d="m 0,804.03 696,0 0,-804 -696,0 0,804 z"
         id="path4563"
         inkscape:connector-curvature="0" /></clipPath></defs><sodipodi:namedview
     pagecolor="#ffffff"
     bordercolor="#666666"
     borderopacity="1"
     objecttolerance="10"
     gridtolerance="10"
     guidetolerance="10"
     inkscape:pageopacity="0"
     inkscape:pageshadow="2"
     inkscape:window-width="1366"
     inkscape:window-height="715"
     id="namedview3465"
     showgrid="false"
     fit-margin-top="0"
     fit-margin-left="0"
     fit-margin-right="0"
     fit-margin-bottom="0"
     inkscape:zoom="0.74721134"
     inkscape:cx="297.50625"
     inkscape:cy="-68.195869"
     inkscape:window-x="0"
     inkscape:window-y="0"
     inkscape:window-maximized="1"
     inkscape:current-layer="g3471" /><g
     id="g3471"
     inkscape:groupmode="layer"
     inkscape:label="19429_02b_ch02_p176-215"
     transform="matrix(1.25,0,0,-1.25,-137.49375,768.05188)"><path
       d="m 0,804 0,0"
       style="fill:#ffffff;fill-opacity:1;fill-rule:nonzero;stroke:none"
       id="path3473"
       inkscape:connector-curvature="0" /><g
       id="g3475" /><g
       id="g3637"><g
         id="g3639"
         clip-path="url(#clipPath3641)"><g
           id="g3645"
           clip-path="url(#clipPath3647)"><g
             id="g3651"
             clip-path="url(#clipPath3653)"><path
               d="m 340.495,600.624 2.156,0 0,-1.969 -2.156,0 0,1.969 z"
               style="fill:#231f20;fill-opacity:1;fill-rule:nonzero;stroke:#231f20;stroke-width:0.5;stroke-linecap:butt;stroke-linejoin:miter;stroke-miterlimit:4;stroke-dasharray:none;stroke-opacity:1"
               id="path3657"
               inkscape:connector-curvature="0" /><path
               d="m 355.683,600.624 2.156,0 0,-1.969 -2.156,0 0,1.969 z"
               style="fill:#231f20;fill-opacity:1;fill-rule:nonzero;stroke:#231f20;stroke-width:0.5;stroke-linecap:butt;stroke-linejoin:miter;stroke-miterlimit:4;stroke-dasharray:none;stroke-opacity:1"
               id="path3659"
               inkscape:connector-curvature="0" /><path
               d="m 196.964,606.812 c 1.312,0 2.578,0.75 3.328,2.437"
               style="fill:none;stroke:#231f20;stroke-width:1;stroke-linecap:round;stroke-linejoin:miter;stroke-miterlimit:4;stroke-dasharray:none;stroke-opacity:1"
               id="path3661"
               inkscape:connector-curvature="0" /><path
               d="m 113.995,589.484 0,6.312 -1.999,0 0,-10.062"
               style="fill:#ccede4;fill-opacity:1;fill-rule:nonzero;stroke:#40bead;stroke-width:0.5;stroke-linecap:butt;stroke-linejoin:miter;stroke-miterlimit:4;stroke-dasharray:none;stroke-opacity:1"
               id="path3663"
               inkscape:connector-curvature="0" /><path
               d="m 360.276,589.484 0,6.312 2,0 0,-10.062"
               style="fill:#ccede4;fill-opacity:1;fill-rule:nonzero;stroke:#40bead;stroke-width:0.5;stroke-linecap:butt;stroke-linejoin:miter;stroke-miterlimit:4;stroke-dasharray:none;stroke-opacity:1"
               id="path3665"
               inkscape:connector-curvature="0" /></g></g></g></g><g
       id="g3667"><g
         id="g3669"
         clip-path="url(#clipPath3671)"><g
           id="g3675"><path
             d="m 182.058,609.894 15.75,0 0,-10.688 -15.75,0 0,10.688 z"
             style="fill:url(#linearGradient3677);stroke:none"
             id="path3685"
             inkscape:connector-curvature="0" /></g></g></g><g
       id="g3687"><g
         id="g3689"
         clip-path="url(#clipPath3691)"><g
           id="g3695"
           clip-path="url(#clipPath3697)"><g
             id="g3701"
             clip-path="url(#clipPath3703)"><path
               d="m 182.058,609.894 15.75,0 0,-10.688 -15.75,0 0,10.688 z"
               style="fill:none;stroke:#231f20;stroke-width:0.5;stroke-linecap:butt;stroke-linejoin:miter;stroke-miterlimit:4;stroke-dasharray:none;stroke-opacity:1"
               id="path3707"
               inkscape:connector-curvature="0" /></g></g></g></g><g
       id="g3709"><g
         id="g3711"
         clip-path="url(#clipPath3713)"><g
           id="g3717"><path
             d="m 182.058,609.894 15.75,0"
             style="fill:url(#linearGradient3719);stroke:none"
             id="path3727"
             inkscape:connector-curvature="0" /></g></g></g><g
       id="g3729"><g
         id="g3731"
         clip-path="url(#clipPath3733)"><g
           id="g3737"
           clip-path="url(#clipPath3739)"><g
             id="g3743"
             clip-path="url(#clipPath3745)"><path
               d="m 182.058,609.894 15.75,0"
               style="fill:none;stroke:#231f20;stroke-width:0.5;stroke-linecap:butt;stroke-linejoin:miter;stroke-miterlimit:4;stroke-dasharray:none;stroke-opacity:1"
               id="path3749"
               inkscape:connector-curvature="0" /></g></g></g></g><g
       id="g3751"><g
         id="g3753"
         clip-path="url(#clipPath3755)"><g
           id="g3759"><path
             d="m 182.058,610.644 c -0.414,0 -0.75,-0.336 -0.75,-0.75 0,-0.414 0.336,-0.75 0.75,-0.75 l 15.75,0 c 0.414,0 0.75,0.336 0.75,0.75 0,0.414 -0.336,0.75 -0.75,0.75 l -15.75,0"
             style="fill:url(#linearGradient3761);stroke:none"
             id="path3769"
             inkscape:connector-curvature="0" /></g></g></g><g
       id="g3771"><g
         id="g3773"
         clip-path="url(#clipPath3775)"><g
           id="g3779"
           clip-path="url(#clipPath3781)"><g
             id="g3785"
             clip-path="url(#clipPath3787)"><path
               d="m 182.058,610.644 c -0.414,0 -0.75,-0.336 -0.75,-0.75 0,-0.414 0.336,-0.75 0.75,-0.75 l 15.75,0 c 0.414,0 0.75,0.336 0.75,0.75 0,0.414 -0.336,0.75 -0.75,0.75 l -15.75,0 z"
               style="fill:none;stroke:#231f20;stroke-width:0.5;stroke-linecap:butt;stroke-linejoin:miter;stroke-miterlimit:4;stroke-dasharray:none;stroke-opacity:1"
               id="path3791"
               inkscape:connector-curvature="0" /></g></g></g></g><g
       id="g3793"><g
         id="g3795"
         clip-path="url(#clipPath3797)"><g
           id="g3801"><path
             d="m 146.425,599.206 8.625,0 0,7.875 -8.625,0 0,-7.875 z"
             style="fill:url(#linearGradient3803);stroke:none"
             id="path3811"
             inkscape:connector-curvature="0" /></g></g></g><g
       id="g3813"><g
         id="g3815"
         clip-path="url(#clipPath3817)"><g
           id="g3821"
           clip-path="url(#clipPath3823)"><g
             id="g3827"
             clip-path="url(#clipPath3829)"><path
               d="m 146.425,599.206 8.625,0 0,7.875 -8.625,0 0,-7.875 z"
               style="fill:none;stroke:#231f20;stroke-width:0.5;stroke-linecap:butt;stroke-linejoin:miter;stroke-miterlimit:4;stroke-dasharray:none;stroke-opacity:1"
               id="path3833"
               inkscape:connector-curvature="0" /></g></g></g></g><g
       id="g3835"><g
         id="g3837"
         clip-path="url(#clipPath3839)"><g
           id="g3843"><path
             d="m 133.683,612.894 12.75,0 0,-13.688 -12.75,0 0,13.688 z"
             style="fill:url(#linearGradient3845);stroke:none"
             id="path3853"
             inkscape:connector-curvature="0" /></g></g></g><g
       id="g3855"><g
         id="g3857"
         clip-path="url(#clipPath3859)"><g
           id="g3863"
           clip-path="url(#clipPath3865)"><g
             id="g3869"
             clip-path="url(#clipPath3871)"><path
               d="m 133.683,612.894 12.75,0 0,-13.688 -12.75,0 0,13.688 z"
               style="fill:none;stroke:#231f20;stroke-width:0.5;stroke-linecap:butt;stroke-linejoin:miter;stroke-miterlimit:4;stroke-dasharray:none;stroke-opacity:1"
               id="path3875"
               inkscape:connector-curvature="0" /><path
               d="m 139.356,602.242 -2.784,2.785 -0.655,-0.656 1.064,-1.065 -1.739,-1.74 0.654,-0.657 1.741,1.743 1.065,-1.065 0.654,0.655"
               style="fill:#231f20;fill-opacity:1;fill-rule:nonzero;stroke:none"
               id="path3877"
               inkscape:connector-curvature="0" /><path
               d="m 190.823,608.288 6.094,0 0,-3.281 -6.094,0 0,3.281 z"
               style="fill:#ffffff;fill-opacity:1;fill-rule:nonzero;stroke:none"
               id="path3879"
               inkscape:connector-curvature="0" /><path
               d="m 190.823,608.288 6.094,0 0,-3.281 -6.094,0 0,3.281 z"
               style="fill:none;stroke:#231f20;stroke-width:0.5;stroke-linecap:butt;stroke-linejoin:miter;stroke-miterlimit:4;stroke-dasharray:none;stroke-opacity:1"
               id="path3881"
               inkscape:connector-curvature="0" /><path
               d="m 193.401,606.648 c 0,-0.596 -0.482,-1.078 -1.078,-1.078 -0.595,0 -1.078,0.482 -1.078,1.078 0,0.595 0.483,1.078 1.078,1.078 0.596,0 1.078,-0.483 1.078,-1.078"
               style="fill:#231f20;fill-opacity:1;fill-rule:nonzero;stroke:none"
               id="path3883"
               inkscape:connector-curvature="0" /><path
               d="m 196.495,606.648 c 0,-0.596 -0.482,-1.078 -1.078,-1.078 -0.595,0 -1.078,0.482 -1.078,1.078 0,0.595 0.483,1.078 1.078,1.078 0.596,0 1.078,-0.483 1.078,-1.078"
               style="fill:#231f20;fill-opacity:1;fill-rule:nonzero;stroke:none"
               id="path3885"
               inkscape:connector-curvature="0" /></g></g></g></g><g
       id="g3887"><g
         id="g3889"
         clip-path="url(#clipPath3891)"><g
           id="g3895"><path
             d="m 339.604,612.144 19.5,0 0,-12.188 -19.5,0 0,12.188 z"
             style="fill:url(#linearGradient3897);stroke:none"
             id="path3905"
             inkscape:connector-curvature="0" /></g></g></g><g
       id="g3907"><g
         id="g3909"
         clip-path="url(#clipPath3911)"><g
           id="g3915"
           clip-path="url(#clipPath3917)"><g
             id="g3921"
             clip-path="url(#clipPath3923)"><path
               d="m 339.604,612.144 19.5,0 0,-12.188 -19.5,0 0,12.188 z"
               style="fill:none;stroke:#231f20;stroke-width:0.5;stroke-linecap:butt;stroke-linejoin:round;stroke-miterlimit:4;stroke-dasharray:none;stroke-opacity:1"
               id="path3927"
               inkscape:connector-curvature="0" /></g></g></g></g><g
       id="g3929"><g
         id="g3931"
         clip-path="url(#clipPath3933)"><g
           id="g3937"><path
             d="m 359.104,612.144 -19.5,0 c 2.672,2.73 17.11,2.73 19.5,0"
             style="fill:url(#linearGradient3939);stroke:none"
             id="path3947"
             inkscape:connector-curvature="0" /></g></g></g><g
       id="g3949"><g
         id="g3951"
         clip-path="url(#clipPath3953)"><g
           id="g3957"
           clip-path="url(#clipPath3959)"><g
             id="g3963"
             clip-path="url(#clipPath3965)"><path
               d="m 359.104,612.144 -19.5,0 c 2.672,2.73 17.11,2.73 19.5,0 z"
               style="fill:none;stroke:#231f20;stroke-width:0.5;stroke-linecap:butt;stroke-linejoin:round;stroke-miterlimit:4;stroke-dasharray:none;stroke-opacity:1"
               id="path3969"
               inkscape:connector-curvature="0" /><path
               d="m 352.12,610.538 6.094,0 0,-3.281 -6.094,0 0,3.281 z"
               style="fill:#ffffff;fill-opacity:1;fill-rule:nonzero;stroke:none"
               id="path3971"
               inkscape:connector-curvature="0" /><path
               d="m 352.12,610.538 6.094,0 0,-3.281 -6.094,0 0,3.281 z"
               style="fill:none;stroke:#231f20;stroke-width:0.5;stroke-linecap:butt;stroke-linejoin:miter;stroke-miterlimit:4;stroke-dasharray:none;stroke-opacity:1"
               id="path3973"
               inkscape:connector-curvature="0" /><path
               d="m 354.698,608.898 c 0,-0.596 -0.482,-1.078 -1.078,-1.078 -0.595,0 -1.078,0.482 -1.078,1.078 0,0.595 0.483,1.078 1.078,1.078 0.596,0 1.078,-0.483 1.078,-1.078"
               style="fill:#231f20;fill-opacity:1;fill-rule:nonzero;stroke:none"
               id="path3975"
               inkscape:connector-curvature="0" /><path
               d="m 357.792,608.898 c 0,-0.596 -0.482,-1.078 -1.078,-1.078 -0.595,0 -1.078,0.482 -1.078,1.078 0,0.595 0.483,1.078 1.078,1.078 0.596,0 1.078,-0.483 1.078,-1.078"
               style="fill:#231f20;fill-opacity:1;fill-rule:nonzero;stroke:none"
               id="path3977"
               inkscape:connector-curvature="0" /><path
               d="m 110.245,595.843 253.875,0 0,3 -253.875,0 0,-3 z"
               style="fill:#ccede4;fill-opacity:1;fill-rule:nonzero;stroke:#40bead;stroke-width:0.5;stroke-linecap:butt;stroke-linejoin:miter;stroke-miterlimit:4;stroke-dasharray:none;stroke-opacity:1"
               id="path3979"
               inkscape:connector-curvature="0" /><path
               d="m 350.148,601.327 0,-8"
               style="fill:none;stroke:#231f20;stroke-width:0.5;stroke-linecap:butt;stroke-linejoin:miter;stroke-miterlimit:4;stroke-dasharray:none;stroke-opacity:1"
               id="path3981"
               inkscape:connector-curvature="0" /><text
               transform="matrix(1,0,0,-1,345.6533,585.1604)"
               style="font-variant:normal;font-weight:normal;font-size:9px;font-family:Times;-inkscape-font-specification:Times-Roman;writing-mode:lr-tb;fill:#231f20;fill-opacity:1;fill-rule:nonzero;stroke:none"
               id="text3983"><tspan
                 x="0 4.5"
                 y="0"
                 sodipodi:role="line"
                 id="tspan3985">24</tspan></text>
<path
               d="m 215.898,601.327 0,-8"
               style="fill:none;stroke:#231f20;stroke-width:0.5;stroke-linecap:butt;stroke-linejoin:miter;stroke-miterlimit:4;stroke-dasharray:none;stroke-opacity:1"
               id="path3987"
               inkscape:connector-curvature="0" /><text
               transform="matrix(1,0,0,-1,213.6533,585.1604)"
               style="font-variant:normal;font-weight:normal;font-size:9px;font-family:Times;-inkscape-font-specification:Times-Roman;writing-mode:lr-tb;fill:#231f20;fill-opacity:1;fill-rule:nonzero;stroke:none"
               id="text3989"><tspan
                 x="0"
                 y="0"
                 id="tspan3991">0</tspan></text>
<path
               d="m 190.023,601.327 0,-8"
               style="fill:none;stroke:#231f20;stroke-width:0.5;stroke-linecap:butt;stroke-linejoin:miter;stroke-miterlimit:4;stroke-dasharray:none;stroke-opacity:1"
               id="path3993"
               inkscape:connector-curvature="0" /><text
               transform="matrix(1,0,0,-1,182.4107,585.1604)"
               style="font-variant:normal;font-weight:normal;font-size:9px;font-family:Symbol;-inkscape-font-specification:Symbol;writing-mode:lr-tb;fill:#231f20;fill-opacity:1;fill-rule:nonzero;stroke:none"
               id="text3995"><tspan
                 x="0"
                 y="0"
                 id="tspan3997">−</tspan></text>
<text
               transform="matrix(1,0,0,-1,188.0717,585.1604)"
               style="font-variant:normal;font-weight:normal;font-size:9px;font-family:Times;-inkscape-font-specification:Times-Roman;writing-mode:lr-tb;fill:#231f20;fill-opacity:1;fill-rule:nonzero;stroke:none"
               id="text3999"><tspan
                 x="0"
                 y="0"
                 id="tspan4001">4</tspan></text>
<path
               d="m 145.211,601.327 0,-8"
               style="fill:none;stroke:#231f20;stroke-width:0.5;stroke-linecap:butt;stroke-linejoin:miter;stroke-miterlimit:4;stroke-dasharray:none;stroke-opacity:1"
               id="path4003"
               inkscape:connector-curvature="0" /><text
               transform="matrix(1,0,0,-1,135.7082,585.1604)"
               style="font-variant:normal;font-weight:normal;font-size:9px;font-family:Symbol;-inkscape-font-specification:Symbol;writing-mode:lr-tb;fill:#231f20;fill-opacity:1;fill-rule:nonzero;stroke:none"
               id="text4005"><tspan
                 x="0"
                 y="0"
                 id="tspan4007">−</tspan></text>
<text
               transform="matrix(1,0,0,-1,140.6492,585.1604)"
               style="font-variant:normal;font-weight:normal;font-size:9px;font-family:Times;-inkscape-font-specification:Times-Roman;writing-mode:lr-tb;fill:#231f20;fill-opacity:1;fill-rule:nonzero;stroke:none"
               id="text4009"><tspan
                 x="0 4.5"
                 y="0"
                 sodipodi:role="line"
                 id="tspan4011">12</tspan></text>
</g></g></g></g><path
       d="m 43,804.03 241,0 0,-11.03 -241,0 0,11.03 z"
       style="fill:#ffffff;fill-opacity:1;fill-rule:nonzero;stroke:none"
       id="path4569"
       inkscape:connector-curvature="0" /><path
       d="m 42,804 0,-24 m -42,-18 24,0 m 630,42 0,-24 m 42,-18 -24,0 M 42,0 42,24 M 0,42 24,42 m 630,-42 0,24 m 42,18 -24,0"
       style="fill:none;stroke:#ffffff;stroke-width:0.5;stroke-linecap:butt;stroke-linejoin:miter;stroke-miterlimit:10;stroke-dasharray:none;stroke-opacity:1"
       id="path4575"
       inkscape:connector-curvature="0" /><path
       d="m 324,792 48,0 M 324,12 372,12 M 12,426 12,378 m 672,48 0,-48 m -336,426 0,-24 M 348,24 348,0 M 0,402 l 24,0 m 648,0 24,0 m -348,390 6,0 c 0,-3.312 -2.688,-6 -6,-6 -3.312,0 -6,2.688 -6,6 0,3.312 2.688,6 6,6 3.312,0 6,-2.688 6,-6 m -6,-780 6,0 c 0,-3.312 -2.688,-6 -6,-6 -3.312,0 -6,2.688 -6,6 0,3.312 2.688,6 6,6 3.312,0 6,-2.688 6,-6 m -342,390 6,0 c 0,-3.312 -2.688,-6 -6,-6 -3.312,0 -6,2.688 -6,6 0,3.312 2.688,6 6,6 3.312,0 6,-2.688 6,-6 m 666,0 6,0 c 0,-3.312 -2.688,-6 -6,-6 -3.312,0 -6,2.688 -6,6 0,3.312 2.688,6 6,6 3.312,0 6,-2.688 6,-6"
       style="fill:none;stroke:#ffffff;stroke-width:0.5;stroke-linecap:butt;stroke-linejoin:miter;stroke-miterlimit:10;stroke-dasharray:none;stroke-opacity:1"
       id="path4579"
       inkscape:connector-curvature="0" /></g></svg>