<?xml version="1.0" encoding="UTF-8" standalone="no"?>
<!-- Created with Inkscape (http://www.inkscape.org/) -->

<svg
   xmlns:dc="http://purl.org/dc/elements/1.1/"
   xmlns:cc="http://creativecommons.org/ns#"
   xmlns:rdf="http://www.w3.org/1999/02/22-rdf-syntax-ns#"
   xmlns:svg="http://www.w3.org/2000/svg"
   xmlns="http://www.w3.org/2000/svg"
   xmlns:sodipodi="http://sodipodi.sourceforge.net/DTD/sodipodi-0.dtd"
   xmlns:inkscape="http://www.inkscape.org/namespaces/inkscape"
   width="67.713364mm"
   height="76.34478mm"
   viewBox="0 0 239.92924 270.513"
   id="svg3847"
   version="1.1"
   inkscape:version="0.91 r13725"
   sodipodi:docname="fig-9-invest.svg">
  <defs
     id="defs3849">
    <clipPath
       clipPathUnits="userSpaceOnUse"
       id="clipPath3733">
      <path
         d="m 202.66,397.33 196.67,0 0,-219.17 -196.67,0 0,219.17 z"
         id="path3735"
         inkscape:connector-curvature="0"
         style="clip-rule:evenodd" />
    </clipPath>
    <clipPath
       clipPathUnits="userSpaceOnUse"
       id="clipPath3739">
      <path
         d="m 17,757 578,0 0,-722 -578,0 0,722 z"
         id="path3741"
         inkscape:connector-curvature="0" />
    </clipPath>
    <clipPath
       clipPathUnits="userSpaceOnUse"
       id="clipPath3745">
      <path
         d="m 0,792.06 612,0 0,-792 -612,0 0,792 z"
         id="path3747"
         inkscape:connector-curvature="0" />
    </clipPath>
  </defs>
  <sodipodi:namedview
     id="base"
     pagecolor="#ffffff"
     bordercolor="#666666"
     borderopacity="1.0"
     inkscape:pageopacity="0.0"
     inkscape:pageshadow="2"
     inkscape:zoom="1.979899"
     inkscape:cx="291.25034"
     inkscape:cy="203.81349"
     inkscape:document-units="px"
     inkscape:current-layer="g3743"
     showgrid="false"
     fit-margin-top="0"
     fit-margin-left="0"
     fit-margin-right="0"
     fit-margin-bottom="0"
     inkscape:window-width="1366"
     inkscape:window-height="715"
     inkscape:window-x="0"
     inkscape:window-y="0"
     inkscape:window-maximized="1" />
  <metadata
     id="metadata3852">
    <rdf:RDF>
      <cc:Work
         rdf:about="">
        <dc:format>image/svg+xml</dc:format>
        <dc:type
           rdf:resource="http://purl.org/dc/dcmitype/StillImage" />
        <dc:title></dc:title>
      </cc:Work>
    </rdf:RDF>
  </metadata>
  <g
     inkscape:label="Layer 1"
     inkscape:groupmode="layer"
     id="layer1"
     transform="translate(-83.749665,-182.81999)">
    <g
       transform="matrix(1.25,0,0,-1.25,-170.31396,678.52949)"
       id="g3729">
      <g
         id="g3731"
         clip-path="url(#clipPath3733)">
        <g
           id="g3737"
           clip-path="url(#clipPath3739)">
          <g
             id="g3743"
             clip-path="url(#clipPath3745)">
            <path
               d="m 229.838,378.342 150.208,0 0,-174.584 -150.208,0 0,174.584 z M 242.4,203.74 l 0,174.667 m 12.513,-174.667 0,174.667 m 12.515,-174.667 0,174.667 m 12.513,-174.667 0,174.667 m 12.516,-174.667 0,174.667 m 12.513,-174.667 0,174.667 m 12.513,-174.667 0,174.667 m 12.515,-174.667 0,174.667 m 12.514,-174.667 0,174.667 m 12.515,-174.667 0,174.667 m 12.513,-174.667 0,174.667"
               style="fill:none;stroke:#3a6abc;stroke-width:0.5;stroke-linecap:butt;stroke-linejoin:miter;stroke-miterlimit:4;stroke-dasharray:none;stroke-opacity:1"
               id="path3749"
               inkscape:connector-curvature="0" />
            <text
               transform="matrix(1,0,0,-1,226.8043,390.5736)"
               style="font-style:italic;font-variant:normal;font-size:9px;font-family:Times;-inkscape-font-specification:Times-Italic;writing-mode:lr-tb;fill:#231f20;fill-opacity:1;fill-rule:nonzero;stroke:none"
               id="text3751">
              <tspan
                 x="0"
                 y="0"
                 id="tspan3753">G</tspan>
              <tspan
                 x="164.12399"
                 y="189.2916"
                 id="tspan3755">n</tspan>
            </text>
            <text
               transform="matrix(1,0,0,-1,217.7125,375.3834)"
               style="font-variant:normal;font-weight:normal;font-size:9px;font-family:Times;-inkscape-font-specification:Times-Roman;writing-mode:lr-tb;fill:#231f20;fill-opacity:1;fill-rule:nonzero;stroke:none"
               id="text3757">
              <tspan
                 x="0 4.5"
                 y="0"
                 sodipodi:role="line"
                 id="tspan3759">70</tspan>
              <tspan
                 x="0 4.5"
                 y="24.8337"
                 sodipodi:role="line"
                 id="tspan3761">60</tspan>
              <tspan
                 x="0 4.5"
                 y="49.6674"
                 sodipodi:role="line"
                 id="tspan3763">50</tspan>
              <tspan
                 x="0 4.5"
                 y="74.501099"
                 sodipodi:role="line"
                 id="tspan3765">40</tspan>
              <tspan
                 x="0 4.5"
                 y="99.334801"
                 sodipodi:role="line"
                 id="tspan3767">30</tspan>
              <tspan
                 x="0 4.5"
                 y="124.1685"
                 sodipodi:role="line"
                 id="tspan3769">20</tspan>
              <tspan
                 x="0 4.5"
                 y="149.0022"
                 sodipodi:role="line"
                 id="tspan3771">10</tspan>
              <tspan
                 x="132.87511 137.37511 72.500397"
                 y="181.1268"
                 sodipodi:role="line"
                 id="tspan3773">105</tspan>
              <tspan
                 x="56.507401 63.005402 67.505402 74.507401 79.007401 83.003403 86.000397 88.250397 92.750397 95.747398 97.997398 100.4994 104.4954 108.4914 115.4934"
                 y="195.1272"
                 sodipodi:role="line"
                 id="tspan3775">Number of teams</tspan>
            </text>
            <text
               transform="matrix(0,1,1,0,209.3979,259.7561)"
               style="font-variant:normal;font-weight:normal;font-size:9px;font-family:Times;-inkscape-font-specification:Times-Roman;writing-mode:lr-tb;fill:#231f20;fill-opacity:1;fill-rule:nonzero;stroke:none"
               id="text3777">
              <tspan
                 x="0 6.4980001 10.998 18 22.5 26.496 29.493 31.743 36.243 39.240002 41.490002 45.990002"
                 y="0"
                 sodipodi:role="line"
                 id="tspan3779">Number of games</tspan>
            </text>
            <path
               d="m 229.887,365.931 150.166,0 m -150.166,-12.476 150.166,0 m -150.166,-12.475 150.166,0 m -150.166,-12.476 150.166,0 m -150.166,-12.479 150.166,0 m -150.166,-12.475 150.166,0 m -150.166,-12.476 150.166,0 m -150.166,-12.476 150.166,0 m -150.166,-12.476 150.166,0 m -150.166,-12.478 150.166,0 m -150.166,-12.476 150.166,0 m -150.166,-12.476 150.166,0 m -150.166,-12.476 150.166,0"
               style="fill:none;stroke:#3a6abc;stroke-width:0.5;stroke-linecap:butt;stroke-linejoin:miter;stroke-miterlimit:4;stroke-dasharray:none;stroke-opacity:1"
               id="path3781"
               inkscape:connector-curvature="0" />
            <path
               d="m 386.053,203.74 -156.166,0 0,180.667"
               style="fill:none;stroke:#231f20;stroke-width:0.69999999;stroke-linecap:butt;stroke-linejoin:miter;stroke-miterlimit:4;stroke-dasharray:none;stroke-opacity:1"
               id="path3783"
               inkscape:connector-curvature="0" />
            <path
               d="m 229.887,387.373 1.707,-4.179 -1.707,0.991 -1.707,-0.991 1.707,4.179"
               style="fill:#231f20;fill-opacity:1;fill-rule:nonzero;stroke:none"
               id="path3785"
               inkscape:connector-curvature="0" />
            <path
               d="m 389.019,203.74 -4.179,-1.707 0.991,1.707 -0.991,1.708 4.179,-1.708"
               style="fill:#231f20;fill-opacity:1;fill-rule:nonzero;stroke:none"
               id="path3787"
               inkscape:connector-curvature="0" />
          </g>
        </g>
      </g>
    </g>
  </g>
</svg>
