<?xml version="1.0" encoding="UTF-8" standalone="no"?>
<!-- Created with Inkscape (http://www.inkscape.org/) -->

<svg
   xmlns:dc="http://purl.org/dc/elements/1.1/"
   xmlns:cc="http://creativecommons.org/ns#"
   xmlns:rdf="http://www.w3.org/1999/02/22-rdf-syntax-ns#"
   xmlns:svg="http://www.w3.org/2000/svg"
   xmlns="http://www.w3.org/2000/svg"
   xmlns:sodipodi="http://sodipodi.sourceforge.net/DTD/sodipodi-0.dtd"
   xmlns:inkscape="http://www.inkscape.org/namespaces/inkscape"
   width="47.676296mm"
   height="48.949932mm"
   viewBox="0 0 168.93176 173.44464"
   id="svg5111"
   version="1.1"
   inkscape:version="0.91 r13725"
   sodipodi:docname="fig-quadratic-inequality.svg">
  <defs
     id="defs5113">
    <clipPath
       clipPathUnits="userSpaceOnUse"
       id="clipPath4798">
      <path
         d="m 448.83,259.01 140.67,0 0,-141.77 -140.67,0 0,141.77 z"
         id="path4800"
         inkscape:connector-curvature="0"
         style="clip-rule:evenodd" />
    </clipPath>
  </defs>
  <sodipodi:namedview
     id="base"
     pagecolor="#ffffff"
     bordercolor="#666666"
     borderopacity="1.0"
     inkscape:pageopacity="0.0"
     inkscape:pageshadow="2"
     inkscape:zoom="2.8"
     inkscape:cx="84.46588"
     inkscape:cy="86.722315"
     inkscape:document-units="px"
     inkscape:current-layer="layer1"
     showgrid="false"
     fit-margin-top="0"
     fit-margin-left="0"
     fit-margin-right="0"
     fit-margin-bottom="0"
     inkscape:window-width="1366"
     inkscape:window-height="715"
     inkscape:window-x="0"
     inkscape:window-y="0"
     inkscape:window-maximized="1" />
  <metadata
     id="metadata5116">
    <rdf:RDF>
      <cc:Work
         rdf:about="">
        <dc:format>image/svg+xml</dc:format>
        <dc:type
           rdf:resource="http://purl.org/dc/dcmitype/StillImage" />
        <dc:title></dc:title>
      </cc:Work>
    </rdf:RDF>
  </metadata>
  <g
     inkscape:label="Layer 1"
     inkscape:groupmode="layer"
     id="layer1"
     transform="translate(-290.53412,-445.63989)">
    <path
       d="m 299.74851,469.36202 0,149.50375 m 11.50125,-149.50375 0,149.50375 m 11.5,-149.50375 0,149.50375 m 11.5,-149.50375 0,149.50375 m 11.5,-149.50375 0,149.50375 m 11.5,-149.50375 0,149.50375 m 11.50125,-149.50375 0,149.50375 m 11.5,-149.50375 0,149.50375 m 11.5,-149.50375 0,149.50375 m 11.5,-149.50375 0,149.50375 m 11.50125,-149.50375 0,149.50375 m 11.49875,-149.50375 0,149.50375 m 11.50125,-149.50375 0,149.50375 m -138.00375,0 138.00375,0 m -138.00375,-11.49875 138.00375,0 m -138.00375,-11.50125 138.00375,0 m -138.00375,-11.5 138.00375,0 m -138.00375,-11.50125 138.00375,0 m -138.00375,-11.49875 138.00375,0 m -138.00375,-11.50125 138.00375,0 m -138.00375,-11.49875 138.00375,0 m -138.00375,-11.5025 138.00375,0 m -138.00375,-11.50125 138.00375,0 m -138.00375,-11.49875 138.00375,0 m -138.00375,-11.50125 138.00375,0 m -138.00375,-11.49875 138.00375,0 m -138.00375,-11.50125 138.00375,0"
       style="fill:none;stroke:#b3b3b3;stroke-width:0.4375;stroke-linecap:butt;stroke-linejoin:miter;stroke-miterlimit:4;stroke-dasharray:none;stroke-opacity:1"
       id="path4784"
       inkscape:connector-curvature="0" />
    <path
       d="m 299.74851,515.36202 146.795,0"
       style="fill:none;stroke:#000000;stroke-width:0.875;stroke-linecap:butt;stroke-linejoin:miter;stroke-miterlimit:4;stroke-dasharray:none;stroke-opacity:1"
       id="path4786"
       inkscape:connector-curvature="0" />
    <path
       d="m 450.25226,515.36202 -5.22375,2.13375 1.24,-2.13375 -1.24,-2.13375 5.22375,2.13375"
       style="fill:#000000;fill-opacity:1;fill-rule:nonzero;stroke:none"
       id="path4788"
       inkscape:connector-curvature="0" />
    <text
       y="518.14453"
       x="454.43713"
       style="font-style:italic;font-variant:normal;font-size:11.25px;font-family:Times;-inkscape-font-specification:Times-Italic;writing-mode:lr-tb;fill:#231f20;fill-opacity:1;fill-rule:nonzero;stroke:none"
       id="text4790">
      <tspan
         x="454.43713"
         y="518.14453"
         id="tspan4792">x</tspan>
    </text>
    <g
       transform="matrix(1.25,0,0,-1.25,-271.65649,766.69077)"
       id="g4794">
      <g
         id="g4796"
         clip-path="url(#clipPath4798)">
        <path
           d="m 503.125,118.26 0,126.638"
           style="fill:none;stroke:#000000;stroke-width:0.69999999;stroke-linecap:butt;stroke-linejoin:miter;stroke-miterlimit:4;stroke-dasharray:none;stroke-opacity:1"
           id="path4802"
           inkscape:connector-curvature="0" />
      </g>
    </g>
    <path
       d="m 357.24976,456.86202 2.13375,5.22375 -2.13375,-1.24 -2.13375,1.24 2.13375,-5.22375"
       style="fill:#000000;fill-opacity:1;fill-rule:nonzero;stroke:none"
       id="path4804"
       inkscape:connector-curvature="0" />
    <text
       y="450.60114"
       x="354.75287"
       style="font-style:italic;font-variant:normal;font-size:11.25px;font-family:Times;-inkscape-font-specification:Times-Italic;writing-mode:lr-tb;fill:#231f20;fill-opacity:1;fill-rule:nonzero;stroke:none"
       id="text4806">
      <tspan
         x="354.75287"
         y="450.60114"
         id="tspan4808">y</tspan>
    </text>
    <path
       d="m 297.29726,517.95202 5.88125,0 0,10.28125 -5.88125,0 0,-10.28125 z"
       style="fill:#ffffff;fill-opacity:1;fill-rule:nonzero;stroke:none"
       id="path4810"
       inkscape:connector-curvature="0" />
    <path
       d="m 387.82476,518.38702 7.00125,0 0,9.53125 -7.00125,0 0,-9.53125 z"
       style="fill:#ffffff;fill-opacity:1;fill-rule:nonzero;stroke:none"
       id="path4812"
       inkscape:connector-curvature="0" />
    <text
       y="526.98224"
       x="388.81525"
       style="font-variant:normal;font-weight:normal;font-size:11.25px;font-family:Times;-inkscape-font-specification:Times-Roman;writing-mode:lr-tb;fill:#231f20;fill-opacity:1;fill-rule:nonzero;stroke:none"
       id="text4814">
      <tspan
         x="388.81525"
         y="526.98224"
         id="tspan4816">3</tspan>
    </text>
    <text
       y="526.98224"
       x="290.41037"
       style="font-variant:normal;font-weight:normal;font-size:11.25px;font-family:Symbol;-inkscape-font-specification:Symbol;writing-mode:lr-tb;fill:#231f20;fill-opacity:1;fill-rule:nonzero;stroke:none"
       id="text4818">
      <tspan
         x="290.41037"
         y="526.98224"
         id="tspan4820">−</tspan>
    </text>
    <text
       y="526.98224"
       x="296.58664"
       style="font-variant:normal;font-weight:normal;font-size:11.25px;font-family:Times;-inkscape-font-specification:Times-Roman;writing-mode:lr-tb;fill:#231f20;fill-opacity:1;fill-rule:nonzero;stroke:none"
       id="text4822">
      <tspan
         x="296.58664"
         y="526.98224"
         id="tspan4824">5</tspan>
    </text>
    <path
       d="m 324.22351,517.95202 13.91,0 0,10.28125 -13.91,0 0,-10.28125 z"
       style="fill:#ffffff;fill-opacity:1;fill-rule:nonzero;stroke:none"
       id="path4826"
       inkscape:connector-curvature="0" />
    <text
       y="526.98224"
       x="325.36575"
       style="font-variant:normal;font-weight:normal;font-size:11.25px;font-family:Symbol;-inkscape-font-specification:Symbol;writing-mode:lr-tb;fill:#231f20;fill-opacity:1;fill-rule:nonzero;stroke:none"
       id="text4828">
      <tspan
         x="325.36575"
         y="526.98224"
         id="tspan4830">−</tspan>
    </text>
    <text
       y="526.98224"
       x="331.54199"
       style="font-variant:normal;font-weight:normal;font-size:11.25px;font-family:Times;-inkscape-font-specification:Times-Roman;writing-mode:lr-tb;fill:#231f20;fill-opacity:1;fill-rule:nonzero;stroke:none"
       id="text4832">
      <tspan
         x="331.54199"
         y="526.98224"
         id="tspan4834">2</tspan>
    </text>
    <path
       d="m 415.29101,515.36327 c -10.12125,40.31 -27.1475,92.00375 -46.54,92.00375"
       style="fill:none;stroke:#ef2f2c;stroke-width:1.5;stroke-linecap:butt;stroke-linejoin:miter;stroke-miterlimit:4;stroke-dasharray:none;stroke-opacity:1"
       id="path4836"
       inkscape:connector-curvature="0" />
    <path
       d="m 424.20226,474.44577 c -1.41875,8.04375 -4.51375,23.4075 -8.91125,40.9175"
       style="fill:none;stroke:#2056ae;stroke-width:1.5;stroke-linecap:butt;stroke-linejoin:miter;stroke-miterlimit:4;stroke-dasharray:none;stroke-opacity:1"
       id="path4838"
       inkscape:connector-curvature="0" />
    <path
       d="m 425.12351,469.23077 1.705,7.87875 -2.69375,-2.27375 -3.31125,1.21375 4.3,-6.81875"
       style="fill:#2056ae;fill-opacity:1;fill-rule:nonzero;stroke:none"
       id="path4840"
       inkscape:connector-curvature="0" />
    <path
       d="m 322.20976,515.36327 c 10.1225,40.31 27.1475,92.00375 46.54125,92.00375"
       style="fill:none;stroke:#ef2f2c;stroke-width:1.5;stroke-linecap:butt;stroke-linejoin:miter;stroke-miterlimit:4;stroke-dasharray:none;stroke-opacity:1"
       id="path4842"
       inkscape:connector-curvature="0" />
    <path
       d="m 313.29976,474.44577 c 1.41875,8.04375 4.51375,23.4075 8.91,40.9175"
       style="fill:none;stroke:#2056ae;stroke-width:1.5;stroke-linecap:butt;stroke-linejoin:miter;stroke-miterlimit:4;stroke-dasharray:none;stroke-opacity:1"
       id="path4844"
       inkscape:connector-curvature="0" />
    <path
       d="m 312.37851,469.23077 4.3,6.81875 -3.31,-1.21375 -2.695,2.27375 1.705,-7.87875"
       style="fill:#2056ae;fill-opacity:1;fill-rule:nonzero;stroke:none"
       id="path4846"
       inkscape:connector-curvature="0" />
    <path
       d="m 335.03726,602.30702 19.725,0 0,10.435 -19.725,0 0,-10.435 z"
       style="fill:#ffffff;fill-opacity:1;fill-rule:nonzero;stroke:none"
       id="path4848"
       inkscape:connector-curvature="0" />
    <text
       y="611.19238"
       x="336.38586"
       style="font-variant:normal;font-weight:normal;font-size:11.25px;font-family:Symbol;-inkscape-font-specification:Symbol;writing-mode:lr-tb;fill:#231f20;fill-opacity:1;fill-rule:nonzero;stroke:none"
       id="text4850">
      <tspan
         x="336.38586"
         y="611.19238"
         id="tspan4852">−</tspan>
    </text>
    <text
       y="611.19238"
       x="342.56213"
       style="font-variant:normal;font-weight:normal;font-size:11.25px;font-family:Times;-inkscape-font-specification:Times-Roman;writing-mode:lr-tb;fill:#231f20;fill-opacity:1;fill-rule:nonzero;stroke:none"
       id="text4854">
      <tspan
         x="342.56213 348.18713"
         y="611.19238"
         sodipodi:role="line"
         id="tspan4856">16</tspan>
    </text>
    <path
       d="m 340.92851,533.24702 13.855,0 0,10.19375 -13.855,0 0,-10.19375 z"
       style="fill:#ffffff;fill-opacity:1;fill-rule:nonzero;stroke:none"
       id="path4858"
       inkscape:connector-curvature="0" />
    <text
       y="542.19049"
       x="342.01086"
       style="font-variant:normal;font-weight:normal;font-size:11.25px;font-family:Symbol;-inkscape-font-specification:Symbol;writing-mode:lr-tb;fill:#231f20;fill-opacity:1;fill-rule:nonzero;stroke:none"
       id="text4860">
      <tspan
         x="342.01086"
         y="542.19049"
         id="tspan4862">−</tspan>
    </text>
    <text
       y="542.19049"
       x="348.18713"
       style="font-variant:normal;font-weight:normal;font-size:11.25px;font-family:Times;-inkscape-font-specification:Times-Roman;writing-mode:lr-tb;fill:#231f20;fill-opacity:1;fill-rule:nonzero;stroke:none"
       id="text4864">
      <tspan
         x="348.18713"
         y="542.19049"
         id="tspan4866">4</tspan>
    </text>
    <path
       d="m 417.79101,515.36327 c 0,1.38 -1.11875,2.5 -2.5,2.5 -1.38,0 -2.5,-1.12 -2.5,-2.5 0,-1.38125 1.12,-2.5 2.5,-2.5 1.38125,0 2.5,1.11875 2.5,2.5"
       style="fill:#ef2f2c;fill-opacity:1;fill-rule:nonzero;stroke:none"
       id="path4868"
       inkscape:connector-curvature="0" />
    <path
       d="m 324.70976,515.36327 c 0,1.38 -1.11875,2.5 -2.5,2.5 -1.38,0 -2.5,-1.12 -2.5,-2.5 0,-1.38125 1.12,-2.5 2.5,-2.5 1.38125,0 2.5,1.11875 2.5,2.5"
       style="fill:#ef2f2c;fill-opacity:1;fill-rule:nonzero;stroke:none"
       id="path4870"
       inkscape:connector-curvature="0" />
    <path
       d="m 346.97726,487.44452 7.72125,0 0,8.89375 -7.72125,0 0,-8.89375 z"
       style="fill:#ffffff;fill-opacity:1;fill-rule:nonzero;stroke:none"
       id="path4872"
       inkscape:connector-curvature="0" />
    <text
       y="496.33902"
       x="348.18713"
       style="font-variant:normal;font-weight:normal;font-size:11.25px;font-family:Times;-inkscape-font-specification:Times-Roman;writing-mode:lr-tb;fill:#231f20;fill-opacity:1;fill-rule:nonzero;stroke:none"
       id="text4874">
      <tspan
         x="348.18713"
         y="496.33902"
         id="tspan4876">4</tspan>
    </text>
  </g>
</svg>
