<?xml version="1.0" encoding="UTF-8" standalone="no"?>
<svg
   xmlns:dc="http://purl.org/dc/elements/1.1/"
   xmlns:cc="http://creativecommons.org/ns#"
   xmlns:rdf="http://www.w3.org/1999/02/22-rdf-syntax-ns#"
   xmlns:svg="http://www.w3.org/2000/svg"
   xmlns="http://www.w3.org/2000/svg"
   version="1.1"
   id="svg5376"
   viewBox="0 0 125.13737 128.6665"
   height="36.312546mm"
   width="35.316547mm">
  <defs
     id="defs5378">
    <clipPath
       id="clipPath4448"
       clipPathUnits="userSpaceOnUse">
      <path
         style="clip-rule:evenodd"
         id="path4450"
         d="m 125.3,575.64 101,0 0,-108 -101,0 0,108 z" />
    </clipPath>
    <clipPath
       id="clipPath4454"
       clipPathUnits="userSpaceOnUse">
      <path
         id="path4456"
         d="m 28,776 640,0 0,-748 -640,0 0,748 z" />
    </clipPath>
    <clipPath
       id="clipPath4460"
       clipPathUnits="userSpaceOnUse">
      <path
         id="path4462"
         d="m 0,804.015 696,0 0,-804 -696,0 0,804 z" />
    </clipPath>
  </defs>
  <metadata
     id="metadata5381">
    <rdf:RDF>
      <cc:Work
         rdf:about="">
        <dc:format>image/svg+xml</dc:format>
        <dc:type
           rdf:resource="http://purl.org/dc/dcmitype/StillImage" />
        <dc:title></dc:title>
      </cc:Work>
    </rdf:RDF>
  </metadata>
  <g
     transform="translate(133.99726,-393.74325)"
     id="layer1">
    <g
       id="g4444"
       transform="matrix(1.25,0,0,-1.25,-291.00976,1108.0635)">
      <g
         clip-path="url(#clipPath4448)"
         id="g4446">
        <g
           clip-path="url(#clipPath4454)"
           id="g4452">
          <g
             clip-path="url(#clipPath4460)"
             id="g4458">
            <path
               id="path4464"
               style="fill:none;stroke:#bdbcbc;stroke-width:0.34999999;stroke-linecap:butt;stroke-linejoin:miter;stroke-miterlimit:4;stroke-dasharray:none;stroke-opacity:1"
               d="m 125.785,552.7 0,-82.644 m 9.185,82.644 0,-82.644 m 9.185,82.644 0,-82.644 m 9.185,82.644 0,-82.644 m 9.185,82.644 0,-82.644 m 9.185,82.644 0,-82.644 m 9.186,82.644 0,-82.644 m 9.185,82.644 0,-82.644 m 9.186,82.644 0,-82.644 m 9.185,82.644 0,-82.644 m -82.667,0 82.667,0 m -82.667,9.183 82.667,0 m -82.667,9.182 82.667,0 m -82.667,9.183 82.667,0 m -82.667,9.183 82.667,0 m -82.667,9.182 82.667,0 m -82.667,9.183 82.667,0 m -82.667,9.182 82.667,0 m -82.667,9.183 82.667,0 m -82.667,9.183 82.667,0" />
            <path
               id="path4466"
               style="fill:none;stroke:#231f20;stroke-width:0.69999999;stroke-linecap:butt;stroke-linejoin:miter;stroke-miterlimit:4;stroke-dasharray:none;stroke-opacity:1"
               d="m 144.155,559.734 0,-89.678" />
            <path
               id="path4468"
               style="fill:#231f20;fill-opacity:1;fill-rule:nonzero;stroke:none"
               d="m 144.155,562.7 1.707,-4.179 -1.707,0.992 -1.707,-0.992 1.707,4.179" />
            <path
               id="path4470"
               style="fill:none;stroke:#231f20;stroke-width:0.69999999;stroke-linecap:butt;stroke-linejoin:miter;stroke-miterlimit:4;stroke-dasharray:none;stroke-opacity:1"
               d="m 125.785,479.239 89.701,0" />
            <path
               id="path4472"
               style="fill:#231f20;fill-opacity:1;fill-rule:nonzero;stroke:none"
               d="m 218.452,479.239 -4.179,-1.707 0.992,1.707 -0.992,1.707 4.179,-1.707" />
            <path
               id="path4474"
               style="fill:none;stroke:#ef2f2c;stroke-width:1.20000005;stroke-linecap:butt;stroke-linejoin:miter;stroke-miterlimit:4;stroke-dasharray:none;stroke-opacity:1"
               d="m 130.705,548.516 c 0.223,-10.766 1.923,-39.385 13.45,-50.912 12.417,-12.417 47.866,-13.92 60.335,-14.101" />
            <path
               id="path4476"
               style="fill:#ef2f2c;fill-opacity:1;fill-rule:nonzero;stroke:none"
               d="m 208.528,483.512 -5.97,-2.439 1.417,2.439 -1.417,2.438 5.97,-2.438" />
            <path
               id="path4478"
               style="fill:#ef2f2c;fill-opacity:1;fill-rule:nonzero;stroke:none"
               d="m 130.773,552.707 2.312,-6.02 -2.409,1.469 -2.467,-1.366 2.564,5.917" />
            <text
               id="text4480"
               style="font-style:italic;font-variant:normal;font-size:9px;font-family:Times;-inkscape-font-specification:Times-Italic;writing-mode:lr-tb;fill:#231f20;fill-opacity:1;fill-rule:nonzero;stroke:none"
               transform="matrix(1,0,0,-1,142.1576,567.4872)">
              <tspan
                 id="tspan4482"
                 y="0"
                 x="0">y</tspan>
              <tspan
                 id="tspan4484"
                 y="90.245697"
                 x="79.539299">x</tspan>
            </text>
            <path
               id="path4486"
               style="fill:#ffffff;fill-opacity:1;fill-rule:nonzero;stroke:none"
               d="m 136.078,529.32 5.694,0 0,-8.441 -5.694,0 0,8.441 z" />
            <text
               id="text4488"
               style="font-variant:normal;font-weight:normal;font-size:9px;font-family:Times;-inkscape-font-specification:Times-Roman;writing-mode:lr-tb;fill:#231f20;fill-opacity:1;fill-rule:nonzero;stroke:none"
               transform="matrix(1,0,0,-1,136.8264,522.0921)">
              <tspan
                 id="tspan4490"
                 y="0"
                 x="0">5</tspan>
            </text>
            <path
               id="path4492"
               style="fill:#ffffff;fill-opacity:1;fill-rule:nonzero;stroke:none"
               d="m 187.037,476.857 6.141,0 0,-8.334 -6.141,0 0,8.334 z" />
            <text
               id="text4494"
               style="font-variant:normal;font-weight:normal;font-size:9px;font-family:Times;-inkscape-font-specification:Times-Roman;writing-mode:lr-tb;fill:#231f20;fill-opacity:1;fill-rule:nonzero;stroke:none"
               transform="matrix(1,0,0,-1,188.0852,469.6478)">
              <tspan
                 id="tspan4496"
                 y="0"
                 x="0">5</tspan>
            </text>
            <path
               id="path4498"
               style="fill:none;stroke:#2056ae;stroke-width:1.20000005;stroke-linecap:butt;stroke-linejoin:miter;stroke-miterlimit:4;stroke-dasharray:none;stroke-opacity:1"
               d="m 144.155,497.604 55.112,-13.968" />
            <path
               id="path4500"
               style="fill:#2056ae;fill-opacity:1;fill-rule:nonzero;stroke:none"
               d="m 201.267,483.636 c 0,-1.105 -0.897,-2 -2,-2 -1.106,0 -2,0.895 -2,2 0,1.104 0.894,2 2,2 1.103,0 2,-0.896 2,-2" />
            <path
               id="path4502"
               style="fill:#2056ae;fill-opacity:1;fill-rule:nonzero;stroke:none"
               d="m 146.155,497.604 c 0,-1.106 -0.897,-2 -2,-2 -1.105,0 -2,0.894 -2,2 0,1.103 0.895,2 2,2 1.103,0 2,-0.897 2,-2" />
          </g>
        </g>
      </g>
    </g>
  </g>
</svg>
