<?xml version="1.0" encoding="UTF-8" standalone="no"?>
<!-- Created with Inkscape (http://www.inkscape.org/) -->

<svg
   xmlns:dc="http://purl.org/dc/elements/1.1/"
   xmlns:cc="http://creativecommons.org/ns#"
   xmlns:rdf="http://www.w3.org/1999/02/22-rdf-syntax-ns#"
   xmlns:svg="http://www.w3.org/2000/svg"
   xmlns="http://www.w3.org/2000/svg"
   xmlns:sodipodi="http://sodipodi.sourceforge.net/DTD/sodipodi-0.dtd"
   xmlns:inkscape="http://www.inkscape.org/namespaces/inkscape"
   width="28.147011mm"
   height="21.7551mm"
   viewBox="0 0 99.733503 77.085001"
   id="svg4445"
   version="1.1"
   inkscape:version="0.91 r13725"
   sodipodi:docname="fig-ans-6-3-11.svg">
  <defs
     id="defs4447">
    <clipPath
       clipPathUnits="userSpaceOnUse"
       id="clipPath4150">
      <path
         d="m 367.94,293.48 81,0 0,-67 -81,0 0,67 z"
         id="path4152"
         inkscape:connector-curvature="0"
         style="clip-rule:evenodd" />
    </clipPath>
    <clipPath
       clipPathUnits="userSpaceOnUse"
       id="clipPath4156">
      <path
         d="m 28,776 640,0 0,-748 -640,0 0,748 z"
         id="path4158"
         inkscape:connector-curvature="0" />
    </clipPath>
    <clipPath
       clipPathUnits="userSpaceOnUse"
       id="clipPath4162">
      <path
         d="m 0,804.015 696,0 0,-804 -696,0 0,804 z"
         id="path4164"
         inkscape:connector-curvature="0" />
    </clipPath>
  </defs>
  <sodipodi:namedview
     id="base"
     pagecolor="#ffffff"
     bordercolor="#666666"
     borderopacity="1.0"
     inkscape:pageopacity="0.0"
     inkscape:pageshadow="2"
     inkscape:zoom="2.8"
     inkscape:cx="49.86675"
     inkscape:cy="38.542501"
     inkscape:document-units="px"
     inkscape:current-layer="layer1"
     showgrid="false"
     fit-margin-top="0"
     fit-margin-left="0"
     fit-margin-right="0"
     fit-margin-bottom="0"
     inkscape:window-width="1366"
     inkscape:window-height="715"
     inkscape:window-x="0"
     inkscape:window-y="0"
     inkscape:window-maximized="1" />
  <metadata
     id="metadata4450">
    <rdf:RDF>
      <cc:Work
         rdf:about="">
        <dc:format>image/svg+xml</dc:format>
        <dc:type
           rdf:resource="http://purl.org/dc/dcmitype/StillImage" />
        <dc:title></dc:title>
      </cc:Work>
    </rdf:RDF>
  </metadata>
  <g
     inkscape:label="Layer 1"
     inkscape:groupmode="layer"
     id="layer1"
     transform="translate(-325.13325,-493.81971)">
    <g
       transform="matrix(1.25,0,0,-1.25,-136.08875,857.18633)"
       id="g4146">
      <g
         id="g4148"
         clip-path="url(#clipPath4150)">
        <g
           id="g4154"
           clip-path="url(#clipPath4156)">
          <g
             id="g4160"
             clip-path="url(#clipPath4162)">
            <path
               d="m 376.268,271.68 55.201,0 0,-33.121 -55.201,0 0,33.121 z m 44.161,0 0,-33.121 m -11.04,33.121 0,-33.121 m -11.04,33.121 0,-33.121 m -11.041,33.121 0,-33.121 m -11.04,22.081 55.201,0 m -55.201,-11.041 55.201,0"
               style="fill:none;stroke:#bdbcbc;stroke-width:0.34999999;stroke-linecap:butt;stroke-linejoin:miter;stroke-miterlimit:4;stroke-dasharray:none;stroke-opacity:1"
               id="path4166"
               inkscape:connector-curvature="0" />
            <path
               d="m 429.462,242.457 c -4.363,8.305 -13.555,23.822 -25.604,23.921 l 0.053,0 c -11.892,-0.074 -21.326,-15.546 -25.757,-23.921"
               style="fill:none;stroke:#ef2f2c;stroke-width:1.20000005;stroke-linecap:butt;stroke-linejoin:miter;stroke-miterlimit:4;stroke-dasharray:none;stroke-opacity:1"
               id="path4168"
               inkscape:connector-curvature="0" />
            <path
               d="m 376.172,238.713 0.637,6.417 1.493,-2.392 2.818,0.111 -4.948,-4.136"
               style="fill:#ef2f2c;fill-opacity:1;fill-rule:nonzero;stroke:none"
               id="path4170"
               inkscape:connector-curvature="0" />
            <path
               d="m 431.432,238.707 -4.935,4.151 2.818,-0.12 1.5,2.388 0.617,-6.419"
               style="fill:#ef2f2c;fill-opacity:1;fill-rule:nonzero;stroke:none"
               id="path4172"
               inkscape:connector-curvature="0" />
            <text
               transform="matrix(1,0,0,-1,368.7076,257.5796)"
               style="font-variant:normal;font-weight:normal;font-size:9px;font-family:Times;-inkscape-font-specification:Times-Roman;writing-mode:lr-tb;fill:#231f20;fill-opacity:1;fill-rule:nonzero;stroke:none"
               id="text4174">
              <tspan
                 x="0"
                 y="0"
                 id="tspan4176">2</tspan>
              <tspan
                 x="16.3503 27.3906 38.430901 49.471199 60.719398"
                 y="28.428301"
                 sodipodi:role="line"
                 id="tspan4178">12345</tspan>
            </text>
            <text
               transform="matrix(1,0,0,-1,444.7414,236.5412)"
               style="font-style:italic;font-variant:normal;font-size:9px;font-family:Times;-inkscape-font-specification:Times-Italic;writing-mode:lr-tb;fill:#231f20;fill-opacity:1;fill-rule:nonzero;stroke:none"
               id="text4180">
              <tspan
                 x="0"
                 y="0"
                 id="tspan4182">x</tspan>
              <tspan
                 x="-71.223297"
                 y="-48.140099"
                 id="tspan4184">A</tspan>
            </text>
            <path
               d="m 438.504,238.559 -62.236,0 0,40.156"
               style="fill:none;stroke:#231f20;stroke-width:0.69999999;stroke-linecap:butt;stroke-linejoin:miter;stroke-miterlimit:4;stroke-dasharray:none;stroke-opacity:1"
               id="path4186"
               inkscape:connector-curvature="0" />
            <path
               d="m 376.268,281.68 1.707,-4.179 -1.707,0.992 -1.707,-0.992 1.707,4.179"
               style="fill:#231f20;fill-opacity:1;fill-rule:nonzero;stroke:none"
               id="path4188"
               inkscape:connector-curvature="0" />
            <path
               d="m 441.469,238.559 -4.179,-1.707 0.992,1.707 -0.992,1.707 4.179,-1.707"
               style="fill:#231f20;fill-opacity:1;fill-rule:nonzero;stroke:none"
               id="path4190"
               inkscape:connector-curvature="0" />
          </g>
        </g>
      </g>
    </g>
  </g>
</svg>
