<?xml version="1.0" encoding="UTF-8" standalone="no"?>
<!-- Created with Inkscape (http://www.inkscape.org/) -->

<svg
   xmlns:dc="http://purl.org/dc/elements/1.1/"
   xmlns:cc="http://creativecommons.org/ns#"
   xmlns:rdf="http://www.w3.org/1999/02/22-rdf-syntax-ns#"
   xmlns:svg="http://www.w3.org/2000/svg"
   xmlns="http://www.w3.org/2000/svg"
   xmlns:sodipodi="http://sodipodi.sourceforge.net/DTD/sodipodi-0.dtd"
   xmlns:inkscape="http://www.inkscape.org/namespaces/inkscape"
   width="46.850616mm"
   height="23.395306mm"
   viewBox="0 0 166.00612 82.896752"
   id="svg4537"
   version="1.1"
   inkscape:version="0.91 r13725"
   sodipodi:docname="fig-4-2-ex5ans.svg">
  <defs
     id="defs4539">
    <clipPath
       clipPathUnits="userSpaceOnUse"
       id="clipPath3844">
      <path
         d="m 405.21,585.84 135,0 0,-71.32 -135,0 0,71.32 z"
         id="path3846"
         inkscape:connector-curvature="0"
         style="clip-rule:evenodd" />
    </clipPath>
    <clipPath
       clipPathUnits="userSpaceOnUse"
       id="clipPath3850">
      <path
         d="m 28,776 640,0 0,-748 -640,0 0,748 z"
         id="path3852"
         inkscape:connector-curvature="0" />
    </clipPath>
    <clipPath
       clipPathUnits="userSpaceOnUse"
       id="clipPath3856">
      <path
         d="m 0,804.03 696,0 0,-804 -696,0 0,804 z"
         id="path3858"
         inkscape:connector-curvature="0" />
    </clipPath>
  </defs>
  <sodipodi:namedview
     id="base"
     pagecolor="#ffffff"
     bordercolor="#666666"
     borderopacity="1.0"
     inkscape:pageopacity="0.0"
     inkscape:pageshadow="2"
     inkscape:zoom="1.4"
     inkscape:cx="83.003065"
     inkscape:cy="41.448395"
     inkscape:document-units="px"
     inkscape:current-layer="layer1"
     showgrid="false"
     fit-margin-top="0"
     fit-margin-left="0"
     fit-margin-right="0"
     fit-margin-bottom="0"
     inkscape:window-width="1366"
     inkscape:window-height="715"
     inkscape:window-x="0"
     inkscape:window-y="0"
     inkscape:window-maximized="1" />
  <metadata
     id="metadata4542">
    <rdf:RDF>
      <cc:Work
         rdf:about="">
        <dc:format>image/svg+xml</dc:format>
        <dc:type
           rdf:resource="http://purl.org/dc/dcmitype/StillImage" />
        <dc:title></dc:title>
      </cc:Work>
    </rdf:RDF>
  </metadata>
  <g
     inkscape:label="Layer 1"
     inkscape:groupmode="layer"
     id="layer1"
     transform="translate(-291.99693,-490.91385)">
    <g
       transform="matrix(1.25,0,0,-1.25,-215.47869,1220.3676)"
       id="g3840">
      <g
         id="g3842"
         clip-path="url(#clipPath3844)">
        <g
           id="g3848"
           clip-path="url(#clipPath3850)">
          <g
             id="g3854"
             clip-path="url(#clipPath3856)">
            <path
               d="m 437.961,580.431 90,0 0,-60 -90,0 0,60 z"
               style="fill:#e6f7fd;fill-opacity:1;fill-rule:nonzero;stroke:none"
               id="path3860"
               inkscape:connector-curvature="0" />
            <path
               d="m 437.961,520.431 90,0 0,60 -90,0 0,-60 z m 1.646,58.342 0,-56.685"
               style="fill:none;stroke:#231f20;stroke-width:0.69999999;stroke-linecap:butt;stroke-linejoin:miter;stroke-miterlimit:4;stroke-dasharray:none;stroke-opacity:1"
               id="path3862"
               inkscape:connector-curvature="0" />
            <path
               d="m 526.303,521.995 -86.685,0"
               style="fill:none;stroke:#231f20;stroke-width:0.69999999;stroke-linecap:square;stroke-linejoin:miter;stroke-miterlimit:4;stroke-dasharray:none;stroke-opacity:1"
               id="path3864"
               inkscape:connector-curvature="0" />
            <path
               d="m 441.436,578.739 -1.778,0 m 1.778,-2.268 -1.778,0 m 1.778,-2.268 -1.778,0 m 1.778,-2.268 -1.778,0 m 1.778,-2.268 -1.778,0 m 1.778,-2.269 -1.778,0 m 1.778,-2.268 -1.778,0 m 1.778,-2.268 -1.778,0 m 1.778,-2.268 -1.778,0 m 1.778,-2.268 -1.778,0 m 1.778,-2.268 -1.778,0 m 1.778,-2.269 -1.778,0 m 1.778,-2.268 -1.778,0 m 1.778,-2.268 -1.778,0 m 1.778,-2.268 -1.778,0 m 1.778,-2.269 -1.778,0 m 1.778,-2.267 -1.778,0 m 1.778,-2.269 -1.778,0 m 1.778,-2.267 -1.778,0 m 1.778,-2.27 -1.778,0 m 1.778,-2.267 -1.778,0 m 1.778,-2.269 -1.778,0 m 1.778,-2.268 -1.778,0 m 1.778,-2.268 -1.778,0 m 1.778,-2.268 -1.778,0 m 1.778,-2.267 -1.778,0 m -0.035,-0.041 0,1.778 m 5.778,-1.775 0,1.778 m 5.779,-1.774 0,1.778 m 5.779,-1.775 0,1.778 m 5.779,-1.774 0,1.778 m 5.779,-1.775 0,1.778 m 5.779,-1.774 0,1.777 m 5.779,-1.775 0,1.779 m 5.779,-1.774 0,1.778 m 5.78,-1.775 0,1.778 m 5.779,-1.775 0,1.778 m 5.778,-1.774 0,1.779 m 5.78,-1.775 0,1.777 m 5.779,-1.775 0,1.779 m 5.778,-1.775 0,1.778 m 5.78,-1.774 0,1.778"
               style="fill:none;stroke:#231f20;stroke-width:0.69999999;stroke-linecap:butt;stroke-linejoin:miter;stroke-miterlimit:4;stroke-dasharray:none;stroke-opacity:1"
               id="path3866"
               inkscape:connector-curvature="0" />
            <text
               transform="matrix(1,0,0,-1,430.4605,517.3716)"
               style="font-variant:normal;font-weight:normal;font-size:9px;font-family:Times;-inkscape-font-specification:Times-Roman;writing-mode:lr-tb;fill:#231f20;fill-opacity:1;fill-rule:nonzero;stroke:none"
               id="text3868">
              <tspan
                 x="0"
                 y="0"
                 id="tspan3870">0</tspan>
              <tspan
                 x="-24.75 -20.25 -15.75 -11.25 -9 -4.5 0"
                 y="-59.999401"
                 sodipodi:role="line"
                 id="tspan3872">250,000</tspan>
              <tspan
                 x="99.882896 104.3829"
                 y="0"
                 sodipodi:role="line"
                 id="tspan3874">15</tspan>
            </text>
            <path
               d="m 525.917,579.661 c -2.586,-12.287 -7.348,-40.492 -24.309,-50.45 -13.289,-7.801 -56.23,-7.216 -61.965,-7.216"
               style="fill:none;stroke:#231f20;stroke-width:0.69999999;stroke-linecap:butt;stroke-linejoin:miter;stroke-miterlimit:4;stroke-dasharray:none;stroke-opacity:1"
               id="path3876"
               inkscape:connector-curvature="0" />
          </g>
        </g>
      </g>
    </g>
  </g>
</svg>
